<?xml version="1.0" encoding="iso-8859-1"?>
<!-- Generator: Adobe Illustrator 16.0.0, SVG Export Plug-In . SVG Version: 6.00 Build 0)  -->
<!DOCTYPE svg PUBLIC "-//W3C//DTD SVG 1.1//EN" "http://www.w3.org/Graphics/SVG/1.1/DTD/svg11.dtd">
<svg version="1.1" id="Calque_1" xmlns="http://www.w3.org/2000/svg" xmlns:xlink="http://www.w3.org/1999/xlink" x="0px" y="0px"
	 width="63.146px" height="32.984px" viewBox="0 0 63.146 32.984" style="enable-background:new 0 0 63.146 32.984;"
	 xml:space="preserve">
<path style="fill:none;" d="M50.624,26.247"/>
<path style="fill:none;" d="M50.599,29.196c1.619,0,2.933-1.295,2.933-2.897c0-1.601-1.313-2.899-2.933-2.899
	c-1.622,0-2.938,1.298-2.938,2.899C47.66,27.901,48.976,29.196,50.599,29.196z M43.831,26.299c0-3.694,3.029-6.689,6.768-6.689
	c3.735,0,6.768,2.994,6.768,6.689c0,3.692-3.032,6.686-6.768,6.686C46.86,32.984,43.831,29.992,43.831,26.299z"/>
<path style="fill:none;" d="M18.004,26.247"/>
<path style="fill:none;" d="M17.979,29.196c1.622,0,2.936-1.295,2.936-2.897c0-1.601-1.314-2.899-2.936-2.899
	c-1.621,0-2.933,1.298-2.933,2.899C15.046,27.901,16.358,29.196,17.979,29.196z M11.215,26.299c0-3.694,3.027-6.689,6.764-6.689
	c3.738,0,6.766,2.994,6.766,6.689c0,3.692-3.028,6.686-6.766,6.686C14.242,32.984,11.215,29.992,11.215,26.299z"/>
<path style="fill:#57AB46;" d="M60.6,20.152l-0.014-5.581c0-2.556-2.94-3.056-2.94-3.056H44.847L40.129,3.56
	c0,0-0.624-1.299-1.705-2.42C37.342,0.02,34.998,0,34.998,0H8.443c0,0-1.641,0.19-2.509,1.05C5.161,1.812,5.213,3.242,5.213,3.242
	V7.51C5.099,7.482,4.991,7.438,4.869,7.438H1.585C0.708,7.438,0,8.174,0,9.08v10.097c0,0.907,0.709,1.641,1.585,1.641h3.284
	c0.123,0,0.232-0.045,0.348-0.073l0.003,4.96l3.88,0.002c0.285-4.633,4.145-8.315,8.903-8.315c4.767,0,8.623,3.685,8.907,8.323
	l14.806,0.006c0.278-4.642,4.138-8.33,8.907-8.33c4.77,0,8.632,3.691,8.907,8.339h1.938c0.924,0,1.676-0.742,1.676-1.655
	l0.001-3.922L60.6,20.152L60.6,20.152z M22.054,11.541H8.809V3.228h13.245V11.541z M25.077,11.541l0-8.284h10.877l4.822,8.258
	L25.077,11.541z"/>
</svg>
