<?xml version="1.0" encoding="iso-8859-1"?>
<!-- Generator: Adobe Illustrator 16.0.0, SVG Export Plug-In . SVG Version: 6.00 Build 0)  -->
<!DOCTYPE svg PUBLIC "-//W3C//DTD SVG 1.1//EN" "http://www.w3.org/Graphics/SVG/1.1/DTD/svg11.dtd">
<svg version="1.1" id="Calque_1" xmlns="http://www.w3.org/2000/svg" xmlns:xlink="http://www.w3.org/1999/xlink" x="0px" y="0px"
	 width="70.753px" height="25.464px" viewBox="0 0 70.753 25.464" style="enable-background:new 0 0 70.753 25.464;"
	 xml:space="preserve">
<path style="fill:none;" d="M10.838,14.868c-2.999,0-5.43,2.373-5.43,5.298c0,2.926,2.432,5.298,5.43,5.298
	c3,0,5.431-2.372,5.431-5.298C16.269,17.241,13.837,14.868,10.838,14.868z M10.838,22.389c-1.266,0-2.291-1-2.291-2.236
	c0-1.234,1.025-2.236,2.291-2.236c1.265,0,2.292,1.001,2.292,2.236C13.129,21.389,12.103,22.389,10.838,22.389z"/>
<path style="fill:none;" d="M58.53,14.866c-3,0-5.432,2.373-5.432,5.297c0,2.927,2.432,5.3,5.432,5.3c2.999,0,5.431-2.373,5.431-5.3
	C63.961,17.239,61.529,14.866,58.53,14.866z M58.53,22.389c-1.265,0-2.292-1-2.292-2.236c0-1.234,1.026-2.236,2.292-2.236
	s2.294,1.001,2.294,2.236C60.825,21.389,59.796,22.389,58.53,22.389z"/>
<path style="fill:#57AB46;" d="M55.471,7.339c0,0-13.356-6.076-17.619-6.957c-4.262-0.88-18.931-0.08-20.324,0.8L9.332,5.098
	l-8.03,3.838l-1.3,7.396c0,0-0.036,4.387,0.276,5.397h3.934l0.051-1.563c0-3.543,2.945-6.415,6.579-6.415
	c3.632,0,6.575,2.872,6.575,6.415l0.113,1.563h34.42l0.005-1.965c0-3.544,2.744-6.16,6.376-6.16c3.633,0,6.779,2.617,6.779,6.16
	l0.135,1.816c0,0,4.161,0.229,5.472-0.251c0,0,0.491-6.795-2.048-9.274C66.412,9.973,61.864,8.675,55.471,7.339z M18.263,8.298
	c0,0,1.682-3.48,3.519-4.808c1.36-1.131,8.858-1.1,8.858-1.1l0.277,6.746L18.263,8.298z M50.76,9.896L33.181,9.217L32.771,2.38
	c6.516-0.238,13.934,3.159,18.194,5.597C55.229,10.416,50.76,9.896,50.76,9.896z"/>
</svg>
