<?xml version="1.0" encoding="iso-8859-1"?>
<!-- Generator: Adobe Illustrator 16.0.0, SVG Export Plug-In . SVG Version: 6.00 Build 0)  -->
<!DOCTYPE svg PUBLIC "-//W3C//DTD SVG 1.1//EN" "http://www.w3.org/Graphics/SVG/1.1/DTD/svg11.dtd">
<svg version="1.1" id="Calque_1" xmlns="http://www.w3.org/2000/svg" xmlns:xlink="http://www.w3.org/1999/xlink" x="0px" y="0px"
	 width="67.995px" height="37.783px" viewBox="0 0 67.995 37.783" style="enable-background:new 0 0 67.995 37.783;"
	 xml:space="preserve">
<path style="fill:#57AB46;" d="M67.754,28.568h-1.104v-6.228l-6.081-1.919l-3.593-8.734h4.383c0.779,0,1.489-0.451,1.82-1.156
	s0.226-1.539-0.272-2.139l-6.352-7.659C56.171,0.269,55.6,0,54.997,0H2.958C1.893,0,1.03,0.863,1.03,1.928v9.759l0,0v16.881H0.241
	C0.108,28.568,0,28.676,0,28.81v2.875c0,0.133,0.108,0.241,0.241,0.241h2.717h4.599c0.081,3.249,2.738,5.858,6.007,5.858
	c3.268,0,5.925-2.609,6.007-5.858h21.92h1.603h5.587h1.527c0.082,3.249,2.739,5.858,6.007,5.858c3.268,0,5.925-2.609,6.007-5.858
	h4.427h1.104c0.133,0,0.241-0.108,0.241-0.241V28.81C67.995,28.676,67.887,28.568,67.754,28.568z M15.748,31.925
	c-0.079,1.139-1.025,2.039-2.184,2.039c-1.16,0-2.106-0.9-2.185-2.039c-0.003-0.051-0.008-0.101-0.008-0.153
	c0-1.211,0.981-2.192,2.192-2.192c1.21,0,2.192,0.981,2.192,2.192C15.756,31.824,15.751,31.874,15.748,31.925z M22.614,17.329
	c0,0.133-0.108,0.241-0.241,0.241H7.854c-0.133,0-0.241-0.108-0.241-0.241V9.634c0-0.133,0.108-0.241,0.241-0.241h14.52
	c0.133,0,0.241,0.108,0.241,0.241V17.329z M37.37,29.128c0,0.133-0.108,0.241-0.241,0.241h-7.584c-0.133,0-0.241-0.108-0.241-0.241
	V9.393c0-0.133,0.108-0.241,0.241-0.241h7.584c0.133,0,0.241,0.108,0.241,0.241V29.128z M46.632,19.716
	c-0.185,0-0.335-0.15-0.335-0.335v-4.526c0-0.185,0.15-0.335,0.335-0.335h6.778c0.203,0,0.388,0.121,0.469,0.308l1.996,4.582
	c0.063,0.145-0.043,0.307-0.202,0.307H46.632z M58.399,31.925c-0.079,1.139-1.025,2.039-2.184,2.039c-1.159,0-2.106-0.9-2.185-2.039
	c-0.003-0.051-0.008-0.101-0.008-0.153c0-1.211,0.981-2.192,2.192-2.192c1.21,0,2.191,0.981,2.191,2.192
	C58.407,31.824,58.402,31.874,58.399,31.925z"/>
</svg>
