<?xml version="1.0" encoding="iso-8859-1"?>
<!-- Generator: Adobe Illustrator 16.0.0, SVG Export Plug-In . SVG Version: 6.00 Build 0)  -->
<!DOCTYPE svg PUBLIC "-//W3C//DTD SVG 1.1//EN" "http://www.w3.org/Graphics/SVG/1.1/DTD/svg11.dtd">
<svg version="1.1" id="Calque_1" xmlns="http://www.w3.org/2000/svg" xmlns:xlink="http://www.w3.org/1999/xlink" x="0px" y="0px"
	 width="72.004px" height="25.646px" viewBox="0 0 72.004 25.646" style="enable-background:new 0 0 72.004 25.646;"
	 xml:space="preserve">
<path style="fill:none;" d="M71.185,17.616c0,0,0.403-0.173,0.691-0.576c0.287-0.403,0-1.44,0-1.44s-0.52-1.497-1.33-2.027
	c-0.811-0.529-2.012-0.335-2.012-0.335c-0.516-0.925-1.917-2.862-5.068-3.917c-6.619-2.213-19-1.441-19-1.441
	s-0.074,0.003-0.211,0.009l-0.051-0.186l-1.043-5.184c0,0-0.266-0.788-0.994-1.209c-2.16-1.253-11.571-2.087-18.869-0.206
	c-7.372,1.901-12.2,7.723-12.913,8.626c-0.387,0.126-2.818,0.291-3.295,0.513c-4.494,2.088-4.923,7.208-5.127,8.032
	c-0.63,0.46-1.236,0.917-1.804,1.351L0,21.261c0,0,9.128-2.667,14.139-1.846c4.776,0.782,6.847,4.307,6.847,4.307
	s2.099-0.216,3.209-0.753l25.273-1.205c0,0-0.805-8.848,7.949-8.698c6.682,0.115,7.258,7.18,7.258,7.18s2.592,0.711,4.32,0.711
	c1.728,0,3.008-0.691,3.008-0.691L71.185,17.616z M37.583,1.858c0,0,3.577-0.005,3.997,0.445c0.568,0.5,0.592,1.48,0.592,1.48
	l0.642,3.948l-8.932,0.223l-0.445-5.998L37.583,1.858z M24.672,4.118c2.117-1.987,4.891-1.938,7.387-2.16l0.389,5.918l-9.979,0.303
	C22.469,8.178,22.547,6.112,24.672,4.118z"/>
<path style="fill:none;" d="M7.301,21.305c0,0,0.647,4.063,4.276,4.32c4.277,0.302,5.313-2.825,5.313-2.825s-1.729-1.28-4.666-1.496
	C9.288,21.089,7.301,21.305,7.301,21.305z"/>
<path style="fill:#57AB46;" d="M57.157,14.846c-2.982,0-5.399,2.418-5.399,5.4c0,2.982,2.417,5.399,5.399,5.399
	c2.982,0,5.4-2.417,5.4-5.399C62.558,17.264,60.14,14.846,57.157,14.846z M57.157,23.572c-1.837,0-3.327-1.489-3.327-3.327
	s1.489-3.327,3.327-3.327c1.838,0,3.328,1.49,3.328,3.327S58.995,23.572,57.157,23.572z"/>
</svg>
