<?xml version="1.0" encoding="iso-8859-1"?>
<!-- Generator: Adobe Illustrator 16.0.0, SVG Export Plug-In . SVG Version: 6.00 Build 0)  -->
<!DOCTYPE svg PUBLIC "-//W3C//DTD SVG 1.1//EN" "http://www.w3.org/Graphics/SVG/1.1/DTD/svg11.dtd">
<svg version="1.1" id="Calque_1" xmlns="http://www.w3.org/2000/svg" xmlns:xlink="http://www.w3.org/1999/xlink" x="0px" y="0px"
	 width="65.21px" height="35.608px" viewBox="0 0 65.21 35.608" style="enable-background:new 0 0 65.21 35.608;"
	 xml:space="preserve">
<path style="fill:none;" d="M0,26.693h12.804c-0.853,1.121-1.366,2.493-1.366,4.005H5.129L0,29.419V26.693z"/>
<path style="fill:none;" d="M58.864,16.876L55.243,6.171V3.495H43.89v23.198H23.647c0.857,1.121,1.371,2.493,1.371,4.005h21.168
	c0-3.687,3.044-6.68,6.797-6.68c2.636,0,4.916,1.479,6.042,3.646c0.402,0.778,0.657,1.647,0.717,2.559
	c0.013,0.159,0.035,0.318,0.035,0.476h5.433V19.552L58.864,16.876z M47.096,16.876V8.848h6.343l2.709,8.028H47.096z"/>
<path style="fill:none;" d="M18.234,25.798c-2.756,0-4.985,2.199-4.985,4.9c0,2.71,2.229,4.91,4.985,4.91
	c2.743,0,4.972-2.199,4.972-4.91C23.206,27.997,20.977,25.798,18.234,25.798z M18.234,33.375c-1.508,0-2.73-1.196-2.73-2.677
	c0-1.472,1.223-2.676,2.73-2.676c1.49,0,2.712,1.204,2.712,2.676C20.948,32.179,19.725,33.375,18.234,33.375z"/>
<path style="fill:none;" d="M52.984,25.798c-2.756,0-4.985,2.199-4.985,4.9c0,2.71,2.229,4.91,4.985,4.91
	c2.743,0,4.979-2.199,4.979-4.91C57.963,27.997,55.727,25.798,52.984,25.798z M52.984,33.375c-1.503,0-2.718-1.196-2.718-2.677
	c0-1.472,1.214-2.676,2.718-2.676c1.498,0,2.717,1.204,2.717,2.676C55.701,32.179,54.482,33.375,52.984,33.375z"/>
<path style="fill:#57AB46;" d="M0,0h41.555v25.155H0V0z"/>
</svg>
