<?xml version="1.0" standalone="no"?>
<!DOCTYPE svg PUBLIC "-//W3C//DTD SVG 1.1//EN" "http://www.w3.org/Graphics/SVG/1.1/DTD/svg11.dtd" >
<svg xmlns="http://www.w3.org/2000/svg">
<metadata></metadata>
<defs>
<font id="lunchboxslabbold" horiz-adv-x="796" >
<font-face units-per-em="2048" ascent="1591" descent="-457" />
<missing-glyph horiz-adv-x="473" />
<glyph horiz-adv-x="0" />
<glyph horiz-adv-x="682" />
<glyph horiz-adv-x="0" />
<glyph horiz-adv-x="0" />
<glyph unicode="&#xd;" horiz-adv-x="655" />
<glyph unicode=" "  horiz-adv-x="473" />
<glyph unicode="&#x09;" horiz-adv-x="473" />
<glyph unicode="&#xa0;" horiz-adv-x="473" />
<glyph unicode="!" horiz-adv-x="342" d="M33 1241q-12 125 40 172t193 47q86 0 127 -54t33 -134q-5 -44 -18.5 -131t-16.5 -129l-51 -525q-3 -34 -4 -94t-4 -88q-4 -29 -26 -38t-75 -9q-48 0 -75 2h2q-26 0 -41 61t-15 97l-10 108q-4 43 -6 152.5t-10 179.5q-5 56 -20.5 182.5t-22.5 200.5zM109 80q0 41 26 79 t66 38q54 0 87.5 -24.5t33.5 -76.5q0 -33 -26 -56.5t-60 -31.5h2q-19 -8 -48 -8q-81 0 -81 80z" />
<glyph unicode="&#x22;" horiz-adv-x="460" d="M68 1438q0 24 8 32v-2q6 15 53 15q65 0 82.5 -14t17.5 -74q0 -13 -4.5 -37t-5.5 -35q-1 -10 -1.5 -22.5t-1 -17t-2.5 -10t-8 -6.5t-15 -2t-27 -1q-60 0 -80 10q-2 10 -8 80q-1 8 -4.5 37t-3.5 47zM265 1351q0 14 0.5 34.5t3 36.5t6 31t10.5 24t16 10h4q77 0 117 -21 l10 -30q-4 -10 -5 -28t0 -43.5t1 -29.5q0 -54 -13 -66t-67 -12q-27 0 -54.5 9.5t-27.5 31.5q0 4 -0.5 21.5t-0.5 31.5zM422 1466v4q2 0 6 -2.5t4 -3.5z" />
<glyph unicode="#" horiz-adv-x="1216" d="M71.5 916.5q-0.5 15.5 1 40.5t1.5 32q0 6 1 13t2.5 15t2.5 13q24 17 107.5 21.5t97.5 7.5q4 37 5.5 80.5t1.5 72.5t-0.5 82.5t-0.5 75.5q0 18 -3 49t-3 37q41 21 92 21q15 0 44 3t44 3q43 0 63 -33q0 -198 -18 -391q117 0 176 -2q0 32 -5.5 123t-2.5 141q-4 7 -4 47 q0 70 39 82h-4q34 14 127 14q41 0 60 -11.5t19 -49.5q0 -34 -4 -102.5t-4 -102.5v-154q20 0 62.5 -2t64.5 -2q14 0 64 13q7 -15 11.5 -30.5t6.5 -37.5t2.5 -31.5t0 -39.5t-0.5 -33q0 -48 -22 -76q-101 0 -203 12v-102v-62q60 9 108 2q2 7 39 7q20 0 34 -9t20.5 -20.5t10 -32 t3.5 -34.5t-1 -38t-1 -32q0 -37 -9.5 -57.5t-41.5 -20.5q-19 0 -57 6t-58 6h-39q0 -28 -3 -80.5t-3 -77.5q0 -24 3 -73t3 -74q0 -91 -10 -129l-174 8q-45 30 -45 107q0 12 1 25t2.5 29t2.5 25q12 123 12 248q-56 6 -110 6q-18 0 -51.5 -2t-49.5 -2q0 -54 4 -162.5t4 -162.5 q0 -9 3.5 -27.5t3.5 -26.5q0 -17 -4.5 -28.5t-16 -17.5t-21.5 -9t-31 -2.5t-35 1.5t-42.5 4.5t-44.5 4.5q-20 33 -20 340v86q-15 0 -47 -3t-48 -3q-44 0 -84 19q-22 50 -22 133v28q27 50 90 50q19 0 55.5 -6t50.5 -7h5v201q-82 -10 -152 -10q-21 0 -34 10t-17 29.5t-4.5 35z M479 643h82q88 0 131 2v197q-133 14 -176 14q-2 0 -12 -1t-12 1q-11 -128 -13 -213z" />
<glyph unicode="$" horiz-adv-x="829" d="M31 250q2 51 31 87t79 40q67 4 93 -42t-15 -97q-42 -54 -2.5 -93.5t105.5 -44.5q8 58 9 123t-2 150t-3 123q-27 31 -82 86q-80 76 -140.5 189t-60.5 212q-2 69 24 128t65.5 95t79 60t67.5 33t28 4l-2 104q42 0 60 2l61 4q6 -8 10 -63q2 -14 2 -52l21 -4q23 -3 39 -10 q45 -13 100.5 -58t89.5 -100q54 -86 10 -147q-26 -36 -90 -49q-69 -13 -93 21q-13 20 -5 53q5 24 7.5 34.5t4.5 30t-1.5 29t-10.5 21.5t-22 18t-37 8q-4 -25 -2.5 -110.5t0.5 -110.5q-1 -23 -3.5 -72.5t-3 -72.5t1.5 -72v-50v-22q33 -39 76 -84.5t66.5 -74t40.5 -62.5 q30 -61 44.5 -103.5t15.5 -96.5t-23 -101q-44 -83 -117 -119q-9 -6 -28 -11.5t-23 -7.5q-20 -4 -27 -4v-75q0 -93 -76 -93q-51 0 -66.5 10.5t-9.5 55.5q5 40 5 53v29h-17q-16 0 -37 6q-82 21 -159 104q-85 100 -78 189zM182.5 978.5q0.5 -49.5 28.5 -110.5q0 -6 24.5 -43.5 t52.5 -70.5t34 -27q-4 58 -1 204t-6 202q-9 0 -28 -6.5t-45 -25t-43 -46t-16.5 -77zM446 90q26 9 35 14q37 17 49 33q27 31 30 71.5t-13 76.5t-36 66.5t-37 48t-17 14.5q0 -95 -11 -324z" />
<glyph unicode="%" horiz-adv-x="1591" d="M80 1073q0 47 8.5 96t27.5 98.5t47 88.5t70 65t93 31q18 2 57 2q61 0 114 -34.5t88.5 -88t61.5 -119.5t37.5 -129t11.5 -116q0 -68 -15.5 -127t-47.5 -108t-86.5 -77t-126.5 -28q-74 0 -133 25.5t-97 68t-63.5 101t-36 121t-10.5 130.5zM266.5 1097.5q-5.5 -60.5 2 -121 t38.5 -103t78 -42.5q42 0 69 34.5t35.5 74.5t8.5 82q0 34 -6.5 69t-21 71t-43 58.5t-65.5 22.5q-38 0 -64 -42.5t-31.5 -103zM432 14q0 25 7 53.5t14 47t21 50.5t20 46q44 109 89 237t98.5 285t82.5 238q3 9 23 64t35.5 98.5t34.5 99t31 97t15 61.5q9 61 19 77q16 26 53 35 q15 4 69 4q79 0 113 -34q-6 -36 -18.5 -75.5t-30 -89t-25.5 -75.5q-32 -106 -95.5 -303.5t-74.5 -231.5l-219 -684q-19 -51 -129 -51q-13 0 -32 2t-43.5 7t-41 16t-16.5 26zM932 498q0 53 7 102t25 99.5t46 87t74 60t104 23.5q78 0 164 -36l2 -3q95 -60 130.5 -140.5 t35.5 -203.5q0 -105 -13 -182q-19 -113 -92 -193.5t-182 -80.5q-66 0 -119.5 31t-86.5 79.5t-55 112t-31 124t-9 120.5zM1124 449q0 -34 3.5 -66t14 -70.5t34.5 -62t59 -23.5q24 0 42.5 29.5t27 72.5t12.5 79t4 61q0 30 -3.5 59.5t-12 65t-29.5 57t-51 21.5 q-32 0 -53.5 -24.5t-31 -63.5t-13 -71t-3.5 -64z" />
<glyph unicode="&#x26;" horiz-adv-x="1040" d="M61 211q-67 223 175 567q-10 24 -26.5 56.5t-28.5 55t-26 55t-19.5 57t-9.5 61.5t5 67q17 87 99 146t169 47q75 -9 118 -56.5t49 -113.5t-9 -137.5t-50 -135t-79 -100.5l131 -237q31 -58 88 -156q13 57 11 143.5t-11 167.5h-47l1 3q1 3 5 4l-8 4q-35 68 -29 100 q14 6 33 7.5t47 0t33 -1.5q26 0 84.5 5.5t87.5 4.5q5 -93 4 -106l-67 -6q12 -52 17.5 -137.5t-4.5 -194.5t-40 -178q4 -7 24 -46t33 -57q12 -14 29 -21t40 -12t34 -10q52 -19 81.5 -62.5t10.5 -94.5q-16 -38 -49 -51.5t-68.5 -6t-67.5 28.5q-52 33 -99.5 90t-65.5 111 q-20 -8 -53.5 -31t-51.5 -31q-73 -39 -143 -39q-131 0 -222.5 65t-134.5 175zM213 236q15 -67 82 -102t137 -19q37 10 75 36.5t62 57.5q-61 133 -98 203q-108 204 -135 223q-29 -37 -85.5 -182.5t-37.5 -216.5zM273 1038.5q11 -86.5 77 -127.5q9 4 35 41t46.5 90t8.5 86 q-10 30 -48 46t-73 -5q-57 -44 -46 -130.5z" />
<glyph unicode="'" horiz-adv-x="30" d="M-102 1430q6 21 19 34.5t33 18.5t35 6.5t38 1.5q20 0 61 -18q16 -199 18 -216l-2 7q4 -21 -53 -33t-115 -12q-17 31 -19 107t-15 104z" />
<glyph unicode="(" horiz-adv-x="559" d="M68 766q0 161 24 309.5t72 329.5q4 13 13.5 77.5t27.5 96.5q15 35 82 35q39 0 61.5 -5t32.5 -21.5t12 -32.5t2 -52q0 -66 -32.5 -194.5t-38.5 -165.5q-31 -198 -31 -342q0 -128 34 -342t79 -297q6 -11 21.5 -37.5t25 -44t18 -40.5t8.5 -40q0 -23 -10 -33l2 2 q-19 -37 -113 -37h-49q-21 0 -40 16.5t-32.5 42t-23 49t-16.5 45.5q-1 5 -2 7l-11 27q-50 116 -78 239q-38 168 -38 408z" />
<glyph unicode=")" horiz-adv-x="546" d="M68 1587v8q67 21 157 21h41l27 -19q12 -32 26.5 -66t34.5 -78.5t29 -66.5q41 -101 63.5 -282.5t22.5 -321.5q0 -380 -121 -673l-2 -3q-2 -4 -10 -26.5t-10 -28t-10 -23.5t-13.5 -24t-16 -17.5t-20.5 -15.5t-25 -8t-32 -4q-25 0 -35.5 0.5t-30.5 4t-28.5 10.5t-16.5 22 t-8 37q0 14 2 16v-2q76 240 115 415t39 353q0 83 -39 297.5t-70 280.5q-5 11 -21.5 44t-24 51t-15.5 46.5t-8 52.5z" />
<glyph unicode="*" horiz-adv-x="690" d="M70 1372q0 8 1.5 15t6 13.5t7.5 10.5t11 9.5t10.5 7.5t13 7.5t11.5 6.5q-15 8 -20 11t-14 10t-12 15.5t-3 20.5q0 38 21.5 88.5t52.5 50.5q13 0 55 -14v37q0 24 18 49q14 5 32.5 8t31 3.5t35.5 1.5t30 1h-4q8 2 29 2q29 0 39.5 -25.5t5.5 -53.5v2q-2 -4 -2 -21 q9 5 19.5 15.5t21 16t27.5 5.5q26 0 57.5 -32t46.5 -62v2q12 -28 12 -37q0 -7 -2.5 -15t-5 -12.5t-9.5 -12t-9.5 -10t-11.5 -10.5l-9 -8l2 2q-3 -3 -11 -7t-11 -7q21 2 42 -16t21 -41q0 -13 -12 -41l2 2q-2 -3 -17 -33.5t-28 -44.5t-31 -14q-16 0 -33 10v-2q-29 10 -49 24 q-1 -12 -1.5 -31t-2 -26.5t-6.5 -18t-17.5 -16t-33.5 -10.5q-41 -8 -88 -8t-47 59q-35 -35 -52 -35q-15 0 -34.5 22.5t-38.5 52.5t-29 38q-18 18 -18 45z" />
<glyph unicode="+" d="M72 692q0 23 7 40.5t21.5 27.5t28.5 16t37.5 7.5t38.5 2t41 -0.5t37 -1q-9 59 -9 113q0 58 23 88.5t80 30.5q53 0 92 -39q12 -135 6 -201q5 19 215 19q19 -42 19 -117q0 -90 -39 -96q-63 -11 -181 -11q5 -43 5 -159q0 -22 -3 -35.5t-14 -19.5t-17.5 -8t-28 -3t-30.5 -2 q-6 -1 -25.5 -4.5t-29.5 -3.5q-20 0 -32.5 17t-16.5 47.5t-4.5 55t1 59t1.5 40.5v14h-90q-72 0 -127 -8q0 24 -3 67t-3 64z" />
<glyph unicode="," horiz-adv-x="358" d="M66 127q0 40 34 67t74 27q46 0 78.5 -38.5t32.5 -84.5q0 -73 -52.5 -113.5t-128.5 -47.5q-20 32 -20 57q0 4 20 20l19 15l12 6q-30 11 -49.5 36t-19.5 56z" />
<glyph unicode="-" d="M70 590v108q0 54 47 54q19 0 58.5 -2t60.5 -2q8 0 79.5 1.5t136.5 2t129 -1t78 -7.5h-4l4 -2q14 0 24 -7t15.5 -19.5t9 -26.5t4 -32.5t0.5 -31.5t-0.5 -30.5t-0.5 -22.5q0 -15 -0.5 -23t-4 -18.5t-12 -15t-22.5 -4.5q-29 0 -43 2q-5 5 -190 14t-244 9q-12 0 -37.5 -3.5 t-32.5 -3.5q-3 0 -23 4h7q-24 11 -31.5 21.5t-7.5 36.5z" />
<glyph unicode="." horiz-adv-x="335" d="M63 123q0 41 28.5 71t70.5 35v-2q46 1 74 -29.5t28 -76.5q0 -41 -24.5 -72t-65.5 -31q-44 0 -77.5 31t-33.5 74z" />
<glyph unicode="/" horiz-adv-x="890" d="M61 14q0 54 247 726.5t298 764.5q23 13 60 13q46 0 86.5 -16.5t40.5 -55.5q0 -10 -5 -26.5t-6 -22.5q-37 -121 -280 -757t-260 -644q-121 5 -144.5 7t-36.5 11z" />
<glyph unicode="0" horiz-adv-x="858" d="M31 856q0 70 8 138t27 142.5t58.5 136t94.5 95.5q19 12 47 20t49 10.5t56 5.5t49 5h-2q47 6 90 6q78 0 127 -29q169 -93 188 -360q6 -97 -0.5 -381.5t-13.5 -343.5t-24 -93.5t-60 -92.5q-46 -61 -132.5 -88t-176.5 -27t-172 45q-33 19 -59.5 46.5t-44.5 54.5t-32.5 67.5 t-22.5 69t-15 77t-9 73.5t-6 76.5t-6 68.5q-2 33 -7 89t-8 102t-3 87zM254 693q0 -49 4 -129.5t14 -160.5q0 -76 29 -147q49 -49 160 -49q79 0 106 49q11 24 18 50t9.5 59.5t3.5 49.5t0.5 55t-0.5 42q0 46 -3 138t-3 138q0 22 4 74t6.5 92t-3.5 91t-22.5 85.5t-54 59.5 t-94.5 27q-36 -3 -64.5 -13.5t-46.5 -25.5t-31 -34.5t-18 -40t-9 -42t-3 -41t0 -37.5v-3v-3v-3.5v-3.5v-3q0 -44 -1 -134.5t-1 -139.5z" />
<glyph unicode="1" horiz-adv-x="516" d="M31 1143v8q0 40 83 172.5t91 153.5q22 20 69 20q71 0 115 -20q12 -32 12 -52q0 -99 -6 -291t-6 -290q0 -110 3 -332t3 -332q24 -1 38.5 -3.5t29.5 -13t14 -28.5q-1 -10 3 -59.5t-3 -59.5q-5 -16 -23 -17.5t-43 5t-32 6.5t-40.5 -2.5t-70.5 -5t-75 -3t-63.5 4.5t-27.5 16 q-1 12 3 36t4 34q0 51 2 78q0 25 98 25q-5 237 -0.5 570t16.5 456q-6 0 -28 -36.5t-43 -72t-25 -33.5h2q-14 6 -29 15t-22 13.5t-26.5 20t-22.5 17.5z" />
<glyph unicode="2" horiz-adv-x="772" d="M31 1092q-3 64 24 143q6 18 27 41t27 33q4 7 10 19.5t12 20.5t16 15q105 82 222 82q133 0 229 -98t96 -232q0 -99 -34 -197.5t-88.5 -185t-112 -167t-116 -176t-89.5 -179.5q104 14 281 14q5 60 4 76q0 4 -3 18t-3 25.5t6 17.5q11 6 21 5t27.5 -5t22.5 -4t24 1.5t31.5 0 t22.5 -7.5q36 -21 17 -119q-7 -50 -3 -137q0 -7 3 -26.5t3.5 -31.5t-7 -23t-25.5 -11q-33 -2 -105 -2q-57 -2 -151 -2q-303 0 -346 14q-16 3 -22.5 36.5t-6.5 58.5q0 193 64 313l-3 -2q45 102 158 231h-2q254 324 254 457q0 62 -31 111t-90 49q-39 0 -84 -21.5t-53 -56.5 q-5 -19 7.5 -50.5t13.5 -37.5q5 -44 -10 -83t-54 -50q-57 -12 -118.5 27t-65.5 96z" />
<glyph unicode="3" horiz-adv-x="825" d="M32 1403q0 6 3 16q9 9 61 4q0 2 2 4h172q75 0 224.5 -1t224.5 -1q-22 -74 -61 -144.5t-97 -156.5t-84 -131q75 -32 126 -81t78 -113t37.5 -130.5t10.5 -150.5q0 -68 -7 -133t-28.5 -137t-55 -125t-91.5 -88t-133 -35q-40 0 -74 6q-98 19 -168 117q-65 87 -80 149 q-17 106 31 166q31 37 84.5 56.5t95.5 3.5q27 -11 53 -54q6 -10 8.5 -20.5t3.5 -17.5t-1 -17.5t-3.5 -16t-6.5 -19t-7 -19.5q-3 -9 -4 -10q-2 -6 -6 -19.5t-6 -23t-2 -19.5q0 -33 25.5 -44.5t58.5 -4.5q52 11 80 72q45 78 45 227q0 130 -27 207v-2q-15 35 -47.5 60t-70.5 36 t-79 20.5t-73.5 14.5t-54 16.5t-21.5 28.5q0 26 41.5 90t104.5 147t71 95q-11 5 -83 1.5t-83 -3.5l4 -21q1 -2 5 -17.5t4.5 -22t0 -18t-7 -17t-18.5 -7.5q-24 -3 -73 -7t-73 -7q-18 0 -22.5 11t0 32.5t4.5 24.5q-1 22 1 63t1 61q-1 6 -1 30.5t-3 37.5q0 1 -4.5 16t-4.5 21z " />
<glyph unicode="4" horiz-adv-x="864" d="M31 543q29 70 74.5 164.5t50.5 107.5q27 71 94.5 210t95.5 214q58 141 84 197q18 41 43.5 60.5t67.5 19.5l73 -3q11 -80 9 -423.5t-9 -409.5q20 0 59 4t58 4q58 0 103 -26q0 -16 4 -44t4 -43q0 -56 -37 -77q-13 0 -42 1t-42 1q-89 0 -115 -4q-8 -51 -8 -156t2 -160 q17 0 30 -1t30.5 -5t26.5 -14t7 -25q-1 -10 3 -59.5t-3 -59.5q-5 -16 -23 -17.5t-43 5t-32 6.5t-40.5 -2.5t-70 -4.5t-74 -2.5t-62.5 4.5t-27 15q-2 16 -2 23t2.5 23.5t3.5 23.5q0 7 -1 24t-0.5 29.5t3.5 24.5q2 25 92 25q-4 34 0 127.5t4 95.5q0 10 -1.5 36t-0.5 40 q-28 6 -58 7t-70 -1t-58 -2q-13 0 -35 3t-33 3q-14 0 -38 -3t-38 -3q-61 0 -61 47zM297 690q43 -6 90 -6q27 0 43 2q4 164 4 250q0 42 6 86q-17 -39 -44 -106t-51 -122.5t-48 -103.5z" />
<glyph unicode="5" horiz-adv-x="778" d="M31 304q-4 57 24 106q30 55 89 82t118 10q38 -11 52 -51.5t5 -81.5q-1 -5 -12.5 -31t-7.5 -39q21 -49 39 -59q23 -15 49.5 -2.5t40.5 34.5q19 27 28.5 69t11 70t1.5 78q0 86 -20 189t-60 147q-24 24 -69 40t-82 16q-24 0 -82 -13q-21 -12 -50 -12q-36 0 -45 37 q-7 27 -18.5 218.5t-11.5 246.5q0 43 17.5 64.5t60.5 21.5q99 0 277 -4.5t247 -5.5v-7q60 4 69 -24q5 -14 5.5 -31.5t-1.5 -30t-6.5 -33.5t-5.5 -30q-9 -58 0 -117q6 -33 -5 -44.5t-46 -16.5h-2q-6 0 -26.5 -1t-35 -1t-31 3t-24.5 9q-7 4 -7 14t3.5 22.5t3.5 16.5 q0 12 -2 37t-2 39q-40 -1 -112 1.5t-101 2.5q-36 0 -59 -2l4 -12l-2 2q6 -19 9.5 -42.5t6 -52.5t4.5 -42q104 2 181.5 -23.5t126 -71t78.5 -114.5t41.5 -145.5t11.5 -174.5q0 -70 -7 -139t-29 -148.5t-56 -139t-94 -99t-138 -39.5q-180 0 -268 104q-37 42 -59.5 92.5 t-26.5 107.5z" />
<glyph unicode="6" horiz-adv-x="772" d="M31 528q0 176 16.5 393t52.5 310q30 75 100.5 117.5t153.5 42.5q36 0 74 -9q60 0 102 -22q91 -43 123 -98q35 -51 39 -123q13 -69 -2 -117q-13 -34 -56 -44t-87.5 0.5t-69.5 29.5q-30 23 -43.5 47.5t-3.5 56.5q1 6 3 21.5t1.5 19t-2.5 16.5q-13 15 -37 35v4q-4 0 -12 1 t-12 1q-22 0 -40 -11.5t-30 -27t-22 -42.5t-15 -46.5t-9.5 -52t-5.5 -45.5l-3 -39q95 31 153 31q70 0 123.5 -35t82.5 -92.5t43 -120t14 -127.5q0 -32 -15 -190q-16 -158 -37 -223q-48 -151 -180 -181q-24 -8 -61 -8q-91 0 -177.5 62t-125.5 149q-35 82 -35 317zM221 487 q0 -141 53 -219v2q44 -59 97 -59q10 0 24.5 7t20.5 15q16 23 30.5 175.5t6.5 183.5q4 7 4 33q0 35 -25 90q-40 37 -90 37q-39 0 -65.5 -29.5t-37 -77t-14.5 -84t-4 -74.5z" />
<glyph unicode="7" horiz-adv-x="851" d="M33 1434q2 4 7.5 6.5t15 4t18 2t20 1t17.5 0.5q16 4 24 4q36 5 234 8.5t268 3.5q11 0 29 2t30 2q20 0 35 -4t24 -13.5t14.5 -18t7 -26t2 -27t0 -31.5t-0.5 -31q0 -14 -31 -58.5t-69.5 -95.5t-48.5 -69q-67 -119 -133 -372.5t-74 -399.5q-4 -82 -4 -129q3 0 19 5t23 5 t19 -6q6 -4 6.5 -18t-1.5 -31.5t-1 -22.5q0 -8 2 -24.5t2 -30t-4 -23.5q-16 -32 -96 -27q-34 -10 -78 -10q-19 0 -43 6l-37 -6q-6 0 -33.5 -5.5t-42.5 -1.5t-18 24q-15 116 -16 145q0 19 13 23.5t37 -0.5t28 -5h2q4 86 10 129q54 425 168 711v-2q27 90 55 133v-2 q8 15 30 49.5t32 55.5h-95q-36 0 -108 -4.5t-109 -4.5q2 -6 2 -24q0 -2 3.5 -13.5t4 -16t-1.5 -13.5q-3 -5 -12 -7.5t-22 -3t-24 -0.5t-23.5 0.5t-14.5 0.5q-12 -1 -20.5 4.5t-13.5 17.5t-8 25t-3.5 31t-0.5 30.5t0.5 28.5t0.5 20q-1 8 -10 47t-6 52z" />
<glyph unicode="8" horiz-adv-x="841" d="M31 451q0 101 42 259.5t99 211.5q-70 70 -70 194q0 134 84 231t215 97q222 0 297 -170v2q2 -5 9 -21.5t8.5 -22.5t5.5 -18.5t5 -23.5t1 -25q0 -65 -18 -136t-54 -107q150 -103 150 -342q0 -105 -23 -230q-11 -69 -49 -147.5t-103.5 -140.5t-135.5 -62q-118 0 -220.5 39.5 t-152.5 126.5q-54 72 -60 113h2q-32 77 -32 172zM244 414q0 -41 6.5 -76t22 -69.5t46.5 -54t76 -19.5q37 0 64.5 14t43.5 32t28 51t17 55.5t11 60.5q0 156 -15 242t-42.5 116.5t-75.5 30.5q-47 0 -82 -29t-53.5 -69.5t-29.5 -97t-14 -99.5t-3 -88zM303 1155q0 -45 35.5 -84 t79.5 -39q45 0 68.5 39t23.5 86q0 45 -24.5 75t-69.5 30q-31 0 -47 -7q-5 -5 -18 -17t-19 -18.5t-14 -17.5t-11.5 -22.5t-3.5 -24.5z" />
<glyph unicode="9" horiz-adv-x="755" d="M31 993q0 83 15.5 158t50.5 144t100.5 110t154.5 41q121 0 212 -64.5t98 -179.5q12 -150 12 -377q0 -58 -4 -172q-1 -22 -2 -91.5t-2.5 -112.5t-9 -111.5t-20.5 -114t-37.5 -92.5t-59.5 -74h2q-29 -24 -90 -43q-72 -14 -93 -14q-48 0 -88 12q-61 21 -102 90 q-6 10 -22 34.5t-26 43t-16 39.5q-10 38 -10 64q0 37 19 73q31 52 75 60q48 12 78 2q9 -3 16 -7.5t12 -11.5t9 -13t6 -16t3.5 -16.5t2 -18.5t0.5 -17.5v-17.5v-15q0 -5 -1 -18.5t-1 -22t3.5 -19t11.5 -16.5q23 -16 67 8v2q56 34 56 156q0 20 -2.5 62.5t-2.5 64.5 q-59 -17 -98 -17q-20 0 -26 2q-67 12 -137.5 74t-100.5 131q-53 114 -53 301zM244 922q0 -48 12.5 -94t46.5 -82.5t82 -36.5q84 0 84 245v13q0 33 -0.5 54t-2.5 61.5t-7.5 68t-14.5 56.5t-24.5 44t-36.5 15q-17 0 -31.5 -8.5t-26 -25t-19.5 -30.5t-18 -35.5t-14 -29.5v2 q-30 -89 -30 -217z" />
<glyph unicode=":" horiz-adv-x="350" d="M66 649q0 39 28.5 64t67.5 32h6q37 0 63.5 -25t26.5 -63q0 -35 -27.5 -69.5t-62.5 -34.5q-38 0 -70 29.5t-32 66.5zM82 92q0 42 27.5 71.5t68.5 29.5q30 0 55 -25h-2q22 -25 25.5 -68.5t-18 -78.5t-60.5 -35q-43 0 -69.5 31t-26.5 75z" />
<glyph unicode=";" horiz-adv-x="342" d="M66 98q0 34 18 58q26 39 74 39q46 0 79 -36.5t33 -82.5q0 -44 -26 -99t-64 -55q-13 0 -28 12l-13 19v8q0 22 15 43q-40 1 -64 28t-24 66zM68 637q0 48 26.5 76t73.5 28q41 0 66.5 -26.5t25.5 -67.5q0 -43 -33.5 -71.5t-76.5 -28.5q-15 0 -27 6q-16 2 -31 37 q-10 4 -17 19.5t-7 27.5z" />
<glyph unicode="&#x3c;" horiz-adv-x="690" d="M72 786q0 27 14 52q14 22 41.5 59.5t36.5 50.5l160 236q0 6 23.5 42t60.5 72.5t63 36.5q31 0 86 -35l-2 3l29 -19l10 -4q2 0 0 -2l14 -16v-2q0 -18 -29 -67t-68 -105.5t-44 -65.5q-5 -10 -45.5 -67.5t-75.5 -111t-35 -63.5q0 -29 121.5 -222.5t157.5 -229.5 q-16 -44 -52 -91t-73 -47q-38 0 -72 43q-109 122 -266 418h2q-57 64 -57 135z" />
<glyph unicode="=" horiz-adv-x="1222" d="M82 539q0 110 90 110q12 0 30.5 -4t26.5 -4q78 0 232.5 1t232.5 1q408 0 416 -39q6 -31 6 -94v-29q0 -25 -2 -39t-13.5 -26.5t-33.5 -12.5q-307 0 -623 9q-230 4 -313 16q-26 4 -37.5 40.5t-11.5 70.5zM113 864q0 14 1 34.5t3.5 50t8.5 50.5t15 23q15 1 33 1t40 -0.5 t34 -0.5q73 0 221 -4t223 -4q159 0 398 18h2q41 0 41 -98q0 -32 -8 -79t-21 -64q-164 0 -490 5t-491 5q-10 0 -10 63z" />
<glyph unicode="&#x3e;" horiz-adv-x="671" d="M68 1241q4 24 57.5 55t79.5 31q3 0 10.5 -8t16 -18.5t10.5 -12.5q36 -42 184 -261t158 -247q4 -20 4 -26q0 -4 -1 -15t-1 -16q-70 -107 -170 -274q-81 -135 -101 -173l-6 -10h2q-14 -31 -30 -45t-48 -14q-13 0 -26.5 3.5t-28 11t-23.5 12.5t-26 16.5t-23 15.5q-2 2 -2 8 q0 38 59.5 149t119 207t59.5 97q0 50 -81.5 185t-135.5 202q-7 22 -28.5 61.5t-28.5 65.5z" />
<glyph unicode="?" horiz-adv-x="851" d="M96 1032q-18 46 4 148q10 69 58 137q46 66 113.5 105.5t142.5 39.5q149 0 254.5 -114.5t105.5 -262.5q0 -169 -51 -281t-174 -231q-3 -3 -18 -17.5t-20.5 -20.5t-16 -18t-16.5 -22.5t-11 -21.5q-4 -9 -4 -41q0 -77 8 -110q0 -3 1 -8.5t1 -8.5q0 -39 -25 -52t-69 -13 q-86 0 -118 23.5t-32 109.5q0 212 236 428q50 47 76 92t26 106q0 48 -13 100.5t-47.5 97t-82.5 44.5q-33 0 -69 -18t-36 -47q0 -14 5.5 -25t20.5 -27.5t17 -19.5q25 -36 16 -84t-42 -80q-40 -33 -89 -24.5t-93 43t-58 73.5zM268 88q0 27 15 53.5t39 38.5h-3q25 19 58 19 q36 0 62 -30.5t26 -68.5q0 -41 -31.5 -71.5t-73.5 -30.5q-51 0 -79 47h2q-15 21 -15 43z" />
<glyph unicode="@" horiz-adv-x="1304" d="M100 561q0 197 70 424q34 107 79 185.5t93 125.5t110 74.5t120.5 37t132.5 9.5q97 0 172 -14.5t131 -41t96 -70.5t65 -96t40 -125.5t20.5 -151t5.5 -179.5q0 -131 -25 -262q-11 -62 -40.5 -125.5t-83.5 -113.5t-117 -50q-35 0 -88 25t-78 53q-68 -33 -113 -33 q-69 0 -129 48q-89 60 -127.5 182.5t-38.5 255.5q0 167 49 293v2q30 74 95.5 122t142.5 48q41 0 88 -37l4 4h-2q2 12 21 27q55 10 99 -5.5t64 -52.5q0 -45 -1 -161t-1 -160q0 -309 -12 -312q2 -3 6 -9.5t7.5 -12.5t8 -13t9.5 -11.5t10.5 -7.5t11 -2.5t11.5 5.5q10 8 14 27 t5 43.5t3 32.5q12 82 12 120q20 172 13 267q0 45 -2 73t-12.5 64.5t-30.5 64.5q-65 93 -174 119q-82 22 -160 4q-125 -26 -201 -108q-68 -72 -126 -263.5t-58 -306.5q0 -190 100 -290q84 -87 189 -99q4 0 12 -1q79 -8 103 -23q37 -24 44 -101v-18q0 -17 -4.5 -29t-9 -18.5 t-17.5 -9t-19.5 -3t-25.5 0t-26 0.5q-85 0 -240 69q-80 24 -139.5 77t-92 124.5t-48 148t-15.5 160.5zM635 666q0 -171 55 -181q46 40 59 97.5t13 142.5q0 15 -0.5 31t-2 43.5t-5 50.5t-8.5 45.5t-14 35.5t-21 13q-27 0 -46 -64.5t-24.5 -122t-5.5 -91.5z" />
<glyph unicode="A" horiz-adv-x="985" d="M59 168q3 10 10.5 11.5t19 -1.5t15.5 -2q28 4 39 4q11 64 37 133v-2q22 62 31 119l98 500q7 32 22.5 110t30 144t29.5 121q-14 1 -26 1q-33 0 -58 -6q-9 -1 -15.5 1t-10 8t-5.5 12.5t-2.5 15.5t-0.5 16t0.5 17t0.5 14v26.5t1 29.5t7.5 26t18.5 17q25 4 59 4q10 -1 22 -1 q48 -2 113 -5.5t68 -3.5q19 0 33 2q11 -20 21 -57.5t23.5 -118t28 -174t44 -271t63.5 -364.5v2q64 -286 70 -328q24 3 40.5 2.5t26.5 -12.5t13 -39v-2q0 -3 0.5 -21t0.5 -31t-1.5 -29.5t-6 -27.5t-12.5 -16q-16 -3 -36.5 -2.5t-55.5 2.5t-43 2h-19h-53q-15 0 -28 -1 q-33 0 -45 3q-4 0 -32 -1.5t-32 3.5q-5 3 -7.5 7.5t-3.5 11t-1.5 11t0 12t0.5 9.5q-4 10 -4 33q-1 13 1 31q4 48 17 59q21 12 56 8q-29 128 -39 215q-66 4 -97 4q-61 0 -79 -4q-15 -29 -54 -209q29 -11 43 -6q9 3 16 3t11.5 -2.5t8 -5t6 -9t3.5 -10.5t1.5 -12.5t0.5 -13v-14 v-12.5q0 -1 0.5 -19.5t0 -30t-2.5 -27.5t-8 -24.5t-16 -8.5h-19q-27 0 -65 -2q-52 -2 -72 -2q-32 4 -68 4q-45 0 -96 -6h-3q-5 0 -11 2q-6 4 -10.5 12.5t-6.5 16.5t-3 22.5t-1 21.5v21.5v15.5q-1 4 -3 22q-2 15 -2 21zM446 590q18 0 53 3t52 3q-1 17 -4 60t-4.5 66t-5.5 58 t-9 64q-4 46 -12 69v4t-2 4q-1 1 -2 1h-2z" />
<glyph unicode="B" horiz-adv-x="837" d="M56 1322l5 38q0 37 12 47.5t52 15.5q33 3 83 12.5t75 12.5q37 5 77 5q48 0 101 -7q54 -6 93.5 -13.5t84.5 -25t73 -42.5t47 -68t19 -99q0 -69 -30 -153.5t-78 -124.5q27 -31 41 -76v2q71 -158 71 -410q0 -97 -18 -168v2q0 -59 -47.5 -112.5t-106.5 -79.5 q-105 -46 -291 -62q-27 -2 -79 -4h-17q-43 0 -86 6q-52 8 -55 23q-4 9 -0.5 38.5t2.5 39.5q-1 9 -1 27t-1 30q0 18 11.5 22.5t32.5 1t28 -2.5q14 0 18 2l10 1034h-2q-15 3 -31 4t-36 1t-31 1q-18 3 -24 23q-3 12 -4 30q0 14 2 30zM369 1233q10 -92 10 -162v-9 q0 -15 0.5 -20.5t4 -12t11.5 -8t23 -1.5q147 0 147 139q0 52 -36.5 80.5t-90.5 28.5q-30 0 -65 -6v-7v7v-7q2 -16 -4 -22zM385 782q0 -362 14 -542q86 0 139.5 53.5t53.5 138.5q0 40 -1 118t-1 118q0 50 -25.5 76t-55.5 29t-69 4t-51 5h-4z" />
<glyph unicode="C" horiz-adv-x="829" d="M55 606q0 95 5.5 189t19.5 210t44.5 217t74.5 164q44 62 113.5 98t144.5 36q38 0 70 -11t50.5 -23t53.5 -40q101 -71 131 -148q10 -42 10 -64v-7q0 -70 -57 -121q-39 -38 -99 -42h-8q-54 0 -88 40q-8 8 -10 36.5t-4 33.5q-14 41 -29 65q-31 44 -64 44q-16 0 -32 -9 q-32 -19 -51 -59.5t-23.5 -71.5t-8.5 -80q-1 -10 -1 -14q-3 -24 -3 -69t-1 -56l-6 -160q-1 -31 -4.5 -133.5t-3.5 -157.5q0 -206 94 -223q21 -3 33 9.5t18 32t11.5 40t19.5 36t37 17.5h13q78 0 142 -57q49 -43 49 -97q0 -24 -10 -51q-24 -70 -100.5 -117t-153.5 -47 q-87 0 -155 39t-109 99t-67.5 141t-36 157t-9.5 154z" />
<glyph unicode="D" horiz-adv-x="876" d="M56 76q2 31 1 37q-2 24 -1.5 48.5t1.5 49.5q0 26 15.5 31t45 -3t38.5 -8h37q0 493 16 1051h-21q-4 0 -19 -1.5t-29 -2.5t-30 0t-26 6t-12 14q-4 9 -0.5 38t2.5 38q-1 12 -1 30.5t-1 29.5q0 14 8 19.5t16.5 5t23.5 -2.5t21 -2q78 10 135 10q120 9 234 9q191 0 246 -101 q65 -108 65 -444q0 -28 -5 -82t-5 -82q0 -58 -4 -175.5t-4 -178.5q0 -137 -25 -209q-17 -52 -47 -89.5t-72.5 -59t-83.5 -34t-99.5 -15.5t-98.5 -3q-7 0 -14 -1q-37 1 -89 3q-63 2 -92 2q-112 0 -123 35q-4 4 -4 21q0 7 1 16zM428 230q2 0 2 -3l2 3h-2h2q38 -10 68 -11 q62 0 94 35q20 22 26 158q4 93 4 181q0 40 -1 79q-1 46 -1 85q0 64 3 107q10 85 10 156q0 136 -76 227q-54 23 -100 23h-8q0 -79 -7 -129q-6 -49 -8 -109q-2 -48 -2 -90v-20q0 -17 1 -35q0 -36 -1 -76q-1 -63 -2.5 -177t-2.5 -207t-1 -177v-20z" />
<glyph unicode="E" horiz-adv-x="907" d="M56 1426l5 38q0 42 13 55t51 9l104 -8q20 -1 46 -1q62 1 157 7q103 7 164 7q19 0 35 -1h9q16 0 46 -4q6 -1 33 -2t43 -7.5t20 -23.5q2 -11 2 -26q0 -35 -12 -93q-15 -65 -15 -102q0 -10 1 -19q4 -33 -8.5 -44t-47.5 -13h-6h6h-15.5h-22t-23 0.5t-24 2.5t-19 5t-14.5 8 q-6 11 -6 17t4.5 20t5.5 17v26q-106 -3 -215 -12q0 -70 -11.5 -210.5t-11.5 -213.5q0 -19 2 -33q171 19 213 19q12 0 25 -1t28.5 -2.5t24.5 -2.5q8 -22 21.5 -84t13.5 -84q0 -24 -14 -35q-35 -21 -306 -21v-20q0 -30 5 -86.5t6 -79.5q0 -14 0.5 -40t1 -42t3 -38.5t7.5 -41.5 q84 -14 248 -14q0 3 -1 8t-1 8q-1 7 -4 20.5t-4.5 21t-1 17.5t4 15.5t12.5 9.5t23 4q20 0 64 14q36 11 60 12q5 0 10 -1q15 0 31 -54t24 -119q5 -42 5 -79q1 -21 -1 -41q-4 -56 -25 -59q-25 -2 -80 -2q-113 -9 -374 -13l-168 -6q-7 0 -35 -4q-22 -3 -40 -3h-9q-21 1 -31 11 q-3 5 -5 13t-2 14t0.5 16t0.5 13l-16 82q-3 34 0 63q16 3 42 5t42 5l16 4q-4 98 -4 133q0 124 -4 369.5t-4 368.5q0 41 1 121t1 120l-74 4q-18 3 -24 23q-3 12 -4 30q0 14 2 30z" />
<glyph unicode="F" horiz-adv-x="819" d="M59 178q5 28 47 28q14 0 31 -3v2q0 91 19 461q3 38 3 113.5t3 113.5q3 59 4 231t10 265q31 57 135 57q18 0 127.5 1.5t197 1.5t109.5 -3q7 -32 14 -136q3 -43 3 -73q0 -43 -6 -59q-9 -12 -63 -12q-14 0 -31 1q-22 0 -80 4q1 9 1 21q0 23 -3 57h-2q-22 0 -97.5 -3 t-95.5 -3q4 -70 4 -98q0 -29 -2 -86t-2 -86q-1 -20 1 -64q1 -33 2 -61v-18q0 -34 -5 -66q15 -3 32 -3t38.5 1.5t33.5 1.5q22 0 34.5 -1t30.5 -5.5t27 -17t9 -31.5q0 -20 4 -82l4 -58l-90 -4q-68 -3 -104 -3q-18 0 -27 1q-17 -117 -17 -364h6q19 0 29.5 -0.5t26.5 -3t23.5 -9 t7.5 -19.5q0 -26 -15 -130q-2 -15 -10 -23.5t-22 -10.5t-27 -1.5t-31.5 2.5t-28.5 2q-102 -4 -157 -4q-8 0 -28 -1q-13 -1 -21 -1h-7q-8 0 -19.5 4t-15 14t-1.5 27q1 5 1 12q-1 19 -7 52q-5 28 -5 48q0 12 2 21z" />
<glyph unicode="G" horiz-adv-x="929" d="M57 721v22v2q0 154 47 385q25 118 126 206.5t221 88.5q58 0 127 -32.5t120 -77.5q41 -38 67 -94q20 -44 20 -85q0 -11 -1 -22q-9 -60 -75 -84q-32 -9 -65 -12h-12q-27 0 -56 9q-35 11 -50 38q-8 15 -17 44.5t-11 35.5q-11 27 -23 35q-25 26 -53 26q-23 0 -49 -18 q-70 -55 -101 -213q-10 -65 -10 -107q0 -61 11 -178t12 -172q0 -6 1.5 -37t3 -45t4.5 -46t8 -49.5t12 -44t17.5 -42t24.5 -31.5t33.5 -23t42.5 -7q38 0 63.5 12t38.5 37t18.5 50t8.5 62q10 95 10 170q-15 0 -41 1t-41 1q-53 0 -94 -8q-41 21 -41 90q0 32 1.5 47.5t9.5 31 t26 21t49 5.5q8 0 26.5 -2t27.5 -2q24 -3 105.5 -5.5t125.5 -11.5q6 -1 48 -1t71.5 -7.5t29.5 -28.5v-27v-38v-38.5v-27.5v6v-6q0 -11 -2.5 -19t-9 -11t-10 -5t-15 -0.5t-13.5 2t-15 3.5q-4 0 -13.5 1t-13.5 1v-68q0 -91 -16 -147v2q-15 -69 -37 -118t-57.5 -88t-88 -58 t-124.5 -19q-291 0 -369 322q-33 135 -33 399z" />
<glyph unicode="H" horiz-adv-x="890" d="M27 174q5 25 44 24q15 0 35 -3q3 110 15.5 349.5t15.5 350.5q0 61 5 178t5 178v70q-41 -11 -49 18q-8 24 -10 72t-4 59q-3 18 25 30t70 16t88 6q23 1 43 1q20 -1 36 -1q32 -2 41 -2q10 -4 15.5 -47.5t5.5 -73.5q1 -8 0 -14.5t-5.5 -11t-8 -7.5t-12 -5.5t-12.5 -3.5 t-14.5 -2.5t-13.5 -2.5q0 -98 -8 -288t-8 -284q17 0 46 -1t44 -1q28 0 71 9.5t58 11.5l20 553q-5 -1 -14.5 -2.5t-15 -2t-15 -2t-15 -1.5t-13 0.5t-12 2.5t-9 5t-6.5 8t-2 12t-2.5 38t-2 55.5t6.5 35.5q5 7 71 7q8 0 16 1q58 1 114 -3q64 -4 65 -5h76q5 0 20.5 1.5t22 1 t13.5 -7.5t7 -21q0 -5 -1 -21.5t-2 -28.5t-2.5 -27t-4.5 -26t-8 -18q-11 -7 -18 -7t-22.5 5.5t-18.5 5.5q-29 0 -45 -2q0 -3 -1.5 -10t-1.5 -11q-3 -28 -3 -59.5t1.5 -70.5t1.5 -60q0 -159 6.5 -472t6.5 -472v-8q14 0 21.5 -0.5t18.5 -3t16.5 -8t6.5 -15.5v-26.5t-0.5 -38.5 t-0.5 -39t1 -29q0 -16 -8.5 -23.5t-16.5 -8t-26.5 1t-24.5 1.5q-19 3 -108 7t-105 7q-12 2 -19 11.5t-8 24.5t-0.5 29t2 31.5t1.5 24.5q3 56 35 64v22q0 27 3 80t3 80q0 37 -3 109.5t-3 109.5q-114 -3 -228 -12q-14 -123 -14 -399h5q22 0 34 -1t25 -7.5t14 -20.5v-10 q0 -38 -12 -125q-3 -14 -10.5 -22t-20 -10t-23.5 -2t-27.5 1.5t-25.5 1.5q-49 -2 -143 -2q-8 0 -25 -2q-13 -1 -20 -1q-3 1 -5 1q-8 0 -17.5 3.5t-13 13.5t-1.5 28q1 5 1 13q0 20 -6 52q-5 28 -5 48q0 12 2 22z" />
<glyph unicode="I" horiz-adv-x="487" d="M59 178q7 27 56 27q0 15 4 47q16 190 16 500q0 105 -7.5 300t-8.5 283q-16 0 -24 1t-16 6t-11 16q-4 18 -5.5 43t-1 45t-0.5 43q-1 16 6.5 27t26 14.5t34.5 5.5q6 1 12 1q12 -1 30 -3q28 -4 39.5 -5t36.5 -5h30q30 0 37 -4q34 6 59.5 6t41.5 -6q5 -2 8.5 -8.5t5.5 -16 t3 -20t1 -23v-21.5v-20v-14v2v-2q0 -11 -4.5 -18.5t-14.5 -12t-17 -6t-23 -3.5t-21 -3q-6 -46 -6 -94v-132q0 -61 -7 -177.5t-7 -174.5q0 -50 4 -148.5t4 -148.5q0 -24 -2 -72t-2 -71q0 -24 2 -69t2 -68q72 0 74 -29q0 -30 -15 -133q-2 -19 -15 -27t-25.5 -8.5t-35 2 t-30.5 2.5q-94 -4 -143 -4q-7 0 -24 -1q-11 -1 -19 -1h-6q-8 0 -18 4t-13.5 14t-1.5 27q1 5 1 12q-1 19 -7 52q-5 28 -5 48q0 12 2 21zM432 1401v2v-2z" />
<glyph unicode="J" horiz-adv-x="892" d="M56 414v17q0 57 18 110q26 59 92 87q33 15 64 15t59 -14q50 -25 64 -73q4 -16 4 -30q0 -33 -21 -63q-39 -55 -39 -110q0 -54 37 -109l-4 2l22 -21q13 -16 27 -16q36 0 63.5 29t42 75.5t24.5 105t12 117t3 112.5q1 23 1 43q0 27 -1 48v33v506q0 16 4 43t4 43q-3 0 -45 -6 q-22 -2 -39 -2q-15 0 -26 2q-23 5 -23 26q0 8 -3 38.5t-2.5 54.5t7.5 36q5 7 23 8h10q12 0 26 -1q18 -3 39 -6t27 -3h15q23 0 66 -1q23 -1 40 -1q28 0 41 2q12 3 25.5 3t30.5 -1.5t26 -1.5q7 0 23 0.5t23.5 0t14.5 -7.5t7 -21q0 -95 -19 -121q-11 -6 -19.5 -5t-24 6.5 t-19.5 6.5h-19v-55q0 -65 -7 -189t-7 -186q0 -36 2 -104.5t2 -104.5q0 -51 -3 -106.5t-8 -122.5t-7 -107q-3 -59 -5.5 -86t-12 -71t-29.5 -77t-52 -65q-43 -42 -109 -69t-126 -27q-45 0 -95 21.5t-87 54.5q-12 10 -22.5 22.5t-18 22.5t-16 26.5t-13.5 26t-12.5 28.5 t-10.5 27t-10.5 30t-9.5 28q-21 60 -24 127z" />
<glyph unicode="K" horiz-adv-x="927" d="M58 54v15v15q1 14 3 31t2 24q0 37 13 51t49 13v18q5 81 7 171q1 54 1 117v88q0 58 -0.5 100.5t0.5 70.5l4 537q-48 -4 -51 4q-6 12 -7.5 29.5t0 44t1.5 32.5v11q0 57 41 57q73 0 147 -6q3 0 13 0.5t17.5 0t19 -1t19.5 -2t16.5 -4t13.5 -7.5t6 -11q3 -26 7 -137 q1 -18 -9.5 -26.5t-30.5 -8.5q0 -16 -1 -49t-1 -49q0 -28 -4 -84t-4 -84q29 44 84.5 135t85.5 135l6 8h-35q-27 6 -27 61v12q3 66 21 79q36 22 74 22q9 0 50 2t85 3.5t89 1.5t75 -4t32 -13q1 -18 -9 -56.5t-11 -43.5q-2 -8 -3 -18.5t-1 -17.5t-2 -15.5t-7 -11t-16 -5 t-28 1.5l-31 4q-22 -32 -69.5 -100t-76.5 -110t-62.5 -91t-50 -75t-17 -31t42 -101t49.5 -106q133 -295 192 -475q72 0 74 -29v-10q0 -39 -13 -123q-4 -19 -16.5 -27.5t-24 -9t-35 1.5t-32.5 2q-47 -2 -143 -2q-8 0 -24 -1.5t-24 -1t-17.5 3.5t-13 13t-1.5 27q1 6 1 13 q0 21 -7 55q-6 31 -6 52q0 9 1 17q7 25 54 25q-19 42 -23 55q-70 192 -162 412l-2 6l-4 -12v-23q0 -353 -4 -456q56 0 58 -27q2 -13 2 -33q0 -14 -1 -32t-1 -32q0 -22 2 -36q0 -13 -5 -20.5t-15.5 -9.5t-19.5 -2t-24 1.5t-22 1.5q-21 3 -63.5 4t-63.5 4q-105 5 -109 6 q-13 2 -20 11.5t-8 24.5z" />
<glyph unicode="L" horiz-adv-x="753" d="M41 1415l12 9t11.5 8t10 5.5t13.5 4.5t16 2q11 0 47 3.5t75.5 7.5t79.5 6q16 1 30 1q20 0 36 -2q26 -3 29 -12q3 -7 1.5 -24t-3 -25t-5.5 -25t-5 -24q0 -16 -0.5 -30t-2 -24.5t-13 -15t-33.5 -0.5h-18q-1 -20 -6 -70t-5 -77q0 -38 3 -113t3 -113q0 -73 -2 -112v2 q-4 -208 -4 -310q0 -40 4 -119.5t4 -119.5q0 -22 3 -43q36 -13 147 -17q-1 16 -1 30q0 34 5 61q3 12 41.5 19t60.5 8q27 5 48 4q9 0 16 -1q1 -9 8.5 -73.5t14.5 -125t10 -67.5q1 -5 1 -9q-1 -14 -13 -18q-16 -4 -39 0q-12 -5 -170 -10.5t-238 -5.5q-37 0 -57 13t-27 48h2 q-10 25 -16.5 101.5t-9.5 165.5t-4.5 210.5t-1.5 204t0.5 181t0.5 108.5q0 34 9.5 100.5t9.5 100.5q0 7 -1 20.5t-1 20.5q-38 -10 -62 -10q-18 0 -22 17q-2 8 -2 17q0 12 3 28q5 28 5 30q1 4 -3 18q-3 12 -4 22q0 13 9 19z" />
<glyph unicode="M" horiz-adv-x="1060" d="M63 154q-9 13 -9 22q0 13 18 17q22 3 43 3l43 -3l16 1038q0 27 -2 41q-3 0 -6 -1t-6 -1q-30 0 -60 -6q-9 1 -14.5 0t-7.5 5.5t-2.5 8.5t0 10.5t0.5 9.5q3 50 3 80q0 15 -1 25q0 2 -6.5 18.5t-1.5 24.5q4 4 12 5t21 0t16 -1q32 0 110 10h2q6 2 35 2q76 0 78 -14q0 -3 1 -8 t1 -8q9 -12 12 -37q10 -47 25 -98t35.5 -115.5t30.5 -96.5v2q56 -180 79 -231q30 84 80 229.5t84 248.5l35 104q0 6 2 8q4 4 12.5 5t22.5 0t16 -1q5 0 68 5q57 5 101 5h9q46 0 46 -12q2 -4 2 -18t-2 -34q-4 -44 -3 -53q0 -6 1 -19t0.5 -18t-3.5 -12.5t-11.5 -10.5t-22.5 -3 h-37q2 -49 2 -147q0 -65 -3 -199t-3 -201q0 -87 -1 -262t-1 -262h30q17 0 23.5 -15t7.5 -42t2 -33q4 -14 2.5 -53t-12.5 -50q-3 -3 -60.5 -4t-126 -1.5t-88.5 -2.5q-2 -1 -9 -4t-10 -3.5t-7.5 -0.5t-7 4t-4.5 12q-9 38 -9 76v6v-6q0 2 -0.5 19t-0.5 28.5t2 26.5t7 24t13 11 q32 4 45 4q1 61 4.5 247t3.5 289v70l-22 -66q-16 -47 -66 -170t-64 -167l-116 -13q-62 221 -115 396q-1 -102 -9 -303.5t-9 -303.5q3 0 12.5 2t14 2.5t14.5 2t15 1.5h13.5t13 -1.5t9.5 -4t8 -6.5t4 -10q0 -4 1 -22.5t1 -34.5t-1.5 -34.5t-5.5 -31.5t-11 -16q-4 -3 -15 -3.5 t-22 0t-19 -0.5q-31 0 -75 -7q-68 -6 -131 -6q-3 0 -18.5 -2t-27.5 -1t-18 7q-4 6 -5.5 21t-0.5 27.5t0 23.5q-1 3 -6 29t-13 35z" />
<glyph unicode="N" horiz-adv-x="1028" d="M55 130q1 24 8 32q9 20 58 8q-2 8 -2 23q0 72 1.5 143.5t6.5 163t7.5 136t10 162.5t9.5 144q4 58 10 174.5t10 173.5q-23 0 -37 -2q-7 0 -11 6t-5.5 19.5t-2 21.5t0 26t0.5 19q0 2 -1.5 29.5t-0.5 47t6 26.5q3 3 16 8t17 8q3 1 40 1h45h45q36 0 36 1q21 -36 39.5 -78.5 t40.5 -100t32 -81.5q146 -375 164 -424q5 -14 37 -86v2l16 -39q0 457 4 600q-3 0 -15.5 -0.5t-20 -0.5t-17 2.5t-14.5 7.5q-6 6 -7 19t0.5 28t0.5 20q0 8 -3.5 25t-6.5 31.5t-3 29t8 22t25 5.5q15 -2 41 -2q53 0 152 8l127 12q11 -3 22 -14q24 -24 27 -76q0 -3 1 -19 q1 -11 1 -19v-9q0 -12 -2 -25.5t-8 -21.5t-15 -8l-82 -6q0 -29 2 -86t2 -84q0 -127 -10 -449.5t-26 -511.5q3 0 26 4.5t36 0.5t13 -21q0 -4 0.5 -22t1 -34.5t0 -35t-3.5 -32t-8 -16.5q-1 -4 -19 -2.5t-20 0.5q-14 -6 -98 -12q-36 -3 -58 -3q-29 0 -32 5q-2 2 -2 4 q-13 0 -17 2q-35 120 -85 254.5t-113 293t-97 251.5q0 -88 -12 -272q-3 -62 -7 -185t-7 -184q4 0 13 -1t13 -1t18.5 1.5t20.5 0.5t12 -8t5 -21q0 -94 -17 -121q-7 -6 -14 -4.5t-19.5 6.5t-17.5 5q-14 0 -59 -5q-44 -7 -89 -7q-15 0 -30 1q-7 2 -22 0t-29 -4t-27.5 -2t-22 6 t-8.5 19q-1 7 -3 40q-2 24 -1 42v15z" />
<glyph unicode="O" horiz-adv-x="819" d="M66 1040q3 64 13.5 121t33.5 114t57 97.5t89 66t124 25.5q68 0 139 -29t123 -77q119 -114 119 -389q0 -108 -16 -326q-1 -34 -10 -94.5t-11 -79.5q-2 -22 -3 -61.5t-4 -72t-11 -61.5q-31 -125 -120 -199.5t-216 -74.5q-90 0 -159.5 54t-103.5 134.5t-34 167.5 q-14 165 -14 403q0 130 4 281zM252 475q0 -24 14 -115q2 -8 4 -23.5t5.5 -28t9.5 -23.5q17 -32 47 -50t65 -18q41 0 86 29q33 25 53.5 134.5t25.5 200t5 160.5q0 27 -4 81t-4 81q0 25 1 74t1 74q0 94 -22 133l2 -2q-20 37 -59 60.5t-81 23.5q-46 0 -77 -31h-2q-7 -7 -14 -18 t-11 -20t-9 -24t-7 -22.5t-6 -24t-5 -20.5v4q-5 -15 -7 -38.5t-2 -41t0.5 -46t0.5 -38.5q0 -58 -1 -173t-1 -173q0 -20 -4 -61.5t-4 -63.5z" />
<glyph unicode="P" horiz-adv-x="835" d="M56 1391q4 39 5 41q0 39 13.5 53t50.5 10q24 -2 54 -2q38 0 86 3q72 4 137 4h26q76 -1 137 -17q76 -21 121 -74q47 -52 70.5 -129.5t23.5 -155.5q0 -42 -4 -125t-4 -125q0 -56 -3 -92t-13.5 -75t-31 -65t-55 -49.5t-85.5 -39.5q-43 -14 -101 -14q-15 0 -42 2t-42 2 q-7 0 -18.5 -1t-18.5 -1q-2 -6 -2 -25q0 -12 2.5 -34t2.5 -33q0 -51 -3 -140t-4 -114q18 0 27.5 -1t19 -6t9.5 -16q6 -48 10 -139q0 6 2 0q2 -19 -12 -27q-11 -6 -28 -5h-10q-24 2 -47 6.5t-49 11.5t-34 8q-20 -4 -23 -4q-16 0 -22 2q-29 -2 -47 -2q-24 0 -25 4 q-8 25 -8 108v11q0 49 35 55v71l18 809q4 34 5.5 70.5t1.5 83.5t1 68h-2q-15 3 -31 4t-36 1t-31 1q-18 3 -24 23q-3 11 -4 28q0 13 2 31zM368 1100q0 -191 7 -344q37 -11 57 -11q103 0 133 64h-2q35 62 35 186q0 63 -16 138h2q-3 11 -8 30q-20 76 -33 91q-15 19 -67 23 q-9 1 -33 2q-40 3 -66 5q-1 -13 -5.5 -49.5t-3.5 -58.5v-76z" />
<glyph unicode="Q" horiz-adv-x="839" d="M55 1071q0 115 54 252v-2q24 55 41 74q68 76 174 110q59 19 117 19q48 0 95 -13q105 -28 158 -120q23 -39 39 -86t23.5 -104.5t11 -97.5t6 -109t4.5 -95q8 -131 8 -299v-43v-46t-0.5 -43t-2.5 -46.5t-5 -42.5t-7.5 -45.5t-11.5 -41.5t-16 -44q-3 -5 -11.5 -25t-16.5 -30 q3 -12 6 -35.5t6 -34.5l29 -176q2 -15 6 -47t8.5 -56t11.5 -45q16 -40 51 -83.5t68 -43.5q22 0 24.5 9.5t-1.5 29.5q-1 12 -1 23q0 25 5 45q12 51 63 82q36 22 73 22q16 0 32 -4q44 -14 81 -56t44 -89q1 -10 1 -20q0 -79 -69 -154q-52 -60 -123 -72q-22 -4 -43 -4 q-49 0 -95 20q-65 28 -121 79.5t-83 111.5q-18 38 -33 86t-22 76.5t-20 93t-17 82.5q-50 -33 -160 -33q-91 0 -151 25h2q-71 26 -114 77.5t-54 118.5q-11 54 -19 107.5t-14 123.5t-8 102.5t-6.5 123.5t-5.5 108q-11 176 -11 285zM258 993q-13 -110 -13 -214q0 -175 36 -335 q19 25 49 43q56 29 113 29q47 0 96 -20q21 -7 55 -37q8 63 8 131q0 81 -10 186q-7 57 -12.5 170.5t-12.5 171.5q-1 4 -3 20t-3 22t-4 19.5t-6.5 21t-9.5 17.5t-13 17q-45 45 -112 45q-118 0 -148 -154v2q-10 -78 -10 -135zM317 328q17 -43 41 -67.5t50 -24.5q68 0 114 49 q-17 34 -28 45q-31 33 -67 33q-7 0 -15 -1q-1 0 -15.5 -3t-18.5 -3.5t-16 -4t-18 -6t-13.5 -7t-13.5 -10.5z" />
<glyph unicode="R" horiz-adv-x="1030" d="M59 1481q10 23 190 23q33 0 73 -1q250 -5 313 -26q81 -27 126.5 -103.5t45.5 -167.5q0 -62 3 -182t3 -182q0 -13 0.5 -45t0.5 -45.5t-2.5 -39.5t-8 -42t-16.5 -37t-27 -39q60 -80 98.5 -186.5t42.5 -210.5q60 -4 62 -25q3 -23 5 -68t5 -69v-2q0 -21 -84 -23 q-20 -1 -40 -1l-128 6q-84 8 -84 12q-5 11 -7 26.5t-2 27t0.5 30.5t0.5 26v9q0 55 47 57h4q-4 52 -11 91t-21 80.5t-39 68t-60 34.5q-49 10 -117 10q-1 0 -8.5 0.5t-11 0t-8.5 -1.5t-7 -4.5t-2 -8.5q0 -19 -4 -56t-4 -57q0 -33 3.5 -91t4.5 -76q13 -4 18 -6t11 -8t6 -13 q0 -10 0.5 -26.5t0 -38.5t-0.5 -39v-29q0 -16 -9 -23.5t-17 -7.5q-2 0 -5 -1q-8 -1 -22 1q-18 2 -23 2q-19 3 -57.5 4t-58.5 4q-11 1 -30.5 1t-36 1t-32.5 4q-19 3 -24 23t-0.5 57.5t4.5 40.5q0 38 11.5 51.5t45.5 12.5l-16 512q-4 102 -4 153q0 290 6 435h-12q-7 0 -24 -1 t-25 -0.5t-18 4t-13.5 13.5t-1.5 27q1 6 1 13q-1 21 -7 53q-5 28 -5 48q0 12 2 21zM358 1172q3 -30 7 -67t4 -58q0 -173 4 -222v2q3 -12 4 -24.5t-0.5 -30t-1.5 -24.5q0 -32 2 -46q19 0 55 -2t55 -2q17 0 46 16.5t40 30.5q15 23 25 102t10 124q0 193 -28 252v-2 q-15 25 -40.5 39t-46.5 17.5t-57.5 6.5t-52.5 6h-3q-14 0 -20 -14q-6 -15 -6 -41q0 -28 4 -63z" />
<glyph unicode="S" horiz-adv-x="811" d="M57 303v11q1 36 17 66q20 36 52 54t70 24l20 2q28 0 55 -12q37 -16 61 -53q12 -18 15.5 -38.5t3.5 -47.5t3 -43q4 -19 12 -23.5t29 -2.5q55 4 72 14q10 6 18 14t16.5 18.5t14.5 16.5l-2 -2q6 15 6 37q0 30 -17 82.5t-36 85.5h2q-26 44 -67 90.5t-78 80t-80 79.5t-70 88 v-2q-71 99 -86 153v-2q-20 61 -20 140q0 137 95.5 235t231.5 98q93 0 154 -30q93 -43 170 -189q24 -43 35 -133q1 -9 1 -17q-1 -51 -39 -79q-44 -32 -112 -33q-38 0 -47 4q-16 6 -41 21q-22 13 -29.5 30t-7.5 45q-1 18 3.5 51.5t4.5 37.5t3.5 19.5t-1.5 16.5q-4 15 -22 33 q-17 12 -55 12q-64 0 -105 -47.5t-41 -111.5q0 -92 119 -211v2l33 -33q48 -45 85 -82t82 -91.5t74 -103t49.5 -108t20.5 -115.5q0 -135 -85.5 -244.5t-215.5 -109.5q-56 0 -120.5 24t-119 63.5t-92 97t-39.5 118.5z" />
<glyph unicode="T" horiz-adv-x="884" d="M57 1257q5 26 9.5 113.5t19.5 128.5q1 6 10 9.5t24 4.5t27 1t27 -0.5t16 -0.5q27 3 46 -2q0 1 131 10t272 16q90 4 131 5q24 0 31 -2q11 0 17 -7t7 -19t0 -23.5t-2.5 -24.5t-1.5 -18q1 -14 5 -56q3 -25 2 -44q0 -12 -1 -21q0 -3 0.5 -17.5t0.5 -23t-2 -20.5t-8 -18.5 t-15 -8.5q-29 -2 -44.5 -1.5t-46.5 3.5t-44 4q-18 0 -26.5 10.5t-9.5 21t1 32t2 26.5v2q-31 -2 -86 -2h-23v-18q0 -41 4.5 -122.5t4.5 -121.5q0 -23 -3.5 -70.5t-3.5 -72.5q0 -85 11 -221q12 -332 20 -510q27 9 53 6q12 0 17.5 -7t5.5 -19t-1.5 -23.5t-4 -23.5t-2.5 -17 t3.5 -25t3.5 -35.5t-9 -23.5q-2 -1 -7 -5t-6.5 -5t-6 -3.5t-6.5 -3.5l-6 -3t-7 -2.5t-7 -2t-8.5 -2t-9.5 -0.5t-45 -1t-78 -1q-13 0 -26 -1q-26 0 -54 1q-42 1 -68 6.5t-26 14.5q-3 7 -1.5 24t3 25t5.5 25t5 24q1 9 1.5 23.5t1 22t4.5 15.5t14 10t27 1q4 0 11.5 -1.5 t10.5 -1.5q-3 89 -8 506q-6 318 -6 322q0 44 5 131t5 131q0 9 -1 26.5t-1 26.5q-7 0 -20.5 -1t-20.5 -1q-8 0 -25 1t-26 1v-35q0 -21 4 -57q0 -8 -1.5 -13.5t-5 -8.5t-6.5 -4.5t-9 -0.5t-10 1.5t-12 2.5t-11 3q-8 1 -51 -3q-14 -1 -26 -1q-26 -1 -42 5q-21 6 -22 27q0 4 1 8 z" />
<glyph unicode="U" horiz-adv-x="960" d="M58 1436q0 15 7 22.5t21 5.5q8 0 64 2t69 2q2 0 33 3t57 4.5t49 -0.5q36 -4 46 -21.5t12 -62.5q0 -4 0.5 -19t1.5 -27.5t-0.5 -26.5t-7 -22t-15.5 -8l-61 -4q-1 -12 -9.5 -105.5t-9.5 -142.5q-4 -118 -4 -180q0 -123 14.5 -326t41.5 -251q35 -66 118 -66q85 0 123.5 62 t38.5 155q0 193 -22 752q-4 94 -9 127h-10q-28 -12 -45 -12q-12 0 -18 6t-6 20t2.5 30t1.5 21q0 8 -3 24.5t-3 30t6 23.5q9 20 93 34q71 11 141 11q13 -1 27 -1q84 -2 87 -23q14 -109 14 -146q1 -23 -19 -25t-41 6q-5 1 -7 1q2 -4 2 -19q24 -281 24 -626q0 -74 -2.5 -129 t-13 -133t-30 -135.5t-57 -114t-89.5 -91.5v2q-97 -63 -236 -63q-61 0 -130.5 45t-115.5 114q-41 62 -41 120v12q-36 188 -36 434q0 87 8 262t8 262v27q-42 -5 -53 6q-4 6 -5.5 20t-0.5 26t0 22q-1 7 -4.5 25.5t-5.5 32.5q-1 10 -1 21q1 3 1 7z" />
<glyph unicode="V" horiz-adv-x="944" d="M56 1466q2 28 14 37q5 4 27 8t26 7q15 4 38 4q30 0 74 -6q53 -7 84 -7q15 0 25 2q2 0 14 3.5t17 1t8 -12.5q8 -24 8 -57v-4v4q0 -2 1 -14t1 -21.5t-1.5 -20.5t-7.5 -18.5t-15 -9.5q-13 0 -17 -2q44 -219 60 -326q7 -58 27 -176.5t30 -142.5q22 114 53.5 320.5t44.5 283.5 q-16 0 -24 8q-6 6 -7 19.5t0.5 30t0.5 22.5q-1 3 -5 29t-12 34q-12 10 -11 22.5t17 16.5q21 4 48 4q33 0 73 -6q2 -2 10 -2q24 -4 57 -4q46 0 107 8q9 1 16 1q46 0 48 -21q0 -4 0.5 -23t0.5 -34.5t-1 -34.5t-5 -32t-10 -18q-4 -4 -27.5 -2.5t-27.5 0.5q-8 0 -10 -2l-17 -75 q-10 -49 -40.5 -206t-49.5 -241l-67 -307q-92 -368 -92 -440q0 -10 -8 -29t-15 -27q-29 -10 -86 -10q-28 0 -41 8h2q-22 8 -39 72l2 -2q-14 30 -22 71t-14.5 93t-10.5 75l-12 70q-52 285 -121 703q-4 21 -15 79t-18.5 103t-11.5 84h-37q-18 0 -24 11.5t-5.5 32.5t-1.5 27 q-5 9 -5 28v11z" />
<glyph unicode="W" horiz-adv-x="1468" d="M57 1372v15q1 10 1 18q2 12 14.5 24t38.5 15q84 8 194 8q5 0 47 4q25 3 45 3q13 0 23 -1q26 -3 29 -18q10 -59 20 -137v-3q1 -4 1 -7q0 -29 -67 -29l21 -123q62 -374 108 -551q19 92 69 304.5t71 328.5v-2q6 45 24 58t68 13q49 0 79 -13.5t40 -53.5q8 -29 32 -174 q53 -247 101 -453q1 17 3 67t4 75t5 66t7.5 75t11.5 67q5 33 32 150.5t54 218.5q-26 4 -37 8q-11 3 -15.5 24.5t-5 47t-2.5 30.5q-3 16 -3 32.5t3 33.5h96q11 0 41.5 0.5t56.5 1t27 0.5t35.5 3t48.5 3q5 1 9 1q19 0 22 -15q4 -18 -4 -39q-3 -9 5 -51q4 -22 5 -40 q1 -16 -3 -28q-6 -26 -40 -22q-28 4 -39 4q-5 -65 -26 -234l-28 -196t-33.5 -230t-31.5 -196q-6 -30 -16 -90t-16.5 -96.5t-18.5 -87.5t-26 -93q-1 -2 -5.5 -14.5t-8.5 -21.5t-9.5 -18t-11.5 -11l10 -3q-8 0 -60 -7q-40 -5 -70 -5h-16q-35 2 -38 19l-158 706 q-20 -75 -48.5 -265t-31.5 -206q-22 -85 -31 -174q-5 -57 -20 -72.5t-74 -15.5h-16.5h-18t-15.5 0.5t-17.5 2t-15 3.5t-17.5 5.5t-16 8.5q-17 11 -66 159t-57 192q-77 423 -133 641q-18 72 -37 190q-4 12 -17 66q-58 -11 -61 -2q-8 14 -11.5 32.5t-5.5 41t-4 32.5z" />
<glyph unicode="X" horiz-adv-x="993" d="M63 1470q-9 13 -9 22q0 13 18 17q19 5 44 5q34 0 77 -9q3 0 10.5 -1t11.5 -1q21 6 41 6q22 0 35 -8h31q4 0 35.5 5t50.5 1.5t22 -20.5q0 -3 1 -22t0.5 -34t-2 -34t-5.5 -31.5t-10 -15.5q-3 -3 -10 -3.5t-19.5 0.5t-15.5 1l8 -31v2q11 -32 58 -159t67 -199q19 51 38.5 108 t42 126.5t35.5 107.5h-26q-12 -2 -20 4t-11 18t-4 23.5t-1 25.5t-1 19q-5 13 -5 52.5t15 49.5q8 4 33 8.5t31 7.5q7 2 18 2q11 -1 27 -3q30 -6 35 -5q44 -4 87 -4.5t85 4.5q5 1 19 5q8 2 14 2h6q6 -2 8 -15l8 -78q0 -3 1 -19q1 -11 1 -20v-8q0 -12 -2.5 -27t-8.5 -23.5 t-16 -10.5q-46 -4 -69 -4q-53 -143 -140.5 -390t-87.5 -255q0 -4 11 -34t25.5 -66t15.5 -38l122 -344q34 7 45.5 -3.5t16.5 -47.5v-6v6q0 -5 1 -26t1 -35t-3 -31.5t-9 -26.5q-4 -7 -14 -7.5t-23 2.5t-17 3q-13 1 -40.5 0t-40.5 0q-8 0 -35.5 1.5t-42 2t-35.5 0t-35 -3.5 q-13 -3 -21 1t-11 16.5t-3.5 21t0 26.5t0.5 19q0 3 -0.5 18.5t0 24t2.5 21.5t8 21t15 13q9 3 20 3l-65 184q-11 -30 -32 -96t-34 -101q39 -4 49.5 -19t12.5 -55q0 -3 1 -17t1 -25t-1.5 -24t-7.5 -20.5t-16 -7.5l-125 -6q-16 -1 -46 -3t-54 -3h-24h-23q-5 1 -21 0h-12h-16 q-13 2 -19 8t-7 17.5t0.5 25t0.5 17.5q-1 6 -5.5 23.5t-6 29t-1.5 24.5t8 20t23 7q30 -3 50 -3q10 0 18 1q15 40 86 216.5t98 275.5l-118 385q-89 273 -93 286h-36q-3 0 -18 -2.5t-27.5 -2t-18.5 6.5q-4 6 -5.5 21.5t-0.5 28.5t0 24q-1 2 -6 27.5t-13 33.5zM936 1413v4v-4z " />
<glyph unicode="Y" horiz-adv-x="915" d="M57 1414q0 31 73 42q48 7 97 7q29 0 59 -3q79 -6 103 -16q6 -3 9.5 -14t4.5 -28t1 -30.5t-0.5 -31.5t-0.5 -21q0 -37 -65 -41q95 -290 119 -383q49 169 104 410l-31 6q-12 3 -16.5 24.5t-5 48t-2.5 31.5q-1 15 -1 28q0 21 3 36q18 0 162.5 2t154.5 2q7 0 12.5 -1t9 -3 t6 -4t3.5 -6t1.5 -6.5t-0.5 -8.5t-1 -8t-2 -9.5t-2 -9.5v5q0 2 2 2l-2 -2v-5q-2 -9 6 -51q3 -22 3 -40q0 -16 -3 -28q-7 -25 -41 -20q-32 4 -47 4q-3 -7 -7 -21.5t-7 -21.5l-123 -391q-5 -18 -26 -79.5t-38 -115t-20 -75.5q-6 -52 -6 -111.5t3 -133.5t3 -114v-30h5 q20 0 30.5 -1t21 -7.5t10.5 -20.5v-10q0 -40 -12 -123q-2 -19 -13 -27t-21.5 -8.5t-30 2t-27.5 2.5q-82 -4 -121 -4q-6 0 -21 -1q-11 -1 -17 -1h-5q-7 1 -16 4.5t-12 13.5t-1 27q1 17 -5 62q-5 28 -5 48q0 13 2 23q6 28 36 28q9 0 20 -3q-3 57 -3 123q-1 21 -1 44q0 44 1 90 q1 68 1 72q0 24 -24.5 105t-58.5 181.5t-40 119.5v-2q-92 303 -99 330q-22 -8 -48.5 -7.5t-31.5 21.5q-5 20 -5 58v8q1 9 1 17zM403 1321v2v-2z" />
<glyph unicode="Z" horiz-adv-x="821" d="M55 59q0 28 19 62q21 37 39 76.5t36.5 88.5t29 79t30.5 91t27 81q18 49 55 150t59.5 162t51 148t49.5 162q27 103 28 113q-28 0 -59.5 -1t-70.5 -2.5t-62 -2.5q4 -27 2 -41q-4 -31 -21 -40t-61 -11h-2q-3 0 -19.5 -0.5t-27.5 -0.5t-25.5 1.5t-23 6t-9.5 11.5q0 15 -1 31 t-2.5 36t-2.5 31q-1 13 -4 38.5t-3.5 38.5t1.5 40q0 3 -0.5 12t-0.5 15t2 13.5t7 12.5q4 4 33 4q21 9 518 9q117 0 117 -41q0 -24 -55 -134q-21 -41 -39.5 -91.5t-38 -113t-31.5 -94.5l-176 -524q-6 -15 -45 -139.5t-55 -153.5h26q35 0 74 3.5t84.5 8.5t71.5 7v8 q0 4 -1.5 16.5t-2.5 25t0 25.5t6 22t14 11q9 4 38 0.5t38 -2.5h59q11 2 17 -2t7 -12t0.5 -15.5t-2 -17t-1.5 -12.5q3 -19 5 -58t5 -59q0 -4 1.5 -20t1.5 -24.5v-22t-3 -23.5t-8 -18q-2 -4 -27 -15h-4q-16 -8 -223 -8h-66h-56h-46q-40 0 -97.5 1t-96 3.5t-54.5 7.5 q-29 13 -29 47z" />
<glyph unicode="[" horiz-adv-x="671" d="M66 1505q0 20 6.5 33.5t14.5 20.5t25 10t27 3.5t31 0.5h6.5h5.5q55 0 115.5 -2.5t138 -7.5t115.5 -7q8 -23 12 -64.5t8 -59.5l-2 2q4 -20 4 -25q0 -16 -5 -27t-11 -16.5t-19 -8t-21.5 -3t-24.5 -0.5t-46 1t-45 1q-17 0 -49 -1t-49 -1q6 -69 9 -193t5 -164q5 -164 5 -591 q0 -1 2 -106.5t-2 -106.5q47 -3 90 -3q12 0 36.5 2.5t38.5 2.5q48 0 75.5 -31t27.5 -82q0 -54 -47 -78q-28 6 -58.5 7.5t-75.5 0t-59 -1.5h-82q-38 0 -63 0.5t-46.5 4.5t-33 7t-21 14t-12.5 18.5t-5 28t-1 35t1.5 47t0.5 56.5q0 137 -3.5 383t-4.5 328q0 48 1.5 156.5t1 191 t-4.5 156.5q-1 11 -6.5 34t-5.5 35z" />
<glyph unicode="\" horiz-adv-x="921" d="M72 1196q0 33 30 57q14 0 35 9q19 8 48.5 10.5t41.5 5.5q32 -11 81 -111.5t67 -160.5l45 -113q195 -482 278 -703q12 -31 46.5 -118t56 -147.5t39.5 -119.5h-76q-83 0 -127 9q-61 121 -313 728.5t-252 653.5z" />
<glyph unicode="]" horiz-adv-x="679" d="M68 1432q0 74 17 101.5t83 27.5q44 0 130 -3.5t130 -3.5q12 0 31.5 1t27.5 1q28 0 47 -3t37 -16.5t23 -37.5q4 -27 4 -83v-68v-344q0 -57 -2 -166.5t-2 -163.5q0 -5 0.5 -37t1 -69t0.5 -89t-1.5 -103t-5 -105t-10 -99.5t-16 -82.5t-23.5 -58.5t-32 -22.5h2q0 -4 -60.5 -2 t-62.5 2q-15 0 -44 -3t-44 -3q-45 0 -178 18q-19 34 -19 93q0 51 25.5 68.5t77.5 17.5q29 0 88 -4.5t88 -4.5q0 100 10 298t10 298q0 98 -7 288t-7 288q-27 -6 -205 -6h-9q-25 0 -36 0.5t-27.5 4t-23.5 11.5t-12.5 23t-5.5 37z" />
<glyph unicode="^" horiz-adv-x="765" d="M55 1333q28 20 93.5 70.5t115 86t96.5 66.5h7q30 0 73.5 -27t82 -61.5t89 -78.5t84.5 -66q-1 -2 -8 -12.5t-13.5 -20t-15.5 -23t-17.5 -24.5t-17.5 -21.5t-16 -16t-12 -5.5q-25 0 -67.5 25t-100.5 68.5t-63 47.5q-16 -8 -46 -38h3q-32 -32 -134 -99h2q-8 -8 -20 -8 q-24 0 -46 30.5t-36 63.5q0 10 -33 43z" />
<glyph unicode="_" horiz-adv-x="1101" d="M72 43q0 31 10 51q19 29 78 29h14q35 1 221 10.5t287 9.5q32 0 94 -4h4h15l39 -2q37 0 92 -6.5t71 -19.5q1 -18 7 -60t6 -63q0 -7 -4 -35l-15 -21q-48 -18 -647 -18q-4 0 -37.5 -0.5t-55.5 0t-54 1.5t-55.5 3.5t-37.5 7.5q-23 10 -24 15q0 -1 0 22q0 13 -4 40t-4 40z" />
<glyph unicode="`" horiz-adv-x="344" d="M63 1432q0 24 26 40.5t54 21.5t52 5q11 0 20 -3.5t15.5 -8t11.5 -14.5t8 -15.5t5.5 -19.5t3.5 -19t3 -20.5t2 -18.5q1 -9 4.5 -34t3.5 -43q0 -17 -2 -23v2q-11 -49 -55 -49q-30 0 -49 19.5t-37.5 60t-24.5 49.5l2 -2l-10 14v-2q-2 2 -8.5 10.5t-9.5 12.5t-7 11t-6 13 t-2 13z" />
<glyph unicode="a" horiz-adv-x="757" d="M57 434q0 69 34 152.5t83 126.5q36 30 89.5 49.5t105.5 19.5q26 0 53 -6q3 9 -1.5 26.5t-4.5 22.5t0.5 32t-4.5 32q-11 30 -37 33q-18 5 -28.5 -2.5t-6.5 -24.5q2 -9 7 -22.5t7 -21t-2 -17t-18 -17.5q-44 -24 -119 -24q-66 2 -95 37q-23 27 -23 62q0 10 2 20 q8 46 38.5 92t71.5 71q51 27 110 27q14 0 28 -2q76 -8 148 -49t101 -95q18 -34 27 -74q9 -38 9 -71l-1 -78v-172q0 -121 -2 -180q-2 -27 -2 -82q0 -26 -4 -88v-10q4 0 24 4q36 6 43.5 -1.5t9.5 -43.5v-4v-8q0 -20 -4 -54q-4 -40 -4 -59q0 -21 -14 -25q-7 -2 -16 -2 q-12 0 -26 3q-28 5 -32 5q-27 0 -43 2q-6 -2 -33 -2q-40 0 -63 2q-21 3 -25 21l-2 10q-2 -1 -12 -4.5t-13 -4.5t-12 -3.5t-13 -3.5t-12 -3.5t-13 -3t-13 -1.5t-14 -1h-13t-14 1q-81 3 -155 77h2q-63 63 -81 140t-18 192zM250 360q0 -21 6 -45q7 -35 27 -54t47 -19 q32 0 53 24q47 56 47 148q0 42 -16 112q-6 22 -15 30.5t-34 16.5h2q-16 3 -30 3q-35 0 -50 -21q-10 -10 -15 -24.5t-8 -40.5t-4 -31q0 -1 -1 -4t-1 -4q0 -11 -4 -31q-4 -46 -4 -60z" />
<glyph unicode="b" horiz-adv-x="772" d="M59 180q13 3 82 8q4 1 9 2t8 2t4 1q-1 23 -10 238t-9 327q0 130 13 286q10 98 10 177q0 8 -1 24t-1 23h-4q-3 0 -19 -4.5t-23.5 -5t-19.5 3.5q-6 6 -6.5 19.5t2 31t2.5 22.5q0 4 -3.5 23t-3 32t6.5 23q5 10 14.5 16t24.5 8.5t24.5 2.5h29h22.5h14q45 0 125 10 q5 1 18.5 4.5t23.5 5t22 1.5t19 -7t9 -20q5 -27 10 -79.5t8 -66.5q2 -12 -4 -18t-16.5 -6.5t-20.5 1t-22.5 3.5t-17.5 2h-19l-4 -35v4q-6 -16 -6 -62v-25q1 -33 1 -54.5t-1 -32.5q31 8 72 8q64 0 115 -21t84.5 -56t55.5 -84t31 -102.5t9 -113.5q0 -117 -23 -252 q-2 -15 -5.5 -50t-6 -54.5t-8 -52.5t-12 -53.5t-18 -47.5t-25.5 -45t-35 -35t-47 -28q-74 -18 -129 -18q-23 0 -43 3v-9q0 -36 -29 -36h-4h-17q-35 0 -107 -5q-38 -3 -64 -3q-39 0 -56 6q-13 3 -19 40t-6 63q-6 20 -6 39q0 11 2 22zM332 786q0 -446 26 -487v2q18 -35 70 -35 q54 0 64 62q24 130 24 448q0 48 -21 79.5t-67 31.5q-42 0 -69 -29.5t-27 -71.5z" />
<glyph unicode="c" horiz-adv-x="667" d="M57 446v74v27q0 223 72 366q45 91 121 134q45 24 95.5 24t100.5 -14q51 -14 93.5 -43.5t58.5 -73.5q10 -24 10 -53q0 -17 -4 -35q-8 -51 -39 -76q-21 -18 -46.5 -29.5t-53 -14.5t-47.5 13q-14 9 -28.5 53.5t-35.5 49.5q-4 2 -16 2q-10 -1 -18.5 -6t-15 -15t-11.5 -18 t-9.5 -22.5t-7 -21.5t-6 -22.5t-4.5 -17.5q-37 -154 -37 -295q0 -120 43 -180q31 -43 64 -43q10 0 20 4q18 7 28 23.5t17 42t13 36.5q1 2 4.5 7.5t4.5 7t4 5.5t4 5t4 3.5t5.5 3.5t6.5 2.5t8 2.5t10 2q9 1 18 1q26 0 47 -7q81 -18 81 -116q0 -12 -1 -25q-8 -58 -50.5 -103 t-98 -66.5t-113.5 -21.5q-78 0 -137 35q-32 18 -57.5 46t-41.5 55.5t-27 70t-16.5 71t-8.5 79t-3 73.5z" />
<glyph unicode="d" horiz-adv-x="843" d="M55 594q0 62 12 133t36 146.5t69 135.5t104 83q23 8 80 8q15 0 44 -2t46 -2l23 -13q-18 76 -18 209h-2q-5 1 -22 0t-30.5 0.5t-19.5 7.5t-7 19t0.5 28.5t0.5 20.5t-5.5 25t-6.5 32.5t-1.5 28t9 22.5t24.5 5q39 -2 47.5 -2.5t49.5 2t51 2.5q19 1 72 7q36 4 61 4 q11 0 20 -1q41 -6 53.5 -23t14.5 -61q0 -3 1 -19t1 -27.5t-2.5 -25.5t-8.5 -22t-16 -8l-80 -7q4 -65 4 -288q0 -77 -5 -227.5t-6 -227.5q4 -113 5 -350q3 0 7.5 1t7.5 1l19 1q19 0 30 -0.5t28 -2.5t26 -8.5t11 -16.5q5 -6 5 -53v-17q-1 -62 -1 -69q0 -14 -5.5 -22.5 t-17.5 -11t-21.5 -3t-26.5 0.5t-23 1q-43 0 -137 -12q-3 0 -16 -2t-20.5 -2t-18.5 1t-18 5t-11 12l-12 29l-8 -4l2 2q-38 -23 -74 -23q-102 0 -211 105q-35 33 -59 93.5t-35 132.5t-15 131.5t-4 117.5zM262 547q0 -94 4 -121q6 -51 42 -125t75 -74q10 0 12 2l41 19 q4 120 9 224l7.5 156t2.5 89q0 29 -3 50.5t-12.5 44t-29 34.5t-48.5 12q-19 0 -34.5 -8t-25 -24t-16 -32.5t-10 -40t-5 -39.5t-3 -39.5t-2.5 -31.5q0 -17 -2 -48t-2 -48z" />
<glyph unicode="e" horiz-adv-x="702" d="M55 397q0 59 4 117t14 135t31.5 141t53 120.5t82.5 89t116 32.5q291 0 291 -409q0 -21 -2 -64t-2 -65q0 -48 -41 -50h-53q-38 0 -113.5 4.5t-113.5 4.5q-29 0 -91 -4q5 0 5 -9q0 -124 30 -190q17 -37 65 -58q34 -15 63 -15q13 0 24 3q23 4 25.5 10t-11.5 23 q-6 7 -18.5 19t-19.5 19.5t-13 19t-4 24t12 27.5q37 52 123 52q21 0 45 -3q70 -10 70 -100q0 -23 -4 -50q-17 -101 -97 -165t-182 -64q-81 0 -139.5 36t-90 97t-45.5 128.5t-14 143.5zM264 637h25q19 0 57 -1t57 -1q53 0 68 4v14q0 42 -12.5 86.5t-36.5 71.5v-2 q-25 25 -41 25q-43 0 -71 -36t-37 -77.5t-9 -83.5z" />
<glyph unicode="f" horiz-adv-x="782" d="M55 948q0 43 15 109q81 0 120 2q3 213 136 321q46 34 107 56q58 21 123 21h6q67 -1 112 -32q39 -28 48 -77q4 -16 4 -31q0 -31 -13 -60q-32 -77 -133 -92q-26 -5 -42 8t-22.5 32t-20 35.5t-32.5 16.5q-15 0 -27.5 -7.5t-21 -23t-14.5 -30.5t-10 -38t-6 -36t-4.5 -35 t-2.5 -26q33 -2 100 -2q16 0 26.5 -6.5t16 -14t8 -24t2.5 -24v-27.5q0 -55 -20.5 -79t-55.5 -24t-83 4v-18q0 -44 7 -140t14 -169.5t19.5 -205t14.5 -151.5q23 8 42.5 6t23.5 -20q12 -95 14 -139q1 -26 -25 -30t-51 5q-44 4 -60 4q-2 1 -4 1q-18 0 -60 -3q-48 -4 -60 -4 q-9 0 -26 -3t-28 -5h-5q-7 0 -15 4q-10 4 -12 18q-3 20 -6.5 60.5t-6.5 60.5t19 39q4 6 11.5 6t18 -3t15.5 -3q0 66 -3 136.5t-9.5 175.5t-8.5 137q-2 9 -2 35q0 24 2 60q3 78 3 95q0 28 -3 55q-69 3 -122 17q-13 23 -13 63z" />
<glyph unicode="g" horiz-adv-x="770" d="M72 -204q-14 25 -14 52q0 32 20 66q43 58 100 58h2q59 -2 113 -54q6 -5 20.5 -21.5t26 -24t27.5 -11.5q10 -5 18 -2t14.5 4t12 8t9 11.5t6.5 14.5t5 16t3.5 17t2.5 17t2 16t2 14q-6 -1 -27 -3.5t-34 -2.5q-29 0 -53 9q-49 14 -88 42.5t-64.5 63t-44 83.5t-28 92 t-15.5 99.5t-7 96.5t-1 92q0 62 6.5 120t25.5 123t49.5 113t83 79.5t120.5 31.5q37 0 94 -23v8q0 22 18 37q18 12 79 20q30 4 58 4q31 0 60 -4q58 -9 61 -38q2 -12 2 -35q0 -14 -1 -33q-1 -35 -1 -53v-12q0 -14 -3.5 -22t-11 -10t-14.5 -2t-17.5 1.5t-16.5 1.5l-27 4 q-4 -54 -4 -82q-2 -117 -2 -348v-147q0 -33 3 -96.5t3 -96.5q0 -74 -15.5 -137t-47.5 -116.5t-88 -86.5t-132 -39q-47 -5 -86 -5q-62 0 -102 13q-70 22 -102 77zM252 524q0 -356 119 -356h8q16 2 27.5 8.5t19 22t10.5 23t7.5 31t5.5 26.5q7 42 11.5 84.5t6.5 99t3 81.5v37 v62q-1 75 -1 84q0 43 -12 55v-2q-39 39 -103 39q-26 0 -39 -8q-63 -33 -63 -287z" />
<glyph unicode="h" horiz-adv-x="835" d="M59 1421q3 18 21 23q10 3 24 3q14 -1 30 -3q34 -4 36 -4q10 -1 24 -1q19 0 46 2t46 2q15 0 25 -1q4 -1 35 -1t49.5 -6.5t18.5 -23.5q0 -35 -15 -133q-6 -35 -37 -35q-10 -113 -10 -203v-14q16 0 48.5 2t50.5 2q95 0 158 -45t89.5 -115.5t26.5 -162.5q0 -31 -4 -93 q-4 -48 -4 -103t2 -121t2 -101v-92q15 0 43 -4q14 -9 14 -125v6v-6q0 -12 -6 -20.5t-19 -13t-21.5 -6.5t-26.5 -3.5t-21 -1.5q-14 -6 -50 -6q-10 1 -24 1q-31 1 -51 1q-16 0 -24 -1q-3 -1 -13.5 -3.5t-17 -4t-17 -3t-18 -1t-15.5 2.5t-13 7t-7 13q-5 5 -5 50v15q1 60 1 66 q-4 27 15 37t55 12q4 66 4 98q0 20 -2 73q-2 38 -2 63v18l6 137q0 15 1 45t1 47q0 98 -21 148q-13 24 -53 24q-54 0 -90 -33q-6 -52 -6 -104v-37q0 -40 1 -90q1 -75 1 -102q0 -52 -3 -156t-3 -156q57 0 59 -26v-17q-1 -17 -1 -47v-26q0 -30 3 -41q0 -35 -43 -35q-15 0 -35 4 q-19 3 -58 5t-58 5l-99 4q-19 3 -24 23t-0.5 58t4.5 42q0 38 13 52t50 10q0 222 -8 399v-2q-4 180 -4 268q0 64 1 190.5t1 192.5q-5 0 -18.5 -0.5t-18 -0.5t-13 2t-11.5 6.5t-5 13t-1 20.5q1 6 1 13q-1 21 -7 54q-5 28 -5 49q0 12 2 21zM778 74v2v-2z" />
<glyph unicode="i" horiz-adv-x="466" d="M57 78q2 50 0 63q-1 21 13 31.5t41 15.5q0 20 -1 57t-1 56q0 81 4 192t4 189q0 93 -8 172q-19 0 -25 2q-12 0 -18.5 9t-7.5 24.5t0 30t3 31.5t2 24q0 37 13 50.5t49 12.5q98 -12 154 -14q3 0 16.5 1t23.5 0.5t22.5 -2t19 -7.5t6.5 -15q0 -12 0.5 -28.5t-0.5 -37.5t-1 -37 t1 -28q1 -16 -6 -23.5t-16.5 -8.5t-25.5 0l-4 -93q-2 -14 -2 -40q0 -37 -1 -112.5t-1 -113.5q0 -63 1 -142t1 -144q0 -13 2 -19q26 5 46 5q24 0 40 -7q19 -5 19 -119q0 -12 -7 -20t-19.5 -12t-23.5 -6t-26.5 -4t-21.5 -3q-16 -6 -56 -6h-22q-29 1 -48 1t-28 -1q-4 0 -34 -6 q-20 -4 -36 -5q-7 0 -13 1q-19 3 -22 22q-6 11 -6 45v19zM104 1188q0 40 34 64t73 24q34 0 77.5 -32.5t43.5 -65.5q0 -37 -41.5 -75t-77.5 -38q-43 0 -76 40t-33 83z" />
<glyph unicode="j" horiz-adv-x="497" d="M-192 -160q-1 7 -1 13q0 58 29 100q16 22 48 31t63 4q13 -3 23.5 -10.5t16 -13t11 -19.5t7 -19t5 -24.5t4.5 -22.5q5 -33 20 -33q14 0 38 31q37 50 55 139q10 92 10 168v285q0 268 4 346h-12q-5 1 -22 0t-31 0.5t-21 7.5q-6 8 -13 53q-4 24 -4 49q0 19 2 39q6 43 32 40 q21 -3 45 -3t54.5 1.5t47.5 1.5q14 1 70 8q39 5 65 5q11 0 19 -1q41 -4 53 -22t12 -62q2 -2 2 0q0 -3 1 -19q1 -11 1 -20v-8q-1 -12 -2.5 -26t-7.5 -22t-16 -8l-66 -4v-135q1 -60 1 -102t-1 -65q0 -46 -1.5 -158.5t-5.5 -173t-10 -142t-16 -134t-24 -85.5 q-47 -109 -203 -170q-30 -10 -61 -10q-29 0 -59 8q-63 18 -107 61l-15 15q-37 41 -40 106zM141 1169q0 42 24 69.5t66 27.5q40 0 74.5 -25t34.5 -65q0 -5 -4 -25l2 6q-5 -39 -33.5 -67.5t-66.5 -28.5q-43 0 -70 32.5t-27 75.5z" />
<glyph unicode="k" horiz-adv-x="884" d="M56 1364q1 24 7 35q3 7 22 9l14 2q12 0 25 -2q20 -2 39.5 -5.5t20.5 -3.5q0 2 4 2q5 0 7 -2q17 0 85 2t78 2q5 0 14.5 1t15 1t12 -2t9.5 -8.5t3 -18.5q0 -100 -17 -121q-8 -6 -14.5 -5t-19 5.5t-17.5 4.5h-4q-6 -167 -8 -235q-1 -45 -1 -99v-56q1 -86 9 -151l16 20l-2 -2 l123 137q-23 0 -39 7q-7 3 -9.5 21t-2 36t2 40t1.5 26v-3v3q0 20 90 34q71 11 143 10h37q91 -4 95 -24q3 -4 3 -25q0 -15 -2 -39q-4 -58 -3 -67q1 -27 -24 -37q-16 -6 -39 -6q-12 0 -25 2q-152 -201 -152 -203q0 -16 31 -101t51 -134v2q0 -1 18 -44t45.5 -109t44.5 -111 l39 4q12 -1 18.5 0t9 -5.5t3 -9.5t-0.5 -12.5t-1 -13.5q0 -7 5 -23l8 -32q4 -18 4 -32q0 -16 -10 -24t-30 -6q-3 0 -47 -1q-43 -1 -89 -1h-46h-44q-44 0 -56 2q-10 3 -16 18.5t-10 37.5t-5 26q-7 17 -4 49q32 4 49 4q-15 37 -18 60v-3q-23 71 -31 89v-3q-6 18 -20 59.5 t-26 72.5t-26 59q-20 -25 -29.5 -37t-18.5 -27.5t-11.5 -21t-4.5 -22t-1 -26t1.5 -36t0.5 -49.5q0 -5 6 -98q43 4 52 -2t14 -37q3 -17 -3 -51.5t-6 -45.5q0 -10 -7 -16t-20 -6h-12.5h-12.5q-12 0 -28 2t-24 2q-23 0 -67 1t-68 1q-40 0 -51.5 10.5t-16.5 38.5q-6 29 -6 50 q0 17 4 30q6 13 50 16h7q-4 50 -4 72q0 32 3.5 94.5t3.5 93.5q0 78 -8.5 233.5t-8.5 233.5q0 57 6 173.5t6 175.5q0 20 -2 30q-26 -8 -55 -5.5t-29 26.5q0 6 -2 38q-1 21 -1 39v17z" />
<glyph unicode="l" horiz-adv-x="489" d="M57 1300q1 26 1 42l-1 26q0 26 82 34q53 5 106 5q33 0 65 -2q86 -5 100 -10q7 -2 11 -12.5t5.5 -27.5t1.5 -31t-1 -30.5t-1 -19.5q0 -7 -2 -13t-7 -10t-9.5 -6.5t-13 -5t-13 -3.5t-15.5 -2.5t-14 -2.5q-1 -98 -16 -529q-3 -87 -4 -259t-4 -259q24 8 59 11q28 4 31.5 -12 t-2.5 -40v7v-7v-2v2q0 -8 5 -28t9 -39q5 -21 5 -39q1 -17 -9 -28t-31 -9h-20q-41 0 -126 -5q-45 -3 -77 -3q-46 0 -66 6q-12 3 -18.5 23.5t-9 47t-4.5 31.5q-6 22 -6 42q0 12 2 22q46 4 67 4q-1 58 -2.5 159t-2.5 184t-1 157q0 61 4 185t4 187q0 25 -1 54t-2.5 64.5 t-2.5 55.5q-17 -3 -30 -3q-36 0 -40 24q-6 12 -6 46v19z" />
<glyph unicode="m" horiz-adv-x="1251" d="M58 940q0 14 1.5 31.5t1.5 23.5q0 37 11 51q10 13 40 13h5l57 -6h6q82 0 107 -6q34 0 37 -25v-4q4 3 8 4.5t9.5 3.5t10.5 4h-2q70 25 119 25q40 0 88 -26t80 -60h2q43 48 106 71q34 19 84 19q51 0 95 -21h-2q43 -18 74.5 -49.5t49 -63t30.5 -80t17.5 -80.5t10.5 -87.5 t10 -79.5q19 -137 19 -356v-58q45 11 47 -18q3 -23 7 -69.5t7 -69.5q0 -24 -25.5 -29.5t-50.5 4.5q-41 4 -56 4.5t-62.5 -3t-57.5 -3.5q-8 0 -25 -3t-28 -4.5t-21 3t-12 18.5q-4 82 -10 121q-3 21 18 39q7 7 31 2q-2 18 -2 53q0 37 3 111t3 111q0 60 -5.5 152t-16.5 124v-2 q-9 26 -9 29h2q-22 68 -41 86q-14 12 -28 12q-16 0 -53.5 -56.5t-42.5 -78.5q-5 -19 -5 -68q0 -91 19 -461h14.5h17.5t16.5 -0.5t16.5 -2.5t13 -4.5t10.5 -7.5t4.5 -11q3 -8 1 -30.5t-3.5 -32t-5.5 -32t-5 -30.5q-2 -14 -9.5 -22t-20.5 -9.5t-24.5 -1t-28.5 2t-26 1.5 q-47 -2 -141 -2q-8 0 -20.5 -1t-20.5 -1.5t-17.5 1t-14.5 5t-7.5 12.5t-1.5 23q1 17 -5 59q-4 26 -5 45q0 12 2 21q6 24 49 24q6 0 14 -1v75q0 50 -5 149t-5 148q0 9 1 38t1.5 51t-1 53.5t-7.5 54.5t-16 45t-28.5 33.5t-43.5 11.5q-16 0 -29 -3.5t-22 -12.5t-15.5 -16.5 t-10.5 -22.5t-6.5 -23.5t-3.5 -28t-1 -26.5v-27.5v-23.5q0 -90 9.5 -254t10.5 -199q0 -4 1 -14.5t1 -14.5q38 0 41 -22q3 -24 5 -67t5 -66q1 -11 -2 -18.5t-7.5 -11t-14 -5t-16 -1.5t-18 0.5t-15.5 0.5q-20 0 -59 -1t-58 -1q-17 0 -48 -1t-48 -1q-12 0 -20 8.5t-10.5 26 t-3.5 29.5t0 33.5t1 23.5q-2 39 10 53t49 14h13q-3 116 -11.5 345t-11.5 345l-53 4q-10 0 -15.5 9.5t-6.5 25.5q-1 11 -1 21q1 5 1 10z" />
<glyph unicode="n" horiz-adv-x="874" d="M56 915q0 3 -1 7q0 8 1 19q1 16 1 20q0 1 -1 23v19v13q1 10 6.5 23.5t17.5 19.5q33 11 195 11q54 0 51 -3q8 -6 9 -41.5t3 -40.5q124 37 180 37q76 0 115 -37q127 -117 127 -663q0 -44 -4 -138q59 -4 61 -18v-8q1 -12 -1 -30q-2 -24 -3 -34q0 -51 -2 -78 q-2 -10 -10.5 -15.5t-23 -7t-27 -1.5t-28 1t-20.5 1q-22 1 -64.5 5t-62.5 5q-86 0 -86 45q1 10 -0.5 62t3.5 57q4 17 26 17q14 0 35 -7q4 126 4 184q0 262 -21 366q-13 64 -34 91q-21 6 -45 6t-42.5 -8.5t-29 -25.5t-17 -33t-9 -42.5t-3 -41t-0.5 -40.5v-9q0 -21 -1 -62 t-1 -61q0 -49 5.5 -147t5.5 -146v-16q39 0 55 -9q7 -4 11 -17t5 -31t0.5 -34t-1.5 -34t-1 -23q1 -13 -3.5 -20.5t-14.5 -10t-18.5 -2.5t-23 1t-20.5 1h-16q-16 -1 -38 -2t-50.5 -1.5t-55.5 0t-50 2t-38 5t-16 9.5q-3 11 1 37t1 38v60q-3 18 8 22t33 0.5t29 -2.5h4 q-10 260 -10 467q0 34 1 72t2.5 85t2.5 75q-61 0 -76 -4q-12 -3 -19 1t-9 15.5t-2 21.5z" />
<glyph unicode="o" horiz-adv-x="686" d="M55 432q0 54 1.5 96.5t8 107t17.5 112.5t33.5 101.5t53 88t77.5 57.5t106 23q64 0 112.5 -21t79 -55.5t49.5 -83.5t26.5 -99.5t7.5 -109.5q0 -31 -3 -94t-3 -94t5 -91t5 -91q0 -106 -44.5 -172.5t-142.5 -98.5q-50 -16 -88 -16q-37 0 -80 16q-51 18 -88.5 42t-61 57 t-38.5 65.5t-22 79t-9 85t-2 95.5zM229 461q0 -30 2 -60t9.5 -72.5t20.5 -74t37 -54t56 -22.5q78 0 78 150q0 66 -3 196t-3 195q0 22 -0.5 31t-4 26t-13.5 26.5t-27 14.5q-6 2 -23 2q-35 0 -60.5 -30.5t-38 -70.5t-20 -96t-9 -90.5t-1.5 -70.5z" />
<glyph unicode="p" horiz-adv-x="761" d="M57 1067q3 18 18 23q7 2 17.5 2t23.5 -2q26 -5 29 -5q18 -2 54 2h6h8q16 3 35 0h26q13 0 17 -2q33 0 43 -14l4 -12v-19q76 13 102 13q64 0 114.5 -30t80.5 -76t49.5 -107t27 -117.5t7.5 -112.5q0 -34 -4 -104q-2 -33 -3 -88.5t-3 -88t-9.5 -75.5t-26 -81.5t-48.5 -76.5 q-94 -116 -219 -116q-30 0 -80 16h-4v2q-4 -165 -9 -221q3 0 7.5 1t7.5 1q10 2 16 0t8 -8t2.5 -11t0 -16.5t-0.5 -15.5v4v-4q0 -8 3.5 -28t6 -39t3 -38t-7.5 -30t-25 -9h-18q-34 0 -104 -4q-35 -3 -60 -3q-43 0 -60 7q-11 0 -16.5 21t-8 48t-4.5 32q-5 23 -2 63l56 4 q-11 135 -11 293q0 78 6.5 230.5t6.5 230.5q0 220 18 385h-8q-7 0 -20 -1.5t-19 -1t-13.5 3.5t-10.5 13t-3 27q1 8 1 18q0 21 -4 50t-4 49q0 10 1 18zM315 301.5q0 -6.5 1 -19.5t3.5 -23t6.5 -19q50 -54 94 -54q12 0 29 7q23 23 38.5 59.5t23 66.5t11.5 83t4 73.5v73.5 q0 124 -10 172q-13 59 -45 108q-15 27 -43 27q-25 0 -47 -14q-6 -3 -11 -7.5t-9 -8.5t-8 -11t-6 -11t-4.5 -12.5t-3.5 -11.5t-3 -13l-2.5 -12.5t-2 -13.5t-1.5 -12q-15 -117 -15 -381v-22v-24.5z" />
<glyph unicode="q" horiz-adv-x="749" d="M55 459q0 577 275 577q56 0 121 -30l-2 30q5 21 117 24q20 1 37 1q85 0 109 -17q8 -7 3 -14q3 -25 8 -137q1 -18 -8.5 -26.5t-24.5 -8t-33 3.5q-4 -78 -4 -112v-308q0 -52 -5 -157.5t-5 -157.5q0 -5 -4 -59q-2 -33 -2 -61q0 -17 1 -31q2 -39 15 -52q12 -17 22 -14 t14.5 12.5t14.5 23.5t21 19q13 7 26 7q22 0 42 -20q32 -30 41 -71q5 -24 5 -46q0 -31 -11 -56q-19 -42 -58 -59q-39 -16 -86 -16h-3q-49 1 -97 20q-152 62 -152 284q-54 -12 -78 -12q-28 0 -47 8h4q-41 4 -82.5 31t-72.5 65q-60 73 -80.5 158.5t-20.5 200.5zM258 459 q0 -256 94 -256q23 0 43 17t25 40q12 45 12 416q0 16 -1 51t-1 51q-13 21 -34.5 40.5t-39.5 19.5q-37 0 -63 -127v2q-35 -106 -35 -254z" />
<glyph unicode="r" horiz-adv-x="776" d="M59 1049q2 5 9 7t13.5 2t16.5 -0.5t13 -0.5q7 0 72.5 6t99.5 6h10q45 0 86 -18q10 -24 10 -50q57 21 86 21q66 0 141 -47q23 -10 54 -45q48 -58 51 -158q0 -50 -6 -82t-27 -61q-11 -14 -22 -22t-27.5 -11t-24.5 -3.5t-32 -0.5q-55 0 -76 37q-15 24 -15 47q0 9 3 18 q1 2 3.5 10.5t3 10t2 8t1.5 9t-0.5 7.5t-2.5 8l-5 7.5t-7 9.5q-23 25 -51.5 21t-42.5 -33v2q-8 -33 -8 -127q-4 -136 -4 -209q0 -28 -1 -40t-1 -40q0 -4 6 -145q16 0 25 -0.5t21.5 -3t18.5 -9.5t7 -18q1 -19 -1 -39.5t-7.5 -54.5t-6.5 -41q-2 -17 -14.5 -25t-25 -8t-35.5 2 t-31 2q-31 -4 -143 -4q-7 0 -24 -1q-11 -1 -19 -1h-6q-8 0 -18 4t-13.5 14t-1.5 27q1 6 1 14q0 21 -6 53q-5 29 -5 50q0 10 1 18q5 25 47 25q17 0 39 -4q-2 18 -2 53q0 37 2.5 46.5t2.5 47.5q0 77 -9.5 230t-9.5 231q0 23 -2 37h-20q-37 -3 -60 -11q-14 -4 -21 4t-6 19.5 t1 21.5q2 47 2 78.5t-2 48.5q0 4 -6 23q-3 10 -3 17q0 6 2 10z" />
<glyph unicode="s" horiz-adv-x="729" d="M57 201q-2 12 -2 23q-1 44 27 84q34 52 90 59q5 1 10 1q34 0 67 -24q38 -28 52 -65q1 -4 4.5 -12t5 -11.5t4.5 -11t5.5 -10t7 -9t8 -7.5t9.5 -5t11.5 -2.5t14.5 0.5q67 9 67 74q0 56 -39 101t-100 87l4 -2q-55 40 -86.5 67t-65 66.5t-48.5 85.5t-15 103q0 128 107 217 q39 33 94 49q58 20 116 20l28 -1q72 -6 136 -50t95 -113q10 -21 10 -44q0 -35 -22 -71q-36 -62 -91 -69q-21 -2 -44.5 -2t-43 12t-22.5 35q0 27 -7 43q-9 16 -20 21l-21 16q-20 20 -45 14q-47 -20 -47 -79q0 -25 10.5 -48.5t34 -47.5t37 -36t41.5 -34h-2q232 -170 232 -332 q0 -119 -54 -184v2q-3 -6 -12 -15q-76 -100 -206 -100q-68 0 -150 27q-21 6 -40.5 18.5t-41.5 30.5t-35 26q-59 35 -68 103z" />
<glyph unicode="t" horiz-adv-x="745" d="M57 971q0 30 6 57q5 3 9.5 6t8 5t8.5 3.5t8 2.5t9 2t8 1.5t9 0.5h9h11h11q2 2 8 4q2 2 2 12q0 14 -4 76q-8 -1 -17 -1q-26 0 -55 7q-10 3 -15.5 23t-7.5 46t-4 31q-5 20 -5 38q0 14 3 26q31 5 118.5 12t146.5 20h1q7 -1 15 -11q8 -12 15 -32t10 -43l4 -8q7 -68 7 -122 q0 -34 -3 -62q34 -4 97.5 -6.5t90.5 -5.5q23 -71 23 -103q0 -46 -19 -67.5t-50 -22.5t-69.5 -1t-76.5 -3q0 -65 -7.5 -188.5t-7.5 -184.5v-22q4 -95 23 -156q8 -31 33 -67q8 -11 18.5 -18.5t24 -10t24.5 9.5q4 5 12.5 21t16.5 24q32 32 66 39q7 1 13 1q27 0 58 -21 q42 -34 46 -99v-12q0 -57 -36 -90q-63 -48 -110 -66q-64 -23 -112 -23q-12 0 -23 1q-39 3 -64 12q-16 3 -25 12q-5 3 -9.5 9t-6.5 8q-55 37 -88 120.5t-43 188.5t-12 199v56q0 67 2 133q2 60 3 92q0 19 -1 28q-44 0 -98 16q-9 53 -9 103z" />
<glyph unicode="u" horiz-adv-x="952" d="M56 1036q0 16 9 22.5t25 4.5q42 -2 48.5 -2.5t50.5 2t49 2.5q13 1 69 8q39 5 66 5q11 0 20 -1q41 -6 52.5 -23t13.5 -61q0 -3 1 -19t0.5 -27.5t-2.5 -25.5t-8 -22t-16 -8l-67 -6q-3 -51 -17 -225t-14 -269q0 -44 9.5 -81.5t38.5 -68t75 -30.5q36 0 65 20q82 54 82 496 q0 45 -4 147q-22 0 -38.5 2.5t-31.5 13.5t-14 30q1 10 -3 59t3 59q4 12 17.5 17.5t26 5.5t31 -2t23.5 -2t41.5 1.5t71.5 1.5t74 -1t63.5 -7.5t26.5 -17.5q1 -13 -1.5 -36.5t-2.5 -32.5q-1 -7 -1 -35t-3 -43q-2 -27 -78 -27q-2 -72 -13.5 -285t-11.5 -329v-35q38 0 62 8 q4 0 14.5 4.5t15 2t7.5 -14.5q9 -37 12 -76v-4v4q0 -4 1 -19t1 -27.5t-1 -27t-5 -23.5t-12 -11q-25 -7 -97 -15q-47 -5 -80 -5q-18 0 -32 1q-13 0 -41 -4h-2q-11 0 -18 8q-7 10 -9 25q-2 4 -10 12q-56 -29 -99 -29q-83 0 -146 24.5t-102 65.5t-63.5 100.5t-33.5 122.5 t-9 140q0 59 2.5 125t7.5 150.5t7 125.5h-5h-21.5t-30.5 2.5t-19 8.5t-7 18.5t0.5 27t0.5 19.5t-6 25q-4 21 -6 33q-2 10 -2 21v7z" />
<glyph unicode="v" horiz-adv-x="755" d="M57 958v12.5v11.5t0.5 10.5t2 9t5 7t8.5 5.5t12 2.5t17 -0.5q24 -3 50.5 -4t59 -1t50.5 -1h66q22 4 27.5 -11t-1.5 -26q-8 -41 -8 -99q0 -2 5.5 -16t0.5 -22q-5 -5 -33 -5q3 -77 11 -159t13.5 -121.5t19 -121.5t14.5 -89q3 45 13.5 123.5t27 187t24.5 172.5q-2 0 -11 -2 t-13 -1.5t-9.5 2.5t-8 10.5t-1.5 21.5q0 113 17 154q3 6 9.5 6.5t12.5 -2.5t12.5 -6.5t8.5 -4.5q3 0 31 5t62 10q34 6 68 8q10 1 19 0q22 0 37 -4q22 -6 20 -21q0 -7 1 -49v-38.5v-31.5q-1 -28 -5 -44q-7 -20 -49 -9q-4 -24 -10 -74.5t-10 -74.5l-101 -393l-35 -238 q-10 -55 -55 -55q-94 0 -125 16q-27 65 -93.5 352t-94.5 471q-56 3 -56 13v2q-7 39 -7 79q0 16 1 33z" />
<glyph unicode="w" horiz-adv-x="1202" d="M56 1028q0 16 9 22.5t25 4.5q29 -4 62 -4q41 0 86 6q10 0 68 7q37 4 62 4q15 0 25 -1q41 -6 52.5 -22t13.5 -60q0 -2 1 -19t0.5 -28.5t-2.5 -26t-8 -22.5t-16 -8l-69 -7q24 -118 61 -319q80 320 80 426q29 20 80 20q7 0 45 -3.5t45 1.5h3q30 0 52 -79q23 -83 38 -190.5 t22 -125.5q31 181 51 258q-3 0 -8.5 -1t-8.5 -1q-18 0 -24.5 15t-6.5 41.5t-1 33.5q-6 17 -5 55t13 50q5 3 28 8t29 8q5 1 11 1q11 0 29 -4q28 -6 36 -5q60 -2 100 -2t60 2q7 1 19.5 5t16.5 1.5t5 -14.5q6 -29 10 -78v-4v4q1 -1 1 -19v-16v-12q0 -10 -2.5 -25.5t-8.5 -24 t-15 -10.5q-8 -3 -16.5 -4t-21 -1t-19.5 -1q-41 -219 -110 -521t-89 -335q-16 4 -32 5t-42 0t-32 -1q-20 14 -47.5 122t-55 233.5t-43.5 160.5q-15 -51 -26.5 -110.5t-23 -131.5t-19.5 -112q-1 -4 -5.5 -27t-8.5 -43t-9 -43t-10 -38.5t-8 -18.5q-12 -12 -88 -12h-39 q-4 10 -14 32.5t-16 39t-9 32.5l-55 240q-14 63 -58.5 245.5t-66.5 284.5h-9q-5 1 -22 0t-30 0.5t-19 7.5t-7 19t0.5 28.5t0.5 20.5t-6 25q-4 21 -6 33q-2 10 -2 21v7z" />
<glyph unicode="x" horiz-adv-x="841" d="M56 966q4 29 3 38q-1 11 -1 29.5t-1 29.5q0 14 7 19t17.5 3.5t23 -2.5t22.5 0q38 5 135 9q2 0 22 1.5t28.5 1.5h25t28.5 -2.5t21 -7.5t13 -25t3.5 -39t-1.5 -44.5t-1 -28.5q1 -22 -7 -28.5t-27 -6.5q8 -20 26.5 -75.5t28.5 -73.5q8 12 15.5 29.5t11 28.5t11 37.5 t9.5 33.5q-37 12 -35 41q0 4 -4 60t2 59q5 16 21 17.5t39 -5t30 -6.5q4 0 72 8q64 8 114 8q2 -1 6 -1q52 0 56 -17q1 -13 -1.5 -38t-2.5 -34q0 -8 0.5 -24t0.5 -29.5t-1 -24.5q-1 -8 -5.5 -13.5t-16.5 -8t-18.5 -3t-23.5 -1.5q-9 -9 -12 -21q-92 -144 -166 -354 q102 -217 156 -320q33 4 47 2q36 -6 45.5 -21.5t11.5 -60.5q0 -4 1 -19t1 -26.5t-1.5 -24.5t-6.5 -20.5t-14 -7.5q-52 -8 -113 -8q-13 -1 -61 -5q-38 -3 -62 -3h-12q-10 1 -20 0h-6q-8 0 -18 2q-14 2 -19 8q-6 1 -5 31.5t1 32.5q0 8 -3.5 24.5t-5.5 30.5t-2 27.5t7 20.5 t22 5h16q-33 73 -69 166q-18 -37 -70 -170h2q4 0 18 3t26 3t18 -6q4 -11 3 -21.5t-4.5 -28t-3.5 -22.5q-1 -8 0 -25t-0.5 -30t-7.5 -23q-5 -11 -14 -17t-24 -6.5t-24.5 0t-27 4t-20.5 3.5q-17 2 -51 2t-84 -2q-6 0 -24.5 -2.5t-30 -3t-22 6t-10.5 22.5q-4 98 -4 147 q0 18 14.5 20.5t37 -4t26.5 -6.5q5 0 15 -1t18 -1q26 59 62 137.5t57.5 124.5t21.5 48q0 24 -55 161t-109 256q-26 -4 -56 -0.5t-34 19.5q-2 5 -2 15q-1 9 1 23z" />
<glyph unicode="y" horiz-adv-x="854" d="M56 1028q0 25 7 35q4 10 23.5 10t43.5 -5t28 -5q20 3 60.5 2t60.5 2q10 3 19.5 3.5t22 -0.5t19.5 -1q2 0 14.5 1t17.5 0t11 -7.5t6 -20.5q0 -102 -16 -122q-2 -4 -6 -5.5t-9 0t-9 3t-10.5 4.5t-8.5 4q-1 -54 -4.5 -213.5t-3.5 -247.5q0 -123 15 -174q27 -89 99 -90 q48 0 82 65q14 29 14 299q0 64 -3.5 178.5t-4.5 153.5q-25 -8 -58 -7t-34 21q0 5 -1 23t-1.5 35.5t0 36t4.5 31.5t12 16q4 3 14 3.5t24.5 -0.5t17.5 -1q11 3 24 4t29 1t25 1q57 8 129 8q4 0 19 2t26.5 1t17.5 -7t7.5 -19.5t0.5 -30.5t0 -22q0 -5 4.5 -22t8.5 -33 q4 -13 4 -26q0 -17 -9 -19q-21 -5 -45 -5q-11 0 -22 1q8 -96 8 -207v-444q0 -59 -1 -97.5t-7 -101t-17 -104.5t-33 -91.5t-52 -79t-77.5 -49.5t-107.5 -20q-111 0 -178 84l-6 8q-17 23 -17 61q0 21 5 46q16 53 59 61q24 10 49 8.5t43 -22.5q28 -39 29 -41q2 -2 5.5 -7.5 t6.5 -9.5t6 -4q21 -10 36 3.5t20 35.5v15t4 20l24 47q-42 -18 -98 -18q-55 0 -101.5 25t-77 64t-53.5 91.5t-34.5 102t-16.5 100.5q-3 40 -4 116.5t-4 116.5q-10 140 -10 256v57q-23 -7 -42 -3.5t-18 24.5q0 8 -3 40q-3 27 -3 49q0 4 1 7z" />
<glyph unicode="z" horiz-adv-x="727" d="M55 1049q0 5 6 14q8 8 39 4q110 20 258 22h51q116 0 205 -6q-25 -121 -59 -219q-16 -44 -63.5 -181t-75.5 -212q-82 -233 -92 -266q55 2 165 14q0 59 -2 84v15.5t7 10t12 5.5t15 2.5t16.5 0.5t16 -0.5t13.5 -0.5q3 0 20.5 0.5t25.5 0t21 -3t21 -8.5t13 -16q5 -14 5 -31.5 t-2.5 -30.5t-7 -33t-6.5 -30q-3 -29 -3 -57.5t3 -56.5q7 -34 -3.5 -45.5t-47.5 -16.5q-7 0 -25 -1.5t-34.5 -1.5t-30.5 3q-54 -5 -190.5 -6t-169.5 -6q-28 -4 -37 -4q-62 0 -62 47q0 21 5 40t16 45t14 36v-2q19 54 123 324t147 419q-22 0 -62.5 -3.5t-53.5 -4.5q2 -4 2 -19 q0 -1 3.5 -10.5t5 -14.5t2.5 -14t-1.5 -14t-9 -10t-17.5 -6q-47 -6 -145 -10q-17 -2 -21.5 8.5t-0.5 30.5l4 20q-1 14 2.5 52t-0.5 52v26t-4 32q0 2 -5 14q-6 14 -6 19z" />
<glyph unicode="{" horiz-adv-x="657" d="M70 791q0 39 16.5 70.5t40 54t46.5 46t39.5 59t16.5 81.5q0 24 -2 73t-2 74q0 187 144 240h-2q31 14 104 14q56 0 66 -18v2q14 -23 14 -94q0 -27 -4 -93q-50 13 -68 13q-16 0 -28 -6q-29 -19 -29 -80q0 -22 5 -66t5 -65q0 -154 -84 -260v2l-16 -23q-3 -3 -7 -6.5 t-11.5 -9.5t-11.5 -7t-7 1q9 -15 27 -33q85 -95 115 -203.5t18 -247.5q12 -36 29 -53t32 -18t29 -1t22 -10.5t8 -38.5q0 -25 -7.5 -68t-18.5 -54q-11 0 -17 -0.5t-10.5 -1.5t-22 -3t-46.5 -4q-35 0 -64 9.5t-50 24t-37.5 40t-27 47.5t-18 57t-11 59t-5.5 62.5t-2 58.5v56 q0 69 -21 107v-3q-13 19 -40.5 42.5t-49.5 42t-39.5 53.5t-17.5 78z" />
<glyph unicode="|" horiz-adv-x="382" d="M66 63q0 5 6 80q14 170 14 506q0 141 -8 422t-8 422q0 29 7.5 48t16.5 29t30 15t34.5 5.5t43.5 0.5h13h6q24 0 35.5 -1t26.5 -6.5t21.5 -19t6.5 -36.5q0 -28 -5 -81t-5 -81v-348q0 -59 -8 -176t-8 -174q0 -50 5 -149.5t5 -149.5q0 -23 -3 -71.5t-3 -72.5q0 -26 3 -76.5 t3 -74.5q0 -41 -8 -72q-27 -49 -174 -49q-47 33 -47 110z" />
<glyph unicode="}" horiz-adv-x="649" d="M70 1372q0 22 10 55h-2q9 54 63 54q167 0 224 -97v2q25 -43 36.5 -100t13 -102.5t14.5 -98.5t40 -92v2q3 -3 17.5 -20t18 -21.5t15.5 -19.5t16 -22.5t12 -21.5t11 -24.5t5.5 -24.5t2.5 -28q0 -45 -22.5 -83t-49 -63t-49 -72t-22.5 -108q0 -29 4 -88t4 -88 q0 -58 -21 -109.5t-61 -91t-105 -58.5t-145 -9l11 205q26 0 67.5 13.5t48.5 33.5q3 11 5 39.5t2 52t-0.5 59.5t-0.5 41q0 207 86 295v-2q1 2 5 6.5t6.5 8t5 8.5t2.5 10q0 3 -2.5 6t-3.5 6q-55 60 -75.5 98.5t-27.5 112.5q-2 19 -5 97t-13 116q-8 24 -32 36.5t-47.5 16 t-42.5 20.5t-19 50z" />
<glyph unicode="~" horiz-adv-x="966" d="M72 698q0 27 35.5 57t70.5 46h-2q87 55 160 55q64 0 129 -45l-2 2q3 -2 25.5 -16t33 -20t30 -16t35 -14t29.5 -4q32 0 52 33v-2q12 20 34 31.5t46 11.5q27 0 57.5 -10t48.5 -27h-2q27 -27 27 -51q0 -44 -74 -108h2l-12 -15v2q-64 -67 -179 -67q-64 0 -131.5 25.5t-115 51 t-62.5 25.5q-37 0 -83 -36t-60 -36q-21 0 -56.5 51t-35.5 76z" />
<glyph unicode="&#xa1;" horiz-adv-x="342" d="M59 -236q7 74 22.5 200.5t20.5 182.5q8 70 10.5 179.5t6.5 152.5l10 109q0 36 14.5 96.5t40.5 60.5h-2q41 3 76 3q52 0 74 -9.5t26 -38.5q3 -28 4.5 -88.5t4.5 -93.5l51 -524q3 -42 16.5 -129t18.5 -131q8 -80 -33 -134.5t-127 -54.5q-141 0 -193.5 47t-40.5 172z M135 926q0 80 82 80q26 0 47 -9h-2q34 -8 60 -31.5t26 -56.5q0 -52 -33.5 -76t-87.5 -24q-40 0 -66 38t-26 79z" />
<glyph unicode="&#xa2;" horiz-adv-x="714" d="M37 770q4 226 104 346q53 71 140 96q68 24 155.5 14t143.5 -52q10 -7 18 -15t14.5 -19.5t10.5 -18.5t9 -22.5t6.5 -20t6.5 -23t6 -21.5q14 -39 8 -91t-36 -85q-29 -33 -117 -33q-5 0 -25.5 0.5t-29.5 1.5t-24.5 4t-26 10.5t-17.5 18.5q-13 15 -4 52.5t2 52.5 q-15 43 -62 34q-15 -4 -26 -15.5t-17.5 -32.5t-9 -31.5t-6.5 -32.5q-24 -96 -24 -277q0 -133 28 -282q4 -20 5.5 -26t7 -22.5t11.5 -23t18 -14t28 -9.5h10q34 0 42.5 10.5t1 26t-10 34t9.5 34.5q24 24 96 24q116 0 158 -38q33 -39 32.5 -92t-24.5 -95q-10 -16 -16 -31 q-44 -66 -117.5 -93t-149.5 -18t-151 44q-70 34 -115 123q-48 100 -61 217q-14 132 -2 391zM303 -125l4 43v27q0 13 1 36t1 35q0 5 -1 14.5t-1 14.5v10l162 -10v-10v-101q0 -4 -1 -9.5t-1 -8.5q3 -22 0 -37q-2 -5 2 -16q6 -13 6 -17.5t-6 -17.5q-24 -7 -43 -4h-12 q-21 -6 -49 0q-23 0 -29 -2q-9 -2 -11.5 -2t-8.5 2.5t-9 3.5q-4 0 -4 6q4 6 4 13.5t-2 16t-2 13.5zM305 1159q0 5 1 16t1 15q4 28 -2 35q-3 6 0 14l4 37q2 14 2.5 17t-1.5 12.5t-3 17.5q-3 21 0 43q2 6 2 27q0 13 13 63q3 8 8 8l32 6q21 3 37 3q7 0 22.5 -1.5t22.5 -1.5 q17 0 23 3q27 6 27 -23q0 -25 -7 -31v-8q3 -11 -1 -30.5t-1 -30.5q1 -3 -0.5 -8t-1.5 -7q-5 -5 -2 -12q7 -11 1.5 -35.5t-5.5 -32.5q0 -13 -1 -35.5t-1 -33.5v-15q-3 -5 -3.5 -9t0.5 -11.5t1 -11.5q0 -5 -2 -16.5t-2 -16.5l-162 8q2 13 2.5 15.5t-2 15t-2.5 14.5z" />
<glyph unicode="&#xa3;" horiz-adv-x="919" d="M55 637q0 45 45 45q26 0 88 4q9 12 5 33l-7 168q-2 0 -1 40l1 40q2 2 1 42t-1 42q0 13 -2 39.5t-2 42.5q3 152 113 256q32 32 74 57q90 54 182 39q39 -5 47 -8q8 -2 23 -9q3 -1 10 -1t10 -1q13 -2 33 -14l14 -6q14 -4 19 -10q8 -6 32 -39q15 -19 15 -60q0 -2 1 -7.5 t0.5 -9t-3.5 -7.5l-7 -21l-18 -37q-3 -9 -10 -16q-5 -5 -8 -14q-30 -23 -62 -23q-20 0 -37 10q-23 10 -35 25l-12 12q-3 12 -8 17q-4 4 -7 8t-6 8.5l-5 7.5q-15 15 -19 17q-23 10 -31 10q-16 0 -36 -14q-44 -28 -56 -78q-10 -22 -24 -95q-3 -10 -4 -21.5t-1 -26.5t-1 -23 q-1 -5 -1.5 -15.5t-1.5 -18.5t-4 -15q-6 -47 -2 -142q1 -16 1 -44.5t1 -52t4 -44.5q0 -5 1.5 -16t1.5 -19q9 -4 41 -4l165 4h35q30 -3 33 -33q4 -28 2 -43l-6 -55q-6 -29 -39 -26q-4 0 -7 1l-3 1q-24 -4 -50 -4t-57.5 2t-50.5 2q-13 0 -22 -0.5t-15 -3.5t-9.5 -3.5t-5 -7.5 t-1.5 -9v-14v-16q-3 -35 0 -69q2 -51 -19 -174q-4 -30 -10 -47q18 -13 43 -13q67 -6 135 -6q49 -3 115 21q44 15 53 59l10 33q6 16 23 16q64 3 117 -14q32 -8 18 -41q-31 -95 -80 -154q-33 -39 -78 -59q-82 -40 -141 -33q-1 4 -44 2t-44 -2q-117 0 -207 10l-135 13 q-3 0 -7 1t-7 1q-7 33 -11 120l11.5 11.5t17.5 13.5q50 40 64 98q11 35 8 84l-4 138q0 3 -1 9t-1.5 8.5t-2 6.5t-5.5 8h-50q-8 0 -27.5 -1t-31.5 -1q-20 0 -23 21q-4 12 -4 28q-2 23 -2 66z" />
<glyph unicode="&#xa4;" horiz-adv-x="837" d="M72 18q0 38 47.5 105t50.5 82q-3 8 -11.5 28t-11.5 33q-5 19 -7 48t-2 50.5t0.5 56t0.5 46.5q0 79 4 102q3 23 25 93t22 102q0 5 -46 70t-46 84q0 10 22 31.5t52 45.5t35 29q29 -22 46 -41.5t34 -44.5t35 -45q26 25 42.5 33t47.5 8q29 0 69 -6t43 -19q13 20 25.5 39 t20 30t13.5 21l9 15t4 8q27 -4 49.5 -9t38 -10.5t27.5 -10t18.5 -10t11 -9.5t6 -9t2 -7.5t-0.5 -6.5v-4q0 -38 -15.5 -74.5t-31 -58.5t-15.5 -25q32 -94 42.5 -192.5t1.5 -178t-24 -138t-34 -95.5q-7 -15 12 -41t41.5 -56t22.5 -50q0 -18 -11 -47q-22 -16 -45 -27t-41.5 -16 t-34.5 -6.5t-25 0.5t-11 6h-2q-19 32 -19 45q-6 13 -16 26q-53 -24 -111 -24q-37 0 -131 39q-26 -64 -63 -101q-20 -4 -29 -4q-22 0 -38.5 12.5t-23.5 14.5l3 -2q-5 3 -12.5 9t-12.5 9t-23 10t-24 14.5t-6 22.5zM340 582q0 -31 3.5 -78.5t11.5 -112t27.5 -109t45.5 -44.5 q31 0 52.5 74t21.5 120q0 176 -33 237q-23 40 -59 40q-16 0 -31 -9l2 2q-26 -21 -33.5 -48t-7.5 -72z" />
<glyph unicode="&#xa5;" horiz-adv-x="823" d="M33 1411q-3 34 73 45t155.5 4.5t103.5 -16.5q6 -3 9.5 -14t4.5 -28t1 -30.5t-0.5 -31.5t-0.5 -21q0 -37 -66 -41q95 -290 119 -383q54 185 105 410l-31 6q-12 3 -16.5 24.5t-5.5 48t-3 31.5q-3 40 2 64q18 0 163 2t155 2q9 0 15.5 -1t9.5 -5.5t5 -6t1.5 -9.5t-0.5 -10 t-2.5 -12.5t-2.5 -11.5v5q0 2 2 2l-2 -2v-5q-1 -9 2 -29t5.5 -39t2 -37t-11.5 -27.5t-32 -6.5q-32 4 -48 4q-3 -7 -7 -21.5t-7 -21.5l-123 -391q-5 -18 -26 -79.5t-38 -115t-20 -75.5q-6 -52 -6 -111.5t3 -133.5t3 -114v-30h5q21 0 31 -1t21 -7.5t11 -20.5q2 -38 -12 -133 q-2 -19 -13 -27t-21.5 -8.5t-30.5 2t-28 2.5q-82 -4 -120 -4q-6 0 -21.5 -1t-22 -0.5t-15.5 4t-12 13.5t-1 27q1 17 -5.5 62t-2.5 71q8 35 55 25q-3 57 -3.5 122.5t0.5 134t1 72.5q0 24 -24.5 105t-58.5 181.5t-40 119.5v-2q-82 273 -98 330q-22 -8 -48.5 -7.5t-31.5 21.5 q-5 22 -4.5 66t-1.5 65zM178 471q0 72 47 72q5 0 15.5 -3t15.5 -3q41 0 122 1t122 1q217 0 217 -25q4 -46 4 -63v-19q0 -51 -27 -51q-48 0 -102.5 1t-120 2.5t-102.5 2.5q-131 5 -164 10q-27 7 -27 74zM195 684q0 97 14 104h55q40 0 117 -3t117 -3q92 0 209 13h2 q20 0 20 -66q0 -63 -14 -94q-86 0 -257.5 4t-258.5 4q-4 0 -4 41zM379 1321v2v-2z" />
<glyph unicode="&#xa6;" horiz-adv-x="378" d="M70 1161q0 15 12 43v-2q3 7 8 12t13.5 9t15.5 7t19.5 4.5t19.5 2.5t21 1.5t19 0.5h18.5h14.5q51 0 54 -45q16 -213 16 -559q0 -7 -4 -19q-5 -3 -15.5 -6t-15.5 -6q-18 -6 -39 -6h-2h-39q-26 0 -51 14l-35 21q0 19 -2 33l-14 143q-4 42 -5.5 80t-1.5 59.5t0.5 64t0.5 66.5 q0 15 -4 41t-4 41zM92 498v8l29 18l29 13q4 0 6 2q9 4 47 4q45 0 82 -19q12 -4 20 -12q1 -9 -0.5 -29t-1.5 -26q0 -15 3 -46t3 -46q0 -65 -1 -196.5t-1 -197.5q0 -21 -12.5 -37.5t-30.5 -17.5l-94 -12q-25 -5 -47 10t-23 39q-2 18 -2 55q-1 55 -2.5 154.5t-2.5 181t-1 154.5 z" />
<glyph unicode="&#xa7;" horiz-adv-x="1069" d="M45 -84q-4 52 27 93t75 56.5t93.5 2t78.5 -59.5q11 -17 14.5 -37t4 -48t2.5 -42q4 -19 13 -23.5t28 -2.5q4 0 18.5 1t20 1.5t15.5 3.5t18 8q13 8 28.5 25.5t20.5 21.5q4 12 4 37q0 31 -17.5 83t-35.5 83h2q-41 70 -148.5 175.5t-146.5 164.5l2 -2q-71 99 -86 153v-2 q-21 64 -21 140q0 118 74 210t190 117q-12 17 -16 43v-2q-20 59 -20 141q0 136 95.5 235t231.5 99q89 0 154 -32q93 -44 168 -187q32 -66 35 -133q7 -65 -36 -97t-112 -32q-4 0 -12 -0.5t-13.5 -0.5t-12 1t-11.5 4l-41 19q-22 13 -29.5 30t-7.5 45q-1 18 3 50l5 40q1 3 4 11 t3 12t-2 14q-2 5 -10.5 16t-14.5 15q-17 12 -55 12q-60 0 -103 -48.5t-43 -108.5q0 -49 33 -104.5t78 -100.5l8 -8v2l6 -6l19 -19l10 -8q53 -50 85 -83t80.5 -89.5t76 -103t48.5 -107t21 -117.5q0 -123 -74 -226.5t-190 -123.5q37 -79 37 -158q0 -87 -36.5 -167 t-107.5 -133.5t-159 -53.5q-43 0 -93 15t-98 43.5t-87.5 64.5t-64 83t-26.5 95zM252 711q0 -90 121 -211v2l33 -33l102 -102q70 -21 88 -19q38 3 84 29q13 8 27 25t20 22q6 15 6 37q0 33 -17 83.5t-36 84.5h2q-25 43 -57 80.5t-86.5 89.5t-69.5 67l-4 4q-6 4 -19 4t-28.5 -2 t-20.5 -2q-60 0 -102.5 -48t-42.5 -111z" />
<glyph unicode="&#xa8;" horiz-adv-x="503" d="M45 1419q0 31 20.5 62t49.5 41h-2q12 6 26 6q31 0 55.5 -22t24.5 -52q0 -47 -27.5 -75.5t-74.5 -28.5q-33 0 -52.5 18.5t-19.5 50.5zM260 1436q0 37 28 62.5t66 25.5q35 0 62.5 -28.5t27.5 -63.5q0 -36 -27 -57t-65 -21t-65 22.5t-27 59.5z" />
<glyph unicode="&#xa9;" horiz-adv-x="1169" d="M55.5 924.5q-1.5 55.5 1.5 79.5v22q4 33 11.5 107.5t15 130.5t18.5 108q12 51 35 96l39 52q8 8 27 29t34 35t33 26q99 70 179 92q7 2 42 11t54 13q10 2 71 9q30 0 76 -4q52 -2 123 -35q3 -2 18.5 -11t19.5 -11.5t16.5 -10.5t18 -13t13.5 -13.5t14 -16.5l21 -23 q33 -19 57 -73q23 -52 29 -72q7 -13 17.5 -40t17.5 -40q6 -15 20 -78q21 -133 23 -151q4 -46 4 -66q0 -57 6 -88q6 -51 2 -155q-9 -125 -35 -240q-13 -83 -51 -152q-57 -118 -141 -170q-113 -70 -197 -79q-106 -14 -143 -9q-44 11 -76 13q-74 10 -160 65q-23 13 -61 51 q-58 62 -129 183q-21 43 -33 102q-3 10 -6 29t-6 30l-6 29q-1 24 -5 79.5t-5 79.5t-2.5 79.5zM211 934q2 -55 2 -168l6 -37q3 -22 16 -59.5t17 -51.5q2 -6 47 -104q35 -71 102 -104l21 -15q47 -28 67 -35.5t74 -19.5q16 -3 35 0q18 3 46.5 14.5t37.5 14.5q90 37 139 92 q54 54 76 121q24 61 35 180q4 78 4 112q2 31 2 89h-2v65q0 78 -8 141l-10 76q-11 73 -31 117q-31 55 -41 68l-39 45q-27 32 -59.5 48.5t-81.5 28.5q-73 19 -187 -14q-25 -6 -47 -18q-11 -9 -36 -27.5t-42 -32.5t-32 -30q-40 -50 -46 -68q-3 -4 -5 -15t-5 -16 q-25 -76 -35 -168l-16 -184q-4 -28 -4 -45zM287 928q-1 13 0.5 33t1.5 28q0 143 14 211q28 149 141 227q109 77 240 37q35 -6 57 -37q3 -4 12 -10t11 -8q10 -7 29 -31l24 -39l8 -16q1 -3 3 -5t3 -5q5 -25 5 -27q0 -20 -9 -29q-3 -11 -6 -14q-3 -10 -12 -16q-14 -17 -31 -27 q-20 -12 -33 -12q-21 -3 -30 0q-21 3 -33 18q-9 6 -20 33q-16 40 -41 72l-25 20q-14 4 -23 -8q-2 -2 -21.5 -16.5t-27.5 -28.5q-3 -4 -7 -13.5t-7 -13.5q-36 -74 -45 -153l-6 -37q-5 -37 -10 -164q-3 -68 16 -125q25 -70 55 -100q19 -25 49 -31q6 -3 16.5 -3t12.5 -1 q4 0 6 -1q1 -1 2 -1q13 -4 15 -2q9 3 18 18q4 7 7 15t6 19t5 17q1 4 4 13.5t4.5 15.5t5.5 13.5t9 13.5q12 12 27 18q3 2 26 8q13 2 41 -2q16 -3 27 -10q5 -4 7.5 -8t5.5 -10t5 -9q16 -48 17 -59q0 -82 -17 -113q-20 -35 -80 -79q-26 -20 -63 -33q-18 -6 -49 -9.5t-39 -5.5 q-10 -1 -45 3q-27 0 -47 14l-47 24q-5 3 -9.5 6t-7.5 5.5t-8 7.5l-6.5 6.5t-7 8t-6 7.5t-6.5 9l-7 8q-10 11 -18 23t-18 31.5t-15 27.5l-4 12q-40 62 -43 158q-6 129 -6 131z" />
<glyph unicode="&#xaa;" horiz-adv-x="542" d="M55 954q3 68 11 117q10 61 71 109l25 14q53 34 123 10l39 -16q3 4 5 8.5t2.5 7t-0.5 7.5t-1 6.5t-3 7t-3 6.5q-6 18 -13.5 25t-31.5 18q-12 -2 -29 -23q-12 -23 -41 -20l-49 6q-11 2 -23 10q-16 10 -10 29q32 106 111 135q71 28 120 16q56 -16 82 -63q24 -36 39 -115 q14 -65 4 -149q-13 -115 -10 -217q0 -15 1 -44t1 -44q0 -4 -1 -11.5t-1 -11.5q-7 -15 -12 -17q-3 -1 -10 -1q-31 -2 -86 -2q-19 0 -25 12l-12 24l-13 -6q-36 -33 -106 -25t-109 54q-33 41 -39 90q-6 24 -6 53zM166 985q3 -45 29 -78q13 -20 33.5 -24t39.5 8q45 20 54 67v33 q2 6 2.5 12.5t0 11.5t-3 12t-4 10.5t-5.5 12t-5 11.5q-12 34 -51 37q-10 0 -12 -2q-36 -12 -58 -43t-20 -68z" />
<glyph unicode="&#xab;" horiz-adv-x="811" d="M68 662q23 72 53 102l-2 -4q96 126 147 225q3 5 7.5 14l8 16t7.5 11q29 29 51 29q26 0 69.5 -27.5t43.5 -54.5q0 -3 -4 -23v-2q-22 -22 -37 -57l2 2q-46 -81 -133 -203h2l-2 -4v2q-1 -2 -4 -7.5t-3 -8.5q0 -17 111 -172q10 -14 47 -54.5t51 -72.5l-2 -25 q-8 -16 -19.5 -26t-33 -22.5t-29.5 -18.5l2 2q-11 -11 -24 -11q-15 0 -31 13h2q-11 3 -18 16h-2q-198 245 -260 361zM281 688v2v-2zM360 692q0 16 11.5 32t31.5 35t27 29v-2q27 44 94.5 124.5t81.5 115.5v-2q19 34 53 31q32 -10 71.5 -36t39.5 -48q0 -7 -5 -18t-15.5 -27 t-10.5 -17h2q-76 -119 -157 -237v-2q0 -4 13.5 -26t33 -52t20.5 -31v2q14 -26 49.5 -74t49.5 -71l-2 2q16 -20 16 -37q0 -27 -57 -54.5t-82 -27.5q-22 0 -54 37q-10 12 -27.5 38t-31.5 48.5t-34 55t-25 40.5q-58 88 -78 129q-15 21 -15 43z" />
<glyph unicode="&#xac;" horiz-adv-x="1150" d="M72 774q0 35 28 57q67 5 82 5h381q41 0 123 3t123 3q176 0 248 -23q0 -34 -4 -43l4 6q0 -28 -2 -83t-2 -83q0 -7 2.5 -44t1.5 -62t-6.5 -56t-22 -48t-43.5 -17h-19.5h-21.5t-19.5 1t-20.5 3t-17.5 5t-16.5 8.5t-11 13t-8.5 18t-2.5 23.5q0 25 -3 74t-3 73v35 q-7 0 -22.5 1t-22.5 1q-124 0 -183 -6h2q-11 -4 -51 -4q-1 0 -56 -1.5t-115.5 -2t-128.5 0.5t-117.5 6.5t-61.5 14.5q-14 14 -14 121zM844 643q1 0 2 -1t2 -1l-2 4q0 -2 -2 -2z" />
<glyph unicode="&#xad;" horiz-adv-x="722" d="M55 584v112q0 24 8 29q2 2 11 2l127 -4h387q34 -4 53 -10q3 0 8.5 -2.5t7.5 -3.5q7 -3 7 -21q4 -82 4 -121q0 -35 -15 -35q-25 0 -39 2q-11 0 -146.5 8.5t-168.5 12.5q-17 0 -93.5 1t-90.5 1q-13 0 -25 -4q-6 -2 -8.5 -2t-9.5 3t-9 3q-8 0 -8 29z" />
<glyph unicode="&#xae;" horiz-adv-x="1003" d="M55 1049q0 27 4 68t13 75q2 8 7.5 35t8.5 38t9.5 31.5t16 36t23.5 31.5q29 37 76 65t79 38.5t97 29.5q141 39 305 -14q161 -48 213 -240q8 -36 12 -78t6 -92.5t5 -79.5q23 -258 16 -448q-1 -16 -3 -53t-3.5 -58t-9 -51t-19.5 -53q-4 -7 -15 -26.5t-15 -25.5t-13.5 -20.5 t-16 -21t-17 -16.5t-22.5 -16.5t-26 -13.5q-30 -15 -71 -21.5t-104.5 -9t-73.5 -3.5q-29 0 -103.5 5t-109.5 15q-81 30 -117 64q-146 119 -146 387q-4 180 -4 270q0 23 -1 74t-1 78zM206 890.5q5 -138.5 5 -159.5q4 -78 4 -110q0 -72 6 -103q3 -16 7.5 -49t7.5 -49 q27 -94 104 -109q62 -9 203 4q9 1 37 2t47 3t48 6t49 13.5t40 23t31.5 36.5t13.5 52q9 103 -8.5 328t-18.5 257q-11 146 -43 211q-49 87 -96 107q-31 15 -73.5 18t-72.5 -1t-77 -13q-127 -28 -170 -101q-14 -24 -23.5 -60t-12.5 -63t-7 -77q-6 -28 -1 -166.5zM285 1137v20 q1 5 1 13.5t1 13.5v16q0 34 12 39q6 3 13.5 4t16 1t13.5 1h47v-2q20 4 33 4q118 14 188 -35q53 -38 82.5 -102t24.5 -127q-3 -84 -15 -141t-23 -74.5t-17 -13.5q20 -12 34 -33t21 -54t10 -53t5 -61.5t3 -48.5v-27q1 0 4 -1t4 -1h9q-2 -4 -2 -16q0 -5 -2.5 -16.5t-2.5 -16.5 q0 -14 -2 -14h-16h-10l-12 -4q-6 1 -14.5 -0.5t-10.5 -1.5q-6 -3 -16 -3q-4 0 -7 -1t-4 -1q-20 0 -26 -2q-13 0 -17 -2q-16 -3 -32 0q-13 0 -17 4t-4 25v25q0 14 4 18h14h9q-5 106 -17 147q-22 76 -84 60q-14 -49 -14 -197q18 -6 18 -10v-23v-22q0 -12 -4 -16 q-2 -4 -10 -2.5t-10 0.5q-35 -5 -41 -5q-12 0 -37 -1t-37 -1h-31q-3 0 -4.5 0.5t-1.5 2v3.5v3v47q0 14 6 14h9h12q-8 78 -11 225t1 236q1 25 1 69t1 79.5t4 68.5h-2q-13 -7 -19 -8q-24 -3 -28 -2zM485 829q10 0 18.5 2t20 7t13.5 6q19 13 26 65t-4.5 108t-40.5 77 q-7 0 -14.5 2t-14.5 2q2 -60 2 -85t-2.5 -88.5t-3.5 -95.5z" />
<glyph unicode="&#xaf;" horiz-adv-x="757" d="M35 1479v98q0 25 10.5 38t38.5 13q24 0 66.5 -2t62.5 -2q10 0 87.5 1.5t149 2.5t140 -0.5t82.5 -7.5h-2l2 -2q20 0 33 -11t17.5 -33.5t6 -37.5t0 -43t-1.5 -31q0 -15 -0.5 -22.5t-4 -17t-12 -13.5t-22.5 -4q-35 0 -49 2q-5 5 -202.5 12.5t-264.5 7.5q-15 0 -42 -3t-34 -3 q-8 0 -24 4h6q-26 11 -34.5 20.5t-8.5 33.5z" />
<glyph unicode="&#xb0;" horiz-adv-x="575" d="M68 1298q0 62 30 111v-2q24 43 76 69.5t107 26.5q81 0 148 -70.5t67 -152.5q0 -79 -70 -138t-152 -59q-16 0 -41 7v-3q-33 8 -67 31t-51 51q-47 58 -47 129zM242 1290q0 -10 8.5 -16t15.5 -6q6 0 12 2.5t13 7t12 6.5q0 14 -4 23.5t-8 12.5t-8 3q-9 0 -25 -9t-16 -24z" />
<glyph unicode="&#xb1;" d="M70 137v109q0 53 47 53q19 0 58.5 -2t60.5 -2q7 0 79.5 1t137 2t128.5 -1t78 -8h-4l4 -2q14 0 24 -7t15.5 -19.5t9 -26t4 -32.5t0.5 -31.5t-0.5 -29.5t-0.5 -22q0 -15 -0.5 -23t-4 -19t-12 -15.5t-22.5 -4.5q-29 0 -43 2q-4 4 -192 13.5t-242 9.5q-12 0 -37.5 -3 t-32.5 -3q-3 0 -23 4h7q-25 11 -32 20t-7 37zM72 692q0 23 7 40.5t21.5 27.5t28.5 16t37.5 7.5t38.5 2t41 -0.5t37 -1q-9 59 -9 113q0 58 23 88.5t80 30.5q53 0 92 -39q12 -135 6 -201q5 19 215 19q19 -42 19 -117q0 -90 -39 -96q-63 -11 -181 -11q5 -43 5 -159 q0 -22 -3 -35.5t-14 -19.5t-17.5 -8t-28 -3t-30.5 -2q-6 -1 -25.5 -4.5t-29.5 -3.5q-20 0 -32.5 17t-16.5 47.5t-4.5 55t1 59t1.5 40.5v14h-90q-72 0 -127 -8q0 24 -3 67t-3 64z" />
<glyph unicode="&#xb2;" horiz-adv-x="507" d="M58 715q2 45 5 61q4 25 60.5 114t93.5 138q80 100 90 160q0 3 1 8q2 28 5 59t-12 53.5t-49 18.5q-36 -17 -47 -47.5t-11.5 -54t-11.5 -25.5q-100 0 -106 33q-12 46 16 100q8 21 25.5 43.5t36.5 32.5q61 36 110 33q74 -3 127 -56q33 -36 45 -86q17 -60 17 -100 q-3 -101 -60 -186q-16 -24 -54 -71t-62.5 -85.5t-38.5 -81.5q35 -5 66.5 -2t64 -1t47.5 -19q3 -23 2.5 -39.5t-2.5 -41t-2 -32.5q-6 -6 -178 5t-177 16q-3 8 -1 53z" />
<glyph unicode="&#xb3;" horiz-adv-x="505" d="M55 1126q0 5 35 42t73.5 80t45.5 59q-19 6 -70.5 -7t-60.5 -8q-3 78 -15 138q0 5 96 15.5t115 10.5l91 4q3 0 16.5 1t23 0t15.5 -5q8 -41 -25 -78q-10 -14 -31.5 -39t-31.5 -39q-12 -13 -33.5 -48t-32.5 -48q8 8 90 -33q37 -37 58 -84q37 -81 37 -186q0 -49 -9 -98.5 t-30.5 -103.5t-67 -86.5t-108.5 -30.5q-28 1 -60 19.5t-53 43.5q-35 44 -45 107l-12 67q0 2 -3.5 16t-3 18.5t3.5 16.5q10 7 26 10t40.5 4t38.5 3q12 -10 17.5 -27t9 -43.5t8.5 -42.5q1 -3 3 -13t3.5 -14t4 -10t6.5 -8.5t9 -3.5q9 -1 30.5 9t27.5 16q17 25 28 69 q11 54 -16 129q-1 4 -6 23t-8.5 29t-9 25t-13 24t-16.5 14q-16 10 -92.5 18.5t-77.5 8.5q-21 13 -21 36z" />
<glyph unicode="&#xb4;" horiz-adv-x="374" d="M68 1241v8q0 38 25.5 120.5t47.5 113.5q54 4 78 4h9h13t14 -0.5t14.5 -2t11.5 -4t9 -6.5t3 -10q0 -27 -42.5 -138.5t-55.5 -115.5h-19q-57 0 -108 31z" />
<glyph unicode="&#xb5;" horiz-adv-x="886" d="M52.5 1035.5q0.5 15.5 9 22.5t24.5 5q42 -2 48.5 -2.5t50 2t48.5 2.5q13 1 69.5 8t86.5 4q41 -6 52.5 -23t13.5 -61q0 -3 1 -19t0.5 -27.5t-2.5 -25.5t-8 -22t-16 -8l-68 -6q-2 -48 -16 -223t-14 -271q0 -44 9.5 -81.5t38.5 -68t75 -30.5q36 0 65 20q82 54 82 496 q0 45 -4 147q-22 0 -38.5 2.5t-31.5 13.5t-14 30q1 10 -3 59t3 59q4 12 17.5 17.5t26 5.5t31 -2t23.5 -2t41.5 1.5t71.5 1.5t74 -1t63.5 -7.5t26.5 -17.5q1 -13 -1.5 -36.5t-2.5 -32.5q-1 -7 -1 -35t-3 -43q-2 -27 -78 -27q-2 -72 -13.5 -285t-11.5 -329v-35q38 0 62 8 q4 0 14.5 4.5t15 2t7.5 -14.5q9 -37 12 -76v-4v4q0 -4 1 -19t1 -27.5t-1 -27t-5.5 -23.5t-12.5 -11q-24 -8 -96 -15.5t-112 -3.5q-13 0 -41 -4q-13 -1 -20 8.5t-9 24.5q-2 4 -10 12q-56 -29 -99 -29q-83 0 -146 24.5t-102 65.5t-63.5 100.5t-33.5 122.5t-9 140q0 60 2.5 124 t7 153t6.5 124h-4h-21.5t-30.5 2.5t-19 8.5t-7 18.5t0.5 27t0.5 19.5t-5.5 25t-6.5 32.5t-1.5 28zM57 -287q0 11 13 11l24 6h15h14q14 0 14 12q0 7 1 22t1 23q0 12 -2 14q-2 13 2 39v29q0 5 4 33q0 3 1 5t1 5q-3 9 0 22q0 7 -4 19q0 3 -1 5t-1 5q0 4 1 10t1 9l6 36v9 q-4 4 -4.5 8.5t1 11.5t1.5 12q-2 16 -2 47q-1 0 -1 14l1 15q0 4 -0.5 10t-1 10t0.5 9t3 10q3 9 0 28t0 31q0 3 1 5.5t1 5.5q0 2 1.5 5.5t1.5 6.5t-3 6t-3.5 5.5t0.5 7t1 6.5q3 14 0 22q-5 3 -1.5 19.5t3.5 19.5v12q0 3 -2 4t-2 4q4 30 2 46q0 6 1.5 17t0.5 17q0 3 -2 8.5 t-2 8.5q3 6 3 37.5t4 38.5q29 -31 26 7q-2 36 -16 69l-1 -1q0 -2 1 -4q7 0 16.5 -1t16.5 -1h2q1 0 3 1t3 1q3 0 5 1t5 1h41q3 0 8 -1t8 -1q14 -9 17.5 -23t0 -27t-7 -24.5t-1 -17.5t15.5 -4v-6q3 -18 -2 -23v-4q-2 -6 -2 -31q0 -4 1 -11t1 -11q3 -9 2 -10q-3 -22 0 -37v-10 v-13q-2 -4 -2 -16q-2 -6 -2 -27q0 -4 1 -13t1 -13v-74q0 -2 -4 -18q4 -8 2 -15q0 -7 -2 -20.5t-2 -20.5q1 -4 1 -15.5t3 -19.5q3 -3 3 -7t-1.5 -9t-1.5 -8v-17q-1 -1 -1 -4t-1 -4v-39v-24q0 -25 2 -31v-4v-39q0 -1 -1 -2t-1 -2v-2q5 -4 3 -15.5t-1 -13.5q3 -17 -2 -31l4 -12 v-6q0 -5 -1 -16.5t-1 -16.5v-30q0 -13 -2 -15v-8q5 -8 2 -18q-3 -13 10 -13l53 4q19 0 13 -16q-1 -7 4 -41q0 -16 -2 -24q-6 -30 -39 -27h-37q-46 -4 -64 -4q-27 0 -41 2q-3 1 -9.5 3.5t-9 2.5t-9.5 -2q-4 -3 -8.5 -3.5t-11 0.5t-9.5 1q-3 1 -7 3.5t-5 2.5q-5 0 -14 -2 t-13 -2t-20 4q-4 0 -4 4q0 1 -1.5 4t-1.5 6q0 4 1 13t0.5 16t-3.5 14q-4 7 -4 39z" />
<glyph unicode="&#xb6;" horiz-adv-x="1021" d="M57 977q0 230 58 344l18 27q35 60 92.5 87.5t141.5 39.5q113 16 165 14q33 -3 96.5 -2t96.5 -2q34 -1 94.5 -12.5t81.5 -14.5q9 -2 22 -3t19.5 -3t9.5 -8l2.5 -12.5t-1.5 -11.5t-3 -13q-4 -51 -0.5 -163.5t0.5 -166.5l-16 -348q-4 -126 -4 -192q0 -135 2 -203 q4 -145 2 -221h14h15q4 0 4 -9v-81v-15q0 -6 -6 -6q-4 0 -11.5 1t-11.5 1q-25 0 -35 -2q-16 -2 -49 -2q-32 -4 -45 -4l-68 -4q-18 0 -32 -2h-35q-4 0 -15 -1t-18 -1q-10 -2 -35 -2q-4 0 -13 -1t-13 -1h-25q-30 0 -39 -4q0 4 -1 8l-1 4q-2 16 -2 49q0 7 -4 35q-2 4 -2 18h8h8 v49q-1 37 -4 126t-3 126.5t3 120.5q-9 1 -34.5 -2.5t-34.5 0.5q-15 3 -44 13.5t-45 13.5q-9 2 -41.5 9t-47 11.5t-37 14.5t-39.5 24q-68 60 -103 166.5t-35 210.5zM686.5 1116.5q1.5 -138.5 5.5 -340t4 -215.5q0 -21 -1.5 -60.5t-1.5 -71.5t3 -60q6 -59 2 -176q-2 0 -1 -47 l1 -46h11q5 -4 36 2q4 0 13.5 1t13.5 1q2 2 2 11q3 16 3.5 32.5t-0.5 39.5t-1 32q-1 37 -6 112t-6 113q-1 30 3.5 85t4.5 79q1 21 -0.5 95.5t2.5 97.5q17 192 -8 475q-8 2 -23 6.5t-28 7.5t-27 4q-3 -39 -1.5 -177.5z" />
<glyph unicode="&#xb7;" horiz-adv-x="348" d="M51 772q0 35 17 66v-2q17 26 46.5 41.5t59.5 15.5q49 0 88 -40.5t39 -90.5q0 -48 -40 -81.5t-89 -33.5q-5 0 -25 4v-2q-44 10 -67 47q-29 37 -29 76z" />
<glyph unicode="&#xb8;" horiz-adv-x="499" d="M55 -150q0 25 15.5 40.5t40.5 15.5q14 0 31 -1.5t23.5 -1t19.5 4.5t32 14q-19 7 -33.5 16.5t-23 18t-16 25.5t-11 27.5t-10.5 35.5q57 13 88 15t52 -1t85 2q0 -23 3 -35t7 -16.5t18 -15t27 -23.5q17 -13 28 -39.5t11 -50.5q0 -30 -20 -59l2 2q-46 -70 -133 -94h2 q-91 -31 -148 -31q-40 0 -52 13.5t-17 56.5q-1 13 -11 40t-10 41z" />
<glyph unicode="&#xb9;" horiz-adv-x="360" d="M55 1391q0 10 44 54.5t44 47.5q38 31 160 8q1 -80 1 -173t-0.5 -207.5t-0.5 -176.5q0 -18 -3.5 -116t1.5 -113q-5 -5 -35 -7t-58 -0.5t-28 5.5q0 10 0.5 87t1 169t0.5 185.5t-0.5 156t-1.5 61.5q-2 0 -27 -21.5t-32 -21.5q-2 0 -35 27q-2 2 -11 9t-14.5 13.5t-5.5 12.5z " />
<glyph unicode="&#xba;" horiz-adv-x="575" d="M68 1298q0 62 30 111v-2q24 43 76 69.5t107 26.5q81 0 148 -70.5t67 -152.5q0 -79 -70 -138t-152 -59q-16 0 -41 7v-3q-33 8 -67 31t-51 51q-47 58 -47 129zM244 1280q0 -20 12 -28.5t23 -8.5q7 0 16.5 4.5t20.5 12t16 10.5q-4 32 -13 48.5t-18 16.5q-13 0 -35 -15 t-22 -40z" />
<glyph unicode="&#xbb;" horiz-adv-x="815" d="M57 340q0 31 179 303q4 0 4 2q-11 15 -28 49t-30 51q-45 52 -63 84v-2q-7 8 -16.5 26t-16.5 26v-2q-2 4 -9.5 16t-11.5 21.5t-4 17.5q0 11 5.5 22.5t11.5 19.5t19 18.5t20 15t22 14t17 10.5q24 19 39 19q16 0 150 -179t134 -208q0 -11 -11 -37t-37.5 -72.5t-42 -73.5 t-52 -88t-41.5 -69q-10 -15 -20.5 -34t-12.5 -22l2 4q-17 -26 -53 -26q-7 0 -27 4l2 -2l-100 51l6 -2q-35 25 -35 43zM262 266v2v-2zM360 350q4 11 18.5 37t39 70t37.5 69q4 8 31.5 59t43.5 81h-2l-20 39q-8 13 -19 32t-12 21q-43 66 -53 86l-59 94q-1 4 -2 9t-2 7.5t-1 3.5 q0 37 48 62h2q6 4 17 13t18 14t18 9.5t22 4.5q22 0 39 -21q63 -98 207 -290q21 -27 21 -70q0 -33 -39.5 -107t-77.5 -131v2q-38 -77 -90 -159q-9 -19 -39 -19q-13 0 -21 4l2 -2q-3 2 -21 11.5t-30 16.5t-29 17t-28.5 19.5t-18.5 17.5z" />
<glyph unicode="&#xbc;" horiz-adv-x="989" d="M55 1391q0 10 44 54.5t44 47.5q38 31 160 8q1 -80 1 -173t-0.5 -207.5t-0.5 -176.5q0 -18 -3.5 -116t1.5 -113q-5 -5 -35 -7t-58 -0.5t-28 5.5q0 10 0.5 87t1 169t0.5 185.5t-0.5 156t-1.5 61.5q-2 0 -27 -21.5t-32 -21.5q-2 0 -35 27q-2 2 -11 9t-14.5 13.5t-5.5 12.5z M92 0q13 46 130.5 346t229.5 578l111 278q0 10 55.5 138.5t73.5 134.5q18 -6 32 -6.5t26 -2.5q11 -1 32 -9.5t33 -8.5q10 -8 12 -21.5t-0.5 -23.5t-10 -31t-9.5 -29q-7 -38 -263.5 -649.5t-293.5 -685.5q-84 -8 -158 -8zM451 244q4 4 6 4q-1 1 31.5 70t41.5 85 q8 15 57.5 126.5t95 207.5t54.5 99l13 2q12 1 26 1.5t29 0t25 -4.5t10 -12q0 -4 1.5 -92t3 -191.5t1.5 -144.5q10 -4 38.5 -1.5t33.5 -6.5q0 -4 3 -22l6.5 -39t5.5 -42.5t-0.5 -36t-10.5 -16.5q-8 -1 -21.5 -1t-26 -1t-26.5 -4q-2 -21 -1 -61t3.5 -79.5t3.5 -39.5t-1 -5.5 t-5 -12.5t-4 -9q-6 -10 -73 -17t-69 13v2q-2 11 -0.5 48t3.5 95t2 70q0 6 -62.5 7t-127 2t-66.5 6zM674 377q17 -12 45 -2q1 16 3 48.5t3 58.5t0 48q-13 -27 -30 -83.5t-21 -69.5z" />
<glyph unicode="&#xbd;" horiz-adv-x="1015" d="M55 1391q0 10 44 54.5t44 47.5q38 31 160 8q1 -80 1 -173t-0.5 -207.5t-0.5 -176.5q0 -18 -3.5 -116t1.5 -113q-5 -5 -35 -7t-58 -0.5t-28 5.5q0 10 0.5 87t1 169t0.5 185.5t-0.5 156t-1.5 61.5q-2 0 -27 -21.5t-32 -21.5q-2 0 -35 27q-2 2 -11 9t-14.5 13.5t-5.5 12.5z M92 0q13 46 130.5 346t229.5 578l111 278q0 10 55.5 138.5t73.5 134.5q18 -6 32 -6.5t26 -2.5q11 -1 32 -9.5t33 -8.5q10 -8 12 -21.5t-0.5 -23.5t-10 -31t-9.5 -29q-7 -38 -263.5 -649.5t-293.5 -685.5q-84 -8 -158 -8zM563.5 72.5q2.5 43.5 7.5 62.5q4 25 60.5 114 t93.5 138q74 93 90 160q0 3 1 8q2 28 5 59t-12 53.5t-49 18.5q-28 -13 -42 -35.5t-14.5 -42t-3 -34.5t-10.5 -15q-102 0 -108 33q-4 20 0.5 49.5t15.5 48.5q32 62 61 78q57 33 111 33q77 -3 127 -56q28 -30 47 -86q17 -70 17 -100q-3 -103 -62 -186q-17 -27 -52.5 -72.5 t-61.5 -85t-40 -80.5q33 -5 65 -2t65.5 -1t48.5 -19q3 -23 2.5 -39.5t-2.5 -41t-2 -32.5q-7 -7 -179.5 4t-177.5 16q-4 9 -1.5 52.5z" />
<glyph unicode="&#xbe;" horiz-adv-x="1048" d="M55 1126q0 5 35 42t73.5 80t45.5 59q-19 6 -70.5 -7t-60.5 -8q-3 78 -15 138q0 5 96 15.5t115 10.5l91 4q3 0 16.5 1t23 0t15.5 -5q8 -41 -25 -78q-10 -14 -31.5 -39t-31.5 -39q-12 -13 -33.5 -48t-32.5 -48q10 4 42 -10t48 -23q37 -37 58 -84q37 -81 37 -186 q0 -49 -9 -98.5t-30.5 -103.5t-67 -86.5t-108.5 -30.5q-28 1 -60 19.5t-53 43.5q-35 44 -45 107l-12 67q0 2 -3.5 16t-3 18.5t3.5 16.5q10 7 26 10t40.5 4t38.5 3q12 -10 17.5 -27t9 -43.5t8.5 -42.5q1 -3 3 -13t3.5 -14t4 -10t6.5 -8.5t9 -3.5q9 -1 30.5 9t27.5 16 q17 25 28 69q11 54 -16 129q-1 4 -6 23t-8.5 29t-9 25t-13 24t-16.5 14q-16 10 -92.5 18.5t-77.5 8.5q-21 13 -21 36zM205 0q13 46 130.5 346t228.5 578l112 278q0 10 55.5 138.5t73.5 134.5q18 -6 31.5 -6.5t25.5 -2.5q11 -1 32.5 -9.5t33.5 -8.5q10 -8 12 -21.5 t-0.5 -23.5t-10 -31t-9.5 -29q-7 -38 -264 -649.5t-294 -685.5q-84 -8 -157 -8zM510 244q4 4 6 4q-1 1 32 70t42 85q8 15 57.5 126.5t95 207.5t54.5 99l19 2q18 1 34 1.5t31.5 -3.5t17.5 -13q0 -4 1.5 -92t3 -191.5t1.5 -144.5q10 -4 38.5 -1.5t33.5 -6.5q0 -4 3 -22 l6.5 -39t5.5 -42.5t-0.5 -36t-10.5 -16.5q-8 -1 -21.5 -1t-26 -1t-26.5 -4q-4 -29 0 -102l4 -78q1 0 -0.5 -4.5l-4.5 -13.5l-3 -9q-6 -10 -72.5 -17t-68.5 13v2q-2 0 -0.5 48t3.5 95t-1 70q0 6 -62 7t-126 2t-66 6zM733 377q17 -12 45 -2q5 126 4 155q-13 -27 -28 -82 t-21 -71z" />
<glyph unicode="&#xbf;" horiz-adv-x="710" d="M-88 -373q0 169 51 281t174 231q3 3 15.5 15t16.5 16.5t14 15.5t15 18t11 17t10 19t4 41q0 77 -8 110q0 3 -1 8.5t-1 8.5q0 39 25 52t69 13q86 0 118 -23.5t32 -109.5q0 -212 -236 -428q-50 -47 -76 -92.5t-26 -106.5q0 -34 8 -73.5t24 -78t45 -64t66 -25.5q33 0 69 18 t36 47q0 14 -5.5 25t-20.5 27.5t-17 19.5q-25 36 -16 84t42 80q40 33 89 24.5t93 -43t58 -73.5q18 -46 -4 -148q-10 -69 -58 -137q-46 -66 -113.5 -106t-142.5 -40q-149 0 -254.5 114.5t-105.5 262.5zM221 612q0 41 32 72t73 31q52 0 80 -47h-3q15 -21 15 -43 q0 -28 -14.5 -54.5t-38.5 -38.5h2q-24 -18 -58 -18q-36 0 -62 30t-26 68z" />
<glyph unicode="&#xc0;" horiz-adv-x="948" d="M32.5 145q0.5 4 2.5 23q3 10 10.5 11.5t19 -1.5t15.5 -2q28 4 39 4q11 64 37 133v-2q20 57 30 119l99 500q7 32 22.5 110t30 144t29.5 121q-50 3 -84 -5q-9 -1 -15.5 1t-10 8t-5.5 12.5t-2.5 15.5t-0.5 16t0.5 17t0.5 14v25.5t0.5 31t7 24.5t18.5 18q33 5 81 3.5 t113.5 -5.5t68.5 -4q18 0 32 2q11 -20 21 -57.5t23.5 -118t28.5 -174t45 -271.5t63 -364v2q60 -271 69 -328q24 3 40.5 2.5t26.5 -12.5t13 -39v-2q0 -4 1 -21t0.5 -30.5t-1.5 -30t-5.5 -27.5t-12.5 -16q-16 -3 -36.5 -2.5t-55.5 2.5t-43 2q-16 1 -73 -0.5t-73 2.5 q-4 1 -31.5 -1t-31.5 3q-13 8 -13 51q-6 16 -2.5 64t17.5 59q21 12 55 8q-29 128 -39 215q-66 4 -96 4q-62 0 -80 -4q-13 -26 -53 -209q29 -11 43 -6q9 3 16 3t11.5 -2.5t8 -5t6 -9t3.5 -10.5t1.5 -12.5t0.5 -13v-14v-12.5v-20q1 -19 0.5 -30t-2.5 -27t-8.5 -24.5 t-16.5 -8.5q-31 1 -83 -1.5t-72 -2.5q-73 8 -164 -2q-8 -1 -14.5 2.5t-10.5 12t-6 16.5t-3 22.5t-1 21.5v21.5v15.5q0 4 -2.5 22.5t-2 22.5zM295 1759q0 19 14.5 33t36.5 21t42.5 10.5t37.5 3.5q10 0 18.5 -2t14.5 -8t11 -10.5t8.5 -14t6 -15t4.5 -18t2.5 -17t2.5 -18.5 t2 -16q1 -9 4.5 -34.5t3.5 -43.5q0 -16 -2 -22v2q-11 -49 -56 -49q-30 0 -49 19.5t-37 59.5t-24 50l2 -2l-10 14v-2q-2 3 -8.5 10.5t-9.5 12t-7 11t-6 12.5t-2 13zM422 590q18 0 52.5 3t51.5 3q-1 15 -4.5 75t-7.5 98t-10 75q-4 46 -12 69q0 3 -1.5 6.5t-5.5 2.5z" />
<glyph unicode="&#xc1;" horiz-adv-x="913" d="M32.5 145q0.5 4 2.5 23q3 10 10.5 11.5t19 -1.5t15.5 -2q28 4 39 4q11 64 37 133v-2q20 57 30 119l99 500q7 32 22.5 110t30 144t29.5 121q-50 3 -84 -5q-9 -1 -15.5 1t-10 8t-5.5 12.5t-2.5 15.5t-0.5 16t0.5 17t0.5 14v25.5t0.5 31t7 24.5t18.5 18q33 5 81 3.5 t113.5 -5.5t68.5 -4q18 0 32 2q11 -20 21 -57.5t23.5 -118t28.5 -174t45 -271.5t63 -364v2q60 -271 69 -328q24 3 40.5 2.5t26.5 -12.5t13 -39v-2q0 -4 1 -21t0.5 -30.5t-1.5 -30t-5.5 -27.5t-12.5 -16q-16 -3 -36.5 -2.5t-55.5 2.5t-43 2q-16 1 -73 -0.5t-73 2.5 q-4 1 -31.5 -1t-31.5 3q-13 8 -13 51q-6 16 -2.5 64t17.5 59q21 12 55 8q-29 128 -39 215q-66 4 -96 4q-62 0 -80 -4q-13 -26 -53 -209q29 -11 43 -6q9 3 16 3t11.5 -2.5t8 -5t6 -9t3.5 -10.5t1.5 -12.5t0.5 -13v-14v-12.5v-20q1 -19 0.5 -30t-2.5 -27t-8.5 -24.5 t-16.5 -8.5q-31 1 -83 -1.5t-72 -2.5q-73 8 -164 -2q-8 -1 -14.5 2.5t-10.5 12t-6 16.5t-3 22.5t-1 21.5v21.5v15.5q0 4 -2.5 22.5t-2 22.5zM410 1622v8q0 38 25.5 120.5t47.5 113.5q54 4 78 4h9h13t14 -0.5t14.5 -2t11.5 -4t9 -6.5t3 -10q0 -27 -42.5 -138.5t-55.5 -115.5 h-19q-57 0 -108 31zM422 590q18 0 52.5 3t51.5 3q-1 15 -4.5 75t-7.5 98t-10 75q-4 46 -12 69q0 3 -1.5 6.5t-5.5 2.5z" />
<glyph unicode="&#xc2;" horiz-adv-x="942" d="M32.5 145q0.5 4 2.5 23q3 10 10.5 11.5t19 -1.5t15.5 -2q28 4 39 4q11 64 37 133v-2q20 57 30 119l99 500q7 32 22.5 110t30 144t29.5 121q-50 3 -84 -5q-9 -1 -15.5 1t-10 8t-5.5 12.5t-2.5 15.5t-0.5 16t0.5 17t0.5 14v25.5t0.5 31t7 24.5t18.5 18q33 5 81 3.5 t113.5 -5.5t68.5 -4q18 0 32 2q11 -20 21 -57.5t23.5 -118t28.5 -174t45 -271.5t63 -364v2q60 -271 69 -328q24 3 40.5 2.5t26.5 -12.5t13 -39v-2q0 -4 1 -21t0.5 -30.5t-1.5 -30t-5.5 -27.5t-12.5 -16q-16 -3 -36.5 -2.5t-55.5 2.5t-43 2q-16 1 -73 -0.5t-73 2.5 q-4 1 -31.5 -1t-31.5 3q-13 8 -13 51q-6 16 -2.5 64t17.5 59q21 12 55 8q-29 128 -39 215q-66 4 -96 4q-62 0 -80 -4q-13 -26 -53 -209q29 -11 43 -6q9 3 16 3t11.5 -2.5t8 -5t6 -9t3.5 -10.5t1.5 -12.5t0.5 -13v-14v-12.5v-20q1 -19 0.5 -30t-2.5 -27t-8.5 -24.5 t-16.5 -8.5q-31 1 -83 -1.5t-72 -2.5q-73 8 -164 -2q-8 -1 -14.5 2.5t-10.5 12t-6 16.5t-3 22.5t-1 21.5v21.5v15.5q0 4 -2.5 22.5t-2 22.5zM160 1657q0 29 88 112t137 119q41 29 61 29q22 0 37 -21q85 -97 217 -188l-2 2q41 -25 41 -57q0 -19 -52.5 -67t-76.5 -48 q-16 0 -28 12l2 -2q-11 8 -45 38.5t-63 56.5t-30 26q-19 -16 -39.5 -33t-32.5 -27.5t-26 -22t-21.5 -17.5t-16 -12.5t-13 -9t-10 -5t-9.5 -3.5t-8 -1q-10 0 -27.5 14.5t-40.5 40.5t-24 27h2q-3 5 -8.5 12t-8.5 13t-3 12zM422 590q18 0 52.5 3t51.5 3q-1 15 -4.5 75t-7.5 98 t-10 75q-4 46 -12 69q0 3 -1.5 6.5t-5.5 2.5z" />
<glyph unicode="&#xc3;" horiz-adv-x="946" d="M32.5 145q0.5 4 2.5 23q3 10 10.5 11.5t19 -1.5t15.5 -2q28 4 39 4q11 64 37 133v-2q20 57 30 119l99 500q7 32 22.5 110t30 144t29.5 121q-50 3 -84 -5q-9 -1 -15.5 1t-10 8t-5.5 12.5t-2.5 15.5t-0.5 16t0.5 17t0.5 14v25.5t0.5 31t7 24.5t18.5 18q33 5 81 3.5 t113.5 -5.5t68.5 -4q18 0 32 2q11 -20 21 -57.5t23.5 -118t28.5 -174t45 -271.5t63 -364v2q60 -271 69 -328q24 3 40.5 2.5t26.5 -12.5t13 -39v-2q0 -4 1 -21t0.5 -30.5t-1.5 -30t-5.5 -27.5t-12.5 -16q-16 -3 -36.5 -2.5t-55.5 2.5t-43 2q-16 1 -73 -0.5t-73 2.5 q-4 1 -31.5 -1t-31.5 3q-13 8 -13 51q-6 16 -2.5 64t17.5 59q21 12 55 8q-29 128 -39 215q-66 4 -96 4q-62 0 -80 -4q-13 -26 -53 -209q29 -11 43 -6q9 3 16 3t11.5 -2.5t8 -5t6 -9t3.5 -10.5t1.5 -12.5t0.5 -13v-14v-12.5v-20q1 -19 0.5 -30t-2.5 -27t-8.5 -24.5 t-16.5 -8.5q-31 1 -83 -1.5t-72 -2.5q-73 8 -164 -2q-8 -1 -14.5 2.5t-10.5 12t-6 16.5t-3 22.5t-1 21.5v21.5v15.5q0 4 -2.5 22.5t-2 22.5zM160 1634q0 47 59 87t109 40q54 0 130 -39t101 -39q27 0 56 29t47 29q23 0 55.5 -48t32.5 -73q0 -41 -64 -77t-111 -36 q-39 0 -92 17q-11 6 -32 16t-37.5 19.5t-30.5 19.5l2 -2q-23 10 -35 10q-25 0 -41.5 -7.5t-23 -16t-17.5 -16t-26 -7.5q-28 0 -55 33.5t-27 60.5zM422 590q18 0 52.5 3t51.5 3q-1 15 -4.5 75t-7.5 98t-10 75q-4 46 -12 69q0 3 -1.5 6.5t-5.5 2.5z" />
<glyph unicode="&#xc4;" horiz-adv-x="925" d="M32.5 145q0.5 4 2.5 23q3 10 10.5 11.5t19 -1.5t15.5 -2q28 4 39 4q11 64 37 133v-2q20 57 30 119l99 500q7 32 22.5 110t30 144t29.5 121q-50 3 -84 -5q-9 -1 -15.5 1t-10 8t-5.5 12.5t-2.5 15.5t-0.5 16t0.5 17t0.5 14v25.5t0.5 31t7 24.5t18.5 18q33 5 81 3.5 t113.5 -5.5t68.5 -4q18 0 32 2q11 -20 21 -57.5t23.5 -118t28.5 -174t45 -271.5t63 -364v2q60 -271 69 -328q24 3 40.5 2.5t26.5 -12.5t13 -39v-2q0 -4 1 -21t0.5 -30.5t-1.5 -30t-5.5 -27.5t-12.5 -16q-16 -3 -36.5 -2.5t-55.5 2.5t-43 2q-16 1 -73 -0.5t-73 2.5 q-4 1 -31.5 -1t-31.5 3q-13 8 -13 51q-6 16 -2.5 64t17.5 59q21 12 55 8q-29 128 -39 215q-66 4 -96 4q-62 0 -80 -4q-13 -26 -53 -209q29 -11 43 -6q9 3 16 3t11.5 -2.5t8 -5t6 -9t3.5 -10.5t1.5 -12.5t0.5 -13v-14v-12.5v-20q1 -19 0.5 -30t-2.5 -27t-8.5 -24.5 t-16.5 -8.5q-31 1 -83 -1.5t-72 -2.5q-73 8 -164 -2q-8 -1 -14.5 2.5t-10.5 12t-6 16.5t-3 22.5t-1 21.5v21.5v15.5q0 4 -2.5 22.5t-2 22.5zM268 1718q0 31 20.5 62t49.5 41h-2q12 6 26 6q31 0 55.5 -22t24.5 -52q0 -47 -27.5 -75.5t-74.5 -28.5q-33 0 -52.5 18.5 t-19.5 50.5zM422 590q18 0 52.5 3t51.5 3q-1 15 -4.5 75t-7.5 98t-10 75q-4 46 -12 69q0 3 -1.5 6.5t-5.5 2.5zM483 1735q0 37 28.5 62.5t66.5 25.5q35 0 62.5 -28.5t27.5 -63.5q0 -36 -27.5 -57t-65.5 -21t-65 22.5t-27 59.5z" />
<glyph unicode="&#xc5;" horiz-adv-x="958" d="M30.5 145q0.5 4 2.5 23q3 10 10.5 11.5t19 -1.5t15.5 -2q28 4 39 4q11 64 37 133v-2q20 57 30 119l99 500q7 32 22.5 110t30 144t29.5 121q6 13 18 47.5t21.5 53t27 41t43.5 30t62 0.5q9 -1 32 2q11 -20 21 -57.5t23.5 -118t28.5 -174t45 -271.5t63 -364v2 q60 -271 69 -328q24 3 40.5 2.5t26.5 -12.5t13 -39v-2q0 -4 1 -21t0.5 -30.5t-1.5 -30t-5.5 -27.5t-12.5 -16q-16 -3 -36.5 -2.5t-56 2.5t-43.5 2q-16 1 -72.5 -0.5t-72.5 2.5q-4 1 -31.5 -1t-31.5 3q-13 8 -13 51q-6 16 -2.5 64t17.5 59q21 12 55 8q-29 128 -39 215 q-66 4 -96 4q-62 0 -80 -4q-13 -26 -53 -209q29 -11 43 -6q9 3 16 3t11.5 -2.5t8 -5t6 -9t3.5 -10.5t1.5 -12.5t0.5 -13v-14v-12.5v-20q1 -19 0.5 -30t-2.5 -27t-8.5 -24.5t-16.5 -8.5q-31 1 -83.5 -1.5t-72.5 -2.5q-72 8 -163 -2q-8 -1 -14.5 2.5t-10.5 12t-6 16.5t-3 22.5 t-1 21.5v21.5v15.5q0 4 -2.5 22.5t-2 22.5zM252 1511q0 24 8 43l4 27q10 66 70 108t135 42q95 0 156 -59.5t61 -147.5q0 -81 -53 -146v2q-64 -80 -160 -80q-89 0 -155 65t-66 146zM418 1534l6 -51q11 -8 21.5 -10t16 -0.5t15 6.5t10.5 6q23 15 26.5 30.5t-1.5 23t-18 20.5 l-10 1q-11 1 -23 1t-25 -6.5t-18 -20.5zM420 590q18 0 52 3t52 3q-1 15 -4.5 75t-7.5 98t-10 75q-4 42 -13 69v4t-1.5 4t-4.5 1z" />
<glyph unicode="&#xc6;" horiz-adv-x="1316" d="M3 14.5q-4 19.5 1.5 55t5.5 39.5q1 7 1 20.5t1.5 24t5.5 20.5q3 10 9.5 11.5t17.5 -1.5t16 -2q28 4 37 4q22 56 58 131v-2q35 75 49 115l174 490q75 223 139 366q-53 3 -84 -4q-20 -3 -27 12t-4.5 34t9.5 36q1 4 4 25t5.5 30.5t11 22.5t22.5 18q3 1 8 1.5t12.5 1 t13.5 1.5q12 4 46 4l106 -8q71 -4 209 6t205 7q12 1 57 -5q7 -1 33 -2t43 -6.5t22 -21.5q8 -37 -11 -115t-13 -117q4 -31 -8.5 -42t-49.5 -13h-6q-2 0 -26 -0.5t-35.5 0t-28.5 4.5t-26 12q-6 11 -6 16.5t4.5 18.5t5.5 17v24q-148 -4 -222 -10q0 -38 -2.5 -78t-7 -94.5 t-6.5 -77.5l4 -190q162 18 211 18q12 0 25.5 -1t29.5 -2.5t25 -2.5q8 -21 22.5 -81.5t14.5 -80.5q0 -22 -14 -33q-37 -20 -310 -20q0 -61 2 -96q7 -64 19 -240q106 -12 252 -12q0 3 -1 8t-1 8q-1 7 -4 20t-4.5 20.5t-1 17t4 14.5t12.5 8.5t23 3.5q20 1 66 14.5t72 10.5 q17 -2 33 -53.5t24 -113.5t3.5 -115t-24.5 -58q-27 -2 -81 -2q-43 -8 -303 -10t-287 -11q-41 -9 -76 0q-2 0 -14 4q-4 3 -6 7t-2 10v10t1.5 11t1.5 9v2v9l-16 77q-3 35 0 62l86 10l14 4q-10 115 -2 178q-66 4 -94 4q-63 0 -84 -4q-17 -32 -86 -204q3 -1 8.5 -3.5t8.5 -3.5 t7.5 -2t9 -0.5t9.5 2.5q14 6 22.5 3t12.5 -6.5t5 -14t0 -18t-2 -19.5t-1 -18q-1 -5 -4 -27t-6.5 -38t-12 -30t-20.5 -14q-31 1 -84.5 -1.5t-73.5 -2.5q-71 8 -159 -2q-20 -3 -24 16.5zM465 588q16 0 51 3t53 3l-6 272z" />
<glyph unicode="&#xc7;" horiz-adv-x="784" d="M33 606q0 95 5 189t19 210t44.5 217t74.5 164q44 62 113.5 98t144.5 36q38 0 70 -11t50.5 -23t53.5 -40q101 -71 131 -148q13 -53 11 -71q0 -69 -58 -121q-38 -38 -98 -41.5t-96 39.5q-8 8 -10.5 36.5t-4.5 33.5q-15 44 -28 65q-46 65 -97 35q-32 -19 -51 -59.5 t-23.5 -71.5t-8.5 -80q-1 -10 -1 -14q-4 -24 -4 -69v-56l-6 -160q-1 -31 -4.5 -133.5t-3.5 -157.5q0 -206 94 -223q21 -3 33 9.5t18 32t11.5 40t19.5 36t37 17.5q85 5 155.5 -57t39.5 -148q-24 -70 -100.5 -117t-153.5 -47q-87 0 -155 39t-109 99t-67.5 141t-36 157 t-9.5 154zM248 -150q0 25 15 40.5t40 15.5q13 0 26.5 -1t20 -1t15.5 1t19 5t26 12q-24 8 -39.5 19t-26 28.5t-16 31.5t-13.5 44q57 13 88 15t52.5 -1t85.5 2q0 -23 3 -35t7 -16.5t18 -15t27 -23.5q17 -13 28 -39.5t11 -50.5q0 -29 -21 -59l2 2q-46 -70 -133 -94h2 q-91 -31 -147 -31q-40 0 -52.5 13.5t-17.5 56.5q-1 13 -10.5 40t-9.5 41z" />
<glyph unicode="&#xc8;" horiz-adv-x="886" d="M34.5 1425.5q4.5 37.5 4.5 38.5q0 42 12.5 55t50.5 9l105 -8q68 -4 202.5 5.5t198.5 6.5q16 2 56 -4q6 -1 33 -2t43 -7.5t20 -23.5q8 -37 -11 -119t-14 -121q4 -33 -8 -44t-47 -13h-6h6h-15.5h-22t-23.5 0.5t-24.5 2.5t-19 5t-14.5 8q-6 11 -6 17t4.5 20t5.5 17v26 q-106 -3 -215 -12q0 -70 -11 -210.5t-11 -213.5q0 -19 2 -33q171 19 213 19q12 0 25 -1t28.5 -2.5t24.5 -2.5q8 -22 21 -84t13 -84q0 -24 -14 -35q-35 -21 -305 -21v-20q0 -31 4.5 -87.5t5.5 -78.5q0 -14 0.5 -40t1 -42t3 -38.5t7.5 -41.5q84 -14 248 -14q0 3 -1 8t-1 8 q-1 7 -4.5 24.5t-4 25t1.5 18.5t11.5 15.5t26.5 4.5q20 1 63.5 14.5t69.5 10.5q15 0 31 -54t24.5 -119t4 -120.5t-24.5 -58.5q-25 -2 -80 -2q-113 -9 -375 -13l-168 -6q-8 0 -35 -4t-48 -3t-31 11q-7 10 -7 56l-16 82q-3 34 0 63q15 3 41.5 5t42.5 5l16 4q-4 98 -4 133 q0 124 -4 369.5t-4 368.5q0 41 1 121t1 120l-74 4q-19 3 -24 24t-0.5 58.5zM260 1800q0 19 14.5 33t36.5 21t42.5 10.5t37.5 3.5q10 0 18.5 -2t14.5 -8t11 -10.5t8.5 -14t6 -15t4.5 -18t2.5 -17t2.5 -18.5t2 -16q1 -9 4.5 -34.5t3.5 -43.5q0 -16 -2 -22v2q-11 -49 -55 -49 q-30 0 -49 19.5t-37.5 60t-24.5 49.5l2 -2l-10 14v-2q-2 3 -8.5 10.5t-9.5 12t-7 11t-6 12.5t-2 13z" />
<glyph unicode="&#xc9;" horiz-adv-x="845" d="M34.5 1425.5q4.5 37.5 4.5 38.5q0 42 12.5 55t50.5 9l105 -8q68 -4 202.5 5.5t198.5 6.5q16 2 56 -4q6 -1 33 -2t43 -7.5t20 -23.5q8 -37 -11 -119t-14 -121q4 -33 -8 -44t-47 -13h-6h6h-15.5h-22t-23.5 0.5t-24.5 2.5t-19 5t-14.5 8q-6 11 -6 17t4.5 20t5.5 17v26 q-106 -3 -215 -12q0 -70 -11 -210.5t-11 -213.5q0 -19 2 -33q171 19 213 19q12 0 25 -1t28.5 -2.5t24.5 -2.5q8 -22 21 -84t13 -84q0 -24 -14 -35q-35 -21 -305 -21v-20q0 -31 4.5 -87.5t5.5 -78.5q0 -14 0.5 -40t1 -42t3 -38.5t7.5 -41.5q84 -14 248 -14q0 3 -1 8t-1 8 q-1 7 -4.5 24.5t-4 25t1.5 18.5t11.5 15.5t26.5 4.5q20 1 63.5 14.5t69.5 10.5q15 0 31 -54t24.5 -119t4 -120.5t-24.5 -58.5q-25 -2 -80 -2q-113 -9 -375 -13l-168 -6q-8 0 -35 -4t-48 -3t-31 11q-7 10 -7 56l-16 82q-3 34 0 63q15 3 41.5 5t42.5 5l16 4q-4 98 -4 133 q0 124 -4 369.5t-4 368.5q0 41 1 121t1 120l-74 4q-19 3 -24 24t-0.5 58.5zM358 1597v9q0 38 26 120t48 113q54 4 78 4h8.5h13t14 -0.5t14.5 -1.5t12 -3.5t9 -6.5t3 -10q0 -27 -43 -138.5t-56 -115.5h-18q-59 0 -109 30z" />
<glyph unicode="&#xca;" horiz-adv-x="876" d="M34.5 1425.5q4.5 37.5 4.5 38.5q0 42 12.5 55t50.5 9l105 -8q68 -4 202.5 5.5t198.5 6.5q16 2 56 -4q6 -1 33 -2t43 -7.5t20 -23.5q8 -37 -11 -119t-14 -121q4 -33 -8 -44t-47 -13h-6h6h-15.5h-22t-23.5 0.5t-24.5 2.5t-19 5t-14.5 8q-6 11 -6 17t4.5 20t5.5 17v26 q-106 -3 -215 -12q0 -70 -11 -210.5t-11 -213.5q0 -19 2 -33q171 19 213 19q12 0 25 -1t28.5 -2.5t24.5 -2.5q8 -22 21 -84t13 -84q0 -24 -14 -35q-35 -21 -305 -21v-20q0 -31 4.5 -87.5t5.5 -78.5q0 -14 0.5 -40t1 -42t3 -38.5t7.5 -41.5q84 -14 248 -14q0 3 -1 8t-1 8 q-1 7 -4.5 24.5t-4 25t1.5 18.5t11.5 15.5t26.5 4.5q20 1 63.5 14.5t69.5 10.5q15 0 31 -54t24.5 -119t4 -120.5t-24.5 -58.5q-25 -2 -80 -2q-113 -9 -375 -13l-168 -6q-8 0 -35 -4t-48 -3t-31 11q-7 10 -7 56l-16 82q-3 34 0 63q15 3 41.5 5t42.5 5l16 4q-4 98 -4 133 q0 124 -4 369.5t-4 368.5q0 41 1 121t1 120l-74 4q-19 3 -24 24t-0.5 58.5zM143 1694q0 29 88 112t138 119q41 29 61 29q22 0 37 -21q85 -97 217 -188l-2 2q41 -25 41 -57q0 -19 -52.5 -67t-76.5 -48q-17 0 -29 12l2 -2q-11 8 -45 38.5t-62.5 56.5t-29.5 26 q-19 -16 -39.5 -33t-32.5 -27.5t-26 -22t-21.5 -17.5t-16 -12.5t-13 -9t-10 -5t-9.5 -3.5t-8 -1q-10 0 -27.5 14.5t-40.5 40.5t-24 27h2q-3 5 -8.5 12t-9 13t-3.5 12z" />
<glyph unicode="&#xcb;" horiz-adv-x="862" d="M34.5 1425.5q4.5 37.5 4.5 38.5q0 42 12.5 55t50.5 9l105 -8q68 -4 202.5 5.5t198.5 6.5q16 2 56 -4q6 -1 33 -2t43 -7.5t20 -23.5q8 -37 -11 -119t-14 -121q4 -33 -8 -44t-47 -13h-6h6h-15.5h-22t-23.5 0.5t-24.5 2.5t-19 5t-14.5 8q-6 11 -6 17t4.5 20t5.5 17v26 q-106 -3 -215 -12q0 -70 -11 -210.5t-11 -213.5q0 -19 2 -33q171 19 213 19q12 0 25 -1t28.5 -2.5t24.5 -2.5q8 -22 21 -84t13 -84q0 -24 -14 -35q-35 -21 -305 -21v-20q0 -31 4.5 -87.5t5.5 -78.5q0 -14 0.5 -40t1 -42t3 -38.5t7.5 -41.5q84 -14 248 -14q0 3 -1 8t-1 8 q-1 7 -4.5 24.5t-4 25t1.5 18.5t11.5 15.5t26.5 4.5q20 1 63.5 14.5t69.5 10.5q15 0 31 -54t24.5 -119t4 -120.5t-24.5 -58.5q-25 -2 -80 -2q-113 -9 -375 -13l-168 -6q-8 0 -35 -4t-48 -3t-31 11q-7 10 -7 56l-16 82q-3 34 0 63q15 3 41.5 5t42.5 5l16 4q-4 98 -4 133 q0 124 -4 369.5t-4 368.5q0 41 1 121t1 120l-74 4q-19 3 -24 24t-0.5 58.5zM254 1686q0 31 20.5 61.5t49.5 40.5h-2q12 6 26 6q31 0 55.5 -22t24.5 -52q0 -47 -27.5 -75.5t-74.5 -28.5q-32 0 -52 19t-20 51zM469 1702q0 37 28 62.5t66 25.5q35 0 62.5 -28.5t27.5 -63.5 q0 -36 -27 -57t-65 -21t-65 22.5t-27 59.5z" />
<glyph unicode="&#xcc;" horiz-adv-x="450" d="M41 178q7 27 55 27q0 15 4 47q17 202 17 500q0 105 -8 299.5t-9 283.5q-16 0 -24 1t-16 6t-11 16q-4 18 -5.5 43t-0.5 45t0 43q-1 16 6.5 27t26 14.5t33.5 5.5t43 -1.5t39 -5t36 -5.5h31q30 0 37 -4q68 12 100 0q5 -2 8.5 -8.5t5.5 -16.5t3 -19.5t1.5 -23t0.5 -21.5v-20 v-14v2v-2q0 -11 -4.5 -18.5t-14.5 -12t-17 -6t-23 -3.5t-21 -3q-6 -46 -6 -94v-132q0 -61 -7.5 -177.5t-7.5 -174.5q0 -50 4.5 -148.5t4.5 -148.5q0 -23 -2.5 -71t-2.5 -72t2.5 -69t2.5 -68q71 0 73 -29q0 -37 -14 -133q-2 -19 -15 -27t-26 -8.5t-35.5 2t-30.5 2.5 q-94 -4 -143 -4q-7 0 -24 -1t-25 -0.5t-18 4t-13.5 13.5t-1.5 27q3 20 -5 64t-3 69zM78 1812q0 19 14.5 33t36.5 21t42.5 10.5t37.5 3.5q10 0 18.5 -2t14.5 -8t11 -10.5t8.5 -14t6 -15t4.5 -18t2.5 -17t2.5 -18.5t2 -16q1 -9 4.5 -34.5t3.5 -43.5q0 -16 -2 -22v2 q-11 -49 -56 -49q-30 0 -49 19.5t-37 59.5t-24 50l2 -2l-10 14v-2q-2 3 -8.5 10.5t-9.5 12t-7 11t-6 12.5t-2 13zM414 1401v2v-2z" />
<glyph unicode="&#xcd;" horiz-adv-x="450" d="M35 178q7 27 55 27q0 15 4 47q17 202 17 500q0 105 -8 299.5t-9 283.5q-16 0 -24 1t-16 6t-11 16q-4 18 -5.5 43t-0.5 45t0 43q-1 16 6.5 27t26 14.5t33.5 5.5t43 -1.5t39 -5t36 -5.5h31q30 0 37 -4q68 12 100 0q5 -2 8.5 -8.5t5.5 -16.5t3 -19.5t1.5 -23t0.5 -21.5v-20 v-14v2v-2q0 -11 -4.5 -18.5t-14.5 -12t-17 -6t-23 -3.5t-21 -3q-6 -46 -6 -94v-132q0 -61 -7.5 -177.5t-7.5 -174.5q0 -50 4 -148.5t4 -148.5q0 -24 -2 -72t-2 -71q0 -24 2 -69t2 -68q72 0 74 -29q0 -37 -14 -133q-2 -19 -15 -27t-26 -8.5t-35.5 2t-30.5 2.5q-94 -4 -143 -4 q-7 0 -24 -1t-25 -0.5t-18 4t-13.5 13.5t-1.5 27q3 20 -5 64t-3 69zM182 1589v8q0 38 26 120.5t48 113.5q54 4 78 4h8h14t14 -0.5t14.5 -2t11.5 -4t9 -6.5t3 -10q0 -27 -43 -138t-56 -115h-18q-59 0 -109 30zM408 1401v2v-2z" />
<glyph unicode="&#xce;" horiz-adv-x="438" d="M-66 1696q0 29 88 112t138 119q41 29 61 29q22 0 37 -21q85 -97 217 -188l-2 2q41 -25 41 -57q0 -19 -52.5 -67t-76.5 -48q-17 0 -29 12l2 -2q-11 8 -45 38.5t-62.5 56.5t-29.5 26q-19 -16 -39.5 -33t-32.5 -27.5t-26 -22t-21.5 -17.5t-16 -12.5t-13 -9t-10 -5t-9.5 -3.5 t-8 -1q-10 0 -27.5 14.5t-40.5 40.5t-24 27h2q-3 5 -8.5 12t-9 13t-3.5 12zM35 178q7 27 55 27q0 15 4 47q17 202 17 500q0 105 -8 299.5t-9 283.5q-16 0 -24 1t-16 6t-11 16q-4 18 -5.5 43t-0.5 45t0 43q-1 16 6.5 27t26 14.5t33.5 5.5t43 -1.5t39 -5t36 -5.5h31 q30 0 37 -4q68 12 100 0q5 -2 8.5 -8.5t5.5 -16.5t3 -19.5t1.5 -23t0.5 -21.5v-20v-14v2v-2q0 -11 -4.5 -18.5t-14.5 -12t-17 -6t-23 -3.5t-21 -3q-6 -46 -6 -94v-132q0 -61 -7.5 -177.5t-7.5 -174.5q0 -50 4 -148.5t4 -148.5q0 -24 -2 -72t-2 -71q0 -24 2 -69t2 -68 q72 0 74 -29q0 -37 -14 -133q-2 -19 -15 -27t-26 -8.5t-35.5 2t-30.5 2.5q-94 -4 -143 -4q-7 0 -24 -1t-25 -0.5t-18 4t-13.5 13.5t-1.5 27q3 20 -5 64t-3 69zM408 1401v2v-2z" />
<glyph unicode="&#xcf;" horiz-adv-x="475" d="M35 178q7 27 55 27q0 15 4 47q17 202 17 500q0 105 -8 299.5t-9 283.5q-16 0 -24 1t-16 6t-11 16q-4 18 -5.5 43t-0.5 45t0 43q-1 16 6.5 27t26 14.5t33.5 5.5t43 -1.5t39 -5t36 -5.5h31q30 0 37 -4q68 12 100 0q5 -2 8.5 -8.5t5.5 -16.5t3 -19.5t1.5 -23t0.5 -21.5v-20 v-14v2v-2q0 -11 -4.5 -18.5t-14.5 -12t-17 -6t-23 -3.5t-21 -3q-6 -46 -6 -94v-132q0 -61 -7.5 -177.5t-7.5 -174.5q0 -50 4 -148.5t4 -148.5q0 -24 -2 -72t-2 -71q0 -24 2 -69t2 -68q72 0 74 -29q0 -37 -14 -133q-2 -19 -15 -27t-26 -8.5t-35.5 2t-30.5 2.5q-94 -4 -143 -4 q-7 0 -24 -1t-25 -0.5t-18 4t-13.5 13.5t-1.5 27q3 20 -5 64t-3 69zM37 1679q0 31 20 62t49 41h-2q12 6 27 6q31 0 55.5 -22t24.5 -52q0 -47 -27.5 -75.5t-74.5 -28.5q-33 0 -52.5 18.5t-19.5 50.5zM252 1696q0 37 28 62.5t66 25.5q35 0 62.5 -28.5t27.5 -63.5 q0 -36 -27 -57t-65 -21t-65 22.5t-27 59.5zM408 1401v2v-2z" />
<glyph unicode="&#xd0;" horiz-adv-x="823" d="M34 76q2 31 1 37q-3 49 0 98q0 26 15 31t44.5 -3t38.5 -8h37q0 493 16 1051h-20q-4 0 -19 -1.5t-29.5 -2.5t-30 0t-26 6t-12.5 14q-4 9 -0.5 38t2.5 38q-1 12 -1 30.5t-1 29.5q0 14 8 19.5t17 5t24 -2.5t21 -2q78 10 135 10q120 9 233 9q191 0 246 -101q66 -110 66 -444 q0 -27 -5.5 -81.5t-5.5 -82.5q0 -58 -4 -175.5t-4 -178.5q0 -140 -24 -209q-17 -52 -47 -89.5t-72.5 -59t-83.5 -34t-99.5 -15.5t-98.5 -3.5t-103 2t-92 2.5q-112 0 -123 35q-5 6 -3 37zM66 721v98q0 47 34 47q15 0 44 -2t46 -2q6 0 58.5 1.5t102 2.5t97 -0.5t58.5 -7.5h-4 l4 -2q13 0 21.5 -10.5t11.5 -33t4 -36t1 -42.5l-1 -29q0 -56 -29 -56q-23 0 -33 2q0 4 -141 12.5t-180 8.5q-8 0 -27.5 -3t-26.5 -3l-16 4h4q-18 11 -23 19t-5 32zM406 229q2 0 2 -2l2 2h-2h2q38 -10 67 -10q62 0 94 35q19 23 25.5 158.5t3.5 259.5t2 192q10 85 10 156 q0 138 -75 227q-54 23 -101 23h-8q0 -86 -6 -129q-6 -48 -8 -108.5t-1.5 -111t-0.5 -110.5q-1 -63 -2.5 -177t-2.5 -207t-1 -177v-21z" />
<glyph unicode="&#xd1;" horiz-adv-x="991" d="M33 129.5q1 23.5 8 32.5q8 20 57 8q-2 8 -2 23q0 72 1.5 143.5t6.5 163t7.5 136t10 162.5t9.5 144q4 58 10.5 175t10.5 173q-23 0 -37 -2q-5 0 -8.5 3.5t-5.5 10.5t-3 13.5t-1.5 17t-0.5 17v17v13.5q0 2 -1.5 29.5t-0.5 47t6 26.5q3 3 16 8t17 8q5 2 85 1t81 1 q21 -36 39.5 -78t41.5 -101t32 -81q133 -340 163 -424q5 -14 37 -86v2l17 -39q0 457 4 600q-2 0 -15.5 -0.5t-21 -0.5t-17 2.5t-14.5 7.5q-6 6 -7 19t0.5 28t0.5 20q0 8 -3.5 25.5t-6 31.5t-2.5 28.5t8 22t25 5.5q45 -6 192 6l127 12q12 -3 23 -14q23 -23 26 -76 q0 -3 1 -18.5t1 -27.5t-1.5 -26t-7.5 -22t-15 -8l-82 -6q0 -29 2 -86t2 -84q0 -123 -10.5 -447.5t-26.5 -513.5q3 0 26.5 4.5t36.5 0.5t13 -21q0 -4 0.5 -22t1 -34.5t0 -35t-3.5 -32t-8 -16.5q-1 -4 -19 -2.5t-20 0.5q-15 -6 -99 -12t-90 2q-2 2 -2 4q-12 0 -16 2 q-35 120 -85 254.5t-113 293t-97 251.5q0 -88 -12 -272q-3 -62 -7.5 -185t-7.5 -184q4 0 13.5 -1t13.5 -1q5 0 15 1t16 1t12.5 -2t9.5 -8.5t2 -18.5q0 -96 -16 -121q-7 -6 -14 -4.5t-19.5 6.5t-17.5 5q-15 0 -60 -5q-58 -9 -119 -6q-9 2 -29 -1t-36.5 -5t-29.5 3.5t-13 21.5 q0 7 -2.5 40t-1.5 56.5zM233 1618q0 47 59 87t109 40q54 0 130.5 -39t101.5 -39q27 0 55.5 28.5t46.5 28.5q23 0 55.5 -47.5t32.5 -72.5q0 -41 -63.5 -77t-110.5 -36q-42 0 -92 16q-10 5 -31.5 16t-38 20.5t-30.5 19.5l2 -2q-23 10 -35 10q-25 0 -41.5 -7.5t-23 -16t-18 -16 t-26.5 -7.5q-28 0 -55 33.5t-27 60.5z" />
<glyph unicode="&#xd2;" horiz-adv-x="774" d="M43 1040q3 64 13.5 121t33.5 114t57 97.5t89 66t124 25.5q68 0 139.5 -29t123.5 -77q118 -113 118 -389q0 -108 -16 -326q-1 -34 -9.5 -96t-10.5 -78q-2 -21 -3.5 -61.5t-4.5 -72.5t-11 -61q-31 -125 -120 -199.5t-216 -74.5q-90 0 -159.5 54t-103.5 134.5t-34 167.5 q-22 255 -10 684zM217 1733q0 24 26 40.5t53.5 21.5t51.5 5q10 0 18.5 -2t14.5 -8t11 -10.5t8.5 -14t6 -15t4.5 -18t2.5 -17t2.5 -18.5t2 -16q1 -9 4.5 -34t3.5 -43q0 -17 -2 -23v2q-11 -49 -55 -49q-30 0 -49 19.5t-37.5 60t-24.5 49.5l2 -2l-10 14v-2q-2 2 -8.5 10.5 t-9.5 12.5t-7 11t-6 13t-2 13zM229 475q0 -17 15 -115q2 -8 4 -23.5t5 -28t9 -23.5q17 -32 47 -50t66 -18q41 0 86 29q33 25 53.5 134.5t25.5 200t5 160.5q0 27 -4 81t-4 81q0 25 1 74t1 74q0 92 -23 133l2 -2q-21 37 -59 60.5t-80 23.5q-47 0 -78 -31h-2q-9 -9 -16 -20.5 t-13 -28t-8.5 -26t-7.5 -30t-6 -24.5v4q-5 -15 -7 -38.5t-2 -41t0.5 -46t0.5 -38.5q0 -58 -1 -173t-1 -173q0 -20 -4.5 -61.5t-4.5 -63.5z" />
<glyph unicode="&#xd3;" horiz-adv-x="790" d="M43 1040q3 64 13.5 121t33.5 114t57 97.5t89 66t124 25.5q68 0 139.5 -29t123.5 -77q118 -113 118 -389q0 -108 -16 -326q-1 -34 -9.5 -96t-10.5 -78q-2 -21 -3.5 -61.5t-4.5 -72.5t-11 -61q-31 -125 -120 -199.5t-216 -74.5q-90 0 -159.5 54t-103.5 134.5t-34 167.5 q-22 255 -10 684zM229 475q0 -17 15 -115q2 -8 4 -23.5t5 -28t9 -23.5q17 -32 47 -50t66 -18q41 0 86 29q33 25 53.5 134.5t25.5 200t5 160.5q0 27 -4 81t-4 81q0 25 1 74t1 74q0 92 -23 133l2 -2q-21 37 -59 60.5t-80 23.5q-47 0 -78 -31h-2q-9 -9 -16 -20.5t-13 -28 t-8.5 -26t-7.5 -30t-6 -24.5v4q-5 -15 -7 -38.5t-2 -41t0.5 -46t0.5 -38.5q0 -58 -1 -173t-1 -173q0 -20 -4.5 -61.5t-4.5 -63.5zM274 1556v9q0 38 26 120t48 113q54 4 78 4h8.5h13t14 -0.5t14.5 -1.5t12 -3.5t9 -6.5t3 -10q0 -27 -43 -138.5t-56 -115.5h-18q-59 0 -109 30z " />
<glyph unicode="&#xd4;" horiz-adv-x="800" d="M43 1040q3 64 13.5 121t33.5 114t57 97.5t89 66t124 25.5q68 0 139.5 -29t123.5 -77q118 -113 118 -389q0 -108 -16 -326q-1 -34 -9.5 -96t-10.5 -78q-2 -21 -3.5 -61.5t-4.5 -72.5t-11 -61q-31 -125 -120 -199.5t-216 -74.5q-90 0 -159.5 54t-103.5 134.5t-34 167.5 q-22 255 -10 684zM100 1599q0 29 88.5 112.5t137.5 119.5q41 29 61 29q22 0 37 -21q85 -97 217 -188l-2 2q41 -25 41 -58q0 -19 -52.5 -66.5t-76.5 -47.5q-17 0 -29 12l2 -2q-11 8 -45 38.5t-62.5 56.5t-29.5 26q-19 -16 -39.5 -33t-32.5 -27.5t-26 -22t-21.5 -17.5 t-16 -12.5t-13 -9t-10 -5t-9.5 -3.5t-8 -1q-10 0 -27.5 14.5t-40.5 40.5t-24 27h2q-3 5 -8.5 12t-9 12.5t-3.5 11.5zM229 475q0 -17 15 -115q2 -8 4 -23.5t5 -28t9 -23.5q17 -32 47 -50t66 -18q41 0 86 29q33 25 53.5 134.5t25.5 200t5 160.5q0 27 -4 81t-4 81q0 25 1 74 t1 74q0 92 -23 133l2 -2q-21 37 -59 60.5t-80 23.5q-47 0 -78 -31h-2q-9 -9 -16 -20.5t-13 -28t-8.5 -26t-7.5 -30t-6 -24.5v4q-5 -15 -7 -38.5t-2 -41t0.5 -46t0.5 -38.5q0 -58 -1 -173t-1 -173q0 -20 -4.5 -61.5t-4.5 -63.5z" />
<glyph unicode="&#xd5;" horiz-adv-x="763" d="M43 1040q3 64 13.5 121t33.5 114t57 97.5t89 66t124 25.5q68 0 139.5 -29t123.5 -77q118 -113 118 -389q0 -108 -16 -326q-1 -34 -9.5 -96t-10.5 -78q-2 -21 -3.5 -61.5t-4.5 -72.5t-11 -61q-31 -125 -120 -199.5t-216 -74.5q-90 0 -159.5 54t-103.5 134.5t-34 167.5 q-22 255 -10 684zM94 1622q0 47 59 87t109 40q54 0 130.5 -39t101.5 -39q27 0 55.5 29t46.5 29q23 0 55.5 -48t32.5 -73q0 -41 -63.5 -77t-110.5 -36q-42 0 -92 16q-10 6 -32 16.5t-38.5 20t-30.5 19.5l2 -2q-23 10 -34 10q-25 0 -41.5 -7.5t-23 -16t-18 -16t-26.5 -7.5 q-28 0 -55 33.5t-27 60.5zM229 475q0 -17 15 -115q2 -8 4 -23.5t5 -28t9 -23.5q17 -32 47 -50t66 -18q41 0 86 29q33 25 53.5 134.5t25.5 200t5 160.5q0 27 -4 81t-4 81q0 25 1 74t1 74q0 92 -23 133l2 -2q-21 37 -59 60.5t-80 23.5q-47 0 -78 -31h-2q-9 -9 -16 -20.5 t-13 -28t-8.5 -26t-7.5 -30t-6 -24.5v4q-5 -15 -7 -38.5t-2 -41t0.5 -46t0.5 -38.5q0 -58 -1 -173t-1 -173q0 -20 -4.5 -61.5t-4.5 -63.5z" />
<glyph unicode="&#xd6;" horiz-adv-x="778" d="M43 1040q3 64 13.5 121t33.5 114t57 97.5t89 66t124 25.5q68 0 139.5 -29t123.5 -77q118 -113 118 -389q0 -108 -16 -326q-1 -34 -9.5 -96t-10.5 -78q-2 -21 -3.5 -61.5t-4.5 -72.5t-11 -61q-31 -125 -120 -199.5t-216 -74.5q-90 0 -159.5 54t-103.5 134.5t-34 167.5 q-22 255 -10 684zM201 1616q0 31 20 61.5t49 40.5h-2q12 6 27 6q31 0 55.5 -21.5t24.5 -51.5q0 -47 -28 -76t-75 -29q-32 0 -51.5 19t-19.5 51zM229 475q0 -17 15 -115q2 -8 4 -23.5t5 -28t9 -23.5q17 -32 47 -50t66 -18q41 0 86 29q33 25 53.5 134.5t25.5 200t5 160.5 q0 27 -4 81t-4 81q0 25 1 74t1 74q0 92 -23 133l2 -2q-21 37 -59 60.5t-80 23.5q-47 0 -78 -31h-2q-9 -9 -16 -20.5t-13 -28t-8.5 -26t-7.5 -30t-6 -24.5v4q-5 -15 -7 -38.5t-2 -41t0.5 -46t0.5 -38.5q0 -58 -1 -173t-1 -173q0 -20 -4.5 -61.5t-4.5 -63.5zM416 1632 q0 37 28 62.5t66 25.5q35 0 62.5 -28.5t27.5 -63.5q0 -36 -27 -57t-65 -21t-65 22.5t-27 59.5z" />
<glyph unicode="&#xd7;" horiz-adv-x="729" d="M55 823q5 5 38 44t59.5 61t46.5 22q26 0 54.5 -20t60.5 -52.5t44 -41.5q114 131 156 131q41 0 76 -42.5t35 -86.5l-138 -148h2q5 0 77 -60t87 -75q-13 -32 -69.5 -85.5t-85.5 -53.5q-3 0 -5.5 1t-5.5 1q-35 23 -135 119q-18 -22 -52.5 -58t-43.5 -47v2q-1 -1 -6 -7 t-7.5 -8.5t-7.5 -8t-9 -8t-9 -5.5t-10 -4.5t-10 -1.5q-8 0 -19 6.5t-19 13.5t-19.5 18t-14.5 13l6 -2q-22 10 -41.5 27.5t-19.5 38.5t29.5 52.5t66.5 65.5t47 50q-3 3 -24 25t-27 28l-24 24t-28.5 27t-25.5 22t-29 23z" />
<glyph unicode="&#xd8;" horiz-adv-x="819" d="M29 -27q0 54 246.5 726.5t297.5 764.5q23 13 60 13q46 0 86.5 -16.5t40.5 -55.5q0 -10 -4.5 -26.5t-5.5 -22.5q-37 -121 -280.5 -757t-260.5 -644q-121 5 -144 7t-36 11zM66 1040q3 64 13.5 121t33.5 114t57 97.5t89 66t124 25.5q68 0 139 -29t123 -77q119 -114 119 -389 q0 -108 -16 -326q-1 -34 -10 -94.5t-11 -79.5q-2 -22 -3 -61.5t-4 -72t-11 -61.5q-31 -125 -120 -199.5t-216 -74.5q-90 0 -159.5 54t-103.5 134.5t-34 167.5q-22 255 -10 684zM252 475q0 22 4 63.5t4 61.5q0 58 1 173t1 173q0 10 -0.5 38.5t-0.5 46t2 41t7 38.5v-4 q1 4 5 20.5t6 24t7 22.5t9 24t11 20t14 18h2q31 31 77 31q42 0 81 -23.5t59 -60.5l-2 2q22 -39 22 -133q0 -25 -1 -74t-1 -74q0 -27 4 -81t4 -81q0 -70 -5 -160.5t-25.5 -200t-53.5 -134.5q-45 -29 -86 -29q-35 0 -65 18t-47 50q-6 11 -9.5 23.5t-5.5 28t-4 23.5 q-14 91 -14 115z" />
<glyph unicode="&#xd9;" horiz-adv-x="913" d="M32.5 1436q0.5 15 7.5 22.5t21 5.5q8 0 64.5 2t69.5 2q2 0 33 3t57 4.5t49 -0.5q36 -4 45.5 -21t11.5 -63q0 -4 1.5 -19t1.5 -27.5t-1 -26.5t-6.5 -22t-15.5 -8l-62 -4q-2 -27 -6.5 -78t-7.5 -92.5t-4 -77.5q-4 -118 -4 -180q0 -125 14 -327t41 -250q35 -66 119 -66 q85 0 123.5 62t38.5 155q0 168 -23 752q-5 104 -8 127h-10q-49 -21 -64 -6q-6 6 -6 20t2.5 30t1.5 21q0 8 -3 24.5t-3 30t6 23.5q8 20 92.5 33.5t168 11t87.5 -23.5q13 -104 15 -144q1 -27 -27 -27q-10 0 -41 7q2 -4 2 -19q25 -293 25 -626q0 -74 -2.5 -129t-13.5 -133 t-30.5 -135.5t-57 -114t-89.5 -91.5v2q-97 -63 -235 -63q-61 0 -130.5 45t-115.5 114t-41 132q-37 193 -37 434q0 87 8 262t8 262v27q-42 -5 -53 6q-4 6 -5.5 20t-0.5 26t0 22q-1 7 -4.5 25.5t-5 32t-1 28.5zM295 1759q0 19 14.5 33t36.5 21t42.5 10.5t37.5 3.5 q10 0 18.5 -2t14.5 -8t11 -10.5t8.5 -14t6 -15t4.5 -18t2.5 -17t2.5 -18.5t2 -16q1 -9 4.5 -34.5t3.5 -43.5q0 -16 -2 -22v2q-11 -49 -56 -49q-30 0 -49 19.5t-37 59.5t-24 50l2 -2l-10 14v-2q-2 3 -8.5 10.5t-9.5 12t-7 11t-6 12.5t-2 13z" />
<glyph unicode="&#xda;" horiz-adv-x="925" d="M32.5 1436q0.5 15 7.5 22.5t21 5.5q8 0 64.5 2t69.5 2q2 0 33 3t57 4.5t49 -0.5q36 -4 45.5 -21t11.5 -63q0 -4 1.5 -19t1.5 -27.5t-1 -26.5t-6.5 -22t-15.5 -8l-62 -4q-2 -27 -6.5 -78t-7.5 -92.5t-4 -77.5q-4 -118 -4 -180q0 -125 14 -327t41 -250q35 -66 119 -66 q85 0 123.5 62t38.5 155q0 168 -23 752q-5 104 -8 127h-10q-49 -21 -64 -6q-6 6 -6 20t2.5 30t1.5 21q0 8 -3 24.5t-3 30t6 23.5q8 20 92.5 33.5t168 11t87.5 -23.5q13 -104 15 -144q1 -27 -27 -27q-10 0 -41 7q2 -4 2 -19q25 -293 25 -626q0 -74 -2.5 -129t-13.5 -133 t-30.5 -135.5t-57 -114t-89.5 -91.5v2q-97 -63 -235 -63q-61 0 -130.5 45t-115.5 114t-41 132q-37 193 -37 434q0 87 8 262t8 262v27q-42 -5 -53 6q-4 6 -5.5 20t-0.5 26t0 22q-1 7 -4.5 25.5t-5 32t-1 28.5zM444 1559v8q0 38 26 120t48 113q54 4 78 4h8.5h13t14 -0.5 t14.5 -1.5t12 -3.5t9 -6.5t3 -10q0 -27 -43 -138.5t-56 -115.5h-18q-58 0 -109 31z" />
<glyph unicode="&#xdb;" horiz-adv-x="911" d="M32.5 1436q0.5 15 7.5 22.5t21 5.5q8 0 64.5 2t69.5 2q2 0 33 3t57 4.5t49 -0.5q36 -4 45.5 -21t11.5 -63q0 -4 1.5 -19t1.5 -27.5t-1 -26.5t-6.5 -22t-15.5 -8l-62 -4q-2 -27 -6.5 -78t-7.5 -92.5t-4 -77.5q-4 -118 -4 -180q0 -125 14 -327t41 -250q35 -66 119 -66 q85 0 123.5 62t38.5 155q0 168 -23 752q-5 104 -8 127h-10q-49 -21 -64 -6q-6 6 -6 20t2.5 30t1.5 21q0 8 -3 24.5t-3 30t6 23.5q8 20 92.5 33.5t168 11t87.5 -23.5q13 -104 15 -144q1 -27 -27 -27q-10 0 -41 7q2 -4 2 -19q25 -293 25 -626q0 -74 -2.5 -129t-13.5 -133 t-30.5 -135.5t-57 -114t-89.5 -91.5v2q-97 -63 -235 -63q-61 0 -130.5 45t-115.5 114t-41 132q-37 193 -37 434q0 87 8 262t8 262v27q-42 -5 -53 6q-4 6 -5.5 20t-0.5 26t0 22q-1 7 -4.5 25.5t-5 32t-1 28.5zM178 1647q0 29 88 112t137 119q41 29 62 29q22 0 37 -21 q85 -97 217 -188l-2 2q41 -25 41 -58q0 -19 -52.5 -66.5t-76.5 -47.5q-17 0 -29 12l2 -2q-11 8 -45 38.5t-62.5 56.5t-29.5 26q-19 -16 -39.5 -33t-32.5 -27.5t-26 -22t-21.5 -17.5t-16 -12.5t-13 -9t-10 -5t-9.5 -3.5t-8 -1q-10 0 -27.5 14.5t-40.5 40.5t-24 27h2 q-3 5 -8.5 12t-9 13t-3.5 12z" />
<glyph unicode="&#xdc;" horiz-adv-x="913" d="M32.5 1436q0.5 15 7.5 22.5t21 5.5q8 0 64.5 2t69.5 2q2 0 33 3t57 4.5t49 -0.5q36 -4 45.5 -21t11.5 -63q0 -4 1.5 -19t1.5 -27.5t-1 -26.5t-6.5 -22t-15.5 -8l-62 -4q-2 -27 -6.5 -78t-7.5 -92.5t-4 -77.5q-4 -118 -4 -180q0 -125 14 -327t41 -250q35 -66 119 -66 q85 0 123.5 62t38.5 155q0 168 -23 752q-5 104 -8 127h-10q-49 -21 -64 -6q-6 6 -6 20t2.5 30t1.5 21q0 8 -3 24.5t-3 30t6 23.5q8 20 92.5 33.5t168 11t87.5 -23.5q13 -104 15 -144q1 -27 -27 -27q-10 0 -41 7q2 -4 2 -19q25 -293 25 -626q0 -74 -2.5 -129t-13.5 -133 t-30.5 -135.5t-57 -114t-89.5 -91.5v2q-97 -63 -235 -63q-61 0 -130.5 45t-115.5 114t-41 132q-37 193 -37 434q0 87 8 262t8 262v27q-42 -5 -53 6q-4 6 -5.5 20t-0.5 26t0 22q-1 7 -4.5 25.5t-5 32t-1 28.5zM219 1706q0 31 20.5 61.5t49.5 40.5h-2q14 7 26 7q31 0 55.5 -22 t24.5 -52q0 -48 -27.5 -76.5t-74.5 -28.5q-32 0 -52 19t-20 51zM434 1722q0 37 28 62.5t66 25.5q35 0 62.5 -28.5t27.5 -63.5q0 -36 -27 -57t-65 -21t-65 22.5t-27 59.5z" />
<glyph unicode="&#xdd;" horiz-adv-x="874" d="M33 1411q-3 34 73 45t155.5 4.5t103.5 -16.5q6 -3 9.5 -14t4.5 -28t1 -30.5t-0.5 -31.5t-0.5 -21q0 -37 -66 -41q95 -290 119 -383q54 185 105 410l-31 6q-12 3 -16.5 24.5t-5.5 48t-3 31.5q-3 40 2 64q18 0 163 2t155 2q9 0 15.5 -1t9.5 -5.5t5 -6t1.5 -9.5t-0.5 -10 t-2.5 -12.5t-2.5 -11.5v5q0 2 2 2l-2 -2v-5q-1 -9 2 -29t5.5 -39t2 -37t-11.5 -27.5t-32 -6.5q-32 4 -48 4q-3 -7 -7 -21.5t-7 -21.5l-123 -391q-5 -18 -26 -79.5t-38 -115t-20 -75.5q-6 -52 -6 -111.5t3 -133.5t3 -114v-30h5q21 0 31 -1t21 -7.5t11 -20.5q2 -38 -12 -133 q-2 -19 -13 -27t-21.5 -8.5t-30.5 2t-28 2.5q-82 -4 -120 -4q-6 0 -21.5 -1t-22 -0.5t-15.5 4t-12 13.5t-1 27q1 17 -5.5 62t-2.5 71q8 35 55 25q-3 57 -3.5 122.5t0.5 134t1 72.5q0 24 -24.5 105t-58.5 181.5t-40 119.5v-2q-82 273 -98 330q-22 -8 -48.5 -7.5t-31.5 21.5 q-5 22 -4.5 66t-1.5 65zM340 1624v8q0 38 26 120.5t48 113.5q54 4 78 4h9h12.5t13.5 -0.5t14.5 -2t11.5 -4t9 -6.5t3 -10q0 -27 -42.5 -138.5t-55.5 -115.5h-18q-58 0 -109 31zM379 1321v2v-2z" />
<glyph unicode="&#xde;" horiz-adv-x="686" d="M35 1391q3 18 18 22.5t41 0t29 -4.5q18 -2 53 2h6h8q16 3 35 0h27q12 0 16 -2q33 0 43 -14q4 -12 4 -13v-18q70 12 103 12q64 0 114.5 -30t80 -76t49.5 -107t27 -117t7 -112q0 -35 -4 -105q-2 -33 -3 -88.5t-3 -87.5t-9.5 -75t-26 -81.5t-48.5 -76.5q-95 -117 -219 -117 q-30 0 -80 16h-4v3q-5 -185 -8 -222q3 0 7 1t7 1q10 2 16 0.5t8.5 -8.5t3 -11t0 -16t-0.5 -16v4v-4q0 -8 3.5 -28t6 -38.5t2.5 -37.5t-8 -30t-25 -9q-30 2 -122 -4.5t-119 4.5q-11 0 -16.5 21t-8 47.5t-4.5 31.5q-5 24 -2 64l55 4q-10 122 -10 293q0 78 6 230t6 230 q0 210 19 385h-9q-7 0 -19.5 -1.5t-18.5 -1t-13.5 3.5t-10.5 13t-3 27q3 24 -3 68.5t-3 67.5zM292.5 614q0.5 -8 3 -23.5t7.5 -27.5q49 -53 94 -53q14 0 29 6q28 28 45.5 70t24 101t7.5 91t1 94q0 76 -1 104.5t-13.5 81.5t-40.5 95q-15 27 -43 27q-24 0 -48 -15 q-19 -11 -30.5 -33t-13.5 -34t-7 -45q-14 -109 -14 -381q0 -4 -0.5 -27t0 -31z" />
<glyph unicode="&#xdf;" horiz-adv-x="940" d="M55 135v8q4 4 8 4q11 0 17 3q14 2 35 2l-4 41q-5 45 -5 61l-6 164q-6 59 -2 176l2 192l6 199q0 155 5 215q1 14 3.5 41.5t4.5 44t5.5 40t8.5 42.5q29 135 174 170q92 23 195 2q85 -15 145 -84q83 -100 101 -213q3 -8 7 -25.5t7 -25.5q11 -52 8 -115q-3 -78 -43 -139 q-5 -5 -19 -20t-22 -25l47 -49q51 -51 80 -113q46 -105 55 -176q15 -107 15 -127q3 -184 -101 -291q-59 -59 -94 -84q-29 -24 -61 -33l-21 -6l-20 -6l-1 -4q-1 -3 -5 -4q-2 -2 -11 -2l-32 -4q-28 -4 -37 -4q-20 0 -43 10q-24 10 -39 25q-18 13 -29 38l-6 9q-6 6 -6 16 q-10 23 -10 35q-12 45 8 74l16 18q4 4 4 6q3 3 11 6q2 0 12 3t16 3q22 0 35 -8q25 -14 43 -22q20 -4 29 -4q4 0 13 -1t13 -1q11 0 13 2h10q6 0 10 4q12 3 16 6q12 4 15 18q3 12 17 33.5t18 32.5q6 11 14 45q17 77 2 168q-5 20 -9.5 57t-6.5 49q-19 114 -121 193q-8 6 -25 12 t-18 6q-58 18 -103 15q-29 0 -37.5 8.5t-13.5 40.5q-2 37 8 90t64 43q50 -13 104 12q48 25 60 80q3 8 8 53q6 41 -25 105q-3 5 -6 13.5t-6 12.5q-2 3 -8.5 13.5t-9.5 13.5q-26 29 -64.5 36.5t-75.5 -9.5q-34 -14 -61 -52q-27 -39 -36 -65t-13 -82q0 -15 -6 -100.5t-2 -132.5 v-152v-35q0 -73 6 -98q1 -2 6 -39q3 -52 6 -152.5t6 -152.5q2 -56 -2 -178q2 -4 2 -15v-39v-4v-8v-18v-19l-8 -14q-3 -9 -12 -6q-1 0 -3.5 1t-3.5 1h-6h-14h-14q-2 1 -5 1.5t-5 1t-3 1.5q-25 0 -71 -4q-7 -1 -22 -3t-27 -3t-23 0q-16 0 -18 6q-1 3 -1 8t-1 8q-5 40 -5 51 q0 45 -4 60q-2 2 -2 18z" />
<glyph unicode="&#xe0;" horiz-adv-x="804" d="M55 428q0 53 8 94q10 53 26.5 88t49.5 74q47 51 74 70q72 32 115.5 36t103.5 -14v37q0 5 1 22.5t0 25.5t-4 19.5t-11.5 16t-22.5 2.5q-3 0 -5.5 -0.5t-4.5 -1.5t-3.5 -2t-3 -3t-2 -2.5t-2 -3t-2 -3.5t-2 -4.5t-1.5 -4.5q-15 -37 -54 -43q-44 -9 -98.5 3.5t-75.5 44.5 q-21 27 -16.5 62t22 66t39.5 50q127 120 346 -31q67 -47 84 -182l1 -5q1 -5 1 -8l5 -30q13 -75 10 -142q-4 -46 -4 -63q0 -23 3 -61t3 -46v-155q0 -109 2 -164q23 -2 59 -2q35 1 44.5 -8.5t7.5 -40.5v-107q0 -30 -20.5 -34t-45.5 4q-23 3 -57.5 -1.5t-61.5 -10t-58 -3.5 t-54 17l-2 39q0 5 -4 3q-3 -2 -3 -6q-38 -24 -84 -32q-38 -5 -82 3.5t-75 28.5q-71 52 -100 130.5t-38 185.5v-2q-8 41 -8 94zM219 1409q0 19 14.5 33t36.5 21t42.5 10.5t37.5 3.5q10 0 18.5 -2t14.5 -8t11 -10.5t8.5 -14t6 -15t4.5 -18t2.5 -17t2.5 -18.5t2 -16 q1 -9 4.5 -34.5t3.5 -43.5q0 -17 -2 -23v3q-11 -50 -55 -50q-30 0 -49 19.5t-37.5 60t-24.5 49.5l2 -2l-10 15v-2q-2 3 -8.5 10.5t-9.5 12t-7 11t-6 12.5t-2 13zM238 397q0 -86 28 -159q24 -56 74 -56q56 0 78 54q33 59 33 161q0 73 -21 131q-24 54 -65 62q-30 5 -59.5 -8 t-41.5 -37q-22 -45 -26 -142v-6z" />
<glyph unicode="&#xe1;" horiz-adv-x="757" d="M57 434q0 69 34 152.5t83 126.5q36 30 89.5 49.5t105.5 19.5q26 0 53 -6q3 9 -1.5 26.5t-4.5 22.5t0.5 32t-4.5 32q-11 30 -37 33q-18 5 -28.5 -2.5t-6.5 -24.5q2 -9 7 -22.5t7 -21t-2 -17t-18 -17.5q-44 -24 -119 -24q-66 2 -95 37t-21 81.5t38.5 92.5t71.5 71 q62 33 138 25.5t148 -49t101 -95.5q18 -33 27 -73.5t8.5 -75.5t-0.5 -74v-172q0 -121 -2 -180q-2 -27 -2 -82q0 -26 -4 -88v-10q4 0 24 4q36 6 43.5 -1.5t9.5 -43.5v-4q1 -21 -3.5 -61.5t-4.5 -59.5q0 -20 -14 -24.5t-41.5 0.5t-32.5 5q-27 0 -43 2q-6 -2 -33 -2 q-40 0 -63 2q-21 3 -25 21l-2 10q-2 -1 -12 -4.5t-13 -4.5t-12 -3.5t-13 -3.5t-12 -3.5t-13 -3t-13 -1.5t-14 -1h-13t-14 1q-81 3 -155 77h2q-63 63 -81 140t-18 192zM250 360q0 -21 6 -45q7 -35 27 -54t47 -19q32 0 53 24q47 56 47 148q0 42 -16 112q-6 22 -15 30.5 t-34 16.5h2q-59 11 -80 -18q-10 -10 -15 -24.5t-8 -40.5t-4 -31q0 -1 -1 -4t-1 -4q0 -11 -4 -31q-4 -46 -4 -60zM260 1245v8q0 38 26 120.5t48 113.5q54 4 78 4h9h12.5t13.5 -0.5t14.5 -2t11.5 -4t9 -6.5t3 -10q0 -27 -42.5 -138.5t-55.5 -115.5h-18q-58 0 -109 31z" />
<glyph unicode="&#xe2;" horiz-adv-x="778" d="M55 438q0 101 37 185q45 107 119 143q29 13 56.5 16t58 -3.5t50.5 -13.5t56 -22q14 25 15 53.5t-15 53.5q-21 38 -49 27q-9 -3 -24 -16t-23 -17q-31 -8 -80 -4q-18 3 -33 12q-53 28 -69 99t22 122q23 31 66.5 44t85 10.5t80.5 -13.5q114 -33 190 -139q23 -33 34.5 -80.5 t13 -79t1.5 -88.5q0 -44 -7 -141t-7 -154v-221v-16q85 11 88 -9q1 -23 -12 -102q0 -7 1 -22t0.5 -21.5t-3 -15t-11 -11t-22.5 -0.5q-46 10 -115 6q-7 0 -46.5 -12t-57.5 -4q-12 9 -9 43q-1 2 -3.5 5.5t-2.5 6.5q-66 -32 -106 -32q-39 0 -87 24.5t-79 57.5v-3 q-113 116 -113 332zM92 1307q0 29 88 112t137 119q41 29 62 29q22 0 37 -21q85 -97 217 -188l-2 2q41 -25 41 -57q0 -19 -52.5 -67t-76.5 -48q-17 0 -29 12l2 -2q-11 8 -45 38.5t-62.5 56.5t-29.5 26q-19 -16 -39.5 -33t-32.5 -27.5t-26 -22t-21.5 -17.5t-16 -12.5t-13 -9 t-10 -5t-9.5 -3.5t-8 -1q-10 0 -27.5 14.5t-40.5 40.5t-24 27h2q-3 5 -8.5 12t-9 13t-3.5 12zM266 401q0 -22 2.5 -46t9 -55t21.5 -51t37 -20q38 0 63.5 37t34 77t8.5 75q0 24 -0.5 38t-3.5 40.5t-8.5 43t-17.5 33.5t-29 25q-13 0 -25.5 -2t-31.5 -13.5t-32.5 -30.5 t-22 -58.5t-5.5 -92.5z" />
<glyph unicode="&#xe3;" horiz-adv-x="763" d="M55 408q0 34 4 84q13 188 107 256q66 47 156 47q53 0 120 -23v21q0 39 9 67q7 18 4 35q-4 20 -24.5 25t-33.5 -9q-7 -5 -16 -23t-23 -22q-48 -19 -102 -4q-50 22 -68.5 66t-3.5 90t56 76q75 53 179 31t159 -97q59 -83 59 -227q0 -17 -1 -48t-1 -46q0 -5 -1 -18t-1 -15 l-10 -191q-7 -110 -7 -190q-4 -54 -4 -82q0 -17 -2 -25h15q6 0 29.5 4.5t36.5 1.5t16 -18q1 -22 -0.5 -63t-1.5 -54q0 -32 -14.5 -38.5t-43.5 1.5q-26 1 -68.5 -1.5t-58.5 -2.5h-2q-5 -1 -19.5 -4t-20.5 -3.5t-15 0t-13 5.5t-6 15l-4 2q-8 16 -8 28q-86 -45 -151 -34 q-40 6 -82.5 34.5t-71.5 63.5q-72 96 -72 285zM117 1292q0 47 59 87t109 40q54 0 130 -39t101 -39q27 0 55.5 29t46.5 29q23 0 56 -48t33 -73q0 -41 -64 -77t-111 -36q-39 0 -92 17q-11 6 -32 16t-37.5 19.5t-30.5 19.5l2 -2q-23 10 -35 10q-25 0 -41.5 -7.5t-23 -16 t-17.5 -16t-26 -7.5q-28 0 -55 33.5t-27 60.5zM242 422q1 -7 3 -27.5t3 -30.5t4 -28t6.5 -29t9.5 -24t13 -23q35 -27 81 -12q44 18 72 96q19 45 19 102q0 60 -21 109q-25 33 -108 29q-51 -4 -69 -47t-13 -101v-14z" />
<glyph unicode="&#xe4;" horiz-adv-x="804" d="M55 461q0 53 8 94q10 53 26.5 88t49.5 74q45 49 74 69q73 32 115.5 36.5t103.5 -13.5v37q0 5 1 22.5t0 25.5t-4 19.5t-11.5 16t-22.5 2.5q-3 0 -5.5 -0.5t-4.5 -1.5t-3.5 -2t-3 -3t-2 -2.5t-2 -3t-2 -3.5t-2 -4.5t-1.5 -4.5q-15 -37 -54 -43q-44 -9 -98.5 3t-75.5 44 q-21 27 -16.5 62t22 66.5t39.5 50.5q127 120 346 -31q67 -47 84 -182q0 -1 1 -5t1 -8l5 -30q13 -75 10 -142q-4 -46 -4 -63q0 -23 3 -61t3 -46v-155q0 -109 2 -164q23 -2 59 -2q35 1 44.5 -8.5t7.5 -40.5v-107q0 -30 -20.5 -34.5t-45.5 3.5q-23 3 -57.5 -1.5t-61.5 -10 t-58 -3.5t-54 17l-2 39q0 5 -4 3q-3 -1 -3 -5q-40 -25 -84 -33q-38 -5 -81.5 4t-75.5 29q-71 52 -100 130.5t-38 185.5v-2q-8 41 -8 94zM150 1389q0 31 20 61.5t49 40.5h-2q12 6 27 6q31 0 55.5 -22t24.5 -52q0 -47 -28 -75.5t-75 -28.5q-32 0 -51.5 19t-19.5 51zM238 430 q0 -87 28 -160q24 -55 74 -55q56 0 78 53q33 59 33 162q0 72 -21 131q-24 54 -65 62q-30 5 -59.5 -8t-41.5 -37q-22 -45 -26 -142v-6zM365 1405q0 37 28 62.5t66 25.5q35 0 62.5 -28.5t27.5 -63.5q0 -36 -27 -57t-65 -21t-65 22.5t-27 59.5z" />
<glyph unicode="&#xe5;" horiz-adv-x="757" d="M57 420q0 69 34 152t83 126q37 30 90 50t105 20q26 0 53 -6q3 9 -1.5 26.5t-4.5 22.5t0.5 31.5t-4.5 31.5q-11 30 -37 33q-18 5 -28.5 -2t-6.5 -24q2 -9 7 -22.5t7 -21t-2 -17t-18 -17.5q-46 -25 -119 -25q-54 2 -83.5 25.5t-32 58t9.5 73t39.5 72.5t60.5 54 q62 33 138 25.5t148 -49t101 -95.5q18 -33 27 -73.5t8.5 -75.5t-0.5 -74v-172q0 -121 -2 -180q-2 -27 -2 -82q0 -26 -4 -88v-11q4 0 24 4q36 6 43.5 -1.5t9.5 -43.5v-4q1 -21 -3.5 -62t-4.5 -59q0 -16 -10.5 -22t-23 -4.5t-30 5t-24.5 3.5q-27 0 -43 2q-6 -2 -33 -2 q-40 0 -63 2q-21 3 -25 21l-2 10q-3 -1 -17.5 -6t-17.5 -6t-18 -5.5t-18.5 -4.5t-18.5 -3t-19 -1t-20 1q-80 3 -155 78h2q-63 63 -81 140t-18 192zM193 1374q0 24 8 43l4 25q10 66 63 106.5t121 40.5q84 0 139.5 -59.5t55.5 -143.5q0 -78 -47 -143v2q-25 -35 -64 -56.5 t-80 -21.5q-79 0 -139.5 64t-60.5 143zM250 346q0 -21 6 -45q7 -35 27 -54.5t47 -19.5q31 0 53 25q47 56 47 147q0 43 -16 113q-6 22 -15 30.5t-34 16.5h2q-59 11 -80 -18q-8 -8 -13 -21t-7 -23.5t-4 -27.5t-3 -25q0 -1 -1 -4t-1 -4q0 -10 -4 -30q-4 -46 -4 -60zM342 1397 l6 -51q8 -5 15 -7.5t13.5 -1.5t10.5 2t11 4.5t8 4.5q22 14 25 29.5t-2 23.5t-17 20l-10 1h-20t-23 -6t-17 -19z" />
<glyph unicode="&#xe6;" horiz-adv-x="1079" d="M57 422q0 69 34 152t83 126q37 30 90 50t105 20q26 0 53 -6q3 9 -1.5 26.5t-4.5 22.5t0.5 32t-4.5 32q-11 29 -37 32q-18 5 -28.5 -2t-6.5 -24q2 -9 7 -22.5t7 -21t-2 -17t-18 -17.5q-46 -25 -119 -25q-54 2 -83.5 25.5t-32 58t9.5 73t39.5 72.5t60.5 54q62 33 138 25.5 t148 -49t101 -95.5q18 -33 27 -73.5t8.5 -75.5t-0.5 -74v-172q0 -121 -2 -180q-2 -27 -2 -82q0 -26 -4 -88v-11q3 0 6.5 1t8.5 2t9 2q36 6 43.5 -1.5t9.5 -44.5v-4q1 -21 -3.5 -61t-4.5 -59q0 -20 -14 -24.5t-41.5 0.5t-32.5 5q-27 0 -43 2q-6 -2 -33 -2q-40 0 -63 2 q-21 3 -25 21l-2 10q-3 -1 -17.5 -6t-17.5 -6t-18 -5.5t-18.5 -4.5t-18.5 -3t-19 -1t-20 1q-80 3 -155 78h2q-63 63 -81 140t-18 192zM250 348q0 -21 6 -45q7 -35 27 -54.5t47 -19.5q31 0 53 25q47 56 47 147q0 43 -16 113q-6 22 -15 30.5t-34 16.5h2q-59 11 -80 -18 q-8 -8 -13 -21t-7 -23.5t-4 -27.5t-3 -25q0 -1 -1 -4t-1 -4q0 -10 -4 -30q-4 -46 -4 -60zM432 397q0 59 4 117t14 135t31.5 141t53 120.5t82.5 89t116 32.5q291 0 291 -409q0 -21 -2 -64t-2 -65q0 -48 -41 -50h-53q-38 0 -114 4.5t-114 4.5q-28 0 -90 -4q4 0 4 -9 q0 -122 31 -190q17 -37 65 -58t87 -12q23 4 25.5 10t-11.5 23q-6 7 -18.5 19t-19.5 19.5t-13 19t-4 24t12 27.5q46 65 168 49q87 -11 65 -150q-17 -101 -96.5 -165t-181.5 -64q-81 0 -139.5 36t-90 97t-45.5 128.5t-14 143.5zM641 637h25q20 0 57 -1t57 -1q53 0 68 4v14 q0 42 -12.5 86.5t-36.5 71.5v-2q-25 25 -41 25q-43 0 -71 -36t-37 -77.5t-9 -83.5z" />
<glyph unicode="&#xe7;" horiz-adv-x="667" d="M57 446v74v27q0 223 72 366q45 91 121 134q45 24 95.5 24t100.5 -14q51 -14 93.5 -43.5t58.5 -73.5q15 -37 6.5 -88t-39.5 -76q-21 -18 -46.5 -29.5t-53 -14.5t-47.5 13q-14 9 -28.5 53.5t-35.5 49.5q-4 2 -16 2q-10 -1 -18.5 -6t-15 -15t-11.5 -18t-9.5 -22.5t-7 -21.5 t-6 -22.5t-4.5 -17.5q-37 -154 -37 -295q0 -120 43 -180q41 -56 84 -39q18 7 28 23.5t17 42t13 36.5q1 2 4.5 7.5t4.5 7t4 5.5t4 5t4 3.5t5.5 3.5t6.5 2.5t8 2.5t10 2q37 3 65 -6q91 -20 80 -141q-8 -58 -50.5 -103t-98 -66.5t-113.5 -21.5q-78 0 -137 35q-32 18 -57.5 46 t-41.5 55.5t-27 70t-16.5 71t-8.5 79t-3 73.5zM156 -150q0 25 15 40.5t40 15.5q14 0 31 -1.5t23.5 -1t19.5 4.5t32 14q-19 7 -33.5 16.5t-23 18t-16 25.5t-11 27.5t-10.5 35.5q57 13 88 15t52.5 -1t85.5 2q0 -23 3 -35t7 -16.5t18 -15t27 -23.5q17 -13 28 -39.5t11 -50.5 q0 -29 -21 -59l2 2q-46 -70 -133 -94h2q-91 -31 -147 -31q-40 0 -52.5 13.5t-17.5 56.5q-1 13 -10.5 40t-9.5 41z" />
<glyph unicode="&#xe8;" horiz-adv-x="702" d="M55 397q0 59 4 117t14 135t31.5 141t53 120.5t82.5 89t116 32.5q291 0 291 -409q0 -21 -2 -64t-2 -65q0 -48 -41 -50h-53q-38 0 -113.5 4.5t-113.5 4.5q-29 0 -91 -4q5 0 5 -9q0 -124 30 -190q17 -37 65 -58t87 -12q23 4 25.5 10t-11.5 23q-6 7 -18.5 19t-19.5 19.5 t-13 19t-4 24t12 27.5q46 65 168 49q88 -12 66 -150q-17 -101 -97 -165t-182 -64q-81 0 -139.5 36t-90 97t-45.5 128.5t-14 143.5zM229 1315q0 24 26 40.5t53.5 21.5t51.5 5q10 0 18.5 -2t14.5 -7.5t11 -10t8.5 -14.5t6 -15t4.5 -18t2.5 -17t2.5 -18t2 -16q1 -9 4.5 -34.5 t3.5 -43.5q0 -17 -2 -23v2q-11 -49 -55 -49q-30 0 -49 19.5t-37.5 60t-24.5 49.5l2 -2l-10 14v-2q-2 2 -8.5 10.5t-9.5 12.5t-7 11t-6 13t-2 13zM264 637h25q19 0 57 -1t57 -1q53 0 68 4v14q0 42 -12.5 86.5t-36.5 71.5v-2q-25 25 -41 25q-43 0 -71 -36t-37 -77.5t-9 -83.5z " />
<glyph unicode="&#xe9;" horiz-adv-x="702" d="M55 397q0 59 4 117t14 135t31.5 141t53 120.5t82.5 89t116 32.5q291 0 291 -409q0 -21 -2 -64t-2 -65q0 -48 -41 -50h-53q-38 0 -113.5 4.5t-113.5 4.5q-29 0 -91 -4q5 0 5 -9q0 -124 30 -190q17 -37 65 -58t87 -12q23 4 25.5 10t-11.5 23q-6 7 -18.5 19t-19.5 19.5 t-13 19t-4 24t12 27.5q46 65 168 49q88 -12 66 -150q-17 -101 -97 -165t-182 -64q-81 0 -139.5 36t-90 97t-45.5 128.5t-14 143.5zM264 637h25q19 0 57 -1t57 -1q53 0 68 4v14q0 42 -12.5 86.5t-36.5 71.5v-2q-25 25 -41 25q-43 0 -71 -36t-37 -77.5t-9 -83.5zM293 1167v9 q0 38 26 120t48 113q54 4 77 4h8.5h13t14 -0.5t14.5 -1.5t12 -3.5t9 -6.5t3 -10q0 -27 -42.5 -138.5t-55.5 -115.5h-19q-59 0 -108 30z" />
<glyph unicode="&#xea;" horiz-adv-x="731" d="M55 397q0 59 4 117t14 135t31.5 141t53 120.5t82.5 89t116 32.5q291 0 291 -409q0 -21 -2 -64t-2 -65q0 -48 -41 -50h-53q-38 0 -113.5 4.5t-113.5 4.5q-29 0 -91 -4q5 0 5 -9q0 -124 30 -190q17 -37 65 -58t87 -12q23 4 25.5 10t-11.5 23q-6 7 -18.5 19t-19.5 19.5 t-13 19t-4 24t12 27.5q46 65 168 49q88 -12 66 -150q-17 -101 -97 -165t-182 -64q-81 0 -139.5 36t-90 97t-45.5 128.5t-14 143.5zM96 1206q0 29 88.5 112.5t137.5 119.5q39 28 61 28q23 0 37 -20q87 -100 217 -189l-2 3q41 -25 41 -58q0 -19 -52.5 -67t-76.5 -48 q-16 0 -29 13l2 -2q-11 8 -45 38.5t-62.5 56.5t-29.5 26q-19 -16 -39.5 -33t-33 -27.5t-26 -22t-21 -17.5t-16 -12.5t-13 -9.5t-10 -5.5t-9.5 -3.5t-8 -1q-10 0 -27.5 14.5t-40.5 40.5t-24 27h2q-3 5 -8.5 12t-9 13t-3.5 12zM264 637h25q19 0 57 -1t57 -1q53 0 68 4v14 q0 42 -12.5 86.5t-36.5 71.5v-2q-25 25 -41 25q-43 0 -71 -36t-37 -77.5t-9 -83.5z" />
<glyph unicode="&#xeb;" horiz-adv-x="702" d="M55 397q0 59 4 117t14 135t31.5 141t53 120.5t82.5 89t116 32.5q291 0 291 -409q0 -21 -2 -64t-2 -65q0 -48 -41 -50h-53q-38 0 -113.5 4.5t-113.5 4.5q-29 0 -91 -4q5 0 5 -9q0 -124 30 -190q17 -37 65 -58t87 -12q23 4 25.5 10t-11.5 23q-6 7 -18.5 19t-19.5 19.5 t-13 19t-4 24t12 27.5q46 65 168 49q88 -12 66 -150q-17 -101 -97 -165t-182 -64q-81 0 -139.5 36t-90 97t-45.5 128.5t-14 143.5zM147 1257q0 31 20.5 62t49.5 41h-2q12 6 27 6q31 0 55.5 -22t24.5 -52q0 -47 -28 -75.5t-75 -28.5q-33 0 -52.5 18.5t-19.5 50.5zM264 637h25 q19 0 57 -1t57 -1q53 0 68 4v14q0 42 -12.5 86.5t-36.5 71.5v-2q-25 25 -41 25q-43 0 -71 -36t-37 -77.5t-9 -83.5zM362 1274q0 37 28.5 62.5t66.5 25.5q35 0 62.5 -28.5t27.5 -63.5q0 -36 -27 -57t-65 -21t-65.5 22.5t-27.5 59.5z" />
<glyph unicode="&#xec;" horiz-adv-x="483" d="M57 79.5q2 50.5 0 65.5q-1 22 13.5 32.5t42.5 15.5q0 19 -1 58t-1 58q0 82 3 246t3 246q0 87 -6 176q-21 0 -27 2q-19 0 -24.5 20.5t-1.5 60.5l5 40q0 39 13.5 53t50.5 10q75 -9 156 -12q3 0 18 1t25 0.5t22.5 -2.5t19.5 -8t7 -16q1 -24 0 -67t0 -66q1 -16 -6.5 -23.5 t-17 -8.5t-25.5 0l-4 -93l-5 -43q0 -40 -1 -115.5t-1 -115.5q0 -66 2 -198t2 -197q0 -12 3 -21q56 11 88 -2q7 -2 11 -12.5t5.5 -27.5t1.5 -31t-1 -31.5t-1 -20.5v2v-2q0 -12 -6.5 -20.5t-18.5 -12.5t-23 -6t-27 -3.5t-23 -2.5q-23 -8 -80.5 -5t-77.5 1q-9 0 -38 -7 t-47 -4.5t-22 21.5q-8 15 -6 65.5zM63 1432q0 24 26 40.5t54 21.5t52 5q11 0 20 -3.5t15.5 -8t11.5 -14.5t8 -15.5t5.5 -19.5t3.5 -19t3 -20.5t2 -18.5q1 -9 4.5 -34t3.5 -43q0 -17 -2 -23v2q-11 -49 -55 -49q-30 0 -49 19.5t-37.5 60t-24.5 49.5l2 -2l-10 14v-2 q-2 2 -8.5 10.5t-9.5 12.5t-7 11t-6 13t-2 13z" />
<glyph unicode="&#xed;" horiz-adv-x="483" d="M57 79.5q2 50.5 0 65.5q-1 22 13.5 32.5t42.5 15.5q0 19 -1 58t-1 58q0 82 3 246t3 246q0 87 -6 176q-21 0 -27 2q-19 0 -24.5 20.5t-1.5 60.5l5 40q0 39 13.5 53t50.5 10q75 -9 156 -12q3 0 18 1t25 0.5t22.5 -2.5t19.5 -8t7 -16q1 -24 0 -67t0 -66q1 -16 -6.5 -23.5 t-17 -8.5t-25.5 0l-4 -93l-5 -43q0 -40 -1 -115.5t-1 -115.5q0 -66 2 -198t2 -197q0 -12 3 -21q56 11 88 -2q7 -2 11 -12.5t5.5 -27.5t1.5 -31t-1 -31.5t-1 -20.5v2v-2q0 -12 -6.5 -20.5t-18.5 -12.5t-23 -6t-27 -3.5t-23 -2.5q-23 -8 -80.5 -5t-77.5 1q-9 0 -38 -7 t-47 -4.5t-22 21.5q-8 15 -6 65.5zM156 1311v8q0 38 25.5 120t47.5 113q54 4 78 4h8.5h13t14 -0.5t14.5 -1.5t12 -3.5t9 -6.5t3 -10q0 -27 -42.5 -138.5t-55.5 -115.5h-19q-57 0 -108 31z" />
<glyph unicode="&#xee;" horiz-adv-x="690" d="M57 1331q0 29 88.5 112.5t137.5 119.5q39 28 61 28q23 0 37 -20q87 -100 217 -189l-2 2q41 -25 41 -57q0 -19 -52.5 -67t-76.5 -48q-16 0 -29 13l2 -2q-11 8 -45 38t-62.5 56t-29.5 26q-19 -16 -39.5 -33t-32.5 -27.5t-26 -22t-21.5 -17.5t-16 -12.5t-13 -9t-10 -5 t-9.5 -3.5t-8 -1q-10 0 -27.5 14.5t-40.5 40.5t-24 27h2q-3 5 -8.5 12t-9 13t-3.5 12zM166 79.5q2 50.5 0 65.5q-1 22 13 32.5t42 15.5q0 19 -1 58t-1 58q0 82 3 246t3 246q0 87 -6 176q-20 0 -26 2q-19 0 -24.5 20.5t-0.5 60.5l4 40q0 39 13.5 53t50.5 10q75 -9 155 -12 q3 0 18 1t25 0.5t22.5 -2.5t19.5 -8t7 -16q1 -23 0 -66t0 -67q1 -16 -6.5 -23.5t-17 -8.5t-25.5 0l-4 -93l-4 -43q0 -40 -1 -115.5t-1 -115.5q0 -66 2 -198t2 -197q0 -15 2 -21q56 11 88 -2q7 -2 11.5 -12.5t5.5 -27.5t1 -31t-0.5 -31.5t-0.5 -20.5v2v-2q0 -12 -6.5 -20.5 t-19 -12.5t-23 -6t-27 -3.5t-23.5 -2.5q-23 -8 -80 -5t-77 1q-9 0 -38 -7t-47 -4.5t-22 21.5q-8 15 -6 65.5z" />
<glyph unicode="&#xef;" horiz-adv-x="507" d="M37 1380q0 31 20 62t49 41h-2q12 6 27 6q31 0 55.5 -22t24.5 -52q0 -47 -27.5 -75.5t-74.5 -28.5q-33 0 -52.5 18.5t-19.5 50.5zM80 79.5q2 50.5 0 65.5q-1 22 13 32.5t42 15.5q0 19 -1 58t-1 58q0 82 3 246t3 246q0 87 -6 176q-21 0 -27 2q-19 0 -24 21t-0.5 60t4.5 40 q0 39 13.5 53t50.5 10q76 -9 155 -12q3 0 18 1t25 0.5t22.5 -2.5t19.5 -8t7 -16q1 -24 0 -67t0 -66q1 -16 -6.5 -23.5t-17 -8.5t-25.5 0l-4 -93l-4 -43q0 -40 -1 -115.5t-1 -115.5q0 -66 2 -198t2 -197q0 -15 2 -21q56 11 88 -2q7 -2 11.5 -12.5t5.5 -27.5t1 -31t-0.5 -31.5 t-0.5 -20.5v2v-2q0 -12 -6.5 -20.5t-19 -12.5t-23 -6t-27 -3.5t-23.5 -2.5q-23 -8 -80 -5t-77 1q-9 0 -38 -7t-47 -4.5t-22 21.5q-8 15 -6 65.5zM252 1397q0 37 28 62.5t66 25.5q35 0 62.5 -28.5t27.5 -63.5q0 -36 -27 -57t-65 -21t-65 22.5t-27 59.5z" />
<glyph unicode="&#xf0;" horiz-adv-x="843" d="M59 1139q4 72 39 123q30 53 123 98q42 22 103 22q38 9 73 9q85 0 154.5 -42t99.5 -118q36 -93 53 -311t17 -392q0 -235 -35 -317q-38 -85 -125.5 -148t-177.5 -63q-37 0 -61 8q-38 9 -68.5 27.5t-51 41t-37 55t-25.5 61.5t-16.5 69.5t-11 69t-7.5 69.5q-1 7 -1 11 q-14 147 -14 190q0 51 8 101.5t27.5 100.5t48.5 88t75 61.5t103 23.5q59 0 154 -31q-1 9 -4 38t-6 48t-8.5 49t-14 50t-20.5 39.5t-30.5 29.5t-41.5 10q-4 0 -12 -1t-11 -1v-4q-18 -10 -39 -35q-2 -12 -2 -16.5t2 -19t3 -21.5q10 -32 -3.5 -56t-44.5 -48 q-25 -19 -70.5 -29.5t-88.5 -0.5t-52 44q-18 42 -4 117zM295 625q0 -26 4 -33q-8 -31 6.5 -183.5t30.5 -175.5q6 -8 20.5 -15t24.5 -7q52 0 96 59v-2q53 78 53 219q0 38 -3.5 74.5t-14.5 84t-37 77t-65 29.5q-51 0 -91 -37q-24 -53 -24 -90zM367 1097q-3 6 6 19q8 8 20 19 t20.5 20t16.5 19q5 5 51.5 55t89 93t54.5 50l-2 -2l4 2q8 13 29 6.5t38.5 -18.5t38.5 -27t29 -18q42 -18 18 -37l-18 -23q-7 0 -100 -87t-107 -109q-7 -5 -31 -35q-22 -7 -22 -12l-2 -4q-5 -3 -8 -4.5t-6.5 0t-5 2t-7 5.5t-8.5 7l-80 61q-15 12 -18 18z" />
<glyph unicode="&#xf1;" horiz-adv-x="874" d="M55.5 915q-0.5 10 0.5 26t1 20q0 2 -1 23.5t0 31t6.5 23.5t17.5 20q33 11 195 11q54 0 51 -3q8 -6 9 -41.5t3 -40.5q124 37 180 37q76 0 115 -37q127 -117 127 -663q0 -44 -4 -138q59 -4 61 -18q1 -13 -1.5 -37.5t-2.5 -34.5q0 -51 -2 -78q-2 -10 -10.5 -15.5t-23 -7 t-27 -1.5t-28 1t-20.5 1q-22 1 -64.5 5t-62.5 5q-86 0 -86 45q1 10 -0.5 62t3.5 57q7 27 61 10q4 126 4 184q0 262 -21 366q-13 64 -34 91q-21 6 -45 6t-42.5 -8.5t-29 -25.5t-17 -33t-9 -42.5t-3 -41t-0.5 -40.5v-9q0 -21 -1 -62t-1 -61q0 -49 5.5 -147t5.5 -146v-16 q39 0 55 -9q7 -4 11 -17t5 -31t0.5 -34t-1.5 -34t-1 -23q1 -13 -3.5 -20.5t-14.5 -10t-18.5 -2.5t-23 1t-20.5 1h-16q-16 -1 -38 -2t-50.5 -1.5t-55.5 0t-50 2t-38 5t-16 9.5q-3 11 1 37t1 38v60q-3 18 8 22t33 0.5t29 -2.5h4q-10 260 -10 467q0 34 1 72t2.5 85t2.5 75 q-61 0 -76 -4q-12 -3 -19 1t-9 15.5t-2.5 21.5zM123 1214q0 47 59 87t109 40q54 0 130 -38.5t101 -38.5q27 0 56 28.5t47 28.5q23 0 55.5 -48t32.5 -73q0 -41 -63.5 -77t-110.5 -36q-40 0 -93 17q-11 6 -32 16t-37.5 19.5t-30.5 19.5l2 -2q-23 10 -35 10q-25 0 -41.5 -7.5 t-23 -16t-17.5 -16t-26 -7.5q-28 0 -55 33.5t-27 60.5z" />
<glyph unicode="&#xf2;" horiz-adv-x="686" d="M55 432q0 54 1.5 96.5t8 107t17.5 112.5t33.5 101.5t53 88t77.5 57.5t106 23q64 0 112.5 -21t79 -55.5t49.5 -83.5t26.5 -99.5t7.5 -109.5q0 -31 -3 -94t-3 -94t5 -91t5 -91q0 -106 -44.5 -172.5t-142.5 -98.5q-50 -16 -88 -16q-37 0 -80 16q-51 18 -88.5 42t-61 57 t-38.5 65.5t-22 79t-9 85t-2 95.5zM219 1282q0 19 14.5 33t36.5 21t42.5 10.5t37.5 3.5q10 0 18.5 -2t14.5 -8t11 -10.5t8.5 -14t6 -15t4.5 -18t2.5 -17t2.5 -18.5t2 -16q1 -9 4.5 -34.5t3.5 -43.5q0 -17 -2 -23v3q-11 -50 -55 -50q-30 0 -49 19.5t-37.5 60t-24.5 49.5l2 -2 l-10 15v-2q-2 3 -8.5 10.5t-9.5 12t-7 11t-6 12.5t-2 13zM229 461q0 -30 2 -60t9.5 -72.5t20.5 -74t37 -54t56 -22.5q78 0 78 150q0 66 -3 196t-3 195q0 22 -0.5 31t-4 26t-13.5 26.5t-27 14.5q-6 2 -23 2q-35 0 -60.5 -30.5t-38 -70.5t-20 -96t-9 -90.5t-1.5 -70.5z" />
<glyph unicode="&#xf3;" horiz-adv-x="696" d="M55 621q0 165 72 272q44 61 108 101t134 40q72 0 116 -33q39 -34 68 -75.5t45.5 -90t26 -92t12.5 -102t3 -97t-1.5 -100.5t-1.5 -90q0 -143 -55 -227q-35 -54 -98.5 -90t-129.5 -37q-47 0 -84 12.5t-65.5 39.5t-45 48.5t-40.5 59.5q-32 54 -48 196.5t-16 264.5zM236 543 q0 -74 20 -234v2q22 -110 96 -110q34 0 58.5 20t36.5 52t17 63t5 63q0 180 -10 259q-24 189 -101 190q-37 0 -63.5 -36t-38 -90.5t-16 -98t-4.5 -80.5zM297 1180v8q0 38 26 120t48 113q54 4 78 4h9h12.5t14 -0.5t14 -1.5t11.5 -3.5t9 -6.5t3 -10q0 -27 -42.5 -138.5 t-55.5 -115.5h-18q-58 0 -109 31z" />
<glyph unicode="&#xf4;" horiz-adv-x="735" d="M55 506q0 61 6.5 122.5t26 131.5t50 123t83 88t119.5 35q57 0 90 -15h-2q252 -94 252 -575q0 -47 -10 -86l2 2q-5 -14 -11.5 -43t-11.5 -43q-2 -4 -13.5 -36.5t-15 -40.5t-15 -34t-20 -36.5t-22.5 -28.5t-30 -28.5t-35 -18.5h2q-2 -1 -19.5 -9t-23 -8.5t-19.5 0.5 q-18 -6 -43 -6q-37 0 -53 8l-51 6h2q-9 3 -45 21q-84 42 -125 103t-53 157q-15 135 -15 211zM96 1206q0 29 88.5 112.5t137.5 119.5q39 28 61 28q23 0 37 -20q87 -100 217 -189l-2 3q41 -25 41 -58q0 -19 -52.5 -67t-76.5 -48q-16 0 -29 13l2 -2q-11 8 -45 38.5t-62.5 56.5 t-29.5 26q-19 -16 -39.5 -33t-33 -27.5t-26 -22t-21 -17.5t-16 -12.5t-13 -9.5t-10 -5.5t-9.5 -3.5t-8 -1q-10 0 -27.5 14.5t-40.5 40.5t-24 27h2q-3 5 -8.5 12t-9 13t-3.5 12zM238 510q0 -21 2 -29q2 -14 4.5 -85.5t14 -120t38.5 -70.5q13 -11 38 -18t44 -7q21 0 35.5 13 t21.5 29t10.5 44.5t4 43t0.5 41.5v11v130q0 133 -17 200l-6 43q-3 8 -7 23t-7 24q-11 22 -20.5 29.5t-31.5 7.5q-31 0 -56.5 -38t-39 -91t-21 -101.5t-7.5 -78.5z" />
<glyph unicode="&#xf5;" horiz-adv-x="753" d="M55 580q0 56 7 109.5t23 110t47.5 103.5t76.5 74q87 55 178 55q80 0 138 -38t88.5 -101.5t44.5 -132t14 -144.5q0 -91 -19 -247q-16 -143 -31 -196q-55 -169 -202 -173q-147 0 -248 66l4 -3q-38 24 -64.5 91t-37.5 153t-15 150t-4 123zM109 1233q0 47 59 87t108 40 q54 0 130.5 -39t101.5 -39q27 0 55.5 28.5t46.5 28.5q23 0 55.5 -47.5t32.5 -72.5q0 -41 -63.5 -77t-110.5 -36q-42 0 -92 16q-10 5 -31.5 16t-38 20.5t-30.5 19.5l2 -2q-23 10 -35 10q-32 0 -49 -12t-29 -23.5t-31 -11.5q-28 0 -54.5 33.5t-26.5 60.5zM229 487 q0 -35 0.5 -54.5t3.5 -53t8 -53t16 -45.5t26.5 -42t39 -30t54.5 -21h10q59 0 72 88q33 237 33 336q0 220 -113 226l-10 -4q-34 -2 -62.5 -45.5t-44.5 -103t-24.5 -113t-8.5 -85.5z" />
<glyph unicode="&#xf6;" horiz-adv-x="686" d="M55 432q0 54 1.5 96.5t8 107t17.5 112.5t33.5 101.5t53 88t77.5 57.5t106 23q64 0 112.5 -21t79 -55.5t49.5 -83.5t26.5 -99.5t7.5 -109.5q0 -31 -3 -94t-3 -94t5 -91t5 -91q0 -106 -44.5 -172.5t-142.5 -98.5q-50 -16 -88 -16q-37 0 -80 16q-51 18 -88.5 42t-61 57 t-38.5 65.5t-22 79t-9 85t-2 95.5zM160 1257q0 31 20 62t49 41h-2q12 6 27 6q31 0 55.5 -22t24.5 -52q0 -47 -28 -75.5t-75 -28.5q-32 0 -51.5 18.5t-19.5 50.5zM229 461q0 -30 2 -60t9.5 -72.5t20.5 -74t37 -54t56 -22.5q78 0 78 150q0 66 -3 196t-3 195q0 22 -0.5 31 t-4 26t-13.5 26.5t-27 14.5q-6 2 -23 2q-35 0 -60.5 -30.5t-38 -70.5t-20 -96t-9 -90.5t-1.5 -70.5zM375 1274q0 37 28 62.5t66 25.5q35 0 62.5 -28.5t27.5 -63.5q0 -36 -27 -57t-65 -21t-65 22.5t-27 59.5z" />
<glyph unicode="&#xf7;" horiz-adv-x="753" d="M57 590v108q0 54 47 54q19 0 58.5 -2t60.5 -2q8 0 79.5 1.5t137 2t129.5 -1t78 -7.5h-4l4 -2q19 0 30.5 -12t16 -37t5.5 -41t0 -47t-1 -33q0 -15 -0.5 -23t-4 -18.5t-12 -15t-22.5 -4.5q-29 0 -43 2q-5 5 -190 14t-244 9q-12 0 -37 -3.5t-32 -3.5q-3 0 -23 4h6 q-24 11 -31.5 21.5t-7.5 36.5zM238 934q0 39 28.5 64t67.5 32h6q37 0 63.5 -25t26.5 -63q0 -35 -27.5 -69.5t-62.5 -34.5q-38 0 -70 29.5t-32 66.5zM254 377q0 42 27.5 71t68.5 29q32 0 56 -24h-3q22 -25 25.5 -69t-18 -79t-60.5 -35q-43 0 -69.5 31.5t-26.5 75.5z" />
<glyph unicode="&#xf8;" horiz-adv-x="800" d="M64 588.5q18 141.5 75 265.5q29 67 92.5 127.5t128.5 60.5q59 -5 70 -8l39 -6q6 15 31 59l35 68q18 3 37.5 -0.5t44 -11.5t36.5 -10l1 -5q1 -4 5 -4q-9 -55 -32 -114q-16 -40 -27 -62q0 -1 39.5 -45t48.5 -53q34 -49 43 -111q30 -147 -12 -336q0 -6 -4 -26 q-1 -4 -7 -28.5t-7.5 -31t-7.5 -29t-8.5 -31.5t-9.5 -29t-11.5 -30.5t-12.5 -28t-15.5 -29t-17 -25t-20.5 -25.5q-48 -48 -111 -74q-36 -14 -66 -15t-73 9l-18 -63q-20 -68 -31 -86q-11 -4 -94 31t-90 42q5 28 37 125q18 57 26 78l-22 25q-27 27 -35 41q-36 54 -47 112 q-28 132 -10 273.5zM213 375q3 -26 10 -37q20 46 66.5 200t70.5 203l27 84l21 49q-2 -2 -5 -2h-8q-1 1 0 3q2 4 -2 4q-23 5 -39 -1t-22 -14t-17 -26q-28 -51 -58.5 -138t-37.5 -143q-14 -139 -6 -182zM389 178q2 -3 8 -2t9 2.5l10 5t10 4.5q44 25 77.5 61t43.5 75 q24 88 36 173t7 128q-6 35 -16.5 69.5t-16.5 51.5l-6 16q-12 -53 -52.5 -187t-43.5 -145q-6 -23 -22.5 -77t-27 -95t-16.5 -80z" />
<glyph unicode="&#xf9;" horiz-adv-x="952" d="M56.5 1035.5q0.5 15.5 9 22.5t24.5 5q42 -2 48.5 -2.5t50.5 2t49 2.5q13 1 69 8t86 4q41 -6 52.5 -23t13.5 -61q0 -3 1 -19t0.5 -27.5t-2.5 -25.5t-8 -22t-16 -8l-67 -6q-3 -51 -17 -225t-14 -269q0 -44 9.5 -81.5t38.5 -68t75 -30.5q36 0 65 20q82 54 82 496 q0 45 -4 147q-22 0 -38.5 2.5t-31.5 13.5t-14 30q1 10 -3 59t3 59q4 12 17.5 17.5t26 5.5t31 -2t23.5 -2t41.5 1.5t71.5 1.5t74 -1t63.5 -7.5t26.5 -17.5q1 -13 -1.5 -36.5t-2.5 -32.5q-1 -7 -1 -35t-3 -43q-2 -27 -78 -27q-2 -72 -13.5 -285t-11.5 -329v-35q38 0 62 8 q4 0 14.5 4.5t15 2t7.5 -14.5q9 -37 12 -76v-4v4q0 -4 1 -19t1 -27.5t-1 -27t-5 -23.5t-12 -11q-24 -8 -96.5 -15.5t-112.5 -3.5q-13 0 -41 -4q-13 -1 -20 8.5t-9 24.5q-2 4 -10 12q-56 -29 -99 -29q-83 0 -146 24.5t-102 65.5t-63.5 100.5t-33.5 122.5t-9 140q0 59 2.5 125 t7.5 150.5t7 125.5h-5h-21.5t-30.5 2.5t-19 8.5t-7 18.5t0.5 27t0.5 19.5t-5.5 25t-6.5 32.5t-1.5 28zM344 1382q0 19 14.5 33t36.5 21t42.5 10.5t37.5 3.5q10 0 18.5 -2t14.5 -8t11 -10.5t8.5 -14t6 -15t4.5 -18t2.5 -17t2.5 -18.5t2 -16q1 -9 4.5 -34.5t3.5 -43.5 q0 -16 -2 -22v2q-11 -49 -55 -49q-30 0 -49 19.5t-37.5 60t-24.5 49.5l2 -2l-10 14v-2q-2 3 -8.5 10.5t-9.5 12t-7 11t-6 12.5t-2 13z" />
<glyph unicode="&#xfa;" horiz-adv-x="952" d="M63 1022q-22 31 9 39q41 8 108 -2q16 4 31 4q6 0 26 0.5t32.5 0.5t30.5 -2t32 -5q8 0 22.5 1.5t25.5 2t22.5 -0.5t18.5 -6t9 -14q0 -4 1 -23t1 -35t-1.5 -35t-5.5 -32t-11 -16q0 -4 -25.5 -2.5t-30.5 0.5h-2q-4 -34 -4 -164v-42v-51t0.5 -51.5t1.5 -57.5t2.5 -54t4 -57 t6 -50t9 -49t11.5 -40q24 -68 80 -68q3 0 31 4q20 3 42 52.5t27 78.5q23 131 23 561q-46 0 -53 19q-3 11 1 38t1 40q-1 12 0 29.5t0 29.5q0 13 7.5 18.5t16.5 4.5t23.5 -3t21.5 -2q54 8 135 11q2 0 22 1.5t28.5 1.5h24.5t27.5 -2.5t20.5 -7.5q7 -4 11.5 -16.5t5.5 -31.5 t1 -34t-0.5 -34t-0.5 -23l-2 8v-2q0 -4 2 -6q0 -16 -7.5 -23.5t-14.5 -8.5t-25.5 0.5t-24.5 1.5v-78v-207q0 -58 1 -123t2.5 -144.5t2.5 -123.5q75 4 78 -15q4 -17 0.5 -64.5t-2.5 -62.5q0 -7 0.5 -19.5t0.5 -19t-1.5 -15t-5.5 -13t-12.5 -7.5t-20.5 -3q-8 0 -53 -5 q0 -1 -1 -2t-1 -2q-16 -7 -142 -12h-4q-12 -3 -18 0h-14q-24 14 -31 27q-64 -23 -131 -23q-69 0 -123.5 26t-90 72t-60 101t-37.5 121.5t-18 124t-5 118.5q0 59 3.5 169.5t4.5 144.5q-34 -5 -45 6q-4 6 -5.5 21t-0.5 27.5t0 23.5q-1 2 -6 27.5t-13 33.5zM395 1239v8 q0 38 26 120.5t48 113.5q54 4 78 4h9h13t14 -0.5t14.5 -2t11.5 -4t9 -6.5t3 -10q0 -27 -43 -138.5t-56 -115.5h-18q-58 0 -109 31z" />
<glyph unicode="&#xfb;" horiz-adv-x="944" d="M57 1036.5q2 31.5 13 42.5q6 6 27.5 10.5t25.5 6.5q16 2 24 1.5t24.5 -3.5t23.5 -4q112 -5 149 0q2 0 14 4t17 1t8 -14q8 -31 8 -69v-4v4q0 -4 1 -18t1 -25t-1.5 -23.5t-7.5 -20.5t-15 -10q-28 -4 -43 -4q-2 -44 -12.5 -201.5t-10.5 -244.5v-86q0 -141 121 -141 q31 0 76 18l-2 -2q55 34 55 254q0 67 -4 203q-4 132 -10 204q-51 -11 -54 21q0 4 -1.5 29.5t-2 45t3.5 40t13 26.5q4 3 14.5 3t23.5 -1.5t17 -1.5l80 8q61 9 129 9q1 0 17.5 1.5t27 -0.5t16.5 -8q8 -8 8.5 -36t2.5 -33q6 -55 14 -66q21 -29 -8 -37q-17 -4 -72 -4 q-4 -262 -4 -397q0 -56 11 -179.5t13 -166.5h3q18 2 53 2q2 0 17.5 1.5t21 -4t4.5 -24.5q0 -91 -15 -120q-6 -6 -12.5 -5t-16.5 5t-12 4q-17 0 -49 -4h-2q-1 0 -4 -3q-34 -14 -117 -10q-20 -7 -40 -4t-19 25v10l-6 12q-12 -10 -23 -16.5t-17 -10.5t-19.5 -7.5t-17 -4.5 t-23 -4t-25.5 -4h4q-27 -6 -55 -6q-74 0 -137.5 34t-106.5 95v-2q-12 17 -19.5 35.5t-15 42.5t-12.5 37l2 -2q-27 78 -27 483q0 29 -1 91.5t-1 94.5h-8q-18 0 -24 13t-5.5 37t-1.5 30q-6 16 -4 47.5zM168 1298q0 29 88 112.5t137 119.5q41 29 62 29q22 0 37 -21 q85 -97 217 -188l-2 2q41 -25 41 -58q0 -19 -53 -66.5t-77 -47.5q-16 0 -28 12l2 -2q-11 8 -45 38.5t-62.5 56.5t-29.5 26q-19 -16 -39.5 -33t-32.5 -27.5t-26 -22t-21.5 -17.5t-16 -12.5t-13 -9t-10 -5t-9.5 -3.5t-8 -1q-8 0 -22 11t-26 23t-26.5 28t-18.5 20h2 q-3 5 -8.5 12t-8.5 12.5t-3 11.5z" />
<glyph unicode="&#xfc;" horiz-adv-x="952" d="M56.5 1035.5q0.5 15.5 9 22.5t24.5 5q42 -2 48.5 -2.5t50.5 2t49 2.5q13 1 69 8t86 4q41 -6 52.5 -23t13.5 -61q0 -3 1 -19t0.5 -27.5t-2.5 -25.5t-8 -22t-16 -8l-67 -6q-3 -51 -17 -225t-14 -269q0 -44 9.5 -81.5t38.5 -68t75 -30.5q36 0 65 20q82 54 82 496 q0 45 -4 147q-22 0 -38.5 2.5t-31.5 13.5t-14 30q1 10 -3 59t3 59q4 12 17.5 17.5t26 5.5t31 -2t23.5 -2t41.5 1.5t71.5 1.5t74 -1t63.5 -7.5t26.5 -17.5q1 -13 -1.5 -36.5t-2.5 -32.5q-1 -7 -1 -35t-3 -43q-2 -27 -78 -27q-2 -72 -13.5 -285t-11.5 -329v-35q38 0 62 8 q4 0 14.5 4.5t15 2t7.5 -14.5q9 -37 12 -76v-4v4q0 -4 1 -19t1 -27.5t-1 -27t-5 -23.5t-12 -11q-24 -8 -96.5 -15.5t-112.5 -3.5q-13 0 -41 -4q-13 -1 -20 8.5t-9 24.5q-2 4 -10 12q-56 -29 -99 -29q-83 0 -146 24.5t-102 65.5t-63.5 100.5t-33.5 122.5t-9 140q0 59 2.5 125 t7.5 150.5t7 125.5h-5h-21.5t-30.5 2.5t-19 8.5t-7 18.5t0.5 27t0.5 19.5t-5.5 25t-6.5 32.5t-1.5 28zM268 1313q0 31 20.5 61.5t49.5 40.5h-2q12 6 26 6q31 0 55.5 -21.5t24.5 -51.5q0 -48 -27.5 -76.5t-74.5 -28.5q-32 0 -52 19t-20 51zM483 1329q0 37 28.5 62.5 t66.5 25.5q35 0 62.5 -28.5t27.5 -63.5q0 -36 -27.5 -57t-65.5 -21t-65 22.5t-27 59.5z" />
<glyph unicode="&#xfd;" horiz-adv-x="854" d="M57 1038q-5 28 2 51t31 19q19 -3 40.5 -3.5t51.5 0.5t41 1q51 0 66 4q4 1 16.5 4.5t18.5 4t16 -2.5q4 -4 6.5 -14.5t3 -26t1 -27.5t0 -28.5t-0.5 -18.5v5v-5q1 -21 -11 -31.5t-36 -15.5q-4 -78 -4 -108q0 -118 16 -347t43 -241q12 -4 50 -4q39 0 61.5 31.5t26.5 84.5 t3 102t-6.5 105.5t-5.5 73.5q0 29 1 86t1 86v113q-3 0 -6 -1t-6 -1q-10 0 -16.5 -0.5t-10.5 7t-6 12.5t-2.5 15.5t-0.5 17t0.5 16.5t0.5 14t-1 19.5t-0.5 25t3 22.5t8.5 20.5t17 10.5q14 5 31.5 5t30.5 -2.5t33 -6.5l30 -6q86 -4 115 0q34 7 45 -3.5t16 -47.5q0 -3 2 -34 t0 -51.5t-10 -31.5q-6 -8 -15.5 -8.5t-21.5 3t-16 3.5h-11q-4 -86 -4 -131q0 -70 2 -205t2 -203q0 -129 4 -166q5 -78 5 -86q0 -15 -5 -77q-11 -93 -32 -148q-10 -25 -38.5 -61t-35.5 -47q-40 -58 -104 -76q-68 -29 -107 -17q-10 3 -32 8t-38 10t-30 13q-1 0 -37 21 q-21 17 -23 20q-61 72 -26 133q19 32 37 43.5t51 7.5q18 -3 31 -10.5t31.5 -23.5t25.5 -21q40 -32 82 6l7 8q8 8 10 10.5t7.5 10.5t8 12.5t4.5 10.5t2 12q0 8 -11 12q-9 3 -28.5 -1.5t-24.5 -4.5q-104 0 -183.5 62t-117.5 161q-5 10 -9.5 28.5t-6.5 24.5q-15 68 -15 410 l-6 248q-14 -3 -22 0q-15 4 -15 110zM344 1214v9q0 38 26 120t48 113q54 4 78 4h9h12.5t14 -0.5t14 -1.5t11.5 -3.5t9 -6.5t3 -10q0 -27 -42.5 -138.5t-55.5 -115.5h-18q-59 0 -109 30z" />
<glyph unicode="&#xfe;" horiz-adv-x="774" d="M57 1323q3 18 18 22.5t41 0t29 -4.5q18 -2 54 2h6h8q16 3 35 0h26q13 0 17 -2q33 0 43 -14q1 -2 2 -5l1.5 -4.5t0.5 -2.5v-275q76 13 102 13q64 0 114.5 -30t80.5 -76t49.5 -107t27 -117.5t7.5 -112.5q0 -34 -4 -104q-2 -33 -3 -88.5t-3 -88t-9.5 -75.5t-26 -81.5 t-48.5 -76.5q-94 -116 -219 -116q-30 0 -80 16h-4v2q-4 -165 -9 -221q3 0 7.5 1t7.5 1q10 2 16 0t8 -8t2.5 -11t0 -16.5t-0.5 -15.5v4v-4q0 -8 3.5 -28t6 -39t3 -38t-7.5 -30t-25 -9q-30 2 -122.5 -4.5t-119.5 4.5q-11 0 -16.5 21t-8 48t-4.5 32q-5 23 -2 63l56 4 q-11 135 -11 293q0 78 6.5 230.5t6.5 230.5q0 476 18 641h-8q-7 0 -20 -1.5t-19 -1t-13.5 3.5t-10.5 13t-3 27q3 24 -3 68t-3 67zM315 301.5q0 -6.5 1 -19.5t3.5 -23t6.5 -19q50 -54 94 -54q12 0 29 7q23 23 38.5 59.5t23 66.5t11.5 83t4 73.5v73.5q0 124 -10 172 q-13 59 -45 108q-15 27 -43 27q-25 0 -47 -14q-6 -3 -11 -7.5t-9 -8.5t-8 -11t-6 -11t-4.5 -12.5t-3.5 -11.5t-3 -13l-2.5 -12.5t-2 -13.5t-1.5 -12q-15 -117 -15 -381v-22v-24.5z" />
<glyph unicode="&#xff;" horiz-adv-x="854" d="M55.5 1028.5q0.5 24.5 7.5 34.5q4 10 23.5 10t43.5 -5t28 -5q20 3 60.5 2t60.5 2q10 3 19.5 3.5t22 -0.5t19.5 -1q2 0 14.5 1t17.5 0t11 -7.5t6 -20.5q0 -102 -16 -122q-2 -4 -6 -5.5t-9 0t-9 3t-10.5 4.5t-8.5 4q-1 -54 -4.5 -213.5t-3.5 -247.5q0 -123 15 -174 q27 -89 99 -90q48 0 82 65q14 29 14 299q0 64 -3.5 178.5t-4.5 153.5q-25 -8 -58 -7t-34 21q0 5 -1 23t-1.5 35.5t0 36t4.5 31.5t12 16q4 3 14 3.5t24.5 -0.5t17.5 -1q11 3 24 4t29 1t25 1q57 8 129 8q4 0 19 2t26.5 1t17.5 -7t7.5 -19.5t0.5 -30.5t0 -22q0 -5 4.5 -22 t8.5 -32.5t3.5 -29.5t-8.5 -16q-30 -7 -67 -4q8 -96 8 -207v-444q0 -59 -1 -97.5t-7 -101t-17 -104.5t-33 -91.5t-52 -79t-77.5 -49.5t-107.5 -20q-111 0 -178 84l-6 8q-27 36 -12 107q16 53 59 61q24 10 49 8.5t43 -22.5q28 -39 29 -41q2 -2 5.5 -7.5t6.5 -9.5t6 -4 q21 -10 36 3.5t20 35.5v15t4 20l24 47q-42 -18 -98 -18q-55 0 -101.5 25t-77 64t-53.5 91.5t-34.5 102t-16.5 100.5q-3 40 -4 116.5t-4 116.5q-10 140 -10 256v57q-23 -7 -42 -3.5t-18 24.5q0 8 -3 40t-2.5 56.5zM225 1307q0 31 20.5 61.5t49.5 40.5h-2q12 6 26 6 q31 0 55.5 -22t24.5 -52q0 -47 -27.5 -75.5t-74.5 -28.5q-32 0 -52 19t-20 51zM440 1323q0 37 28.5 62.5t66.5 25.5q35 0 62.5 -28.5t27.5 -63.5q0 -36 -27.5 -57t-65.5 -21t-65 22.5t-27 59.5z" />
<glyph unicode="&#x152;" horiz-adv-x="1044" d="M43 1040q3 64 13.5 121t33.5 114t57 97.5t89 66t124 25.5q68 0 139.5 -29t123.5 -77q118 -113 118 -389q0 -108 -16 -326q-1 -34 -9.5 -96t-10.5 -78q-2 -21 -3.5 -61.5t-4.5 -72.5t-11 -61q-31 -125 -120 -199.5t-216 -74.5q-90 0 -159.5 54t-103.5 134.5t-34 167.5 q-22 255 -10 684zM229 475q0 -17 15 -115q2 -8 4 -23.5t5 -28t9 -23.5q17 -32 47 -50t66 -18q41 0 86 29q33 25 53.5 134.5t25.5 200t5 160.5q0 27 -4 81t-4 81q0 25 1 74t1 74q0 92 -23 133l2 -2q-21 37 -59 60.5t-80 23.5q-47 0 -78 -31h-2q-9 -9 -16 -20.5t-13 -28 t-8.5 -26t-7.5 -30t-6 -24.5v4q-5 -15 -7 -38.5t-2 -41t0.5 -46t0.5 -38.5q0 -58 -1 -173t-1 -173q0 -20 -4.5 -61.5t-4.5 -63.5zM416 1379q4 36 4 38q0 40 12 53t49 9l103 -9q68 -4 200 6t195 7q15 2 55 -4q8 -2 25 -2.5t29.5 -1.5t24.5 -8t15 -21q8 -35 -10.5 -114 t-13.5 -118q4 -31 -7.5 -42t-45.5 -13h-7h7q-100 0 -117 17q-6 11 -6 16.5t4.5 18t5.5 16.5v26q-108 -3 -213 -12q0 -69 -11.5 -205t-11.5 -207q0 -9 3 -30q162 18 210 18q16 0 43.5 -3t32.5 -3q8 -23 21.5 -82.5t13.5 -81.5t-14 -33q-31 -20 -301 -20v-19q0 -30 4.5 -84.5 t5.5 -76.5q0 -9 0.5 -47t3 -62t8.5 -47q84 -14 244 -14q0 3 -1 8t-1 8q-1 7 -4 20t-4 20.5t-0.5 17t4 14.5t12.5 8.5t23 3.5q20 1 62.5 14.5t68.5 10.5q15 0 31 -52t24 -115t3.5 -116.5t-24.5 -56.5q-25 -2 -77 -2q-114 -9 -371 -13l-164 -6q-8 0 -35.5 -4t-48.5 -3t-31 11 q-3 5 -5 12.5t-2 13.5t0.5 15.5t0.5 12.5q-13 68 -14 79q-3 31 0 62q17 4 82 8l16 4q-4 98 -4 129q0 120 -4 358t-4 357q0 41 1 118t1 115l-74 4q-17 3 -21.5 23t-0.5 56z" />
<glyph unicode="&#x153;" horiz-adv-x="1048" d="M27 432q0 54 1.5 96.5t8 107t17.5 112.5t33.5 101.5t53 88t77.5 57.5t106 23q64 0 112.5 -21t78.5 -55.5t49 -83.5t26.5 -99.5t7.5 -109.5q0 -31 -3 -94t-3 -94t5 -91t5 -91q0 -107 -44 -173t-142 -98q-50 -16 -88 -16q-37 0 -80 16q-51 18 -88.5 42t-61 57t-38.5 65.5 t-22 79t-9 85t-2 95.5zM201 461q0 -30 2 -60t9.5 -72.5t20.5 -74t37 -54t56 -22.5q77 0 77 150q0 66 -3 196t-3 195q0 22 -0.5 31t-4 26t-13.5 26.5t-27 14.5q-6 2 -22 2q-35 0 -60.5 -30.5t-38 -70.5t-20 -96t-9 -90.5t-1.5 -70.5zM420 397q0 59 4 117t14 135t31.5 141 t53 120.5t82.5 89t116 32.5q291 0 291 -409q0 -21 -2 -64t-2 -65q0 -48 -41 -50h-54q-38 0 -113.5 4.5t-113.5 4.5q-28 0 -90 -4q4 0 4 -9q0 -122 31 -190q17 -37 64.5 -58t86.5 -12q23 5 25.5 10.5t-10.5 22.5q-6 7 -18.5 19t-19.5 19.5t-13 19t-4 24t12 27.5q46 65 168 49 q87 -11 65 -150q-17 -101 -96.5 -165t-181.5 -64q-81 0 -139.5 36t-90 97t-45.5 128.5t-14 143.5zM629 637h24q19 0 57 -1t58 -1q53 0 68 4v14q0 41 -13 86t-37 72v-2q-25 25 -41 25q-43 0 -70.5 -36t-36.5 -77t-9 -84z" />
<glyph unicode="&#x178;" horiz-adv-x="823" d="M33 1411q-3 34 73 45t155.5 4.5t103.5 -16.5q6 -3 9.5 -14t4.5 -28t1 -30.5t-0.5 -31.5t-0.5 -21q0 -37 -66 -41q95 -290 119 -383q54 185 105 410l-31 6q-12 3 -16.5 24.5t-5.5 48t-3 31.5q-3 40 2 64q18 0 163 2t155 2q9 0 15.5 -1t9.5 -5.5t5 -6t1.5 -9.5t-0.5 -10 t-2.5 -12.5t-2.5 -11.5v5q0 2 2 2l-2 -2v-5q-1 -9 2 -29t5.5 -39t2 -37t-11.5 -27.5t-32 -6.5q-32 4 -48 4q-3 -7 -7 -21.5t-7 -21.5l-123 -391q-5 -18 -26 -79.5t-38 -115t-20 -75.5q-6 -52 -6 -111.5t3 -133.5t3 -114v-30h5q21 0 31 -1t21 -7.5t11 -20.5q2 -38 -12 -133 q-2 -19 -13 -27t-21.5 -8.5t-30.5 2t-28 2.5q-82 -4 -120 -4q-6 0 -21.5 -1t-22 -0.5t-15.5 4t-12 13.5t-1 27q1 17 -5.5 62t-2.5 71q8 35 55 25q-3 57 -3.5 122.5t0.5 134t1 72.5q0 24 -24.5 105t-58.5 181.5t-40 119.5v-2q-82 273 -98 330q-22 -8 -48.5 -7.5t-31.5 21.5 q-5 22 -4.5 66t-1.5 65zM195 1683q0 31 20 62t49 41h-2q12 6 27 6q31 0 55.5 -22t24.5 -52q0 -47 -28 -75.5t-75 -28.5q-32 0 -51.5 18.5t-19.5 50.5zM379 1321v2v-2zM410 1700q0 37 28 62.5t66 25.5q35 0 62.5 -28.5t27.5 -63.5q0 -36 -27 -57t-65 -21t-65 22.5t-27 59.5z " />
<glyph unicode="&#x2c6;" horiz-adv-x="727" d="M66 1206q0 29 88 112.5t137 119.5q39 28 61 28q23 0 37 -20q87 -100 217 -189l-2 3q41 -25 41 -58q0 -19 -52.5 -67t-76.5 -48q-16 0 -29 13l2 -2q-11 8 -45 38.5t-62.5 56.5t-29.5 26q-19 -16 -39.5 -33t-33 -27.5t-26 -22t-21 -17.5t-16 -12.5t-13 -9.5t-10 -5.5 t-9.5 -3.5t-8 -1q-10 0 -27.5 14.5t-40.5 40.5t-24 27h2q-3 5 -8.5 12t-8.5 13t-3 12z" />
<glyph unicode="&#x2dc;" horiz-adv-x="745" d="M72 1337q0 47 59 87t109 40q54 0 130 -39t101 -39q27 0 55.5 29t46.5 29q23 0 56 -48t33 -73q0 -41 -64 -77t-111 -36q-39 0 -92 17q-11 6 -32 16t-37.5 19.5t-30.5 19.5l2 -2q-23 10 -35 10q-32 0 -49 -12t-28.5 -23.5t-30.5 -11.5q-28 0 -55 33.5t-27 60.5z" />
<glyph unicode="&#x2000;" horiz-adv-x="978" />
<glyph unicode="&#x2001;" horiz-adv-x="1956" />
<glyph unicode="&#x2002;" horiz-adv-x="978" />
<glyph unicode="&#x2003;" horiz-adv-x="1956" />
<glyph unicode="&#x2004;" horiz-adv-x="652" />
<glyph unicode="&#x2005;" horiz-adv-x="489" />
<glyph unicode="&#x2006;" horiz-adv-x="326" />
<glyph unicode="&#x2007;" horiz-adv-x="326" />
<glyph unicode="&#x2008;" horiz-adv-x="244" />
<glyph unicode="&#x2009;" horiz-adv-x="391" />
<glyph unicode="&#x200a;" horiz-adv-x="108" />
<glyph unicode="&#x2010;" d="M70 590v108q0 54 47 54q19 0 58.5 -2t60.5 -2q8 0 79.5 1.5t136.5 2t129 -1t78 -7.5h-4l4 -2q14 0 24 -7t15.5 -19.5t9 -26.5t4 -32.5t0.5 -31.5t-0.5 -30.5t-0.5 -22.5q0 -15 -0.5 -23t-4 -18.5t-12 -15t-22.5 -4.5q-29 0 -43 2q-5 5 -190 14t-244 9q-12 0 -37.5 -3.5 t-32.5 -3.5q-3 0 -23 4h7q-24 11 -31.5 21.5t-7.5 36.5z" />
<glyph unicode="&#x2011;" d="M70 590v108q0 54 47 54q19 0 58.5 -2t60.5 -2q8 0 79.5 1.5t136.5 2t129 -1t78 -7.5h-4l4 -2q14 0 24 -7t15.5 -19.5t9 -26.5t4 -32.5t0.5 -31.5t-0.5 -30.5t-0.5 -22.5q0 -15 -0.5 -23t-4 -18.5t-12 -15t-22.5 -4.5q-29 0 -43 2q-5 5 -190 14t-244 9q-12 0 -37.5 -3.5 t-32.5 -3.5q-3 0 -23 4h7q-24 11 -31.5 21.5t-7.5 36.5z" />
<glyph unicode="&#x2012;" d="M70 590v108q0 54 47 54q19 0 58.5 -2t60.5 -2q8 0 79.5 1.5t136.5 2t129 -1t78 -7.5h-4l4 -2q14 0 24 -7t15.5 -19.5t9 -26.5t4 -32.5t0.5 -31.5t-0.5 -30.5t-0.5 -22.5q0 -15 -0.5 -23t-4 -18.5t-12 -15t-22.5 -4.5q-29 0 -43 2q-5 5 -190 14t-244 9q-12 0 -37.5 -3.5 t-32.5 -3.5q-3 0 -23 4h7q-24 11 -31.5 21.5t-7.5 36.5z" />
<glyph unicode="&#x2013;" d="M70 590v108q0 54 47 54q19 0 58.5 -2t60.5 -2q8 0 79.5 1.5t136.5 2t129 -1t78 -7.5h-4l4 -2q14 0 24 -7t15.5 -19.5t9 -26.5t4 -32.5t0.5 -31.5t-0.5 -30.5t-0.5 -22.5q0 -15 -0.5 -23t-4 -18.5t-12 -15t-22.5 -4.5q-29 0 -43 2q-5 5 -190 14t-244 9q-12 0 -37.5 -3.5 t-32.5 -3.5q-3 0 -23 4h7q-24 11 -31.5 21.5t-7.5 36.5z" />
<glyph unicode="&#x2014;" horiz-adv-x="1187" d="M76 600v96q0 20 6 35q17 31 240 31q116 0 345 -8.5t345 -8.5q26 0 41.5 -5t23.5 -12t10.5 -22t2 -28t-2.5 -38t-2 -44q0 -43 -22 -68q-107 0 -313 3.5t-316 3.5q-53 0 -155 5t-154 5q-21 0 -29 8l4 -2q-24 11 -24 49z" />
<glyph unicode="&#x2018;" horiz-adv-x="358" d="M63 1346q0 38 35 99.5t70 61.5q3 0 12 -23.5t13 -25.5q4 -7 -3 -17t-18.5 -21.5t-13.5 -18.5l45 12q38 11 60 -19.5t22 -74.5q0 -43 -32 -80t-75 -37q-48 0 -81.5 47t-33.5 97z" />
<glyph unicode="&#x2019;" horiz-adv-x="45" d="M-96 1434q0 31 16 53v-2q21 41 72 41q46 0 79 -36t33 -81q0 -37 -12 -74v2q-10 -30 -30 -56t-46 -26q-20 0 -41 39q0 6 7.5 14.5t17.5 18t14 14.5q-54 -18 -82 14.5t-28 78.5z" />
<glyph unicode="&#x201a;" horiz-adv-x="358" d="M66 127q0 40 34 67t74 27q46 0 78.5 -38.5t32.5 -84.5q0 -52 -33 -97.5t-82 -45.5q-14 0 -29 6q-20 32 -20 57q0 4 1 7t1 4l12 6q-30 11 -49.5 36t-19.5 56z" />
<glyph unicode="&#x201c;" horiz-adv-x="495" d="M8 1346q0 38 34.5 99.5t68.5 61.5q4 0 13 -23.5t13 -25.5q3 -7 -4.5 -17t-19 -21.5t-13.5 -18.5l45 12q38 11 61 -20t23 -74t-32.5 -80t-75.5 -37q-48 0 -80.5 47t-32.5 97zM264 1346q0 38 34.5 99.5t68.5 61.5q5 0 14 -23.5t12 -25.5q3 -7 -4 -17t-18 -21.5t-13 -18.5 l43 12q38 11 61 -20t23 -74t-32.5 -80t-75.5 -37q-48 0 -80.5 47t-32.5 97z" />
<glyph unicode="&#x201d;" horiz-adv-x="563" d="M31 1552q0 32 16 54v-2q24 41 72 41q46 0 79 -36t33 -81q0 -44 -12 -74v2q-10 -31 -30 -57.5t-46 -26.5q-20 0 -41 39q0 7 7.5 16t18 18.5t13.5 14.5q-53 -22 -81.5 12t-28.5 80zM270 1552q0 30 17 54v-2q24 41 71 41q46 0 79.5 -36t33.5 -81q0 -44 -12 -74v2 q-10 -31 -30 -57.5t-46 -26.5q-20 0 -41 39q0 7 7.5 16t18 18.5t13.5 14.5q-53 -22 -82 12t-29 80z" />
<glyph unicode="&#x201e;" horiz-adv-x="499" d="M31 104q0 32 16 54v-2q21 41 72 41q46 0 79 -35.5t33 -79.5q0 -46 -12 -74q-10 -30 -30 -56t-46 -26q-20 0 -41 39q0 6 7.5 14.5t17.5 18t14 14.5q-29 -10 -50 -5t-34.5 21.5t-19.5 36t-6 39.5zM270 104q0 30 17 54v-2q21 41 71 41q46 0 79.5 -35.5t33.5 -79.5 q0 -46 -12 -74q-10 -30 -30 -56t-46 -26q-20 0 -41 39q0 6 7.5 14.5t17.5 18t14 14.5q-53 -20 -82 13.5t-29 78.5z" />
<glyph unicode="&#x2022;" horiz-adv-x="446" d="M66 727q0 67 38 109.5t103 42.5q55 0 96 -27q30 -19 49 -50t19 -63q0 -62 -48.5 -92.5t-113.5 -30.5h-23q-46 0 -83 32.5t-37 78.5z" />
<glyph unicode="&#x2026;" horiz-adv-x="722" d="M25 123q0 41 27.5 71t68.5 35v-2q46 1 74 -29.5t28 -76.5q0 -41 -23.5 -72t-64.5 -31q-45 0 -77.5 30.5t-32.5 74.5zM258 123q0 41 28 71t70 35v-2q46 1 73.5 -29.5t27.5 -76.5q0 -41 -23.5 -72t-64.5 -31q-45 0 -78 30.5t-33 74.5zM504 123q0 41 27.5 71t68.5 35v-2 q46 1 74 -29.5t28 -76.5q0 -41 -23.5 -72t-64.5 -31q-45 0 -77.5 30.5t-32.5 74.5z" />
<glyph unicode="&#x202f;" horiz-adv-x="391" />
<glyph unicode="&#x2039;" horiz-adv-x="645" d="M68 539q0 21 16 47l235 344l-2 -2q66 112 119 112q21 0 39 -9t38.5 -23.5t33.5 -20.5l14 -16v-4q0 -25 -67 -127.5t-134 -199.5t-67 -108q0 -22 110.5 -201t141.5 -210q-5 -18 -30.5 -58.5t-39.5 -50.5q-28 -20 -45 -20q-14 0 -28 8t-19 13t-18 20q-25 28 -50.5 62.5 t-56.5 85t-45.5 74t-51.5 89t-40 70.5h2q-55 74 -55 125z" />
<glyph unicode="&#x203a;" horiz-adv-x="643" d="M66 973q4 23 56 52.5t77 29.5q4 0 11 -8t14 -17l7 -10q40 -47 179 -249.5t149 -233.5q2 -6 2 -25v-31q-17 -20 -88.5 -138.5t-137 -228.5t-69.5 -114q-17 -10 -37 -10q-11 0 -23.5 3t-21.5 6.5t-22.5 11t-19.5 11.5t-20 13.5t-18 11.5q-2 2 -2 12q0 23 24 75t50.5 98.5 t62 106t42.5 71.5l32 57q13 21 15 20q0 38 -62.5 148.5t-99.5 157.5l-45 55q-46 79 -55 125z" />
<glyph unicode="&#x205f;" horiz-adv-x="489" />
<glyph unicode="&#x20ac;" horiz-adv-x="704" d="M33 606q0 95 5 189t19 210t44.5 217t74.5 164q44 62 113.5 98t144.5 36q38 0 70 -11t50.5 -23t53.5 -40q101 -71 131 -148q13 -53 11 -71q0 -69 -58 -121q-38 -38 -98 -41.5t-96 39.5q-8 8 -10.5 36.5t-4.5 33.5q-15 44 -28 65q-46 65 -97 35q-32 -19 -51 -59.5 t-23.5 -71.5t-8.5 -80q-1 -10 -1 -14q-4 -24 -4 -69v-56l-6 -160q-1 -31 -4.5 -133.5t-3.5 -157.5q0 -206 94 -223q21 -3 33 9.5t18 32t11.5 40t19.5 36t37 17.5q85 5 155.5 -57t39.5 -148q-24 -70 -100.5 -117t-153.5 -47q-87 0 -155 39t-109 99t-67.5 141t-36 157 t-9.5 154zM137 625q0 71 43 71q5 0 14.5 -2t14.5 -2h221q194 0 201 -24q2 -18 2 -62v-18q0 -18 -1 -26.5t-6 -16.5t-16 -8q-99 0 -299 4q-115 5 -149 12q-13 0 -19 25t-6 47zM152 838q0 21 4 59.5t10 42.5h51q36 0 106.5 -3t106.5 -3q59 0 191 12q20 0 20 -63q0 -75 -14 -95 q-78 0 -234 3.5t-235 3.5q-6 0 -6 43z" />
<glyph unicode="&#x2122;" horiz-adv-x="929" d="M59 1413q-6 32 4 72q3 24 35 24q16 0 43.5 -1t40.5 -1q22 0 63 1t60 1q2 0 17.5 0.5t17.5 -0.5q22 -3 25 -26q4 -46 4 -64q3 -28 -25 -28h-25h-30q-4 -28 -4 -29v-53q1 -25 1 -71.5t1 -84.5t4 -72q3 -22 8 -112q0 -33 -2 -47q0 -21 -18 -27q-62 -12 -97 8l-6 8q2 18 2 64 v98q-4 82 -4 117q4 20 0 99.5t-4 99.5q0 1 -1 1q-1 1 -1 5q-17 4 -72 4h-18q-16 0 -19 14zM412.5 1385q2.5 77 1.5 102q0 1 1 3t1 3q2 1 7.5 4.5t8.5 3.5q13 0 40.5 -1t43.5 -1l111 -244q23 19 66.5 99.5t56.5 122.5q46 13 81 10q25 0 25 -25q0 -20 1 -55t1 -55 q-4 -78 -4 -113q0 -57 2 -88q0 -53 10 -125l8 -108q0 -27 -22 -27q-62 -4 -86 -4h-18q-11 3 -15 14q-4 20 -4 25q0 18 1 51t1 51q0 19 -2 57t-2 60q-8 -11 -12.5 -23t-8.5 -27t-6 -22q-11 -26 -22 -67q-10 -6 -19 -6.5t-19 2t-15 2.5q-10 21 -32.5 77t-39.5 88 q-2 -14 -2 -24v-74q0 -8 -1 -26t-1 -27v-70q0 -1 -6 -43q0 -18 -19 -18l-92 -4q-1 0 -4 2.5t-6 3.5q0 3 -1 10.5t-1 11.5q-4 55 -5.5 123t-0.5 123t0 123q-4 28 -1.5 105z" />
<glyph unicode="&#x25fc;" horiz-adv-x="1095" d="M0 0v1096h1096v-1096h-1096z" />
<glyph unicode="&#xfb01;" horiz-adv-x="987" d="M55 948q0 43 15 109q81 0 120 2q3 213 136 321q46 34 107 56t128.5 21t112.5 -32q39 -28 48.5 -76.5t-9.5 -91.5q-32 -77 -133 -92q-26 -5 -42 8t-22.5 32t-20 35.5t-32.5 16.5q-15 0 -27.5 -7.5t-21 -23t-14.5 -30.5t-10 -38t-6 -36t-4.5 -35t-2.5 -26q33 -2 100 -2 q16 0 26.5 -6.5t16 -14t8 -24t2.5 -24v-27.5q0 -55 -20.5 -79t-55.5 -24t-83 4v-18q0 -44 7 -140t14 -169.5t19.5 -205t14.5 -151.5q23 8 42.5 6t23.5 -20q12 -95 14 -139q1 -26 -25 -30t-51 5q-44 4 -60 4.5t-64 -3t-60 -3.5q-9 0 -26 -3t-27.5 -4.5t-20.5 3t-12 18.5 q-3 20 -6.5 60.5t-6.5 60.5t19 39q4 6 11.5 6t18 -3t15.5 -3q0 66 -3 136.5t-9.5 175.5t-8.5 137q-4 17 -0.5 95t3.5 95q0 28 -3 55q-69 3 -122 17q-13 23 -13 63zM596 64.5q2 45.5 0 60.5q-1 19 12.5 28.5t40.5 14.5q0 18 -1 54t-1 54q0 75 3 225.5t3 225.5q0 79 -6 162 q-18 0 -24 2q-12 0 -18.5 8.5t-7.5 23t0 28t3 29t2 21.5q0 36 13 49t49 9q52 -6 151 -10q2 0 17.5 0.5t25 0t22 -2t19 -7t6.5 -14.5q1 -22 0 -62t0 -61t-11 -26t-36 -3l-4 -86l-4 -38q0 -37 -1 -106.5t-1 -106.5q0 -61 2 -182t2 -181q0 -12 2 -18q53 12 84 -2q7 -2 11 -12 t5.5 -25.5t1.5 -28.5t-1 -28.5t-1 -18.5v2v-2q0 -12 -6 -19.5t-18 -11t-22.5 -5t-26.5 -3t-23 -2.5q-20 -8 -76 -5t-75 1q-9 0 -36.5 -6.5t-45.5 -4.5t-23 19q-8 15 -6 60.5z" />
<glyph unicode="&#xfb02;" horiz-adv-x="638" />
</font>
</defs>
</svg>
