<?xml version="1.0" standalone="no"?>
<!DOCTYPE svg PUBLIC "-//W3C//DTD SVG 1.1//EN" "http://www.w3.org/Graphics/SVG/1.1/DTD/svg11.dtd" >
<svg xmlns="http://www.w3.org/2000/svg">
<metadata></metadata>
<defs>
<font id="lunchboxslabregular" horiz-adv-x="735" >
<font-face units-per-em="2048" ascent="1622" descent="-426" />
<missing-glyph horiz-adv-x="473" />
<glyph horiz-adv-x="0" />
<glyph horiz-adv-x="682" />
<glyph horiz-adv-x="0" />
<glyph horiz-adv-x="0" />
<glyph unicode="&#xd;" horiz-adv-x="655" />
<glyph unicode=" "  horiz-adv-x="473" />
<glyph unicode="&#x09;" horiz-adv-x="473" />
<glyph unicode="&#xa0;" horiz-adv-x="473" />
<glyph unicode="!" horiz-adv-x="313" d="M55 1528q13 5 62.5 7t94 1t44.5 -4q-2 -31 -0.5 -312.5t-7.5 -484.5q-18 -504 -37 -504q-4 0 -25.5 -3t-35.5 -4t-21 1v39q-2 5 -9 117.5t-14 271.5t-10 269l-4 110q0 3 -1 12.5t-2.5 24t-2.5 27.5q-3 24 -4 82.5t-4 87.5zM115 72q7 27 24.5 45t44.5 14q52 -5 68 -48 t-10.5 -80t-75.5 -26q-27 6 -42.5 38t-8.5 57z" />
<glyph unicode="&#x22;" horiz-adv-x="303" d="M57 1468q0 17 9 17q27 10 51 -2q2 0 12 -13q8 -25 8 -71q-4 -56 -8 -72q0 -10 2 -10q7 -18 -2 -27h-33l-24 8l-5 25t-4 33v51l-2 4q-4 12 -4 57zM165 1430q0 8 3 16q5 5 0 27q0 13 8 16h27h20h6q14 -2 17 -7t2 -28q-9 -36 -2 -65v-15q-3 -8 -2 -24.5t-2 -24.5l2 -6 q6 -21 -8 -21q-34 -9 -60 0q-2 2 -10 2q-3 27 2 35q0 3 1 6.5t1 6.5q0 8 -1 25t-1 26q0 4 -1.5 13.5t-1.5 17.5z" />
<glyph unicode="#" horiz-adv-x="1126" d="M55 934v84l6 6h1q2 -3 6 -4q8 0 213 8q4 62 4 121q4 132 4 201v39v94h51h27h28q29 4 37 2q0 -180 -26 -453q70 -4 133 -4q35 0 176 -6q0 212 4 440q8 2 72 2h14q45 0 45 -6q0 -4 -6 -111t-6 -251q0 -23 -7 -78q147 0 234 -4v-25l4 -98q-7 0 -70.5 -1t-105 0t-74.5 5 l6 -35q0 -7 -1 -86.5t-1 -183.5l224 6q8 -31 8 -84v-16q0 -23 2 -25l-226 -4q-4 -19 -3.5 -223.5t-4.5 -220.5q-1 -3 -2.5 -7t-9.5 -12.5t-19 -12.5t-32.5 -1t-48.5 16q-15 40 -8 140.5t16 210.5t2 114q-155 14 -344 4q0 -209 14 -477h-7q-6 1 -15.5 1t-21.5 0.5t-23 0.5 t-22 -0.5t-17 -1.5q-9 0 -11 2l11 -2q0 24 -11 328q0 65 -4 147q-17 6 -99 1.5t-99 -1.5q-2 10 -6.5 22t-6 21t-2.5 27v14q1 10 20 16.5t56 9t61 3t67 0.5h13v125q0 57 5 215q-14 2 -72 -4.5t-103.5 -6t-48.5 18.5zM377 580h139q89 0 207 4v106q0 147 -2 213q-94 10 -248 23 q-41 0 -78 4q-17 -258 -18 -314v-36z" />
<glyph unicode="$" horiz-adv-x="780" d="M55 1163q0 41 12.5 92t30.5 84q71 109 213 146q0 5 1 11l1 7q0 2 -1 13.5t-1 17.5q0 5 -1 15t-1.5 16t-1.5 14t-0.5 10t0.5 4q28 11 88 11h17q36 0 43 -7l-4 -90l-5 -18q0 3 19.5 -3.5t41.5 -15t25 -8.5h-2q6 -4 32.5 -19t39.5 -26q48 -42 68 -104l20 -53 q14 -39 -0.5 -77t-54.5 -50q-44 -12 -74 6q-12 7 -18 18.5t-10 27.5t-7 23l-16 35q-4 9 -4 47q-5 35 -19 45q-8 5 -26 12t-19 7q3 -34 3 -71.5t-1.5 -84.5t-1.5 -74v-82q0 -98 -8 -174l-4 -80q71 -59 131 -116q129 -137 156 -248q8 -31 8 -66t-8 -71q0 -2 -2.5 -16.5 t-3.5 -18t-3.5 -16.5t-3.5 -17.5t-4.5 -16t-6 -17.5t-6.5 -16t-8.5 -17t-10 -16t-11.5 -17h2q-31 -33 -79 -63.5t-93 -41.5h2q-7 -2 -53 -8l-4 -35q-35 -18 -108 -18h-5q-14 14 -14 55l-20 4q-18 0 -29 11q-8 3 -23 14q-1 1 -22 12t-29 19q-9 8 -22 24.5t-19 22.5 q-32 36 -39 53q-32 55 -30 98q0 26 17.5 41.5t49.5 28.5q45 13 80 -14q29 -18 29 -70q0 -45 8 -68q7 -16 21 -25.5t30 -2.5q6 3 8.5 7t3 14.5t0.5 12.5q3 34 3 60q3 34 4 71.5t1 85.5t1 74v162v96l-43 39l-41 35q-113 84 -152 170q-37 79 -37 180zM164 1092 q7 -43 30.5 -75.5t63.5 -68.5l-2 4l18 -22q29 -32 52 -53q-2 67 -7 245t-8 252q-43 -12 -84 -57q-41 -44 -57.5 -104t-5.5 -121zM428 639q0 -51 4 -137q0 -28 2 -80t2 -80q0 -38 -2 -61q-2 -33 -2 -93v-63v-2q2 1 7 2t11.5 3t12.5 5h-2q68 25 100.5 76t32.5 115 q0 84 -45 155q-47 79 -121 160z" />
<glyph unicode="%" horiz-adv-x="1482" d="M55 1096q0 88 25 165.5t74.5 129.5t113.5 55q18 2 49 2q80 5 148 -66t104.5 -179.5t36.5 -221.5q0 -134 -60 -221.5t-181 -87.5q-51 0 -82 8q-56 12 -98 47t-67 86t-38.5 102t-20.5 109q-4 18 -4 72zM143 1024q0 -4 1 -12t1 -11h2q6 -71 42 -138t102 -83q50 -11 91 2.5 t64.5 43.5t40.5 70.5t19.5 82.5t-0.5 80q-4 45 -14.5 86t-30.5 84t-56 71.5t-83 34.5q-46 0 -81.5 -29.5t-54.5 -77t-28.5 -93t-12.5 -91.5h-2v-20zM438 -53q-2 66 35 133l27 65q96 267 267 754t177 537q1 5 3 16t3.5 17t4 14t7 12t11.5 6q32 4 67 4q51 0 62 -4 q-125 -392 -256 -790l-236 -740q-8 -18 -86 -18q-84 0 -86 -6zM905 418q0 95 21.5 170.5t73 125.5t126.5 50q69 0 150 -37q85 -46 118 -126.5t33 -192.5q0 -63 -16 -189q-12 -106 -78.5 -176t-158.5 -70q-72 0 -134 45q-60 40 -97.5 154t-37.5 246zM1001 344q0 -53 21 -110 t67.5 -101.5t104.5 -44.5q37 0 65 22.5t43.5 60.5t23 80t7.5 87q0 52 -10.5 104t-31 98.5t-55.5 75.5t-79 29q-55 0 -97 -54.5t-50 -125.5q-9 -59 -9 -121z" />
<glyph unicode="&#x26;" horiz-adv-x="1056" d="M55 371q0 224 226 530q-8 20 -30.5 64.5t-27.5 56.5q-26 50 -38.5 76t-25 69t-12.5 82q0 21 7 56q17 86 102 146t176 52q87 -13 128.5 -72.5t41.5 -144.5q0 -96 -49.5 -203t-120.5 -170q56 -107 170 -309l123 -217q-1 3 1.5 9t6 13l4.5 9q8 19 8 33q5 14 10.5 38.5 t6.5 28.5q6 27 5.5 53t-11.5 50l-37 86q-15 29 -25.5 60.5t-5.5 67t39 44.5q41 13 80 -11q30 -18 47 -57q3 -5 3 -18.5t3 -18.5q2 -7 6 -19t6 -21t2 -19q4 -86 5.5 -161.5t-12.5 -159.5t-46 -156q29 -44 70 -113q56 -106 94 -156l4 -4q12 -10 11.5 -18.5t-19.5 -18.5l-14 -4 q-32 -16 -54 -16q-16 0 -39 26l-24 33q-23 29 -33.5 42.5t-27 46t-29.5 71.5q-68 -31 -107 -59v2l-47 -27h2q-71 -41 -149 -41q-144 0 -243 69.5t-144 186.5q-17 74 -17 113zM193 270q24 -91 110.5 -136.5t175.5 -24.5h-2q48 11 100 49t91 84q-24 49 -125 247 q-129 248 -185 287q-39 -51 -112.5 -235.5t-52.5 -270.5zM260 1233q0 -71 24 -145t74 -103q13 7 55 66.5t77 140.5t20 125q-19 46 -75.5 70.5t-108.5 -7.5q-66 -49 -66 -147z" />
<glyph unicode="'" horiz-adv-x="227" d="M55 1462q2 8 5.5 13.5t6 7.5t8 4.5t7.5 3.5q12 -4 32.5 -0.5t39.5 -5.5v-76q0 -43 16 -131q3 -14 -33 -23.5t-49 -1.5q-1 0 0 3q0 -1 -2 -3q-5 8 -15.5 103t-15.5 106z" />
<glyph unicode="(" horiz-adv-x="440" d="M55 772q0 84 2 127q8 236 97 547q4 17 8.5 42t7.5 36q14 75 27 104q2 2 34 2q43 0 80 -6q30 -10 49 -6q-17 -27 -47 -86.5t-37 -85.5q-34 -97 -61 -258q-35 -251 -35 -379q0 -104 15 -203q22 -163 46 -281t66 -227v2q19 -43 27 -53q57 -94 47 -110q-2 -3 -9 -5.5 t-20.5 -3t-22.5 -0.5h-27.5h-22.5h-17q-36 6 -76 135v-2q-9 24 -12 39v-2q-29 67 -80 244q-39 207 -39 430z" />
<glyph unicode=")" horiz-adv-x="425" d="M55 1626q60 9 138 6q12 -39 53 -127l37 -88q6 -14 11 -29t9 -27.5t8 -31t6.5 -28.5t6.5 -31.5t5.5 -29t5.5 -32t5 -30.5q31 -226 31 -392q0 -92 -9 -186q-28 -296 -116 -516l-13 -27v-2q-8 -24 -11.5 -33.5t-12.5 -27.5t-19 -26.5t-22 -10.5q-53 -5 -92 4q-5 0 0 19 l98 342q20 73 34.5 160.5t20 140.5t15.5 159q6 130 -37 351l-23 112q-15 111 -59 221q-3 9 -13 29.5t-14 32.5q-38 69 -43 98z" />
<glyph unicode="*" horiz-adv-x="579" d="M55 1423v4l8 5l130 106l-121 21h-2v4q12 64 26 92l-4 2q4 0 6 2l-2 -4l17 -6q75 -19 104 -19q7 11 0.5 53.5t-6.5 45.5q0 2 2.5 3.5t29.5 6.5t79 10l2 1q2 1 6 1q29 -106 41 -127l84 57q13 -15 36.5 -38t32.5 -35v-4q-14 -12 -30 -25t-22.5 -18.5t-14.5 -12.5t-11 -11 t-6 -8.5t-6 -10.5q74 -60 89 -54h1q-9 -19 -18 -40t-14 -31.5t-9 -16.5q-2 -5 -59 23q-53 27 -62 31q-4 -46 2 -86l7 -41l-2 -5q-3 0 -8 -1l-5 -1q-64 -14 -89 -7.5t-25 59.5l8 65q-27 -16 -58.5 -45.5t-58.5 -38.5q-2 -4 -4 -3.5t-4 5.5v-2l-37 53l-31 39q-2 0 -2 2z M455 1681v2q3 1 3 0t-3 -2z" />
<glyph unicode="+" horiz-adv-x="690" d="M57 713q0 18 82 18h21q34 0 88 4l45 4l-8 64q-6 35 -6 110q0 54 2 54q32 16 51 16q24 0 43 -14l4 -80q4 -74 0 -103l-2 -47q8 -3 17 -3t46 2.5t66 2.5q20 0 59 1t53 1h9q6 -24 6 -67q0 -45 2 -45q-65 -15 -250 -10q12 -63 12 -142q0 -50 2 -73q0 -29 -20 -29 q-21 0 -35 -2q-8 0 -20 -4q-21 -3 -21 10q0 16 -2 51t-2 55q0 77 -6 134q-33 -5 -82 -5h-61h-89q-7 57 -4 97z" />
<glyph unicode="," horiz-adv-x="284" d="M57 74q5 37 43.5 56t75.5 -1q44 -30 51 -84q4 -75 -43 -106q-1 0 -8.5 -5t-11.5 -7.5t-13.5 -7t-13.5 -4t-12 0.5q-13 21 -10 33q4 3 13.5 5.5t18.5 6.5q27 12 27 45q-27 -15 -54 -11t-46.5 27t-16.5 52z" />
<glyph unicode="-" horiz-adv-x="647" d="M55 628q-2 58 15 64q2 1 4 0l49 -6q11 0 32.5 -1t34.5 -1h398q5 -2 2.5 -64.5t-4.5 -64.5q-10 2 -33.5 2t-54 -0.5t-76.5 2.5l-129 6q-25 0 -116 4t-103 4q-16 0 -19 55z" />
<glyph unicode="." horiz-adv-x="262" d="M59.5 34q-12.5 37 6.5 71.5t57 39.5q-2 -2 -6 -2h4q57 8 77 -43q18 -44 -5 -85q-27 -46 -80 -29q-41 11 -53.5 48z" />
<glyph unicode="/" horiz-adv-x="714" d="M55 -29q23 114 280.5 817.5t272.5 710.5q19 8 54 4q7 0 11 -1t7 -1.5t4 -3t1 -4t-1.5 -6t-3 -8t-5 -10.5t-5.5 -13v-10q-6 -9 -6 -19q-4 -11 -145.5 -402.5t-261 -716t-128.5 -328.5q-22 -3 -37.5 -4.5t-36.5 -4.5z" />
<glyph unicode="0" horiz-adv-x="886" d="M55 885q0 59 6 127v-2q6 59 11 94.5t17.5 87.5t30 86.5t48.5 70.5t72 60q11 6 23.5 11t21 7.5t23.5 5l21 3.5t23.5 3t22.5 3l65 4q41 8 92 8q72 0 113 -27q55 -32 93.5 -85t57 -120t27.5 -137.5t7.5 -154t-5.5 -151.5t-9 -148t-5 -127q0 -89 -9 -161t-21 -120.5 t-34.5 -87t-40.5 -59t-47.5 -37.5t-46.5 -22.5t-48 -14t-42 -12.5q-150 -33 -262 30q-42 22 -72 55t-46.5 63.5t-28 80.5t-15.5 82.5t-9 93.5l-3 33l-12 143q-19 198 -19 314zM190 1010q6 -6 6.5 -204.5t10.5 -402.5t39 -225q68 -73 194 -84q79 -5 136 15.5t90 89.5 q5 47 18 165t19 180t12.5 168.5t4 178.5t-14 158t-33.5 155q-1 5 -4.5 23.5t-6.5 27.5t-13 22t-25 21q-46 24 -80 29q-142 -7 -187.5 -15t-68.5 -26l-2 2l-6 -12l-7 -6q-50 -55 -66 -115.5t-16 -144.5z" />
<glyph unicode="1" horiz-adv-x="407" d="M55 1247q16 33 68 111q42 59 65 112q15 5 31 5q36 0 78 -11v-139q-12 -167 -12 -500q0 -266 2 -389q4 -242 4 -387q4 1 15 1t16 1q2 0 7.5 1.5t10.5 1.5t8 -3q6 -6 6 -28q0 -21 4 -33q-29 -4 -60.5 -4t-70.5 2t-61 2q-15 0 -18 4q-2 2 -5 8q-7 10 -4 26.5t19 22.5 q7 3 24.5 2t24.5 2q-6 174 -6 443q0 40 1 117t1 114l4 596l-51 -84q-4 -10 -14.5 -25.5t-12.5 -15.5q-17 6 -74 47z" />
<glyph unicode="2" horiz-adv-x="753" d="M55 119q0 89 37 186.5t84 171.5q16 23 52 69.5t53 69.5q6 7 33.5 40t36.5 44t32 40.5t33.5 47t26.5 44.5t26 52t18 52q2 6 11.5 36t13 40.5t11 37t10 41.5t5.5 36t3 38q0 116 -101 174q-37 19 -84 19q-78 0 -104 -35q-23 -31 -23 -104q0 -51 -4 -66q-4 -18 -13.5 -25 t-29.5 -12q-32 -5 -62.5 6.5t-43.5 38.5q-20 37 -10 101q16 58 65.5 110t116.5 90v-2q54 23 100 23q52 0 119 -27q178 -90 178 -313q0 -208 -151 -416q-18 -28 -95 -123q-55 -69 -96 -127v2q-39 -57 -84.5 -176.5t-38.5 -179.5q52 -17 160 -17q156 0 252 7q0 10 -4 22 q-9 21 -6 41q85 15 110 -2l2 -170q-5 -4 -24 -4q-21 -6 -122.5 -2.5t-119.5 0.5q-223 0 -352 6q-21 51 -21 115z" />
<glyph unicode="3" horiz-adv-x="851" d="M63 1464q0 11 25.5 14.5t143.5 10.5q81 5 135 8l213 6q48 0 71 -18q4 -4 -16 -39l-68 -115q-80 -150 -155 -248l53 -18q40 -15 90 -45t113.5 -91t93.5 -130q35 -87 35 -262q0 -128 -23 -205q-30 -93 -100 -201v2q-55 -72 -152 -125h2q-51 -26 -116 -26q-41 0 -72 8 q-24 -5 -65 18t-82 62.5t-76 90t-47.5 101.5t2.5 96q13 30 50.5 44.5t74.5 3.5q45 -16 66.5 -62t21.5 -98v-21v-22t1 -20t2.5 -21.5t4.5 -18t8 -18.5t11.5 -14.5t16 -14.5t21.5 -10q82 -29 153.5 25t112.5 139q63 152 66 330v16q-5 130 -88.5 231t-208.5 121q-14 3 -29.5 4 t-35.5 1t-31 1q-79 5 -105 9q19 43 162 243q86 121 115 189q-142 12 -209 6q-18 -2 -55 -2l4 -35q4 -51 -7 -59.5t-71 -8.5q-12 0 -21 27t-16.5 71t-9.5 52q-1 2 -5 8.5t-4 9.5z" />
<glyph unicode="4" horiz-adv-x="831" d="M55 496q356 711 400 850q6 24 24 58t31 34l100 -4l15 -398q0 -21 1 -52t1 -42v-338q42 -5 73 -2q66 13 76 0v-84q-1 -7 -10.5 -8.5t-30.5 0.5t-30 2q-84 0 -84 -4q3 -18 -1 -98.5t-9 -179t-5 -142.5q61 9 66 2q9 -12 3.5 -46t-22.5 -34t-86 -6q-2 0 -25.5 -2.5t-27 -2 t-27.5 2.5q-11 2 -15 13t-6.5 29t-8.5 28q3 3 7.5 4t10 1t8.5 1q28 4 33 4q2 42 8.5 150t6 167t-10.5 101q-3 0 -79.5 0.5t-146.5 1t-143.5 -1t-95.5 -4.5zM238 588h51q147 0 231 8q19 75 19 305q0 18 0.5 98.5t0.5 123t-3.5 99.5t-10.5 87q-73 -166 -183.5 -440.5 t-104.5 -280.5z" />
<glyph unicode="5" horiz-adv-x="745" d="M57 270q6 67 62 97q26 14 58.5 16.5t60.5 -10.5q57 -35 65 -70q1 -23 1 -29.5t-6 -29t-7 -29.5q-7 -28 -2.5 -50t30.5 -34q28 -14 45 -16.5t50 6.5q86 37 114 135q6 17 9.5 37t5.5 34.5t3 38t1 34v38.5v35v23q0 91 -26 195.5t-75 162.5q-75 78 -204 78q-56 0 -115 -21 q-21 -3 -21 -10q-7 39 -24 402q0 10 -1 23t-1 17v13q-2 34 5.5 51.5t31.5 17.5q54 -4 171 -2.5t239.5 -1t125.5 -12.5q6 -16 9.5 -39t5.5 -51t4 -41q0 -11 -3 -14.5t-16 -8.5q-30 -12 -67 -12q-24 1 -32 25t-3 53h-6q-68 0 -107 2q-41 2 -121 2q-56 0 -71 -4 q-45 -6 -50 -41.5t15 -139.5q9 -57 14 -91q5 0 28 -1t30 -1q41 -2 62 -3t57 -6t56.5 -12.5t49.5 -22t49.5 -34.5t43.5 -50t42 -69q15 -27 24 -63t12 -61.5t7 -72.5q0 -5 1 -14t1 -14q2 -27 2 -90q0 -51 -3.5 -100.5t-12.5 -105.5t-23 -104.5t-37 -94t-52.5 -77.5t-71 -51.5 t-91.5 -19.5q-59 0 -102.5 10t-80.5 35t-65.5 55t-68.5 82q-29 39 -25 106z" />
<glyph unicode="6" horiz-adv-x="727" d="M55 518q0 113 8 197q16 259 19 289v26q16 172 49 258q28 71 89 106.5t138 35.5q135 -5 216.5 -71t62.5 -177q-8 -45 -49 -60.5t-88 8.5q-23 10 -29.5 52.5t-15.5 90.5t-35 66q-18 11 -43 7q-3 0 -7.5 -1.5t-7.5 -1.5q-45 -10 -86 -49.5t-61 -85.5q-2 0 -2 -2 q-13 -31 -24.5 -163t-0.5 -169q10 6 32 20t32 19.5t31.5 14t39.5 10.5t45.5 2t59.5 -6q6 -1 25.5 -4.5t25 -5t21 -5.5t21.5 -7t18 -8.5t19 -12.5t15.5 -16t16.5 -21q57 -90 57 -252q0 -41 -14 -209q0 -4 -1 -12t-1 -12q-5 -43 -8 -67t-10.5 -65.5t-16 -67.5t-23.5 -59.5 t-34 -54.5t-47 -39.5t-62 -27.5q-24 -6 -53 -6q-88 0 -168.5 59t-118.5 145q-8 17 -13 40.5t-6.5 41t-4 48.5t-3.5 46q0 26 -4 54q-4 70 -4 102zM152 487q-4 -176 73 -294q26 -38 69.5 -65.5t84.5 -27.5q33 0 67.5 18t47.5 48q42 100 60.5 205.5t13.5 185t-18 135.5t-30 78 q-68 61 -172 61q-86 0 -140.5 -88.5t-55.5 -255.5z" />
<glyph unicode="7" horiz-adv-x="837" d="M57 1474q-1 3 2 9q5 5 52 5.5t328 0.5h333q6 0 8 -7.5t0 -19t-4.5 -24.5t-3.5 -24t2 -17l-29 -25q-3 -3 -9 -8t-10.5 -10t-8.5 -11q-40 -50 -103 -174q-59 -93 -104 -209t-69 -211t-40 -202.5t-20.5 -160t-7.5 -107.5l4 -195q18 0 40 -1t23 -1q14 -6 16.5 -17.5 t-1.5 -31.5t-4 -29q-31 3 -90 -1.5t-80 -4.5q-4 0 -28 -1.5t-38.5 0t-21.5 7.5q-11 12 -3 74q12 4 74 4q-11 138 8 313t45 275q47 201 97 345.5t82 201.5t64.5 106.5t41.5 73.5q-21 0 -92 -1t-96 -1q-171 0 -219 -4q-1 0 -6 -1t-9 -1q0 -45 -2 -68q-4 -1 -10 -1t-14 0.5 t-13 0.5t-14 -1.5t-17 -1.5t-14 3q-8 3 -11 17t-4 32.5t-3 24.5q-3 34 -12 61q-1 3 -4.5 9t-4.5 9z" />
<glyph unicode="8" horiz-adv-x="815" d="M55 426v100q3 51 11 106t24 125.5t47.5 125t73.5 75.5q-44 44 -84.5 111t-40.5 135q0 38 23 96q28 53 52 86t62 60q29 18 84 25t92 2q82 -8 153 -50t87 -106q16 -45 16 -123q0 -134 -82 -238q79 -67 117 -127q70 -131 70 -297q0 -91 -29 -210h2q-34 -128 -52 -165 q-25 -54 -91 -124q-75 -56 -199 -56q-95 0 -171.5 32t-110.5 91q-54 97 -54 326zM172 516q0 -118 18 -231q12 -166 136 -187q244 -40 290 267q11 79 11 137q0 61 -11 147q-18 87 -93.5 153t-157.5 54q-88 -12 -119 -57q-74 -88 -74 -283zM211 1176q0 -105 72 -136 q42 -22 90 -22q99 0 157 76q31 46 31 96q0 44 -21.5 84.5t-58.5 60.5q-45 25 -96 25q-53 0 -98.5 -25t-67.5 -73q0 -4 -2.5 -17.5t-4 -30t-1.5 -38.5z" />
<glyph unicode="9" horiz-adv-x="731" d="M55 1028q0 130 25 217q18 69 74.5 126t124.5 69q69 16 114 16q106 0 176 -70q54 -65 80.5 -222.5t26.5 -356.5q0 -170 -15 -341t-36 -278q-19 -96 -94 -156.5t-173 -60.5q-60 0 -120 31q-51 29 -86 76q-22 22 -39 61q-36 80 -21 123q8 39 48.5 56t86 8t66.5 -35 q5 -5 8.5 -10.5t6 -10.5t4.5 -12t3 -11.5t1.5 -12.5t1 -12t1 -13t0.5 -12q0 -2 1 -18t1.5 -21.5t3 -18t6.5 -21.5t11 -18q37 -41 98 4q46 34 74.5 141t28.5 204q0 44 -19 106q-84 -71 -205 -41q-165 39 -221 158q-24 60 -35 184q-8 73 -8 172zM162 1006q0 -95 23 -179.5 t63 -130.5q36 -36 84 -49.5t96 2.5q50 18 74 60v-2q19 27 30.5 101.5t14 128t2.5 101.5q0 38 -1.5 67t-7 67.5t-17 66t-29.5 54t-48 42t-69 19.5q-73 0 -123.5 -52t-71 -128t-20.5 -168z" />
<glyph unicode=":" horiz-adv-x="276" d="M59 649q15 46 70 60q1 0 2 -1t2 -1l-2 2h2q17 1 35.5 -11t24.5 -26q21 -48 -17 -86q-19 -25 -39 -25q-37 -2 -62.5 25t-15.5 63zM73.5 34.5q-8.5 35.5 8.5 61.5q18 26 47 33.5t53 -14.5q13 -13 23.5 -38t9.5 -48l4 4q2 0 0 -2q0 -15 -8 -23q-12 -24 -45.5 -31.5 t-56.5 5.5q-27 17 -35.5 52.5zM127 709h6h-6z" />
<glyph unicode=";" horiz-adv-x="268" d="M59 608q-4 17 3.5 40t19.5 34q13 10 37 11.5t37 -3.5q28 -7 40 -34.5t1 -53.5q-11 -30 -37 -43q-35 -20 -60 -8q-12 4 -24.5 18.5t-12.5 20.5q0 9 -4 18zM60.5 31q-10.5 38 9.5 67q32 44 80 24.5t61 -69.5q9 -41 -10 -88q-12 -28 -21 -37q-2 -2 -6.5 -8t-7 -8.5t-6.5 -6 t-7.5 -4t-8.5 0.5t-11 4q-3 22 22 50.5t19 55.5q-36 -32 -68 -26q-35 7 -45.5 45z" />
<glyph unicode="&#x3c;" horiz-adv-x="526" d="M61 696q81 120 184 271q117 173 136 192q18 18 68 -18q12 -12 22 -17l-125 -186v2q-162 -227 -162 -268q0 -29 107.5 -209.5t159.5 -243.5q-5 -7 -15 -22t-18 -25.5t-12 -13.5q-19 -17 -48 16q-29 36 -84.5 124t-108.5 175t-63 102l-10 21h2q-51 74 -33 100z" />
<glyph unicode="=" horiz-adv-x="1038" d="M74 558q-5 34 6 60q8 11 22.5 16t23 5.5t31 -2t23.5 -2.5q48 -4 221 -2t368.5 0.5t199.5 -10.5q8 -18 8 -62v-10v-11t-0.5 -10t-2 -10t-4 -7t-6.5 -5.5t-10 -1.5q-625 0 -858 18q-17 0 -22 34zM76.5 808q-0.5 28 7 56.5t18.5 28.5q87 3 382.5 -4.5t492.5 12.5 q18 -1 15.5 -61t-15.5 -68q-67 0 -351 4t-540 4q-9 0 -9.5 28z" />
<glyph unicode="&#x3e;" horiz-adv-x="598" d="M55 1262q4 18 46.5 39.5t66.5 21.5q17 0 186.5 -260.5t184.5 -290.5q4 -7 1.5 -21.5t-1.5 -21.5q-45 -67 -153 -243.5t-122 -204.5q-2 -2 -15 -29.5t-22 -32.5q-14 -11 -36.5 -5.5t-36.5 13.5t-34.5 21.5t-29.5 17.5q-7 15 54.5 123.5t129.5 219t70 118.5q11 31 -81 192 t-152 224q-4 8 -27.5 49.5t-28.5 69.5z" />
<glyph unicode="?" horiz-adv-x="708" d="M63 1151q-29 123 62 221.5t229 91.5q81 -5 150.5 -47.5t103.5 -113.5q45 -105 45 -203q0 -171 -108 -303l-53 -64q-81 -89 -115 -153q-26 -54 -51 -140q-7 -27 -2 -86q0 -44 -10.5 -56.5t-55.5 -12.5q-22 0 -33 8q0 7 -1 15.5t-1 15.5q0 12 -1 32.5t-1 28.5q0 107 27 172 q24 73 96 160l117 133q33 42 65 143q17 59 17 111q0 88 -33 158q-41 90 -131 110q-31 3 -67.5 1t-66.5 -24.5t-30 -60.5q0 -14 3.5 -50t2 -63t-11.5 -49q-11 -30 -46 -34t-59 12q-34 19 -41 47zM190 33q2 31 20.5 60t45.5 28q7 0 18 -2t31 -8t33.5 -23t13.5 -43 q-1 -23 -20.5 -38.5t-46.5 -20.5v2q-36 -13 -67.5 -2t-27.5 47z" />
<glyph unicode="@" horiz-adv-x="1146" d="M57 356q0 241 8 327q25 260 151 394q51 54 120 92q98 56 239 56q116 0 207 -45v4q102 -53 177 -157t102 -222q31 -138 31 -256q0 -100 -27 -270q-9 -56 -33.5 -113.5t-70 -105t-99.5 -50.5q-28 -4 -51 -2t-36.5 2t-24.5 6.5t-16.5 10.5t-12 14.5t-10 19t-10.5 24 t-15 28.5q-69 -52 -125 -52q-44 0 -110 39q-78 51 -114 166.5t-36 259.5q0 170 47 295q25 63 82.5 107t116.5 43q8 -1 29 -3.5t30.5 -5t24.5 -7t25.5 -13t19.5 -20.5l4 18q2 15 8 27q12 12 38 12t46 -6l21 -6l-5 -160q-2 -55 -2 -193q0 -62 -3.5 -165t-1.5 -164t14 -123 q17 -28 40.5 -36t45.5 1.5t41 27t32 38.5q32 50 44 205t6 237q-7 70 -21.5 133.5t-41.5 128.5t-73 117.5t-106 81.5q-93 39 -195 39q-180 0 -282 -113q-55 -61 -85 -138.5t-36 -130t-12 -166.5q-1 -21 -2 -32q-7 -55 -7 -184q0 -125 47 -246q5 -12 14 -45.5t19.5 -55.5 t28.5 -38q74 -71 217 -52q5 1 33 9.5t41 9.5q37 0 67 -10q36 -12 50.5 -59t-13.5 -74q-32 -27 -104 -15q-8 -3 -111 32t-117 42h2q-260 115 -260 487zM383 494q0 -59 21 -130t56 -127t92.5 -54.5t119.5 83.5l4 537q-49 71 -141 59q-48 -8 -83.5 -62t-52 -133.5t-16.5 -172.5 z" />
<glyph unicode="A" horiz-adv-x="909" d="M67 23.5q0 17.5 5 33.5t10 25q54 4 57 4q65 322 155.5 707.5t123.5 541.5h-29q-26 -4 -49 4q-1 8 -1 26t-1 26t-6 14.5t-2 15.5q6 0 16 3t12 3q11 2 34 2q16 0 38 -1q18 -1 32 -1q30 0 48 3q20 -94 70 -373q20 -140 75.5 -436t112.5 -545q12 0 14 2q12 2 31 -1t25 -9 q9 -6 6.5 -36.5t5.5 -35.5q-8 -1 -18 -1q-15 1 -35 3q-34 4 -45 4q-8 0 -74 -5q-30 -2 -48 -2q-21 0 -24 3q0 26 -8 45q-4 10 -5 14.5t2.5 8t12.5 6.5q13 4 34.5 1.5t25.5 -1.5h2q-47 176 -57.5 223t-14.5 100l-287 6q-4 -31 -18.5 -96t-18.5 -86q-5 -28 -10 -62.5 t-10 -62.5q20 3 41 0l22 -4l-4 -31q-4 -35 -2 -51q-21 0 -59 -2t-59 -2q-13 0 -37 -2t-43 -2t-35 4q-11 2 -11 19.5zM340 510q38 -4 139 -4h99l-13 98q-46 305 -98 471q-32 -72 -52.5 -153.5t-36.5 -184t-20 -121.5z" />
<glyph unicode="B" horiz-adv-x="751" d="M60 1478q2 2 3 4t3.5 2.5t4 1t5.5 1t6 0.5q13 5 102 9q47 2 78 3q28 0 43 -2q178 -20 256 -88q61 -56 80 -98q27 -55 27 -156v-6q0 -126 -123 -268q70 -70 110 -142q8 -12 14 -34t8 -39t5 -47t4 -39q0 -3 1 -7.5t1 -7.5q0 -4 1 -14t1 -14q6 -147 6 -154q0 -122 -26 -186 q-25 -64 -79 -117t-122 -76q-14 -6 -33.5 -9.5t-47.5 -4.5h-48q-4 0 -9 -1q-18 0 -48 2q-37 2 -50 2.5t-51 3.5t-39 3h-4q-65 0 -73 29q-2 25 -2 44q0 27 4 44q6 1 12 0t13.5 -3t12.5 -3q12 -1 32 0t32 0q-7 375 -14 647t-10 375.5t-3 162.5v105q-28 -4 -34 -4 q-14 -1 -24 -1.5t-16 6.5t-6 23q1 7 -3 25q-3 14 -3 20q0 4 3 8zM258 1391l8 -109q0 -91 4 -117v2q2 -18 2 -35t-2 -34q-2 -43 -2 -75q0 -46 4 -71l48 -2t36.5 -1.5t14.5 -0.5q35 2 53.5 3.5t51.5 15.5t52 39q28 37 36.5 63.5t8.5 69.5q0 41 -30 112q-13 22 -27 39t-26 29 t-32 22t-31 15t-37.5 11.5t-37.5 8.5t-46 7.5t-48 7.5zM285 340q0 -159 12 -229q22 -4 44 -4q35 -1 71 9q60 16 100 42q19 17 33 36t22 45t13.5 43t7.5 51.5t2.5 46.5t0 51.5t-0.5 45.5q0 11 0.5 43.5t0.5 48.5t-2 47t-6.5 49t-13.5 43t-21.5 40.5t-32.5 30t-46 22.5l-35 10 q-76 20 -123 20q-14 0 -26 -2v-489z" />
<glyph unicode="C" horiz-adv-x="743" d="M80 1094q5 88 32.5 163t87.5 135t146 81q27 8 60 8q54 0 124 -23.5t103 -71.5q4 -7 13.5 -20.5t15.5 -24.5t10 -22q14 -38 14 -66q0 -39 -27 -59q-34 -24 -73 -24h-8q-44 2 -78 32q-23 18 -56.5 59t-44.5 52q-24 22 -51 22q-26 0 -55 -20q-41 -35 -64 -80q-9 -19 -22 -88 q-4 -46 -4 -70q-6 -113 -10 -389q0 -58 -1.5 -172t-1.5 -172q0 -42 4.5 -73t17 -65t40.5 -56.5t70 -30.5q14 -6 32 -6t42 6q46 11 53 45q2 16 -2 57.5t4 57.5q11 34 61 39q10 1 19 1q36 0 59 -16q37 -23 47 -39q4 -7 6 -14q3 -19 3.5 -23t-6 -22.5t-7.5 -22.5 q-29 -71 -94 -113t-148 -53q-12 -1 -24 -1q-62 0 -123 26q-73 31 -115 90q-70 64 -70 446q0 211 21 517z" />
<glyph unicode="D" horiz-adv-x="806" d="M59 45q-1 7 -1 12q0 29 38 29q18 0 64 4l14 1260q-4 0 -9.5 -1t-8.5 -1q-36 0 -50 2q-3 13 4 36t7 33v39q0 1 -3.5 9t-2.5 14q62 4 84 4q30 7 69 7q16 0 33 -1q118 -4 172 -10q176 -24 221 -92q9 -13 16 -29t11.5 -28t9 -33t6.5 -30t4.5 -35t3 -31.5t2.5 -35.5t2 -32 q0 -4 1.5 -15.5t1.5 -15.5q2 -121 2 -217v-109q-2 -129 -7.5 -271.5t-5.5 -176.5q0 -74 -10 -113v2q-19 -55 -76 -127q-38 -49 -93 -66.5t-138 -25.5q-34 -5 -172 -13q-101 -6 -137 -6q-14 0 -19 1q-9 2 -12 4t-4 3.5t-1.5 6.5t-2.5 10q-2 13 -13 39zM258 213q0 -74 8 -115 q29 -4 61 -5q76 0 165 26h-3h13q58 12 84.5 52t38.5 108q5 22 8 49.5t3.5 44t1.5 54t1 48.5q0 340 14 545q1 18 1 36q0 113 -23 183q-23 69 -83 100t-136 31q-58 0 -127 -16l-17 -865v-16q0 -46 -4 -125q-6 -93 -6 -135z" />
<glyph unicode="E" horiz-adv-x="706" d="M57 1362q-1 4 -1 10q0 10 2 22q4 22 5 27q-1 5 -5 27q-2 10 -2 17q0 8 3 12q68 0 361 17q84 5 136 5q80 0 84 -12q1 -3 -1 -6q7 -31 9 -81v-22q0 -38 -4 -73q-3 -10 -37.5 -12t-43.5 3q-5 2 -8 7.5t-3.5 10t-1.5 12.5t-1 11l-17 52h-14q-31 2 -90 2q-104 0 -166 -9 q-1 -51 -2.5 -124t-2.5 -106t-2 -84.5t-1 -73.5t-1 -56.5t0 -50.5t1.5 -39.5t2 -39t3.5 -33t4 -36.5l111 11q77 14 108 14q6 -18 6 -62q0 -49 -4 -53h2q-36 -11 -100 -14q-67 0 -129 -19q-10 -100 -10 -245q0 -197 6 -258q62 -21 174 -21h82h10q0 2 -5.5 23.5t-9.5 43.5 t-1 27q17 3 38 2t50 -3.5t33 -2.5q4 -21 4 -119q0 -10 2.5 -36t1.5 -41q-12 0 -219.5 2t-218.5 2q-41 -6 -77 -6q-29 0 -55 4v51q0 5 -2.5 15t-1.5 17t7 11q18 10 65 14q-12 1098 -12 1272q-27 -9 -62 -6z" />
<glyph unicode="F" horiz-adv-x="645" d="M26 64q4 14 40 14q20 0 26 2v96q0 4 6 303.5t12.5 616.5t6.5 364q299 12 407 12q40 0 54 -2l6 -176l-27 -2q-27 -2 -37.5 -2t-29.5 1.5t-31 6.5q-11 8 -11 45q0 11 1 23q-160 -6 -189 -14q-20 -5 -35 -15q4 -42 3 -499q0 -74 -5 -121q65 -7 111 -8q31 -1 49 -1h15 q18 0 34 -3l7 -55q2 -34 -3 -50q-51 -7 -109 -7q-49 0 -102 5l-10 -498q23 5 39 5q22 0 31 -9q5 -5 7.5 -13t3.5 -19.5t1.5 -19.5t0 -21t-0.5 -15q-17 1 -42 1q-64 0 -179 -9h-5.5h-5h-4.5t-4.5 0.5t-3.5 1t-3.5 1.5t-3 2.5t-3 3.5t-2.5 5q-15 28 -15 43q-1 4 0 7z" />
<glyph unicode="G" horiz-adv-x="813" d="M55 983q0 76 11 143q0 3 1 12.5t1 12.5q11 71 34 111q45 68 121 104q91 43 162 43q60 0 127.5 -25.5t117.5 -74.5t50 -105q0 -35 -32 -54q-32 -18 -71 -18h-2q-40 1 -69 15q-21 8 -32.5 26.5t-15 38t-13 40.5t-25.5 32q-25 13 -54 13q-17 0 -36 -5q-50 -12 -84 -41 q-70 -58 -70 -172v-12q2 -7 2 -39q0 -24 -1 -62q-3 -87 -3 -98q-4 -132 -4 -196q0 -111 12 -213l4 -86l7 -111q11 -104 77 -141h-2q50 -29 105 -29q72 0 104 14q25 12 44 34t28.5 40t18 54t10 49t6.5 53q0 2 1 5l5 32q5 41 5 55.5t-6.5 58.5t-8.5 66q-28 0 -71 -3 q-29 -2 -51 -2h-20q-29 2 -63 11q-17 2 -17 59v39q138 0 260.5 -4t153.5 -4q1 -17 5.5 -45.5t4.5 -42.5q0 -15 -33 -15q-19 0 -49 5v-2l-4 -76q0 -12 1 -37t1 -39q0 -52 -8 -104q-31 -208 -147 -266l2 2q-52 -29 -137 -29q-91 0 -158 33q-111 52 -164 278q-20 100 -20 236 v180l-5 111q-6 74 -6 145z" />
<glyph unicode="H" horiz-adv-x="905" d="M57 45q30 0 60 6q37 884 37 1319q-2 14 -2 39q-52 0 -60 6q-4 4 -5.5 12.5t-0.5 15.5t0 15q0 2 -4.5 14.5t-3.5 18.5q5 3 19 3q12 0 30 -2q39 -4 49 -5h135q22 0 26.5 -5t6.5 -24v-28q1 -1 4 -4.5t4 -5.5l2.5 -5t1.5 -5.5t-2 -4.5q-10 -4 -45.5 -0.5t-48.5 2.5 q-12 -294 -12 -526q0 -75 4 -185q29 0 113 -4q83 -4 133 -5h20q38 0 72 3l33 -2l30 653v31v19q-6 -1 -18.5 -3.5t-18 -3t-16.5 1.5q0 2 -2.5 24.5t-2 25t2.5 24.5q23 4 68 4h55q30 4 59 4t58 -4q1 -5 1 -15t1 -17q0 -3 4 -11q5 -11 5 -16q0 -4 -1 -10q-9 -5 -44 -0.5 t-44 4.5q0 -10 1 -24q0 -41 -5 -115l-56 -1213q22 2 36 2q22 0 28 -4q5 -5 5.5 -19.5t-1.5 -33t-2 -21.5q-14 -3 -29.5 -3.5t-37 0.5t-29.5 1q-9 0 -33 -1t-41 -0.5t-33 3.5q-1 5 -1 17.5t-1 19.5q-1 3 -4 10t-3.5 10.5t1.5 12.5q16 2 51 2q-6 93 -6 161v28q2 76 7 195 t5 165q-17 -1 -36 -1q-48 -1 -112 5q-88 8 -126 8q-16 0 -47 -3t-47 -3q-18 -511 -21 -553h17h55q1 -8 -5 -20.5t-7 -18.5q-1 -7 -1 -18.5t-1 -18.5q-14 -2 -41.5 -2t-69.5 2q-19 1 -34 1q-55 0 -73 -11q-2 14 -2 43q-1 6 -3 20q-2 10 -1 18v5z" />
<glyph unicode="I" horiz-adv-x="362" d="M37 20q1 12 2 19.5t3.5 21t2.5 15.5q20 4 55 4q1 190 3 369t4 305.5t4 237.5t3.5 180t2.5 116.5t1 62.5t-1 5q0 15 -4 43q0 1 -1 3t-1 3h-5q-31 0 -45 2q0 2 -2.5 19t-1 30t8.5 19q3 5 25.5 4.5t25.5 -0.5q52 8 123 8q3 0 7.5 0.5t7 0.5t5 -0.5t4.5 -2.5t4 -6 q8 -14 11 -33q2 -11 -0.5 -15t-12.5 -8q-25 -11 -43 -8v-1286q0 -11 2 -23t2 -24v-6q20 4 33 4q24 0 29 -6q3 -3 3 -11q0 -12 -7 -37q-7 -26 2 -26h4q-123 0 -189 -6q-58 0 -63 12q-2 1 -2 8v6z" />
<glyph unicode="J" horiz-adv-x="794" d="M61 502q5 65 9 84q13 74 69 94q24 9 38.5 12t33.5 0t35 -18q38 -33 38 -78q0 -8 -1 -16q-9 -51 -90 -146q-20 -23 -20 -62q0 -33 15 -79q28 -102 72 -148q35 -35 80 -41q4 -1 9 -1q26 0 69 26h-4q77 38 106 143q20 84 27.5 265t13.5 780q0 41 6 88q-4 -1 -15 -3.5 t-15.5 -2.5t-14.5 2l-4 26q-9 27 -4 33q8 17 104 20h26q72 0 89 -14q1 -3 1 -13.5t1 -14.5q3 -15 3 -24q0 -4 -1 -7q-11 -4 -49 -4h-16q2 -16 2 -47q0 -67 -10 -475.5t-15 -466.5v6q-2 -6 -2 -31q0 -4 -1 -9.5t-1 -8.5q-3 -53 -6 -81t-12 -72t-27 -77t-47 -59 q-33 -33 -89 -55.5t-112 -30.5h-12q-81 0 -158 67q-68 63 -96 177q-29 129 -29 208q0 31 4 54z" />
<glyph unicode="K" horiz-adv-x="856" d="M37 1466q5 0 30.5 2t53.5 3.5t57.5 2t48.5 -2.5t19 -11q3 -16 -2 -43q0 -16 -4 -20q-4 -3 -11 -3t-15 1.5t-9 1.5h-8v-86v-56q6 -180 8 -204l6 -168q313 471 348 518q0 3 -22.5 1t-22.5 3q0 6 -3.5 22.5t-3.5 28t7 14.5q24 6 72 6q26 0 60 -2q52 -3 86 -3q27 0 42 2v-18 t-2.5 -25.5t-9.5 -14.5q-10 -6 -41 -6h-35l-145 -221q-48 -77 -92 -158t-58 -100q65 -125 334 -834q1 0 5 1t7 1t15 -1t21 -0.5t15 3.5q7 -12 7 -31q0 -22 -9 -55q-8 -7 -110 -9q-29 -1 -51 -1q-55 0 -64 4q-1 3 0 27.5t0 27.5q0 3 -1.5 12.5t-0.5 12.5h43q-17 43 -87 216.5 t-127.5 320t-76.5 209.5q-26 -31 -50.5 -64.5t-38 -52.5t-15.5 -21q0 -23 7 -252.5t7 -275.5v-90q4 0 12 1t13 1q22 8 30 0q-2 0 1.5 -17.5t7.5 -36.5t4 -20q-13 -10 -55 -12q-23 -1 -47 -2q-19 0 -39 1q-18 1 -36 1q-26 0 -51 -2v33q0 4 -3 22t-3 21q4 1 20.5 1t20.5 1 q0 203 -3 486.5t-3 317.5q0 18 -1 75t-1 91q0 76 -3 207t-3 144q-1 0 -11 0.5t-18.5 0.5t-11.5 -1q-5 41 -5 63q0 7 1 12z" />
<glyph unicode="L" horiz-adv-x="636" d="M55 1422.5q0 3.5 4 9.5q3 2 25 10q8 3 16.5 4t21 1t19.5 1q2 2 31 1t31 -1q1 0 25 3q10 1 17 1q8 0 9 -2q6 -3 9 -8.5t5 -15t4 -13.5q15 -34 2 -41q-14 -6 -53 -6l8 -1229q8 1 30 1q29 0 83 -2t89 -2q26 0 40 1q2 2 2 6q0 3 -0.5 10t-0.5 10.5t2 8t7 6.5h19h39 q27 0 41 -2q3 -16 3 -36q-1 -3 -1 -7q0 -24 -1 -38.5t-5 -44.5t-5 -40h-39v-2q-121 -7 -175 -7q-3 1 -7 1q-52 0 -94 4t-47 4q-63 0 -98 8q-7 191 -9 626q-1 145 -1 275q0 260 3 459q-20 -4 -26 -4q-3 0 -5.5 -0.5t-3.5 -0.5t-2.5 0.5t-3.5 2.5v21q-1 5 -4.5 14.5t-3.5 13z " />
<glyph unicode="M" horiz-adv-x="1058" d="M55 1354q4 8 2.5 35.5t3.5 35.5q13 5 175 5h1q22 0 59 -108q38 -110 72.5 -247.5t75 -265t66.5 -150.5q43 77 133 322q42 116 98.5 255t77.5 183q23 2 66 2q31 0 45 2q22 2 39 2q24 0 39 -4l6 -75q0 -3 2 -5q1 -2 1.5 -2.5t-5.5 -3.5q-5 -1 -23.5 1.5t-21.5 2.5h-37 q0 -141 -2 -649.5t-2 -605.5q46 4 69 4q-4 -9 -4 -39q0 -6 2.5 -23.5t1.5 -23.5q-11 -4 -112.5 -7t-159.5 -3q-6 4 -7 14t1 25t2 18t-0.5 10t-0.5 10.5t1.5 8t5.5 6.5q4 4 29 4q24 0 34 2q0 716 23 1004l-264 -699q-17 -7 -48 -7t-36 7l-10 37q-2 9 -12.5 38.5t-16.5 51.5 q-132 421 -201 621q-3 -59 -3 -146q0 -145 9 -363q15 -350 17 -562q26 3 53 0q3 -13 -1.5 -40t-4.5 -34q-8 -2 -15 -2.5t-23.5 -0.5h-35t-60 0.5t-87.5 0.5l-6 47q-6 29 -5 35h43q17 0 19 2q-5 185 -5 536v122q1 442 7 616h-25h-45z" />
<glyph unicode="N" horiz-adv-x="911" d="M57 1391q9 1 27 5t27 5q30 7 58 7q9 0 19 -1q118 -297 207 -498q77 -172 129 -337t119 -298q14 610 39 1033q-49 0 -53 4q-7 8 -13 24q-5 12 -5 29t7 27q8 4 84 4q10 -1 20 -1q94 0 97 -3l6 -72q2 -15 -41 -6q-7 2 -9 0.5t-9 -2.5q0 -204 -11 -625t-22 -614q18 2 37 0 q9 -5 8.5 -26t-6.5 -38q-5 -5 -58 -9t-61 3q-56 114 -98 229q-57 142 -125 327t-113 294t-98 201l-2 -987h2q3 -1 18.5 0t18.5 -3q10 -4 11.5 -22.5t-3.5 -30.5q-2 -7 -16 -10h-43q-53 0 -80 -2q-5 -1 -13 -3t-16 -3h-7.5h-6.5q-1 7 -1 20.5t-1 20.5q-6 22 2 30q1 1 4.5 1.5 t8.5 1.5t7 2l17 4l-4 121q-4 76 -4 296t2 497t2 341q-45 -12 -52 4q-3 3 -3 16t-1 15q0 4 -1.5 14t-0.5 15z" />
<glyph unicode="O" horiz-adv-x="747" d="M56 622v88q0 86 2 164q3 116 9 194t19.5 142t30 101t43.5 66t55.5 44.5t71.5 28.5q24 6 55 6q67 0 133 -27.5t111 -72.5q54 -46 80 -131t26 -170q0 -334 -11 -500.5t-38 -310.5q-58 -154 -151 -211h2q-75 -43 -162 -43q-85 0 -137 41q-50 37 -93 124q-39 80 -39 132v10 q-5 189 -7 325zM144 514v-11q0 -36 2 -76q3 -47 12 -110q14 -79 28 -104q24 -48 70 -74t102 -26q71 0 127 39q12 9 21.5 20.5t15.5 19.5t12.5 23.5t8.5 21t8.5 25.5t7.5 23h-2q13 45 27 180q10 54 10 602q0 95 -33 168q-29 54 -84.5 87.5t-116.5 33.5q-48 0 -88 -21h2 q-37 -26 -62 -66.5t-36 -96t-15 -89t-7 -92.5q-2 -150 -6 -293.5t-4 -183.5z" />
<glyph unicode="P" horiz-adv-x="747" d="M57 1483q31 0 47 2q42 6 43 6v-4q179 11 255 11h18q72 -2 110 -19q76 -57 109 -125q31 -69 45 -201q8 -77 8 -155q0 -58 -4 -114q-10 -136 -49 -202q-32 -60 -133 -88q-32 -11 -96 -11q-18 0 -39 1q-23 1 -44 1q-43 0 -83 -5q-6 -17 -10 -48t-5 -69t-1 -69t0.5 -64 t0.5 -37l-6 -205h8q5 -1 19.5 -1t26.5 -1.5t18 -5.5q3 -3 5 -9.5t2 -11t-0.5 -13t-0.5 -11.5q0 -1 0.5 -19.5t-0.5 -19.5q-14 -3 -29.5 -3t-35 1.5t-29.5 1.5q-51 0 -78 -2q-28 -4 -39 -4v14t-4 19q-1 2 -6 8t-8 11.5t0 8.5q4 4 26 4l29 6q0 22 -1.5 170t-3 453t-1.5 707 q-18 -3 -39 0h-3q-5 0 -6.5 1.5t-2.5 10.5q-5 42 -7 49q-7 16 -7 25q0 4 1 6zM244 702q107 -13 160 -13q16 0 26 1q73 8 102 58q36 56 51 182q6 51 6 103q0 75 -13 149q-22 125 -80 164q-30 25 -119 36q-29 4 -53 4q-50 0 -78 -16q-7 -242 -7 -419q0 -147 5 -249z" />
<glyph unicode="Q" d="M37 561q0 461 4 490q27 198 113 284q31 33 114 82q26 12 62 12q43 0 100 -18q77 -21 135.5 -69.5t87.5 -118.5q26 -73 38 -275q5 -78 5 -160q0 -135 -12 -284q-20 -241 -76 -367q5 -20 21 -57q43 -115 104 -189q23 -26 33.5 -37t33.5 -26t46 -18h17.5h18t14 1.5t15.5 4 t12.5 7.5t14.5 13q8 8 19 24t21.5 27.5t25.5 18.5q21 12 53 -4q35 -18 52 -58q11 -25 11 -51q0 -15 -4 -31q-10 -42 -47 -63q-35 -18 -88 -18q-36 0 -80 8q-103 23 -180 92t-113 168q-35 102 -43 123q-61 -61 -114 -72q-36 -8 -84 -8q-121 0 -242 90q-49 46 -64 133 q-24 153 -24 346zM137 431q0 -16 3.5 -68.5t10.5 -80t22.5 -64.5t37.5 -62q14 -20 37 -33q13 18 26 34t34.5 38.5t45 37.5t50.5 26.5t57 8.5t59 -20l21 -12q1 5 8 26v-2q7 93 16 408q6 202 6 294q0 51 -2 68v82q-3 71 -65 143q-60 60 -146 60q-49 0 -92 -23.5t-69 -66.5 q-19 -32 -30.5 -64t-15.5 -70.5t-5 -60.5v-29.5v-41.5q1 -48 1 -64q1 -35 1 -69q0 -104 -7 -208q0 -20 -2 -58t-2 -58v-71zM324 98q6 -2 22 -2q92 0 143 60q-4 4 -6 4q-18 12 -40 12q-13 0 -27 -4q-7 -2 -92 -70z" />
<glyph unicode="R" horiz-adv-x="819" d="M45 1462q7 0 31.5 5.5t32.5 5.5l2 2q21 4 71 4q36 0 88 -2q122 -5 170 -13q83 -14 131 -45q67 -40 105 -134q40 -94 44 -204q1 -25 1 -49q-1 -85 -13 -167q-16 -106 -55.5 -183t-91.5 -94q47 -37 77 -73t56 -94q26 -57 36 -143q6 -52 5 -118q0 -41 -2 -86q34 0 39 -8 q3 -3 5 -13t2 -18t-0.5 -20.5t-0.5 -14.5h-96q-8 0 -15 -1q-71 0 -81 5q-1 5 1 22.5t1 22.5q0 2 -2.5 8t-2 9t4.5 6q16 4 22 4q2 2 8 2q-16 433 -190 444l-197 8q0 -157 2.5 -254.5t4.5 -137.5t2 -56h45q3 -3 4.5 -8t2 -12t1.5 -9q9 -38 6 -55h-39q-36 -2 -68 -2h-17 q-27 0 -55 2q-38 2 -57 4q0 2 -2 24.5t-2.5 36.5t2.5 19q7 1 30.5 2t31.5 2q-8 1045 -17 1282q-43 -5 -45 8q-3 11 -5 36.5t-5 37.5q-1 2 -3.5 5.5t-2.5 6.5zM211 1368q12 -369 18.5 -492t18.5 -206q33 -2 62 -2q91 0 153 18q82 24 117 98q14 31 21 69t8 61t1 73 q0 150 -20 232q-30 110 -144 137q-97 16 -169 16q-36 0 -66 -4z" />
<glyph unicode="S" horiz-adv-x="770" d="M57 1163q0 12 4 58q11 94 98.5 161t190.5 80q22 4 44 4q64 0 130 -30q69 -28 111 -78q22 -22 37 -49q5 -8 12 -27.5t12 -28.5q16 -49 16 -85q0 -20 -5 -35q-12 -33 -56 -41q-11 -2 -21 -2q-30 0 -50 16q0 2 -2 2q-13 6 -27.5 20t-20.5 27q-8 18 -8 55q0 9 0.5 26t0 23.5 t-1.5 19t-4.5 18t-9.5 14t-16 14t-24 10.5q-33 15 -88 15q-82 -7 -138.5 -75.5t-56.5 -152.5q0 -122 150 -272l35 -33v2q6 -6 27 -26t27.5 -27t25 -25t27 -27t24.5 -26t26 -28.5t23 -27t24.5 -30.5t22.5 -31q92 -132 92 -249q0 -33 -16 -111q-32 -94 -91.5 -154t-144.5 -61 q-107 0 -184 49q-27 19 -59 51q-27 27 -39 54q-48 65 -48 114q0 28 23 51q39 40 86 40q3 -1 5 -1q50 -2 83 -51q21 -35 21 -67v-7q0 -41 20 -71q22 -34 70 -33q26 4 37 8q18 6 32 15.5t25.5 26t17 27.5t17.5 36q12 28 12 59t-12 65q-15 60 -51 117.5t-80 104t-94.5 95 t-97 99t-84 106.5t-59.5 128q-20 66 -20 138v13z" />
<glyph unicode="T" horiz-adv-x="704" d="M59 1403q-2 5 -2 9q0 7 6 11q5 5 19 2q15 3 87 3q12 0 26 -1h101.5h111.5q118 0 172 3q11 4 53 4q0 -12 6.5 -34t7.5 -32q0 -49 -4 -61q-4 -11 -9.5 -13t-19.5 -2q-3 0 -13 -1t-17.5 -1t-15.5 1t-11 5.5t0 12.5q3 12 0 26q-17 0 -49 2t-45 2h-62l-10 -1265q5 0 16 -1 t19 -1q1 -5 7 -25t6 -24.5t-1 -24.5q-11 4 -59 4q-72 0 -94 -4q-12 -4 -28 -4h-4q-19 0 -24 16q-1 4 -3 14.5t-3 18.5t0 14q14 6 45 6q3 0 8.5 1.5t8.5 1.5q-15 284 -15 456q0 60 2 107q7 157 7 272q0 156 -11 442q-70 3 -102 3l-4 -17q-2 -10 -3 -22t-2.5 -15.5t-3 -8.5 t-11 -5.5t-18.5 -1t-34 -0.5q-27 0 -27 45q-3 13 -2 39.5t-2 42.5zM78 1425h2h2h-4z" />
<glyph unicode="U" horiz-adv-x="878" d="M45 1464q0 9 18 13h13q15 0 37 -1q34 -2 47 -1q8 0 31 1t40 0.5t31 -3.5q11 -4 14 -13q3 -6 6 -28t7 -27q-9 -4 -36.5 -5t-29.5 -1q0 -63 -12 -189v2q-6 -55 -10 -170q-4 -126 -4 -192q0 -145 8 -252q2 -24 5 -68t6 -80.5t7 -68.5q0 -3 1 -8t1 -8q0 -4 2.5 -26.5 t3.5 -29.5t4 -26t6.5 -30t9.5 -26.5t13 -29.5h-2q25 -49 72.5 -75t105.5 -26q70 0 123 33q60 33 85.5 105t25.5 151v70q0 31 -1 94t-1 94q-3 95 -11.5 282t-11.5 279q-6 120 -8 139q0 36 6 60q-3 0 -11 -0.5t-12.5 -0.5t-10 2t-7.5 5q-3 1 -3.5 4.5t0.5 9.5t1 7v26 q3 22 75 22q24 0 55 -2q72 -6 69 -12q5 -3 6.5 -6.5t2.5 -11t1 -8.5q4 -20 4 -31t-4 -14q-33 3 -45 6q-4 -9 -4 -45v-41v2q19 -200 22 -455q0 -13 1 -41.5t1 -44.5q0 -21 1.5 -65t1.5 -68q0 -131 -11 -244q-33 -271 -172 -360q-72 -46 -156 -54q-15 -1 -30 -1q-68 0 -132 30 q-78 36 -120 113v-2q-23 45 -33 113q0 3 -1 7t-1 7q-7 37 -13 79t-9.5 72t-6.5 81.5t-4 71t-3.5 80.5t-2.5 73v57q0 4 6 268q8 101 11 242v96q0 4 -1 12t-1 11q-3 0 -17.5 1t-24.5 0.5t-14 -3.5q-4 5 -5 14t-1 10q-4 9 -4 49z" />
<glyph unicode="V" horiz-adv-x="899" d="M43 1511h150q12 0 38 1.5t41 0.5q3 -1 11 -1t14 -1t10 -4q3 -3 4 -6.5t1 -7.5t1 -6q1 -5 5 -18.5t4 -22.5q-1 -7 -4.5 -9.5t-12.5 -2.5h-12q-7 -1 -47 4q18 -196 96 -666t104 -547l209 1209h-12q-2 0 -14.5 -1t-20.5 -1.5t-10 0.5q-5 2 -8 8.5t-4.5 12.5t-2.5 14t-1 10 v36q23 4 64 4q20 0 44 -1q36 -2 64 -2t47 2q24 0 37 -13q4 -1 2.5 -9t-0.5 -11q0 -4 2 -17t2 -18q0 -4 -1.5 -6t-5.5 -2.5t-7 -0.5t-8.5 0.5t-8.5 0.5h-35l-196 -1073q-6 -34 -16 -98t-16 -101t-14 -80.5t-13.5 -67t-10.5 -30.5q-6 -8 -30 -8q-3 0 -6 -1q-22 -1 -48 3 q-30 4 -33 4q-5 24 -49.5 232.5t-69.5 328.5l-157 878q-51 -7 -58 0q-5 2 -8 8t-4.5 11.5t-2.5 12.5t-1 9q-1 2 -3 14q-2 10 -2 14z" />
<glyph unicode="W" horiz-adv-x="1449" d="M66 1458v6q0 20 10 35q9 4 41 4q28 0 73.5 -3t76.5 -3q35 0 50 4q11 -5 10.5 -37t4.5 -43q-7 -1 -25.5 2t-25.5 2h-5q3 -21 3 -39t16 -122q12 -131 73 -457t113 -543q2 -24 12 15q14 54 97 539q75 433 94 452q13 13 40 13.5t40 -11.5q30 -26 73 -201t102.5 -478 t72.5 -364q10 80 64 347t75 423q13 102 41.5 262t32.5 189q-4 0 -19 2t-18 2q-10 0 -12.5 1t-8.5 9q-10 14 -10 60q0 16 4 18q3 1 8 2q28 4 64 4h23q22 -1 38 -1q23 0 37 1q6 1 14.5 1t20.5 -1q23 -2 33 -6q3 -5 3 -14.5t1 -11.5q8 -19 8 -58q1 -6 -5 -9t-18 -3t-19.5 0.5 t-20.5 1.5q-63 -265 -113 -543q-20 -112 -44.5 -247.5t-43.5 -243.5t-35.5 -201t-25.5 -144t-9 -49q-8 -18 -80 -18q-19 0 -47 4q-10 28 -54 234t-92.5 443t-60.5 288q-26 -77 -92 -458.5t-82 -492.5q-7 -7 -16 -10q-12 -3 -43.5 -3.5t-44.5 3.5q-30 22 -207 768 q-30 141 -111 639q-9 5 -33 2t-30 2q-16 13 -18 37z" />
<glyph unicode="X" horiz-adv-x="907" d="M104 1464q-1 9 0 15q0 11 2 18q20 8 88 9q16 0 30 1q47 0 77 -4q8 -27 9 -46q0 -10 -3 -17q0 -13 -39 -13q30 -127 63 -229t79 -221t65 -174q15 7 33.5 67t35 127.5t19.5 75.5q91 268 125 352q-46 -4 -51 -4q0 17 -1 35t-1 29q24 1 99 7q42 4 74 3q24 0 42 -2 q1 -2 -4 -20q0 -3 0.5 -10.5t0.5 -14t-1 -10.5q-1 -10 -4 -11.5t-15 -1.5q-16 0 -22 2q-92 -261 -196 -551q-60 -167 -71.5 -203.5t-7.5 -49.5l58 -154q19 -54 73 -198.5t72 -200.5q47 10 53 4q10 -7 15.5 -35.5t-0.5 -38.5q-5 -6 -19 -6q-13 0 -61 -2q-32 -1 -59 -1h-26 q-37 1 -63 7q-10 29 -10 61q5 1 34 1t42 3l-74 193l-86 262q-21 -32 -39 -78.5t-37.5 -111.5t-29.5 -92q-10 -30 -60 -162q63 0 64 -4q10 -1 4.5 -35.5t-4.5 -38.5q-15 4 -87 6q-20 0 -41 1q-58 0 -134 -3q-3 11 -1 33t5 33q12 3 42.5 3t43.5 3q8 0 10 2q13 34 26 79t23 74 q78 195 146 394q2 7 -4.5 33.5t-21 75t-28.5 95t-38 121.5t-39 125l-115 356q-4 1 -13 1.5t-12 1.5q-16 -1 -33 0q0 12 -2 34z" />
<glyph unicode="Y" horiz-adv-x="851" d="M110 1520q35 2 69 2h22h21q29 0 46 2q6 0 7.5 -7.5t-1 -19t-5 -20.5t-5.5 -17q-18 -3 -45 4q30 -132 103.5 -333.5t101.5 -301.5q31 63 63 158t51.5 164t46.5 172.5l33 126.5q-10 -4 -19 -5t-23 0t-19 1q0 7 -1.5 34t-0.5 40h231q6 -8 10 -32q1 -7 1 -13q0 -13 -6 -19 q-3 -3 -8 -3.5t-11.5 0.5t-7.5 1h-35q-197 -580 -228.5 -674.5t-31.5 -115.5q0 -28 2.5 -170.5t3.5 -241.5v-50q0 -72 -2 -139q2 0 8.5 1.5t11.5 1.5t9 -3q10 -3 12.5 -12t0 -25t-2.5 -18q-13 -8 -81 -10h-29q-44 0 -60 4l-6 12q-2 4 -6 13.5t-6 16t-2 13.5q11 4 53 9 q-1 112 -1.5 205.5t-0.5 153t0.5 104.5t1 69.5t1 38.5t1 20t0.5 7q-16 64 -125 380.5t-135 415.5q-35 4 -45 0q-3 3 -4.5 11.5t-4.5 11.5q0 2 -3 11q-3 8 -3 11q0 12 53 15z" />
<glyph unicode="Z" horiz-adv-x="819" d="M55 14q49 103 273 669.5t268 698.5q-26 0 -116 2q-75 2 -102 3q-4 -1 -8 -1q-20 0 -106 -2q4 -30 2 -45l-49 -6q-7 -4 -35 -4q-9 24 -12 51l-8 70q0 3 -4 15t-3.5 18.5t7.5 9.5q6 2 26 2v4q51 4 123.5 4t167.5 -4t165.5 -4t117.5 4q-45 -163 -170 -467.5t-236 -565 t-127 -333.5q113 1 244 5q79 3 132 3q35 0 59 -2v4q0 6 -1.5 9t-4.5 7t-5 9q-5 13 15 16q21 9 55 9q6 -1 7.5 -1.5t2.5 -1t1.5 -4.5t2.5 -8q3 -8 7.5 -25t7.5 -26q12 -36 12 -69q0 -13 -2 -25h-8q-3 -8 -9 -8q-22 0 -120 0.5t-171 0.5t-164 -1t-152.5 -3.5t-82.5 -7.5z" />
<glyph unicode="[" horiz-adv-x="559" d="M59 1546h60q167 0 354 -16q4 -9 4 -31q0 -38 8 -59q3 -15 0 -15q-20 -4 -79 0h2q-14 2 -52 2q-98 -4 -182 -4q17 -38 28 -393t11 -688q0 -66 -1 -165t-1 -114q63 -10 156 -10q26 0 34 2q57 11 80 -2t23 -57q0 -17 -4 -25q-21 4 -119 4q-12 0 -38 -1t-40 -1h-90 q-125 0 -135 2q-3 15 -3.5 32t0.5 40t1 31v69q-5 161 -9 668.5t-4 640.5q0 27 -2 33q-12 47 -2 57z" />
<glyph unicode="\" horiz-adv-x="780" d="M61 1446v10q-11 26 5.5 35.5t52.5 11.5q36 3 53 -4q15 -7 272.5 -710.5t280.5 -817.5q-23 4 -64.5 5t-60.5 4q-9 4 -128.5 329t-260 714.5t-145.5 403.5q0 2 -1 4.5t-2 7t-2 7.5z" />
<glyph unicode="]" horiz-adv-x="563" d="M55.5 1432q-0.5 4 0.5 11t1 9q0 72 6 80q29 10 187 -2q55 -6 137 -6q3 0 10 1t11 1q24 5 58.5 4.5t41.5 -10.5l-10 -1549q-67 -5 -105 -2q-9 0 -92 -2.5t-131 0.5t-70 13q-4 9 -4 47q0 29 -6 26q29 10 57 10q85 -4 125 -5t70 3t39 12.5t14 26.5l6 1237q-1 19 -3.5 33.5 t-4.5 24.5t-8 17t-8 10.5t-12 5.5t-11.5 2h-14.5h-15q-10 0 -37 -1.5t-43 -1.5h-123q-11 0 -27 -0.5t-24 -0.5t-11 1t-3.5 5z" />
<glyph unicode="^" horiz-adv-x="692" d="M55 1354l127 94q140 104 156 111q11 3 37 -15.5t54.5 -44.5t33.5 -29q21 -15 87 -62l85 -60q-37 -74 -68 -105q-6 -6 -54 26.5t-102.5 74.5t-62.5 47q-12 4 -29.5 -6.5t-39.5 -30t-27 -23.5l-115 -88q-12 -7 -29 15t-34.5 58t-18.5 38z" />
<glyph unicode="_" horiz-adv-x="1005" d="M59 18q6 2 33 2h19q159 12 319 15q43 0 105 4q78 4 118 4q27 0 97 -4q8 -1 31 -2t34 -2q19 -1 64 -2t61 -2l2 -23q9 -46 6 -90q-127 -10 -659 -10q-154 0 -170 2q-40 0 -56 6l-4 37q-11 47 0 65z" />
<glyph unicode="`" horiz-adv-x="270" d="M55.5 1456q-0.5 6 3.5 12q24 28 105 33q19 0 28.5 -21t13 -56.5t3.5 -37.5q1 -7 3.5 -25.5t2.5 -25.5t-2 -24q-6 -28 -28.5 -29.5t-39.5 18.5q-13 18 -30.5 54t-22.5 45q-2 2 -8 10t-11.5 15t-11 16.5t-6 15.5z" />
<glyph unicode="a" d="M57 428q2 73 32 149.5t81 116.5q79 66 161 66q67 0 136 -45l1 33q1 33 1 45q0 102 -12 137q-13 40 -59 59q-14 6 -27 6q-27 0 -45 -28q-3 -17 -3.5 -22.5t2.5 -22.5t3 -23q1 -9 2 -17q0 -29 -18 -45q-18 -17 -49 -17q-7 0 -15 1q-37 6 -64 29q-7 7 -11 12.5t-5.5 13 t-2 11t0 15.5t0.5 16q0 50 18 90q22 44 61.5 73t88.5 29q62 0 125 -34t96 -87q16 -29 24 -68.5t8 -76.5t-1 -80l-11 -672q42 8 71 8q15 0 26 -2v-24q1 -8 3 -20q2 -14 3 -24q0 -5 0.5 -10t-0.5 -10q-8 -4 -17 -5q-4 0 -10.5 -0.5t-14.5 0.5q-16 1 -20 1q-18 0 -82.5 4 t-66.5 4l2 86l-37 -45q-77 -43 -132 -43q-11 0 -21 2q-60 10 -129 84q-60 57 -78 136q-16 71 -15 171v23zM152 412q1 -50 4.5 -83t7.5 -46q14 -58 53 -95.5t88 -37.5q56 0 105 49q65 73 65 207q0 75 -16 141q-10 46 -31 64.5t-70 29.5q-23 6 -43 6q-59 0 -102 -47 q-32 -34 -47 -86q-14 -49 -14 -96v-6z" />
<glyph unicode="b" horiz-adv-x="718" d="M61 4q0 16 1.5 38t0.5 44q21 2 29 2t26 -2.5t25 -3.5h19q2 107 2 253q0 219 -4 523q-8 508 -8 539q-30 -4 -47 -4q-12 0 -17 2q-6 25 -6 80q13 8 76 8h16q14 2 35 2q53 0 78 -2q23 -5 26.5 -8.5t3.5 -26.5q0 -3 4.5 -22.5t0.5 -28.5q-8 1 -16.5 1t-18.5 -0.5t-15 -0.5h-4 q-12 -130 -12 -255q0 -47 2 -93q9 2 60.5 20t70.5 18q155 0 219 -114q56 -88 56 -250q0 -25 -5 -88q-2 -17 -6.5 -68t-9.5 -80l-6 -41l-6 -75q-12 -138 -76.5 -222.5t-167.5 -85.5q-54 0 -121 35l4 -53q4 -55 0 -55q-27 0 -39 2q-46 4 -59 4q-70 0 -111 8zM248 907 q0 -436 3 -536t15 -127q22 -35 43.5 -47.5t65.5 -20.5q15 -2 29 -2q44 0 74 24q39 32 50 97q31 192 33 319q0 107 2 154v12q0 145 -92 195q-39 20 -76 20q-43 0 -83.5 -23.5t-63.5 -64.5z" />
<glyph unicode="c" horiz-adv-x="620" d="M55 381q0 39 4 133q0 12 1 35t1 35v121q0 70 5 96q11 82 52.5 153t108.5 111h-2q50 29 99 29q28 0 61 -13q19 -7 39.5 -17.5t48 -27.5t48 -38t34.5 -46q12 -21 12 -45q0 -5 -1 -10q-3 -30 -25 -61q-6 -9 -29 -17t-53.5 -5.5t-48.5 22.5q-12 11 -25.5 49t-22.5 49 q-1 2 -8 10t-10 11t-9 8.5t-12.5 8.5t-13.5 5t-14 2q-30 0 -55 -33q-6 -6 -21 -26q-37 -66 -48 -144.5t-11 -183.5v-21q0 -149 6 -215v-20q4 -99 29 -148q23 -38 74 -65q32 -17 54 -17q23 0 34 20q8 14 8 38q0 30 12 57q14 29 41.5 37.5t56.5 -8.5q31 -18 41 -52 q3 -12 3 -24q0 -21 -11 -39q-30 -58 -88.5 -89.5t-126.5 -31.5q-56 0 -98 18.5t-74 73.5q-8 11 -21 36.5t-16 31.5q-29 79 -29 207z" />
<glyph unicode="d" horiz-adv-x="729" d="M57 514v35q0 243 52 375q19 44 53.5 80.5t77.5 54.5q41 18 77 18q51 0 168 -57q0 22 2 90.5t2 93.5l-2 205q-7 0 -31 3.5t-24 -1.5q-5 8 0 40.5t0 37.5q7 5 22 5q14 0 54 -2q9 0 21 -1q38 0 100 4q1 -6 12.5 -33t11.5 -35q0 -18 -59 -18q3 -98 3 -353v-137v-133 q0 -239 3 -260l-2 -436q2 4 30 1t34 -3q-4 -13 0 -48t4 -48h-8q-11 0 -26 2q-21 2 -30 2h-72h-7.5h-8.5t-7 0.5t-6.5 2.5t-4.5 5.5t-2 9.5q-3 8 4 21q0 8 2 22t2 62q-55 -67 -113 -95q-46 -22 -82 -22q-10 0 -19 2q-43 8 -81 30.5t-57 42.5t-23 29q-10 20 -18.5 40.5t-15 45 t-11.5 42.5t-8.5 48t-5.5 44t-4 49t-3 45t-2.5 49t-1.5 45zM147 496q0 -106 11 -193q23 -147 114 -178q27 -9 51 -9q35 0 64 19q49 33 78 94q28 53 31 127v437l2 34q0 23 -5.5 34.5t-18.5 24t-21 27.5q-49 62 -115 62h-9q-55 0 -94 -43q-42 -47 -63 -113q-25 -96 -25 -270 v-53z" />
<glyph unicode="e" horiz-adv-x="663" d="M57 360v27q0 174 35 356q9 44 22 84.5t35.5 83t50.5 72.5t68 47q31 13 67 13q10 0 21 -1q115 -10 174 -81q54 -69 70 -216q8 -44 8 -104q0 -72 -8 -135v-6h-45q-15 0 -46.5 2t-47.5 2q-110 4 -160 4q-37 0 -115 -4q-22 -5 -29 -54q-5 -36 -5 -69v-23q2 -42 8 -73 q5 -71 43 -128.5t102 -64.5q27 -5 50.5 5t33.5 34q7 12 7 41q0 11 -1 25q-2 24 -2 41t2 26q5 25 29.5 37t52.5 9t47 -17q20 -14 27 -40t6 -41t-6 -48q-14 -110 -66 -135q-83 -39 -161 -39q-88 0 -154 55q-66 51 -88.5 128t-24.5 187zM184 596q28 3 52.5 3.5t51.5 -0.5t36 -1 q12 0 34.5 -1t34.5 -1q70 0 129 12q5 42 5 76.5t-5 60.5l-6 19q-9 31 -14.5 48t-18 40t-28.5 41q-43 43 -88 43q-30 0 -74 -18h2q-71 -26 -101 -132q-18 -63 -18 -119q0 -37 8 -71z" />
<glyph unicode="f" horiz-adv-x="634" d="M57 967q-2 9 -2 23q0 26 8 69h31q95 0 117 4q0 117 32 226t97 165q35 30 78 50q32 14 58 14q9 0 18 -2q6 -1 24 -4.5t25.5 -5t22.5 -6t24.5 -8.5t22 -11t22.5 -15l14 -14q25 -30 25 -57q0 -25 -21 -47q-34 -43 -87 -43q-12 0 -25 2q-17 3 -40 47.5t-32 50.5q-8 5 -17 5 q-32 0 -83 -62q-22 -26 -35 -64t-17 -64.5t-8 -72.5l-8 -84q15 2 35 2q17 0 38 -1q13 -1 24 -1q28 0 44 4q4 -1 12.5 -2.5t11 -2.5t8 -2t6.5 -2.5t4.5 -3t3.5 -4.5t2 -6t1.5 -7.5t0 -9.5t0.5 -13q0 -47 -7 -56q-30 1 -65 3.5t-53 4t-34.5 2t-23 -2t-6.5 -7.5 q4 -300 15.5 -536.5t11.5 -343.5q3 0 12.5 0.5t15 0.5t11.5 -2t8 -7q6 -10 4 -30.5t-8 -33.5q-49 -9 -94 -9q-51 0 -97 11q-8 3 -8 35q-12 19 0 31q10 8 64 8h2q-4 149 -11 330t-11.5 292.5t-4.5 133.5q0 63 -4 129q-36 -6 -74 -6t-78 6z" />
<glyph unicode="g" horiz-adv-x="704" d="M55 616q0 191 54 312q38 95 110 133l-2 -2q49 24 101 24h12q37 0 73 -20q41 -15 82 -23q2 15 2 37q-4 12 -4 15q66 4 72 4h6q3 0 16.5 3t24.5 5h12h9q11 -1 14 -6q10 -10 10 -29q0 -21 -12 -55q-5 -4 -25 -1.5t-26 1.5q-6 -268 -8 -460q-1 -127 -1 -202v-61q1 -72 2 -127 t1 -64q0 -110 -23 -192q-13 -49 -45 -90t-76 -68q-35 -24 -94 -30q-12 -1 -23 -1q-43 0 -75 17q-41 27 -41 65q0 15 6 31q14 47 93 47h13q13 0 31 -12t30.5 -18.5t32.5 8t42 59.5q21 46 26 145l-41 -18l-24 -6q-28 -4 -29 -4q-31 -6 -54 -6q-19 0 -32 4q-83 21 -139 96 q-83 113 -95 346q-6 73 -6 143zM133 588q0 -109 6 -158q3 -48 12.5 -95t30.5 -99.5t62 -82.5q33 -25 78 -25q9 0 18 1q49 3 71 9t36.5 19.5t23.5 18.5q9 263 13 386q4 109 4 191v20q-1 88 -5.5 111t-15.5 36q-26 26 -72.5 43.5t-89.5 17.5q-23 0 -69 -16q-28 -15 -47 -39 t-28.5 -57t-13 -57t-6.5 -62q0 -3 -1 -12t-1 -13q-6 -64 -6 -137z" />
<glyph unicode="h" horiz-adv-x="790" d="M59 1452q-2 8 -2 14q1 8 5 12q8 6 28 7h4q20 5 45 7.5t37.5 3t47 0t40.5 -0.5q2 0 7 1.5t9 1.5t7 -3q8 -6 8 -16t2 -15t7 -14t5.5 -13t-0.5 -18q-23 -2 -61 -2q2 -91 3 -151.5t1 -80.5t1 -59t3 -108q70 31 106 43t68 12q65 0 115.5 -26t72.5 -80q24 -61 38 -139.5 t18 -132t8 -144.5v-64q0 -108 -2 -159q0 -16 -1 -44t-1 -44v-162h29q13 0 16.5 -7t3.5 -26v-27l4 -8q4 -7 4 -10t-2 -8q-6 -1 -63 4l-43 4q-1 0 -20 -2t-32.5 -0.5t-17.5 8.5q-3 2 -4 7.5t-1 11t0.5 12.5t0.5 8q-1 6 -4.5 18t-3.5 17q6 2 24 2q0 43 2 74q4 180 4 317 q0 147 -12.5 268t-30.5 156q-18 31 -50 47q-24 12 -50 12q-9 0 -18 -2q-125 -18 -166 -49q-19 -202 -19 -831q36 4 43 -8q7 -7 6 -36.5t7 -39.5q-13 0 -38 2t-36 2h-100q-11 0 -16.5 4t-6.5 9t-2 20q-1 4 -1 12.5t-1 11.5t-3.5 9t-2.5 8.5t2 11.5q7 0 21 -1t22 -1 q-3 20 -3 84q0 54 2 138q5 185 5 220q3 222 3 355v43q0 138 -2.5 270.5t-2.5 140.5t-2 16.5t-2 16.5q-2 16 -2 47h-6h-35q-5 2 -19 43z" />
<glyph unicode="i" horiz-adv-x="354" d="M55 8q6 15 6 33q0 1 -1 8t-0.5 12.5t3.5 8.5q2 6 23 6l29 930q-37 -4 -52 -2q0 24 4 56t13 32q7 -2 9 -2t12 3l10 3q48 0 71 2q14 0 39 -1t39 -1q29 0 43 -2v-33q-1 -5 0 -23v-14.5v-7.5q-8 -10 -27 -10q-5 1 -15 1t-15 1q-7 -81 -11 -399t-16 -521q39 0 47 -8 q4 -4 5.5 -11t1.5 -16.5t1 -13.5q0 -1 4 -12t3 -19h-33h-62q-14 0 -41 -1.5t-49 -1.5t-41 3zM162 1331q6 1 11 0q33 0 62 -30q23 -24 23 -48q0 -12 -6 -25q-19 -34 -86 -46q-4 -1 -8 -1q-14 0 -27 9q-27 35 -27 55q0 78 58 86z" />
<glyph unicode="j" horiz-adv-x="317" d="M-231 -274q-8 18 -8 34q0 27 24 47q17 13 43.5 17t46.5 -2q3 -2 28.5 -23t43.5 -20q19 2 34.5 16.5t26.5 42t14.5 39.5t10.5 39q8 30 12.5 66.5t5.5 58.5t1.5 70t0.5 63l8 240l7 368q0 24 1 72t1 72q0 39 -2 55q-5 35 -5 41q-26 -4 -34 -2q-2 4 -2 18q-5 5 -9 22t0 23 q21 6 119 11q13 1 37.5 -0.5t32.5 -1.5q28 0 35 -7q4 -4 5.5 -14.5t1.5 -23t1 -15.5q2 -2 2 -5v-3q-3 -3 -3 -4t-6.5 -3t-9.5 -3q-8 -4 -21.5 -0.5t-21.5 2.5q0 -19 -2 -25v-6q0 -71 -17 -508.5t-17 -482.5l-21 -125q-16 -100 -86 -156q-68 -54 -138 -54q-46 0 -93 24 q-32 20 -43 34q-4 4 -4 9zM74 1255q0 32 20 43h-2q6 3 12 4.5t10 1.5q1 1 2 1q4 0 9 -2q6 -2 8.5 -3t9.5 -4t9 -4l22 -20q4 -12 4 -23q0 -25 -20 -45q-14 -14 -35 -14t-39 18q-10 27 -10 47z" />
<glyph unicode="k" horiz-adv-x="800" d="M55 1432q0 11 6 22t13 12q4 3 15 4.5t15 4.5l54 4q10 0 52 5q19 2 31 2q15 0 19 -3q7 -3 11.5 -13t8 -24.5t5.5 -18.5q0 -5 -1.5 -8.5t-5.5 -4.5t-6.5 -1.5t-9 0t-8.5 0.5q-6 -1 -21.5 0.5t-21.5 1.5q-11 -195 -15 -329q-2 -78 -3 -155q-1 -55 1 -109q2 -130 3 -132 l-2 -67q112 126 204.5 231.5t126.5 144.5t47 52q-4 0 -13.5 -1t-16.5 -0.5t-13 3.5q0 3 -2 28t-2 31q0 4 1.5 7t3.5 4.5t6 2t6.5 0.5h8.5h9q80 8 129 8q20 0 35 -1v-19q0 -3 1 -18q2 -15 2 -25v-6q0 -6 -1 -10q0 -1 -21 -1l-20 1h-10l-250 -371q19 -49 64 -169t65 -169 q11 -31 43.5 -129t54.5 -154h31q4 1 9.5 2t8 1t7 -0.5t10.5 -2.5q5 -13 0 -59h-96q-8 0 -31.5 -1.5t-43.5 -1.5t-34 3q-3 27 0 53q6 2 43 2q-7 16 -15.5 42.5t-15.5 43.5l-194 471q-33 -21 -69.5 -71.5t-43.5 -55.5q-1 -24 -1 -55q0 -68 5 -172q6 -152 6 -182q8 2 21 2 q32 0 39 -4q10 -7 14.5 -32t-0.5 -38q-25 -4 -116.5 -4t-125.5 4v37q0 19 2 27q1 0 24 1t26 1q-7 353 -9 512q-3 160 -5 360q-1 89 -1 158q0 87 2 142q2 100 9 159q-4 0 -15.5 1t-20 0.5t-16.5 -3.5q-1 5 -1 15t-1 14z" />
<glyph unicode="l" horiz-adv-x="339" d="M56 1438v4q0 4 3 6.5t7 5.5q11 7 55 12q61 7 108 7q3 0 10.5 1t12 1t9.5 -2t7 -7q8 -8 15 -41v-5q0 -23 -25 -29q-6 -2 -22 -2q0 -63 -4 -171l-5 -135q-5 -80 -9.5 -311.5t-4.5 -300.5v-88q0 -200 -6 -317q3 0 7 1t7 1q28 7 37 0q5 -3 7 -13t2 -19.5t-0.5 -22.5t-0.5 -15 q-48 -5 -87 -5q-52 0 -89 9q-12 5 -16 8.5t-8 16.5q-5 22 2 32q28 4 38 4v295q-4 218 -4 314q0 180 9 362q4 12 4 60q0 24 -4 72t-5 63q-4 86 -4 125v30h-43q-1 5 0 17.5t0 17.5q0 3 -1 9z" />
<glyph unicode="m" horiz-adv-x="1222" d="M57 63q15 3 33 3q13 411 13 644q0 148 -5 224v8q-33 0 -35 2q0 8 4 23t5 20q1 7 1 19.5t1 17.5q7 1 25.5 5t27.5 5q26 4 41 4q14 0 20 -4q10 -6 24 -50q3 -10 5 -15q90 57 166 57q34 0 55 -8q74 -22 115 -55q12 -10 21 -22.5t12.5 -16.5t10 -3t19.5 9l62 51q65 45 131 45 q33 0 70 -16q51 -22 105 -76.5t65 -104.5q17 -38 33 -315.5t16 -445.5q14 0 49 -9q1 -1 0.5 -14t-0.5 -14q0 -2 1.5 -7.5t1.5 -10t-3 -7.5q-5 -12 -45 -12q-21 -2 -49 -2q-47 0 -113 6q-1 7 -1 18.5t-1 18.5q0 3 -4.5 14.5t-3.5 16.5q42 5 49 8q-3 65 -7.5 220.5t-8.5 280 t-7 150.5q-4 29 -18.5 67t-37.5 76q-24 38 -60 58q-24 14 -49 13q-12 0 -25 -3q-54 -14 -88 -72t-43 -121q4 -177 9 -338.5t7 -236t2 -107.5h19q1 0 10 1t15 0.5t10 -3.5q4 -12 3.5 -18.5t-4.5 -22t-4 -18.5q-12 -6 -182 -6q-2 0 -9.5 -1t-13 -0.5t-8.5 3.5q-2 2 -2 18 q0 22 -4 31q-10 10 -8 16q9 0 66 5q-7 173 -8 343t-1 246.5t-4 85.5q-9 64 -54.5 126.5t-108.5 66.5q-8 1 -16 1q-55 0 -89 -37q-38 -42 -51 -110q0 -596 -6 -718q32 8 57 2q2 -27 2 -45t-2 -27q-3 0 -55 -4q-53 -4 -89 -6q-10 0 -18 -1q-22 0 -30 3q-2 2 -1 17.5t1 17.5 l-5 24q-1 2 -4 5.5t-2 6.5z" />
<glyph unicode="n" horiz-adv-x="778" d="M57 991q-1 8 2.5 21.5t3.5 19.5q1 3 1 9t1 10.5t5 8.5h170l-4 -87q0 2 8 11t25 22t43 23q27 9 64 13q10 1 20 1q30 0 65 -7q44 -10 76 -32t50.5 -47.5t31.5 -67t18.5 -74t11.5 -84.5q25 -237 25 -428q0 -138 -10 -233q36 4 55 2q2 -27 2.5 -45t-2.5 -27q-9 -1 -27.5 -1 t-27.5 -1q-13 -4 -52.5 -1.5t-52.5 1.5h-33q-6 2 -7 6q-1 2 -1 4q0 4 1 11.5t0.5 12t-3.5 9.5q-1 2 -2.5 5.5t-2.5 6.5t-1 6q28 4 45 4q6 147 6 287q0 199 -6 291q0 7 -1 17.5t-1 17.5q-3 46 -5.5 64.5t-10 56.5t-23 64t-39.5 48q-37 21 -82 21q-91 0 -135 -70l2 2 q-22 -32 -32 -70q-10 -37 -10 -69l1 -78q-4 -25 -4 -107q0 -74 4 -198q6 -256 6 -268q6 -2 15.5 -2t16 -1.5t9.5 -7.5q1 -7 0 -14.5t-3 -17t-3 -13.5v-6t0.5 -6t-1 -5t-5.5 -5q-2 -1 -4 -1q-6 0 -14 3q-14 5 -17 4h-61q-52 0 -78 4q-5 11 -5.5 20.5t2.5 24t3 19.5 q11 3 15 3.5t11 -0.5t15 -1q-3 165 -3 341q0 59 -1 119q0 120 1 244q1 188 1 215q-7 0 -20 -1t-22.5 -0.5t-19.5 3.5z" />
<glyph unicode="o" horiz-adv-x="673" d="M57 399v47q0 203 31 347q18 80 65 142t119 97q49 17 80 17q50 0 100 -20.5t85 -55.5q82 -37 82 -415q0 -38 -1 -79q-4 -179 -12 -237q-11 -87 -45 -142q-27 -46 -125 -75q-47 -15 -80 -15q-15 0 -69 13q-65 8 -112 44.5t-71.5 91.5t-35.5 114t-11 126zM154 479 q0 -111 14 -162q14 -74 43 -124t90 -80q27 -12 53 -12q39 0 73 28q57 47 71 119q6 23 6 82q0 16 -1 41t-1 41q-2 25 -2 71q1 25 1 51q0 97 -9 216v22q0 34 -2 54t-10.5 45t-28.5 42t-52 27v-2q-25 7 -47 7q-91 0 -147 -114q-15 -35 -25.5 -81.5t-14 -75t-9.5 -84.5 q0 -17 -1 -54t-1 -57z" />
<glyph unicode="p" horiz-adv-x="731" d="M57 -328q1 6 1 8t3 4t4 2t9 1q29 0 45 2v296q0 884 16 1078h-14q-19 -3 -37 0q10 33 2 57l-6 21l-4 2q-5 2 -6 6q-4 5 1 5q7 0 9 1q10 3 20.5 5t17.5 3q6 1 14 1h10q15 -1 23.5 -1.5t32 -2.5t35.5 -3q3 0 9 -1l6 -1v-2q0 -4 -3.5 -17.5t-4 -22.5t5.5 -26q122 31 176 31 q36 0 57 -8q36 -12 70 -41t55 -65q72 -141 72 -328q0 -43 -4 -113v-86q0 -107 -10 -158q-23 -116 -80 -184q-40 -53 -96 -83q-48 -25 -104 -25h-15q-22 -3 -48 7.5t-41.5 21t-48.5 34.5q0 -8 -1 -33.5t-1 -29.5l-8 -334q2 0 19 2.5t19.5 2t18.5 -2.5q1 -18 -12 -86 q-10 -3 -29.5 -3t-23.5 -1q-33 -2 -94 -2q-4 0 -15 -1q-7 -1 -13 -1q-3 0 -5 1q-8 0 -14 3q-7 4 -11 24q0 5 -1 20q-1 9 -1 15v8zM221 337q0 -12 0.5 -16.5t1.5 -15t2 -16t2.5 -15t3.5 -16t5 -14.5t6 -15q77 -85 157 -85q30 0 60 12q80 57 102 198q19 109 19 256 q0 108 -7 172q-15 109 -69 174q-37 56 -98 56q-34 0 -78 -23q-26 -12 -43 -30.5t-26.5 -44t-13 -44.5t-7.5 -51q-15 -99 -15 -287q0 -79 -2 -118v-31v-15v-16v-15z" />
<glyph unicode="q" horiz-adv-x="698" d="M55 453q0 306 76 473q36 85 131 114q28 4 43 4q65 0 209 -88q-16 94 -16 107v6q1 0 11 0.5t53 2.5t112 5q2 -1 1 -18.5t-1 -18.5q0 -4 0.5 -11t1 -12t-0.5 -11t-3 -9q-1 -4 -2.5 -6.5t-5 -4t-6 -2t-7.5 -1t-8 -0.5h-25q0 -16 -1 -47.5t-1 -44.5q-4 -70 -4 -109 q-12 -519 -13 -660v-39q0 -107 5 -128q0 -7 1 -17.5t1 -17.5q0 -10 15 -78q7 -19 30 -35q5 -3 16 -7t20 -8.5t15 -10.5q25 -25 25 -49q2 -10 2 -19q0 -16 -8 -28q-13 -18 -43 -23h-6q-31 0 -74 16q-43 22 -61 54q-2 4 -9 17t-9.5 18.5t-7 15.5t-7 19t-4.5 18q-19 66 -19 139 q0 32 4 66q-113 -33 -149 -35l-33 6l-47 8q-11 5 -36.5 24.5t-45.5 37.5t-20 20q-12 12 -39 55t-31 66q-29 103 -29 246zM164 453q0 -105 29 -224q26 -95 96 -114q22 -7 41 -7q12 0 23 2q29 8 48 18.5t33 30t20 30.5t9 20q5 29 10.5 196t5.5 293q0 98 -8 138l-2 6 q-63 96 -135 96q-54 0 -86 -59q-20 -33 -37 -105l-2 -18q-30 -106 -39 -189q-6 -59 -6 -114z" />
<glyph unicode="r" horiz-adv-x="653" d="M57 1116q14 0 39 4q26 4 46 4q1 0 2 1q21 0 75 -7q-4 -12 -2 -45t8 -47q12 10 16 13.5t18 13t22.5 13.5t25.5 10t32 8t35.5 2t43.5 -3q40 -5 107 -45t71 -73v-7q0 -32 -16 -58q-18 -28 -54 -36q-17 -5 -33 -5q-22 0 -42 9q-34 9 -50 31q-3 5 -9 23t-15 26 q-14 13 -31 11.5t-23 -5t-28 -18.5q-55 -38 -55 -76l-13 -749v-17h6q2 0 10 0.5t11 0t7.5 -3t6.5 -7.5q6 -10 8 -22t2 -29.5t3 -30.5q-23 0 -84 -2t-97 -2q-1 3 -1 12.5t-1 12.5q-3 7 -4 27.5t-4 31.5q23 0 37 2q0 14 -3 42t-3 50q0 35 -1 190.5t-4 371t-7 309.5 q-4 -1 -17 -4t-17.5 -3.5t-11.5 2.5q-3 3 -3 12t1.5 20t1.5 13q0 1 -3.5 12t-2.5 17z" />
<glyph unicode="s" horiz-adv-x="653" d="M61 137q-5 15 -5 28q0 29 23 51q34 32 81 32q41 0 59 -27q6 -8 15 -28.5t18 -28.5q24 -26 60 -33q13 -2 25 -2q22 0 42 8q32 13 55 37t27 55q1 10 1 20q0 43 -20 85q-25 52 -70 96.5t-92.5 84t-94 82t-66.5 75.5q-51 74 -51 166q0 48 23 100.5t59 87.5q78 70 184 70 q77 0 121 -29q21 -14 38.5 -30t32.5 -40t9 -51.5t-37 -52.5q-16 -13 -49 -13q-8 0 -17 1q-36 3 -67 34q-6 6 -19 23t-22 25q-19 15 -37 12q-12 -2 -35 -25q-14 -11 -29 -32q-3 -3 -6 -14.5t-6 -14.5v2q-8 -29 -8.5 -55.5t4 -48t17 -43.5t24.5 -37.5t32.5 -34.5t35.5 -31 t38 -29l41 -32q167 -136 197 -263v5q5 -25 5 -53q1 -29 -5 -63q-12 -66 -41 -106q-12 -15 -18.5 -22.5t-24 -21t-43.5 -29.5q-47 -31 -133 -31q-46 0 -90 12q-44 10 -107 52t-74 77z" />
<glyph unicode="t" horiz-adv-x="616" d="M43 1038q15 2 69.5 5.5t80.5 9.5q8 11 8.5 50t-8.5 107q-7 0 -27 4t-33 3q-8 27 -8 45q0 10 2 18t2.5 10.5t3 5.5t4 3t8 1.5t11.5 2.5q63 8 143 8l-2 -2q6 0 7 2q3 -6 2.5 -20t-2 -40t-0.5 -45v-123v-28q1 0 49 -1.5t90.5 -1.5t52.5 3v-101h-74q-88 0 -118 -2 q-8 -91 -9 -229q0 -123 9 -207l18 -192q3 -13 6 -40t6 -40q3 -12 4 -32.5t4 -31.5q3 -21 23 -28q9 -5 17.5 -5.5t13 1t15.5 7l15 7.5q16 12 29 12h32q30 0 50 -33q11 -20 11 -43q0 -18 -7 -38q-15 -46 -56 -56q-17 -4 -35 -4q-70 0 -143 59q-22 16 -37 50q-23 39 -39 122 q-24 123 -28 357q-1 1 -1 81v100q0 179 1 181q-26 0 -50.5 -1t-34.5 -1t-25 1t-36 5q-10 17 -12 33q0 35 -2 51z" />
<glyph unicode="u" horiz-adv-x="899" d="M56 1029q-3 14 -2 24q0 11 3 18q6 3 20.5 3t18.5 1q73 5 90 8q3 0 18.5 2t23 2.5t17.5 -3t15 -11.5q23 -41 23 -63q0 -9 -2 -9q0 -2 -9 -2q-4 0 -6 -2h-22q-25 -447 -25 -551v-49q-1 -14 -1 -26q0 -87 24 -140q18 -41 30 -53q15 -15 54 -30t88 -15q58 0 108 23 q50 26 64 80q27 69 30 151v109v147q0 13 -1 39.5t-1 42.5q-4 163 -16 272q-1 0 -12 -1t-17 -5q-1 4 4 19v28q-1 5 -7 17.5t-5 21.5q12 3 25 4t31 1t28 1q8 1 29.5 5t29.5 5t30 3h13q11 0 17 -2q5 -34 6 -37t6.5 -18.5t5.5 -18.5q-2 -12 -41 -12v-56q0 -613 11 -714 q4 -37 4 -181q10 2 28 2q29 3 58 0q2 -2 2 -6t-2 -11q-4 -14 -4 -15q0 -27 -2 -37q-2 -5 -5.5 -8.5t-9 -5.5t-10.5 -3t-12.5 -1.5t-12 -0.5h-11.5h-9q-14 1 -57 -5q-28 -4 -49 -4q-12 0 -21 1v25q0 1 1 2t1 2l-6 61q-27 -5 -111 -41q-72 -30 -120 -31q-8 0 -15 1 q-76 10 -129 41q-50 26 -80 77q-8 9 -14.5 21t-9.5 21t-8.5 28t-8.5 29q-28 73 -28 538q0 47 0.5 95t1 79.5t0.5 36.5v23v28q-26 -4 -35 -2q-16 3 -22 32z" />
<glyph unicode="v" horiz-adv-x="716" d="M55 1058q0 9 8 15q1 2 4 3t6.5 0.5t6.5 -0.5l4 -1q14 2 37 2q46 7 82 7q23 0 41 -3q1 0 7.5 1t11 0.5t7.5 -3.5q4 -4 4 -8q9 -21 11 -35q1 -12 -2 -16.5t-17 -9.5q-4 -3 -8.5 -4t-10.5 -1t-9 -1q3 -51 24 -186.5t27 -180.5q51 -395 63 -422q22 65 38.5 154t36.5 242 t24 180q6 36 12.5 117.5t15.5 113.5h-47q-4 4 -5 15.5t1 15.5q-3 6 -3.5 19t-4.5 20q82 0 160 4q16 2 32.5 2t32.5 -2q14 0 17 -9q0 -1 -5 -26q0 -21 -2 -31q-6 -13 -28 -13q-14 0 -35 5q-102 -561 -131 -932q-6 -70 -11 -86t-24 -22q-4 -4 -16.5 -7t-27.5 -4t-33 -1h-17 h-14h-26l-11 1q-41 206 -78 422q-77 400 -94 604q-25 0 -33 -2q-13 10 -13 39q-8 13 -8 24z" />
<glyph unicode="w" horiz-adv-x="1179" d="M56 1042q3 13 12 17q18 8 51.5 9t42.5 3q21 4 94 4q16 0 19 -5q2 -2 4 -7q0 -8 2 -10q4 -3 1.5 -19.5t-1.5 -19.5q7 -17 -15 -23q-12 -7 -33 -4l33 -174q68 -370 101 -528q34 131 85 380t68 357q41 0 66 -2q10 -1 32 -3l17 -1q17 -63 76 -343.5t110 -441.5q6 21 34 213.5 t36 227.5q12 61 29.5 177.5t25.5 154.5q-35 -5 -39 -5v25q0 1 -1 12t-0.5 18.5t3.5 10.5h21l41 4q39 2 110 2q3 0 9 0.5t9.5 0.5t7.5 -1t5.5 -4t1.5 -8q0 -24 4 -33q5 -12 5 -14q-1 -3 -3 -5q-4 -3 -12 -6q-16 -4 -61 -8q-18 -169 -98 -547t-107 -438h-68q0 8 -53 238 q-93 357 -135 510q-10 -43 -42.5 -169.5t-59.5 -240.5t-40 -190q-26 -149 -28 -154q-2 -4 -12 -4h-8q-8 0 -20 1q-18 1 -24 1q-2 12 -10 31l-16 43l2 -2l-62 268q-39 177 -89.5 393.5t-55.5 229.5l-2 17v1q0 2 -2 4h-43q-11 0 -13 -2q-6 2 -6 17q0 12 4 32l2 6v-2 q-2 -11 -4 -11q-3 1 -3 6q0 4 2 11z" />
<glyph unicode="x" horiz-adv-x="823" d="M59 0q-3 21 -3 35q0 17 5 22q9 9 41 9q3 0 8.5 1t8.5 1q21 47 74.5 156t94.5 193.5t46 102.5q0 27 -66 193t-127 299q-37 -9 -61 -6q-3 2 -5 6t-2 7t0.5 8.5t0.5 6.5q0 3 -2 17.5t-2.5 23.5t2.5 17q33 -3 124 -3t136 -4q4 -4 2.5 -15.5t-6 -29.5t-4.5 -20q-2 -10 -56 -10 q4 -13 20 -60.5t26.5 -77t26.5 -71t32.5 -73t32.5 -52.5q30 50 81 173.5t72 162.5h-16q-2 0 -14 -2.5t-15 -1.5q-8 5 -8 14q-7 16 -9.5 34t5.5 29q2 2 59.5 1.5t112.5 -1.5h26q36 0 56 2q8 -10 11 -29q1 -4 1 -8q0 -14 -8 -24q-6 -4 -15.5 -5t-24 0t-15.5 1h-11 q-174 -343 -231 -516q186 -372 221 -438q4 0 13 1t15.5 0.5t12.5 -3.5q3 0 6 -1t4 -2t3 -3.5t2.5 -3t2 -5t2.5 -6.5q0 -3 2 -14t3 -18t-2 -13l-56 -4h-137q-19 0 -23 6v23v30q13 0 41 4q-106 195 -161 334q-89 -143 -174 -323q22 -4 24 -11q7 -17 7 -29t-3.5 -18t-14 -8.5 t-17.5 -2.5t-22.5 0.5t-21.5 0.5q-18 1 -47.5 -0.5t-40.5 -1.5q-22 -3 -43 0z" />
<glyph unicode="y" horiz-adv-x="788" d="M57 1112q6 0 56.5 7t95.5 12q28 3 39 3q6 0 6 -1q16 0 22 -19q12 -28 9 -43q-21 -8 -56 -8v-55q0 -27 -1 -70t-1 -51q-3 -27 -6 -99q-2 -42 -2 -99q0 -37 1 -81q2 -108 12.5 -207t40 -176.5t75.5 -91.5q16 -6 36 -6q15 0 32 3q40 7 61 24q12 9 22.5 24t17.5 29t13 38 t9 37.5t6.5 42t4.5 38t3 39.5t2 32q4 62 4 90q0 8 -1 29t-1 33v116q0 10 2 70t2 88v162h-14q-33 -4 -51 -2q0 8 -8 21t-9 16q0 2 -1.5 10.5t-3.5 15.5t-5 11q155 20 231 20q4 -1 6 -6t4.5 -12t4.5 -11q16 -22 16 -43v-6q-6 -1 -14.5 -1t-18.5 0.5t-14 0.5h-4q0 -35 -3 -120 t-3 -109q4 -97 4 -430q0 -44 4 -137t4 -144q0 -56 -10 -121q-17 -94 -47 -143q-48 -73 -103 -100q-37 -19 -80 -19h-12q-3 0 -17 3t-22 3q-18 -3 -35 7q-40 17 -66 44q-16 15 -16 33q0 12 7 25q14 26 52 39q19 7 35 7t29 -7q7 -3 20.5 -14.5t22.5 -12.5q33 -7 58.5 16.5 t40.5 59.5q14 24 26 76q4 10 9 43l-1 11q-1 12 -0.5 19.5t3.5 8.5q-81 -68 -166 -79q-18 -2 -34 -2q-65 0 -117 35q-65 43 -91 128h-2q-3 8 -10.5 23.5t-11 24t-7 21.5t-4.5 25q-8 31 -8 67q0 29 -2 43v-2q-3 60 -8 340v86q-6 49 -6 250v25l-50 -8q0 10 -3 29q-3 16 -3 26v6 z" />
<glyph unicode="z" horiz-adv-x="671" d="M57 1092q81 14 181 18q54 2 96 3q36 0 64 -2q26 -1 51 -1q33 0 65 2q28 0 51 -2q-19 -74 -52.5 -176t-86 -251t-72.5 -208q-15 -40 -39.5 -103t-39.5 -103t-31 -82t-23.5 -65.5t-7.5 -29.5l51 8q21 -1 41 -1q60 0 113 7q3 0 36.5 3.5t51.5 3.5q-1 4 1.5 26t4.5 27 q16 6 35 0q3 -1 16.5 -4t25 -5.5t15.5 -2.5l12 -168q-235 0 -507 -6q-3 0 -7 -2l-4 -1q-8 -2 -24 -2q-11 0 -13 -2q7 30 25 76l14 33l33 92q10 29 96.5 262.5t133.5 368.5t57 186q-40 7 -84 7q-37 0 -76 -5q-47 -8 -102 -8q0 -2 2.5 -16t2 -16.5t-2.5 -16.5q-8 2 -32 -1 t-38 -4t-18 5q-6 75 -6 94q0 18 -4 32q-6 18 -5 30z" />
<glyph unicode="{" horiz-adv-x="544" d="M57 764q3 43 35 80q13 17 43 43v-2q64 60 80 119q14 39 14 145q0 5 -1 15.5t-1 15.5q-2 27 -2 75q0 92 25 134v-3q24 46 90 74q20 7 59 10h15q37 5 39 13q8 -19 8 -74v-31q-21 0 -31 -2q-36 -5 -49 -10q-59 -34 -59 -137q0 -51 8 -84q0 -3 1 -7t1 -5q13 -174 -78 -293 l-4 -4l-10 -9q-19 -19 -28 -28.5t-17.5 -25.5t-4.5 -28h-2q5 -19 25 -47q2 -2 8.5 -6.5t7.5 -7.5q8 -3 20 -17.5t24.5 -35t23 -39.5t19.5 -35.5t10 -17.5q5 -11 8.5 -21.5t6.5 -24.5t5 -22t4 -26t3 -23t3 -27.5t2 -25.5v-80q0 -71 4 -80q16 -45 36 -69t63 -34l-6 3 q3 -3 10 -3h18q4 0 4 3q4 -35 -2 -76q1 0 -1 -1q-1 0 -3 -1l-73 -6h6q-89 0 -123 61q-41 78 -51 199q-2 23 -2 77q1 36 1 67.5t-7.5 65t-22.5 60.5q-12 18 -30 35.5t-27 24t-35 24.5h2q-26 21 -44.5 57.5t-17.5 67.5z" />
<glyph unicode="|" horiz-adv-x="210" d="M56 -12q-3 27 0 71t3 52q7 162 7 417q0 587 -7 840v107q0 5 -0.5 19t-1 27t0 27t2.5 24t6 13q16 10 49 10q2 0 8.5 0.5t9.5 0.5t8 -2t8 -5.5t5 -10.5t2 -17q0 -1 -6 -172v-363q0 -62 -4.5 -182t-4.5 -182q0 -38 4.5 -189t-0.5 -186q-3 -72 0 -150q0 -13 1 -50t0.5 -64 t-3.5 -50q-7 -9 -13.5 -14.5t-15.5 -8t-14 -3.5t-15.5 -1.5t-14.5 -0.5q-11 16 -14 43z" />
<glyph unicode="}" horiz-adv-x="538" d="M63 1372h3q-17 7 -3 62q3 15 37 12h15q113 0 155 -74q15 -28 25 -63t13 -59t7 -68q4 -53 8.5 -84t20 -74.5t43.5 -81.5l29 -33q23 -27 34.5 -42.5t22.5 -41t8 -47.5q-7 -56 -65 -121q-37 -37 -58 -73q-32 -60 -32 -152q0 -69 6 -96q0 -5 3 -40.5t3 -53.5q0 -88 -39 -140 q-45 -56 -123 -79v2q-50 -13 -61 -13q-3 0 -15 -4q-4 36 -4 58q0 17 4 53q94 12 129 88q7 48 7 182q-1 69 0 107t13 92t38 92q1 4 24 27q2 2 11.5 12.5t11.5 13t10 12t9 13t5 12.5t2.5 13.5t-2 13t-6 15t-12.5 14.5t-18 16q-44 33 -64.5 78.5t-28.5 111.5q-4 62 -4 90 q0 8 -1 36.5t-1.5 41t-3.5 33t-8 37.5q-12 43 -38 62t-67 28v-2q-3 3 -8 4t-14.5 3.5t-20.5 6.5z" />
<glyph unicode="~" horiz-adv-x="839" d="M59 651q3 8 12 18.5t13 16.5q13 13 16 19q0 3 6 6q22 13 29 16l33 16q59 20 61 21q91 16 152 -33l8 -4q65 -51 131 -74q82 -19 111 19q11 14 22 57q0 15 4 19l15 16q9 18 30 18h31q15 -3 27 -12l20 -20q4 -4 4 -27q0 -21 -2 -35q0 -3 -4 -31l-6 -12l-6 -8q0 -2 -2 -4 q-3 -12 -12 -15q-2 0 -15 -14l-22 -14q-8 -4 -28.5 -16t-33.5 -15q-35 -14 -84 -14q-55 0 -117 20.5t-106 50.5q-56 39 -113 39q-7 0 -18 -1t-18 -1q-6 0 -11.5 -6t-7.5 -12q-3 -4 -5 -9t-4.5 -12t-4.5 -12q-10 -24 -27 -31q-22 -12 -47 2q-6 4 -10.5 9.5t-10 16.5l-6.5 13 q-10 16 -4 39z" />
<glyph unicode="&#xa1;" horiz-adv-x="313" d="M55 -522l23 262q3 29 4 87.5t4 82.5q1 13 2.5 27.5t2.5 23.5t1 12l4 111q3 110 10 269t14 271t9 117v39q7 2 21 1t35.5 -4t25.5 -3q19 0 37 -504q9 -196 7.5 -484t0.5 -312q0 -3 -44.5 -4t-94 1t-62.5 7zM115 934q-7 25 8 56.5t43 37.5q49 11 75.5 -26t10.5 -80t-68 -48 q-27 -4 -44.5 14.5t-24.5 45.5z" />
<glyph unicode="&#xa2;" horiz-adv-x="706" d="M59 694v70q0 65 3 111t13.5 106.5t35 110t63.5 86.5q72 69 188 69q33 0 104 -21.5t97 -39.5q59 -42 62.5 -91.5t-62.5 -76.5q-35 -16 -75.5 -11.5t-47.5 33.5q-11 52 -41 78t-66.5 23.5t-70.5 -29.5q-33 -28 -53 -81t-24.5 -87t-8.5 -94q-4 -75 4 -210t8 -185 q0 -41 2 -64q0 -8 1.5 -24t1.5 -25q3 -37 6.5 -60.5t13.5 -58t29.5 -57.5t48.5 -35q30 -11 68.5 -4.5t58.5 29.5q14 14 26 42t26 47.5t42 24.5q41 6 85 -6.5t52 -46.5q10 -35 -5.5 -69.5t-47 -61t-66 -46t-67.5 -30.5q-46 -15 -94 -21t-101 3.5t-86 38.5q-27 26 -46.5 66.5 t-27 69.5t-16.5 79q-7 32 -12 63.5t-8.5 69t-5.5 60t-3.5 68t-2 59.5t-1 67t-0.5 61zM239 -137.5q-3 27.5 1 70.5t4 51q8 137 8 409q0 537 -8 821v105q0 3 -3 33t-1 50.5t12 24.5q28 11 74 11q2 0 12 0.5t14 0t12 -2t11.5 -5t6.5 -11t3 -17.5q0 -33 -3.5 -92t-4.5 -76v-356 q0 -60 -6 -178t-6 -179q0 -39 5.5 -167t0.5 -199q-3 -70 0 -146q0 -12 0.5 -38.5t0.5 -43.5t-1 -39.5t-4 -40.5q-9 -8 -19.5 -13t-24 -7.5t-20.5 -3.5t-24.5 -1.5t-20.5 -0.5q-16 13 -19 40.5z" />
<glyph unicode="&#xa3;" horiz-adv-x="897" d="M55 629q0 18 19 18q63 0 125 4q-9 360 -9 453q-2 14 -2 39q4 180 91 260q40 40 73 57q41 21 115 25q39 0 57 -2h58q12 0 34 -13q26 -9 35 -14q8 -4 17.5 -13t15.5 -13q21 -21 21 -62q0 -21 -7 -37q-1 -3 -4 -7t-4 -7q-4 0 -6 -2q-2 -6 -6 -10q-4 -3 -15.5 -8.5 t-15.5 -8.5q-4 -2 -16 -2q-2 -1 -10 -3.5t-11 -2.5h-14q-4 -2 -16 -2q-20 0 -33 8q-10 6 -18.5 14t-19 20t-15.5 17q-8 14 -25 17q-23 10 -47 -11l2 3q-48 -28 -72 -99v2q-30 -92 -30 -155q-3 -162 -3 -373v-16q0 -3 1.5 -18.5t1.5 -18.5l186 -23h35q8 0 8 -10q4 -27 0 -53 l-8 -56q0 -2 -13 -2h-8q-84 0 -133 6l-51 9l-8 -70q-1 -10 -3 -105.5t-18 -144.5q-2 -10 -17.5 -48.5t-15.5 -51.5q16 1 127 1l111 -1q8 0 22 1.5t26 1.5t22 -3q27 -10 45 22q5 10 10.5 31.5t7.5 26.5q1 4 3 13t3.5 13t4 10t6 10.5t8.5 8.5q8 8 28 20q20 10 41 13 q41 10 78 -13q14 -6 17.5 -16t3.5 -30v-5q0 -25 -21 -78q-1 -2 -22 -39q-9 -12 -15 -24q-4 -3 -10.5 -5t-9.5 -5q-6 -3 -29 -21q-31 -24 -61 -37q-58 -28 -125 -28l-445 6q-1 19 3 61.5t4 52.5q70 52 94 134q6 16 8 54t1 72t-2 71t-1 40q0 1 -0.5 1.5t-1 2t-0.5 4.5 q0 29 -21 54q-45 0 -73.5 -0.5t-39 -1t-12.5 -0.5v2q-4 12 -4 22q-2 23 -2 68z" />
<glyph unicode="&#xa4;" d="M55 -23l56 66v-2l16 25q36 46 43 73q-68 270 -8 484l20 86q2 8 2.5 14.5t0 13t-0.5 10t-3 10.5t-4 10.5t-6 13t-7 14.5l-19 34q-8 11 -22 33.5t-22 33.5t-11 7q15 24 49 45l19 15q10 -9 43 -60q20 -36 45 -61q10 3 32.5 11.5t29 10t25 5t30.5 1.5t34 -6t47.5 -13.5 t59.5 -23.5q26 45 58.5 88.5t37.5 53.5q21 0 55 -21q17 -7 15.5 -22t-15.5 -39.5t-30 -47t-28.5 -45t-10.5 -32.5l30 -55q37 -115 37 -255.5t-41 -263.5v2q-14 -32 -14 -71q6 -33 45 -92q3 -5 8.5 -11.5t11 -14t11.5 -17.5q0 -1 1 -3.5t1 -3.5q10 -13 -11 -22.5t-75 -20.5 l-10 17q-31 51 -54 74q-54 -31 -109 -35t-95.5 12t-69.5 45q-28 -37 -61 -87.5t-35 -53.5l-4 4zM250 504q1 -39 0.5 -68.5t1.5 -64.5t8 -66q22 -107 80 -160q44 -29 84.5 -12t62.5 64q40 96 43 229t-28 223q-17 37 -45 60t-63 27t-72 -25h2l-21 -17q-57 -62 -53 -190z" />
<glyph unicode="&#xa5;" horiz-adv-x="851" d="M57 1507q5 10 52.5 13t91.5 2t67 2q6 0 7.5 -7.5t-1 -19t-5 -20.5t-5.5 -17q-18 -3 -45 4q30 -132 103.5 -333.5t101.5 -301.5q31 63 63 158t51.5 164t46.5 172.5l33 126.5q-10 -4 -19 -5t-23 0t-19 1q0 7 -1.5 34t-0.5 40h231q6 -8 10 -32t-5 -32q-3 -3 -8 -3.5 t-11.5 0.5t-7.5 1h-35q-197 -580 -228.5 -674.5t-31.5 -115.5q0 -28 2.5 -170.5t3.5 -242t-2 -188.5q2 0 8.5 1.5t11.5 1.5t9 -3q10 -3 12.5 -12t0 -25t-2.5 -18q-13 -8 -81 -9.5t-89 3.5l-6 12q-2 4 -6 13.5t-6 16t-2 13.5q11 4 53 9q-1 112 -1.5 205.5t-0.5 153t0.5 104.5 t1 69.5t1 38.5t1 20t0.5 7q-16 64 -125 380.5t-135 415.5q-35 4 -45 0q-3 3 -4.5 11.5t-4.5 11.5q0 2 -3.5 11.5t-2.5 12.5zM212.5 483q-2.5 22 2.5 39q9 12 25.5 12.5t27.5 -2.5h28t62 0.5t80 0.5t87 -0.5t78 -1t57.5 -2t21.5 -3.5q4 -9 4 -41q0 -2 0.5 -9t0 -10t-1.5 -8 t-3.5 -7t-7.5 -2q-318 0 -449 12q-10 0 -12.5 22zM213.5 648q-0.5 16 4 35t9.5 19q54 4 201 -1t258 8q9 0 8.5 -39t-8.5 -47q-34 0 -183 3t-284 3q-5 3 -5.5 19z" />
<glyph unicode="&#xa6;" horiz-adv-x="249" d="M55 1110l2 2zM57 1112h6q40 0 56 2q38 0 47 4q0 -33 2 -47v2q3 -34 8 -203q2 -14 2 -36q0 -24 1 -67.5t1 -66.5q0 -96 2 -137v-37h-4l-45 -6h-49q-4 0 -4 4v35q-5 151 -10 263t-7.5 154t-4 74.5t-1.5 61.5zM74 416q0 2 2 2l6 2q39 2 104 2q7 -106 7 -211v-74 q0 -24 -1.5 -67.5t-1.5 -63.5v-168q0 -1 -1 -2t-1 -2v-2l-94 -10q-1 0 -6 1t-6 1v-2l-2 -4q-2 6 2 6q-2 18 -2 51z" />
<glyph unicode="&#xa7;" horiz-adv-x="1040" d="M55 692q0 99 56 182l-2 -2q33 49 147 101h-2q38 12 86 12h6q-31 84 -31 170q0 40 12.5 91t30.5 87q49 74 135.5 116.5t178.5 37.5q79 -10 121 -33h-2q8 0 28 -20q0 -1 1 -4.5t1 -4.5l6 2q41 -27 62 -65l18 -33h-2q3 0 17 -41l8 -28q0 -5 4 -25q8 -19 8 -33q0 -15 -10 -18 l-1 -3q-1 -3 -1 -7q-20 -29 -66 -41q-16 -7 -41 -8t-41 8q-31 18 -43 81q-5 18 -9.5 49t-6.5 40q-4 30 -14 40l-17 9q-44 20 -88 20q-64 0 -117 -61q-41 -47 -57.5 -107t-5.5 -121q7 -43 30.5 -74.5t63.5 -68.5l-2 6l19 -24q0 -4 4 -4q26 -22 41 -44q18 -17 51.5 -43 t48.5 -40q12 -10 35 -30t37.5 -32t33.5 -30.5t33 -34.5q127 -120 158 -248q8 -27 8 -64q0 -40 -8 -71q-1 -3 -4 -21.5t-3.5 -23t-4 -20.5t-5.5 -22.5t-6.5 -20t-9.5 -21.5t-11.5 -19t-14.5 -20h2q-30 -34 -78 -63.5t-94 -41.5h2q-68 -14 -113 -14h-2q55 -98 55 -189 q0 -61 -24 -108q-62 -106 -164 -158q-33 -15 -86 -12q-7 0 -29.5 1t-33 1.5t-28.5 3.5t-32 8q-101 29 -146 72q-41 36 -55 104q-10 33 -5 63t32 54q41 41 84 33q47 -7 69 -74q2 -8 6 -38.5t12.5 -51t26.5 -27.5q4 -2 18.5 -8t22 -9t20 -5.5t23.5 -1.5q49 5 91 39t49 80 q8 54 -8 111.5t-50 110t-77.5 105t-92 104t-92 98.5t-80.5 96.5t-53 90.5q-33 79 -33 205zM174 629q14 -69 56 -139.5t81.5 -115.5t102.5 -108l32 -37q6 -5 27 -25.5t29.5 -28t29 -23t36 -21.5t38.5 -12t47 -6q35 0 70 12h-2q68 25 100.5 75.5t32.5 116.5q0 83 -45 154 q-70 114 -195 236q-36 28 -71 63l-8 8l-31 27q-28 20 -41 33q-19 15 -49 32q-20 14 -47.5 13.5t-44 -6.5t-46.5 -19q-58 -27 -86.5 -95t-15.5 -134zM682 1346v6h10z" />
<glyph unicode="&#xa8;" horiz-adv-x="430" d="M57 1381q4 20 18 37.5t31 23.5q35 9 64 -17q20 -25 6.5 -58.5t-37.5 -47.5q-35 -9 -55.5 -2t-25.5 25.5t-1 38.5zM246 1352q-22 39 13 69q31 28 69 15q27 -9 41 -41q18 -44 -21 -64q-23 -15 -54 -9.5t-48 30.5z" />
<glyph unicode="&#xa9;" horiz-adv-x="1150" d="M55 942q0 111 22.5 278.5t59.5 229.5v-2l35 49v-2q10 10 28 29.5t33 35t31 27.5q179 127 373 127q80 0 164 -41v2q52 -28 101 -73.5t71 -90.5q87 -182 108 -387q2 -21 3.5 -76.5t7.5 -86.5v2q4 -21 4 -86q0 -84 -10 -168.5t-32.5 -177.5t-69.5 -169t-112 -116 q-146 -90 -297 -90q-28 0 -34 2l-35 6h2q-164 23 -262 121v-2q-56 62 -93 126.5t-56.5 116.5t-29 130.5t-11 130t-1.5 155.5zM158 909q0 -205 8 -219q10 -45 24 -80q52 -149 128 -231t210 -113l-2 2q19 -8 43 -8q10 0 21.5 1.5t19.5 3.5t21.5 6.5t19 7t20.5 9t19 7.5 q64 30 111.5 67t78 84.5t49.5 93.5t27.5 109t11.5 115t3 127q0 358 -58 477l2 -2q-58 106 -135 163.5t-188 57.5q-136 0 -213 -61q-61 -42 -98 -82q-17 -18 -30.5 -40t-24.5 -51.5t-19 -51.5t-14.5 -60.5t-10.5 -57t-7.5 -63t-5 -56.5t-4.5 -58.5t-3 -49.5v2q-4 -32 -4 -49z M295 887v31q0 58 0.5 89t4 86t13.5 91t26 79t43 76.5t64 59.5q62 47 142 47q38 0 78 -12q4 -3 15 -6.5t15 -6.5q3 -2 9 -4q25 -15 32 -22q11 -6 22.5 -16.5t24.5 -38.5t13 -62q0 -27 -19 -49q-18 -24 -22 -27q-5 -3 -16.5 -7t-16.5 -7h-35q-23 0 -29 2q-5 3 -20 24 q-3 7 -6 20.5t-6 20.5q-1 2 -4.5 8.5t-4.5 10.5l-4 16l-16 25q-4 3 -10 5t-10 5q-2 2 -5 2h-8q-11 3 -4 10q-41 -14 -72 -58.5t-46.5 -97t-25 -120t-12 -113.5t-2.5 -92q0 -64 21 -123q16 -61 49 -100q25 -28 37 -37q11 -8 26.5 -10.5t28.5 4.5l21 16q14 10 28 35 q3 6 7 11.5t9.5 11l8.5 8.5q26 26 76 14q3 -1 8 -5t8 -5q4 -3 6 -5t4 -4.5t4 -4.5q17 -14 23 -27q12 -24 12 -41q0 -32 -4 -41q-12 -43 -41 -72q-5 -8 -17.5 -16.5t-15.5 -11.5q-3 -1 -6 -4.5t-6 -4.5q-8 0 -10 -2q-4 0 -9 -3t-7 -3q-5 -5 -34 -4.5t-34 0.5h-55 q-26 3 -52 19l-20 10q-15 7 -25 10l2 -2q-22 12 -46.5 45.5t-39.5 63.5q-41 86 -53 152.5t-12 156.5z" />
<glyph unicode="&#xaa;" horiz-adv-x="421" d="M57 1145q11 116 95 158q21 11 37.5 16.5t34.5 3.5t25 -3.5t28 -10.5t26 -11q4 6 4.5 18.5t-1 29t-1.5 20.5q0 31 -20 64q-2 2 -3.5 6t-2.5 6.5t-3.5 4.5t-5.5 3q-10 4 -22 -8q-2 -3 -5.5 -6.5l-5.5 -5.5t-3.5 -6t-2.5 -9q-1 -4 -3 -19.5t-7 -24t-16 -11.5q-18 -5 -35.5 0 t-24.5 18q-16 25 0 56q4 8 6 24t5 23q12 24 51 37.5t65 5.5q29 -10 50.5 -37t29.5 -60q15 -88 15 -110q-4 -136 -5 -292q-1 -80 -2.5 -101t-9.5 -21h-49l-4 43q-22 -11 -37 -21l-19.5 -13t-14.5 -5t-31 -2q-42 -3 -76 41q-71 87 -62 199zM125 1110q0 -69 27.5 -112.5 t76.5 -24.5q38 19 56 59.5t18 87.5q0 24 -1.5 40.5t-7 40t-19 40.5t-35.5 27q-67 -1 -91 -42.5t-24 -115.5z" />
<glyph unicode="&#xab;" horiz-adv-x="698" d="M55 655q145 210 203 314l27 43h2h4l59 -45q-147 -223 -165 -258q-29 -53 -17 -82q4 -10 18 -29l197 -258q-24 -35 -57 -53q-1 0 -11 16l-2 2l2 -4zM322 664v6l256 346l61 -53q13 -9 -38.5 -91t-104.5 -159.5t-47 -77.5q160 -247 184 -291q4 -4 -2 -4l-45 -18h2 q-10 -2 -37 -15v4l-19 19z" />
<glyph unicode="&#xac;" horiz-adv-x="1060" d="M55 682q4 0 6 -2q-2 33 -2 88q0 4 2 6h26t71 0.5t138 1t262.5 0.5h408.5q11 0 39 -4q0 -8 -1 -30t-1 -29v-256q0 -7 -1.5 -21.5t-1.5 -21.5h-2h2q-10 -3 -54.5 -2.5t-47.5 6.5v-4l-2 100v168q0 3 -7 3.5t-27 -0.5t-34 -1q-212 0 -477 -8q-63 0 -161.5 1t-100.5 1 q-19 0 -29 2zM1001 414l3 4q0 -1 -1.5 -2t-1.5 -2z" />
<glyph unicode="&#xad;" horiz-adv-x="722" d="M55 584v112q0 24 8 29q2 2 11 2l127 -4h387q35 -4 53 -10q3 0 9 -2.5t7 -3.5q7 -3 7 -21q4 -82 4 -121q0 -35 -15 -35q-25 0 -39 2q-11 0 -146.5 8.5t-168.5 12.5q-17 0 -93.5 1t-90.5 1q-13 0 -25 -4q-6 -2 -8.5 -2t-9.5 3t-9 3q-8 0 -8 29z" />
<glyph unicode="&#xae;" horiz-adv-x="980" d="M55 1012q0 90 17 157l8 33q15 88 53 133q24 29 51 49.5t66 37t59.5 23t71.5 21.5q63 17 119 17q87 0 182 -31q79 -24 129.5 -83t71.5 -144q8 -30 11.5 -91t4.5 -71q5 -81 8 -96q19 -222 19 -349q0 -73 -2 -112q0 -7 -1 -19.5t-1 -19.5q-4 -127 -29 -174 q-26 -42 -36.5 -57.5t-32 -37t-48.5 -36.5q-18 -8 -44.5 -13.5t-45.5 -7.5t-55 -4.5t-49 -3.5q-28 0 -60 -4q-152 0 -207 18q-65 22 -112 64q-138 112 -142 379q-4 184 -4 280v70q0 13 -1 37t-1 35zM152 948q0 -25 2 -74.5t2 -72.5q4 -78 4 -105q4 -78 4 -114q0 -76 6 -111 l4 -39q3 -13 5 -35t5 -30q38 -118 135 -136h-2q46 -4 72 -4q28 0 98 4q35 5 45 5q5 0 15.5 1t15.5 1q117 7 166 25q102 38 109 143v-3q4 21 4 105q0 88 -17 301q-15 183 -16 207q-12 164 -47 229q-50 97 -113 127h2q-45 21 -112 21q-63 0 -140 -15q-139 -26 -194 -121v3 q-16 -26 -26.5 -64t-14 -64t-8.5 -83v-11q-4 -62 -4 -90zM285 1174v18q3 10 26 10h33q5 0 12 0.5t12 0.5t9 -1q28 4 35 4q106 15 174 -30q49 -35 77 -96t23 -122q-5 -128 -12.5 -177t-32.5 -85q10 -6 18 -15.5t13 -19t10 -25.5t7.5 -26t5 -29.5t3 -28t2.5 -30t2 -26.5 q0 -8 1.5 -20t1.5 -17v-8q20 4 26 2q4 -12 4 -21q1 -7 1 -16.5t1 -16.5q2 -6 2 -22v-19h-34h-52h-28q-4 0 -11.5 -1t-11.5 -1q-1 0 -9 -1.5t-14.5 -1.5t-9.5 3v15l-6 22q-5 14 -8 17q-1 3 -5.5 6t-4.5 6l22 6q14 2 33 2q2 0 4 2q-2 17 -4.5 52.5t-5.5 62t-8 39.5 q-15 48 -45 71.5t-95 8.5q-8 -34 -10 -116t-4 -99v-15q7 0 20.5 2.5t16.5 1.5l4 -2v-6v-14v-33q0 -2 1 -7.5t0.5 -9t-3.5 -6.5q-4 -4 -20 -4h-56h-26q-4 0 -10.5 -1t-10.5 -1q-20 -4 -26 -4q-7 0 -11 4t-4 11q-1 4 -1 10t0.5 13t0.5 9q0 5 -1 12t-1 11q-2 2 -2 6v4q1 6 14 4 h5h28q-10 163 -10 383v84v58l4 155h-8h-29h-16v10q0 7 -4 7v18q0 4 -1 12t-1 11zM444 770q52 0 93 18q47 33 47 136q0 77 -33.5 135.5t-101.5 58.5l2 -41q2 -51 -2 -168q-5 -87 -5 -139z" />
<glyph unicode="&#xaf;" horiz-adv-x="772" d="M55 1473v102q0 19 8 27q2 2 13 2l135 -5h422l57 -6q6 0 19 -8q4 -4 4 -18q4 -78 4 -111t-15 -33q-29 0 -43 2q-2 0 -76 4.5t-157 9.5t-107 5q-17 0 -101 1t-99 1q-21 0 -25 -4q-6 -1 -31 4q-8 0 -8 27z" />
<glyph unicode="&#xb0;" horiz-adv-x="501" d="M57 1286q-9 75 25 133q24 39 70 61.5t96 24.5q28 1 62.5 -12.5t56.5 -32.5q28 -21 53 -67.5t24 -87.5q-5 -59 -24 -84q-34 -50 -94.5 -78.5t-116.5 -12.5q-36 6 -72 31q-22 14 -39 41q-34 47 -41 84zM197 1300q13 -18 47 -18q19 0 41.5 12t19.5 29q-8 37 -57 33 q-29 -2 -46.5 -18t-4.5 -38z" />
<glyph unicode="&#xb1;" horiz-adv-x="706" d="M56 125q1 11 4 45t3 61l578 -10q0 -4 1.5 -18.5t3 -30.5t2.5 -32.5t0 -27t-5 -10.5q-173 4 -326.5 2t-179 -4t-80.5 6q-2 8 -1 19zM63 702q0 19 84 19h21q34 0 88 4q14 2 45 2l-8 64q-8 47 -8 112q0 51 2 53v-2q34 17 53 17q28 0 41 -13l4 -79q4 -87 2 -103l-2 -49 q8 -3 17 -2.5l45 2.5t65 2q22 0 61.5 1t53.5 1h8q4 -32 4 -65q0 -48 2 -48q-77 -12 -248 -8q13 -69 13 -141q0 -51 2 -74q0 -30 -21 -30q-20 0 -35 -3q-8 0 -20 -4q-23 0 -23 13q0 16 -2 51t-2 55q0 95 -4 133q-26 -4 -82 -4h-63q-61 0 -88 -2q-5 26 -5 98z" />
<glyph unicode="&#xb2;" horiz-adv-x="350" d="M55 977q0 49 45 131q33 43 39 53q55 55 78 117q19 64 19 86q0 44 -37 63q-15 9 -31 9q-30 0 -39 -15q-8 -10 -8 -37q0 -16 -2 -24q-2 -11 -17 -14q-30 -4 -39 16q-7 13 -4 37q11 43 68 76v-2q16 8 37 8q9 0 25 -3.5t20 -4.5q65 -33 65 -117q0 -81 -55 -154 q-5 -10 -18 -25t-17 -22q-3 -4 -16 -19t-21 -28v2q-52 -93 -45 -133q16 -6 60 -6q13 0 45 1t49 1q0 6 -2 8q-4 11 -2 16q33 5 41 0v-63q-2 -2 -8 -2q-8 -2 -26 -2t-39 1t-25 1q-116 0 -132 2q-8 19 -8 43z" />
<glyph unicode="&#xb3;" horiz-adv-x="395" d="M59 1489q0 5 115 12l82 2q19 0 27 -8q1 0 -0.5 -2t-3.5 -6l-3 -6l-24 -43q-20 -36 -59 -95l18 -8q24 -5 60.5 -33.5t54.5 -66.5q12 -35 12 -100q0 -57 -8 -78q-9 -32 -39 -78v2q-26 -33 -58 -47h3q-23 -10 -46 -10q-18 0 -28 2q-14 -3 -43.5 20t-49.5 59t-8 62 q10 22 48 18q32 -13 32 -61v-5q0 -16 1 -24.5t6.5 -18t17.5 -13.5q33 -11 60.5 9.5t41.5 53.5q25 61 25 125v6q0 49 -33 88t-80 47q-23 0 -37 2q-29 0 -39 2q8 21 62 95q5 7 15.5 22.5t17 26.5t10.5 22q-9 0 -37 1.5t-43 0.5q-8 -2 -20 -2q0 -6 2 -12q0 -19 -4 -23t-27 -4 q-4 0 -7.5 11.5t-6.5 27t-5 19.5q0 1 -1 4t-1 4z" />
<glyph unicode="&#xb4;" horiz-adv-x="270" d="M55.5 1316.5q0.5 8.5 3.5 26t4 25.5q0 115 43 115q81 -5 105 -33q6 -12 0 -23t-19 -26.5t-14 -20.5q-5 -9 -22.5 -44.5t-30.5 -53.5q-17 -20 -39.5 -19t-28.5 29q-2 16 -1.5 24.5z" />
<glyph unicode="&#xb5;" horiz-adv-x="899" d="M56.5 1029q-5.5 29 0.5 42q6 3 20.5 3t18.5 1q73 5 90 8q3 0 18.5 2t23 2.5t17.5 -3t15 -11.5q23 -41 23 -63q0 -9 -2 -9q0 -2 -9 -2q-4 0 -6 -2h-22q-25 -447 -25 -551v-49q-4 -105 23 -166q18 -41 30 -53q15 -15 54 -30t88 -15q58 0 108 23q50 26 64 80q27 69 30 151 v109v147q0 13 -1 39.5t-1 42.5q-4 163 -16 272q-1 0 -12 -1t-17 -5q-1 4 4 19v28q-1 5 -7 17.5t-5 21.5q12 3 25 4t31 1t28 1q8 1 29.5 5t30 5t30 2.5t29.5 -1.5q5 -34 6 -37t6.5 -18.5t5.5 -18.5q-2 -12 -41 -12v-56q0 -613 11 -714q4 -37 4 -181q10 2 28 2q29 3 58 0 q4 -3 0 -17t-4 -15q0 -27 -2 -37q-2 -5 -5.5 -8.5t-9 -5.5t-10.5 -3t-12.5 -1.5t-12 -0.5h-11.5h-9q-14 0 -57 -5.5t-70 -2.5v25q0 1 1 2t1 2l-6 61q-27 -6 -111.5 -41.5t-134.5 -29.5q-76 10 -129 41q-50 26 -80 77q-8 9 -14.5 21t-9.5 21t-8.5 28t-8.5 29q-28 73 -28 538 q0 47 0.5 95t1 79.5t0.5 36.5v23v28q-26 -4 -35 -2q-16 3 -21.5 32zM96 -265.5q-3 21.5 0.5 56.5t3.5 45q9 173 9 344q0 422 -9 692v89q0 1 -2 27t0 42.5t11 20.5q18 8 63 8h8.5h10t9.5 -0.5t10 -2.5t7.5 -5t5.5 -8.5t2 -12.5q0 -27 -3.5 -76t-4.5 -65v-299q0 -50 -5 -150.5 t-5 -150.5q0 -26 5 -154.5t-1 -154.5q-3 -58 0 -123q0 -10 1 -40.5t0.5 -53.5t-3.5 -42q-11 -9 -24.5 -14t-21.5 -6t-27 -1.5t-23 -0.5q-14 14 -17 35.5z" />
<glyph unicode="&#xb6;" horiz-adv-x="942" d="M57 952q-4 228 56 346l-2 -6q7 7 20 33v-2q32 55 87.5 81t135.5 38l33 4q78 12 133 12q33 -2 66 -2q58 0 162 -15t104 -24q-3 -14 -3 -34.5t1.5 -46t1.5 -36.5q0 -67 2 -98q0 -76 -8 -282t-8 -224q-4 -136 -4 -200q0 -141 2 -213q2 -55 2 -164v-8q41 6 47 -11 q1 -5 -0.5 -16.5t-1.5 -13.5v-50v-49l1 -5q2 -5 2 -9.5t-3 -7.5h-4h-5q-2 -1 -5 -2l-4.5 -1.5t-2.5 -0.5q-3 -1 -11.5 -1t-12.5 -1q-12 -3 -15 -3.5t-8.5 0.5t-13.5 1h-66q-5 0 -17 2t-20 2h-32q-31 8 -58 8h-59h-43q-2 0 -14 4h-11q-4 1 -4 20q1 15 -2.5 39t-3.5 35 q0 15 4 19h21q24 5 36 10q1 0 4.5 1t4.5 1v4q0 45 -4 123q-5 123 -5 149q0 9 7 146q-91 0 -194.5 21t-151.5 57q-64 61 -100 167t-36 203zM616 1225l13 -1131h18q3 0 11 2t12 2q3 0 8.5 1t9.5 1q16 2 49 2l25 4l2 603v57q6 86 6 176q0 122 -14 369q-36 9 -69 4.5t-40 -2.5 q-11 0 -17.5 -5t-9.5 -19t-3.5 -26t-0.5 -38z" />
<glyph unicode="&#xb7;" horiz-adv-x="262" d="M59.5 867.5q-12.5 37.5 6.5 72t57 39.5q-2 -2 -6 -2h4q58 8 78 -44q17 -45 -7 -85q-26 -46 -79 -29q-41 11 -53.5 48.5z" />
<glyph unicode="&#xb8;" horiz-adv-x="413" d="M23 -178l1 8q1 7 5 12q1 6 8 19q2 5 20 16q29 6 49 -8q3 -3 8.5 -10t11 -12t11.5 -9q15 -9 37 -6q13 0 25 6l16 15q1 3 3 5t3 5l4 6l2 4v-2q12 20 6 36.5t-34 33.5l-49 16q0 27 -8 61t-7 58q33 -8 71.5 -9t65.5 9q0 -25 -2 -31q-10 -68 47 -94q20 -14 34 -33t20 -43 t-11 -45q-20 -28 -53 -55t-63 -37q-3 -1 -15 -4t-20 -4q-28 -4 -39 -4h-41q-3 0 -6 1t-6 1q-9 -3 -19 0q-25 2 -51 28q-7 6 -18 31q-6 18 -6 35z" />
<glyph unicode="&#xb9;" horiz-adv-x="313" d="M55 1409q6 0 72 66q5 5 8.5 8t6.5 6.5t6 5t5 3.5t5.5 2.5t4.5 1.5t6 1h7h9h10q13 0 59 -4q4 -42 4 -192v-363q0 -75 -4 -96q-2 -47 -2 -125q-7 -5 -23.5 -10t-29.5 -7t-13 -1v96q0 62 1 236.5t1 240.5q0 141 -24 143q-4 0 -8 -4q-16 -18 -26.5 -27t-24 -15t-26 2.5 t-24.5 31.5z" />
<glyph unicode="&#xba;" horiz-adv-x="456" d="M57 1288q-4 69 23 121q23 34 63.5 54t83.5 20q21 1 53 -12.5t52 -28.5q26 -19 47.5 -58t21.5 -77q-4 -51 -22 -76q-27 -43 -82 -68.5t-104 -13.5q-47 16 -64 29q-30 21 -37 34q-27 38 -35 76zM147 1284q24 -33 74 -33q30 0 64.5 22.5t27.5 57.5l2 -2q-7 31 -33 46.5 t-59 10.5q-45 -5 -70.5 -36t-2.5 -66h-3z" />
<glyph unicode="&#xbb;" horiz-adv-x="704" d="M57 332l90 145l89 141h-3l37 64q-29 50 -91.5 118t-110.5 132q1 1 21 26t38.5 45t22.5 17q61 -82 106.5 -145t68.5 -94.5t36.5 -51.5t19 -28t8.5 -11q-61 -116 -105.5 -198t-67.5 -123.5t-37 -64t-18 -26t-5 -2.5q-38 14 -80 39v-2q-22 10 -19 19zM342 985l72 57 l221 -309q14 -20 14 -43q0 -7 -52 -99t-107.5 -187t-57.5 -99q-7 -2 -41 27q-1 1 -14 10.5t-19 15.5l74 127q64 118 92 177q0 11 4 22q-41 68 -91.5 143t-72.5 109.5t-22 48.5z" />
<glyph unicode="&#xbc;" horiz-adv-x="976" d="M55 1409q6 0 72 66q5 5 8.5 8t6.5 6.5t6 5t5 3.5t5.5 2.5t4.5 1.5t6 1h7h9h10q13 0 59 -4q4 -42 4 -192v-363q0 -75 -4 -96q-2 -47 -2 -125q-7 -5 -23.5 -10t-29.5 -7t-13 -1v96q0 62 1 236.5t1 240.5q0 141 -24 143q-4 0 -8 -4q-16 -18 -26.5 -27t-24 -15t-26 2.5 t-24.5 31.5zM82 0q22 59 196 437t302 650q14 33 27 61.5t19 41.5t5 10l4 4l4 8q116 246 119 252q4 -2 14 -2q2 0 14 -4l11 -8q6 -6 18 -10q-2 -15 -18 -47q-6 -11 -11 -25q-18 -42 -302.5 -645.5t-340.5 -716.5h-6q-23 -6 -55 -6zM485 291q87 169 158 320t84 190 q1 2 4.5 10.5t6 15t6.5 14t8 11.5t8 4l61 -2l8 -240q0 -13 1 -31t1 -24v-203q25 -6 43 -2q43 5 48 0v-51q-1 -5 -7.5 -5.5t-19 0.5t-16.5 1q-52 0 -52 -2q2 -26 0.5 -63t-5 -100t-3.5 -89q2 0 11.5 1.5t17 1.5t10.5 -3q7 -6 3.5 -26.5t-13.5 -20.5q-25 0 -53 -4 q-4 0 -14 -1.5t-18.5 -1.5t-14.5 3q-7 1 -9.5 8t-4 17.5t-5.5 15.5q1 3 3 3.5t5 0t6 0.5q3 0 10.5 1t10.5 1q1 15 4 57.5t3.5 60.5t1.5 48t-1 50t-6 36q-3 0 -48 0.5t-87.5 1t-87 -0.5t-58.5 -3zM596 346h31q106 0 139 4q12 50 12 185q0 17 1 60t1 71t-2 61.5t-8 52.5 q-48 -114 -112.5 -272.5t-61.5 -161.5z" />
<glyph unicode="&#xbd;" horiz-adv-x="919" d="M57 0q14 39 107.5 241.5t217.5 470.5t173 375q14 33 27 61.5t19 41.5t5 10l4 4l4 8q116 246 119 252q4 -2 15 -2q2 0 14 -4l10 -8q6 -6 19 -10q-2 -13 -19 -47q-4 -7 -10 -25q-18 -42 -302.5 -645.5t-340.5 -716.5h-6q-23 -6 -56 -6zM98 1409q6 0 72 66q5 5 8.5 8 t6.5 6.5t6 5t5 3.5t5.5 2.5t4.5 1.5t6 1h7h9h10q13 0 59 -4q4 -42 4 -192v-363q0 -75 -4 -96q-2 -47 -2 -125q-7 -5 -23.5 -10t-29.5 -7t-13 -1v96q0 62 1 236.5t1 240.5q0 141 -24 143q-4 0 -8 -4q-16 -18 -26.5 -27t-24 -15t-26 2.5t-24.5 31.5zM541 80q0 75 59 180 q8 13 26.5 36.5t26.5 35.5q80 87 105 160q2 6 8 26.5t9 31t6 27.5t3 31q0 62 -51 86q-19 11 -41 11q-41 0 -53 -19q-12 -17 -12 -51q0 -23 -2 -33q-1 -6 -3 -9.5t-9.5 -6.5t-8.5 -4q-15 -2 -31 4.5t-22 19.5q-10 16 -6 49q13 55 92 103v-2q24 12 51 12q28 0 60 -14 q90 -45 90 -158q0 -107 -76 -209q-13 -21 -49 -61l-47 -66v2q-20 -31 -44 -91t-20 -89q31 -8 82 -8q45 0 127 4q0 8 -2 10q-4 16 -4 21q3 0 13.5 1.5t16 2t13 0t12.5 -3.5l2 -86q-9 -3 -12 -3q-11 -2 -61.5 -0.5t-61.5 -1.5q-48 0 -110 2.5t-66 2.5q-10 23 -10 57z" />
<glyph unicode="&#xbe;" horiz-adv-x="892" d="M59 1487q0 7 142 14l100 4q25 0 35 -10q-6 -10 -8 -18l-33 -54q-45 -81 -72 -116l25 -9q32 -12 76 -45t63 -79q16 -43 16 -125q0 -59 -10 -97q-8 -27 -47 -94v2q-25 -35 -72 -59h2q-29 -13 -55 -13q-10 0 -35 5q-19 -5 -55.5 24t-60.5 73.5t-9 74.5q6 14 23.5 21t34.5 1 q43 -13 43 -74v-15v-16.5t1.5 -13t5 -14t9.5 -9.5t15 -7q37 -15 69.5 9.5t54.5 65.5q28 76 31 156v8q-5 62 -43 109.5t-96 56.5q-16 2 -47 2l-49 4q16 31 77 115q4 5 13 18.5l13 19.5t10.5 16t10.5 18.5t7 17.5q-66 4 -99 2h-26q2 -6 2 -16q4 -23 -3 -28t-34 -5 q-4 0 -9 13.5t-9 34t-5 22.5q0 1 -1 5t-1 5zM82 0q14 39 107.5 241.5t217.5 470.5t173 375q14 33 27 61.5t19 41.5t5 10l4 4l4 8q116 246 119 252q4 -2 14 -2q2 0 14 -4l11 -8q6 -6 18 -10q-2 -15 -18 -47q-6 -11 -11 -25q-18 -42 -302.5 -645.5t-340.5 -716.5h-6 q-23 -6 -55 -6zM401 293q87 169 158 320t84 190q21 55 33 55l61 -2l8 -240q0 -13 1.5 -31t1.5 -24v-203q25 -6 43 -2q42 5 47 0v-51q-1 -4 -7 -5t-20 0t-16 1q-52 0 -52 -2q0 -7 -4 -110.5t-4 -141.5q2 0 11.5 2t17 2t10.5 -4q7 -6 3.5 -26.5t-13.5 -20.5q-25 0 -53 -4 q-4 0 -13.5 -1.5t-18 -1.5t-15.5 3q-5 0 -8.5 6t-6 18t-4.5 17q1 1 7 2t7 2q8 2 21 2q1 32 4.5 97t3.5 86.5t-6 68.5q-3 0 -48 0.5t-87.5 1t-86.5 -0.5t-59 -3zM512 348h31q106 0 139 4q12 49 12 185q0 17 1 60t1 71.5t-2 62t-8 51.5q-45 -105 -111.5 -269.5t-62.5 -164.5z " />
<glyph unicode="&#xbf;" horiz-adv-x="708" d="M55 -387q0 170 109 303l53 64q81 89 115 153q27 55 51 139q7 27 2 86q0 44 10.5 57t55.5 13q21 0 32 -8q0 -7 1 -15.5t1 -15.5q0 -12 1 -32.5t1 -28.5q0 -110 -26 -172q-24 -73 -96 -160l-117 -133q-34 -43 -66 -144q-16 -56 -16 -110q0 -88 33 -158q41 -90 131 -110 q31 -3 67.5 -1t66.5 24.5t30 60.5q0 14 -3.5 50t-2 62.5t11.5 48.5q11 30 45.5 34.5t58.5 -11.5q34 -19 41 -47q29 -123 -62 -222t-229 -92q-80 5 -150 47.5t-104 114.5q-45 105 -45 203zM356 668q1 23 21 38.5t47 20.5v-2q36 13 67 2t27 -47q-2 -31 -20 -60t-45 -28 q-7 0 -18.5 2t-31.5 8t-33.5 23t-13.5 43z" />
<glyph unicode="&#xc0;" horiz-adv-x="909" d="M67 23.5q0 17.5 5 33.5t10 25q54 4 57 4q65 322 155.5 707.5t123.5 541.5h-29q-26 -4 -49 4q-1 8 -1 26t-1 26t-6 14.5t-2 15.5q6 0 16 3t12 3q18 3 71.5 1t80.5 2q20 -94 70 -373q20 -140 75.5 -436t112.5 -545q12 0 14 2q12 2 31 -1t25 -9q9 -6 6.5 -36.5t5.5 -35.5 q-19 -3 -53 1.5t-45 4.5q-8 0 -74 -5t-72 1q0 26 -8 45q-4 10 -5 14.5t2.5 8t12.5 6.5q13 4 34.5 1.5t25.5 -1.5h2q-47 176 -57.5 223t-14.5 100l-287 6q-4 -31 -18.5 -96t-18.5 -86q-5 -28 -10 -62.5t-10 -62.5q20 3 41 0l22 -4l-4 -31q-4 -35 -2 -51q-21 0 -59 -2t-59 -2 q-13 0 -37 -2t-43 -2t-35 4q-11 2 -11 19.5zM305.5 1669q-0.5 6 3.5 12q24 28 105 33q19 0 28.5 -21t13 -56.5t3.5 -37.5q1 -7 3.5 -25.5t2.5 -25.5t-2 -24q-6 -28 -28.5 -29.5t-39.5 18.5q-13 18 -30.5 54t-22.5 45q-2 2 -8 10t-11.5 15t-11 16.5t-6 15.5zM340 510 q38 -4 139 -4h99l-13 98q-46 305 -98 471q-32 -72 -52.5 -153.5t-36.5 -184t-20 -121.5z" />
<glyph unicode="&#xc1;" horiz-adv-x="909" d="M67 23.5q0 17.5 5 33.5t10 25q54 4 57 4q65 322 155.5 707.5t123.5 541.5h-29q-26 -4 -49 4q-1 8 -1 26t-1 26t-6 14.5t-2 15.5q6 0 16 3t12 3q18 3 71.5 1t80.5 2q20 -94 70 -373q20 -140 75.5 -436t112.5 -545q12 0 14 2q12 2 31 -1t25 -9q9 -6 6.5 -36.5t5.5 -35.5 q-19 -3 -53 1.5t-45 4.5q-8 0 -74 -5t-72 1q0 26 -8 45q-4 10 -5 14.5t2.5 8t12.5 6.5q13 4 34.5 1.5t25.5 -1.5h2q-47 176 -57.5 223t-14.5 100l-287 6q-4 -31 -18.5 -96t-18.5 -86q-5 -28 -10 -62.5t-10 -62.5q20 3 41 0l22 -4l-4 -31q-4 -35 -2 -51q-21 0 -59 -2t-59 -2 q-13 0 -37 -2t-43 -2t-35 4q-11 2 -11 19.5zM340 510q38 -4 139 -4h99l-13 98q-46 305 -98 471q-32 -72 -52.5 -153.5t-36.5 -184t-20 -121.5zM410.5 1546q0.5 8 3.5 25.5t4 25.5q0 115 43 115q80 -5 104 -33q6 -12 0 -22.5t-19 -26t-14 -20.5q-5 -9 -22.5 -45t-30.5 -54 q-17 -20 -39 -18.5t-28 29.5q-2 16 -1.5 24z" />
<glyph unicode="&#xc2;" horiz-adv-x="909" d="M67 23.5q0 17.5 5 33.5t10 25q54 4 57 4q65 322 155.5 707.5t123.5 541.5h-29q-26 -4 -49 4q-1 8 -1 26t-1 26t-6 14.5t-2 15.5q6 0 16 3t12 3q18 3 71.5 1t80.5 2q20 -94 70 -373q20 -140 75.5 -436t112.5 -545q12 0 14 2q12 2 31 -1t25 -9q9 -6 6.5 -36.5t5.5 -35.5 q-19 -3 -53 1.5t-45 4.5q-8 0 -74 -5t-72 1q0 26 -8 45q-4 10 -5 14.5t2.5 8t12.5 6.5q13 4 34.5 1.5t25.5 -1.5h2q-47 176 -57.5 223t-14.5 100l-287 6q-4 -31 -18.5 -96t-18.5 -86q-5 -28 -10 -62.5t-10 -62.5q20 3 41 0l22 -4l-4 -31q-4 -35 -2 -51q-21 0 -59 -2t-59 -2 q-13 0 -37 -2t-43 -2t-35 4q-11 2 -11 19.5zM256 1505l80 60q109 79 115 82q29 -23 60.5 -47.5t44 -34t27 -21t21.5 -16.5t15 -10.5t20 -12.5l-59 -67q4 4 -1.5 10t-48.5 39q-37 27 -79 53q-58 -32 -88 -50.5t-33.5 -23.5t-9.5 -11t-19 -15q3 4 -3 11.5t-17 19.5t-17 22z M340 510q38 -4 139 -4h99l-13 98q-46 305 -98 471q-32 -72 -52.5 -153.5t-36.5 -184t-20 -121.5z" />
<glyph unicode="&#xc3;" horiz-adv-x="909" d="M67 23.5q0 17.5 5 33.5t10 25q54 4 57 4q65 322 155.5 707.5t123.5 541.5h-29q-26 -4 -49 4q-1 8 -1 26t-1 26t-6 14.5t-2 15.5q6 0 16 3t12 3q18 3 71.5 1t80.5 2q20 -94 70 -373q20 -140 75.5 -436t112.5 -545q12 0 14 2q12 2 31 -1t25 -9q9 -6 6.5 -36.5t5.5 -35.5 q-19 -3 -53 1.5t-45 4.5q-8 0 -74 -5t-72 1q0 26 -8 45q-4 10 -5 14.5t2.5 8t12.5 6.5q13 4 34.5 1.5t25.5 -1.5h2q-47 176 -57.5 223t-14.5 100l-287 6q-4 -31 -18.5 -96t-18.5 -86q-5 -28 -10 -62.5t-10 -62.5q20 3 41 0l22 -4l-4 -31q-4 -35 -2 -51q-21 0 -59 -2t-59 -2 q-13 0 -37 -2t-43 -2t-35 4q-11 2 -11 19.5zM145 1567q7 31 43 63q67 67 148 64q26 -3 51 -17q18 -7 31 -20l6 -6q58 -54 113 -74q70 -23 92 18q5 9 14 35q1 5 1 13t1 15t4 13q29 47 62 39q39 -9 49 -51q9 -87 -49 -139q-24 -16 -64 -41q-32 -13 -69 -13q-45 0 -98.5 21.5 t-90.5 52.5q-51 39 -94 39q-7 0 -18 -2t-15 -2q-6 0 -16 -16l-10 -35q-11 -26 -23 -31q-32 -17 -59 31q-11 26 -9 43zM340 510q38 -4 139 -4h99l-13 98q-46 305 -98 471q-32 -72 -52.5 -153.5t-36.5 -184t-20 -121.5z" />
<glyph unicode="&#xc4;" horiz-adv-x="909" d="M67 23.5q0 17.5 5 33.5t10 25q54 4 57 4q65 322 155.5 707.5t123.5 541.5h-29q-26 -4 -49 4q-1 8 -1 26t-1 26t-6 14.5t-2 15.5q6 0 16 3t12 3q18 3 71.5 1t80.5 2q20 -94 70 -373q20 -140 75.5 -436t112.5 -545q12 0 14 2q12 2 31 -1t25 -9q9 -6 6.5 -36.5t5.5 -35.5 q-19 -3 -53 1.5t-45 4.5q-8 0 -74 -5t-72 1q0 26 -8 45q-4 10 -5 14.5t2.5 8t12.5 6.5q13 4 34.5 1.5t25.5 -1.5h2q-47 176 -57.5 223t-14.5 100l-287 6q-4 -31 -18.5 -96t-18.5 -86q-5 -28 -10 -62.5t-10 -62.5q20 3 41 0l22 -4l-4 -31q-4 -35 -2 -51q-21 0 -59 -2t-59 -2 q-13 0 -37 -2t-43 -2t-35 4q-11 2 -11 19.5zM309 1571q4 20 18 37.5t31 23.5q36 9 64 -16q20 -25 6.5 -59t-37.5 -48q-35 -9 -55.5 -2t-25.5 25.5t-1 38.5zM340 510q38 -4 139 -4h99l-13 98q-46 305 -98 471q-32 -72 -52.5 -153.5t-36.5 -184t-20 -121.5zM498 1542 q-22 39 13 69q31 28 69 15q27 -9 41 -41q18 -43 -21 -63q-22 -15 -54 -10t-48 30z" />
<glyph unicode="&#xc5;" horiz-adv-x="909" d="M68 -18q-24 4 4 79q14 1 28.5 5t30.5 4q65 319 158.5 711.5t128.5 553.5q25 35 88 97q11 11 14 12q3 2 -10 -14q20 -94 70 -373q20 -141 77 -443.5t113 -550.5h14q4 1 19 5t22.5 5.5t14.5 -1.5q6 -4 7.5 -14t0 -26t-1.5 -18q1 -7 3 -7q3 1 3 -1q1 -1 0 -6 q-55 -10 -98 -10q-8 0 -74 -5t-72 1q0 23 -10 43q-1 3 -2.5 7t-2.5 6t-1.5 4.5t-0.5 4t1 3t3.5 3t6.5 2.5q8 3 20.5 3t27.5 -1.5t20 -1.5h2q-46 177 -58 231t-16 105l-287 6q-4 -31 -18.5 -96t-18.5 -86q-15 -61 -28 -147q8 4 39 0l22 -4q0 -21 -2 -31q-4 -35 -2 -51 q-22 1 -64.5 -5t-62.5 -6q-77 0 -108 7zM306 1500.5q1 13.5 5 37t4 37.5q6 34 31 58.5t62 35.5h-2q19 8 51 8q89 0 137 -80q16 -32 16 -75q3 -62 -41 -125q-21 -31 -58.5 -47t-78.5 -9q-82 21 -121 117q-6 29 -5 42.5zM340 510q38 -4 139 -4h99l-13 98q-46 305 -98 471 q-32 -72 -52.5 -153.5t-36.5 -184t-20 -121.5zM383 1473q20 -44 72 -41q10 0 37 14q26 13 38 34t7 42q-11 20 -37 44.5t-45 24.5q-47 0 -69.5 -41t-0.5 -80z" />
<glyph unicode="&#xc6;" horiz-adv-x="1232" d="M54 -9q-1 7 2.5 17t8.5 19.5t10.5 19.5t6.5 14q15 1 30 5t29 4q116 310 278.5 695t233.5 570h-30q-4 -1 -15.5 -4t-17 -3.5t-15.5 1.5q0 8 2.5 25.5t2.5 25.5q1 7 -1.5 14.5t1.5 14.5q4 0 8.5 1t10 2.5t9.5 2.5h39q2 0 27.5 5t52 9t35.5 1q2 -76 2 -373 q-5 -112 -0.5 -422.5t16.5 -571.5h15q1 0 17 5t23 6t17 -2q6 -10 3 -27t-9 -31q0 -7 3 -7t3 1q0 -2 -2 -8q-55 -10 -100 -10q-7 0 -74.5 -5t-73.5 1q6 25 0 43q-1 3 -3 8t-2.5 6.5t-0.5 4.5t2 4.5t5 3.5t9 3q8 3 20 3t26 -1.5t20 -1.5h2q-15 154 -16.5 227.5t4.5 108.5 l-289 6q-29 -89 -68 -182q-32 -76 -55 -147q10 4 39 0l22 -4l-8 -31q-8 -20 -12 -51q-21 1 -63.5 -5t-61.5 -6q-78 0 -109 7q-8 2 -9 9zM430 510q37 -4 137 -4h99l6 98q0 4 0.5 87t0 125t-5.5 119t-14 140q-34 -56 -66.5 -128t-47.5 -113.5t-42 -125t-30 -92.5zM567 1309 q-3 10 1.5 30.5t4.5 26.5q0 5 -4.5 24.5t0.5 28.5q63 0 155.5 4.5t167 9t143 7.5t103.5 -1t27 -16q7 -30 9 -79t-5 -91q-3 -10 -38 -11.5t-44 3.5q-5 2 -8 7.5t-3.5 10t-1.5 12.5t-1 11l-16 49h-17h-92q-131 0 -170 -6q-1 -50 -2.5 -119.5t-2.5 -102.5t-2 -81.5t-1 -70 t-0.5 -54.5t0 -48.5t1 -37.5t2 -37t3.5 -32t4 -35l113 10q70 12 113 12q6 -15 6 -57q0 -47 -4 -51h2q-40 -12 -103 -15q-70 0 -133 -18q-10 -92 -10 -236q0 -186 6 -247q11 -3 21.5 -6t19 -5t19.5 -3.5t17.5 -2.5t18 -2t16.5 -1.5t17.5 -0.5h15.5h16.5h16.5h84h10l-10 42 q-10 41 -6 48q18 3 39.5 2.5t52 -2.5t33.5 -2q4 -21 4 -115q0 -10 2.5 -35t1.5 -40q-10 0 -225 2t-225 2q-76 -10 -136 -2v49q0 5 -2.5 15t-2 16t6.5 10q17 10 68 14q-12 1057 -12 1223q-33 -9 -64 -6z" />
<glyph unicode="&#xc7;" horiz-adv-x="743" d="M80 1085q5 88 32.5 163t87.5 135t146 81q30 9 60 9q54 0 124 -23.5t103 -71.5q4 -7 13.5 -20.5t15.5 -24.5t10 -22q33 -91 -13 -125q-37 -26 -80.5 -23.5t-78.5 31.5q-23 18 -56.5 58.5t-44.5 52.5q-46 43 -106 2q-41 -35 -64 -80q-9 -19 -22 -88q-4 -46 -4 -70 q-6 -113 -10 -389q0 -58 -1.5 -172t-1.5 -172q0 -42 4.5 -73t17 -65t40.5 -56.5t70 -30.5q27 -11 73.5 0t53.5 45q2 16 -2 57t4 57q11 34 61 39.5t78 -14.5q37 -23 47 -39q4 -7 6 -14q3 -19 3.5 -23t-6 -22.5t-7.5 -22.5q-29 -71 -94 -113t-148 -53q-74 -6 -147 25t-115 90 q-109 100 -49 962zM180 -166q0 1 1 8.5t5 12.5l9 18q2 5 20 16q29 6 49 -8q3 -3 8.5 -10t11 -12t11.5 -9q15 -9 37 -6q12 0 24 6l17 15q1 3 3 5t3 5l4 6l2 4v-2q12 20 5.5 36.5t-34.5 33.5l-49 16q0 27 -7.5 61t-6.5 58q33 -8 71.5 -9t65.5 9q0 -25 -2 -31q-10 -68 47 -94 q20 -14 34 -33t20 -43t-11 -45q-20 -27 -53.5 -54.5t-63.5 -37.5q-3 -1 -14.5 -4t-19.5 -4q-28 -4 -39 -4h-41q-3 0 -6.5 1t-6.5 1q-9 -3 -18 0q-24 2 -51 29q-9 7 -19 30q-6 18 -6 35z" />
<glyph unicode="&#xc8;" horiz-adv-x="706" d="M57 1362q-3 10 1.5 31.5t4.5 27.5q0 5 -4.5 26.5t0.5 29.5q68 0 361 17q213 13 220 -7q1 -3 -1 -6q7 -30 9 -80.5t-5 -95.5q-3 -10 -37 -12t-43 3q-5 2 -8 7.5t-3.5 10t-1.5 12.5t-1 11l-17 52h-14q-31 2 -90 2q-104 0 -166 -9q-1 -51 -2.5 -124t-2.5 -106t-2 -84.5 t-1 -73.5t-0.5 -56.5t0 -50.5t1 -39.5t2 -39t3.5 -33t4 -36.5l111 11q77 14 108 14q6 -18 6 -62q0 -49 -4 -53h2q-36 -11 -100 -14q-67 0 -129 -19q-10 -100 -10 -245q0 -197 6 -258q62 -21 174 -21h82h10q0 2 -5.5 23.5t-9.5 43.5t-1 27q17 3 38 2t50 -3.5t33 -2.5 q4 -21 4 -119q0 -10 2.5 -36t1.5 -41q-12 0 -219.5 2t-218.5 2q-73 -10 -132 -2v51q0 5 -2.5 15t-1.5 17t7 11q18 10 65 14q-12 1098 -12 1272q-27 -9 -62 -6zM246.5 1708q-0.5 6 3.5 12q24 28 104 33q19 0 28.5 -21t13 -56.5t3.5 -37.5q1 -7 3.5 -25.5t2.5 -25.5t-2 -24 q-6 -28 -28 -29.5t-39 18.5q-13 18 -30.5 54t-22.5 45q-2 2 -8 10t-11.5 15t-11 16.5t-6 15.5z" />
<glyph unicode="&#xc9;" horiz-adv-x="706" d="M57 1362q-3 10 1.5 31.5t4.5 27.5q0 5 -4.5 26.5t0.5 29.5q68 0 361 17q213 13 220 -7q1 -3 -1 -6q7 -30 9 -80.5t-5 -95.5q-3 -10 -37 -12t-43 3q-5 2 -8 7.5t-3.5 10t-1.5 12.5t-1 11l-17 52h-14q-31 2 -90 2q-104 0 -166 -9q-1 -51 -2.5 -124t-2.5 -106t-2 -84.5 t-1 -73.5t-0.5 -56.5t0 -50.5t1 -39.5t2 -39t3.5 -33t4 -36.5l111 11q77 14 108 14q6 -18 6 -62q0 -49 -4 -53h2q-36 -11 -100 -14q-67 0 -129 -19q-10 -100 -10 -245q0 -197 6 -258q62 -21 174 -21h82h10q0 2 -5.5 23.5t-9.5 43.5t-1 27q17 3 38 2t50 -3.5t33 -2.5 q4 -21 4 -119q0 -10 2.5 -36t1.5 -41q-12 0 -219.5 2t-218.5 2q-73 -10 -132 -2v51q0 5 -2.5 15t-1.5 17t7 11q18 10 65 14q-12 1098 -12 1272q-27 -9 -62 -6zM303.5 1607.5q0.5 8.5 3.5 26t4 25.5q0 115 43 115q81 -5 105 -33q6 -12 0 -23t-19 -26.5t-14 -20.5 q-5 -9 -22.5 -44.5t-30.5 -53.5q-17 -20 -39.5 -19t-28.5 29q-2 16 -1.5 24.5z" />
<glyph unicode="&#xca;" horiz-adv-x="706" d="M57 1362q-3 10 1.5 31.5t4.5 27.5q0 5 -4.5 26.5t0.5 29.5q68 0 361 17q213 13 220 -7q1 -3 -1 -6q7 -30 9 -80.5t-5 -95.5q-3 -10 -37 -12t-43 3q-5 2 -8 7.5t-3.5 10t-1.5 12.5t-1 11l-17 52h-14q-31 2 -90 2q-104 0 -166 -9q-1 -51 -2.5 -124t-2.5 -106t-2 -84.5 t-1 -73.5t-0.5 -56.5t0 -50.5t1 -39.5t2 -39t3.5 -33t4 -36.5l111 11q77 14 108 14q6 -18 6 -62q0 -49 -4 -53h2q-36 -11 -100 -14q-67 0 -129 -19q-10 -100 -10 -245q0 -197 6 -258q62 -21 174 -21h82h10q0 2 -5.5 23.5t-9.5 43.5t-1 27q17 3 38 2t50 -3.5t33 -2.5 q4 -21 4 -119q0 -10 2.5 -36t1.5 -41q-12 0 -219.5 2t-218.5 2q-73 -10 -132 -2v51q0 5 -2.5 15t-1.5 17t7 11q18 10 65 14q-12 1098 -12 1272q-27 -9 -62 -6zM158 1616l80 59q15 11 41 30.5t44 32.5t29 19q147 -115 189 -141l-60 -68q5 4 -1.5 10.5t-47.5 38.5 q-40 30 -80 54q-58 -32 -87.5 -50.5t-33.5 -23.5t-9.5 -11.5t-18.5 -15.5q3 4 -3 12t-17 20t-17 22z" />
<glyph unicode="&#xcb;" horiz-adv-x="706" d="M57 1362q-3 10 1.5 31.5t4.5 27.5q0 5 -4.5 26.5t0.5 29.5q68 0 361 17q213 13 220 -7q1 -3 -1 -6q7 -30 9 -80.5t-5 -95.5q-3 -10 -37 -12t-43 3q-5 2 -8 7.5t-3.5 10t-1.5 12.5t-1 11l-17 52h-14q-31 2 -90 2q-104 0 -166 -9q-1 -51 -2.5 -124t-2.5 -106t-2 -84.5 t-1 -73.5t-0.5 -56.5t0 -50.5t1 -39.5t2 -39t3.5 -33t4 -36.5l111 11q77 14 108 14q6 -18 6 -62q0 -49 -4 -53h2q-36 -11 -100 -14q-67 0 -129 -19q-10 -100 -10 -245q0 -197 6 -258q62 -21 174 -21h82h10q0 2 -5.5 23.5t-9.5 43.5t-1 27q17 3 38 2t50 -3.5t33 -2.5 q4 -21 4 -119q0 -10 2.5 -36t1.5 -41q-12 0 -219.5 2t-218.5 2q-73 -10 -132 -2v51q0 5 -2.5 15t-1.5 17t7 11q18 10 65 14q-12 1098 -12 1272q-27 -9 -62 -6zM199 1616q4 20 18 37.5t31 23.5q35 9 63 -16q20 -25 7 -59t-37 -48q-35 -9 -55.5 -2t-25.5 25.5t-1 38.5z M387 1587q-22 39 13 69q31 28 69 15q27 -9 41 -41q18 -43 -21 -63q-22 -15 -54 -10t-48 30z" />
<glyph unicode="&#xcc;" horiz-adv-x="362" d="M37 19.5q1 12.5 2 20t3.5 21t2.5 15.5q20 4 55 4q1 190 3 369t4 305.5t4 237.5t3.5 180t2.5 116.5t1 62.5t-1 5q0 15 -4 43q0 1 -1 3t-1 3h-5q-31 0 -45 2q0 2 -2.5 19t-1 30t8.5 19q3 5 25.5 4.5t25.5 -0.5q52 8 123 8q3 0 7.5 0.5t7 0.5t5 -0.5t4.5 -2.5t4 -6 q8 -14 11 -33q2 -11 -0.5 -15t-12.5 -8q-25 -11 -43 -8v-1286q0 -11 2 -23t2 -24v-6q20 4 33 4q24 0 29 -6q7 -7 -4 -48q-7 -26 2 -26h4q-123 0 -189 -6q-58 0 -63 12q-3 1 -2 13.5zM37.5 1719q-0.5 6 3.5 12q23 27 104 32q19 0 28.5 -20.5t13 -56t3.5 -37.5q1 -8 3.5 -26 t3 -26t-1.5 -24q-6 -28 -28.5 -29t-39.5 19q-13 18 -30.5 53.5t-22.5 44.5q-2 2 -8.5 10t-11.5 15t-10.5 17t-6 16z" />
<glyph unicode="&#xcd;" horiz-adv-x="362" d="M37 19.5q1 12.5 2 20t3.5 21t2.5 15.5q20 4 55 4q1 190 3 369t4 305.5t4 237.5t3.5 180t2.5 116.5t1 62.5t-1 5q0 15 -4 43q0 1 -1 3t-1 3h-5q-31 0 -45 2q0 2 -2.5 19t-1 30t8.5 19q3 5 25.5 4.5t25.5 -0.5q52 8 123 8q3 0 7.5 0.5t7 0.5t5 -0.5t4.5 -2.5t4 -6 q8 -14 11 -33q2 -11 -0.5 -15t-12.5 -8q-25 -11 -43 -8v-1286q0 -11 2 -23t2 -24v-6q20 4 33 4q24 0 29 -6q7 -7 -4 -48q-7 -26 2 -26h4q-123 0 -189 -6q-58 0 -63 12q-3 1 -2 13.5zM113.5 1580.5q0.5 8.5 3.5 26t4 25.5q0 115 43 115q80 -5 104 -33q6 -12 0.5 -22.5 t-18.5 -26t-14 -20.5q-5 -8 -23 -44.5t-31 -54.5q-17 -20 -39 -19t-28 29q-2 16 -1.5 24.5z" />
<glyph unicode="&#xce;" horiz-adv-x="493" d="M74 1565l80 59q15 11 41 30.5t44 32.5t29 19q147 -115 189 -141l-60 -68q5 5 -5 14q-7 6 -44 35q-32 24 -80 53q-58 -32 -87.5 -50.5t-33.5 -23.5t-9.5 -11t-18.5 -15q3 4 -3 11.5t-17 19.5t-17 22zM133 19.5q1 12.5 2 20t3.5 21t2.5 15.5q20 4 56 4q1 190 3 369t4 305.5 t4 237.5t3.5 179.5t2 116.5t0.5 63t-1 5q0 15 -4 43q0 1 -1 3t-1 3h-4q-31 0 -45 2q0 3 -2.5 19.5t-1.5 29.5t8 19q3 5 25.5 4.5t25.5 -0.5q52 8 123 8q4 0 9.5 0.5t8 0.5t6 -2t5.5 -7q7 -12 10 -33q2 -11 -0.5 -15t-12.5 -8q-25 -11 -43 -8v-1286q0 -11 2.5 -23t2.5 -24v-6 q20 4 32 4q25 0 29 -6q7 -7 -4 -48q-7 -26 2 -26h4q-122 0 -188 -6q-59 0 -64 12q-3 1 -2 13.5z" />
<glyph unicode="&#xcf;" horiz-adv-x="436" d="M57 1579q4 20 18 37.5t31 23.5q36 9 64 -16q20 -25 6.5 -58.5t-37.5 -47.5q-35 -9 -55.5 -2t-25.5 25t-1 38zM111 19.5q1 12.5 2 20t3.5 21t2.5 15.5q20 4 55 4q1 190 3 369t4 305.5t4 237.5t3.5 179.5t2 116.5t0.5 63t-1 5q0 15 -4 43q0 1 -1 3t-1 3h-4q-31 0 -45 2 q0 3 -2.5 19.5t-1.5 29.5t8 19q3 5 25.5 4.5t25.5 -0.5q52 8 123 8q4 0 9.5 0.5t8 0.5t6 -2t5.5 -7q7 -12 10 -33q2 -11 0 -15t-12 -8q-25 -11 -43 -8v-1286q0 -11 2 -23t2 -24v-6q20 4 33 4q24 0 28 -6q7 -7 -3 -48q-7 -26 2 -26h4q-123 0 -189 -6q-58 0 -63 12 q-3 1 -2 13.5zM246 1550q-22 39 13 69q31 28 69 15q27 -9 41 -41q18 -43 -21 -63q-22 -15 -54 -10t-48 30z" />
<glyph unicode="&#xd0;" horiz-adv-x="806" d="M57 715v102q0 22 6 25q2 2 9 2l94 -4h289q27 -4 39 -9q1 0 5 -2.5t7 -3.5q4 -4 4 -18q4 -70 4 -109q0 -30 -12 -30q-19 0 -29 2q-3 0 -52 3t-106.5 7.5t-74.5 7.5q-13 0 -71.5 1t-66.5 1q-10 0 -18 -4q-5 -2 -7 -2t-7.5 3t-6.5 3q-6 0 -6 25zM59 45q-9 41 37 41 q18 0 64 4l14 1260q-4 0 -9.5 -1t-8.5 -1q-36 0 -50 2q-3 13 4 36t7 33v39q0 1 -3.5 9t-2.5 14q62 4 84 4q42 10 102 6q118 -4 172 -10q176 -24 221 -92q9 -13 16 -29t11.5 -28t9 -33t6.5 -30t4.5 -35t3 -31.5t2.5 -35.5t2 -32q0 -4 1.5 -15.5t1.5 -15.5q4 -197 1.5 -326 t-7.5 -271.5t-5 -176.5q0 -74 -10 -113v2q-19 -55 -76 -127q-38 -49 -93 -66.5t-138 -25.5q-33 -5 -171.5 -13t-156.5 -5q-9 2 -12 4t-4 3.5t-1.5 6.5t-2.5 10q-2 13 -13 39zM258 213q0 -74 8 -115q99 -15 226 21h-3h13q58 12 84.5 52t38.5 108q5 22 8 49.5t3.5 44t1.5 54 t1 48.5q0 340 14 545q4 138 -22 219q-23 69 -83 100t-136 31q-58 0 -127 -16l-17 -865q1 -48 -4.5 -141t-5.5 -135z" />
<glyph unicode="&#xd1;" horiz-adv-x="911" d="M57 1391q9 1 27 5t27 5q40 9 77 6q118 -297 207 -498q77 -172 129 -337t119 -298q14 610 39 1033q-49 0 -53 4q-7 8 -13 24q-5 12 -5 29t7 27q9 4 103.5 3.5t97.5 -3.5l6 -72q2 -15 -41 -6q-7 2 -9 0.5t-9 -2.5q0 -204 -11 -625t-22 -614q18 2 37 0q9 -5 8.5 -26 t-6.5 -38q-5 -5 -58 -9t-61 3q-56 114 -98 229q-57 142 -125 327t-113 294t-98 201l-2 -987h2q3 -1 18.5 0t18.5 -3q10 -4 11.5 -22.5t-3.5 -30.5q-2 -7 -16 -10h-43q-53 0 -80 -2q-5 -1 -13.5 -3t-16 -3t-13.5 0q-1 7 -1 20.5t-1 20.5q-6 22 2 30q1 1 4.5 1.5t8.5 1.5t7 2 l17 4l-4 121q-4 76 -4 296t2 497t2 341q-45 -12 -52 4q-3 3 -3 16t-1 15q0 4 -1.5 14t-0.5 15zM154 1536q7 31 43 63q67 67 147 64q29 -3 51 -16q17 -7 31 -21l6 -6q58 -54 113 -74q69 -22 92 19q6 10 14 34q1 5 1 13t1 15t4 13q29 47 62 39q39 -9 49 -51q9 -87 -49 -139 q-23 -16 -64 -41q-30 -12 -69 -12q-46 0 -99 21.5t-90 51.5q-51 39 -94 39q-7 0 -18 -2t-15 -2q-6 0 -16 -16l-10 -35q-11 -26 -23 -31q-32 -17 -59 31q-11 25 -8 43z" />
<glyph unicode="&#xd2;" horiz-adv-x="747" d="M56.5 621.5q-1.5 136.5 1.5 253t9 194t19.5 141.5t30 101t43.5 66t55.5 44.5t71.5 28.5q24 6 55 6q67 0 133 -27.5t111 -72.5q54 -46 80 -131t26 -170q0 -334 -11 -500.5t-38 -310.5q-58 -154 -151 -211h2q-75 -43 -162 -43q-85 0 -137 41q-50 37 -93 124t-39 142 q-5 188 -6.5 324.5zM143.5 514.5q-0.5 -40.5 2.5 -87.5t12 -110q14 -79 28 -104q24 -48 70 -74t102 -26q71 0 127 39q12 9 21.5 20.5t15.5 19.5t12.5 23.5t8.5 21t8.5 25.5t7.5 23h-2q13 45 27 180q10 54 10 602q0 95 -33 168q-29 54 -84.5 87.5t-116.5 33.5q-48 0 -88 -21 h2q-37 -26 -62 -66.5t-36 -96t-15 -89t-7 -92.5q-2 -150 -6 -293t-4.5 -183.5zM223.5 1704q-0.5 6 3.5 12q24 28 105 33q19 0 28.5 -21t13 -56.5t3.5 -37.5q1 -7 3.5 -25.5t2.5 -25.5t-2 -24q-6 -28 -28.5 -29.5t-39.5 18.5q-13 18 -30.5 54t-22.5 45q-2 2 -8 10t-11.5 15 t-11 16.5t-6 15.5z" />
<glyph unicode="&#xd3;" horiz-adv-x="747" d="M56.5 621.5q-1.5 136.5 1.5 253t9 194t19.5 141.5t30 101t43.5 66t55.5 44.5t71.5 28.5q24 6 55 6q67 0 133 -27.5t111 -72.5q54 -46 80 -131t26 -170q0 -334 -11 -500.5t-38 -310.5q-58 -154 -151 -211h2q-75 -43 -162 -43q-85 0 -137 41q-50 37 -93 124t-39 142 q-5 188 -6.5 324.5zM143.5 514.5q-0.5 -40.5 2.5 -87.5t12 -110q14 -79 28 -104q24 -48 70 -74t102 -26q71 0 127 39q12 9 21.5 20.5t15.5 19.5t12.5 23.5t8.5 21t8.5 25.5t7.5 23h-2q13 45 27 180q10 54 10 602q0 95 -33 168q-29 54 -84.5 87.5t-116.5 33.5q-48 0 -88 -21 h2q-37 -26 -62 -66.5t-36 -96t-15 -89t-7 -92.5q-2 -150 -6 -293t-4.5 -183.5zM330.5 1572.5q0.5 8.5 3.5 26t4 25.5q0 115 43 115q80 -5 104 -33q6 -12 0.5 -23t-18.5 -27t-14 -20q-5 -8 -23 -44t-31 -54q-17 -20 -39 -19t-28 29q-2 16 -1.5 24.5z" />
<glyph unicode="&#xd4;" horiz-adv-x="747" d="M56.5 621.5q-1.5 136.5 1.5 253t9 194t19.5 141.5t30 101t43.5 66t55.5 44.5t71.5 28.5q24 6 55 6q67 0 133 -27.5t111 -72.5q54 -46 80 -131t26 -170q0 -334 -11 -500.5t-38 -310.5q-58 -154 -151 -211h2q-75 -43 -162 -43q-85 0 -137 41q-50 37 -93 124t-39 142 q-5 188 -6.5 324.5zM143.5 514.5q-0.5 -40.5 2.5 -87.5t12 -110q14 -79 28 -104q24 -48 70 -74t102 -26q71 0 127 39q12 9 21.5 20.5t15.5 19.5t12.5 23.5t8.5 21t8.5 25.5t7.5 23h-2q13 45 27 180q10 54 10 602q0 95 -33 168q-29 54 -84.5 87.5t-116.5 33.5q-48 0 -88 -21 h2q-37 -26 -62 -66.5t-36 -96t-15 -89t-7 -92.5q-2 -150 -6 -293t-4.5 -183.5zM182 1577l80 59q109 79 115 82q17 -13 39 -30t32.5 -25.5t24.5 -19.5t20.5 -16t15.5 -11.5t13.5 -10t10 -7.5t10.5 -7l10 -6t12 -8l-59 -68q7 7 -49 50q-32 24 -80 53q-58 -32 -88 -50.5 t-33.5 -23.5t-9.5 -11.5t-19 -15.5q3 4 -3 12t-17 20t-17 22z" />
<glyph unicode="&#xd5;" horiz-adv-x="747" d="M56.5 621.5q-1.5 136.5 1.5 253t9 194t19.5 141.5t30 101t43.5 66t55.5 44.5t71.5 28.5q24 6 55 6q67 0 133 -27.5t111 -72.5q54 -46 80 -131t26 -170q0 -334 -11 -500.5t-38 -310.5q-58 -154 -151 -211h2q-75 -43 -162 -43q-85 0 -137 41q-50 37 -93 124t-39 142 q-5 188 -6.5 324.5zM68 1761q7 32 43 64q66 66 147 63q29 -3 51 -16q17 -7 31 -21l6 -6q56 -52 113 -73q70 -23 92 18q5 9 14 35q1 5 1 13t1 15t4 13q29 47 62 39q39 -9 49 -52q9 -87 -49 -139q-23 -16 -64 -41q-30 -12 -69 -12q-45 0 -98.5 21.5t-90.5 52.5q-51 39 -94 39 q-7 0 -18 -2.5t-15 -2.5q-6 0 -16 -16l-10 -35q-11 -25 -23 -30q-33 -17 -59 30q-11 25 -8 43zM143.5 514.5q-0.5 -40.5 2.5 -87.5t12 -110q14 -79 28 -104q24 -48 70 -74t102 -26q71 0 127 39q12 9 21.5 20.5t15.5 19.5t12.5 23.5t8.5 21t8.5 25.5t7.5 23h-2q13 45 27 180 q10 54 10 602q0 95 -33 168q-29 54 -84.5 87.5t-116.5 33.5q-48 0 -88 -21h2q-37 -26 -62 -66.5t-36 -96t-15 -89t-7 -92.5q-2 -150 -6 -293t-4.5 -183.5z" />
<glyph unicode="&#xd6;" horiz-adv-x="747" d="M56.5 621.5q-1.5 136.5 1.5 253t9 194t19.5 141.5t30 101t43.5 66t55.5 44.5t71.5 28.5q24 6 55 6q67 0 133 -27.5t111 -72.5q54 -46 80 -131t26 -170q0 -334 -11 -500.5t-38 -310.5q-58 -154 -151 -211h2q-75 -43 -162 -43q-85 0 -137 41q-50 37 -93 124t-39 142 q-5 188 -6.5 324.5zM143.5 514.5q-0.5 -40.5 2.5 -87.5t12 -110q14 -79 28 -104q24 -48 70 -74t102 -26q71 0 127 39q12 9 21.5 20.5t15.5 19.5t12.5 23.5t8.5 21t8.5 25.5t7.5 23h-2q13 45 27 180q10 54 10 602q0 95 -33 168q-29 54 -84.5 87.5t-116.5 33.5q-48 0 -88 -21 h2q-37 -26 -62 -66.5t-36 -96t-15 -89t-7 -92.5q-2 -150 -6 -293t-4.5 -183.5zM227 1622q4 20 18 37.5t31 23.5q36 9 64 -16q20 -25 6.5 -58.5t-37.5 -47.5q-35 -9 -55.5 -2t-25.5 25t-1 38zM416 1593q-22 39 13 69q31 28 69 15q27 -9 41 -41q18 -43 -21 -63 q-22 -15 -54 -10t-48 30z" />
<glyph unicode="&#xd7;" horiz-adv-x="602" d="M55 481q0 4 6 8l76 80q6 8 35.5 40t48.5 59q-100 93 -100 94q-52 52 -66 63q10 12 33 36.5t33 37.5q17 10 74 -47l12 -12q31 -31 63 -56l39 -30q14 18 39 49t27 33q70 82 84 84q60 -13 71 -39q6 -8 2 -23l-59 -76q-67 -83 -94 -108q0 -5 27 -30.5t73.5 -67t63.5 -56.5 l4 -4q-13 -24 -38.5 -54t-35.5 -30q-38 27 -92.5 76.5t-93.5 91.5q-5 -8 -10.5 -15.5t-12 -16t-11 -14t-13.5 -15.5l-13.5 -15t-17 -18t-17.5 -18.5t-21.5 -22.5t-23.5 -25q-16 -16 -24 -16.5t-14 8.5h2l-15 14l-30 21h2q-13 10 -13 14z" />
<glyph unicode="&#xd8;" horiz-adv-x="780" d="M55 -39q22 86 64 203q-9 23 -16.5 49.5t-11.5 46.5t-8 51.5t-5.5 47t-4 52t-3.5 48.5q-4 51 -9 200q0 7 -1 21.5t-1 21.5q-4 88 -2 132v94q0 64 1 99t9.5 87.5t24.5 93.5q42 94 113 154q69 59 203 63q81 3 149 -59q43 118 51 121q18 10 54 6q16 -1 26 -3t21.5 -7 t12 -13.5t-2.5 -23.5v-10q-6 -12 -6 -21l-60 -168q10 -28 21 -71q5 -27 8 -31v2l2 -4h-2q8 -63 8 -135q0 -15 -1 -60.5t-1 -62.5q-2 -47 -2 -144v-106q0 -178 -2 -262v-68v-29v-31t-0.5 -29.5t-2 -31.5t-4 -28t-6 -28.5t-9 -24t-13 -24t-16.5 -18.5l-8 -6h2 q-78 -70 -125 -84h2q-70 -12 -103 -12q-46 0 -86 12q-31 0 -57 23l-31 18q-12 5 -22 15q-21 -58 -27 -58q-19 -3 -59.5 -3.5t-63.5 -4.5zM188 713q0 -29 5 -187q4 -46 4 -59v-23q0 -33 2 -49q148 426 313 860q-28 22 -70 31q-36 7 -67 5t-54 -11t-42 -23.5t-31.5 -34 t-22.5 -42.5t-15 -48t-9 -51.5t-4.5 -52.5t-1.5 -50.5t0 -46.5v-22q0 -8 -1 -25t-1 -24q-5 -123 -5 -147zM256 160q10 -16 39 -45q46 -39 129 -39q93 0 119 63q7 16 11 34t7 45l4 36q0 8 2 20t2 17q11 64 11 104q0 23 6 47l6 27q8 73 8 174q0 58 -4 168q0 4 -1 13.5t-1 13.5 q-2 36 2 94q2 23 2 74q0 56 -4 71q-168 -468 -338 -917z" />
<glyph unicode="&#xd9;" horiz-adv-x="878" d="M45 1464q0 9 18 13q16 1 50 -1t47 -1q8 0 31 1t40 0.5t31 -3.5q11 -4 14 -13q3 -6 6 -28t7 -27q-9 -4 -36.5 -5t-29.5 -1q0 -63 -12 -189v2q-6 -55 -10 -170q-4 -126 -4 -192q0 -145 8 -252q2 -24 5 -68t6 -80.5t7 -68.5q0 -3 1 -8t1 -8q0 -4 2.5 -26.5t3.5 -29.5t4 -26 t6.5 -30t9.5 -26.5t13 -29.5h-2q25 -49 72.5 -75t105.5 -26q70 0 123 33q60 33 85.5 105t25.5 151v70q0 31 -1 94t-1 94q-3 95 -11.5 282t-11.5 279q-6 120 -8 139q0 36 6 60q-3 0 -11 -0.5t-12.5 -0.5t-10 2t-7.5 5q-3 1 -3.5 4.5t0.5 9.5t1 7v26q4 30 130 20q72 -6 69 -12 q5 -3 6.5 -6.5t2.5 -11t1 -8.5q8 -39 0 -45q-33 3 -45 6q-4 -9 -4 -45v-41v2q19 -200 22 -455q0 -13 1 -41.5t1 -44.5q0 -21 1.5 -65t1.5 -68q0 -131 -11 -244q-33 -271 -172 -360q-71 -46 -155.5 -54t-162.5 28.5t-120 113.5v-2q-23 45 -33 113q0 3 -1 7t-1 7q-7 37 -13 79 t-9.5 72t-6.5 81.5t-4 71t-3.5 80.5t-2.5 73v57q0 4 6 268q8 101 11 242v96q0 4 -1 12t-1 11q-3 0 -17.5 1t-24.5 0.5t-14 -3.5q-4 5 -5 14t-1 10q-4 9 -4 49zM303.5 1751q-0.5 6 3.5 12q24 28 105 33q19 0 28.5 -21t13 -56.5t3.5 -37.5q1 -7 3.5 -25.5t2.5 -25.5t-2 -24 q-6 -28 -28.5 -29.5t-39.5 18.5q-13 18 -30.5 54t-22.5 45q-2 2 -8 10t-11.5 15t-11 16.5t-6 15.5z" />
<glyph unicode="&#xda;" horiz-adv-x="878" d="M45 1464q0 9 18 13q16 1 50 -1t47 -1q8 0 31 1t40 0.5t31 -3.5q11 -4 14 -13q3 -6 6 -28t7 -27q-9 -4 -36.5 -5t-29.5 -1q0 -63 -12 -189v2q-6 -55 -10 -170q-4 -126 -4 -192q0 -145 8 -252q2 -24 5 -68t6 -80.5t7 -68.5q0 -3 1 -8t1 -8q0 -4 2.5 -26.5t3.5 -29.5t4 -26 t6.5 -30t9.5 -26.5t13 -29.5h-2q25 -49 72.5 -75t105.5 -26q70 0 123 33q60 33 85.5 105t25.5 151v70q0 31 -1 94t-1 94q-3 95 -11.5 282t-11.5 279q-6 120 -8 139q0 36 6 60q-3 0 -11 -0.5t-12.5 -0.5t-10 2t-7.5 5q-3 1 -3.5 4.5t0.5 9.5t1 7v26q4 30 130 20q72 -6 69 -12 q5 -3 6.5 -6.5t2.5 -11t1 -8.5q8 -39 0 -45q-33 3 -45 6q-4 -9 -4 -45v-41v2q19 -200 22 -455q0 -13 1 -41.5t1 -44.5q0 -21 1.5 -65t1.5 -68q0 -131 -11 -244q-33 -271 -172 -360q-71 -46 -155.5 -54t-162.5 28.5t-120 113.5v-2q-23 45 -33 113q0 3 -1 7t-1 7q-7 37 -13 79 t-9.5 72t-6.5 81.5t-4 71t-3.5 80.5t-2.5 73v57q0 4 6 268q8 101 11 242v96q0 4 -1 12t-1 11q-3 0 -17.5 1t-24.5 0.5t-14 -3.5q-4 5 -5 14t-1 10q-4 9 -4 49zM400 1634.5q1 8.5 4 25.5t4 26q0 114 43 114q80 -5 104 -33q6 -12 0 -22.5t-19 -26t-14 -20.5q-5 -9 -22.5 -45 t-30.5 -54q-17 -20 -39.5 -18.5t-28.5 29.5q-2 16 -1 24.5z" />
<glyph unicode="&#xdb;" horiz-adv-x="878" d="M45 1464q0 9 18 13q16 1 50 -1t47 -1q8 0 31 1t40 0.5t31 -3.5q11 -4 14 -13q3 -6 6 -28t7 -27q-9 -4 -36.5 -5t-29.5 -1q0 -63 -12 -189v2q-6 -55 -10 -170q-4 -126 -4 -192q0 -145 8 -252q2 -24 5 -68t6 -80.5t7 -68.5q0 -3 1 -8t1 -8q0 -4 2.5 -26.5t3.5 -29.5t4 -26 t6.5 -30t9.5 -26.5t13 -29.5h-2q25 -49 72.5 -75t105.5 -26q70 0 123 33q60 33 85.5 105t25.5 151v70q0 31 -1 94t-1 94q-3 95 -11.5 282t-11.5 279q-6 120 -8 139q0 36 6 60q-3 0 -11 -0.5t-12.5 -0.5t-10 2t-7.5 5q-3 1 -3.5 4.5t0.5 9.5t1 7v26q4 30 130 20q72 -6 69 -12 q5 -3 6.5 -6.5t2.5 -11t1 -8.5q8 -39 0 -45q-33 3 -45 6q-4 -9 -4 -45v-41v2q19 -200 22 -455q0 -13 1 -41.5t1 -44.5q0 -21 1.5 -65t1.5 -68q0 -131 -11 -244q-33 -271 -172 -360q-71 -46 -155.5 -54t-162.5 28.5t-120 113.5v-2q-23 45 -33 113q0 3 -1 7t-1 7q-7 37 -13 79 t-9.5 72t-6.5 81.5t-4 71t-3.5 80.5t-2.5 73v57q0 4 6 268q8 101 11 242v96q0 4 -1 12t-1 11q-3 0 -17.5 1t-24.5 0.5t-14 -3.5q-4 5 -5 14t-1 10q-4 9 -4 49zM266 1595l80 60q109 79 115 82q29 -23 60.5 -47.5t44 -34t27 -21t21.5 -16.5t15 -10.5t20 -12.5l-59 -67 q4 4 -2 10.5t-47 38.5q-32 24 -80 53q-58 -32 -88 -50.5t-33.5 -23.5t-9.5 -11t-19 -15q3 4 -3 11.5t-17 19.5t-17 22z" />
<glyph unicode="&#xdc;" horiz-adv-x="851" d="M57 1507q5 10 52.5 13t91.5 2t67 2q6 0 7.5 -7.5t-1 -19t-5 -20.5t-5.5 -17q-18 -3 -45 4q30 -132 103.5 -333.5t101.5 -301.5q31 63 63 158t51.5 164t46.5 172.5l33 126.5q-10 -4 -19 -5t-23 0t-19 1q0 7 -1.5 34t-0.5 40h231q6 -8 10 -32t-5 -32q-3 -3 -8 -3.5 t-11.5 0.5t-7.5 1h-35q-197 -580 -228.5 -674.5t-31.5 -115.5q0 -28 2.5 -170.5t3.5 -242t-2 -188.5q2 0 8.5 1.5t11.5 1.5t9 -3q10 -3 12.5 -12t0 -25t-2.5 -18q-13 -8 -81 -9.5t-89 3.5l-6 12q-2 4 -6 13.5t-6 16t-2 13.5q11 4 53 9q-1 112 -1.5 205.5t-0.5 153t0.5 104.5 t1 69.5t1 38.5t1 20t0.5 7q-16 64 -125 380.5t-135 415.5q-35 4 -45 0q-3 3 -4.5 11.5t-4.5 11.5q0 2 -3.5 11.5t-2.5 12.5zM299 1668q4 20 18 37.5t31 23.5q35 9 64 -17q20 -25 6.5 -58.5t-37.5 -47.5q-35 -9 -55.5 -2t-25.5 25.5t-1 38.5zM487 1638q-22 39 13 69 q31 28 69 15q27 -9 41 -41q18 -43 -20 -63q-22 -15 -54.5 -10t-48.5 30z" />
<glyph unicode="&#xdd;" horiz-adv-x="851" d="M57 1507q5 10 52.5 13t91.5 2t67 2q6 0 7.5 -7.5t-1 -19t-5 -20.5t-5.5 -17q-18 -3 -45 4q30 -132 103.5 -333.5t101.5 -301.5q31 63 63 158t51.5 164t46.5 172.5l33 126.5q-10 -4 -19 -5t-23 0t-19 1q0 7 -1.5 34t-0.5 40h231q6 -8 10 -32t-5 -32q-3 -3 -8 -3.5 t-11.5 0.5t-7.5 1h-35q-197 -580 -228.5 -674.5t-31.5 -115.5q0 -28 2.5 -170.5t3.5 -242t-2 -188.5q2 0 8.5 1.5t11.5 1.5t9 -3q10 -3 12.5 -12t0 -25t-2.5 -18q-13 -8 -81 -9.5t-89 3.5l-6 12q-2 4 -6 13.5t-6 16t-2 13.5q11 4 53 9q-1 112 -1.5 205.5t-0.5 153t0.5 104.5 t1 69.5t1 38.5t1 20t0.5 7q-16 64 -125 380.5t-135 415.5q-35 4 -45 0q-3 3 -4.5 11.5t-4.5 11.5q0 2 -3.5 11.5t-2.5 12.5zM389.5 1638.5q0.5 8.5 3.5 26t4 25.5q0 114 43 114q82 -5 105 -32q6 -12 0 -23t-19 -26.5t-14 -20.5q-5 -9 -22.5 -44.5t-30.5 -53.5 q-17 -20 -39.5 -19t-28.5 29q-2 16 -1.5 24.5z" />
<glyph unicode="&#xde;" horiz-adv-x="731" d="M57 -4q1 9 2.5 10.5t9.5 2.5q3 1 5 1q29 0 45 2q-3 1149 16 1374h-14q-19 -3 -37 0q10 34 2 58l-6 20q-1 1 -3 2t-4 2.5t-3 4.5q-4 5 1 5q7 0 9 1q10 3 20.5 5t18 3t23 0.5t24 -1t32 -2.5t35.5 -3q3 0 9 -1l6 -1v-2q0 -4 -3.5 -17.5t-4 -22.5t5.5 -26q122 31 176 31 q36 0 57 -8q36 -12 70 -41.5t55 -65.5q72 -141 72 -328q0 -42 -4 -112v-86q0 -107 -10 -158q-23 -116 -80 -184q-40 -54 -96 -83.5t-119 -25.5q-22 -3 -48.5 8t-41 21t-48.5 35q0 -8 -1 -34t-1 -30l-8 -334q2 0 19 2.5t19.5 2t18.5 -2.5q1 -18 -12 -86q-10 -4 -29.5 -4 h-23.5q-33 -2 -94 -2q-4 0 -15 -1t-18.5 -0.5t-13.5 3.5q-7 4 -11 25q0 5 -1.5 20t-0.5 23zM221 661q0 -12 0.5 -16.5t1.5 -15t2 -16t2.5 -15t3.5 -16t5 -14.5t6 -15q107 -116 217 -74q79 57 102 199q19 109 19 256q0 108 -7 172q-15 109 -69 174q-36 55 -98 55 q-36 0 -78 -22q-26 -12 -43 -30.5t-26.5 -44t-13 -44.5t-7.5 -51q-15 -99 -15 -287q0 -80 -2 -119v-30v-15v-16v-15z" />
<glyph unicode="&#xdf;" horiz-adv-x="911" d="M57 6q-3 16 2 21q6 6 31 6h14l-18 1028q0 179 4 227q15 140 25 176q26 122 164 158h-3q52 12 101 12q36 0 94 -10q87 -16 139 -80q65 -72 96.5 -176t26.5 -207q-3 -79 -41 -133l-61 -61l43 -47l28 -29q55 -55 80 -109q49 -107 56 -182l6 -39q10 -55 10 -92 q3 -180 -98 -289q-62 -62 -99 -84q-30 -24 -57 -33l4 3l-24 -11q-4 -3 -13 -4t-12 -4l-14 -6q-5 -3 -16.5 -6t-16.5 -6q-27 -6 -55 -6q-3 0 -14 -1t-19 -0.5t-14 3.5q-30 4 -41 12q-40 24 -48 57q-4 9 -4 41q0 20 29 37q8 5 16.5 9t18 6t17 3.5t19 2t17.5 0.5h19h18 q23 0 39 -7q16 -8 39 -8q26 0 35 4q4 3 13 6.5t13 6.5l25 12l37 29q4 5 15 17.5t15 20.5q40 47 50 86q10 41 10 103q3 121 -19.5 199t-66.5 127.5t-129 105.5q-21 13 -58 25v-2q-58 21 -118 18q-11 -2 -16 3t-9 22q-1 10 0 14t4.5 9.5t5.5 16.5l1 6q1 6 1 11q15 20 31 20 q61 -18 131 19q34 18 69.5 54t45.5 67l6 63q4 44 -26 114.5t-64 104.5q-11 21 -47.5 40t-81 27t-93 -8t-77.5 -59q-27 -38 -38.5 -89t-16.5 -128l-5 -78q-9 -86 -6 -180l27 -670q2 -23 2 -63v-152v-37q2 0 18 -4q5 0 19 1.5t20 0.5q5 -2 7.5 -5.5t3.5 -6.5t1.5 -8.5 t0.5 -7.5q0 -1 4 -21q0 -3 -1 -10t-1 -10q5 -16 4 -19q-2 -2 -6 -2q-8 0 -18 -2.5t-15 -3.5h-51q-3 0 -45 -6q-8 -4 -26.5 -5t-19.5 -1q-26 -9 -30 -4q-3 1 -4.5 5t-3.5 11t-2 8q-3 18 -9 33z" />
<glyph unicode="&#xe0;" d="M57 428q2 73 32 149.5t81 116.5q144 120 297 21l1 33q1 33 1 45q0 102 -12 137q-14 40 -59.5 59t-71.5 -22q-3 -17 -3.5 -22.5t2.5 -22.5t3 -23q6 -41 -16 -62t-64 -16q-37 6 -64 29q-7 7 -11 12.5t-5.5 13t-2 11t0 15.5t0.5 16q0 50 18 90q22 44 61.5 73t88.5 29 q62 0 125 -34t96 -87q16 -29 24 -68.5t8 -76.5t-1 -80l-11 -672q63 12 97 6v-24q1 -8 3 -20.5t3 -23t0 -20.5q-8 -4 -17 -5t-25 0t-20 1q-18 0 -82.5 4t-66.5 4l2 86l-37 -45q-93 -52 -153 -41.5t-129 84.5q-60 57 -77.5 136t-15.5 194zM152 412q1 -50 4.5 -83t7.5 -46 q14 -58 53 -95.5t88 -37.5q56 0 105 49q65 73 65 207q0 75 -16 141q-10 46 -31 64.5t-70 29.5q-87 22 -145 -41q-32 -33 -47 -85.5t-14 -102.5zM240 1362q0 6 4 12q24 28 104 33q19 0 28.5 -21t13 -56.5t3.5 -37.5q1 -7 3.5 -25.5t2.5 -25.5t-2 -24q-6 -28 -28 -29.5 t-39 18.5q-13 18 -31 54.5t-23 44.5q-2 2 -8 10t-11 15t-11 16.5t-6 15.5z" />
<glyph unicode="&#xe1;" d="M57 428q2 73 32 149.5t81 116.5q144 120 297 21l1 33q1 33 1 45q0 102 -12 137q-14 40 -59.5 59t-71.5 -22q-3 -17 -3.5 -22.5t2.5 -22.5t3 -23q6 -41 -16 -62t-64 -16q-37 6 -64 29q-7 7 -11 12.5t-5.5 13t-2 11t0 15.5t0.5 16q0 50 18 90q22 44 61.5 73t88.5 29 q62 0 125 -34t96 -87q16 -29 24 -68.5t8 -76.5t-1 -80l-11 -672q63 12 97 6v-24q1 -8 3 -20.5t3 -23t0 -20.5q-8 -4 -17 -5t-25 0t-20 1q-18 0 -82.5 4t-66.5 4l2 86l-37 -45q-93 -52 -153 -41.5t-129 84.5q-60 57 -77.5 136t-15.5 194zM152 412q1 -50 4.5 -83t7.5 -46 q14 -58 53 -95.5t88 -37.5q56 0 105 49q65 73 65 207q0 75 -16 141q-10 46 -31 64.5t-70 29.5q-87 22 -145 -41q-32 -33 -47 -85.5t-14 -102.5zM375.5 1298.5q0.5 8.5 3.5 26t4 25.5q0 114 43 114q81 -5 104 -32q6 -12 0.5 -23t-18.5 -27t-14 -20q-5 -8 -23 -44t-31 -54 q-17 -20 -39 -19t-28 29q-2 16 -1.5 24.5z" />
<glyph unicode="&#xe2;" d="M57 428q2 73 32 149.5t81 116.5q144 120 297 21l1 33q1 33 1 45q0 102 -12 137q-14 40 -59.5 59t-71.5 -22q-3 -17 -3.5 -22.5t2.5 -22.5t3 -23q6 -41 -16 -62t-64 -16q-37 6 -64 29q-7 7 -11 12.5t-5.5 13t-2 11t0 15.5t0.5 16q0 50 18 90q22 44 61.5 73t88.5 29 q62 0 125 -34t96 -87q16 -29 24 -68.5t8 -76.5t-1 -80l-11 -672q63 12 97 6v-24q1 -8 3 -20.5t3 -23t0 -20.5q-8 -4 -17 -5t-25 0t-20 1q-18 0 -82.5 4t-66.5 4l2 86l-37 -45q-93 -52 -153 -41.5t-129 84.5q-60 57 -77.5 136t-15.5 194zM152 412q1 -50 4.5 -83t7.5 -46 q14 -58 53 -95.5t88 -37.5q56 0 105 49q65 73 65 207q0 75 -16 141q-10 46 -31 64.5t-70 29.5q-87 22 -145 -41q-32 -33 -47 -85.5t-14 -102.5zM168 1212l80 60q15 11 41 30.5t44 32.5t29 19q154 -120 189 -142l-59 -67q4 4 -1.5 10t-48.5 39q-32 24 -80 53 q-58 -32 -87.5 -50.5t-33.5 -23.5t-9.5 -11t-18.5 -15q3 4 -3 11.5t-17 19.5t-17 22z" />
<glyph unicode="&#xe3;" horiz-adv-x="743" d="M57 428q2 73 32 149.5t81 116.5q144 120 297 21l1 33q1 33 1 45q0 102 -12 137q-14 40 -59.5 59t-71.5 -22q-3 -17 -3.5 -22.5t2.5 -22.5t3 -23q6 -41 -16 -62t-64 -16q-37 6 -64 29q-7 7 -11 12.5t-5.5 13t-2 11t0 15.5t0.5 16q0 50 18 90q22 44 61.5 73t88.5 29 q62 0 125 -34t96 -87q16 -29 24 -68.5t8 -76.5t-1 -80l-11 -672q63 12 97 6v-24q1 -8 3 -20.5t3 -23t0 -20.5q-8 -4 -17 -5t-25 0t-20 1q-18 0 -82.5 4t-66.5 4l2 86l-37 -45q-93 -52 -153 -41.5t-129 84.5q-60 57 -77.5 136t-15.5 194zM72 1270q7 31 43 63q67 67 147 64 q26 -3 51 -17q18 -7 31 -20l6 -6q58 -54 113 -74q70 -23 92 18q5 9 14 35q1 5 1 13t1 15t4 13q29 47 62 39q39 -9 49 -51q9 -87 -49 -139q-24 -16 -64 -41q-33 -13 -69 -13q-45 0 -98.5 21.5t-90.5 52.5q-51 39 -94 39q-7 0 -18 -2t-15 -2q-6 0 -16 -16l-10 -35 q-11 -26 -23 -31q-32 -17 -59 31q-11 25 -8 43zM152 412q1 -50 4.5 -83t7.5 -46q14 -58 53 -95.5t88 -37.5q56 0 105 49q65 73 65 207q0 75 -16 141q-10 46 -31 64.5t-70 29.5q-87 22 -145 -41q-32 -33 -47 -85.5t-14 -102.5z" />
<glyph unicode="&#xe4;" d="M57 428q2 73 32 149.5t81 116.5q144 120 297 21l1 33q1 33 1 45q0 102 -12 137q-14 40 -59.5 59t-71.5 -22q-3 -17 -3.5 -22.5t2.5 -22.5t3 -23q6 -41 -16 -62t-64 -16q-37 6 -64 29q-7 7 -11 12.5t-5.5 13t-2 11t0 15.5t0.5 16q0 50 18 90q22 44 61.5 73t88.5 29 q62 0 125 -34t96 -87q16 -29 24 -68.5t8 -76.5t-1 -80l-11 -672q63 12 97 6v-24q1 -8 3 -20.5t3 -23t0 -20.5q-8 -4 -17 -5t-25 0t-20 1q-18 0 -82.5 4t-66.5 4l2 86l-37 -45q-93 -52 -153 -41.5t-129 84.5q-60 57 -77.5 136t-15.5 194zM152 412q1 -50 4.5 -83t7.5 -46 q14 -58 53 -95.5t88 -37.5q56 0 105 49q65 73 65 207q0 75 -16 141q-10 46 -31 64.5t-70 29.5q-87 22 -145 -41q-32 -33 -47 -85.5t-14 -102.5zM246 1233q4 20 18 37.5t31 23.5q35 9 63 -16q20 -25 7 -59t-37 -48q-35 -9 -55.5 -2t-25.5 25.5t-1 38.5zM434 1204 q-22 39 13 69q31 28 69 15q27 -9 41 -41q18 -43 -20 -63q-22 -15 -54.5 -10t-48.5 30z" />
<glyph unicode="&#xe5;" d="M57 428q2 73 32 149.5t81 116.5q144 120 297 21l1 33q1 33 1 45q0 102 -12 137q-14 40 -59.5 59t-71.5 -22q-3 -17 -3.5 -22.5t2.5 -22.5t3 -23q6 -41 -16 -62t-64 -16q-37 6 -64 29q-7 7 -11 12.5t-5.5 13t-2 11t0 15.5t0.5 16q0 50 18 90q22 44 61.5 73t88.5 29 q62 0 125 -34t96 -87q16 -29 24 -68.5t8 -76.5t-1 -80l-11 -672q63 12 97 6v-24q1 -8 3 -20.5t3 -23t0 -20.5q-8 -4 -17 -5t-25 0t-20 1q-18 0 -82.5 4t-66.5 4l2 86l-37 -45q-93 -52 -153 -41.5t-129 84.5q-60 57 -77.5 136t-15.5 194zM152 412q1 -50 4.5 -83t7.5 -46 q14 -58 53 -95.5t88 -37.5q56 0 105 49q65 73 65 207q0 75 -16 141q-10 46 -31 64.5t-70 29.5q-87 22 -145 -41q-32 -33 -47 -85.5t-14 -102.5zM218 1330.5q1 13.5 5 37t4 37.5q6 34 31 58.5t61 35.5h-2q19 8 52 8q89 0 137 -80q16 -32 16 -75q3 -62 -41 -125 q-21 -31 -58.5 -47t-78.5 -9q-82 21 -121 117q-6 29 -5 42.5zM295 1303q20 -44 72 -41q9 0 36 14q26 13 38.5 34t7.5 42q-11 20 -37 44.5t-45 24.5q-47 0 -69.5 -41t-0.5 -80z" />
<glyph unicode="&#xe6;" horiz-adv-x="1093" d="M57 428q2 73 32 149.5t81 116.5q144 120 297 21l1 33q1 33 1 45q0 102 -12 137q-14 40 -59.5 59t-71.5 -22q-3 -17 -3.5 -22.5t2.5 -22.5t3 -23q6 -41 -16 -62t-64 -16q-37 6 -64 29q-7 7 -11 12.5t-5.5 13t-2 11t0 15.5t0.5 16q0 50 18 90q22 44 61.5 73t88.5 29 q62 0 125 -34t96 -87q16 -29 24 -68.5t8 -76.5t-1 -80l-11 -672q63 12 97 6v-24q1 -8 3 -20.5t3 -23t0 -20.5q-8 -4 -17 -5t-25 0t-20 1q-18 0 -82.5 4t-66.5 4l2 86l-37 -45q-93 -52 -153 -41.5t-129 84.5q-60 57 -77.5 136t-15.5 194zM152 412q1 -50 4.5 -83t7.5 -46 q14 -58 53 -95.5t88 -37.5q56 0 105 49q65 73 65 207q0 75 -16 141q-10 46 -31 64.5t-70 29.5q-87 22 -145 -41q-32 -33 -47 -85.5t-14 -102.5zM487 360q-3 187 35 383q9 44 22 84.5t35.5 83t50.5 72.5t68.5 47t87.5 12q116 -11 175 -81q53 -68 69 -216q8 -44 8 -104 q0 -72 -8 -135v-6h-45q-15 0 -47 2t-47 2q-110 4 -160 4q-37 0 -115 -4q-22 -5 -29 -54t-4.5 -91.5t7.5 -73.5q5 -71 43 -128.5t102 -64.5q27 -5 50.5 5t33.5 34q10 17 6 66t0 67q5 25 29.5 37t52.5 9t47 -17q20 -14 27 -40t6 -41t-6 -48q-14 -110 -66 -135 q-83 -39 -161 -39q-88 0 -154 55q-66 51 -88.5 128t-24.5 187zM614 596q28 3 52.5 3.5t51.5 -0.5t36 -1q12 0 35 -1t34 -1q70 0 129 12q10 85 0 137l-6 19q-9 31 -14.5 48t-18 40t-28.5 41q-43 43 -88 43q-31 0 -74 -18h2q-72 -26 -101.5 -132t-9.5 -190z" />
<glyph unicode="&#xe7;" horiz-adv-x="620" d="M55 381q0 39 4 133q0 12 1 35t1 35v121q0 70 5 96q11 82 52.5 153t108.5 111h-2q50 29 99 29q28 0 61 -13q19 -7 39.5 -17.5t48 -27.5t48 -38t34.5 -46t11 -55t-25 -61q-6 -9 -29 -17t-53.5 -5.5t-48.5 22.5q-12 11 -25.5 49t-22.5 49q-1 2 -8 10t-10 11t-9 8.5 t-12.5 8.5t-13.5 5q-38 9 -69 -31q-6 -6 -21 -26q-37 -66 -48 -144.5t-11 -183.5v-21q0 -149 6 -215v-20q4 -99 29 -148q23 -38 74 -65q67 -36 88 3q8 14 8 38q0 30 12 57q14 29 41.5 37.5t56.5 -8.5q31 -17 40.5 -51.5t-7.5 -63.5q-30 -58 -88.5 -89.5t-126.5 -31.5 q-56 0 -98 18.5t-74 73.5q-8 11 -21 36.5t-16 31.5q-29 79 -29 207zM123 -176l1 8q1 7 5 12q1 6 8 19q1 4 21 16q29 6 49 -8q3 -3 8.5 -10t11 -12t11.5 -9q15 -9 36 -6q13 0 25 6l16 15q1 3 3.5 5t3.5 5l4 6l2 4v-2q12 20 5.5 36.5t-34.5 33.5l-49 16q0 27 -7.5 61t-6.5 58 q33 -8 71.5 -9t65.5 9q0 -25 -2 -31q-10 -68 47 -94q20 -14 34 -33t20 -43t-11 -45q-20 -27 -53.5 -54.5t-63.5 -37.5q-3 -1 -15 -4t-20 -4q-28 -4 -39 -4h-41q-3 0 -6 1t-6 1q-9 -3 -18 0q-26 2 -52 28q-7 6 -18 31q-6 18 -6 35z" />
<glyph unicode="&#xe8;" horiz-adv-x="663" d="M57 360q-3 187 35 383q9 44 22 84.5t35.5 83t50.5 72.5t68.5 47t87.5 12q115 -10 174 -81q54 -69 70 -216q8 -44 8 -104q0 -72 -8 -135v-6h-45q-15 0 -46.5 2t-47.5 2q-110 4 -160 4q-37 0 -115 -4q-22 -5 -29 -54t-4.5 -91.5t7.5 -73.5q5 -71 43 -128.5t102 -64.5 q27 -5 50.5 5t33.5 34q10 17 6 66t0 67q5 25 29.5 37t52.5 9t47 -17q20 -14 27 -40t6 -41t-6 -48q-14 -110 -66 -135q-83 -39 -161 -39q-88 0 -154 55q-66 51 -88.5 128t-24.5 187zM184 596q28 3 52.5 3.5t51.5 -0.5t36 -1q12 0 34.5 -1t34.5 -1q70 0 129 12q10 85 0 137 l-6 19q-9 31 -14.5 48t-18 40t-28.5 41q-43 43 -88 43q-30 0 -74 -18h2q-72 -26 -101.5 -132t-9.5 -190zM236 1282q0 6 4 12q24 28 104 33q19 0 28.5 -21t13 -56.5t3.5 -37.5q1 -7 3.5 -25.5t2.5 -25.5t-2 -24q-6 -28 -28 -29.5t-39 18.5q-13 18 -31 54.5t-23 44.5 q-2 2 -8 10t-11 15t-11 16.5t-6 15.5z" />
<glyph unicode="&#xe9;" horiz-adv-x="663" d="M57 360q-3 187 35 383q9 44 22 84.5t35.5 83t50.5 72.5t68.5 47t87.5 12q115 -10 174 -81q54 -69 70 -216q8 -44 8 -104q0 -72 -8 -135v-6h-45q-15 0 -46.5 2t-47.5 2q-110 4 -160 4q-37 0 -115 -4q-22 -5 -29 -54t-4.5 -91.5t7.5 -73.5q5 -71 43 -128.5t102 -64.5 q27 -5 50.5 5t33.5 34q10 17 6 66t0 67q5 25 29.5 37t52.5 9t47 -17q20 -14 27 -40t6 -41t-6 -48q-14 -110 -66 -135q-83 -39 -161 -39q-88 0 -154 55q-66 51 -88.5 128t-24.5 187zM184 596q28 3 52.5 3.5t51.5 -0.5t36 -1q12 0 34.5 -1t34.5 -1q70 0 129 12q10 85 0 137 l-6 19q-9 31 -14.5 48t-18 40t-28.5 41q-43 43 -88 43q-30 0 -74 -18h2q-72 -26 -101.5 -132t-9.5 -190zM324.5 1173.5q0.5 8.5 3.5 26t4 25.5q0 114 43 114q81 -5 104 -32q6 -12 0 -23t-19 -26.5t-14 -20.5q-5 -9 -22.5 -44.5t-30.5 -53.5q-17 -20 -39 -19t-28 29 q-2 16 -1.5 24.5z" />
<glyph unicode="&#xea;" horiz-adv-x="663" d="M57 360q-3 187 35 383q9 44 22 84.5t35.5 83t50.5 72.5t68.5 47t87.5 12q115 -10 174 -81q54 -69 70 -216q8 -44 8 -104q0 -72 -8 -135v-6h-45q-15 0 -46.5 2t-47.5 2q-110 4 -160 4q-37 0 -115 -4q-22 -5 -29 -54t-4.5 -91.5t7.5 -73.5q5 -71 43 -128.5t102 -64.5 q27 -5 50.5 5t33.5 34q10 17 6 66t0 67q5 25 29.5 37t52.5 9t47 -17q20 -14 27 -40t6 -41t-6 -48q-14 -110 -66 -135q-83 -39 -161 -39q-88 0 -154 55q-66 51 -88.5 128t-24.5 187zM168 1159l80 60q107 77 114 81q147 -115 189 -141l-59 -67q4 4 -1.5 10t-48.5 39 q-32 24 -80 53q-58 -32 -87.5 -50.5t-33.5 -23.5t-9.5 -11t-18.5 -15q3 4 -3 11.5t-17 19.5t-17 22zM184 596q28 3 52.5 3.5t51.5 -0.5t36 -1q12 0 34.5 -1t34.5 -1q70 0 129 12q10 85 0 137l-6 19q-9 31 -14.5 48t-18 40t-28.5 41q-43 43 -88 43q-30 0 -74 -18h2 q-72 -26 -101.5 -132t-9.5 -190z" />
<glyph unicode="&#xeb;" horiz-adv-x="663" d="M57 360q-3 187 35 383q9 44 22 84.5t35.5 83t50.5 72.5t68.5 47t87.5 12q115 -10 174 -81q54 -69 70 -216q8 -44 8 -104q0 -72 -8 -135v-6h-45q-15 0 -46.5 2t-47.5 2q-110 4 -160 4q-37 0 -115 -4q-22 -5 -29 -54t-4.5 -91.5t7.5 -73.5q5 -71 43 -128.5t102 -64.5 q27 -5 50.5 5t33.5 34q10 17 6 66t0 67q5 25 29.5 37t52.5 9t47 -17q20 -14 27 -40t6 -41t-6 -48q-14 -110 -66 -135q-83 -39 -161 -39q-88 0 -154 55q-66 51 -88.5 128t-24.5 187zM184 596q28 3 52.5 3.5t51.5 -0.5t36 -1q12 0 34.5 -1t34.5 -1q70 0 129 12q10 85 0 137 l-6 19q-9 31 -14.5 48t-18 40t-28.5 41q-43 43 -88 43q-30 0 -74 -18h2q-72 -26 -101.5 -132t-9.5 -190zM197 1219q4 20 18 37.5t31 23.5q35 9 63 -16q20 -25 7 -59t-37 -48q-35 -9 -55.5 -2t-25.5 25.5t-1 38.5zM385 1190q-22 39 13 69q31 28 69 15q27 -9 41 -41 q18 -44 -21 -64q-23 -15 -54 -9.5t-48 30.5z" />
<glyph unicode="&#xec;" horiz-adv-x="354" d="M55 -10q6 15 6 33q0 1 -1 8t-0.5 12t3.5 8q3 6 25 6l23 936q-25 -9 -48 -6q0 3 3.5 9.5t3.5 9.5q0 4 -1 11.5t-1 10.5q-15 35 2 47l30 6q12 3 35 6.5t35 6.5q27 2 78 2q28 4 43 2q0 -4 1 -15t1 -16q0 -1 4.5 -21t-0.5 -24q-5 -8 -25 -12q-4 0 -13 -1t-17 -1 q-25 -461 -25 -693q0 -206 2 -245q36 0 49 -9q4 -4 5 -11t0.5 -16t0.5 -14q0 -1 4 -11.5t3 -18.5h-33h-62q-14 0 -41 -1.5t-49 -1.5t-41 3zM66 1327q0 6 4 12q24 28 104 33q19 0 28.5 -21t13 -56.5t3.5 -37.5q1 -7 3.5 -25.5t2.5 -25.5t-2 -24q-6 -28 -28 -29.5t-39 18.5 q-13 18 -31 54.5t-23 44.5q-2 2 -8 10t-11 15t-11 16.5t-6 15.5z" />
<glyph unicode="&#xed;" horiz-adv-x="354" d="M55 -10q6 15 6 33q0 1 -1 8t-0.5 12t3.5 8q3 6 25 6l23 936q-25 -9 -48 -6q0 3 3.5 9.5t3.5 9.5q0 4 -1 11.5t-1 10.5q-15 35 2 47l30 6q12 3 35 6.5t35 6.5q27 2 78 2q28 4 43 2q0 -4 1 -15t1 -16q0 -1 4.5 -21t-0.5 -24q-5 -8 -25 -12q-4 0 -13 -1t-17 -1 q-25 -461 -25 -693q0 -206 2 -245q36 0 49 -9q4 -4 5 -11t0.5 -16t0.5 -14q0 -1 4 -11.5t3 -18.5h-33h-62q-14 0 -41 -1.5t-49 -1.5t-41 3zM137.5 1210.5q0.5 8.5 3.5 26t4 25.5q0 114 43 114q81 -5 105 -33q6 -12 0 -22.5t-19 -26t-14 -20.5q-5 -9 -22.5 -44.5t-30.5 -53.5 q-17 -20 -39.5 -19t-28.5 29q-2 16 -1.5 24.5z" />
<glyph unicode="&#xee;" horiz-adv-x="493" d="M55 1204l80 60q109 79 115 82q29 -23 60.5 -47.5t44 -34t27 -21t21.5 -16.5t15 -10.5t20 -12.5l-59 -67q6 6 -49 49q-32 24 -80 53q-58 -32 -88 -50.5t-33.5 -23.5t-9.5 -11t-19 -15q3 4 -3 11.5t-17 19.5t-17 22zM113 -10q6 15 6 33q0 1 -1 8t-0.5 12t3.5 8q3 6 24 6 l23 936q-25 -9 -47 -6q0 3 3 9.5t3 9.5q0 4 -1 11.5t-1 10.5q-15 35 2 47l31 6q12 3 34.5 6.5t34.5 6.5q27 2 78 2q28 4 43 2q0 -4 1 -15t1 -16q0 -1 4 -21t0 -24q-5 -8 -24 -12q-4 0 -14 -1t-17 -1q-25 -461 -25 -693q0 -206 2 -245q37 0 50 -9q4 -4 5 -11t0.5 -16t0.5 -14 l4 -11q3 -11 2 -19h-33h-61q-14 0 -41 -1.5t-49 -1.5t-41 3z" />
<glyph unicode="&#xef;" horiz-adv-x="430" d="M57 1250q4 20 18 37.5t31 23.5q35 9 64 -17q20 -25 6.5 -58.5t-37.5 -47.5q-35 -9 -55.5 -2t-25.5 25.5t-1 38.5zM68 -10q6 15 6 33q0 1 -1 8t-0.5 12t3.5 8q3 6 24 6l23 936q-25 -9 -47 -6q0 3 3 9.5t3 9.5q0 4 -1 11.5t-1 10.5q-15 35 2 47l31 6q12 3 34.5 6.5 t34.5 6.5q27 2 78 2q29 4 43 2q0 -4 1 -15t1 -16q0 -1 4.5 -21t-0.5 -24q-5 -8 -24 -12q-5 0 -14 -1t-17 -1q-25 -461 -25 -693q0 -206 2 -245q37 0 50 -9q4 -4 5 -11t0.5 -16t0.5 -14l3 -11q4 -11 3 -19h-33h-61q-14 0 -41 -1.5t-49 -1.5t-41 3zM246 1221q-22 39 13 69 q31 28 69 15q27 -9 41 -41q18 -44 -21 -64q-23 -15 -54 -9.5t-48 30.5z" />
<glyph unicode="&#xf0;" horiz-adv-x="714" d="M55 1153l6 2l-4 -2h-2zM59 453q0 333 131 444q24 23 58 35h-2q91 31 153 31q30 0 123 -33q1 21 4.5 59.5t3.5 50.5q0 117 -20 172t-88 123q0 -83 6 -131v2q4 -56 -2 -78q-38 -10 -61 -10q-34 0 -64 6q1 32 -2.5 108t0.5 111q-8 -4 -19.5 -16t-17.5 -16q-3 -3 -7 -4t-7 -4 l-6 -13q-7 -10 -11 -28q-2 -6 -2 -29v-37q0 -53 -6 -70q-25 -32 -57 -32q-47 0 -66 36q-4 20 -4 27v12v52q4 20 4 28q1 5 1 14.5t1 14.5q7 29 9 33q1 2 4 8.5t4 11.5q14 31 39 45q8 5 16.5 17t15.5 16q35 35 113 55q-11 102 0 166l4 2q83 10 103 -10q4 -14 5.5 -51t3 -67.5 t5.5 -33.5q54 -36 84.5 -58.5t58.5 -53.5t40.5 -55t23.5 -68.5t15.5 -89.5t8.5 -123q0 -9 1 -24t1 -23q0 -7 0.5 -72t0 -99.5t-1.5 -109.5t-5 -124.5t-10 -121t-16 -123t-23 -105.5t-32.5 -94t-43.5 -65q-55 -62 -112 -77q-42 -11 -66 -11q-104 0 -190 97q-99 133 -99 383z M156 506q0 -94 26 -211q26 -106 88 -168q97 -93 203 80q51 94 66 262q4 50 4 80q0 117 -37 192q-21 41 -92 78q-55 18 -121 -3t-90 -71q-24 -55 -29 -81q-18 -97 -18 -158z" />
<glyph unicode="&#xf1;" horiz-adv-x="778" d="M57 991q-1 8 2.5 21.5t3.5 19.5q1 3 1 9t1 10.5t5 7.5h170l-4 -86q0 2 8 11t25 22t43.5 23t63.5 13.5t85 -6.5q44 -10 76 -32t50.5 -47.5t31.5 -67t18.5 -74t11.5 -84.5q25 -237 25 -428q0 -138 -10 -233q36 4 55 2q5 -54 0 -72q-9 -1 -27.5 -1t-27.5 -1 q-13 -4 -52.5 -1.5t-52.5 1.5h-33q-6 2 -7 6q-1 2 -1 4q0 4 1 11.5t0.5 12t-3.5 9.5q-1 2 -2.5 5.5t-2.5 6.5t-1 6q28 4 45 4q6 147 6 287q0 199 -6 291q0 7 -1 17.5t-1 17.5q-3 46 -5.5 64.5t-10 56.5t-23 64t-39.5 48q-37 21 -82 21q-91 0 -135 -70l2 2q-22 -31 -32 -69.5 t-9.5 -73t0.5 -74.5q-7 -49 -0.5 -305.5t6.5 -267.5q6 -2 15.5 -2t16 -1.5t9.5 -7.5q1 -7 0 -14.5t-3 -17t-3 -13.5q0 -2 0.5 -6t0.5 -6t-1.5 -5t-5.5 -5q-4 -3 -17.5 2t-17.5 4h-61q-52 0 -78 4q-5 11 -5.5 20.5t2.5 24t3 19.5q11 3 15 3.5t11 -0.5t15 -1q-3 165 -3.5 341 t0.5 363.5t1 214.5q-7 0 -20 -1t-22.5 -0.5t-19.5 3.5zM84 1186q7 31 43 63q67 67 147 64q28 -3 52 -17q17 -7 30 -20l6 -6q58 -54 113 -74q70 -23 92 18q7 12 15 35q1 5 1 13t1 15t4 13q28 47 61 39q39 -9 49 -51q9 -87 -49 -139q-31 -21 -63 -41q-32 -13 -70 -13 q-45 0 -98 21.5t-90 52.5q-51 39 -95 39q-7 0 -17 -2t-15 -2q-7 0 -17 -16l-10 -35q-1 -2 -3 -7.5t-3.5 -8t-3.5 -6t-5 -5.5t-7 -4q-33 -17 -60 31q-11 25 -8 43z" />
<glyph unicode="&#xf2;" horiz-adv-x="673" d="M57 399q-4 234 31 394q18 80 65 142t119 97q49 17 80 17q50 0 100 -20.5t85 -55.5q90 -41 81 -494q-4 -179 -12 -237q-11 -87 -45 -142q-27 -46 -125 -75q-47 -15 -80 -15q-15 0 -69 13q-65 8 -112 44.5t-71.5 91.5t-35.5 114t-11 126zM154 479q0 -111 14 -162 q14 -74 43 -124t90 -80q69 -31 126 16t71 119q6 23 6 82q0 16 -1 41t-1 41q-2 25 -2 71q3 116 -8 267v22q0 34 -2 54t-10.5 45t-28.5 42t-52 27v-2q-125 35 -194 -107q-15 -35 -25.5 -81.5t-14 -75t-9.5 -84.5q0 -17 -1 -54t-1 -57zM232 1284q0 6 4 12q24 28 104 33 q19 0 28.5 -21t13 -56.5t3.5 -37.5q1 -7 3.5 -25.5t2.5 -25.5t-2 -24q-6 -28 -28 -29.5t-39 18.5q-13 18 -31 54.5t-23 44.5q-2 2 -8 10t-11 15t-11 16.5t-6 15.5z" />
<glyph unicode="&#xf3;" horiz-adv-x="673" d="M57 399q-4 234 31 394q18 80 65 142t119 97q49 17 80 17q50 0 100 -20.5t85 -55.5q90 -41 81 -494q-4 -179 -12 -237q-11 -87 -45 -142q-27 -46 -125 -75q-47 -15 -80 -15q-15 0 -69 13q-65 8 -112 44.5t-71.5 91.5t-35.5 114t-11 126zM154 479q0 -111 14 -162 q14 -74 43 -124t90 -80q69 -31 126 16t71 119q6 23 6 82q0 16 -1 41t-1 41q-2 25 -2 71q3 116 -8 267v22q0 34 -2 54t-10.5 45t-28.5 42t-52 27v-2q-125 35 -194 -107q-15 -35 -25.5 -81.5t-14 -75t-9.5 -84.5q0 -17 -1 -54t-1 -57zM293.5 1206q0.5 8 3.5 25.5t4 25.5 q0 115 43 115q81 -5 105 -33q6 -12 0 -22.5t-19 -26t-14 -20.5q-5 -8 -23 -44.5t-31 -54.5q-17 -20 -39 -18.5t-28 29.5q-2 16 -1.5 24z" />
<glyph unicode="&#xf4;" horiz-adv-x="673" d="M57 399q-4 234 31 394q18 80 65 142t119 97q49 17 80 17q50 0 100 -20.5t85 -55.5q90 -41 81 -494q-4 -179 -12 -237q-11 -87 -45 -142q-27 -46 -125 -75q-47 -15 -80 -15q-15 0 -69 13q-65 8 -112 44.5t-71.5 91.5t-35.5 114t-11 126zM152 1151l79 59q109 79 115 82 q147 -115 189 -141l-60 -68q7 7 -49 50q-32 24 -80 53q-58 -32 -87.5 -50.5t-33.5 -23.5t-9.5 -11.5t-18.5 -15.5q3 4 -3 12t-17 20t-17 22zM154 479q0 -111 14 -162q14 -74 43 -124t90 -80q69 -31 126 16t71 119q6 23 6 82q0 16 -1 41t-1 41q-2 25 -2 71q3 116 -8 267v22 q0 34 -2 54t-10.5 45t-28.5 42t-52 27v-2q-125 35 -194 -107q-15 -35 -25.5 -81.5t-14 -75t-9.5 -84.5q0 -17 -1 -54t-1 -57z" />
<glyph unicode="&#xf5;" d="M57 399q-4 234 31 394q18 80 65 142t119 97q49 17 80 17q50 0 100 -20.5t85 -55.5q90 -41 81 -494q-4 -179 -12 -237q-11 -87 -45 -142q-27 -46 -125 -75q-47 -15 -80 -15q-15 0 -69 13q-65 8 -112 44.5t-71.5 91.5t-35.5 114t-11 126zM61 1192q7 31 43 63q67 67 148 64 q29 -3 51 -16q17 -7 31 -21l6 -6q58 -54 113 -74q69 -22 92 19q6 10 14 34q1 5 1 13t1 15t4 13q29 47 62 39q39 -9 49 -51q9 -87 -49 -139q-23 -16 -64 -41q-30 -12 -69 -12q-46 0 -99 21.5t-90 51.5q-51 39 -94 39q-7 0 -18 -2t-15 -2q-6 0 -16 -16l-10 -35 q-11 -26 -23 -31q-32 -17 -59 31q-11 27 -9 43zM154 479q0 -111 14 -162q14 -74 43 -124t90 -80q69 -31 126 16t71 119q6 23 6 82q0 16 -1 41t-1 41q-2 25 -2 71q3 116 -8 267v22q0 34 -2 54t-10.5 45t-28.5 42t-52 27v-2q-125 35 -194 -107q-15 -35 -25.5 -81.5t-14 -75 t-9.5 -84.5q0 -17 -1 -54t-1 -57z" />
<glyph unicode="&#xf6;" horiz-adv-x="673" d="M57 399q-4 234 31 394q18 80 65 142t119 97q49 17 80 17q50 0 100 -20.5t85 -55.5q90 -41 81 -494q-4 -179 -12 -237q-11 -87 -45 -142q-27 -46 -125 -75q-47 -15 -80 -15q-15 0 -69 13q-65 8 -112 44.5t-71.5 91.5t-35.5 114t-11 126zM154 479q0 -111 14 -162 q14 -74 43 -124t90 -80q69 -31 126 16t71 119q6 23 6 82q0 16 -1 41t-1 41q-2 25 -2 71q3 116 -8 267v22q0 34 -2 54t-10.5 45t-28.5 42t-52 27v-2q-125 35 -194 -107q-15 -35 -25.5 -81.5t-14 -75t-9.5 -84.5q0 -17 -1 -54t-1 -57zM235.5 1182q15.5 37 45.5 47q34 9 63 -17 q20 -25 6.5 -58.5t-37.5 -47.5q-55 -15 -74 12t-3.5 64zM420 1139q-22 39 13 69q31 28 69 15q27 -9 41 -41q18 -44 -21 -64q-23 -15 -54 -9.5t-48 30.5z" />
<glyph unicode="&#xf7;" horiz-adv-x="706" d="M56 578.5q1 10.5 4 45t3 62.5l578 -12q0 -4 1.5 -18t3 -30t2.5 -32t0 -26.5t-5 -10.5q-173 4 -326 2t-178.5 -4t-81.5 6q-2 7 -1 17.5zM266 936q15 46 70 59q1 0 2 -1t2 -1q-2 0 -2 2h2q17 4 35 -7.5t24 -29.5q10 -23 5.5 -46.5t-21.5 -37.5q-5 -8 -18 -16.5t-23 -9.5 q-36 -2 -61 26t-15 62zM280.5 321q-8.5 36 8.5 62q18 26 47 33t53 -15q13 -13 23.5 -37.5t9.5 -46.5l4 5v-3q0 -14 -8 -22q-12 -24 -46 -33t-57 4q-26 17 -34.5 53zM334 995h6h-6z" />
<glyph unicode="&#xf8;" horiz-adv-x="679" d="M55 500q0 257 103 415h-2q59 89 163 89q36 0 76 -13l31 -12q78 268 86 276q16 7 41 7q61 -5 45 -50v-8q-4 -12 -4 -20l-76 -277q30 -35 51 -88q19 -43 29.5 -92t13 -75t6.5 -97q10 -78 3 -178q-13 -94 -37 -187.5t-47 -128.5q-60 -73 -156 -73q-65 0 -115 18 q-80 -279 -84 -280q-14 -3 -46 -4t-50 -5q16 96 86 342q-86 67 -100 209q-17 162 -17 232zM145 465q5 -21 5 -70q0 -31 6 -65q15 -120 41 -172q23 81 64.5 235.5t77 281t64.5 222.5q-19 11 -38 14q-70 6 -115 -39q-49 -55 -57 -120l-35 -127q-22 -107 -13 -160zM289 84 q45 -10 71 -10q58 0 84 26h-2q39 36 61.5 102.5t22.5 125.5v22q2 49 2 148q0 77 -2 110q0 4 -1 11.5t-1 11.5q-4 80 -37 162q-25 -88 -94 -337.5t-104 -371.5z" />
<glyph unicode="&#xf9;" horiz-adv-x="899" d="M56.5 1029q-5.5 29 0.5 42q6 3 20.5 3t18.5 1q73 5 90 8q3 0 18.5 2t23 2.5t17.5 -3t15 -11.5q23 -41 23 -63q0 -9 -2 -9q0 -2 -9 -2q-4 0 -6 -2h-22q-25 -447 -25 -551v-49q-4 -105 23 -166q18 -41 30 -53q15 -15 54 -30t88 -15q58 0 108 23q50 26 64 80q27 69 30 151 v109v147q0 13 -1 39.5t-1 42.5q-4 163 -16 272q-1 0 -12 -1t-17 -5q-1 4 4 19v28q-1 5 -7 17.5t-5 21.5q12 3 25 4t31 1t28 1q8 1 29.5 5t30 5t30 2.5t29.5 -1.5q5 -34 6 -37t6.5 -18.5t5.5 -18.5q-2 -12 -41 -12v-56q0 -613 11 -714q4 -37 4 -181q10 2 28 2q29 3 58 0 q4 -3 0 -17t-4 -15q0 -27 -2 -37q-2 -5 -5.5 -8.5t-9 -5.5t-10.5 -3t-12.5 -1.5t-12 -0.5h-11.5h-9q-14 0 -57 -5.5t-70 -2.5v25q0 1 1 2t1 2l-6 61q-27 -6 -111.5 -41.5t-134.5 -29.5q-76 10 -129 41q-50 26 -80 77q-8 9 -14.5 21t-9.5 21t-8.5 28t-8.5 29q-28 73 -28 538 q0 47 0.5 95t1 79.5t0.5 36.5v23v28q-26 -4 -35 -2q-16 3 -21.5 32zM315.5 1360q-0.5 6 3.5 12q24 28 105 33q19 0 28.5 -21t13 -56.5t3.5 -37.5q1 -7 3.5 -25.5t2.5 -26t-2 -24.5q-6 -28 -28 -29t-39 19q-13 18 -31 54.5t-23 44.5q-2 2 -8 10t-11.5 15t-11 16.5t-6 15.5z " />
<glyph unicode="&#xfa;" horiz-adv-x="899" d="M56.5 1029q-5.5 29 0.5 42q6 3 20.5 3t18.5 1q73 5 90 8q3 0 18.5 2t23 2.5t17.5 -3t15 -11.5q23 -41 23 -63q0 -9 -2 -9q0 -2 -9 -2q-4 0 -6 -2h-22q-25 -447 -25 -551v-49q-4 -105 23 -166q18 -41 30 -53q15 -15 54 -30t88 -15q58 0 108 23q50 26 64 80q27 69 30 151 v109v147q0 13 -1 39.5t-1 42.5q-4 163 -16 272q-1 0 -12 -1t-17 -5q-1 4 4 19v28q-1 5 -7 17.5t-5 21.5q12 3 25 4t31 1t28 1q8 1 29.5 5t30 5t30 2.5t29.5 -1.5q5 -34 6 -37t6.5 -18.5t5.5 -18.5q-2 -12 -41 -12v-56q0 -613 11 -714q4 -37 4 -181q10 2 28 2q29 3 58 0 q4 -3 0 -17t-4 -15q0 -27 -2 -37q-2 -5 -5.5 -8.5t-9 -5.5t-10.5 -3t-12.5 -1.5t-12 -0.5h-11.5h-9q-14 0 -57 -5.5t-70 -2.5v25q0 1 1 2t1 2l-6 61q-27 -6 -111.5 -41.5t-134.5 -29.5q-76 10 -129 41q-50 26 -80 77q-8 9 -14.5 21t-9.5 21t-8.5 28t-8.5 29q-28 73 -28 538 q0 47 0.5 95t1 79.5t0.5 36.5v23v28q-26 -4 -35 -2q-16 3 -21.5 32zM371.5 1288q0.5 8 3.5 25.5t4 25.5q0 115 43 115q80 -5 104 -33q6 -12 0.5 -22.5t-18.5 -26t-14 -20.5q-5 -8 -23 -44.5t-31 -54.5q-17 -20 -39 -18.5t-28 29.5q-2 16 -1.5 24z" />
<glyph unicode="&#xfb;" horiz-adv-x="899" d="M56.5 1029q-5.5 29 0.5 42q6 3 20.5 3t18.5 1q73 5 90 8q3 0 18.5 2t23 2.5t17.5 -3t15 -11.5q23 -41 23 -63q0 -9 -2 -9q0 -2 -9 -2q-4 0 -6 -2h-22q-25 -447 -25 -551v-49q-4 -105 23 -166q18 -41 30 -53q15 -15 54 -30t88 -15q58 0 108 23q50 26 64 80q27 69 30 151 v109v147q0 13 -1 39.5t-1 42.5q-4 163 -16 272q-1 0 -12 -1t-17 -5q-1 4 4 19v28q-1 5 -7 17.5t-5 21.5q12 3 25 4t31 1t28 1q8 1 29.5 5t30 5t30 2.5t29.5 -1.5q5 -34 6 -37t6.5 -18.5t5.5 -18.5q-2 -12 -41 -12v-56q0 -613 11 -714q4 -37 4 -181q10 2 28 2q29 3 58 0 q4 -3 0 -17t-4 -15q0 -27 -2 -37q-2 -5 -5.5 -8.5t-9 -5.5t-10.5 -3t-12.5 -1.5t-12 -0.5h-11.5h-9q-14 0 -57 -5.5t-70 -2.5v25q0 1 1 2t1 2l-6 61q-27 -6 -111.5 -41.5t-134.5 -29.5q-76 10 -129 41q-50 26 -80 77q-8 9 -14.5 21t-9.5 21t-8.5 28t-8.5 29q-28 73 -28 538 q0 47 0.5 95t1 79.5t0.5 36.5v23v28q-26 -4 -35 -2q-16 3 -21.5 32zM250 1231l80 59q15 11 41 30.5t44 32.5t29 19q147 -115 189 -141l-60 -68q5 5 -1.5 11t-47.5 38q-40 30 -80 54q-58 -32 -87.5 -50.5t-33.5 -23.5t-9.5 -11.5t-18.5 -15.5q3 4 -3 12t-17 20t-17 22z" />
<glyph unicode="&#xfc;" horiz-adv-x="899" d="M56.5 1029q-5.5 29 0.5 42q6 3 20.5 3t18.5 1q73 5 90 8q3 0 18.5 2t23 2.5t17.5 -3t15 -11.5q23 -41 23 -63q0 -9 -2 -9q0 -2 -9 -2q-4 0 -6 -2h-22q-25 -447 -25 -551v-49q-4 -105 23 -166q18 -41 30 -53q15 -15 54 -30t88 -15q58 0 108 23q50 26 64 80q27 69 30 151 v109v147q0 13 -1 39.5t-1 42.5q-4 163 -16 272q-1 0 -12 -1t-17 -5q-1 4 4 19v28q-1 5 -7 17.5t-5 21.5q12 3 25 4t31 1t28 1q8 1 29.5 5t30 5t30 2.5t29.5 -1.5q5 -34 6 -37t6.5 -18.5t5.5 -18.5q-2 -12 -41 -12v-56q0 -613 11 -714q4 -37 4 -181q10 2 28 2q29 3 58 0 q4 -3 0 -17t-4 -15q0 -27 -2 -37q-2 -5 -5.5 -8.5t-9 -5.5t-10.5 -3t-12.5 -1.5t-12 -0.5h-11.5h-9q-14 0 -57 -5.5t-70 -2.5v25q0 1 1 2t1 2l-6 61q-27 -6 -111.5 -41.5t-134.5 -29.5q-76 10 -129 41q-50 26 -80 77q-8 9 -14.5 21t-9.5 21t-8.5 28t-8.5 29q-28 73 -28 538 q0 47 0.5 95t1 79.5t0.5 36.5v23v28q-26 -4 -35 -2q-16 3 -21.5 32zM321.5 1286q15.5 37 45.5 47q35 9 63 -16q20 -25 6.5 -59t-37.5 -48q-55 -15 -74 12t-3.5 64zM506 1243q-22 39 13 69q31 28 69 15q27 -9 41 -41q18 -43 -21 -63q-22 -15 -54 -10t-48 30z" />
<glyph unicode="&#xfd;" horiz-adv-x="788" d="M57 1112q6 0 56.5 7t95.5 12t45 2q16 0 22 -19q12 -28 9 -43q-21 -8 -56 -8v-55q0 -27 -1 -70t-1 -51q-3 -27 -6 -98.5t-1 -180t12.5 -207.5t40 -176.5t75.5 -91.5q27 -10 67.5 -3t61.5 24q12 9 22.5 24t17.5 29t13 38t9 37.5t6.5 42t4.5 38t3 39.5t2 32q4 62 4 90 q0 8 -1 29t-1 33v116q0 10 2 70t2 88v162h-14q-33 -4 -51 -2q0 8 -8 21t-9 16q0 2 -1.5 10.5t-3.5 15.5t-5 11q155 20 231 20q4 -1 6 -6t4.5 -12t4.5 -11q19 -26 16 -49q-6 -1 -14.5 -1t-18.5 0.5t-14 0.5h-4q0 -35 -3 -120t-3 -109q4 -97 4 -430q0 -44 4 -137t4 -144 q0 -56 -10 -121q-17 -94 -47 -143q-48 -73 -103 -100q-42 -22 -92 -19q-3 0 -17 3t-22 3q-18 -3 -35 7q-40 17 -66.5 43.5t-8.5 58.5q14 26 52 39t64 0q7 -3 20.5 -14.5t22.5 -12.5q33 -7 58.5 16.5t40.5 59.5q14 24 26 76q4 10 9 43l-1 11q-1 12 -0.5 19.5t3.5 8.5 q-81 -68 -166.5 -79t-150.5 32.5t-91 128.5h-2q-3 8 -10.5 23.5t-11 24t-7 21.5t-4.5 25q-8 31 -8 67q0 29 -2 43v-2q-3 60 -8 340v86q-6 49 -6 250v25l-50 -8q0 10 -3.5 29.5t-2.5 31.5zM359 1232.5q1 8.5 4 25.5t4 26q0 115 43 115q80 -5 104 -33q6 -12 0 -23t-19 -26.5 t-14 -20.5q-5 -9 -22.5 -44.5t-30.5 -53.5q-17 -20 -39.5 -19t-28.5 29q-2 16 -1 24.5z" />
<glyph unicode="&#xfe;" horiz-adv-x="731" d="M57 -328q1 6 1 8t3 4t4 2t9 1q29 0 45 2q0 1350 16 1540h-14q-19 -3 -37 0q10 33 2 57l-6 21l-4 2q-5 2 -6 6q-4 5 1 5q7 0 9 1q10 3 20.5 5t18 3t23 0.5t24 -1t32 -2.5t35.5 -3q3 0 9 -1l6 -1v-2q0 -2 -2 -38t-4 -74t-1.5 -74.5t5.5 -45.5q122 31 176 31q36 0 57 -8 q36 -12 70 -41t55 -65q72 -141 72 -328q0 -43 -4 -113v-86q0 -107 -10 -158q-23 -116 -80 -184q-40 -53 -95.5 -82.5t-119.5 -25.5q-29 0 -54 14q-4 1 -10 5t-21.5 7t-52.5 8q0 -7 -1 -18t-1 -16l-8 -334q2 0 19 2.5t19.5 2t18.5 -2.5q1 -18 -12 -86q-10 -3 -29.5 -3 t-23.5 -1q-33 -2 -94 -2q-4 0 -15 -1t-18.5 -0.5t-13.5 3.5q-7 4 -11 24q0 5 -1.5 20t-0.5 23zM221 337q0 -12 0.5 -16.5t1.5 -15t2 -16t2.5 -15t3.5 -16t5 -14.5t6 -15q106 -116 217 -73q80 57 102 198q19 109 19 256q0 108 -7 172q-15 109 -69 174q-37 56 -98 56 q-34 0 -78 -23q-26 -12 -43 -30.5t-26.5 -44t-13 -44.5t-7.5 -51q-15 -99 -15 -287q0 -79 -2 -118v-31v-15v-16v-15z" />
<glyph unicode="&#xff;" horiz-adv-x="788" d="M57 1112q6 0 56.5 7t95.5 12t45 2q16 0 22 -19q12 -28 9 -43q-21 -8 -56 -8v-55q0 -27 -1 -70t-1 -51q-3 -27 -6 -98.5t-1 -180t12.5 -207.5t40 -176.5t75.5 -91.5q27 -10 67.5 -3t61.5 24q12 9 22.5 24t17.5 29t13 38t9 37.5t6.5 42t4.5 38t3 39.5t2 32q4 62 4 90 q0 8 -1 29t-1 33v116q0 10 2 70t2 88v162h-14q-33 -4 -51 -2q0 8 -8 21t-9 16q0 2 -1.5 10.5t-3.5 15.5t-5 11q155 20 231 20q4 -1 6 -6t4.5 -12t4.5 -11q19 -26 16 -49q-6 -1 -14.5 -1t-18.5 0.5t-14 0.5h-4q0 -35 -3 -120t-3 -109q4 -97 4 -430q0 -44 4 -137t4 -144 q0 -56 -10 -121q-17 -94 -47 -143q-48 -73 -103 -100q-42 -22 -92 -19q-3 0 -17 3t-22 3q-18 -3 -35 7q-40 17 -66.5 43.5t-8.5 58.5q14 26 52 39t64 0q7 -3 20.5 -14.5t22.5 -12.5q33 -7 58.5 16.5t40.5 59.5q14 24 26 76q4 10 9 43l-1 11q-1 12 -0.5 19.5t3.5 8.5 q-81 -68 -166.5 -79t-150.5 32.5t-91 128.5h-2q-3 8 -10.5 23.5t-11 24t-7 21.5t-4.5 25q-8 31 -8 67q0 29 -2 43v-2q-3 60 -8 340v86q-6 49 -6 250v25l-50 -8q0 10 -3.5 29.5t-2.5 31.5zM285 1244q4 20 18 37.5t31 23.5q34 9 63 -17q20 -25 7 -58.5t-37 -47.5 q-35 -9 -55.5 -2t-25.5 25.5t-1 38.5zM473 1214q-22 39 13 69q31 28 69 15q27 -9 41 -41q18 -43 -21 -63q-22 -15 -54 -10t-48 30z" />
<glyph unicode="&#x152;" horiz-adv-x="1165" d="M56.5 621.5q-1.5 136.5 1.5 253t9 194t19.5 141.5t30 101t43.5 66t55.5 44.5t71.5 28.5q24 6 55 6q67 0 133 -27.5t111 -72.5q54 -46 80 -131t26 -170q0 -334 -11 -500.5t-38 -310.5q-58 -154 -151 -211h2q-75 -43 -162 -43q-85 0 -137 41q-50 37 -93 124t-39 142 q-5 188 -6.5 324.5zM143.5 514.5q-0.5 -40.5 2.5 -87.5t12 -110q14 -79 28 -104q24 -48 70 -74t102 -26q71 0 127 39q12 9 21.5 20.5t15.5 19.5t12.5 23.5t8.5 21t8.5 25.5t7.5 23h-2q13 45 27 180q10 54 10 602q0 95 -33 168q-29 54 -84.5 87.5t-116.5 33.5q-48 0 -88 -21 h2q-37 -26 -62 -66.5t-36 -96t-15 -89t-7 -92.5q-2 -150 -6 -293t-4.5 -183.5zM592 -8q6 797 6 1442q58 4 147.5 4t199.5 -2t153 -2q7 -30 9 -78.5t-5 -93.5q-4 -8 -36.5 -10t-41.5 3q-5 2 -8 7t-3.5 9l-1.5 12t-1 11l-17 49h-14q-47 3 -88 3q-105 0 -164 -9 q-1 -50 -2.5 -120t-2.5 -103t-2 -81.5t-1 -70.5t-0.5 -55t0 -48.5t1 -38t2 -37.5t3.5 -32t4 -36l109 10q77 14 106 14q6 -18 6 -59q0 -47 -4 -51h2q-37 -12 -98 -15q-68 0 -127 -18q-10 -92 -10 -238q0 -190 6 -249q72 -19 172 -19h80h10q0 1 -5.5 21.5t-9.5 42t-1 26.5 q17 3 37.5 2t48.5 -3.5t32 -2.5q4 -18 4 -115q0 -10 3 -35t2 -40q-9 0 -250 3t-250 3z" />
<glyph unicode="&#x153;" horiz-adv-x="1058" d="M57 399q-4 234 31 394q18 80 65 142t119 97q49 17 80 17q50 0 100 -20.5t85 -55.5q90 -41 81 -494q-4 -179 -12 -237q-11 -87 -45 -142q-27 -46 -125 -75q-47 -15 -80 -15q-15 0 -69 13q-65 8 -112 44.5t-71.5 91.5t-35.5 114t-11 126zM154 479q0 -111 14 -162 q14 -74 43 -124t90 -80q69 -31 126 16t71 119q6 23 6 82q0 16 -1 41t-1 41q-2 25 -2 71q3 116 -8 267v22q0 34 -2 54t-10.5 45t-28.5 42t-52 27v-2q-125 35 -194 -107q-15 -35 -25.5 -81.5t-14 -75t-9.5 -84.5q0 -17 -1 -54t-1 -57zM453 360q-3 192 34 383q11 57 30.5 107 t50 98t78.5 74t106 20q115 -10 174 -81q53 -68 69 -216q9 -49 9 -104q0 -65 -9 -135v-6h-45q-16 0 -47 2t-47 2q-110 4 -160 4q-36 0 -114 -4q-22 -5 -29.5 -54t-5 -92t7.5 -73q5 -71 43 -128.5t102 -64.5q28 -5 51 5t33 34q10 22 6.5 65.5t0.5 67.5q5 25 29.5 37t52.5 9 t47 -17q27 -19 31 -55.5t-4 -65.5q-1 -5 -1 -8q-14 -110 -65 -135q-83 -39 -162 -39q-88 0 -154 55q-65 50 -87.5 127t-24.5 188zM580 596q28 3 52 3.5t51 -0.5t36 -1q12 0 35 -1t34 -1q71 0 130 12q10 85 0 137l-7 19q-9 31 -14.5 48t-18 40t-28.5 41q-43 43 -88 43 q-30 0 -74 -18h2q-72 -26 -101 -132t-9 -190z" />
<glyph unicode="&#x178;" horiz-adv-x="851" d="M57 1507q5 10 52.5 13t91.5 2t67 2q6 0 7.5 -7.5t-1 -19t-5 -20.5t-5.5 -17q-18 -3 -45 4q30 -132 103.5 -333.5t101.5 -301.5q31 63 63 158t51.5 164t46.5 172.5l33 126.5q-10 -4 -19 -5t-23 0t-19 1q0 7 -1.5 34t-0.5 40h231q6 -8 10 -32t-5 -32q-3 -3 -8 -3.5 t-11.5 0.5t-7.5 1h-35q-197 -580 -228.5 -674.5t-31.5 -115.5q0 -28 2.5 -170.5t3.5 -242t-2 -188.5q2 0 8.5 1.5t11.5 1.5t9 -3q10 -3 12.5 -12t0 -25t-2.5 -18q-13 -8 -81 -9.5t-89 3.5l-6 12q-2 4 -6 13.5t-6 16t-2 13.5q11 4 53 9q-1 112 -1.5 205.5t-0.5 153t0.5 104.5 t1 69.5t1 38.5t1 20t0.5 7q-16 64 -125 380.5t-135 415.5q-35 4 -45 0q-3 3 -4.5 11.5t-4.5 11.5q0 2 -3.5 11.5t-2.5 12.5zM309 1586q4 20 18 37.5t31 23.5q35 9 64 -17q20 -25 6.5 -58.5t-37.5 -47.5q-35 -9 -55.5 -2t-25.5 25.5t-1 38.5zM498 1556q-22 39 13 69 q31 28 69 15q27 -9 41 -41q18 -43 -21 -63q-22 -15 -54 -10t-48 30z" />
<glyph unicode="&#x2c6;" horiz-adv-x="493" d="M55 1423l80 60q109 79 115 82q29 -23 60.5 -47.5t44 -34t27 -21t21.5 -16.5t15 -10.5t20 -12.5l-59 -67q5 4 -1.5 10.5t-47.5 38.5q-32 24 -80 53q-58 -32 -88 -50.5t-33.5 -23.5t-9.5 -11t-19 -15q3 4 -3 11.5t-17 19.5t-17 22z" />
<glyph unicode="&#x2dc;" horiz-adv-x="727" d="M57 1538q7 32 43 64q66 66 148 63q29 -3 51 -16q17 -7 31 -21l6 -6q58 -54 113 -74q69 -22 92 19q5 9 14 35q1 5 1 13t1 14.5t4 12.5q29 47 62 39q39 -9 49 -51q9 -87 -49 -139q-23 -16 -64 -41q-30 -12 -70 -12q-46 0 -98.5 21t-89.5 52q-51 39 -94 39q-7 0 -18 -2 t-15 -2q-6 0 -16 -16l-11 -35q-1 -2 -3 -7.5t-3.5 -8t-3.5 -6t-5 -5.5t-7 -4q-32 -17 -59 31q-11 27 -9 43z" />
<glyph unicode="&#x2000;" horiz-adv-x="953" />
<glyph unicode="&#x2001;" horiz-adv-x="1906" />
<glyph unicode="&#x2002;" horiz-adv-x="953" />
<glyph unicode="&#x2003;" horiz-adv-x="1906" />
<glyph unicode="&#x2004;" horiz-adv-x="635" />
<glyph unicode="&#x2005;" horiz-adv-x="476" />
<glyph unicode="&#x2006;" horiz-adv-x="317" />
<glyph unicode="&#x2007;" horiz-adv-x="317" />
<glyph unicode="&#x2008;" horiz-adv-x="238" />
<glyph unicode="&#x2009;" horiz-adv-x="381" />
<glyph unicode="&#x200a;" horiz-adv-x="105" />
<glyph unicode="&#x2010;" horiz-adv-x="647" d="M55 628q-2 58 15 64q2 1 4 0l49 -6q11 0 32.5 -1t34.5 -1h398q5 -2 2.5 -64.5t-4.5 -64.5q-10 2 -33.5 2t-54 -0.5t-76.5 2.5l-129 6q-25 0 -116 4t-103 4q-16 0 -19 55z" />
<glyph unicode="&#x2011;" horiz-adv-x="647" d="M55 628q-2 58 15 64q2 1 4 0l49 -6q11 0 32.5 -1t34.5 -1h398q5 -2 2.5 -64.5t-4.5 -64.5q-10 2 -33.5 2t-54 -0.5t-76.5 2.5l-129 6q-25 0 -116 4t-103 4q-16 0 -19 55z" />
<glyph unicode="&#x2012;" horiz-adv-x="647" d="M55 628q-2 58 15 64q2 1 4 0l49 -6q11 0 32.5 -1t34.5 -1h398q5 -2 2.5 -64.5t-4.5 -64.5q-10 2 -33.5 2t-54 -0.5t-76.5 2.5l-129 6q-25 0 -116 4t-103 4q-16 0 -19 55z" />
<glyph unicode="&#x2013;" horiz-adv-x="696" d="M55 651v60q0 11 8 14q2 2 11 2l121 -2h370l51 -6q1 0 17 -4q4 0 4 -10q4 -46 4 -64t-12 -18q-25 0 -39 2q-2 0 -67.5 2.5t-139.5 5t-96 2.5h-174h-25h-25q-8 0 -8 16z" />
<glyph unicode="&#x2014;" horiz-adv-x="1089" d="M57.5 696.5q-2.5 19.5 1.5 24.5q6 4 15.5 5.5t22.5 1.5t18 1q8 0 23.5 1t23.5 1l121 4q161 0 243 -2q41 0 86.5 -1t101.5 -2.5t87 -2.5h129q10 0 29.5 -1.5t35 -1.5t29.5 3q6 -8 7.5 -18t0 -26t-1.5 -21q0 -2 2 -16.5t0.5 -25t-8.5 -16.5q-103 0 -290.5 15.5t-264.5 17.5 q-95 2 -285 -2l-65 -4q-5 0 -16 -1.5t-20.5 -1.5t-16.5 3q-6 3 -8 9.5t0 17.5l1 12q1 7 -1.5 26.5z" />
<glyph unicode="&#x2018;" horiz-adv-x="284" d="M59 1391q2 3 9 23.5t20 31.5q17 39 47 27q4 -8 5 -14t-2 -10t-6 -7t-8.5 -7.5t-8.5 -7.5q-16 -19 -19 -61q13 5 19.5 20t11.5 19q16 10 41 6q32 0 48 -24t13 -54.5t-20 -50.5q-27 -33 -58.5 -34.5t-54 19.5t-34 55.5t-3.5 68.5z" />
<glyph unicode="&#x2019;" horiz-adv-x="268" d="M60.5 1435q-10.5 40 9.5 66q32 44 80 24.5t61 -69.5q9 -42 -10 -86q-9 -27 -21 -39q-3 -3 -8 -9t-8 -9t-8 -6t-10.5 -2.5t-12.5 4.5q-3 22 21.5 52t19.5 54q-36 -32 -68 -24q-35 4 -45.5 44z" />
<glyph unicode="&#x201a;" horiz-adv-x="284" d="M57 111q5 37 43.5 56t75.5 -1q44 -30 51 -84q4 -76 -43 -107q-45 -27 -59 -22q-13 21 -10 33q4 3 13.5 5.5t18.5 6.5q27 12 27 45q-27 -15 -54 -11t-46.5 27t-16.5 52z" />
<glyph unicode="&#x201c;" horiz-adv-x="468" d="M57 1388.5q8 48.5 35 75.5q16 16 33 30t20 17q7 4 20.5 -6t18.5 -22q-5 -4 -16 -14t-15 -13.5t-12 -11.5t-11.5 -13.5t-8.5 -14.5t-8 -19q23 20 63 2q39 -27 31 -80q-2 -12 -14 -31q-5 -2 -16.5 -8t-20.5 -9.5t-19 -4.5q-47 -3 -67.5 35.5t-12.5 87zM244 1360 q-4 74 41 104q40 30 57 21q20 -20 12 -31q-3 -2 -32 -12q-24 -12 -27 -45q26 14 54 9.5t48 -26.5t17 -49q-5 -39 -44.5 -58t-76.5 1q-47 33 -49 86z" />
<glyph unicode="&#x201d;" horiz-adv-x="421" d="M58 1473q7 31 26 53q23 23 56.5 15t45.5 -38q28 -66 7 -129q-6 -27 -19 -43q-10 -15 -35 -21q-27 -7 -24 18v3q0 10 15.5 25t12.5 33q-20 -12 -44.5 -6t-35.5 28q-12 31 -5 62zM226 1483q12 47 40 59q38 16 71 -23t28 -75q-4 -32 -7 -49t-12.5 -39t-23.5 -35 q-7 -7 -26.5 -20t-29.5 -13q-18 9 -18 29q2 11 29.5 32t25.5 40q-11 -1 -21.5 1.5t-17 5t-17.5 8t-16 7.5q-17 25 -5 72z" />
<glyph unicode="&#x201e;" horiz-adv-x="421" d="M58 85.5q7 29.5 26 51.5q23 23 56.5 16t45.5 -36q28 -69 7 -129q-13 -36 -19 -45q-10 -15 -35 -21q-27 -7 -24 18v3q0 10 15 25t13 32q-19 -9 -44 -3t-36 28q-12 31 -5 60.5zM227 96q12 48 39 60q38 16 71 -24t28 -77q-4 -32 -7 -48.5t-12.5 -38.5t-23.5 -34 q-8 -8 -27 -21t-29 -13q-18 9 -18 30q2 12 17.5 22t28 21t9.5 27q-28 -2 -72 25q-16 23 -4 71z" />
<glyph unicode="&#x2022;" horiz-adv-x="372" d="M59 709q-13 32 13 92q21 40 51 49q32 11 70 6.5t67 -22.5q20 -13 35.5 -34.5t19.5 -45.5q8 -63 -41 -92q-59 -29 -118 -23q-25 0 -37 5t-29 22q-2 2 -9.5 9t-9.5 9.5t-6 9.5t-6 15z" />
<glyph unicode="&#x2026;" horiz-adv-x="632" d="M60 43.5q-12 30.5 7.5 57.5t59.5 32q-2 -2 -8 -2h6q57 8 77 -37q16 -39 -8 -72q-27 -39 -83 -22q-39 13 -51 43.5zM260.5 67q4.5 20 18 37.5t30.5 24.5q29 14 64 -16q19 -23 6 -57.5t-37 -47.5q-35 -9 -55.5 -2.5t-25.5 24t-0.5 37.5zM449 39q-20 38 12 69q31 29 68 16 q28 -9 42 -42q18 -44 -20 -64q-23 -15 -54 -9.5t-48 30.5z" />
<glyph unicode="&#x202f;" horiz-adv-x="381" />
<glyph unicode="&#x2039;" horiz-adv-x="573" d="M63 776q184 257 259 377v-2l6 10q3 3 6 9.5t6 9.5q46 78 74 102l104 -39q-9 -16 -137 -203q-178 -255 -178 -297q0 -32 120.5 -235t170.5 -260q-7 -17 -52 -74q-10 -6 -25 1.5t-26 21.5q-81 92 -282 442l-13 20h2q-54 84 -35 117z" />
<glyph unicode="&#x203a;" horiz-adv-x="557" d="M55 1118q11 11 39 22t45 11q8 4 104 -139.5t182.5 -290t72.5 -150.5q-28 -46 -144.5 -233.5t-134.5 -218.5q-3 -3 -8 -18t-8 -19t-7.5 -13t-5.5 -10q-6 -3 -13.5 -3.5t-14 1t-15.5 6t-15 8t-16.5 10t-15.5 9.5q-6 6 -14 8q9 31 207 353q59 92 61 104l-2 -2q12 37 -83 209 t-163 246l-22 41q-21 34 -29 69z" />
<glyph unicode="&#x205f;" horiz-adv-x="476" />
<glyph unicode="&#x20ac;" horiz-adv-x="743" d="M80 1094q5 88 32.5 163t87.5 135t146 81q27 8 60 8q54 0 124 -23.5t103 -71.5q4 -7 13.5 -20.5t15.5 -24.5t10 -22q33 -91 -13 -125q-37 -26 -80.5 -23.5t-78.5 31.5q-23 18 -56.5 59t-44.5 52q-46 43 -106 2q-41 -35 -64 -80q-9 -19 -22 -88q-4 -46 -4 -70 q-6 -113 -10 -389q0 -58 -1.5 -172t-1.5 -172q0 -42 4.5 -73t17 -65t40.5 -56.5t70 -30.5q27 -11 73.5 0t53.5 45q2 16 -2 57.5t4 57.5q11 34 61 39t78 -15q37 -23 47 -39q4 -7 6 -14q3 -19 3.5 -23t-6 -22.5t-7.5 -22.5q-29 -71 -94 -113t-148 -53q-74 -6 -147 25t-115 90 q-109 100 -49 963zM171 659q-3 22 3 39q5 10 12 13.5t21 1.5l14 -2q10 -4 193.5 -3t185.5 -6q2 -14 2 -40q0 -2 0.5 -9t0 -10.5t-1 -8t-3 -7t-6.5 -2.5q-295 0 -410 12q-8 0 -11 22zM172.5 823.5q-0.5 18.5 2.5 37t9 18.5q48 2 183.5 -2t234.5 6q8 0 8 -38.5t-8 -45.5 q-32 0 -167.5 3t-258.5 3q-3 0 -3.5 18.5z" />
<glyph unicode="&#x2122;" horiz-adv-x="942" d="M56.5 1462q-2.5 9 2 23t4.5 16l259 6q4 -4 5 -12.5t0 -20.5l-1 -12v-55q0 -12 -4 -16h-25q-1 6 0 17t0.5 19.5t-4.5 14.5l-12 -6l-43 -6l12 -463q25 0 31 -2q14 -11 8 -43q-4 0 -27.5 -0.5t-43 -1t-42 1t-33.5 4.5q-4 4 -4 18.5t2 22.5q14 2 49 2v16q3 83 -1 179 t-9.5 165t-5.5 76v33q-39 8 -104 8q-11 7 -13.5 16zM387 1481q13 17 100 10l144 -283q23 23 71.5 118t67.5 149q10 6 45 6t45 -6q0 -4 6.5 -28t3.5 -32q-1 -5 -6.5 -6.5t-17.5 -2.5t-15 -1q9 -357 9 -436l28 -2q13 -13 17 -33t-11 -27q-9 -4 -73 -4q-56 0 -72 2q0 4 -2 25.5 t-2 25.5q-1 5 3.5 7t14.5 3t11 1h8q-8 52 3.5 181t4.5 144q-99 -194 -117 -262q-14 0 -16 2q-8 18 -33.5 79.5t-49 113t-48.5 94.5q-26 -246 4 -356q22 6 39 -11q4 -3 6.5 -20t5.5 -21q-9 -6 -73.5 -7.5t-81.5 7.5q-5 5 -8 22t1 23q30 4 45 2q-17 438 -16 451v21 q-25 0 -39 2q-8 41 -2 49z" />
<glyph unicode="&#x25fc;" horiz-adv-x="1095" d="M0 0v1096h1096v-1096h-1096z" />
<glyph unicode="&#xfb01;" horiz-adv-x="749" d="M45 967q-7 26 6 92h31q95 0 117 4q0 117 32 226t97 165q35 30 77.5 49.5t75.5 12.5q6 -1 24 -4.5t26 -5t23 -6t24.5 -8.5t22 -11t22.5 -15l14 -14q47 -58 4 -104q-42 -53 -113 -41q-17 3 -39.5 47.5t-31.5 50.5q-35 24 -101 -57q-22 -26 -35 -64.5t-16.5 -63.5t-7.5 -73 l-8 -84q27 3 72.5 0.5t68.5 3.5q38 -8 43 -14q6 -7 6 -39q0 -48 -6 -56q-30 1 -65 3.5t-53 4t-34.5 2t-23 -2t-6.5 -7.5q4 -299 15 -535.5t11 -344.5q3 0 13 0.5t15.5 0.5t11.5 -2t8 -7q6 -11 3.5 -30.5t-8.5 -33.5q-103 -19 -190 2q-8 3 -8 35q-12 19 0 31q10 8 63 8h2 q-4 148 -11 330t-11 293t-4 133q0 63 -4 129q-72 -12 -152 0zM453 -10q6 15 6 33q0 1 -1 8.5t-0.5 12t3.5 5.5q3 6 24 6l23 918q-25 -9 -47 -6q0 3 3 9t3 7q0 4 -1 12t-1 11q-15 35 2 47l31 6q11 3 34 6t33 6q27 2 78 2q14 2 43 2q0 -4 1 -15t1 -16q0 -1 4 -21t0 -24 q-5 -8 -24 -12q-5 0 -14.5 -1t-16.5 -1q-25 -447 -25 -676q0 -202 2 -241q37 0 50 -9q4 -4 5 -10.5t0.5 -15t0.5 -13.5l4 -11q3 -11 2 -19h-33h-61q-13 0 -39.5 -1.5t-48.5 -1.5t-41 3z" />
<glyph unicode="&#xfb02;" horiz-adv-x="638" />
</font>
</defs>
</svg>
