<?xml version="1.0" standalone="no"?>
<!DOCTYPE svg PUBLIC "-//W3C//DTD SVG 1.1//EN" "http://www.w3.org/Graphics/SVG/1.1/DTD/svg11.dtd" >
<svg xmlns="http://www.w3.org/2000/svg">
<metadata></metadata>
<defs>
<font id="lunchboxslabregular" horiz-adv-x="925" >
<font-face units-per-em="2048" ascent="1606" descent="-442" />
<missing-glyph horiz-adv-x="526" />
<glyph horiz-adv-x="0" />
<glyph horiz-adv-x="682" />
<glyph horiz-adv-x="0" />
<glyph horiz-adv-x="0" />
<glyph unicode="&#xd;" horiz-adv-x="729" />
<glyph unicode=" "  horiz-adv-x="526" />
<glyph unicode="&#x09;" horiz-adv-x="526" />
<glyph unicode="&#xa0;" horiz-adv-x="526" />
<glyph unicode="!" horiz-adv-x="380" d="M35 1342.5q0 42.5 13 69.5t40 30q18 2 50 7.5t49 7t39.5 -5.5t39.5 -26q9 -12 14.5 -29.5t7.5 -32.5t1 -37.5t-2 -35t-4 -35.5t-4 -28q-13 -134 -27 -434l-23 -326q-3 -42 -3 -113.5t-3 -103.5l-2 -10q-37 -7 -117 -2q-11 0 -20.5 108t-9.5 162q-4 52 -3.5 162t-2.5 192 l-15 244q0 19 -5.5 65t-9 87.5t-3.5 84zM59 49q6 39 32 75t63 32q9 0 22 -2.5t37 -11t39.5 -31t15.5 -56.5q-1 -30 -26.5 -51t-59.5 -29q-31 -6 -60.5 -4.5t-48.5 22t-14 56.5z" />
<glyph unicode="&#x22;" horiz-adv-x="460" d="M35 1632q0 19 14 19q43 10 82 -2q10 -3 19 -15q18 -38 12 -78q-4 -48 -10 -77q0 -9 2 -11q8 -11 -2 -28h-54l-39 8q-1 10 -6.5 30.5t-5.5 32.5q-2 16 -2 54q-1 1 -1 3t-1 3q-5 10 -6 19.5t-1 22t-1 19.5zM209 1452q-3 24 2 37q1 2 2 5l1.5 4.5t0.5 2.5q0 9 -1 27.5 t-1 27.5q0 3 -1.5 12t-2 14t0 12.5t3.5 13.5q3 8 0 28q0 16 12 19h43h33h8q23 -2 28 -8t1 -29q-11 -45 -4 -72v-14q-2 -7 1 -27.5t-5 -27.5l2 -4q9 -22 -13 -25q-54 -10 -92 2q-4 2 -18 2z" />
<glyph unicode="#" horiz-adv-x="1351" d="M102.5 1088.5q-2.5 34.5 1.5 46.5q0 -6 1 -6l3 10q0 2 -2 0q10 8 34 9t30 3l55 4q82 4 121 4q4 66 4 96q4 144 4 215q0 14 0.5 40t0.5 42t-1 38.5t-4 41.5q12 6 27.5 9t27.5 3t32.5 -1t29.5 -1q5 0 31 3.5t43.5 1t25.5 -14.5q0 -204 -24 -471q39 -2 108 -2q56 0 158 -4 l-8 219q-3 58 0 117q0 5 -2 28.5t-2.5 40.5t4.5 34t16 20q27 12 105 12q5 0 19.5 0.5t21.5 0.5t18.5 -2t17.5 -6t10.5 -12t4.5 -20q0 -34 -6 -98t-7 -92v-199q0 -35 -2 -51l125 -4q10 0 28 -0.5t29 -0.5t26.5 1t29.5 4q6 -15 7.5 -34t0.5 -45t0 -38q0 -4 2 -31t0 -44 t-10 -25q-114 0 -248 16q-4 -102 -4 -151q0 -17 1 -51t1 -52l70 6q55 0 82 -2l25 4q25 3 41 -0.5t20 -17.5q8 -33 8 -107v-17v-18.5t-0.5 -17t-2 -16t-4.5 -11.5t-8 -9t-12 -3q-24 1 -67 6.5t-64 6.5q0 2 -40 1l-40 -1q0 -76 -2 -115q-6 -55 -2 -164q0 -10 2 -41t2 -47.5 t-1.5 -41.5t-6.5 -44q2 9 0 10t-7 -6q-11 -18 -3 -18q1 -1 2 0q-43 -25 -154 -25q-10 8 -16.5 18t-9.5 25.5t-5 26t-1 31t1.5 27.5t3.5 30t3 24q10 104 14 318q-73 8 -160 8q-4 0 -145 -6q0 -5 6 -293q4 -78 4 -113q0 -2 3 -28.5t2.5 -32t-3.5 -27.5q-2 -5 -7 -8.5t-10.5 -5 t-14 -1t-13.5 1t-13 2t-9 1.5q-9 0 -45 -4t-45 0q4 -1 4 1q0 5 -9 8q-3 0 -4 -1q-8 14 -8 47t-2 43l-4 78q-4 136 -4 203q0 86 -2 129q-40 3 -80 0q-7 0 -37 -3t-48 -2t-36 7q6 -2 7 1q1 5 -12 13q-6 3 -6 0q-1 -2 1 -6q-5 12 -8.5 26.5t-5.5 34t-2.5 30.5t-1.5 35.5 t-1 29.5q11 21 38 27.5t42.5 5t46.5 -6.5q18 -3 53 -6t52 -6v102q0 65 4 197q-62 -4 -90 -4q-54 -4 -78 -4q-3 0 -13.5 -2t-17.5 -3t-15.5 -0.5t-14.5 3.5q-4 2 -6.5 8.5t-3 15t-0.5 16t0.5 16.5t0.5 11q1 12 -1.5 46.5zM356 6l2 -2q-2 0 -2 2zM510 680h45q153 -3 262 4 q2 94 -2 283q-51 6 -233 20q-36 0 -54 2q-16 -200 -18 -301v-8zM985 33l2 2zM987 39v4v-4z" />
<glyph unicode="$" horiz-adv-x="921" d="M35 279q2 56 35 96.5t88 44.5q77 4 104 -47.5t-18 -108.5q-31 -43 -17.5 -76.5t49.5 -53.5t80 -23q10 63 11.5 135.5t-2 168.5t-3.5 136q-31 35 -92 96q-87 83 -153 208.5t-70 236.5q-2 76 27.5 142t73 105.5t88 66.5t75.5 37t31 5l-2 115l66 4q12 1 30 1.5t27 1t10 1.5 q8 -11 12 -70q2 -18 2 -57l23 -6q7 -3 21.5 -5.5t21.5 -5.5q49 -12 112 -64t99 -112q61 -96 12 -164q-30 -38 -99 -53q-77 -16 -104 21q-16 21 -6 59q16 78 12 101q-7 50 -79 57q-3 -41 -1 -123t-1 -123l-3.5 -80.5t-2.5 -81t2 -80.5v-51v-26q33 -38 83.5 -92.5t75 -85.5 t43.5 -70q33 -66 49.5 -113t17.5 -107t-26 -114q-48 -91 -129 -131q-8 -4 -18 -8t-22 -7.5t-17 -5.5q-20 -4 -29 -4q-2 -10 -2 -30v-56q2 -50 -17.5 -76t-66.5 -26q-56 0 -73 11.5t-11 62.5q6 54 6 59v31q-9 -3 -18 0q-22 0 -41 8q-97 24 -178 115q-94 108 -86 211z M203.5 1057.5q6.5 -42.5 29.5 -92.5q3 -7 30 -48t57.5 -79t37.5 -31q-4 65 -1.5 229t-6.5 224q-8 -1 -19.5 -4.5t-32.5 -13.5t-39 -23.5t-33.5 -37t-22 -52.5t0 -71.5zM496 100l39 17q41 18 55 37q31 33 33.5 78t-15.5 85t-40 74t-41 54t-19 16q0 -87 -12 -361z" />
<glyph unicode="%" horiz-adv-x="1767" d="M109 1128q-14 117 12 225.5t89.5 182t151.5 78.5q18 2 54 2q124 8 221 -130q91 -129 113 -312q24 -198 -50 -324q-90 -154 -292 -124q-18 3 -37 7q-52 11 -94.5 41t-71 68.5t-49 88.5t-31.5 98t-16 99zM260 1130q0 -3 1 -10t1 -10v12q3 -30 10 -61t21 -66.5t40 -61 t60 -32.5q45 -9 81 3.5t58.5 40.5t36.5 66t18.5 77.5t0.5 76.5q-25 258 -172 269q-39 3 -68.5 -17t-45.5 -51t-26 -75t-13 -80t-3 -74q0 -3 1 -7.5t1 -7.5q0 4 -1 6q-1 1 -1 2zM514 -12q-3 39 7 73t31.5 76.5t29.5 65.5q5 16 128 361t232 659t113 350q1 26 4.5 44t16.5 35.5 t36 20.5q144 14 176 -18q1 -2 -126.5 -397t-261.5 -811t-144 -451q-14 -41 -124 -39q-83 1 -113 20q-9 6 -5 11zM1055 664q32 195 154 256q110 54 278 -19q44 -24 76.5 -58.5t52 -69t30.5 -83.5t15.5 -86.5t2.5 -94.5t-5.5 -91t-9.5 -92q-10 -84 -53 -151.5t-104 -103.5 t-138.5 -33.5t-151.5 52.5q-79 55 -125 219q-50 182 -22 355zM1205.5 456q-0.5 -39 8.5 -81.5t23 -78.5t43 -62t68 -33q83 -15 122 121q8 31 20 114q1 -6 1 -10q0 3 1 9t1 9q3 19 4 53t-4 84t-18.5 92t-45 72.5t-77.5 30.5q-128 0 -146 -248q0 -33 -0.5 -72zM1491 437 q-3 5 2 42v-35z" />
<glyph unicode="&#x26;" horiz-adv-x="1157" d="M68 236q-75 245 194 628q-11 27 -29.5 63t-32 62t-29.5 62t-22.5 63.5t-10 67.5t6.5 73q17 97 109 162t190 53q84 -12 131.5 -64.5t54 -125.5t-10 -152t-56 -149.5t-88.5 -112.5q45 -86 146 -262l98 -174q27 73 0 346h-51l1 2q1 3 5 4l-10 6q-1 2 -5.5 12t-6 13.5l-6 14 t-5.5 14.5t-4.5 15t-3 14.5t-1.5 14t1 13.5q16 6 37 7.5t51.5 0t36.5 -1.5q29 0 93 7t97 6q1 -14 3 -38t3 -44t0 -37l-75 -6q15 -54 20.5 -152.5t-6.5 -219t-45 -196.5q9 -13 29.5 -53t35.5 -59q14 -15 31 -23.5t45 -16t37 -10.5q59 -23 92 -70.5t10 -103.5 q-12 -32 -36.5 -49t-53.5 -18t-58.5 8.5t-55.5 26.5q-57 36 -111 100.5t-74 122.5q-25 -10 -65 -36t-51 -32q-75 -43 -158 -43q-148 0 -249.5 72t-147.5 195zM238 262q20 -75 92 -114t149 -21q41 10 84.5 40t69.5 64q-49 106 -111 226q-119 232 -149 250 q-15 -20 -51.5 -98.5t-67.5 -185.5t-16 -161zM303 1210.5q-9 -57.5 15 -113.5t71 -85q9 3 39 44.5t53 100.5t8 96q-9 20 -31 37.5t-50 23t-54 -13.5q-42 -32 -51 -89.5z" />
<glyph unicode="'" horiz-adv-x="34" d="M-86 1624q3 11 8 17.5t9.5 9t13.5 6.5q12 -4 58.5 0.5t66.5 -6.5v-84q0 -31 18 -148q4 -16 -59 -25.5t-78 -0.5q-1 0 1 3q0 1 -1 0q0 -1 -2 -3q-9 9 -20 115t-15 116z" />
<glyph unicode="(" horiz-adv-x="620" d="M106 991q10 263 105 590q6 21 19 92t28 107q10 21 59 22t92.5 -6t43.5 -4q4 4 -4.5 -38t-22.5 -98.5t-25 -92.5q-43 -134 -63 -271q-60 -370 -23 -612q18 -131 27 -191.5t33.5 -162t58.5 -181.5q5 -14 32.5 -57.5t43 -81.5t2.5 -59q-7 -10 -21.5 -16t-35 -8t-36.5 -2.5 t-38.5 0.5t-26.5 1q-19 0 -36 15.5t-30 43t-22 51t-18.5 53.5t-11.5 36q-50 114 -89 268q-52 237 -41 602z" />
<glyph unicode=")" horiz-adv-x="608" d="M104 1788q61 20 199 16q16 -51 56 -138.5t49 -109.5q34 -82 63 -264q50 -332 25 -622q-15 -164 -44 -299t-85 -265q-5 -10 -17 -42.5t-21 -51.5t-28 -38t-43 -21q-59 -4 -102 4q-17 1 -24.5 22t-2.5 37q39 128 107 365q20 73 34.5 168.5t19 144.5t15.5 172q4 57 -2 125.5 t-14 116.5t-23.5 129.5t-21.5 118.5q-18 115 -62 231q-6 15 -30 58.5t-37.5 79t-10.5 63.5z" />
<glyph unicode="*" horiz-adv-x="768" d="M106 1536q-12 26 13 45l71 45l15 14q-12 7 -27 11l-41 18q-21 12 -18 35q10 62 33 113q9 18 30 12l45 -14l25 -7h2q2 0 4 2q10 38 10 62q-4 27 6 41q3 0 7.5 2t7.5 2l121 12q6 2 20 2q24 -3 27 -26q0 -23 -2 -29q-6 -24 10 -70q10 -6 22 6l54 39q22 19 43 -2 q41 -41 73 -84q15 -21 0 -43q-11 -16 -34 -32l-33 -25q-9 -4 -17 -18q23 -23 50 -29q12 -3 24 -12q23 -16 10 -39q-4 -8 -11.5 -28t-14.5 -33t-17 -25q-11 -14 -19 -17t-26 4q-16 6 -61 33l-31 15q-8 -5 -8 -17q-4 -54 -4 -78q0 -34 -31 -37q-43 -7 -108 -10q-23 0 -23 23 q-2 25 -2 71q-10 0 -12 -2q-6 -5 -23.5 -19t-25.5 -22q-15 -15 -25 -17t-15 3t-16 21l-65 88z" />
<glyph unicode="+" horiz-adv-x="884" d="M104 793q0 9 3.5 16t10.5 12t14 9t19 6t20 3.5t21.5 2t19.5 0.5h18h14q32 0 78 4q10 2 30 2q-8 82 -10 110q-11 109 14 129q56 35 107 19q25 -10 39 -25l6 -90q4 -98 2 -123q0 -8 22.5 -12.5t58.5 -5t69.5 0t67 2t40.5 1.5q6 -16 10 -57.5t0 -81.5t-20 -43 q-89 -17 -236 -13q6 -35 6 -101t2 -93q2 -23 0 -37t-11 -20t-15.5 -7.5t-25.5 -2t-29 -1.5q-5 -1 -20 -3.5t-20.5 -3t-16.5 0.5t-15 5.5t-8 14.5t-4 25q0 41 -2.5 124.5t-2.5 98.5q-40 -4 -127.5 -3t-121.5 -3q-10 75 -7 140z" />
<glyph unicode="," horiz-adv-x="397" d="M104 123q5 41 49.5 63t84.5 -2q48 -38 55 -94q4 -84 -47 -117q-48 -29 -66 -24q-15 24 -12 35q4 3 37 14q28 12 31 49q-31 -16 -61.5 -10.5t-52 30.5t-18.5 56z" />
<glyph unicode="-" horiz-adv-x="884" d="M102 649v125q0 25 9 31q2 2 12 2l141 -4h430q32 -3 60 -10q6 0 18 -9q6 -3 6 -22q4 -94 4 -133t-14 -39q-31 0 -45 2q-5 0 -78.5 3.5t-160 9t-111.5 9.5q-18 0 -103.5 1t-101.5 1q-22 0 -27 -4q-7 -2 -10 -2t-10 2.5t-10 3.5q-9 0 -9 33z" />
<glyph unicode="." horiz-adv-x="372" d="M102 120.5q2 29.5 22 54t54 28.5q-2 -2 -8 -2h6q61 7 85 -47q20 -48 -3 -94q-26 -52 -83 -38q-5 2 -9 3q-33 10 -49.5 38t-14.5 57.5z" />
<glyph unicode="/" horiz-adv-x="989" d="M104 -12q0 33 148 449t300.5 820t164.5 410q27 12 69 8q18 -2 30 -4t27 -5.5t23.5 -10t14.5 -15.5t5 -23t-9 -32q1 -2 -3.5 -12.5t-1.5 -13.5q-9 -46 -295.5 -807t-302.5 -768q-110 0 -153 -13q0 3 -3 5.5t-7.5 6t-6.5 5.5z" />
<glyph unicode="0" horiz-adv-x="954" d="M34 1026q1 86 11 166q1 10 3 19.5t3.5 16.5t5.5 17t5 14.5t7 15t7 13.5t8.5 15t8.5 13.5t10 15.5t10 16q28 46 80 64t124 24q47 8 112 7t108 -26q9 -5 30.5 -16.5t37.5 -21t28 -19.5q106 -89 131 -291q12 -68 16 -252l19 -262q8 -94 -4 -283q-6 -69 -25 -114.5t-65 -91.5 q-34 -38 -102 -63t-130 -30q-74 -12 -152 7t-141 70.5t-84 125.5q-8 34 -12.5 72t-8.5 85t-7 75q-1 11 -12.5 105t-12.5 146q-1 46 -5.5 163.5t-3.5 203.5zM209 938q-1 -58 1.5 -119t7.5 -141t7 -119q1 -28 3 -93.5t4 -105.5t8 -83.5t16 -61.5q7 -5 26 -20.5t26 -20t23 -11 t34 -9.5q98 -27 157 -2q57 23 76.5 71.5t19.5 122.5q0 203 -10 307q-8 62 -9 175t-5 163q-1 32 -10 91t-11 75q-7 39 -38 70l-29 20q-126 3 -238 -33q-59 -59 -59 -276z" />
<glyph unicode="1" horiz-adv-x="497" d="M34 1238q-1 9 7 17q12 12 74 104t67 95q17 8 91 7.5t81 -13.5q2 -117 7.5 -312t10 -337.5t4 -335.5t-8.5 -361q17 3 32 0q0 -12 15.5 -49.5t13.5 -42.5q-8 -10 -68 -14q-5 -5 -30.5 -6.5t-55.5 2.5q-50 -4 -75 -4q-56 -7 -64 6q-4 4 -5 14.5t-0.5 23t-0.5 17.5t-4.5 18 t-3.5 21q33 6 98 6q-5 179 0.5 646.5t5.5 496.5l-9 -12q-49 -73 -66 -64q-114 47 -116 77z" />
<glyph unicode="2" horiz-adv-x="858" d="M53 1222.5q41 109.5 107 166.5q83 70 186.5 80.5t190.5 -44.5q202 -116 145 -395q-21 -119 -107 -254q-51 -85 -136.5 -207t-136.5 -212t-83 -197q8 14 326 14v12q0 4 -4.5 21.5t-3.5 23.5q3 8 13 13t24.5 6t27.5 0.5t27.5 -1.5t17.5 -1q5 0 15 1t14 1.5t11 -1t10.5 -5 t8 -10t7.5 -17.5q27 -98 27 -140q-2 -55 -35 -79q-456 -14 -637 10q-8 0 -9 65t15 162.5t51 165.5q45 101 160 236q116 141 176 244q81 141 96 219q13 64 -12.5 134t-81.5 93q-48 16 -98.5 -2t-79 -62t-15.5 -96q0 -2 3 -16.5t3.5 -18t2.5 -17t1.5 -18t0 -16.5t-1 -17.5 t-4 -15.5t-6.5 -16t-10 -13t-13 -13q-39 -30 -102.5 -15.5t-88.5 56.5q-43 66 -2 175.5z" />
<glyph unicode="3" horiz-adv-x="917" d="M35 326q-8 58 33 131t98 80q54 5 105 -31.5t51 -89.5q0 -14 -3 -23.5t-13 -17t-14.5 -11t-21 -10t-20.5 -8.5q-29 -14 -34 -44.5t8.5 -61t38 -56.5t48.5 -32q55 -14 100.5 3t75 57t51.5 90t33.5 107.5t17 105t5.5 87.5q-5 114 -76 203.5t-178 101.5q-20 2 -96.5 6 t-118.5 13q-7 17 48.5 104t122.5 183.5t77 117.5q-7 -3 -27 -2.5t-51.5 2.5t-32.5 2q-7 0 -21 1t-20 0.5t-13 -5.5t-11 -16q-4 -12 -1.5 -21t-0.5 -17.5t-17 -14.5q-11 -5 -36 0.5t-29 5.5q-5 0 -17 -0.5t-15 0t-10 2t-9.5 5t-5.5 9.5t-5 16q-15 79 -8 129q3 20 11 29 t17.5 11t34.5 3l422 13q50 0 68 -10q8 -5 14 -11q30 -20 -4 -76q-25 -39 -65.5 -110t-76 -128t-71.5 -104q8 5 21.5 3t37.5 -12t43 -20t37.5 -19.5t20.5 -10.5q8 -3 20.5 -11.5t16.5 -10.5q87 -63 135 -160q33 -73 35.5 -228.5t-23.5 -226.5q-37 -110 -96 -196 q-58 -81 -154 -127q-93 -43 -194 -19q-37 7 -119 74q-59 44 -92 100q-36 59 -47 146z" />
<glyph unicode="4" horiz-adv-x="960" d="M37 545q4 12 14 22q14 15 23 44.5t16 41.5q14 22 27.5 50t21.5 48t21.5 54.5t19.5 48.5q16 36 48 104.5t48 104.5q13 31 45 96t46 103q14 36 43 103t43 103q24 56 51 64q6 5 47 4.5t47 -0.5q8 -67 9 -140.5t-1.5 -163.5t-1.5 -140q0 -21 4 -105.5t0 -105.5 q-12 -152 -12 -226q35 -5 73 0t85.5 3.5t74.5 -15.5q1 -4 3.5 -22t3.5 -25.5t1.5 -23t-1.5 -24t-6.5 -18.5t-12.5 -16q-129 4 -225 -4q-7 -38 -10.5 -75.5t-3.5 -86.5t0.5 -73t3.5 -91.5t4 -85.5l53 -8q0 -7 2 -27.5t2.5 -33t-5.5 -25t-20 -14.5q-6 -4 -35.5 0t-35.5 4h-84 q-9 1 -38.5 5t-47.5 3q0 7 -3.5 28.5t-2.5 37t10 22.5q8 4 34.5 5t28.5 1q5 0 7 2q-6 26 -7 58.5t1 73t1 63.5q-3 21 0.5 56.5t2.5 51.5q0 12 -0.5 33t-0.5 38t1 32q-48 10 -112.5 10.5t-113.5 -2.5q-13 0 -42 3.5t-46 2.5q-4 0 -21.5 -2.5t-29 -3.5t-24.5 0.5t-19 7.5 q-8 13 -4 25zM246 670q71 -17 207 -13q6 89 10 271q0 10 1 115.5t1 115.5q-42 -80 -111 -246.5t-108 -242.5z" />
<glyph unicode="5" horiz-adv-x="864" d="M35.5 328q-9.5 64 15.5 116q22 46 90.5 65.5t128 -4t56.5 -85.5q-2 -18 -17.5 -46.5t-31.5 -54.5t-27 -52.5t-2.5 -48t41.5 -32.5q-3 0 -19 4q34 -26 56 -32q49 -14 102 10q69 31 105.5 137t36.5 223t-31.5 223.5t-85.5 139.5q-31 22 -74.5 20.5t-77 -13t-77 -21.5 t-74.5 -5q-7 0 -12.5 4t-8 8.5t-3.5 13t-1.5 13.5t0 15t0.5 12q0 16 -3 205t-3 207q-4 6 -4 12t2 10.5t7 9.5t9 8t11 8t10 7q91 -8 261 10t189 19q12 1 21 -1t14.5 -11t8.5 -14.5t4 -21t1 -20.5v-23q0 -3 1 -8t1 -8q2 -7 9 -29t6.5 -26.5t-0.5 -28.5q-2 -12 -3.5 -17.5 t-7 -9t-8 -3.5t-16.5 -1q-60 -3 -119 0q0 40 -8 64q-144 -16 -221 -16q-12 -1 -17.5 -4t-7 -5.5t-2.5 -12.5t-2 -17q-8 -71 2 -160q22 5 58.5 14t54.5 12.5t46 5t54.5 -6t58.5 -23.5q54 -25 93.5 -78t58 -116t30 -134.5t9 -134t-5.5 -115.5q-14 -143 -68.5 -266t-154.5 -180 q-83 -50 -162 -39q-52 4 -106 35t-91 74q-36 41 -63 98t-36.5 121z" />
<glyph unicode="6" horiz-adv-x="858" d="M35 921.5q0 53.5 5.5 127.5t18.5 133q19 100 79.5 170.5t154.5 74.5q148 4 237 -71q44 -39 72.5 -105.5t24.5 -122.5q-7 -49 -53.5 -73.5t-100.5 -24.5q-53 0 -89 37.5t-24 89.5q2 8 14 24.5t21.5 29.5t13 28.5t-11.5 22.5q-15 9 -75 2q-53 -3 -78 -35 q-40 -45 -52.5 -139.5t7.5 -153.5q17 5 37.5 15t35.5 16.5t35 11.5t45.5 5t57.5 -7q53 -10 99 -48t77 -91q7 -11 12 -22.5t9 -25t7 -23.5t4.5 -26.5t2.5 -24.5t1.5 -27.5t0.5 -25v-27.5v-26q4 -158 -9 -268q-23 -287 -184 -336q-96 -30 -196.5 32t-149.5 157 q-23 48 -34.5 114t-13 106t0.5 129t2 109q0 40 -2 127.5t-2 141zM195 571q3 -32 2.5 -136t9.5 -136q16 -101 82 -142.5t127.5 11.5t66.5 188q1 18 3.5 57t4 66.5t1.5 68.5t-2.5 70t-10.5 62.5t-21 55.5t-34.5 39.5t-50.5 23.5q-58 11 -98 -15t-56 -70.5t-21.5 -82.5 t-2.5 -60z" />
<glyph unicode="7" horiz-adv-x="946" d="M34.5 1428.5q-1.5 9.5 3.5 18.5t19 13q16 4 34.5 5.5t34 0.5t36.5 0q59 8 141 4q29 0 84 -1.5t100.5 -1.5t85.5 3q54 3 107 0q5 0 25 1.5t33.5 0t23.5 -7.5q14 -8 20.5 -36t8.5 -31q6 -18 -2 -34t-16 -21.5t-28 -18.5q-34 -25 -83 -84.5t-74 -81.5q-11 -22 -38.5 -63 t-39.5 -66q-31 -69 -55 -149q-9 -28 -16 -55.5t-13.5 -65t-9 -53t-9.5 -65.5t-8 -56q-26 -192 -28 -303q-4 -100 -2 -150q0 -13 6 -45t7 -49.5t-9 -42.5q-11 -7 -37 -8.5t-37 -8.5q-27 -16 -74 -4q-10 10 -16 30t-4 34q3 23 -2 33q-5 2 -4.5 18.5t0.5 20.5q-5 7 -1.5 44 t3.5 44q0 24 -8 32q5 6 6.5 13t2.5 17.5t1 12.5q16 244 39 369l12 92q2 10 5 42t9 50q15 34 34.5 98t29.5 89q13 41 37 75q3 5 17 40.5t28 50.5q1 1 41 73q6 11 25.5 33t25.5 39h-217q-51 0 -78 2q6 -22 0 -37q-15 -22 -102 -22q-38 -5 -47 2.5t-13 48.5q-4 32 -4 53 q0 4 -1 7l-1 3q-1 8 -4 23.5t-4.5 25z" />
<glyph unicode="8" horiz-adv-x="935" d="M36 379.5q0 25.5 0.5 73.5t0.5 61q20 360 127 414q-20 17 -40 45.5t-39.5 74.5t-19 95.5t22.5 109.5q52 98 119 146q27 19 87.5 28.5t96.5 4.5q82 -8 155 -53t93 -115q27 -79 15 -179t-64 -163q55 -44 94 -111q113 -202 43 -498q-30 -117 -53 -164.5t-92 -119.5 q-62 -48 -163.5 -57t-195.5 25.5t-133 102.5q-16 27 -27 63t-16.5 67t-8 77.5t-2.5 72zM201.5 530q0.5 -73 4 -119.5t11.5 -119.5q16 -135 107 -152q198 -33 239 226q22 136 -2 260q-13 73 -72 128t-129 44q-72 -12 -96 -45q-31 -37 -47 -93t-15.5 -129zM246 1196 q-29 -111 20 -160q10 -10 23 -16q49 -25 108 -13t90 58q29 39 18.5 99.5t-54.5 86.5q-33 17 -74.5 18.5t-79 -17t-51.5 -56.5z" />
<glyph unicode="9" horiz-adv-x="839" d="M43 842q-26 230 16 385q15 72 77 133.5t134 73.5q204 44 305 -62q58 -60 85.5 -215t25.5 -337.5t-15.5 -346t-33.5 -276.5q-12 -66 -54.5 -119.5t-100.5 -81t-126.5 -31t-132.5 30.5q-78 51 -108 108q-17 27 -24 39.5t-21.5 42.5t-18.5 49.5t-2.5 44.5t14.5 44 q29 41 84.5 62t102.5 9q38 -10 66.5 -47.5t9.5 -71.5q-7 -12 -26 -28t-32 -27t-20.5 -30t8.5 -37q22 -29 78 -31t84 20q51 35 74.5 177.5t3.5 201.5q-18 -4 -46 -13.5t-45.5 -15t-46.5 -9.5t-49 3q-171 37 -231 172q-24 61 -35 183zM193 971q0 -80 20.5 -152t54.5 -110 q26 -29 65.5 -40t76.5 1q39 13 59 45q41 56 41 303q0 41 -1.5 71t-9.5 69.5t-22 65.5t-41 45.5t-65 22.5q-61 0 -104 -47.5t-58.5 -120.5t-15.5 -153z" />
<glyph unicode=":" horiz-adv-x="389" d="M106 735q21 53 78 66q1 0 2 -1t2 -1q-2 0 -2 2h2q19 4 39.5 -9t28.5 -32q11 -23 6 -50t-24 -44q-7 -8 -21 -18t-24 -11q-40 -2 -68.5 28t-18.5 70zM123.5 51.5q-9.5 40.5 9.5 69.5q18 30 52 37t59 -17q15 -15 26.5 -42t10.5 -52l4 4v-2q0 -4 -3.5 -13t-5.5 -11 q-13 -28 -50.5 -37t-63.5 6q-29 17 -38.5 57.5zM182 801h6h-6z" />
<glyph unicode=";" horiz-adv-x="380" d="M106 698q-4 17 4.5 43.5t22.5 38.5q17 10 41 13t41 -2q30 -10 43 -39.5t2 -59.5q-9 -33 -41 -49q-40 -20 -67 -8q-12 4 -25.5 20.5t-13.5 22.5q-3 6 -7 20zM108 57q-11 42 11 74q21 34 55.5 34.5t63 -24.5t36.5 -59q9 -47 -10 -98q-13 -30 -22 -41q-6 -8 -9 -11.5 t-9.5 -9.5t-11 -7.5t-11 -1.5t-13.5 5q-3 24 25 56.5t23 62.5q-2 -1 -11 -9t-12 -9.5t-14.5 -8t-17.5 -5t-21 0.5q-41 9 -52 51z" />
<glyph unicode="&#x3c;" horiz-adv-x="768" d="M104 883.5q2 18.5 13 34.5q140 192 276 401q6 9 22 36t25 41t25 34t33 34q19 17 41.5 16.5t39.5 -10.5t43 -28t42 -25q4 -15 -169 -269.5t-173 -281.5q0 -34 139.5 -261t177.5 -265q-5 -12 -32 -51.5t-40 -52.5q-18 -16 -36 -15t-30.5 10t-31.5 29q-49 55 -160.5 235 t-142.5 242q-4 7 -18.5 31t-22 39t-15.5 36.5t-6 40z" />
<glyph unicode="=" horiz-adv-x="1357" d="M104.5 514q-6.5 59 6.5 102q3 8 8 13.5t12.5 9t13 6t16 3t15.5 1t17.5 -1t15.5 -2t16 -2.5l13 -2q58 -4 275.5 -0.5t463.5 1t250 -16.5q8 -31 8 -105v-17v-18.5t-0.5 -17t-2 -16t-4.5 -11.5t-8 -9t-12 -3q-819 0 -1077 27q-20 0 -26.5 59zM107 935q-1 48 9 96t25 48 q133 6 302.5 -1t362.5 -7t429 21q22 -2 18.5 -102.5t-18.5 -115.5q-83 0 -438.5 6.5t-677.5 6.5q-11 0 -12 48z" />
<glyph unicode="&#x3e;" horiz-adv-x="745" d="M102 1403q4 18 51.5 42.5t73.5 24.5q20 0 199 -276.5t213 -335.5q5 -9 2 -23.5t-2 -23.5q-50 -71 -170 -270t-135 -230q-3 -5 -10.5 -21.5t-15 -29t-15.5 -16.5q-18 -6 -30.5 -7t-33 7.5t-32.5 16t-30.5 19t-25.5 15.5q-8 15 60 136.5t144 245t79 132.5q11 36 -90 212 t-170 249q-7 15 -23 41.5t-25.5 47.5t-13.5 44z" />
<glyph unicode="?" horiz-adv-x="851" d="M35 1104.5q7 49.5 22 90.5t33 73q79 140 222.5 161t271.5 -94q49 -44 79 -108t35 -131q3 -90 -9.5 -166.5t-36 -131t-53.5 -99.5t-63.5 -79.5t-62.5 -62t-54 -55.5t-36 -53q-10 -36 -7.5 -86t9.5 -87q1 -17 -4 -29t-11.5 -18t-22 -8.5t-25 -2.5t-30 0.5t-28.5 0.5 q-35 0 -54 25t-21 62.5t3 73t15 64.5q53 159 217 312q32 32 47 48.5t34.5 47.5t26.5 63q22 100 -20 207q-13 32 -18.5 44t-20 36t-30.5 36t-37 17q-77 22 -158 -45q-16 -15 -17.5 -30.5t3.5 -26.5t20 -33q28 -40 22.5 -72.5t-51.5 -60.5q-41 -26 -99 -17t-81 56 q-17 29 -10 78.5zM234.5 41.5q-2.5 20.5 12 42.5t46.5 39q51 14 77.5 -21t16.5 -73q-5 -24 -32.5 -39t-57.5 -21q-12 -2 -26.5 7.5t-24 27t-12 38z" />
<glyph unicode="@" horiz-adv-x="1304" d="M36 319q-1 73 8 155.5t23.5 153t34.5 144.5q30 113 108 216.5t179 156.5q98 54 227 57t228 -45q104 -51 181.5 -158t102.5 -225q28 -125 27.5 -256.5t-25.5 -261.5q-6 -49 -27.5 -101t-57.5 -99.5t-84.5 -66t-108.5 0.5q-14 4 -42.5 23.5t-51.5 37t-25 17.5 q-109 -82 -233 2q-88 60 -127.5 199.5t-31.5 282t48 245.5q26 67 89.5 115t129.5 44q37 -4 70.5 -25.5t36.5 -21.5q7 12 12.5 25.5t8.5 17t14 6.5t36 3q37 0 56.5 -13.5t23.5 -48.5v-29.5t-0.5 -65.5t-0.5 -90v-105t1 -108.5t2.5 -103t3.5 -85.5t5.5 -59t7.5 -20 q-11 -19 5 -45t39 -28t42 33q23 54 37.5 200.5t9.5 208.5q-34 338 -219 420q-66 30 -143.5 36.5t-155 -18t-127.5 -79.5q-33 -36 -60.5 -85t-44 -88t-34.5 -106.5t-24.5 -97t-21.5 -101.5q-12 -79 -12 -158t28 -161t81 -135q72 -72 155 -97q45 -13 72 -7.5t66 32.5 q38 21 71.5 8t54.5 -50t13 -73q-11 -40 -62 -60t-102 -20q-18 1 -36 4t-39.5 9t-34.5 10t-38 14.5t-33 13.5t-37.5 16t-33.5 15q-71 31 -123.5 81.5t-82 110.5t-44 135t-15.5 148zM537 518q-16 -164 28 -243q23 -43 60 -46q29 24 48 57t28.5 63.5t13.5 74.5t3.5 73t-2 77 t-1.5 69q-2 0 -4 15t-6.5 34t-12.5 27q-49 83 -96 13q-45 -68 -59 -214z" />
<glyph unicode="A" d="M61 94q0 11 2.5 14t12.5 3q21 4 37 2q15 85 32 129l39 168q58 244 76 331q29 146 51 275q10 53 62 309q-46 0 -62 16q-17 17 -23 53q-5 28 -5 53v15q11 0 72 3t103 4h27q25 0 45 -1q13 -52 24 -177t17 -161q5 -28 12 -75t14 -87t15 -75q32 -162 60 -270 q9 -39 34.5 -160.5t43.5 -188.5q4 -23 13 -64.5t11 -49.5q3 -13 13.5 -30.5t13.5 -25.5h28q13 3 20.5 1t8.5 -13q4 -28 4 -51q3 -12 3 -21q0 -12 -5 -18q-2 -4 -8 -4h-4q-4 0 -10 1q-8 1 -9 1h-63h-7q-19 0 -71 3q-24 1 -40 1q-29 0 -38 -4q-11 -2 -13 2l-3 6q-3 11 -6 53.5 t0 42.5q0 2 10 2h31q-3 55 -32 147t-36 136q-3 0 -40.5 3.5t-51 4.5t-44 2t-53 -0.5t-44.5 -5.5l-45 -200l-19 -89q8 2 27 2q18 4 26 -4q5 -5 11 -30q3 -5 5 -15.5t5 -15.5q0 -1 3 -9.5t3 -13.5q0 -4 -1.5 -6.5t-5 -4t-6 -2t-8 -1t-8.5 -0.5q-40 -6 -77 -6q-30 0 -58 4 q-16 1 -49 1t-49 1q-12 0 -14 1.5t-2 12.5v25.5t-2 24.5t-3 26zM373 561q48 -6 84 -6q46 0 73 10q-17 72 -37.5 212t-35.5 206q-25 -103 -35 -170q-5 -29 -24 -115.5t-25 -136.5z" />
<glyph unicode="B" horiz-adv-x="784" d="M63 1460l140 8l61 5q33 3 70 3q54 0 119 -6q154 -11 219 -112q50 -80 50 -180q0 -43 -9 -91q-17 -78 -54 -135q-17 -24 -28 -43q-1 -3 -1 -7q0 -17 17 -56q42 -126 53 -354q0 -18 2 -83q1 -43 1 -72v-26q-1 -33 -10.5 -83t-28.5 -85q-50 -87 -197 -118q-77 -15 -121 -15 q-12 0 -96 -4t-107 -4q-26 0 -32.5 7t-8.5 32q-6 23 -4 38.5t19 22.5q13 8 43 4l2 122q1 40 1 68q0 54 -3 54q-7 63 -7 163v25v73q0 68 -1 118q-13 448 -13 623q-42 -4 -55 6q-6 6 -8 15t-1.5 17t-0.5 17q-2 5 -8 25q-4 13 -4 21q0 4 1 7zM289 1190q1 -38 5 -105t5 -98 q15 2 59 5.5t63 6.5t45 16t40 34q16 29 28 74q9 34 9 69q0 12 -1 24q-4 48 -32 66q-41 28 -108 30h-18q-55 0 -93 -14q-2 -52 -2 -86v-22zM301 788q12 -155 12 -268v-31v-48.5v-53.5t1 -46.5t2.5 -53t4.5 -46.5t7 -51q18 4 66 11t79.5 15t54.5 22q13 8 21.5 24.5t13 32 t7 40.5t2.5 39t-0.5 40t-0.5 30q-3 31 -6 93t-6 94q0 2 -2 15.5t-2.5 17.5t-2.5 16.5t-3.5 17.5t-4.5 16t-6 17t-7.5 14t-10 14.5t-12.5 12.5q-20 18 -48 24q-23 5 -41 6h-7q-20 -2 -58.5 -7.5t-52.5 -6.5z" />
<glyph unicode="C" horiz-adv-x="782" d="M64 412v55t2 59.5t2 55.5q2 68 2 129v72q-1 22 -1 46q-1 71 5 152q8 108 30 197q75 287 287 307h11q64 0 134 -31q76 -34 128.5 -98.5t52.5 -136.5l-2 -2q4 -28 4 -43v-10q0 -40 -29 -69q-33 -33 -82 -46q-17 -5 -33 -5q-33 0 -63 21q-13 8 -18.5 22.5t-6 22.5t-0.5 31 q0 13 12 65q7 30 7 52q0 16 -4 26q-9 9 -15 12q-38 25 -72 25q-35 0 -67 -27q-34 -27 -56.5 -62.5t-33 -82.5t-14 -79.5t-6.5 -88.5q-8 -180 -8 -338q0 -47 1 -92q-1 -9 -1 -55v-39v-25q0 -18 3.5 -58.5t10.5 -64t20.5 -51.5t32.5 -47q26 -29 61 -41q19 -7 38 -7q15 0 28 5 q53 16 92 100q7 15 17 22.5t25 8.5t26 0t30.5 -5t28.5 -5q52 -6 64 -19q5 -5 6 -11.5t-2.5 -15.5t-6 -14t-9.5 -15t-7 -11q-28 -43 -47.5 -69t-49.5 -57.5t-65 -49t-77 -23.5q-19 -3 -39 -3q-52 -1 -104 19q-72 26 -128 80q-22 20 -40 42.5t-30 50.5l-21 49t-13.5 56.5 t-7.5 53.5q-3 15 -3 48q1 6 1 12z" />
<glyph unicode="D" horiz-adv-x="841" d="M60 150q0 12 3 22q2 4 3.5 6.5t4 3t4 1t6 0t7.5 -0.5q6 0 25.5 2.5t29.5 1.5q8 62 8 119q0 17 -1 33q-14 298 -15 387v43q0 173 21 348q2 21 6.5 87t9.5 102q0 16 2 22q-22 0 -37 6q-5 3 -16.5 7.5t-16.5 7.5q-4 2 -6.5 3t-3 3.5t-1 3.5t0 5t0.5 7q0 14 -3.5 37.5 t-4.5 30.5q0 14 3 20t15 10q3 0 22 3.5t28 3.5q6 0 34 4q6 2 25 2q9 2 21 2q18 0 44 -4q42 -6 46 -6q23 -2 86.5 -6t99.5 -9q81 -15 145 -61q61 -39 78 -133q15 -73 17.5 -217t3.5 -160q1 -23 13.5 -179.5t12.5 -238.5q0 -301 -112 -406q-14 -13 -33 -23t-33 -15.5 t-40.5 -9.5t-37.5 -5t-43 -3t-39 -3q-34 -2 -71 -2h-46q-61 2 -132.5 8t-75.5 6q-3 0 -16 -1t-20.5 0t-10.5 5q-7 7 -7 37v45q0 8 -1.5 22t-1.5 26zM288 288q0 -11 1 -22q1 -30 1 -52q2 -30 5 -30q15 0 60 -2q30 -1 50 -1h19q24 1 58 7t58.5 23t41.5 45q17 27 26 65 q8 37 8 63q0 6 1 15q1 24 -1 62q-2 51 -2 65q0 513 -10 592q-6 34 -10 53.5t-17.5 48t-33.5 44.5q-58 41 -217 41q-2 0 -2 -2v-3q0 -10 -0.5 -75t-4.5 -99q-3 -37 -7 -111.5t-7 -111.5q-3 -66 -6 -199t-6 -200q0 -6 -1 -44.5t-2.5 -82.5t-1.5 -89z" />
<glyph unicode="E" horiz-adv-x="747" d="M63 127v16t2.5 21t8.5 12q4 3 11 3t16 -1.5t12 -1.5h20q2 14 2 43t1 86t1 86q0 78 1 236t1 237q2 97 1.5 194.5t-1.5 194.5q0 14 -1 28.5t-2.5 32.5t-2.5 29q-7 0 -20 -1t-17 -1q-13 32 -16 70q0 15 3 43t3 33q56 7 260 16q92 4 167 4q91 0 155 -6q8 -12 14 -102 q4 -54 4 -88q0 -23 -2 -37q-46 -7 -94 -7q-16 0 -31 1q-9 0 -15.5 4t-9.5 8t-4 13.5t-0.5 14.5t1.5 17.5t1 17.5q-70 6 -125 5.5t-96 -5.5q-6 -19 -7 -37t2 -48.5t3 -38.5q3 -22 3.5 -46.5t-0.5 -58.5t-1 -47q0 -15 -1.5 -56t-1.5 -61t0.5 -53t2.5 -61.5t6 -55.5q10 1 85 13 q56 9 96 9q13 0 24 -1q17 -16 17 -80v-7q-1 -70 -23 -77q-31 -8 -100.5 -10.5t-102.5 -14.5q-7 -105 -7 -215q0 -94 5 -192q14 -5 30 -7.5t36.5 -3.5t33.5 -1.5t38.5 -0.5t33.5 1l-4 34q0 4 -5.5 25.5t-5.5 30.5t7 20q7 4 47 4q38 9 67 9q8 0 15 -1q2 -7 8 -51 q1 -10 3.5 -29.5t5 -35t2.5 -17.5q5 -6 9 -52q2 -25 3 -42q0 -16 -2 -27q-5 -18 -14 -29t-26.5 -16t-27.5 -6t-35 -2q-24 -4 -52 -4h-26h-22q-19 0 -54.5 2t-51.5 2q-17 0 -105 -1t-94 -1q-3 0 -15 -1q-8 -1 -13 -1h-5q-8 0 -12 4q-6 4 -8 11t-1.5 13.5t-0.5 14.5q0 9 -4 35 q-3 21 -3 37v8z" />
<glyph unicode="F" horiz-adv-x="741" d="M61 -2q0 93 9 102q2 3 10.5 4t16 1t17.5 -0.5t11 -0.5l29 5v102q1 38 1 108t1 127.5t4 108.5q23 351 24 467v97.5t4 121.5l7 88l-25 -4q-3 0 -12.5 1t-14.5 0t-10 -5q-8 31 -8 57q0 3 -2 18t-2.5 24t2.5 16q5 4 45 4q7 0 66 5t136 11.5t115 9.5q16 0 47 1.5t56.5 1.5 t48.5 -3q9 0 19 -38t15 -75.5t3 -37.5q0 -3 4 -31v-12v-4q-2 -2 -9 -4h-1q-14 -6 -33 -6.5t-43 2t-33 2.5q-5 47 -6 49q-173 0 -191 -6q-4 -23 -4 -48.5t2 -57t2 -48.5q1 -16 1 -37q0 -42 -3 -104q-2 -17 -6.5 -57.5t-6 -56.5t-4.5 -56t-2 -55.5t1 -55.5q16 -5 42 -6 q30 -1 74 7q34 5 58 6q36 0 53 -11q5 -27 5 -48q0 -55 -31 -79q-37 -8 -114.5 -11.5t-88.5 -4.5q-6 -63 -9.5 -128.5t-7 -159.5t-4.5 -128q0 -8 -1 -25t-1 -26q18 2 35.5 1.5t34.5 -1.5q0 -5 1.5 -30t1 -44.5t-4.5 -28.5q-4 -6 -12.5 -8t-17 -1.5t-17.5 -0.5q-10 -1 -28 -1 t-31 -1t-25 -4q-56 -7 -102 -7q-52 0 -91 9z" />
<glyph unicode="G" horiz-adv-x="798" d="M62 996q0 63 10 122q1 3 4 23t4 26t5 22.5t7 25.5t8 21t11 21q48 71 127 113q85 43 168 43q88 0 174 -47q70 -41 108 -84q0 -1 1 -3t1 -3q19 -19 28 -51t7 -60q-1 -42 -29.5 -69.5t-74.5 -38.5q-16 -4 -31 -4q-23 0 -46 9q-36 14 -46 52q0 16 -3.5 37.5t-19.5 52.5 t-43 41q-20 4 -39 4q-58 0 -104 -39q-53 -41 -53 -139v-14q0 -58 -5 -185q-4 -106 -4 -171v-25q0 -73 11 -205q3 -27 5.5 -89.5t6.5 -94.5q11 -88 59 -117q31 -20 67 -24q7 -1 14 -1q29 0 56 13q26 14 43.5 34.5t27.5 49.5t14.5 50t9.5 56q2 14 8 44.5t9 49t5 49t-4 44.5 q0 2 -4 6q-13 4 -36 4q-19 0 -46 -3q-36 -4 -60 -4q-13 0 -22 1q-16 2 -25 16.5t-10 30t-1.5 38t-2.5 31.5q-2 14 9.5 22.5t34.5 11.5t39.5 4t43 0t27.5 -1q82 0 108 4q25 4 46 4q33 0 57 -10q16 -52 16 -182q1 -47 1 -85q0 -77 -5 -116q-31 -209 -158 -276 q-65 -29 -145 -29h-8q-85 2 -152 33q-123 55 -176 289q-12 60 -16 122q-3 49 -3 121v38q1 98 1 124q-1 39 -6 121q-5 76 -5 134q0 6 1 12z" />
<glyph unicode="H" d="M66 37q-3 20 -3 36.5t3 30.5q37 0 55 2v34q-1 47 1 118q2 99 3 139q0 169 8 308q3 69 6 206t6 207q5 134 7 148v44.5t4 55.5h-64q1 16 -4.5 45t-5.5 43q0 3 5 5t14.5 3t17.5 1t18.5 -0.5t12.5 -0.5q56 11 122 11l17 1q17 1 28 -0.5t17 -5.5t10.5 -16t8 -27t5.5 -20 q5 -17 4.5 -23t-10.5 -12q-6 -4 -41 -8q-1 -12 -3.5 -28t-2.5 -21l-12 -142q-5 -35 -5 -73v-20q0 -30 2 -68q2 -50 1 -74q0 -41 -3.5 -113.5t-4.5 -97.5q58 -9 157 -10q74 0 170 6q33 305 33 593v48l-51 8q1 12 -2.5 48.5t0.5 54.5q2 2 7 2h3q7 -1 18 -3t13 -2q20 0 54.5 -1 t51.5 -1q10 0 42 3.5t53 3.5t24 -7q3 -12 4.5 -31.5t2 -43t1.5 -31.5q-10 0 -21.5 -1t-25 -2.5l-22.5 -2.5q2 -19 2 -45q0 -37 -4 -87q-7 -86 -7 -108q-4 -250 -10 -383q-3 -62 -11 -183.5t-11 -182.5v-191q0 -11 2 -35t2 -37q3 0 9 -1t9 -1q5 0 11.5 0.5t9.5 0.5t6.5 -2 t7.5 -7q9 -15 10 -50t-14 -42q-8 -4 -246 -4q0 4 -1 27.5t-1 43t2 23.5q1 10 9.5 12t29.5 2q-6 71 -6 142q1 47 6.5 155.5t5.5 167.5q-18 6 -80 6q-5 -1 -10 -1q-70 0 -113 -11q-10 -2 -28 -2q-15 -1 -37 1q-25 2 -43 2q-15 0 -23 -1q-3 -18 -3.5 -99.5t-1.5 -189t-3 -167.5 q34 -3 55 2q8 -26 9 -54.5t-9 -48.5q-2 -5 -5 -7t-6 -2t-9 0.5t-10 0.5h-7q-21 0 -87 -4q-2 0 -26 -1t-42 -1h-53q-4 13 -8 43z" />
<glyph unicode="I" horiz-adv-x="436" d="M63 94q1 2 1 4q2 2 6 3t7 1.5t10.5 0t10.5 -0.5q4 0 13 1t14 1q0 13 2 35t2 33q12 116 16 418q2 31 2 83q0 35 -1 80q-2 112 -3.5 162.5t-6.5 162.5t-7 163q0 70 2 105v8h-43q0 9 -7 48t-3 58q25 -2 76 -2q27 8 86 8h12q19 1 34 1q26 0 42 -3q10 -3 13.5 -7.5t4 -16.5 t2.5 -19q1 -4 8.5 -26.5t8.5 -36.5q-6 -3 -14 -3.5t-19 0.5t-15 1l-6 -92v-181q-1 -55 -7.5 -176.5t-6.5 -187.5q1 -41 5 -171q3 -78 2 -134q0 -38 -1 -66q-4 -29 -4 -76q0 -31 2 -71q4 -76 4 -97v-6q6 -1 15.5 -1t20.5 0.5t15 0.5q19 -77 17 -96q-99 -6 -111 -6 q-21 0 -81 -6q-41 -4 -69 -5q-13 0 -22 1q-3 7 -4 15t-1 17.5t-1 14.5q-4 28 -8 35q0 3 -6 11q-6 10 -7 15z" />
<glyph unicode="J" horiz-adv-x="841" d="M62 565q0 17 4 56q9 49 26.5 78.5t57.5 45.5q37 13 70 16q6 1 12 1l54 -11q33 -13 50 -46q14 -24 14 -54q0 -45 -31 -102q-9 -15 -32 -31t-31 -24q-20 -20 -29 -48q3 -44 11 -86q8 -50 26 -96q0 -11 33 -53l4 -6q15 -15 16 -17l15 -12q24 -14 35 -16q21 -2 57 18l2 2 q60 35 84 121q11 37 18 82t9 72t4.5 86t3.5 75q2 25 2 72q3 26 3 77t-3 128q-3 81 -3 136t3 83q2 43 2 131v55q0 12 1 31t1 27q-8 0 -24 2t-23 2q-14 0 -18.5 2t-10.5 14q-17 50 -17 77q0 7 1 13q0 3 14 5.5t38 3.5t51 2t57.5 1t53.5 -0.5t42.5 -0.5h21.5q21 -3 28.5 -21 t9 -47.5t5.5 -40.5q-10 -3 -21 -4t-24.5 -1t-21.5 -1q1 -19 1 -37q0 -41 -5 -74q-10 -218 -10 -336q0 -42 1 -71q2 -49 2 -105q0 -137 -14 -311l-4 -43q-3 -46 -4 -65t-7 -58.5t-15 -63.5t-26.5 -54t-41.5 -54q-34 -34 -91.5 -57.5t-109.5 -30.5q-8 -2 -24 -2q-94 0 -172 72 q-84 74 -111 243q-8 48 -12 138q-1 19 -4.5 57t-3.5 55z" />
<glyph unicode="K" horiz-adv-x="903" d="M64 48v10.5v11.5q1 12 6 16q19 11 45 14l6 80q2 25 5.5 567t6.5 576v35q-25 -4 -35 4q-16 9 -16 80q2 16 4 17.5t12 4.5q58 15 113 15q17 0 51 1t51 1q2 -15 6.5 -55t8.5 -62q-12 -5 -41 -10q0 -7 -1 -22.5t-1 -22.5q-1 0 -1 -65l1 -64q1 -28 -3 -84q-4 -64 -5 -90 q0 -29 6 -78q36 47 73 104.5t80 129t68 110.5q11 19 63 92q-9 1 -27.5 1t-27.5 1q-3 20 -2.5 53.5t10.5 50.5q57 2 91 2h15q36 0 107 -3.5t105 -4.5q3 -47 3 -79q0 -16 -1 -27h-5q-15 0 -69 4q-326 -458 -326 -488q0 -5 62 -149t144 -337t118 -290h47q8 0 12.5 -2t7 -3.5 t3.5 -5.5t1 -7t-0.5 -9.5t-0.5 -11.5q0 -2 3 -17t3 -19t-2 -15q-5 -9 -32 -9q-9 0 -20 1q-6 0 -100 3t-100 3q-11 -2 -17.5 -1.5t-9.5 4.5t-6 16q-4 14 -4 37q0 16 2 36q5 0 33 4q-28 73 -81.5 207.5t-94.5 238t-48 122.5l-24 53l-19 -25q-16 -28 -16 -47v-112q0 -5 1 -107 q1 -68 1 -125q-1 -29 -1 -55q0 -78 -3 -107q-1 -3 -1.5 -7.5t-1 -13t-1.5 -15.5q26 3 35 -3q4 -8 3.5 -39t-5.5 -42q-6 -12 -24 -18t-34.5 -6t-43 1.5t-31.5 1.5q-15 0 -59 -2q-26 -1 -44 0h-22q0 5 -2.5 20.5t-3.5 25.5z" />
<glyph unicode="L" horiz-adv-x="694" d="M63 1325q-1 13 -1 26q0 34 6 64q2 7 3.5 11t5.5 6l6 3t9 2.5t12 2.5q2 0 23.5 4t28 5t25.5 3t29 2t24.5 -1.5t25.5 -4.5q33 -11 39 -35q1 -7 1 -27q0 -62 -12 -254q-13 -212 -12 -314v-36q11 -376 31 -628q15 -2 18 -2.5t17.5 2t17.5 2.5q11 3 23.5 3.5t29 -0.5t23.5 -1 t20.5 -1t20.5 -1q-8 57 -10 61q-1 2 -3 7l-3 7.5t-2.5 6.5t-1 6.5t2.5 6t5 5.5q14 9 64 13.5t61 -7.5q20 -24 34 -112q8 -55 8 -87q0 -18 -3 -28v-2l-4 -8l-7 4q-29 -9 -86.5 -12t-74.5 -5q-64 -13 -161 -13q-24 0 -50 1q-7 0 -21 0.5t-20 1t-15.5 3.5t-17.5 9 q-13 10 -27 15q-12 293 -12 1011q0 41 -1.5 102t-1.5 105t3 84q-8 -1 -22 -3t-26 -3t-22 0z" />
<glyph unicode="M" horiz-adv-x="993" d="M63 102q24 9 54 9v65q0 74 1 185t1 185v66q0 810 24 834q7 0 45 10q23 6 38 6q9 0 16 -2q10 -4 17 -15t13 -29l7 -21q8 -22 59.5 -178t99 -295t56.5 -152q3 3 14.5 34.5t11.5 37.5q2 2 95.5 284t107.5 301q21 9 69 14q16 2 30 2q26 0 40 -7q0 -46 12 -602q8 -393 9 -595 q0 -84 -2 -135q3 0 45 -6q0 -12 3 -36t3 -35v-10q0 -1 -1 -2t-3 -1l-4 -2q-5 -4 -18.5 -5t-14.5 -1q-65 -10 -132 -10q-42 0 -85 4q-6 9 -10.5 45.5t-1.5 50.5l45 8q1 25 1 59q0 68 -3 173q0 492 -9 512q0 -4 -25.5 -99t-57 -198t-42.5 -119q-17 -24 -35.5 -28t-46 1 t-43.5 3q-10 20 -68.5 179.5t-58.5 160.5q-3 5 -5.5 21.5t-10.5 21.5q0 -178 -2 -254q0 -264 -8 -308q-4 -27 -4 -120h53q0 -9 -1 -26.5t-1 -25.5v-15.5v-12.5t-2 -9.5t-8 -7.5q-23 -10 -84 -10h-13h-12h-88q-3 0 -18 -2q-8 -1 -13.5 -0.5t-10.5 0.5q-9 2 -13 8 q-4 4 -5 12.5t-0.5 20t-0.5 16.5q-1 4 -5.5 20.5t-3.5 24.5zM299 793h8q0 6 -2 8h-6v-8z" />
<glyph unicode="N" horiz-adv-x="966" d="M61 94q32 4 54 4q0 2 6 107q7 80 7 159q0 26 -1 52v30q0 80 4 206q5 152 6 202q1 66 8 211.5t7 224.5v72l-37 6q1 16 -2 49t-2 51q27 0 108.5 -2t85.5 -2q10 -10 16 -25.5t11 -38t8 -30.5l39 -125q2 -7 31.5 -107.5t50.5 -150.5q16 -38 43.5 -112t42.5 -109 q23 -57 47 -104q8 -54 45 -107q5 35 5 71q0 5 1 11q0 33 -3 83q-3 58 -3 71v9q0 60 12 226q3 39 7.5 117.5t7.5 116.5q2 35 2 104q-9 0 -26.5 -2t-25.5 -2q0 19 -8.5 51.5t-7.5 52.5q4 0 37.5 1t72 2t79.5 1q7 0 13 1q32 -1 56 -3q28 -2 31 -6q4 -11 5.5 -42.5t10.5 -45.5 q-4 -4 -10 -5.5t-11 -1.5t-16 0.5t-16 0.5v-68q-7 -86 -27 -516q-4 -73 -9 -271t-13 -298q-2 -18 -2 -51q1 -18 1 -38v-31q0 -38 -3 -58q-5 -25 -39 -37q-26 -9 -54 -8h-18q-38 4 -55 16l-17 43q-22 51 -63.5 175t-88.5 269.5t-58 178.5q-5 18 -16 62.5t-18.5 71t-22 62 t-30.5 60.5q5 -2 1.5 -15t-3.5 -14v-61q2 -26 1.5 -53t-1.5 -54q-1 -41 -16 -225l-10 -236q-8 -73 -8 -168q22 3 28 0q5 -5 12 -47.5t1 -48.5q-4 -4 -17 -5.5t-28.5 -1.5t-18.5 -1q-10 -2 -29 -2q-17 0 -41 2q-39 3 -59 2h-10q-39 -8 -45 2q-3 3 -7.5 44t-7.5 48z" />
<glyph unicode="O" horiz-adv-x="827" d="M64 1106q0 30 4 57q8 79 47 172q13 33 39 70q8 9 18.5 17t17.5 12t21.5 12t21.5 12q31 20 71 36t85 28q31 8 62 8q13 0 27 -1q44 -5 73 -28q15 -11 43 -27t47 -31t33 -38q14 -25 23.5 -52t20.5 -73t13 -55q19 -90 19 -176q4 -140 10 -213q2 -24 2 -65v-29.5v-28.5 q0 -40 2 -62q2 -16 2 -44q0 -23 -2 -57q-3 -56 -2 -85v-14q1 -12 1 -24q0 -94 -42 -185q-62 -136 -123 -197q-10 -9 -22.5 -16.5t-22.5 -12t-26 -8t-25 -5t-27.5 -2.5t-25.5 -1h-27.5h-24.5q-48 0 -112 23q-22 8 -54 30t-45 29q-4 10 -11 19.5t-17 19.5t-15 16q-6 10 -9 22 t-5 27t-4 23q-17 101 -25 184q-17 163 -28 398q-1 23 -2.5 62t-2.5 70.5t-1 59.5q0 17 -2 55q-1 28 -1 52q1 9 1 16zM215 780q0 -18 1.5 -45.5t6.5 -48.5q13 -57 15 -170t10 -162q13 -82 63 -130q36 -34 86 -34q20 0 43 5q73 16 119 79.5t59 143.5q12 80 12 171t-12 193 q-7 56 -11.5 174t-12.5 181q-13 105 -47 139q-29 30 -71 44q-31 11 -61 10q-11 0 -22 -1q-72 -4 -112 -55t-54 -127q-7 -35 -10 -86q0 -13 -1 -31q0 -27 2 -64q2 -63 1 -85q0 -11 -2 -47t-2 -54z" />
<glyph unicode="P" horiz-adv-x="774" d="M61 104q4 0 27.5 4.5t36.5 0.5l27 1249q-29 -3 -49 -3q-10 0 -17 1q-3 12 -6 35t-6 34q-1 4 -3 10t-2.5 8t-0.5 5.5t1 5.5t3.5 4t7.5 4q23 12 74 12q14 0 30 -1h2q12 3 27 3h14h11q10 0 29 -1.5t28 -1.5q25 -1 83 -7t89 -6q94 0 158 -57q88 -81 88 -291 q0 -47 -3.5 -130.5t-4.5 -109.5q0 -4 -0.5 -30t-1 -33.5t-2 -29.5t-3.5 -33t-5.5 -28.5t-8.5 -31.5t-12 -27q-37 -60 -144 -98q-34 -12 -80 -13h-20q-34 0 -62 2l-30 2q-23 0 -49 -3q0 -11 -8.5 -210t-8.5 -241q23 2 68 2q16 -60 16 -65q0 -9 -1.5 -14t-5.5 -6.5t-7.5 -2 t-11.5 0.5t-13 1q-125 -5 -151 -8q-12 -1 -41.5 -4.5t-44.5 -3.5q-1 8 -6.5 31.5t-8 41t-2.5 33.5zM285 1184q0 -26 1 -78t1 -78l6 -307q14 -1 46 -6.5t50 -5.5q57 5 95 22t59 60q38 72 38 195q0 33 -3 71q-3 21 -23 129q-5 28 -7.5 39.5t-12 32.5t-23.5 32q-14 10 -30 14.5 t-38 7t-30 3.5q-11 1 -40.5 4.5t-41 3.5t-37.5 -6q0 -24 -5 -68t-5 -65z" />
<glyph unicode="Q" horiz-adv-x="806" d="M62 458v73.5v94.5q1 62 1 105v49v17q0 38 3 97q4 75 4 107q2 27 4 76t5 89.5t9 76.5q30 80 87.5 136t137.5 79q30 8 62 8q48 0 103 -18q89 -29 149 -86q56 -49 84 -137.5t28 -173.5v-51q0 -164 -10 -455q-11 -172 -41 -279q-30 -114 -102 -180q5 -39 13 -77.5t22.5 -84 t38 -76t53.5 -36.5q11 -3 24 -3q25 0 54 11q0 9 -5.5 33.5t-5 44.5t12.5 34q23 22 69 22h10q55 -3 84 -22q22 -16 28 -48q1 -10 1 -19q0 -21 -8 -37q-12 -27 -51 -51q-16 -22 -43 -37h-2q-29 -18 -72 -29q-67 -12 -119 -12q-71 0 -115 22q-41 23 -75 90.5t-43 120.5 q-8 31 -8 78q-40 -12 -82 -12q-20 0 -41 2q-63 9 -109 45q-42 29 -86 111q-34 68 -50.5 154t-18.5 148zM212 508q-2 -33 -2 -54q0 -24 3 -32q1 -14 6 -39t6 -39q13 -68 23 -90q25 -52 77 -72q31 -12 63 -12q23 0 46 6q-16 56 -73 56q-5 0 -11 -1v9q0 27 10 67q1 4 4 11 t4.5 12.5t2.5 9.5q30 4 45 2q55 -4 92 -41q8 -6 18.5 -18.5t12.5 -14.5q3 8 7 25.5t7 25.5q16 53 29 187q1 21 5 84t5 94q1 19 1 45v37q-1 50 -7 90q-3 33 -3 70v20q1 48 5 90q2 16 2 34q0 26 -4 55q-6 48 -25 87q-34 63 -106 90q-32 13 -62 13q-37 0 -71 -19q-5 -2 -29 -20 q-11 -11 -19.5 -24t-15.5 -30t-10 -27.5t-9 -32.5t-8 -29q-5 -16 -7.5 -33t-3.5 -38t-1.5 -34t0 -39t0.5 -35v-48q0 -48 1 -131v-68q0 -82 -3 -111q0 -17 -5 -88z" />
<glyph unicode="R" horiz-adv-x="884" d="M63 78q0 4 1 8q1 6 4 10q3 5 10 6.5t11.5 1.5t14.5 -2t11 -2q3 0 8 1t8 1q-4 73 -4 244q0 150 3 377q7 485 24 672h-2q-48 -4 -63 -4h-5q-4 13 -3.5 56t-10.5 54q42 5 170 6q14 0 27 -1q105 0 141 -3q190 -6 264 -80q38 -35 62 -157t30 -212.5t6 -144.5q0 -79 -10.5 -137 t-31 -93t-32.5 -49t-34 -32q3 -6 28.5 -46t36.5 -63q15 -30 26 -144t11 -173q-2 -23 -2 -61q5 1 15 1t18 1t14 4q4 -10 5 -31.5t1 -22.5q1 -9 3 -23t3 -25q0 -6 0.5 -11t-0.5 -10q-15 -1 -38 -1q-35 1 -88 3q-38 2 -66 1q-38 0 -60 -3q-7 0 -21 -2.5t-18.5 -2t-10.5 6.5 t-9 20q-4 9 0 46t4 47q15 0 61 4q0 12 1.5 33.5t1.5 33.5q0 7 0.5 40.5t0.5 54.5t-1.5 57.5t-5 63t-10 57.5t-15.5 53q-35 35 -113 35q-55 0 -131 -17q0 -271 -20 -420q27 0 45 9q1 -5 5.5 -26t7.5 -36.5t3 -32t-8 -22.5q-10 -4 -15.5 -4t-21 4t-18.5 4q-12 1 -27 1 q-31 0 -78 -3q-3 0 -19 -3.5t-26 -4.5q-11 -2 -25 -2h-3q-11 0 -19 4t-12 12q-4 6 -4 23.5v21.5q0 3 -2 11q-3 12 -3 18zM294 896q0 -106 9 -200h29h44q52 1 104.5 2.5t94 20t43.5 53.5q4 -4 4 32v20q0 30 -2 72q-2 56 -4 116.5t-5 113.5t-5 76q-6 55 -29 80t-88 45 q-56 17 -110 17q-40 0 -78 -9q0 -69 -3 -201q-3 -116 -4 -211v-27z" />
<glyph unicode="S" horiz-adv-x="823" d="M61 1139q1 111 45 184q52 83 140 127q72 36 153 37q18 0 37 -2q61 -5 125 -35q1 -1 13 -9t15.5 -10.5t14.5 -11t16 -13t14 -12.5t14 -14t10 -13.5t8 -14.5q14 -37 32 -72q25 -40 31 -86v-14v-8q0 -69 -69 -102q-37 -18 -75 -18q-25 0 -51 8q-64 20 -69 79q-1 22 8 49 q11 31 11 54q0 77 -115 77q-54 -3 -93 -49q-59 -76 -59 -153q0 -21 4 -42q2 -9 5 -18t8.5 -18t9 -16t11 -16.5t11 -14.5t13.5 -15.5t12.5 -13.5t14 -15t13.5 -14q42 -45 138 -125t137 -123q136 -136 158 -252q9 -30 9 -65t-9 -76q-5 -39 -9.5 -62.5t-17.5 -54.5t-33 -57 q-31 -36 -82 -67.5t-98 -43.5q-64 -16 -116.5 -16t-94.5 16q-42 13 -88.5 47.5t-77.5 73.5q-24 31 -42.5 78.5t-18.5 87.5q-6 17 -6 34q0 31 19 61q29 48 81 72q33 16 64 16q17 0 32 -5q34 -8 61 -35t31 -61q2 -14 -2.5 -27t-10.5 -20t-18.5 -20t-17.5 -19q-21 -24 -21 -45 q0 -27 36 -49q48 -29 108 -30q4 0 8 1q20 1 33 6q48 18 75 52.5t31 75.5q1 13 1 25q0 29 -6 59q-9 42 -31 83q-70 122 -250 279q-12 10 -42.5 36t-45.5 40t-38 36.5t-39 45.5t-28 48q-37 72 -37 179v6z" />
<glyph unicode="T" horiz-adv-x="669" d="M63 1362v11q-1 17 1 47q2 42 -1 57q-7 4 113 6h57q97 0 208 -4q144 -5 190 -15q1 -9 -1.5 -28.5t-2.5 -26.5q6 -48 6 -49q0 -4 -1 -14.5t-1.5 -17t-2 -15.5t-4.5 -15t-8 -10q-15 -12 -47 -12q-25 0 -61 8q0 30 -4 39q-16 -1 -48 -1t-48 -1q-6 -74 -12.5 -520t-5.5 -684 q1 0 16.5 3t23.5 3q22 1 30 -10t13 -39q0 -1 4.5 -21.5t4.5 -28.5t-3 -22q-4 -6 -13.5 -7.5t-24.5 0t-17 1.5q-22 0 -105 -4q-42 -2 -67.5 -2t-34.5 2q-3 0 -8.5 0.5t-7.5 0.5t-5.5 1t-4 2.5t-2 3.5t-2.5 5.5t-1 8.5q-3 10 -4 19t-1 20.5t-1 18.5q-5 23 13.5 29t46.5 1 q2 20 3.5 111.5t1.5 228v262t-0.5 263.5t-0.5 182q-2 17 -2 45q0 19 1 42.5t1 42.5q0 28 -2 46q-16 2 -56 2q12 -36 -4 -43q-8 -3 -14.5 -2.5t-19 2.5t-17.5 2q-4 0 -14.5 -1.5t-19.5 -1.5t-15 3q-8 3 -12.5 13t-5 19.5t-1 24t-0.5 19.5z" />
<glyph unicode="U" horiz-adv-x="901" d="M63 1416.5q0 13.5 7 30.5t24 26q23 7 43.5 6t55 -5t43.5 -4h90q0 -11 5.5 -38.5t5 -47.5t-12.5 -30q-21 -12 -56 -15q-2 -32 -6.5 -91t-7.5 -107t-4 -92q-4 -99 -4 -196q0 -118 6 -232l18 -205q0 -4 2 -23t3 -26t3.5 -23.5t4.5 -26t5 -23t7.5 -24.5t9.5 -22 q21 -44 65 -66q38 -18 81 -18h15q50 4 91 29q34 21 55 63t27 76.5t10 85.5q1 43 1 82q0 91 -5 164q-12 352 -20 538l-7 133q0 9 -2 11q-16 0 -18 2q-9 5 -15 14.5t-7.5 23.5t-2 25t0.5 26.5t1 20.5l-2 12q38 3 113.5 6.5t112.5 6.5q17 0 21 -2.5t9 -16.5q9 -31 9 -72 q0 -17 -12 -24q-14 -8 -40 -10l5 -47q19 -194 22 -437q3 -83 3 -189v-36q0 -128 -11 -225q-32 -274 -176 -365q-83 -59 -230 -59q-58 0 -123.5 45.5t-105.5 104.5q-7 9 -12 21t-8.5 20t-7.5 23.5t-5 21t-4.5 24.5t-3.5 21l-8 48t-7 51.5t-5 47.5t-4.5 51.5t-3.5 47.5 t-2.5 51.5t-2.5 47t-2.5 51t-1.5 48.5v45q0 116 8 270l9 230v69h-39q0 11 -3.5 37.5t-3.5 40z" />
<glyph unicode="V" horiz-adv-x="915" d="M66 1456q2 3 8.5 4t13 1t14.5 -0.5t9 -0.5l120 8q5 0 30 4t46 4t29 -8q11 -11 19.5 -44t4.5 -48q-10 0 -38 -4q9 -44 48.5 -265t67 -356t41.5 -159q8 22 50.5 362t54.5 400q-3 0 -10.5 1t-10.5 1h-10q-2 16 -2 47q0 54 4 63q153 10 234 10q29 0 49 -1q1 -13 8 -43 q6 -27 6 -43v-11t-1 -5t-1 -2.5t-2 -2.5t-3.5 -1.5t-6.5 -2.5q-21 -6 -45 -6q-22 -123 -131 -651q-140 -630 -140 -660q1 -6 -3 -21t-9 -20q-9 0 -32 -2.5t-41 -2.5t-29 5q-4 3 -9.5 16t-12.5 36t-7 24q0 2 -9 47.5t-19 100.5t-13 75q-17 77 -94 494t-99 569q-47 0 -59 -4 q0 8 -13 46q-9 26 -9 38q0 5 2 8z" />
<glyph unicode="W" horiz-adv-x="1458" d="M66 1413q-3 19 -4 31q0 13 4 18q2 4 4.5 6.5t7 3.5t6.5 1h7.5h6.5l117 4h96q36 7 43 0q3 -3 4 -21t4 -22q1 -7 2.5 -34t2.5 -34l-41 -6q1 -29 12 -117q4 -39 41 -231t72.5 -367.5t35.5 -179.5q16 16 40 147.5t47.5 288.5t27.5 176q19 169 41 191q14 13 49 13q10 0 22 -1 q54 -5 72 -23q19 -23 88 -403t91 -414q6 4 32.5 175.5t62 419.5t50.5 339l-43 6q1 5 -2 50.5t6 50.5q2 4 5.5 5.5t6 1.5t8.5 -0.5t9 -0.5q18 0 51 1t49 1q13 0 37.5 0.5t40 0.5t36.5 -1t38 -4q18 -3 24 -13t6.5 -30.5t3.5 -30.5q2 -4 5 -9.5t4 -8t1 -5.5t-2 -4.5t-7 -3.5 t-13 -4q-24 -6 -67 -10q-233 -1328 -240 -1335q-14 -25 -79 -31q-18 -2 -33 -2q-38 0 -56 10q-6 11 -46.5 215t-79.5 402t-42 200q-5 -6 -11 -31t-13 -61.5t-13 -68.5t-12 -68.5t-8 -46.5q-92 -488 -92 -504q-3 -27 -35 -35q-13 -4 -53 -4t-52 4q-21 11 -106.5 323.5 t-108.5 434.5q-75 361 -110 588q-23 -3 -39 0q-6 17 -12 57z" />
<glyph unicode="X" horiz-adv-x="940" d="M138 97q15 0 34 -1q1 5 4 12t4 9q35 85 109 276.5t84 237.5q4 6 -37.5 137t-104 324t-86.5 274q-27 -9 -55 -6q2 9 1.5 14t-3.5 14.5t-4 14.5q-11 43 -10 47q3 6 14 10t21 5.5t10 2.5q21 7 39 7q33 2 94 2q2 0 27.5 1.5t45 1t23.5 -4.5q8 -8 7 -39.5t1 -46.5 q3 -17 -16 -24.5t-39 -6t-20 5.5l16 -51q17 -53 64 -180.5t69 -200.5q2 -5 5 -15t6.5 -18t7.5 -12q3 -3 6.5 0t7 11t5 12t3.5 10q10 31 21 55q11 31 30.5 92.5t30.5 93.5l37 105q31 78 37 106q-3 0 -10 -0.5t-10 0t-7 3.5t-6 9q-5 35 -8 43q-1 1 -3.5 6.5t-3 8t-2 7t-1 7.5 t2.5 7t5 7q13 13 37 13q16 0 43.5 0.5t49 0.5t40.5 -1q19 0 65 -4q29 -7 33 -13q10 -12 17.5 -41t9.5 -51q-11 -3 -23 -3.5t-27.5 0.5t-21.5 1h-10q-4 -13 -107 -302t-123 -359q-2 -6 -11 -24t-13 -32t0 -24q3 -10 37.5 -105t84 -229.5t72.5 -198.5h8q3 0 13 2.5t16.5 3.5 t11.5 -2q8 -4 16.5 -33t8.5 -42q-15 -6 -56 -15.5t-57 -9.5q-7 0 -43 -3t-43 1q-28 -5 -64 -5q-15 0 -32 1q-2 11 0.5 51.5t-8.5 50.5q12 0 31 1t30 1q-72 171 -114 310q-7 -7 -24.5 -52t-50 -139t-42.5 -121q42 5 49 8q0 -5 7 -38.5t3 -49.5q-3 -9 -8 -13t-10 -5t-19 -2 q-21 -4 -45 -5t-54 -0.5t-46 -0.5q-13 0 -45 -2q-23 -2 -42 -2h-16q-26 1 -44 8q0 7 5 21.5t5 21.5q0 8 -8 24q-8 14 -7 18q0 16 75 16z" />
<glyph unicode="Y" horiz-adv-x="915" d="M62 1439q-1 4 -1 7q0 4 2 6q17 2 77 4.5t112 3.5h40h13q43 0 53 -10q4 -4 16.5 -34t12.5 -36q-3 -21 -49 -24q137 -436 145 -441q66 177 146 437q-16 -2 -47 -2q3 12 -8.5 49t-4.5 47q5 7 65 10q46 3 91 3h26q58 -1 58 -5q29 0 37 -20q5 -16 4 -48.5t4 -48.5 q-12 0 -38 -1t-38 -1l-16 -51q-5 -22 -53.5 -184t-92 -312.5t-43.5 -171.5q0 -1 0.5 -33t0.5 -74.5v-101v-113.5t-1 -111t-2 -95q10 3 17 0.5t14 -18.5q21 -48 21 -79v-7q-12 4 -25.5 5.5t-31 0.5t-27 -2t-31 -4t-25.5 -4t-18 -4t-24 -4.5t-21.5 -1.5t-18.5 6t-8 18 q-3 12 1 46t12 42q11 8 38 8q0 41 2.5 114t2.5 85q0 41 -6.5 158.5t-10.5 156.5q-8 63 -37 125q-15 32 -76 195.5t-86 238.5q-8 27 -24.5 70.5t-22.5 60.5l-20 54q-4 -2 -21 -2q-18 -5 -24.5 -4.5t-16.5 10.5q-6 8 -13.5 27.5t-10.5 25.5q-2 3 -7 11t-6.5 11t-4.5 12z" />
<glyph unicode="Z" horiz-adv-x="858" d="M74 55q8 17 21 40.5t16 29.5q38 72 223.5 554t236.5 626q-39 0 -108.5 1t-102.5 1q1 -2 3.5 -8t3.5 -8.5l3 -7.5t2.5 -8t1 -7.5t0 -8t-2 -8t-4.5 -8.5q-11 2 -33 -1t-41 -7t-37 -2.5t-25 10.5q-6 7 -10 24.5t-7 39t-5 28.5q-9 45 -9 77q0 19 3 34q3 16 10 16q32 -2 93 -3 q20 0 44 1q95 1 182 3t162 5l74 2q-7 -58 -198.5 -583.5t-202.5 -536.5q0 -3 -10.5 -30t-24.5 -64t-21 -57q-17 -39 13 -47q13 -3 27 -2q19 0 40 5q7 1 10 1q7 0 97 8.5t143 9.5q-2 7 -6 17t-6.5 16.5t-2.5 13.5t5 10q15 4 24.5 3.5t31.5 -5t26 -4.5q38 -3 57 4q1 -18 5 -51 t5 -49q16 -49 16 -76q0 -11 -3 -18q-2 -7 -7.5 -10.5t-13 -3.5h-13.5t-15.5 2t-12.5 2q-4 1 -20 1q-55 0 -247.5 -10.5t-260.5 -10.5q-20 0 -29 1q-3 0 -18.5 -1.5t-29.5 -2.5q-10 -1 -20 -1q-4 1 -10 1q-16 0 -25 4q-8 4 -8 12q0 13 11 37z" />
<glyph unicode="[" horiz-adv-x="663" d="M61.5 1712q0.5 21 12.5 33q27 11 136 7.5t232 -10.5l123 -7q8 -21 9.5 -61.5t5.5 -57.5q12 -46 -25 -53q-10 -5 -69.5 -1.5t-69.5 3.5q-102 -4 -150 -4q17 -32 24.5 -617.5t0.5 -777.5q47 -8 135 -8q8 0 41 4.5t54.5 3t39.5 -11.5q32 -16 39 -73t-25 -75q-75 11 -182 6 t-205.5 0t-101.5 29q-4 21 -2.5 93t0.5 93q-5 172 -8.5 706.5t-3.5 692.5q0 10 -5.5 37.5t-5 48.5z" />
<glyph unicode="\" horiz-adv-x="942" d="M63.5 1334.5q-2.5 10.5 0 25t14.5 24.5q14 0 39.5 9.5t32.5 11.5q14 3 29.5 3t33.5 5q16 -3 51.5 -78.5t63.5 -148.5t28 -76q0 -1 124 -309t255 -640.5t146 -385.5q-80 0 -176 8q-38 77 -322.5 758t-296.5 727q-3 9 -11.5 32.5t-11 34z" />
<glyph unicode="]" horiz-adv-x="673" d="M61 1622q0 104 33 115q38 2 94.5 1t144 -4t111.5 -3q7 0 31 1.5t42.5 1.5t40 -2t34 -11t14.5 -25q0 -7 1.5 -140t2.5 -275.5t1 -279t-3 -167.5q-6 -50 -4 -143.5t1 -211t-4.5 -221t-19.5 -176t-44 -74.5q-28 -4 -87.5 -1t-87.5 -1q-97 -12 -247 14q-6 17 -10.5 46t0 59 t22.5 35q45 8 70.5 7.5t74.5 -5t72 -4.5q6 0 25 -1.5t26 -0.5t16 7.5t11 20.5q4 0 2 60t-2 61q0 13 13.5 284.5t8.5 348.5q0 19 -7 278.5t-7 280.5q0 8 -1 24.5t-1 24.5q-2 14 -6 20t-7.5 6.5t-15 -1.5t-20.5 -2q-19 0 -104 -2.5t-139.5 -1.5t-61.5 8q-13 13 -13 49z" />
<glyph unicode="^" horiz-adv-x="770" d="M61 1505l142 105q136 101 172 123q14 3 42.5 -17.5t59.5 -49t37 -32.5q56 -40 127 -91t66 -46q-59 -97 -76 -115q-7 -7 -60.5 29.5t-113.5 82t-70 50.5q-14 7 -34 -4.5t-43.5 -34.5t-28.5 -26q-82 -66 -129 -97q-13 -10 -31.5 16.5t-36.5 64t-23 42.5z" />
<glyph unicode="_" horiz-adv-x="1142" d="M63.5 21.5q-0.5 18.5 6.5 41.5q6 11 19.5 15t37 4h25.5q154 11 342 14q36 1 116 4t114.5 3t115.5 -3q18 -2 75 -4.5t102 -5.5t50 -8q1 -8 4 -28.5t4.5 -33.5t3 -31.5t1 -36t-2.5 -34.5q-27 -11 -450.5 -17t-470.5 1q-51 0 -76 10q-8 3 -10 6t0 5t2.5 3t-2.5 0 q1 14 -2.5 45.5t-4 50z" />
<glyph unicode="`" horiz-adv-x="301" d="M64.5 1614.5q-5.5 13.5 1.5 17.5q11 14 36 22.5t38.5 9.5t41.5 3q16 0 26 -16.5t13 -35t6 -44.5t4 -31q1 -9 4 -28t4 -29t-1 -27q-7 -31 -33 -32.5t-43 22.5q-14 18 -32 55.5t-28 52.5q-2 3 -12 16.5t-15 22t-10.5 22z" />
<glyph unicode="a" horiz-adv-x="749" d="M63 403q2 74 33 153.5t84 121.5q35 28 82 46q48 18 98 20q5 0 9 1q45 0 80 -22q1 28 1 51q0 65 -10 92q-5 18 -25 35.5t-41 20.5t-34 -23q-4 -4 -2 -12.5t4 -13t6.5 -12.5t5.5 -11q7 -18 8 -34q0 -22 -16 -37q-25 -25 -63 -25h-5q-42 2 -75 14q-58 24 -58 81q0 39 27 95 q62 127 178 127q69 0 136 -34.5t98 -92.5q12 -23 19 -47.5t10 -57t3.5 -49.5t0 -59t-0.5 -51v-45v-121q0 -35 1 -63q0 -75 -3 -103q-3 -29 -3 -90t-3 -90q0 -1 -3 -27.5t-3 -40.5q12 1 22 0q40 0 52 -12q10 -14 12 -48q1 -12 1 -21q0 -19 -3 -31q-29 -4 -62 -4h-8 q-38 0 -91 3t-54 3q-3 7 -5 20.5t-5 20.5q-9 -3 -35.5 -12.5t-40.5 -13.5t-36.5 -7.5t-41.5 -1.5q-74 3 -147 76q-34 31 -54.5 69.5t-29.5 86.5t-11 83t-2 92zM219 272q8 -46 38 -75q29 -28 66 -28q2 1 4 1q40 2 74 37q33 33 45 91q10 45 10 86v22q-4 50 -16 104 q-8 33 -22 47t-49 21q-18 6 -36 6q-11 0 -23 -2q-30 -6 -50 -33q-7 -8 -13 -19t-9.5 -18.5t-6.5 -23.5t-4 -20.5t-3.5 -25t-2.5 -22.5q-7 -55 -7 -94q0 -32 5 -54z" />
<glyph unicode="b" horiz-adv-x="722" d="M62 1411q0 11 4 25t112 18q36 1 60 1q49 0 53 -5l24 -6q0 -10 1.5 -36t1.5 -46t-3 -31q-12 -59 -12 -119v-82q-6 -21 -5.5 -37.5t5.5 -29.5q18 8 46 7h25q45 -4 90 -17.5t86 -44.5t58 -72q33 -83 42 -172q7 -73 7 -166v-43q1 -23 3 -97q2 -53 1 -88v-24q-1 -38 -12.5 -95 t-36.5 -97q-29 -48 -59.5 -80t-73.5 -49q-37 -12 -75 -12q-8 0 -17 1q-19 0 -61 11q-9 3 -22 11t-19 11q-3 -7 0 -20.5t0 -20.5q-4 -5 -10 -8q-5 -2 -9 -2h-6h-8h-10q-22 0 -80 3t-66 7q-14 6 -19 26.5t-6.5 48t-4.5 38.5l63 8v20l-6 170q-12 438 -12 656q0 116 16 350 q0 21 2 27q-53 -5 -61 -4q0 8 -2 29q-4 26 -4 36zM272 326q0 -9 2 -13q0 -3 1 -8t1 -6q3 -12 4 -38t5 -40q7 -35 33 -53q20 -14 46 -14q7 0 15 2q78 4 106 51q11 19 15 44t5 58t3 47q16 127 18 187v12q0 48 -12 160q-2 13 -3 45t-5.5 55.5t-16.5 42.5q-19 32 -57 52 q-25 13 -49 13q-12 0 -25 -3q-32 -8 -51.5 -30.5t-25.5 -59t-7 -64.5v-16q0 -24 2 -56q3 -44 3 -57q0 -133 -7 -311z" />
<glyph unicode="c" horiz-adv-x="667" d="M68 319q-6 115 -6 203q0 103 8 170q7 58 23.5 114.5t45.5 111t77 91t108 42.5q9 1 18 1q52 0 114 -24q74 -28 120 -86q30 -37 29 -77q0 -23 -9 -46q-13 -34 -57 -52q-29 -12 -59 -12q-15 0 -30 3q-45 9 -61 45q-3 8 -5 23.5t-4 27t-9.5 23t-20.5 14.5q-5 2 -10 2 q-23 0 -49 -33q-18 -22 -32 -53.5t-18.5 -48t-15.5 -58.5q-3 -13 -7 -39.5t-7 -39.5q-1 -5 -7 -45.5t-7.5 -51.5t-5.5 -45.5t-4 -51.5v-45t3 -50.5t9 -44.5q26 -104 98 -140q23 -12 45 -13t33 11.5t-2 42.5q-7 11 -7.5 21.5t2 17.5t12 16t16 13.5t20.5 13.5q27 15 54 15 t54 -16q49 -29 50 -88q0 -4 -1 -9q-4 -43 -41 -91t-77 -69q-53 -25 -111 -25h-13q-65 3 -122 33q-79 43 -109 118.5t-32 180.5z" />
<glyph unicode="d" horiz-adv-x="780" d="M63 455q0 161 7 227q4 53 7 79t14.5 70.5t29.5 73.5q56 93 141 117q23 8 50.5 8t46.5 -4t52 -13t48 -12q-2 27 -2 80q-1 47 1 111q3 108 3 168v31q-3 8 -8 55q15 -3 30 0h9q3 0 7 1t7 1q7 1 25.5 4t28 4t24.5 2h10q10 0 18 -1q13 -2 25 -7q14 -5 22 -16t9.5 -22t3 -31 t4.5 -33q-15 -9 -43 -9v-239q-5 -353 -8 -398q-11 -180 -11 -302q0 -49 2 -89q7 -115 7 -196q15 1 28 1q54 0 64 -14q4 -10 4 -23q1 -13 -3 -43q-2 -26 -3 -30q-14 -5 -33.5 -7.5t-29.5 -3t-37 0t-31 0.5q-32 -4 -50 -4q-6 0 -24 -2q-12 -1 -21 -1h-9q-12 1 -19 7 q0 1 -5.5 13.5t-4.5 23.5q-6 0 -11.5 -3.5t-11 -8.5t-8.5 -7q-14 -8 -43 -8q-38 0 -92 14q-86 28 -111 64q-105 144 -109 371zM207 403q0 -144 61 -200q47 -41 88 -41q34 0 64 28q12 9 29 31q6 6 7 13t-2 18t-3 14q-2 39 -2 111l5 105q3 68 3 112v20q0 20 -2 61t-2 62 q0 18 4 64q-7 12 -35 24q-30 16 -45 22t-37 10q-6 1 -12 1q-14 0 -26 -6q-18 -10 -36 -31q-15 -18 -25 -46.5t-13.5 -45.5t-7.5 -58.5t-5 -47.5q-9 -102 -9 -180q0 -21 1 -40z" />
<glyph unicode="e" horiz-adv-x="724" d="M61 569q0 66 9 129.5t32 131t58 117.5t92.5 82t130.5 32q42 0 76 -11.5t57 -28t40 -44.5t26.5 -52t16.5 -60.5t9.5 -58.5t5.5 -58q11 -101 11 -170q0 -38 -2 -56q0 -16 -107 -16h-47q-20 -2 -91.5 -11.5t-107.5 -9.5h-18q-25 0 -25 -10q0 -1 -0.5 -24t-0.5 -42t2 -51 t6 -56.5t13.5 -53t23 -47t35 -31t48.5 -12.5q32 0 69 16t44 43v5q-1 26 -27 58q-30 35 -32 56q-1 6 -1 12q-1 36 37 52q30 13 60 13q14 0 28 -3q40 -7 72.5 -35t50.5 -66q9 -21 9 -49q-2 -83 -95 -184q-42 -42 -102 -65t-121 -23q-55 0 -99 22.5t-73 58t-51 88t-33.5 102.5 t-18 111t-8.5 105.5t-2 93.5zM231 659q41 -8 101 -8q49 0 151 13q4 28 4 30q0 24 -12 74q-31 131 -96 131q-130 0 -148 -240z" />
<glyph unicode="f" horiz-adv-x="755" d="M63 943q0 53 31 73q59 0 121 12q6 2 10 40t6.5 82t4.5 52q18 76 78.5 129.5t140.5 71.5q21 5 47 5q24 0 53 -4q61 -9 92 -36q38 -33 46 -80q2 -9 2 -18q0 -36 -27 -66q-22 -26 -82 -39q-23 -5 -41 -5q-31 0 -49 14q-12 8 -18 39.5t-17 39.5q-20 10 -43.5 -17t-30.5 -50 q-20 -44 -20 -101q0 -1 3.5 -26.5t-1.5 -26.5q7 -1 19 -1q21 0 56 4q18 2 32 2q27 0 36 -9q0 -8 5.5 -39t5.5 -56t-11 -36q-17 -15 -44.5 -20t-64.5 -5t-49 -2q-5 -2 -7.5 -19.5t-2 -43t1.5 -50t2.5 -45.5t1.5 -24q3 -48 4 -98v-36q0 -39 -1 -86q-1 -72 -1 -101 q0 -13 17 -258q0 -11 2 -13q42 4 55 -14q16 -41 16 -65q0 -13 -6 -21q-10 -10 -37.5 -11.5t-63.5 2t-40 3.5q-7 0 -28.5 -3t-40.5 -5q-14 -2 -27 -2h-10q-18 1 -23 8q-7 12 -9.5 47.5t-9.5 48.5q38 10 72 10q0 70 -2 101l-6 221q-5 128 -5 294q0 72 1 150q-9 0 -38.5 -6.5 t-51 -5.5t-31.5 16q-23 26 -23 79z" />
<glyph unicode="g" horiz-adv-x="722" d="M70 479q-7 72 -7 137q0 178 52 302q43 99 118 141q55 24 117 24q21 0 40.5 -5t46 -16t36.5 -15q3 9 -2.5 28.5t-1.5 28.5q5 15 88 20q18 2 33 2q53 0 63 -16q7 -11 7 -42q0 -21 -3 -50q-7 0 -20.5 -2t-20.5 -2q-9 -76 -12 -154q-1 -1 -1 -118v-146q1 -261 1 -264 q0 -30 2 -94t2 -104q1 -4 1 -7q0 -39 -5 -89q-6 -54 -18 -97q-24 -79 -88 -125.5t-152 -57.5q-13 -2 -28 -2q-12 0 -26 1q-31 3 -60 10t-50.5 26.5t-23.5 48.5q-1 7 -1 14q0 29 17 58q22 35 57 45q18 4 33 4q33 0 53 -20q2 -2 16 -28t29 -30q18 -4 37.5 16.5t30.5 41.5 q2 5 25 106l-25 -6q-6 -1 -12.5 -2t-10 -1.5t-4.5 -0.5q-26 -5 -49.5 -5t-44.5 5q-89 24 -147 100q-49 65 -67.5 148.5t-24.5 191.5zM199 440q2 -33 6 -62.5t15 -68.5t27 -66t45 -45q24 -14 54 -14h10q23 2 40 12t26 20.5t17 34t10 34.5t6 39q1 8 2 12q18 150 18 297v129 q0 5 0.5 22t0.5 27.5t-1.5 25.5t-6 26t-11.5 18q-32 32 -89 45q-21 4 -41 4q-30 0 -55 -12q-10 -5 -18.5 -13t-15.5 -19t-12 -20.5t-8.5 -25.5t-6 -25t-5 -27t-3 -25t-2.5 -26t-2 -22q-5 -59 -5 -128t5 -147z" />
<glyph unicode="h" horiz-adv-x="827" d="M63 86q17 0 21 2l33 6q0 1 -3 0q-1 -1 -1 -0.5t2 2.5q18 0 26 2q-9 228 -9 420q0 109 3 207l6 276q3 52 3 157t3 157q-10 -1 -18 -1q-37 0 -43 15q-4 8 -4 35t4 72q32 6 104 6h6q67 0 105 -10q2 -4 1 -54v-28v-40q0 -63 2 -140q2 -103 5 -158h49.5h37.5q30 -1 74 -13 t75 -38q46 -37 80 -117q20 -48 31 -112.5t13 -106.5t3 -119q1 -54 1 -103q0 -148 -7 -258q0 -3 -1 -14.5t-0.5 -20.5t3.5 -16q28 4 55.5 1.5t34.5 -17.5q4 -4 2.5 -29t-0.5 -29l4 -16q2 -5 1 -7t-1 -3q-2 -3 -8 -10q-6 -6 -26 -6t-44.5 3t-28.5 3q-15 2 -56 2.5t-74 2.5 t-38 7q-4 4 -7 25.5t-3 31.5q0 12 0.5 17.5t6.5 9t9.5 3t20.5 1.5q2 2 12 2q-7 12 -10 33q-8 45 -8 101q0 7 -1 15q-1 50 3 111q4 70 4 103q0 16 0.5 55t0.5 60.5t-1.5 53.5t-5.5 58q-11 99 -64 155q-26 31 -68 38q-8 1 -16 1q-32 0 -57 -22q0 -190 -12 -580q0 -60 -4 -174 h51q0 -5 1.5 -30t1 -43t-4.5 -25q-8 -10 -33 -10q-19 0 -47 6q-28 -4 -59 -4t-68.5 2t-58.5 2q-2 10 -6 44q-4 28 -3 44v6z" />
<glyph unicode="i" horiz-adv-x="497" d="M64 62q2 14 12 22q10 7 24 10t36.5 3.5t25.5 0.5q-6 27 -10 80q-4 42 -5 92q-1 34 -1 58v22q0 30 2 95.5t2 84.5q4 174 4 223v15l-7 139v8h-49q-1 4 -15.5 39t-10.5 58q156 24 200 24q9 0 34 2t44 1t33 -7q-3 -10 -5 -37.5t-9.5 -40.5t-26.5 -18l-16 -4q0 -7 -1 -21.5 t-1 -21.5q-1 -60 -9 -155t-10 -128q-3 -82 -3 -235.5t-1 -188.5q0 -5 -3 -33.5t-3 -46.5h15q53 0 116 -18q0 -12 6 -46q4 -22 3 -38q0 -9 -1 -16q-7 -4 -17 -4.5t-23.5 1t-18.5 1.5h-10q-25 0 -61 -4q-46 -4 -58 -5q-43 -2 -78 -2q-52 0 -84 4q0 13 -6 31q-4 18 -10 30 q-4 9 -5 20q1 3 1 6zM146 1200q20 56 70 68q11 2 22 2q40 0 77 -33l2 -2q3 -2 5 -4q12 -32 12 -37q0 -2 -1 -1t-3 5q1 -7 1 -14q1 -34 -21 -62q-26 -34 -62 -40q-9 -2 -18 -1q-28 0 -56 15q-34 34 -34 72q0 16 6 32z" />
<glyph unicode="j" horiz-adv-x="407" d="M-224 -130q-3 10 -3 19q0 28 24 52q4 4 6 4q25 19 52 19q24 0 49 -15q11 -6 25.5 -21t28 -23t30.5 -5q95 13 118 176q6 48 6 120q0 31 -1 68q0 70 4 207t4 207q-1 35 -1 81q0 92 3 230q-3 0 -9.5 -1t-9.5 -1t-15 -1t-19 -0.5t-11 3.5q-7 7 -10.5 27.5t-5.5 46.5t-4 35 q31 3 92.5 4t93.5 4q26 1 36 0t34.5 -6.5t36.5 -7.5q0 -4 9 -35q5 -19 5 -31q0 -8 -2 -14q-8 -18 -46 -18q-7 0 -15 1q0 -141 -21.5 -463.5t-30.5 -406.5q-11 -141 -53 -231q-57 -110 -170 -125q-27 -4 -52 -4q-80 0 -132 40q-36 26 -46 65zM116 1256v5q0 17 6 34 q6 20 19 42q20 11 41 11l31 -6q36 -16 49 -48q0 -46 -25 -79q-17 -22 -41 -22q-12 0 -26 5q-26 8 -39.5 23.5t-14.5 34.5z" />
<glyph unicode="k" horiz-adv-x="872" d="M64 23.5q0 19.5 3 45t3 31.5q19 0 65 4q0 8 1 21t1 20q-1 27 -1 62q0 71 3 178l4 375v438v121q-33 0 -39 18q-2 17 -0.5 29.5t5 35t4.5 30.5q6 0 115 -5t116 -4q0 -67 2 -100h-47q-8 -300 -8 -466.5t8 -199.5q21 15 38 38t34.5 53.5t27.5 44.5q24 36 103 139l8 10h-59 q-1 6 -1 17q0 31 5 96q51 3 115 3q38 0 81 -1l146 -4v-27q0 -15 4 -43l4 -8t4 -9l2 -8q0 -2 0.5 -4t-0.5 -4q-1 -4 -4 -6q-4 -6 -23 -7t-43.5 1t-25.5 2h4q-8 -7 -19.5 -20.5t-15.5 -18.5q-46 -49 -100 -119q-56 -63 -90 -106q-2 -4 -6.5 -11t-4.5 -9t2 -11l23 -53l104 -262 q27 -70 62 -142q1 -5 20 -47q3 -6 9 -19t8 -16q10 0 16 -2q20 -4 45 -4q0 -13 2.5 -41t1.5 -45q-2 -27 -12 -31q-4 -1 -10 -1q-11 0 -29 4q-26 2 -79.5 4t-100.5 8q0 4 -4 30t-5 43t3 27l6 6q-19 27 -27 60q-34 127 -147 338q-48 -32 -72 -78q-6 -10 -6.5 -26t3 -40.5 t3.5 -27.5q6 -80 6 -234q37 4 57 2q1 -14 7.5 -49t5.5 -55q-36 -3 -103.5 -3t-101.5 -3q-5 0 -25 -2q-20 -4 -31 -4h-3q-9 0 -21 4q-14 4 -20 12q-6 6 -6 25.5z" />
<glyph unicode="l" horiz-adv-x="444" d="M63 1477q0 4 62 6.5t142.5 4t105.5 3.5q2 -12 2 -41.5t-2 -77.5q-17 0 -49 -4q-12 -77 -12 -175q0 -49 3 -103q3 -62 3 -126v-46v-108q-1 -90 -1 -128q0 -66 -5 -194t-5 -193q0 -19 1 -64t1 -65q0 -8 -1.5 -21t-1.5 -24t3 -21q12 0 13 2q0 2 10 2l24 5v-3q5 0 25 -4 q-2 -17 -1 -43l2 -43q0 -9 -3 -16q-15 -5 -58 -5q-27 0 -65 2q-98 5 -131 11q0 8 -1.5 25t-2 26.5t0 24.5t3.5 29q15 0 43 -4q-3 14 -3.5 33.5t0.5 46t1 34.5q0 70 -3.5 199t-4.5 170q-2 32 -2 102v102q2 109 2 167v38q-4 141 -4 187v14q0 54 12 168h-21q0 3 -1 0t-1 0 q-17 -5 -40 -3t-33 9q-3 2 -3.5 21t-1 44t-2.5 36z" />
<glyph unicode="m" horiz-adv-x="1290" d="M63 106q15 0 82 5q-3 3 -3 38q0 25 2 66q4 99 3 104v19q0 52 -4 150q-3 74 -3 126q0 32 1 56q5 48 9 188v33q-27 -7 -44 -4q-3 56 -3 94q0 19 1 33q15 4 92 15t109 11q8 -6 11 -13.5t3 -24.5v-21q91 47 169 48q17 0 34 -3q37 -2 82 -35q20 -16 27 -30q3 -3 7 -5t6 -2.5 t6.5 0.5t6 1.5t7 2.5t6.5 3q12 5 40 23t46 24q70 18 110 20q8 1 16 1q46 -1 88 -21q50 -24 83 -68q25 -33 42 -73t26 -92.5t12.5 -84t7 -97.5t4.5 -83l6 -104q8 -73 7 -130v-53q0 -65 3 -88l6 -31q13 3 22 3q28 0 34 -23q3 -8 5 -44q1 -15 1 -24q0 -14 -2 -16q-2 -5 -16 -9 t-36 -6t-45.5 -3.5t-53 -1.5h-49.5h-43.5h-27.5q0 10 -7.5 49t-4.5 49q4 8 27.5 14t25.5 8q3 0 19 4q0 3 -1 7.5t-1 7.5v35q-16 57 -17.5 242.5t-1.5 187.5q-9 62 -30 123q-2 5 -8 22.5t-9 24.5t-9 20t-13.5 21.5t-16.5 15.5q-41 35 -91 37q-3 0 -6 1q-47 0 -83 -40 q-17 -18 -25 -52t-8 -60.5t2 -69.5t2 -54q-1 -27 -4 -88.5t-3 -88.5t3 -89q10 -76 23 -141l6 -57q67 0 70 -3q10 -13 10 -108q-139 -12 -218 -12q-29 0 -50 2q0 16 -16 53t-11 55q15 0 47 4q2 8 2 28q0 30 -4 86q-6 94 -6 97v119q0 2 0.5 28t1 50.5t-0.5 50.5t-3 35 q-4 19 -5 56t-5 55q-5 31 -35 116q-31 20 -67 20q-11 -1 -23 -3q-50 -8 -88 -37q4 -67 4.5 -194.5t3.5 -184.5q4 -36 4 -76q0 -50 -6 -108q0 -5 -2 -56t-2 -69q35 -3 45 -23q6 -14 6.5 -28t-2.5 -34.5t-4 -29.5q-9 -2 -51 -2h-42h-43q-43 0 -84 1t-42 1q-10 0 -15 5 t-6.5 10.5t-3.5 18.5t-4 21q-3 12 -10.5 24t-6.5 29z" />
<glyph unicode="n" horiz-adv-x="815" d="M64 968v6q0 20 3 46q3 30 3 37q4 0 50 3q48 3 82 4h21q20 0 33 -1q3 -9 6 -31t6 -33q38 29 72 43q31 14 72 13h6q44 -1 92 -25q30 -15 53.5 -43.5t38 -68t22 -69.5t15.5 -71q18 -128 29 -352q0 -39 4 -174t4 -137q4 -5 25 -3t26 3q1 -11 15 -61q10 -35 10 -49q0 -6 -2 -9 q-5 -7 -28 -10t-45 -2.5t-49.5 1.5t-29.5 1q-12 0 -38 -2q-21 -2 -37 -3q-3 1 -7 1q-19 0 -35 6q0 11 -15.5 50t-6.5 54q1 3 6 4t15.5 1t15.5 1q20 0 32 2l-12 88q-10 77 -10 118q0 17 2 28q5 83 5 156q0 115 -13 206q-1 5 -5 32.5t-5.5 36.5t-6.5 32t-10.5 35t-14.5 28.5 t-20 28.5q-12 3 -23 3q-30 0 -53 -21q-32 -29 -61 -80q-33 -51 -35 -145q0 -17 1 -35q1 -81 9 -175q10 -98 10 -143q0 -8 -1 -14v-10q0 -35 5 -121q3 -46 3 -78q0 -37 -4 -54q-11 -7 -65 -12q-33 -3 -59 -3q-15 0 -26 1q-17 -1 -23 -1t-18 1t-15.5 5t-8 10.5t-3.5 18t5 27.5 q0 2 1.5 19.5t4 29.5t6.5 17q6 9 29 12q-2 68 -2 168q1 110 3 257q6 282 5 358q-41 -4 -51 10q-8 10 -8 34z" />
<glyph unicode="o" horiz-adv-x="722" d="M72 709q33 201 141 264q89 56 174 56q70 0 137 -38q110 -61 135 -315q1 -24 1 -50v-46.5t-2 -50t-3 -46t-4.5 -49.5t-5 -45.5t-5.5 -50t-5 -47.5q-5 -55 -10 -86.5t-18.5 -76t-40 -74.5t-66.5 -48q-9 -4 -19.5 -7t-18.5 -5t-21 -2.5t-19 -0.5t-21.5 1t-19 1.5t-21.5 2.5 t-20 2q-97 10 -164 57q-4 -2 -10 3.5t-13 16.5t-9.5 16.5t-6.5 12.5q-18 30 -28 68q-14 43 -27 154q-18 153 -18 261q0 71 8 122zM195 477q0 -158 28 -233q33 -84 146 -109q13 -3 25 -3q81 0 98 120q4 40 16.5 125.5t15.5 132.5q0 13 1 49.5t1 59.5t-2.5 60.5t-7.5 62.5 t-16.5 54t-27.5 46q-16 16 -42 27q-23 10 -54 10h-5l-4 -5q-89 -7 -131 -163q-39 -134 -41 -234z" />
<glyph unicode="p" horiz-adv-x="761" d="M60 -333q3 56 26 58q6 0 12 -4h21q-8 98 -11 217q-1 85 -1 143v43q1 66 5 222t5 193q0 303 22 454q-29 -7 -47 -4v9q0 29 4 116q19 4 78 9t82 5q18 0 39 -12q3 -8 3 -24t3 -23q46 12 67.5 16.5t59.5 5.5h7q34 0 61 -10q80 -26 133 -110q51 -88 63 -191q7 -64 7 -142 q0 -47 -3 -99q-2 -27 -2 -107.5t-8 -126.5q-24 -112 -80 -184q-45 -54 -104 -85q-52 -28 -109 -28h-14q-21 1 -53 14.5t-47 16.5q-3 -52 -3 -107l-4 -206h31h21q7 -17 10 -33q8 -24 8 -55q-2 -13 -10.5 -21.5t-25 -11t-28 -3.5t-32.5 0t-25 1q-8 0 -31.5 -3.5t-44.5 -6.5 q-14 -2 -28 -2l-14 1q-21 1 -29 9q-14 12 -14 55v11zM270 318q1 -14 5 -35.5t12 -38.5q16 -16 25.5 -25t28 -21.5t34 -18t36.5 -5.5t42 8q60 42 84 166q17 97 17 222q0 81 -7 173q-8 76 -60 154q-27 40 -69 40q-28 0 -62 -17q-16 -9 -27.5 -22.5t-18 -24t-12 -32t-6.5 -29.5 t-5 -34q-11 -76 -12.5 -217t-2.5 -162q0 -9 -1 -37q-1 -20 -1 -32v-12z" />
<glyph unicode="q" horiz-adv-x="724" d="M61 461q0 291 74 454q37 87 137 123q24 8 51 8q71 0 158 -55q-4 11 -5 37.5t-1 28.5q39 19 83 19q33 0 69 -11q47 -3 55 -23q4 -7 11 -48t7 -48q-6 -14 -53 -14q-1 -18 -2.5 -51.5t-2.5 -61t-1 -51.5v-324q-1 -49 -6 -146t-6 -146q-1 -27 -1 -52q0 -58 5 -106v-16.5v-23 t0.5 -23t2.5 -24.5t5 -19.5t8 -14.5q8 -10 22.5 -11t28 3t30 9t24.5 5q27 3 40 -19q12 -19 12 -42v-8q-2 -27 -7 -50q-7 -26 -28.5 -45.5t-47.5 -25.5q-27 -6 -51 -6q-13 0 -25 2q-66 8 -115 57q-29 33 -55 106q-7 19 -17 89q-4 34 -4 54q0 21 5 27q-70 -20 -109 -20 q-9 1 -78 14q-17 3 -64.5 41t-47.5 45q-14 14 -42 57.5t-32 67.5q-27 114 -27 238zM223 565q-3 -49 -3 -93q0 -128 24 -216q18 -75 73 -88q21 -4 36 -5h4q13 0 25 6q14 7 22.5 13t17 17t12.5 17.5t8 15.5l4 8q6 23 12 290q3 122 3 192q0 81 -4 89q-17 23 -36 41.5t-42 30.5 q-14 7 -28 7l-18 -3q-23 -8 -40 -39q-6 -12 -12 -27.5t-8.5 -24.5t-8 -31t-6.5 -28q-29 -113 -35 -172z" />
<glyph unicode="r" horiz-adv-x="739" d="M66 8q-2 3 -2 9q0 10 4 29q6 31 4 42q-1 7 -3 17q-3 11 -1 14t18 8q7 2 12 4q28 8 84 12q0 103 -9 279t-9 207q-4 118 -4 176q0 16 1 50t1 52q-33 -8 -54 -8q-24 0 -32 10q-6 6 -6.5 20t2 32t2.5 22v20t6.5 10.5t10.5 5t24 3.5q4 1 61 6q11 4 25.5 5t33 1t25.5 2h10h7h6 q5 0 11.5 -0.5t11.5 -3t7 -6.5q7 -9 3.5 -29.5t0.5 -33.5q85 31 153 31q28 0 52 -5q18 -4 29 -10q48 -23 83.5 -73t39.5 -101q1 -5 1 -9q0 -28 -21 -54q-24 -30 -58 -40q-16 -6 -24 -8.5t-24 -7t-26.5 -4t-23 2.5t-21 11t-14.5 23q-2 5 -6 49t-25 55q-23 10 -49 -16.5 t-39 -52.5q-6 -14 -9 -31t-3.5 -29t-1 -32t-0.5 -29q0 -25 -1 -35t-1 -33v-432q39 7 63 4q-3 -13 -2.5 -50t-8.5 -57.5t-36 -27.5l-47 -6q-14 -2 -39 -2q-6 0 -20 -1q-8 -1 -16 -1h-7q-9 0 -16 4q-16 2 -47 2q-3 0 -19 -1t-27.5 -1t-24 3t-15.5 9z" />
<glyph unicode="s" horiz-adv-x="710" d="M68 164q-6 16 -7 31q0 32 29 59q29 30 75 44q23 7 44 7t41 -8q40 -15 43 -66q2 -39 10.5 -51t44.5 -12q82 0 107 68q5 15 5 30q0 32 -22 66q-32 50 -82 88q-5 3 -34.5 23.5t-38.5 26.5t-33 23t-36.5 27.5t-30 26.5t-31.5 31q-40 44 -66 120q-19 58 -20 105q0 15 2 28 q8 53 49 107q33 44 85.5 77.5t104.5 37.5q15 1 30 1q91 0 189 -46q32 -16 64 -49t52 -81q9 -21 8 -43q0 -27 -13 -53q-22 -50 -115 -67q-20 -3 -36 -3q-49 0 -70 29q-11 13 -14.5 35t-3 39t-4.5 33t-18.5 18t-45.5 -6q-34 -12 -60 -42q-18 -21 -19 -44q0 -9 3 -18 q8 -36 34 -71t51 -56t68.5 -53.5t61.5 -47.5q50 -43 77.5 -68.5t59 -70.5t39.5 -88q2 -9 2.5 -28.5t-2.5 -49.5q0 -34 -8 -65q-14 -56 -70 -97q-28 -25 -59 -38q-83 -30 -160 -30q-68 0 -131 23q-39 12 -84 55t-65 93z" />
<glyph unicode="t" horiz-adv-x="661" d="M64 1003.5q0 12.5 6 24.5q66 4 92 4q6 19 6.5 41t-1.5 48.5t-1 41.5q0 4 1 11t1 10q-20 -1 -35 -1q-37 0 -43 7q-3 3 -3 17q0 18 5 53q2 7 3.5 11t2.5 7t5 4t6 2t10 2t14 2q49 9 76 10q10 0 18 -2l41 -6q46 -4 62 -4l6 -92q4 -37 10 -158q28 -7 85.5 -8t84.5 -8 q1 -4 6.5 -26.5t7 -34.5t-2 -28t-15.5 -24q-6 -5 -15.5 -7t-17 -2t-20 0.5t-17.5 0.5q-8 0 -24 0.5t-25.5 0.5t-23 -1t-25.5 -4q-6 -59 -6 -125q0 -11 -1 -22q1 -58 3 -128q2 -84 2 -126q-1 -17 -1 -36q0 -68 9 -155q0 -15 2 -36.5t7 -50.5t16.5 -47.5t27.5 -16.5 q13 0 35 36t29 41q27 16 53.5 8.5t46.5 -32.5q29 -35 33 -85v-12q0 -42 -22 -75q-17 -27 -55 -42.5t-72 -15.5q-68 0 -130 37t-88 97q-19 43 -25.5 88.5t-7 115.5t-1.5 90q-3 54 -4 150.5t-5 177t-14 150.5q-39 12 -70 12q-12 0 -22 -2q-10 6 -13 15.5t-2 23.5t1 18 q0 11 -3 27t-3 28.5z" />
<glyph unicode="u" horiz-adv-x="960" d="M63 1044q0 12 5 26t16 20q15 7 40.5 8t59.5 -1.5t43 -2.5q14 -1 61.5 0.5t61.5 -2.5q2 -26 1.5 -51t-1.5 -50h-49q-1 -7 -8 -28q-7 -31 -8 -127q0 -27 -1 -57q0 -74 2 -164q2 -125 3 -138q0 -124 33 -219q18 -56 51 -76q20 -13 52 -13q20 0 46 5q30 4 58.5 63.5 t35.5 98.5q10 56 16.5 232.5t6.5 273.5q2 47 2 133v6h-13q-59 0 -61 33q0 9 4 37l6 24q-4 4 -4 10q0 9 13 19q23 12 131 16q31 1 54 1q59 0 73 -7q16 -9 16 -42q0 -23 -8 -58l-31 -4q-1 -48 -1 -142.5t-1 -142.5q0 -458 4 -578q22 -3 63.5 0.5t53.5 2.5q-4 -18 2 -48 q7 -30 9 -48v-7q0 -16 -11 -37q-25 -14 -89 -16h-28q-62 0 -170 6q-23 16 -29 41q-73 -38 -147 -38q-26 0 -53 5q-101 18 -166 103q-59 78 -81 175.5t-28 227.5q-1 33 -1 75q1 31 1 67q2 84 5 188.5t3 111.5v29q-18 -6 -38 -6q0 9 -2 29q-3 26 -3 36z" />
<glyph unicode="v" horiz-adv-x="768" d="M63 1030q4 17 44 25t69 8l96 12q14 2 27 2h2q34 0 43 -12q8 -13 8 -74q-4 0 -16 -1t-19 -1q11 -72 30 -212.5t32 -241t16 -107.5q7 8 15.5 48.5t18.5 106t19 128t20 143.5t17 123q-22 0 -32 16q-4 6 -6.5 30.5t-0.5 33.5q2 6 3.5 8t3 2.5t7.5 1t13 2.5q215 0 219 -4 q4 0 2.5 -19t-0.5 -22q2 -18 13 -47l-60 -4q-140 -868 -158 -903q-8 -32 -26 -64h-5.5t-2 -1t-1 -1.5t-3 -2t-7.5 -3.5h-69h-62q-55 323 -67 387q-21 112 -56 313t-45 256l-45 -6q-1 2 -21 34q-17 27 -17 41q0 3 1 5z" />
<glyph unicode="w" horiz-adv-x="1263" d="M63 1046q-1 6 -1 11q0 6 2 10q2 8 10 10q24 8 155 8h17q147 0 147 -16q0 -5 4 -43t4 -41q-2 -5 -5.5 -9t-10 -6t-12.5 -3.5t-15.5 -1.5h-16h-17h-15.5q16 -64 45 -196t52 -237.5t30 -125.5q20 72 60.5 296t83.5 336q35 6 62 6h13q12 -12 96 -314t97 -372q2 46 16 133 t27.5 158.5t34.5 176t26 130.5q-40 0 -63 2v113h307q6 -1 6 -26q0 -11 -2 -26q-4 -51 -10 -58q-8 -8 -43 -8q-13 0 -29 1q-18 -95 -68.5 -320t-94 -416t-46.5 -204q-4 -2 -14 -10.5t-17 -9.5q-5 -1 -17 -1q-7 1 -15 1q-24 0 -68 6q-2 2 -28.5 137.5t-61.5 287t-57 187.5 q-23 -67 -91 -338l-67 -270q-3 -6 -49 -8h-20q-32 0 -56 4q-18 56 -33.5 113t-31 126t-23.5 108.5t-25 126.5t-22 114q-26 119 -63 368q-12 0 -37 9t-37 6q0 9 -3 23t-5.5 27t-4.5 25z" />
<glyph unicode="x" horiz-adv-x="905" d="M162 113q23 79 100.5 222t87.5 165q-107 285 -170 420q-3 9 -10.5 25t-9.5 20q-39 -4 -56 2q0 2 -0.5 20t-0.5 29t2.5 24.5t7.5 18.5q6 8 24.5 12t34.5 4t40 -1t26 -1q140 0 147 -4q21 -11 21 -88h-66l14 -35q7 -15 32.5 -67.5t41 -89t25.5 -70.5q93 151 133 244 q-19 -4 -36 -1.5t-24 17.5q-4 7 -4 35t4 35q2 7 5.5 11t9 5.5t9.5 2t12.5 1t12.5 0.5q47 6 135 9q30 1 51 1q44 0 60 -4q14 -7 18.5 -27.5t3 -41t1.5 -39.5q-40 0 -84 -6q-19 -80 -109.5 -251t-103.5 -206l45 -107q65 -142 88 -174q7 -12 26.5 -46t30.5 -52q14 1 25.5 1 t21.5 -4.5t17 -15.5q18 -30 18 -100l-94 -4q-33 -3 -62 -2.5t-70.5 2.5t-47.5 2q1 11 -11 42.5t-8 39.5q8 13 39 16q-90 152 -123 220q-16 -27 -45 -67t-47.5 -72.5t-30.5 -73.5q17 3 29 3q37 0 43 -28q5 -20 2 -39t-9 -32t-9 -13q-29 0 -92.5 -1.5t-116 -1.5t-92.5 3 q0 7 -1 15.5t-1 15.5q-9 45 -9 56q0 26 99 26z" />
<glyph unicode="y" horiz-adv-x="817" d="M64 992v21q0 27 4 29q7 12 14 14.5t29 2.5q55 2 99 2q66 0 107 -4q1 -26 1 -51.5t-1 -49.5q-4 -1 -10 -1t-13.5 0.5t-12.5 0.5v-12q0 -26 -3 -66q-4 -50 -4 -55q0 -53 9 -198.5t16 -192.5q1 -10 3.5 -37t4.5 -41t8 -35t15 -38q12 -26 36.5 -48t47.5 -22t50 20.5t38 36.5 q9 14 15.5 31.5t9 30.5t5.5 34t5 31q3 15 3 97q0 61 -2 160q-4 232 -10 276v8q-38 -3 -45 14q-3 8 -3 31t3 61q40 9 84 9q26 5 52.5 5t54.5 -5h22q23 3 29.5 0.5t13.5 -21.5q3 -8 6 -33.5t11 -38.5q-23 -2 -60 -2q4 -22 4 -86q0 -37 -1 -88q-3 -112 -3 -156v-18l4 -131 q1 -19 1 -43q0 -45 -3 -108q-6 -96 -6 -131q0 -39 -4 -117q-2 -86 -49 -203q-26 -67 -75.5 -115.5t-112.5 -52.5q-8 -1 -17 -1q-31 0 -67 11q-46 14 -82 41q-33 26 -45 45q-14 23 -10 55t26 50q42 33 82 33q17 1 28.5 -4t24.5 -15.5t23 -15.5q16 -10 31 -10q25 0 44 28 q31 43 31 92q-51 -23 -101 -23q-16 0 -33 2q-66 10 -124 58q-30 26 -51 60.5t-33.5 79t-18 76.5t-12.5 85q-5 35 -8.5 70.5t-4.5 80t-2 67.5v32v48q1 57 1 71q0 13 -3 91.5t-3 123.5q-30 -3 -61 0q0 7 -2 54z" />
<glyph unicode="z" horiz-adv-x="706" d="M61 20q0 19 168 442.5t172 455.5q-27 3 -54.5 0t-67 -10t-54.5 -9q26 -29 4 -51q-5 -5 -18 -7t-24.5 -2t-28 0.5t-19.5 0.5q-27 -5 -34.5 0.5t-8.5 33.5q-3 10 -3.5 23.5t0.5 32.5t1 26q0 32 2 48q0 20 -2 26q13 26 142 34q91 6 179 7q37 1 73 -1q122 -4 137 -9 q1 -4 1 -9q0 -15 -12 -35q-16 -26 -18 -34q-80 -145 -202 -455q-116 -295 -115 -364v-6q40 -4 107.5 -4h86.5q0 8 -4.5 23t-4 25.5t10.5 18.5q9 12 59 5q32 -4 49 -5q10 0 15 2q9 -57 9 -97q0 -35 -7 -56q0 -45 -21 -64q-19 -17 -47 -17q-4 1 -8 1q-34 2 -75 4 q-48 3 -152.5 3t-161.5 3q-5 0 -20.5 -2t-25.5 -2.5t-19 5t-9 19.5z" />
<glyph unicode="{" horiz-adv-x="649" d="M63 887q3 55 46 106q14 18 47 47q64 56 80 111q14 47 10 143q0 5 -2 33t-2.5 36t-1.5 33.5t0 37t3 33.5t6 36t10 31.5t15 32.5q17 29 49.5 55t63.5 37q25 10 74 14q2 0 12.5 0.5l21 1t21.5 0.5t19 -1.5t10 -4.5q12 -19 12 -92q0 -45 -2 -68l-35 7q-32 3 -63 -13 q-23 -14 -35 -40t-13 -62t1.5 -60t7.5 -57q11 -89 -12 -177.5t-76 -156.5q-66 -66 -66 -73q5 -20 33 -52q21 -10 63 -78t50 -90q24 -57 36 -188q3 -11 3 -51v-74.5t2 -36.5q12 -42 28.5 -64.5t50.5 -27.5q4 -1 21.5 -0.5t26 -5t8.5 -21.5q0 -22 -5.5 -65t-9.5 -47 q-2 0 -36 -4.5t-71.5 -6t-80.5 18.5t-66 63q-49 91 -59 224q-6 49 -2 92.5t-1.5 97t-25.5 88.5q-11 16 -27 32t-27.5 24t-33.5 24q-32 26 -55.5 72t-22.5 86z" />
<glyph unicode="|" horiz-adv-x="344" d="M61.5 65q1.5 24 6.5 66q14 134 18 463q8 308 -18 928q0 77 2 116q0 1 -3.5 38t0 59t17.5 26q31 13 106 13q5 0 19.5 0.5t21.5 0.5t19 -2t17.5 -6t10.5 -12t5 -20q-1 -32 -6.5 -95.5t-6.5 -95.5v-401q-1 -63 -8.5 -198.5t-7.5 -205.5q0 -51 5.5 -192.5t2.5 -220.5 q-6 -55 -2 -164q0 -10 2 -43t2 -50.5t-1.5 -43.5t-6.5 -45q-10 -8 -24.5 -14t-24 -9t-30.5 -5t-27 -2.5t-30.5 -1.5t-25.5 -1q-21 16 -27.5 55t-5 63z" />
<glyph unicode="}" horiz-adv-x="638" d="M63 1553q-2 35 9 57q3 10 6.5 17t9 11t9 6.5t12 3.5t12 1t16.5 -1t17 -1q60 -2 112.5 -25t79.5 -70q28 -48 40 -113t13 -118t17 -115.5t53 -107.5q9 -12 34.5 -43t38.5 -49t24 -48t9 -59q-3 -42 -25.5 -78t-57.5 -75t-50 -66q-24 -43 -29.5 -99.5t0.5 -110t10.5 -107 t-6 -107t-42.5 -94.5q-48 -67 -148 -96q-54 -13 -71 -13q-15 -2 -29 8v-2q-9 -9 -14.5 0t-3.5 17q-10 49 0 149q109 13 135 74q8 50 8.5 128t-0.5 137.5t13.5 129t47.5 119.5q9 13 29 34t29 33t7 30t-24 36q-91 69 -108 223q-3 24 -5.5 114t-15.5 136q-7 34 -26.5 49t-56 23 t-52.5 16q-25 11 -27 46z" />
<glyph unicode="~" horiz-adv-x="993" d="M66 784q16 33 104 84q169 107 299 13q97 -66 147 -80q88 -25 129 47q14 26 48 31t67.5 -5.5t50.5 -27.5q12 -9 16.5 -20.5t0 -24.5t-10 -24.5t-18.5 -26t-21 -23t-21 -21t-15 -14.5q-40 -42 -99 -59t-119.5 -9.5t-117 28t-100.5 50.5q-66 42 -117 37t-109 -51 q-38 -38 -51 -16q-22 22 -34.5 36t-23.5 37t-5 39z" />
<glyph unicode="&#xa1;" horiz-adv-x="380" d="M64 -224.5q0 42.5 3.5 84t9 87.5t5.5 65l14 244q3 65 2.5 192.5t3.5 161.5q0 53 10 162t21 109q80 5 117 -2l2 -11q3 -31 3 -103t3 -114l23 -325q16 -324 26 -435q0 -3 4.5 -33.5t5.5 -45t1 -40.5t-6 -45.5t-17 -33.5q-17 -19 -39.5 -26t-39.5 -5.5t-49 7t-50 7.5 q-27 3 -40 30t-13 69.5zM88 1069q-5 36 14 56.5t48.5 22t60.5 -4.5q34 -8 59.5 -29t26.5 -51q0 -34 -16 -56.5t-40 -30.5t-37 -10.5t-22 -2.5q-37 -4 -62.5 31t-31.5 75z" />
<glyph unicode="&#xa2;" horiz-adv-x="794" d="M63 895q-3 212 115 362q49 62 124 94.5t155 22.5q44 -5 95.5 -32.5t93.5 -70t67 -89.5t15.5 -96t-60.5 -85q-6 -3 -18.5 -7.5t-18.5 -6.5q-21 -8 -49 -8q-14 0 -37 10q-25 15 -33 25q-2 3 -6 9.5t-6 10t-4 9t-2 10.5v41v10q0 29 -1.5 43.5t-14 31.5t-38.5 23 q-38 9 -69 -3t-50 -38.5t-33 -61.5t-21 -74.5t-11.5 -75.5t-7.5 -67q-1 -18 -2 -26q-22 -266 22 -510q20 -130 117 -137q54 -3 86 22q33 21 39 39q13 30 25 35q13 -4 25.5 -16.5t23.5 -16.5q28 -11 78 -26q20 -6 28 -16.5t3.5 -26t-11.5 -27t-20 -29.5q-48 -67 -130.5 -106 t-166.5 -33q-65 5 -115.5 35.5t-81.5 73.5t-52 102t-30 111t-12 110q-7 131 -11 455zM338 -139l4 49v29q0 13 1 39t1 40q0 5 -1 15.5t-1 15.5v12l178 -10v-12q0 -74 2 -113q0 -4 -2 -9.5t-2 -8.5q6 -21 0 -43q-2 -5 2 -17q9 -14 8.5 -19t-6.5 -19q-30 -11 -49 -5 q-10 0 -12 -2q-27 -6 -55 0q-25 4 -33 -2q-12 -5 -31 6q-4 0 -4 7q5 5 2 23.5t-2 23.5zM340 1288q0 8 1 19t1 16q4 28 -2 39q-3 6 0 14l4 41q2 15 2.5 18.5t-1.5 15t-3 19.5q-3 22 0 48q2 8 2 30q0 16 14 70q3 8 9 8q28 7 36 8q14 2 41 2q8 0 25 -1t25 -1q20 0 24 2 q31 6 31 -24q0 -3 0.5 -9.5t0.5 -9.5t-1.5 -7.5t-5.5 -8.5q-2 -2 -2 -8q3 -13 -1 -35t-1 -35q1 -3 -0.5 -7.5t-1.5 -6.5q-4 -13 -2 -15q6 -20 5 -27.5t-5.5 -21.5t-4.5 -26q0 -14 -1 -40t-1 -38v-14q-3 -6 -3.5 -11.5t0.5 -13.5t1 -12q0 -8 -2.5 -20.5t-3.5 -16.5l-178 10 q2 14 2.5 16.5t-2 16.5t-2.5 16z" />
<glyph unicode="&#xa3;" horiz-adv-x="1021" d="M61 709q0 49 50 49q36 0 98 4q10 15 6 37l-8 186v90q1 0 1 46l-1 46q0 15 -2 45t-2 45q3 175 125 285q44 44 82 66q101 58 202 43q31 -3 54 -11l24 -8q3 -1 11 -1t12 -1l37 -16l14 -6q3 -3 10 -6.5t10 -6.5q22 -19 37 -43q17 -28 17 -65q0 -3 1 -9t0.5 -11t-3.5 -9 l-9 -22l-18 -41l-12 -19l-11 -14q-27 -27 -67 -27q-11 0 -41 13q-27 12 -39 26l-12 15q-3 3 -5.5 9t-5.5 9q-4 4 -10 13.5t-10 13.5l-21 18q-23 10 -34 10q-19 0 -39 -14q-49 -29 -64 -86q-6 -16 -10.5 -33.5t-9 -40.5t-6.5 -33q-3 -11 -4 -23.5t-1 -28.5t-1 -25 q-6 -53 -7 -56q-7 -68 -4 -157q3 -25 4 -78t4 -78q0 -7 1.5 -19.5t1.5 -19.5q12 -6 45 -6l184 6h39q34 -3 37 -37q4 -29 2 -47q-4 -45 -8 -61q-5 -20 -13 -26t-30 -5q-4 0 -7 1t-4 1q-26 -4 -55.5 -4t-65 2t-55.5 2q-18 0 -29 -2t-17.5 -2.5t-9 -8t-3.5 -9.5t-0.5 -17 t0.5 -20q-3 -39 0 -76q6 -67 -21 -195q-4 -34 -10 -51q16 -14 47 -14q68 -8 152 -8q50 -2 127 24q47 15 59 66l10 36q6 16 25 19q60 3 131 -16q33 -9 20 -46q-37 -100 -90 -172q-27 -36 -86 -65q-87 -44 -155 -37q0 4 -49 2l-50 -2q-135 0 -231 12l-150 13q-3 0 -8 1t-8 1 q-6 33 -10 135q22 22 31 26q53 41 71 111q11 38 8 92l-4 154q-4 29 -10 37q-10 1 -29.5 -0.5t-25.5 -1.5q-12 0 -33 -1t-33 -1q-20 0 -26 24q-5 15 -5 31q-2 25 -2 74z" />
<glyph unicode="&#xa4;" horiz-adv-x="849" d="M64 22.5q1 10.5 10 29t16 30.5t16.5 27t12.5 20l17 24q17 24 27 41t13 27q1 16 -11 46.5t-13 35.5q-4 17 -5 38t-1 50t-1 43q-8 92 2 209q3 33 21 93.5t22 90.5q3 26 0 37t-16 37q-85 136 -80 146q11 23 52 51t49 35q29 -19 65.5 -75t44.5 -65q0 3 38.5 21t45.5 18 q47 8 105 -2q4 -1 25 -5.5t38 -8t18 -2.5q16 9 19 33q1 3 5.5 8.5t10.5 12t8 9.5t12.5 21.5t14.5 29.5q14 10 36.5 5.5t36 -11.5t35 -19t33.5 -16q8 -3 -12 -65.5t-44.5 -132t-24.5 -80.5q-1 -14 4 -90q2 -32 11.5 -132t10.5 -155q0 -76 -10 -135q-2 -10 -14 -45.5 t-11 -54.5q3 -19 14.5 -40t30 -46t25.5 -37q2 -3 6.5 -10.5t6.5 -10.5t4.5 -9t2.5 -10.5t-1.5 -11t-4.5 -14.5q-16 -12 -28 -10q-46 -46 -105 -43q-3 -3 1 -4t3 -4q-8 0 -11 5.5t-7 6.5q-3 8 4 8q-4 6 -22 37.5t-31 46.5q-59 -41 -146 -37q-16 0 -76.5 18t-60.5 27 q-1 6 -4.5 10.5t-9.5 8.5t-8 6q-23 -96 -74 -147q-10 -4 -19 -1.5t-12.5 4.5t-10 8.5t-9.5 8.5l-45 25q-3 2 -7.5 5.5t-7.5 4.5t-8 0q0 1 -4.5 1.5t-9.5 2t-6 4.5q-3 12 -2 22.5zM310.5 685q0.5 -32 0.5 -64q3 -120 23 -222q23 -111 72 -151q22 -20 44 -16t38.5 20t27.5 39 q14 28 21 59t12.5 71.5t9.5 61.5q-3 28 -3.5 84.5t-5 101t-18.5 81.5q-16 51 -65 77t-96 -4l-19 -16q-22 -22 -32 -56t-9.5 -66z" />
<glyph unicode="&#xa5;" horiz-adv-x="915" d="M62 1439q-3 9 1 13q17 2 77 4.5t112.5 3.5t52.5 0q43 0 53 -10q4 -4 16.5 -34t12.5 -36q-3 -21 -49 -24q137 -436 145 -441q66 177 146 437q-16 -2 -47 -2q3 12 -8.5 49t-4.5 47q5 7 64.5 10.5t117.5 2.5t58 -5q29 0 37 -20q5 -16 4 -48.5t4 -48.5q-12 0 -38 -1t-38 -1 l-16 -51q-5 -22 -53.5 -184t-92 -312.5t-43.5 -171.5q0 -1 0.5 -33t0.5 -74.5v-101v-113.5t-1 -111t-2 -95q10 3 17 0.5t14 -18.5q24 -54 21 -86q-12 4 -25.5 5.5t-31 0.5t-27 -2t-31 -4t-25.5 -4t-18 -4t-24 -4.5t-21.5 -1.5t-18.5 6t-8 18q-3 12 1 46t12 42q11 8 38 8 q0 41 2.5 114t2.5 85q0 41 -6.5 158.5t-10.5 156.5q-8 63 -37 125q-15 32 -76 195.5t-86 238.5q-8 27 -24.5 70.5t-22.5 60.5l-20 54q-4 -2 -21 -2q-18 -5 -24.5 -4.5t-16.5 10.5q-6 8 -13.5 27.5t-10.5 25.5q-2 3 -7 11t-6.5 11t-4.5 12zM205 742.5q0 31.5 5.5 63.5 t12.5 32q57 3 250 -4.5t324 12.5q11 -1 10.5 -67.5t-10.5 -76.5q-42 0 -229 4.5t-357 4.5q-6 0 -6 31.5zM205.5 467q-2.5 39 1.5 68q8 19 31.5 19.5t35.5 -5.5q1 0 34.5 0.5t77.5 1t100.5 0.5t109 -0.5t97.5 -1.5t72.5 -3.5t27.5 -6.5q4 -12 4 -68q0 -4 0.5 -15.5t0 -17 t-1.5 -13.5t-4.5 -11.5t-9.5 -3.5q-5 0 -92 -0.5t-130.5 0t-119.5 2t-130 5.5t-91 11q-11 0 -13.5 39z" />
<glyph unicode="&#xa6;" horiz-adv-x="339" d="M63 1202q-2 17 11 47q3 10 14 13q8 4 21 4l108 6h4q24 0 27 -25q0 -35 2 -53q6 -75 10 -211q2 -14 2 -47l4 -285v-41q-3 -24 -28 -30q-12 -4 -56 -9h-53q-32 3 -35 35v37l-26 332v74q9 80 -5 153zM88 467q0 39 4 51l37 8q39 2 111 2h12q17 -3 20 -20v-57q0 -4 -1 -12.5 t-1 -12.5q6 -36 7 -74t-0.5 -85t-0.5 -74q0 -46 -1 -138.5t-1 -138.5v-45q-3 -30 -28 -35l-105 -12q-4 0 -24 4q-21 9 -21 27q-2 18 -2 57q-2 156 -2 463q0 15 -2 46t-2 46z" />
<glyph unicode="&#xa7;" horiz-adv-x="1175" d="M74 -289q7 3 20.5 12t22.5 13q9 3 29.5 5t29.5 5q7 1 17.5 5.5t15.5 4.5q20 -3 33.5 -31t21.5 -34q25 -65 82 -99t135 -18q55 10 86 51.5t34 94t-11 106t-41 90.5q-29 39 -69.5 74t-91.5 72t-79 63q-125 99 -190 244q-44 92 -35 195t74 186q19 25 59 49q57 37 125 65 q12 3 30 6.5t29 6.5q-4 0 -17 41.5t-13 50.5q-20 90 8 180t88 153.5t147.5 95t178.5 11.5q150 -31 229 -127q45 -55 63 -108q9 -26 17 -72l12 -64q-11 0 -15.5 -4.5t-2.5 -9.5q-1 4 -82 -14q-44 -10 -45 -9q-25 11 -41 31q-14 17 -26.5 57t-22.5 56q-35 59 -99 76t-123 -13 q-54 -28 -78.5 -86.5t-13.5 -122.5q19 -125 172 -251q58 -46 102 -86t94.5 -97t82 -110.5t51 -120t14.5 -133.5q-14 -143 -98 -211q-42 -34 -104 -56q-22 -6 -74.5 -15t-56.5 -1q31 -59 42 -123t-4 -129q-20 -68 -41 -109t-65 -81q-68 -59 -154.5 -92t-180 -22.5 t-155.5 77.5q-61 61 -98 143q-49 124 -18 129zM186 313q2 -7 13 -14q0 14 -13 14zM293 479q4 -54 30.5 -99t73.5 -95q7 -7 37.5 -44t56.5 -60.5t48 -26.5q18 -2 71 -14.5t84 -12.5q52 0 96.5 29t61.5 77q32 96 -72 236q-20 28 -47.5 57.5t-48 48t-56.5 50t-53 47.5l-24 22 q-18 24 -35 35q-19 15 -67 -6q-67 -29 -115 -101.5t-41 -142.5z" />
<glyph unicode="&#xa8;" horiz-adv-x="477" d="M69 1548q17 40 50 54q35 15 69 -19q18 -17 13.5 -41t-17 -43.5t-28.5 -32.5q-61 -15 -82.5 13.5t-4.5 68.5zM272 1501q-23 41 12 74q33 31 75 21q34 -9 51 -46q20 -47 -23 -71q-26 -18 -62 -12t-53 34z" />
<glyph unicode="&#xa9;" horiz-adv-x="1300" d="M62.5 997.5q-0.5 28.5 0.5 118.5v25q5 37 13 120t16.5 145t22.5 120q11 55 39 106q15 24 43 56q70 74 104 100q95 70 197 102q9 2 47 13.5t61 15.5q10 2 80 8q30 0 84 -4q67 -3 135 -39q30 -17 43 -24.5t34.5 -24.5t35.5 -35q10 -17 22 -24q41 -30 64 -82q12 -23 33 -80 q7 -15 18.5 -44.5t18.5 -45.5q9 -16 22 -86q15 -82 27 -168q4 -50 4 -72q0 -65 6 -98q10 -97 2 -174q-9 -129 -37 -267q-14 -79 -57 -167q-67 -132 -158 -189q-64 -39 -114 -61t-105 -29q-111 -13 -158 -8q-66 13 -84 14q-73 9 -178 72q-32 19 -70 57q-82 91 -141 203 q-25 54 -37 113q-3 12 -7 34t-7 33l-6 31q-2 31 -7.5 119t-6 116.5zM236 1038q2 -63 2 -186l6 -41q3 -25 37 -123q9 -25 51 -117q43 -84 114 -116l23 -15q53 -31 74 -39t84 -24q19 -3 37 0q35 6 94 33q92 36 155 102q61 61 84 135q29 82 39 199q4 86 4 127q2 31 2 96h-2v74 q0 88 -10 157l-10 84q-16 96 -35 129q-4 7 -9.5 19.5t-9.5 20.5t-11 18t-15 18l-43 49q-48 60 -158 86q-95 24 -207 -14q-38 -13 -53 -22q-86 -62 -123 -99q-31 -36 -49 -76q-3 -5 -5 -16t-5 -18q-31 -101 -39 -187q-4 -30 -7 -64.5t-6 -76t-5 -64.5q-4 -32 -4 -49z M319 1030q-1 13 1 37t2 33q0 146 16 233q37 169 156 254q123 87 266 41q37 -8 63 -41q3 -4 27 -22q11 -8 31 -33q5 -7 13 -21.5t13 -21.5q4 -6 11 -19l6 -12q4 -20 4 -28q0 -20 -8 -33q-3 -13 -7 -17q-11 -14 -14 -16q-16 -23 -35 -31q-20 -12 -35 -14q-27 -4 -34 0 q-30 13 -37 20q-11 13 -23 37q-20 44 -45 80q-16 16 -28 23q-13 3 -25 -9q-2 -2 -23.5 -19.5t-29.5 -31.5q-1 -1 -8 -11.5t-9 -16.5q-43 -96 -51 -170l-6 -41q-8 -45 -12 -183q-3 -71 18 -139q25 -74 62 -113q23 -26 55 -32q6 -3 18.5 -3t14.5 -1q4 0 8 -4q15 -4 16 -3 q4 1 7 3.5t5 4.5t5 6.5t4 6.5q10 17 20 57q12 45 25 62q7 10 28 20q6 3 12.5 5t11.5 3t7 2q18 3 45 -4q16 -3 31 -10q4 -4 7 -8.5t6 -11t5 -9.5q18 -51 19 -67v-19.5v-22t-1 -20.5t-3 -22.5t-5.5 -20t-9.5 -20.5q-28 -42 -88 -88q-28 -22 -69 -37q-19 -6 -55 -10t-44 -6 q-17 -2 -49 2q-24 0 -53 16q-4 2 -24 12.5t-29 16.5q-12 6 -22 16t-22 24.5t-20 22.5q-10 12 -19 26t-20 35t-16 29l-6 15q-44 73 -47 174q-1 13 -4 65t-3 80z" />
<glyph unicode="&#xaa;" horiz-adv-x="604" d="M61 1061q3 62 13 129q11 67 78 121l28 16q58 37 137 10l43 -16q13 17 0 47q-7 20 -16.5 28t-34.5 19q-15 -3 -30 -24q-14 -26 -48 -23l-53 6q-15 3 -24 12q-19 10 -13 31q20 60 47 96.5t76 55.5q83 32 135 16q56 -14 90 -69q30 -51 43 -127q18 -72 5 -166 q-14 -136 -11 -242q0 -17 1 -49t1 -49q0 -4 -1 -12.5t-1 -12.5q-4 -9 -5.5 -12t-6 -5.5t-12.5 -2.5q-33 -2 -96 -2q-21 0 -29 14l-12 27l-15 -7q-41 -37 -117.5 -29.5t-121.5 60.5q-34 45 -43 100q-7 31 -7 60zM184 1094q3 -47 33 -86q33 -44 82 -19q48 26 57 76q0 23 2 37 q2 8 2.5 15.5t-2 16t-4.5 14.5t-6 16.5t-6 15.5q-15 35 -57 41q-13 0 -15 -2q-41 -13 -64.5 -48t-21.5 -77z" />
<glyph unicode="&#xab;" horiz-adv-x="819" d="M61 737q9 32 52 90q96 128 172 265q10 21 28 49q19 25 47 10q11 -7 35 -19.5t35 -19.5q20 -11 10 -31l-16 -28l-47 -76q-15 -24 -119 -184q-4 -6 -10.5 -15.5t-8.5 -13t-4.5 -10.5t-1.5 -10.5t3.5 -11.5t7.5 -16t14 -20q20 -27 58 -78t57 -79l39 -41q51 -59 67 -97 q-26 -44 -84 -82q-9 -7 -26 3q-4 3 -23 22q-108 134 -158 207q-26 38 -102 145zM350 739q-13 25 6 41q17 15 34 34t37 43.5t32 37.5q33 42 51 68l65 94l50 69q10 20 26 23q28 -12 92 -49q21 -15 9 -35l-148 -236q-6 -11 -14.5 -22.5t-20.5 -25.5l-18 -21 q-12 -15 -12.5 -19.5t8.5 -23.5q28 -53 92 -144q42 -56 98 -145q23 -34 -16 -51q-15 -8 -44 -18.5t-42 -16.5q-17 -10 -35 8l-18 23q-55 93 -133 205q-30 51 -60 92q-7 11 -19.5 34t-19.5 35z" />
<glyph unicode="&#xac;" horiz-adv-x="1198" d="M61 862q0 23 15 35q54 4 82 4q18 0 51 -1t51 -1q29 0 54.5 -1t56.5 -1h110l105 4h8q35 -2 41 -2.5t40.5 2t39.5 2.5q13 0 35.5 2t33.5 2l99 4h24l154 -10q43 0 74 -10v-21q0 -24 -2.5 -70t-2.5 -69q0 -73 3 -88q2 -37 1.5 -53.5t-3 -52.5t-3.5 -54q0 -9 -8 -20 q-17 -14 -37 -14l-94 6q-24 3 -31 26q0 3 -1 10.5t-1 10.5q-1 24 -4 72.5t-3.5 73t1.5 73.5q0 8 -2 10q-4 5 -9 7.5t-8 3t-12 0t-10 -0.5q-23 0 -39 0.5t-21.5 0.5t-18 -0.5t-39.5 -2.5q-16 -1 -69 0.5t-69 -2.5q-33 -4 -82 -4q-3 0 -75.5 -1t-144 -1.5t-141.5 0.5t-85 4 q-30 0 -53 10q-1 3 -2.5 4.5l-2.5 2.5t-1 2q-5 98 -5 108z" />
<glyph unicode="&#xad;" horiz-adv-x="802" d="M61 649v125q0 25 9 31q2 2 12 2l141 -4h430q33 -3 60 -10q6 0 18 -9q6 -3 6 -22q4 -94 4 -133t-14 -39q-31 0 -45 2q-2 0 -78 5.5t-161.5 11t-110.5 5.5q-18 0 -103.5 1t-101.5 1q-22 0 -27 -4q-7 -2 -10 -2t-10 2.5t-10 3.5q-9 0 -9 33z" />
<glyph unicode="&#xae;" horiz-adv-x="1116" d="M61.5 1165q0.5 29 4.5 74.5t14 85.5q2 8 7.5 34t7.5 35t8.5 30t12 33t15 28.5t21.5 30.5q21 26 49.5 47.5t48.5 33.5t61 27t56 19.5l65 19.5q156 44 340 -14q185 -55 236 -267q14 -54 19 -157t7 -121q26 -312 17 -498q-1 -18 -2.5 -59t-3.5 -65t-9.5 -57t-21.5 -58 q-26 -48 -39 -68.5t-39.5 -45.5t-61.5 -42q-27 -12 -67 -19t-69 -9.5t-77.5 -5t-64.5 -3.5q-16 0 -53.5 1.5t-97.5 7t-85 14.5q-75 24 -131 69q-161 131 -161 430q-5 250 -5 301q0 23 -1 81t-0.5 87zM227 1051.5q1 -42.5 4.5 -121.5t4.5 -117q4 -82 4 -123q0 -80 6 -115 q1 -8 6 -48.5t10 -59.5q29 -107 117 -121q21 -4 43 -5.5t47.5 -0.5t42.5 2t47.5 4t42.5 4q8 1 42.5 2t53 3t52.5 7.5t54.5 15.5t43 25.5t35.5 40.5t16 58q9 114 -10.5 357t-20.5 292q-11 159 -47 235q-43 88 -106 119q-34 16 -82.5 19t-79 -1t-86.5 -14q-139 -27 -188 -112 q-16 -26 -26.5 -66t-14.5 -69t-9 -88q-3 -80 -2 -122.5zM315 1264q0 4 1 11.5t1 10.5q1 5 1 14.5t1 14.5l1 9q0 9 -1 9v7v9t0.5 8.5t2 8t4 6t6.5 4.5q8 3 24.5 4t24.5 4h51v-2q28 4 37 4q132 15 209 -38q59 -42 91.5 -113.5t27.5 -142.5q-2 -58 -8 -105.5t-13.5 -75 t-16 -45.5t-15 -24t-9.5 -4q19 -11 33.5 -32.5t22 -42t13 -53.5t7 -52.5t3.5 -54.5t3 -44v-29q1 0 4 -1t4 -1h11q-2 -4 -2 -18q0 -7 -2.5 -18.5t-2.5 -18.5q0 -12 -4 -16h-16h-12q-3 -1 -6.5 -2t-5.5 -1.5t-3 -0.5q-6 1 -15 -0.5t-11 -1.5q-4 -2 -19 -2q-3 0 -6 -1.5 t-6 -1.5q-23 0 -29 -2q-14 0 -18 -2q-15 -3 -37 0q-12 0 -16 4q-7 5 -7 27v29q0 13 5 18q1 3 3.5 3.5t6.5 -0.5t6 -1q3 0 5 -1t5 -1q0 77 -18 164q-9 24 -17.5 39t-28.5 25.5t-48 3.5q-4 -19 -7 -57.5t-5.5 -88.5t-4.5 -74q22 -7 23 -10v-26v-25q0 -15 -6 -18 q-2 -4 -11.5 -2.5t-11.5 0.5q-40 -5 -45 -5q-13 0 -41 -1t-41 -1h-35q-3 0 -4.5 0.5t-1.5 2v3.5v3v53q0 14 6 16q4 0 7 -1l3 -1h13q-8 88 -11 250.5t1 261.5q1 28 1 77.5t1 88.5t4 76h-2q-1 -2 -21 -8q-22 -4 -33 -2zM539 922q21 0 57 16q21 13 28.5 70.5t-5.5 120t-44 85.5 q-7 0 -15 3.5t-15 3.5q2 -64 1.5 -94.5t-3.5 -97t-4 -107.5z" />
<glyph unicode="&#xaf;" horiz-adv-x="858" d="M61 1636v115q0 23 9 29q4 2 14 2l152 -4h466q44 -4 64 -9q7 0 20 -8q7 -3 7 -20q4 -82 4 -123q0 -37 -17 -37q-33 0 -47 2q-3 0 -85.5 5.5t-175 10.5t-118.5 5q-20 0 -112.5 1t-108.5 1q-17 0 -29 -4q-9 -1 -12 -0.5t-10 2t-12 2.5q-9 0 -9 30z" />
<glyph unicode="&#xb0;" horiz-adv-x="557" d="M63 1430q-10 85 29 147q25 45 75.5 69.5t108.5 26.5q28 0 68.5 -16.5t63.5 -34.5q32 -22 59 -73t27 -99q-4 -57 -27 -94q-33 -54 -104.5 -86t-131.5 -15q-41 10 -77 35q-31 27 -45 45q-38 51 -46 95zM219 1446q13 -21 51 -21q23 0 48.5 12t21.5 33q-8 41 -64 37 q-33 -5 -53 -22.5t-4 -38.5z" />
<glyph unicode="&#xb1;" horiz-adv-x="802" d="M61 145q1 18 1 38.5t-0.5 46.5t-0.5 40q0 25 9 31q2 2 12 2l141 -4h430q33 -3 60 -10q7 0 18 -8q6 -3 6 -23q4 -94 4 -133t-14 -39q-31 0 -45 2q-5 0 -78.5 4t-160 9.5t-111.5 9.5q-18 0 -103.5 1t-101.5 1q-22 0 -27 -4q-7 -2 -10 -2t-10 2.5t-10 3.5q-9 0 -9 32z M63 793q0 9 3.5 16t10.5 12t14 9t19 6t20 3.5t21.5 2t19.5 0.5h18h14q32 0 78 4q10 2 30 2q-8 82 -10 110q-11 109 14 129q56 35 107 19q24 -10 39 -25l6 -90q4 -98 2 -123q0 -8 22.5 -12.5t58.5 -5t69.5 0t67 2t40.5 1.5q6 -16 10 -57.5t0 -81.5t-20 -43q-89 -17 -236 -13 q5 -35 5 -101t3 -93q2 -23 0 -37t-11 -20t-15.5 -7.5t-25.5 -2t-29 -1.5q-5 -1 -20 -3.5t-20.5 -3t-16.5 0.5t-15 5.5t-8 14.5t-4 25q0 41 -2.5 124.5t-2.5 98.5q-40 -4 -127.5 -3t-121.5 -3q-10 75 -7 140z" />
<glyph unicode="&#xb2;" horiz-adv-x="565" d="M64.5 794.5q2.5 45.5 7.5 67.5q4 28 63 121t107 160q2 2 15 20t16 22t14.5 20t15 22.5t12 21t12 24.5t8 23t7.5 25q0 4 2 20.5t2.5 23.5t1.5 23t0 24.5t-3 21t-7.5 19t-12.5 13.5t-18.5 9t-25.5 0q-31 -15 -46.5 -40t-16 -46t-3 -38t-12.5 -18q-113 0 -119 37 q-12 45 18 111t68 86q58 38 123 35q88 -3 141 -62q35 -42 51 -94q19 -74 19 -113q-3 -112 -68 -207q-19 -30 -59 -79.5t-68.5 -93.5t-44.5 -91q39 -5 74.5 -2t71.5 -1t53 -21q3 -26 2.5 -44t-2.5 -45.5t-2 -35.5q-7 -7 -198.5 5t-196.5 17q-4 14 -1.5 59.5z" />
<glyph unicode="&#xb3;" horiz-adv-x="563" d="M61 1251q0 6 39 47t81.5 88.5t49.5 65.5q-19 5 -75.5 -8t-69.5 -8q-3 90 -14 153q0 4 105.5 16.5t127.5 12.5l101 4q5 0 19 2t24.5 1t17.5 -7q7 -37 -27 -86q-11 -15 -35 -42.5t-36 -43.5q-14 -17 -38 -56t-34 -53q6 12 98 -34q39 -36 66 -95q39 -85 39 -207 q3 -51 -7.5 -108.5t-35 -116.5t-75.5 -96t-120 -33q-30 1 -64.5 22t-60.5 48q-36 38 -51 119l-12 73q0 4 -3.5 19t-3.5 20.5t3 18.5q12 8 29 11t44.5 4t42.5 3q14 -10 20 -28.5t10 -49t9 -47.5q1 -3 3 -12t3 -12t3.5 -10t5 -10t6.5 -6.5t10 -4.5q10 0 34.5 11t28.5 18 q26 37 31 75q12 53 -18 146q-28 110 -60 127q-18 12 -102 19.5t-86 8.5q-8 5 -15.5 18t-7.5 23z" />
<glyph unicode="&#xb4;" horiz-adv-x="333" d="M63 1370q-4 35 25 122.5t47 111.5q70 11 133 0q15 -15 -32.5 -134.5t-57.5 -119.5q-70 -10 -115 20z" />
<glyph unicode="&#xb5;" horiz-adv-x="985" d="M88 1041.5q0 13.5 5 28t16 20.5q15 7 40.5 8t59.5 -1.5t43 -2.5q14 -1 61.5 0.5t61.5 -2.5q3 -52 0 -101h-49q0 -2 -9 -28q-7 -32 -8 -127.5t1.5 -220.5t2.5 -138q0 -124 33 -219q18 -56 51.5 -76.5t98.5 -7.5q30 4 58.5 63.5t35.5 98.5q10 56 16 230.5t6 275.5 q2 47 2 133v6q-71 -4 -73 33q0 9 4 37l6 24q-4 4 -4 10q0 10 12 19q22 12 130.5 16t127.5 -6q27 -16 8 -100l-30 -4q-1 -48 -1 -142.5t-1 -142.5q0 -458 4 -578q22 -3 63 0.5t53 2.5q-4 -18 2 -48t8.5 -48.5t-10.5 -43.5q-25 -14 -88.5 -16t-197.5 6q-23 16 -29 41 q-99 -51 -200.5 -33t-166.5 103q-59 78 -80.5 175t-27.5 228q-2 58 -0.5 142t5 188.5t3.5 111.5v29q-18 -6 -39 -6q0 7 -2 28t-2 34.5zM128 -379q-2 48 5 76q10 82 14 354q5 139 -14 709v90q0 3 -1 15t-1.5 23.5t0 24t4.5 20.5t10 9q27 10 91 10q4 0 18.5 0.5t21 0 t16.5 -2.5t14.5 -8.5t4.5 -17.5q-1 -25 -5 -74t-5 -74v-305q-1 -47 -6.5 -151t-5.5 -158q0 -36 4.5 -145.5t1.5 -170.5q-6 -42 -2 -127q0 -7 2 -32.5t2 -38.5t-1.5 -33t-6.5 -35q-10 -7 -22.5 -12t-29 -7t-26.5 -3t-30.5 -1.5t-26.5 -0.5q-24 17 -26 65z" />
<glyph unicode="&#xb6;" horiz-adv-x="1136" d="M63 1085q0 265 64 383l20 29q39 67 104 98t157 43q12 2 44.5 6.5t49 6t42.5 3.5t48 1q36 -3 106.5 -2t106.5 -2q40 -1 111.5 -15t84.5 -16q9 -2 24 -3.5t22.5 -4t11.5 -8.5q2 -11 2.5 -13.5t-1.5 -13t-3 -14.5q-6 -55 -1.5 -183.5t1.5 -183.5l-19 -385q-4 -144 -4 -215 q0 -149 2 -225q4 -162 2 -246h17h14q4 0 4 -8v-92v-17q0 -6 -6 -6q-4 0 -12.5 1t-12.5 1q-24 0 -38 -2q-18 -2 -56 -2q-32 -4 -49 -4l-76 -4q-21 0 -35 -2t-38 -2q-7 0 -18.5 -1t-18.5 -1q-14 -2 -39 -2q-5 0 -15.5 -1t-15.5 -1h-27q-31 0 -43 -5q0 3 -1 7.5t-1 7.5 q-2 18 -2 53q0 11 -4 39l-4 20h10h9v56q-1 44 -4 140.5t-3.5 140.5t2.5 132q-10 1 -38 -2.5t-39 0.5q-15 3 -47.5 14.5t-49.5 14.5q-9 2 -37.5 7.5t-41.5 9t-35 11t-38.5 17.5t-31.5 23q-75 67 -114.5 185.5t-39.5 231.5zM763 1241.5q2 -155.5 6.5 -377.5t4.5 -239l-2 -107 q-2 -108 2 -108q6 -65 2 -195v-102h10q8 -5 41 2q5 0 15.5 1t15.5 1q2 2 2 10q3 18 3.5 36.5t-0.5 44.5t-1 36q-2 82 -14 250q-1 31 4.5 92t5.5 90q1 24 -0.5 106.5t2.5 106.5q17 217 -8 528q-9 2 -27 8t-32 9t-29 4q-3 -41 -1 -196.5z" />
<glyph unicode="&#xb7;" horiz-adv-x="290" d="M63 1045.5q2 29.5 22 54t54 28.5q-2 -2 -8 -2h6q61 7 85 -47q20 -48 -3 -94q-26 -52 -83 -38q-5 2 -9 3q-33 10 -49.5 38t-14.5 57.5z" />
<glyph unicode="&#xb8;" horiz-adv-x="509" d="M39 -276q-11 68 35 90.5t110 3.5q47 -18 62 2q11 16 -1 35t-28 24q-4 2 -18 8.5t-21 10.5t-17 11.5t-15 17t-5 20.5t0.5 23.5t0.5 17.5t-1 12.5t-4 15.5q-12 2 6 6q61 13 154 13q56 0 44 -10q-1 -1 -3 -2q0 -17 -2 -23q-3 -47 33 -63q18 -13 41 -39q14 -14 24 -37 q28 -51 -6 -97q-24 -39 -59 -59q-55 -31 -76 -37q-4 -2 -20 -8t-23.5 -8.5l-25.5 -8.5t-26 -8t-25.5 -5.5t-25 -2t-22.5 1.5q-32 6 -56.5 34t-29.5 61z" />
<glyph unicode="&#xb9;" horiz-adv-x="401" d="M61 1546q0 13 49.5 62t49.5 51q39 34 176 10q3 -89 3.5 -188.5t-0.5 -238.5t-1 -193q0 -27 -4 -129t0 -125q-5 -5 -38 -7t-64 -0.5t-31 5.5q0 12 0.5 97.5t1 187t0.5 205t-0.5 172.5t-1.5 69q-3 0 -31 -23.5t-35 -23.5q-11 2 -39 30q-35 28 -35 39z" />
<glyph unicode="&#xba;" horiz-adv-x="557" d="M63 1430q-10 85 29 147q25 45 75.5 69.5t108.5 26.5q28 0 68.5 -16.5t63.5 -34.5q32 -22 59 -73t27 -99q-4 -57 -27 -94q-33 -54 -104.5 -86t-131.5 -15q-41 10 -77 35q-31 27 -45 45q-38 51 -46 95zM219 1446q13 -21 51 -21q23 0 48.5 12t21.5 33q-8 41 -64 37 q-33 -5 -53 -22.5t-4 -38.5z" />
<glyph unicode="&#xbb;" horiz-adv-x="823" d="M64.5 382.5q-2.5 10.5 7.5 29.5l96 155l94 152l12 22q-15 21 -37.5 65t-37.5 64q-27 32 -74 97q-23 31 -55 86q-15 18 4 41l14 14l72 51q19 13 30 11.5t29 -19.5q26 -32 53 -68.5t58.5 -80.5t50.5 -70l53 -72l43 -63q3 -6 21 -47q-10 -18 -76 -127l-60 -107l-116 -186 l-4 -6q-10 -13 -25 -17t-27 2q-9 4 -98 47l-6 4q-19 12 -21.5 22.5zM373 1085q-11 18 4 33q14 14 26 21q38 30 60 43q24 10 39 -8l35 -52q11 -15 47 -61.5t55 -73.5q18 -23 50.5 -71t49.5 -72q41 -57 4 -127q-20 -33 -56.5 -98.5t-55.5 -98.5q-35 -64 -72 -129 q-4 -9 -15.5 -26t-15.5 -25q-14 -17 -32 -8q-55 23 -97 45q-19 11 -10 31q32 83 53 118q68 116 123 230q0 6 2 10l-30 45l-27 45q-62 108 -80 133q-7 14 -26.5 41.5t-26.5 44.5q0 3 -2 5t-2 5z" />
<glyph unicode="&#xbc;" horiz-adv-x="1099" d="M61 1546q0 13 49.5 62t49.5 51q39 34 176 10q3 -89 3.5 -188.5t-0.5 -238.5t-1 -193q0 -27 -4 -129t0 -125q-5 -5 -38 -7t-64 -0.5t-31 5.5q0 12 0.5 97.5t1 187t0.5 205t-0.5 172.5t-1.5 69q-3 0 -31 -23.5t-35 -23.5q-11 2 -39 30q-35 28 -35 39zM102 0 q15 53 146 385.5t255 640.5t124 309q0 3 28 76t63.5 148.5t51.5 78.5q18 -6 34 -6t30 -2q7 -2 31.5 -11t39.5 -9q12 -10 14.5 -24.5t0 -25t-11 -34.5t-11.5 -33q-12 -46 -296 -727t-322 -758q-96 -8 -177 -8zM502 270l1 2q1 3 5 4q-1 1 34.5 75.5t47.5 97.5q9 16 63.5 139 t105 229.5t60.5 110.5q1 0 21.5 2t38.5 3t35.5 -3t19.5 -15q0 -5 1.5 -103.5t3 -213t1.5 -158.5q12 -7 40.5 -4.5t39.5 -5.5q0 -5 3.5 -25t7.5 -43t6 -46.5t-1 -39.5t-12 -18q-11 -3 -37.5 -3.5t-44.5 -4.5q-2 -24 -1 -68.5t3.5 -88t3.5 -44.5l-10 -29q-6 -12 -81.5 -18.5 t-76.5 14.5v2q-2 0 0 53.5t4.5 106.5t-0.5 78q0 4 -68.5 6t-139.5 3.5t-74 4.5zM750 420q15 -15 49 -4q1 17 3 54t3 66.5t0 53.5q-13 -27 -29 -86t-26 -84z" />
<glyph unicode="&#xbd;" horiz-adv-x="1128" d="M61 1546q0 13 49.5 62t49.5 51q39 34 176 10q3 -89 3.5 -188.5t-0.5 -238.5t-1 -193q0 -27 -4 -129t0 -125q-5 -5 -38 -7t-64 -0.5t-31 5.5q0 12 0.5 97.5t1 187t0.5 205t-0.5 172.5t-1.5 69q-3 0 -31 -23.5t-35 -23.5q-11 2 -39 30q-35 28 -35 39zM102 0 q15 53 146 385.5t255 640.5t124 309q0 3 28 76t63.5 148.5t51.5 78.5q18 -6 34 -6t30 -2q7 -2 31.5 -11t39.5 -9q12 -10 14.5 -24.5t0 -25t-11 -34.5t-11.5 -33q-12 -46 -296 -727t-322 -758q-96 -8 -177 -8zM627.5 82.5q2.5 45.5 7.5 67.5q4 28 62.5 120t107.5 160 q2 2 15 20t16 22t14.5 20t15 22.5t12 21t12 24.5t8 23t7.5 25q0 4 2 20.5t2.5 23.5t1.5 23t0 24.5t-3 21t-7.5 19t-12.5 13.5t-18.5 9t-25.5 0q-31 -15 -46.5 -39.5t-16 -45.5t-3 -38t-12.5 -18q-113 0 -119 36q-11 44 19 111t67 86q58 38 123 35q88 -3 141 -62 q37 -43 52 -94q18 -70 18 -112q-3 -112 -68 -207q-19 -30 -59 -79.5t-68.5 -93.5t-44.5 -91q39 -5 74.5 -2t71.5 -1.5t53 -21.5q3 -26 2.5 -44t-2.5 -45.5t-2 -35.5q-7 -7 -198.5 5.5t-196.5 17.5q-4 14 -1.5 59.5z" />
<glyph unicode="&#xbe;" horiz-adv-x="1165" d="M61 1251q0 6 39 47t81.5 88.5t49.5 65.5q-19 5 -75.5 -8t-69.5 -8q-3 90 -14 153q0 4 105.5 16.5t127.5 12.5l101 4q5 0 19 2t24.5 1t17.5 -7q7 -37 -27 -86q-11 -15 -35 -42.5t-36 -43.5q-14 -17 -38 -56t-34 -53q18 6 98 -34q39 -36 66 -95q39 -85 39 -207 q3 -51 -7.5 -108.5t-35 -116.5t-75.5 -96t-120 -33q-30 1 -64.5 22t-60.5 48q-36 38 -51 119l-12 73q0 4 -3.5 19t-3.5 20.5t3 18.5q12 8 29 11t44.5 4t42.5 3q14 -10 20 -28.5t10 -49t9 -47.5q1 -3 3 -12t3 -12t3.5 -10t5 -10t6.5 -6.5t10 -4.5q10 0 34.5 11t28.5 18 q26 37 31 75q12 53 -18 146q-28 110 -60 127q-18 12 -102 19.5t-86 8.5q-8 5 -15.5 18t-7.5 23zM227 0q15 53 146 385.5t255 640.5t124 309q0 3 28 76t63.5 148.5t51.5 78.5q18 -6 33.5 -6t29.5 -2q6 -2 31.5 -11t40.5 -9q12 -10 14.5 -24.5t0 -25t-11 -34.5t-11.5 -33 q-12 -46 -296.5 -727t-322.5 -758q-96 -8 -176 -8zM567 270l1 2q1 3 5 4q-1 1 34.5 75.5t47.5 97.5q14 20 66.5 140t102 228t61.5 111q1 0 21.5 2t38.5 3t35 -3t19 -15q0 -5 1.5 -103.5t3.5 -213t2 -158.5q12 -7 40 -4.5t39 -5.5q0 -5 3.5 -25t7.5 -43t6.5 -46.5t-0.5 -39.5 t-12 -18q-11 -3 -37.5 -3.5t-44.5 -4.5q-2 -24 -1 -68.5t3.5 -88t3.5 -44.5l-10 -29q-6 -12 -81.5 -18.5t-76.5 14.5v2q-2 0 0 53.5t4.5 106.5t-0.5 78q0 4 -69 6t-140 3.5t-74 4.5zM815 420q15 -15 49 -4q1 17 3 54t3 66.5t0 53.5q-13 -27 -29 -86t-26 -84z" />
<glyph unicode="&#xbf;" horiz-adv-x="790" d="M63 -303q-4 123 21 221.5t67.5 160t86.5 106.5t85.5 86t55.5 73q10 36 7.5 85.5t-9.5 86.5q-1 17 4 29t11.5 18t22 8.5t25 2.5t30 -0.5t28.5 -0.5q35 0 54 -25t21 -62.5t-3 -73t-15 -64.5q-53 -158 -217 -311q-32 -32 -47.5 -49t-35 -48t-26.5 -63q-22 -99 21 -207 q13 -32 18.5 -44t20 -36t30.5 -36t37 -17q77 -22 158 45q16 15 17.5 30.5t-3.5 26.5t-20 33q-28 40 -22.5 72.5t51.5 60.5q41 26 99 17.5t81 -55.5q17 -29 10 -78.5t-22 -90.5t-33 -73q-51 -92 -135 -134.5t-180 -25.5t-179 92q-49 44 -79.5 108.5t-35.5 131.5zM375 764 q10 44 90 59q12 2 26.5 -7.5t24 -27t12 -37.5t-12 -42t-46.5 -39q-51 -14 -77.5 21t-16.5 73z" />
<glyph unicode="&#xc0;" d="M61 94q0 11 2.5 14t12.5 3q21 4 37 2q15 85 32 129l39 168q58 244 76 331q29 146 51 275q10 53 62 309q-46 0 -62 16q-17 17 -23.5 53.5t-4.5 67.5q11 0 72 3t103.5 4t71.5 -1q13 -52 24 -177t17 -161q5 -28 12 -75t14 -87t15 -75q32 -162 60 -270q9 -39 34.5 -160.5 t43.5 -188.5q4 -23 13 -64.5t11 -49.5q3 -13 13.5 -30.5t13.5 -25.5h28q13 3 20.5 1t8.5 -13q4 -28 4 -51q6 -29 -2 -39q-3 -3 -8.5 -3.5t-13 0.5t-9.5 1h-63q-13 -1 -78 3t-78 -3q-11 -2 -13 2l-3 6q-3 11 -6 53.5t0 42.5q0 2 10 2h31q-3 55 -32 147t-36 136 q-3 0 -40.5 3.5t-51 4.5t-44 2t-53 -0.5t-44.5 -5.5l-45 -200l-19 -89q8 2 27 2q18 4 26 -4q5 -5 11 -30q3 -5 5 -15.5t5 -15.5q0 -1 3 -9.5t3 -13.5q0 -4 -1.5 -6.5t-5 -4t-6 -2t-8 -1t-8.5 -0.5q-72 -10 -135 -2q-16 1 -49 1t-49 1q-12 0 -14 1.5t-2 12.5v25.5t-2 24.5 t-3 26zM287 1721q-6 14 0 22q11 14 36 22.5t38.5 9.5t41.5 3q16 0 26 -16.5t13.5 -35t6.5 -44.5t4 -31q1 -9 4 -28.5t3.5 -29t-1.5 -26.5q-5 -21 -19 -29t-30 -2.5t-27 20.5q-13 18 -31 55.5t-28 53.5l-16 21q-15 21 -21 35zM373 561q110 -14 157 4q-17 72 -37.5 212 t-35.5 206q-25 -103 -35 -170q-5 -29 -24 -115.5t-25 -136.5z" />
<glyph unicode="&#xc1;" d="M61 94q0 11 2.5 14t12.5 3q21 4 37 2q15 85 32 129l39 168q58 244 76 331q29 146 51 275q10 53 62 309q-46 0 -62 16q-17 17 -23.5 53.5t-4.5 67.5q11 0 72 3t103.5 4t71.5 -1q13 -52 24 -177t17 -161q5 -28 12 -75t14 -87t15 -75q32 -162 60 -270q9 -39 34.5 -160.5 t43.5 -188.5q4 -23 13 -64.5t11 -49.5q3 -13 13.5 -30.5t13.5 -25.5h28q13 3 20.5 1t8.5 -13q4 -28 4 -51q6 -29 -2 -39q-3 -3 -8.5 -3.5t-13 0.5t-9.5 1h-63q-13 -1 -78 3t-78 -3q-11 -2 -13 2l-3 6q-3 11 -6 53.5t0 42.5q0 2 10 2h31q-3 55 -32 147t-36 136 q-3 0 -40.5 3.5t-51 4.5t-44 2t-53 -0.5t-44.5 -5.5l-45 -200l-19 -89q8 2 27 2q18 4 26 -4q5 -5 11 -30q3 -5 5 -15.5t5 -15.5q0 -1 3 -9.5t3 -13.5q0 -4 -1.5 -6.5t-5 -4t-6 -2t-8 -1t-8.5 -0.5q-72 -10 -135 -2q-16 1 -49 1t-49 1q-12 0 -14 1.5t-2 12.5v25.5t-2 24.5 t-3 26zM350 1599q-4 35 25 122.5t47 111.5q70 11 133 0q15 -15 -32.5 -134.5t-57.5 -119.5q-70 -10 -115 20zM373 561q110 -14 157 4q-17 72 -37.5 212t-35.5 206q-25 -103 -35 -170q-5 -29 -24 -115.5t-25 -136.5z" />
<glyph unicode="&#xc2;" d="M61 94q0 11 2.5 14t12.5 3q21 4 37 2q15 85 32 129l39 168q58 244 76 331q29 146 51 275q10 53 62 309q-46 0 -62 16q-17 17 -23.5 53.5t-4.5 67.5q11 0 72 3t103.5 4t71.5 -1q13 -52 24 -177t17 -161q5 -28 12 -75t14 -87t15 -75q32 -162 60 -270q9 -39 34.5 -160.5 t43.5 -188.5q4 -23 13 -64.5t11 -49.5q3 -13 13.5 -30.5t13.5 -25.5h28q13 3 20.5 1t8.5 -13q4 -28 4 -51q6 -29 -2 -39q-3 -3 -8.5 -3.5t-13 0.5t-9.5 1h-63q-13 -1 -78 3t-78 -3q-11 -2 -13 2l-3 6q-3 11 -6 53.5t0 42.5q0 2 10 2h31q-3 55 -32 147t-36 136 q-3 0 -40.5 3.5t-51 4.5t-44 2t-53 -0.5t-44.5 -5.5l-45 -200l-19 -89q8 2 27 2q18 4 26 -4q5 -5 11 -30q3 -5 5 -15.5t5 -15.5q0 -1 3 -9.5t3 -13.5q0 -4 -1.5 -6.5t-5 -4t-6 -2t-8 -1t-8.5 -0.5q-72 -10 -135 -2q-16 1 -49 1t-49 1q-12 0 -14 1.5t-2 12.5v25.5t-2 24.5 t-3 26zM170 1583q-18 21 0 43l76 74l106 100q7 7 21.5 16.5t21.5 16.5l19 10q15 9 30 -6q119 -122 234 -203q5 -3 22 -20q16 -16 0 -29q-53 -49 -84 -72q-14 -14 -26 0l-23 17l-106 98q-22 18 -31 21q-14 -11 -38.5 -28t-43.5 -31t-35 -29l-28 -27l-17 -16 q-14 -10 -20.5 -9.5t-18.5 11.5q-45 45 -59 63zM373 561q110 -14 157 4q-17 72 -37.5 212t-35.5 206q-25 -103 -35 -170q-5 -29 -24 -115.5t-25 -136.5z" />
<glyph unicode="&#xc3;" horiz-adv-x="952" d="M61 94q0 11 2.5 14t12.5 3q21 4 37 2q15 85 32 129l39 168q58 244 76 331q29 146 51 275q10 53 62 309q-46 0 -62 16q-17 17 -23.5 53.5t-4.5 67.5q11 0 72 3t103.5 4t71.5 -1q13 -52 24 -177t17 -161q5 -28 12 -75t14 -87t15 -75q32 -162 60 -270q9 -39 34.5 -160.5 t43.5 -188.5q4 -23 13 -64.5t11 -49.5q3 -13 13.5 -30.5t13.5 -25.5h28q13 3 20.5 1t8.5 -13q4 -28 4 -51q6 -29 -2 -39q-3 -3 -8.5 -3.5t-13 0.5t-9.5 1h-63q-13 -1 -78 3t-78 -3q-11 -2 -13 2l-3 6q-3 11 -6 53.5t0 42.5q0 2 10 2h31q-3 55 -32 147t-36 136 q-3 0 -40.5 3.5t-51 4.5t-44 2t-53 -0.5t-44.5 -5.5l-45 -200l-19 -89q8 2 27 2q18 4 26 -4q5 -5 11 -30q3 -5 5 -15.5t5 -15.5q0 -1 3 -9.5t3 -13.5q0 -4 -1.5 -6.5t-5 -4t-6 -2t-8 -1t-8.5 -0.5q-72 -10 -135 -2q-16 1 -49 1t-49 1q-12 0 -14 1.5t-2 12.5v25.5t-2 24.5 t-3 26zM125.5 1629q0.5 33 24.5 63q48 54 125 60t137 -34q55 -41 102 -41q10 1 17 2.5t12 7.5t6.5 8.5t6.5 14.5t7 16q12 30 48.5 37t64.5 -6q36 -11 49 -46t2 -73q-2 -2 -2 -8q-10 -26 -35.5 -53t-50.5 -39q-28 -14 -70 -14q-67 4 -98 18q-13 6 -33.5 18t-36 21t-37.5 17.5 t-36.5 7.5t-34.5 -9q-10 -7 -23.5 -27.5t-28 -32t-36.5 -7.5q-35 8 -57.5 37t-22 62zM373 561q110 -14 157 4q-17 72 -37.5 212t-35.5 206q-25 -103 -35 -170q-5 -29 -24 -115.5t-25 -136.5z" />
<glyph unicode="&#xc4;" d="M61 94q0 11 2.5 14t12.5 3q21 4 37 2q15 85 32 129l39 168q58 244 76 331q29 146 51 275q10 53 62 309q-46 0 -62 16q-17 17 -23.5 53.5t-4.5 67.5q11 0 72 3t103.5 4t71.5 -1q13 -52 24 -177t17 -161q5 -28 12 -75t14 -87t15 -75q32 -162 60 -270q9 -39 34.5 -160.5 t43.5 -188.5q4 -23 13 -64.5t11 -49.5q3 -13 13.5 -30.5t13.5 -25.5h28q13 3 20.5 1t8.5 -13q4 -28 4 -51q6 -29 -2 -39q-3 -3 -8.5 -3.5t-13 0.5t-9.5 1h-63q-13 -1 -78 3t-78 -3q-11 -2 -13 2l-3 6q-3 11 -6 53.5t0 42.5q0 2 10 2h31q-3 55 -32 147t-36 136 q-3 0 -40.5 3.5t-51 4.5t-44 2t-53 -0.5t-44.5 -5.5l-45 -200l-19 -89q8 2 27 2q18 4 26 -4q5 -5 11 -30q3 -5 5 -15.5t5 -15.5q0 -1 3 -9.5t3 -13.5q0 -4 -1.5 -6.5t-5 -4t-6 -2t-8 -1t-8.5 -0.5q-72 -10 -135 -2q-16 1 -49 1t-49 1q-12 0 -14 1.5t-2 12.5v25.5t-2 24.5 t-3 26zM236 1608q1 26 17 53t40 37q35 15 69 -19q18 -17 13.5 -40.5t-17 -43t-28.5 -32.5q-47 -12 -71 3.5t-23 41.5zM373 561q110 -14 157 4q-17 72 -37.5 212t-35.5 206q-25 -103 -35 -170q-5 -29 -24 -115.5t-25 -136.5zM446 1597q-23 41 12 74q33 32 75 21q34 -8 51 -45 q20 -48 -23 -72q-26 -18 -62 -12t-53 34z" />
<glyph unicode="&#xc5;" d="M61 94q0 11 2.5 14t12.5 3q21 4 37 2q15 85 32 129l39 168q58 244 76 331q29 146 51 275q10 53 62 309q-46 0 -62 16q-17 17 -23.5 53.5t-4.5 67.5q11 0 72 3t103.5 4t71.5 -1q13 -52 24 -177t17 -161q5 -28 12 -75t14 -87t15 -75q32 -162 60 -270q9 -39 34.5 -160.5 t43.5 -188.5q4 -23 13 -64.5t11 -49.5q3 -13 13.5 -30.5t13.5 -25.5h28q13 3 20.5 1t8.5 -13q4 -28 4 -51q6 -29 -2 -39q-3 -3 -8.5 -3.5t-13 0.5t-9.5 1h-63q-13 -1 -78 3t-78 -3q-11 -2 -13 2l-3 6q-3 11 -6 53.5t0 42.5q0 2 10 2h31q-3 55 -32 147t-36 136 q-3 0 -40.5 3.5t-51 4.5t-44 2t-53 -0.5t-44.5 -5.5l-45 -200l-19 -89q8 2 27 2q18 4 26 -4q5 -5 11 -30q3 -5 5 -15.5t5 -15.5q0 -1 3 -9.5t3 -13.5q0 -4 -1.5 -6.5t-5 -4t-6 -2t-8 -1t-8.5 -0.5q-72 -10 -135 -2q-16 1 -49 1t-49 1q-12 0 -14 1.5t-2 12.5v25.5t-2 24.5 t-3 26zM209 1501q13 118 59 160q41 35 94 47q94 24 164 -25q41 -27 72 -69.5t35 -87.5q8 -82 -55.5 -152.5t-147.5 -70.5q-88 0 -158 56t-63 142zM354 1516q-4 -7 3 -19.5t16 -17.5l30 -11l52 11q24 6 24 28q1 17 -2.5 23t-17.5 12q-2 1 -4.5 2t-3.5 1.5t-2 0.5 q-28 15 -52 0q-12 -4 -14 -4q-23 -3 -29 -26zM373 561q110 -14 157 4q-17 72 -37.5 212t-35.5 206q-25 -103 -35 -170q-5 -29 -24 -115.5t-25 -136.5z" />
<glyph unicode="&#xc6;" horiz-adv-x="1245" d="M63 18q8 36 11 76q1 8 2 11t4 4.5t10 1.5q23 5 37 2q38 92 57 129l70 168l139 331q76 200 103 275q16 43 108 274q-47 0 -57 17q-28 30 -6 120q1 0 114.5 5.5t135.5 1.5q3 -52 -5.5 -158t-9.5 -146q-1 -24 -3.5 -79.5t-2.5 -78.5t2 -79l8 -270q3 -58 6.5 -174.5 t6.5 -174.5q0 -36 4 -114q0 -10 2 -18t7 -20t7 -18h29q14 3 20 1t6 -13q0 -37 -6 -51q0 -29 -10 -39q-3 -3 -8.5 -3.5t-13 0.5t-9.5 1h-63q-13 -1 -77 3t-79 -3q-11 -1 -11.5 -0.5t-2.5 8.5q0 16 4 56t8 40q0 2 10 2h31q5 52 -6 143.5t-8 139.5q-7 1 -34 3.5t-39.5 3.5 t-37.5 2.5t-42 1t-39.5 -2t-41.5 -4.5l-82 -200q-22 -49 -35 -89q8 2 27 2q18 5 27 -4q4 -4 4 -30v-14t4 -17q0 -4 1 -11.5t1 -11.5q-1 -4 -2.5 -6.5t-5.5 -4t-6.5 -2t-8 -1t-8.5 -0.5q-76 -10 -137 -2q-16 1 -47 1t-47 1q-12 0 -14 2t-1 12zM469 561q111 -14 162 4 q-4 72 0.5 212.5t1.5 205.5q-48 -114 -66 -170q-15 -41 -48.5 -123t-49.5 -129zM543 123q1 6 0 15t1.5 18.5t8.5 13.5q4 3 10.5 3t16 -1.5t14.5 -1.5h20q2 14 2 41t1 83t1 83q0 75 1.5 226t1.5 228q3 187 0 373q0 18 -3 47t-4 39q-7 0 -19.5 -1t-19.5 -1q-12 31 -16 68 q0 15 3 41.5t3 32.5q488 31 600 12q8 -12 14.5 -96.5t2.5 -120.5q-64 -9 -129 -6q-9 0 -15.5 4t-9.5 8t-4 12.5t-0.5 13.5t1.5 17t1 16q-145 11 -229 0q-5 -14 -6.5 -30t-0.5 -28t2.5 -31.5t2.5 -29.5q3 -21 3.5 -44.5t-0.5 -56t-1 -44.5q-4 -197 8 -276q11 1 86.5 12.5 t122.5 7.5q20 -18 19 -84.5t-25 -73.5q-33 -8 -103.5 -10t-105.5 -14q-13 -182 -2 -391q15 -5 30.5 -7.5t39.5 -4t32.5 -1.5h41.5h34l-4 35q-1 4 -4 16.5t-5 22t-1.5 20t6.5 13.5q7 4 47 4q52 10 86 8q3 -7 8 -49q0 -12 5 -45l5 -33q5 -5 9.5 -50t0.5 -67q-4 -14 -12.5 -24 t-16 -14.5t-23.5 -7.5t-23.5 -3.5t-28.5 -1.5q-25 -3 -55 -3.5t-50 0t-56 2t-52 1.5q-17 0 -107.5 -1t-97.5 -1q-3 0 -15 -1t-20 -0.5t-12 3.5q-6 4 -8 10t-1.5 12.5t-0.5 14.5q0 8 -3.5 34t-2.5 44z" />
<glyph unicode="&#xc7;" horiz-adv-x="782" d="M63.5 411.5q0.5 41.5 0.5 55t2 60t2 55.5q4 111 1.5 201t5 198t29.5 197q75 287 287 307q69 3 144.5 -31t128.5 -98.5t53 -136.5l-2 -2q4 -28 4 -43q4 -46 -29 -79t-82 -46q-51 -15 -96 16q-13 8 -18.5 22.5t-6 22.5t-0.5 31q0 13 12 65.5t3 77.5q-9 9 -15 12 q-77 51 -139 -2q-34 -27 -56.5 -62.5t-33 -82.5t-14 -79.5t-6.5 -88.5q-10 -234 -7 -430q0 -9 -0.5 -55t0 -64.5t3.5 -58.5t10 -63.5t20.5 -51.5t32.5 -47q26 -28 61 -40.5t66 -2.5q53 16 92 100q7 15 17 22.5t25 8.5t26 0t30.5 -5t28.5 -5q52 -6 64 -19q5 -5 6 -11.5 t-2.5 -15.5t-6 -14t-9.5 -15t-7 -11q-28 -43 -47.5 -69t-49.5 -57.5t-65 -49t-77 -23.5q-71 -10 -143 16.5t-128 79.5q-22 20 -40 42.5t-30 50.5l-21 49t-13.5 56.5t-7.5 53.5t-2.5 59.5zM170 -207q-11 68 35 90.5t110 3.5q47 -18 62 2q11 16 -1 35.5t-28 24.5 q-2 1 -22 10.5t-27.5 14.5t-17 16.5t-9.5 25.5q0 11 0.5 23.5t0.5 18t-1 13t-4 15.5q-12 2 5 6q58 12 153 12q58 -1 43 -12q0 -16 -2 -22q-4 -48 33 -64q18 -13 41 -39q14 -14 24 -37q28 -51 -6 -96q-24 -39 -59 -59q-55 -31 -76 -37q-4 -2 -20 -8t-23.5 -8.5l-25.5 -8.5 t-26 -8t-25.5 -5.5t-25 -2t-22.5 1.5q-32 6 -56.5 33.5t-29.5 60.5z" />
<glyph unicode="&#xc8;" horiz-adv-x="747" d="M63 127v16t2.5 21t8.5 12q4 3 11 3t16 -1.5t12 -1.5h20q2 14 2 43t1 86t1 86q0 78 1 236t1 237q3 194 0 389q0 14 -1 28.5t-2.5 32.5t-2.5 29q-7 0 -20 -1t-17 -1q-13 32 -16 70q0 15 3 43t3 33q56 7 260.5 16t321.5 -2q8 -12 14 -102t2 -125q-62 -9 -125 -6 q-9 0 -15.5 4t-9.5 8t-4 13.5t-0.5 14.5t1.5 17.5t1 17.5q-140 11 -221 0q-6 -19 -7 -37t2 -48.5t3 -38.5q3 -22 3.5 -46.5t-0.5 -58.5t-1 -47q0 -15 -1.5 -56t-1.5 -61t0.5 -53t2.5 -61.5t6 -55.5q10 1 85 13t120 8q18 -17 17 -87t-23 -77q-31 -8 -100.5 -10.5 t-102.5 -14.5q-13 -193 -2 -407q14 -5 30 -7.5t36.5 -3.5t33.5 -1.5t38.5 0t33.5 0.5l-4 34q0 4 -5.5 25.5t-5.5 30.5t7 20q7 4 47 4q48 11 82 8q2 -7 8 -51q1 -10 3.5 -29.5t5 -35t2.5 -17.5q5 -5 9.5 -51.5t0.5 -69.5q-5 -18 -14 -29t-26.5 -16t-27.5 -6t-35 -2 q-24 -3 -52.5 -3.5t-47.5 0t-54.5 2t-51.5 1.5q-17 0 -105 -1t-94 -1q-3 0 -14.5 -1t-19 -0.5t-11.5 3.5q-6 4 -8 11t-1.5 13.5t-0.5 14.5q-1 9 -4.5 35.5t-2.5 44.5zM262 1756q-6 14 0 22q4 5 9 8.5t9.5 6.5t11.5 5.5t12 4t13.5 3t13 2.5t13.5 1.5t12 1t12.5 1t10.5 0.5 q16 0 26 -16.5t13 -34.5t6 -44t4 -31q1 -9 4 -28.5t3.5 -29t-1.5 -26.5q-5 -21 -19 -29t-30 -2.5t-27 20.5q-13 18 -31 55.5t-28 53.5l-15 21q-16 21 -22 35z" />
<glyph unicode="&#xc9;" horiz-adv-x="747" d="M63 127v16t2.5 21t8.5 12q4 3 11 3t16 -1.5t12 -1.5h20q2 14 2 43t1 86t1 86q0 78 1 236t1 237q3 194 0 389q0 14 -1 28.5t-2.5 32.5t-2.5 29q-7 0 -20 -1t-17 -1q-13 32 -16 70q0 15 3 43t3 33q56 7 260.5 16t321.5 -2q8 -12 14 -102t2 -125q-62 -9 -125 -6 q-9 0 -15.5 4t-9.5 8t-4 13.5t-0.5 14.5t1.5 17.5t1 17.5q-140 11 -221 0q-6 -19 -7 -37t2 -48.5t3 -38.5q3 -22 3.5 -46.5t-0.5 -58.5t-1 -47q0 -15 -1.5 -56t-1.5 -61t0.5 -53t2.5 -61.5t6 -55.5q10 1 85 13t120 8q18 -17 17 -87t-23 -77q-31 -8 -100.5 -10.5 t-102.5 -14.5q-13 -193 -2 -407q14 -5 30 -7.5t36.5 -3.5t33.5 -1.5t38.5 0t33.5 0.5l-4 34q0 4 -5.5 25.5t-5.5 30.5t7 20q7 4 47 4q48 11 82 8q2 -7 8 -51q1 -10 3.5 -29.5t5 -35t2.5 -17.5q5 -5 9.5 -51.5t0.5 -69.5q-5 -18 -14 -29t-26.5 -16t-27.5 -6t-35 -2 q-24 -3 -52.5 -3.5t-47.5 0t-54.5 2t-51.5 1.5q-17 0 -105 -1t-94 -1q-3 0 -14.5 -1t-19 -0.5t-11.5 3.5q-6 4 -8 11t-1.5 13.5t-0.5 14.5q-1 9 -4.5 35.5t-2.5 44.5zM313 1573q-4 35 25 122t47 111q70 11 133 0q15 -15 -32.5 -134.5t-57.5 -119.5q-69 -10 -115 21z" />
<glyph unicode="&#xca;" horiz-adv-x="831" d="M63 127v16t2.5 21t8.5 12q4 3 11 3t16 -1.5t12 -1.5h20q2 14 2 43t1 86t1 86q0 78 1 236t1 237q3 194 0 389q0 14 -1 28.5t-2.5 32.5t-2.5 29q-7 0 -20 -1t-17 -1q-13 32 -16 70q0 15 3 43t3 33q56 7 260.5 16t321.5 -2q8 -12 14 -102t2 -125q-62 -9 -125 -6 q-9 0 -15.5 4t-9.5 8t-4 13.5t-0.5 14.5t1.5 17.5t1 17.5q-140 11 -221 0q-6 -19 -7 -37t2 -48.5t3 -38.5q3 -22 3.5 -46.5t-0.5 -58.5t-1 -47q0 -15 -1.5 -56t-1.5 -61t0.5 -53t2.5 -61.5t6 -55.5q10 1 85 13t120 8q18 -17 17 -87t-23 -77q-31 -8 -100.5 -10.5 t-102.5 -14.5q-13 -193 -2 -407q14 -5 30 -7.5t36.5 -3.5t33.5 -1.5t38.5 0t33.5 0.5l-4 34q0 4 -5.5 25.5t-5.5 30.5t7 20q7 4 47 4q48 11 82 8q2 -7 8 -51q1 -10 3.5 -29.5t5 -35t2.5 -17.5q5 -5 9.5 -51.5t0.5 -69.5q-5 -18 -14 -29t-26.5 -16t-27.5 -6t-35 -2 q-24 -3 -52.5 -3.5t-47.5 0t-54.5 2t-51.5 1.5q-17 0 -105 -1t-94 -1q-3 0 -14.5 -1t-19 -0.5t-11.5 3.5q-6 4 -8 11t-1.5 13.5t-0.5 14.5q-1 9 -4.5 35.5t-2.5 44.5zM123 1743q10 10 14 12q17 10 47 33q8 5 21.5 15.5t17.5 13.5l10 6q3 2 11.5 7.5t11.5 8.5q27 22 35 25 q10 6 28 24q5 5 15 10q14 4 30.5 17.5t18.5 15.5q9 5 21.5 16.5t17.5 14.5q17 13 35 4q29 -14 84 -61q3 -3 5 -8.5t5 -8.5l27 -18q42 -22 75 -55q7 -5 29 -21.5t35 -24.5q7 -6 53 -34l-33 -56l-18 -32q-3 -3 -6 -8.5t-6 -8.5q-10 -10 -16.5 -11t-18.5 5q-2 1 -8 3.5t-9 3.5 t-7 4t-6.5 6t-4.5 8l-12 6q-7 7 -26 17.5t-26 17.5l-28 22q-4 2 -74 53l-22 17q-7 7 -17 4q-41 -25 -57 -43q-9 -11 -21.5 -21.5t-20.5 -17t-23.5 -17.5t-22.5 -16q-41 -29 -68 -45q-12 -7 -13 -6.5t-13 8.5q-21 12 -39 55q-11 14 -31 60z" />
<glyph unicode="&#xcb;" horiz-adv-x="747" d="M63 127v16t2.5 21t8.5 12q4 3 11 3t16 -1.5t12 -1.5h20q2 14 2 43t1 86t1 86q0 78 1 236t1 237q3 194 0 389q0 14 -1 28.5t-2.5 32.5t-2.5 29q-7 0 -20 -1t-17 -1q-13 32 -16 70q0 15 3 43t3 33q56 7 260.5 16t321.5 -2q8 -12 14 -102t2 -125q-62 -9 -125 -6 q-9 0 -15.5 4t-9.5 8t-4 13.5t-0.5 14.5t1.5 17.5t1 17.5q-140 11 -221 0q-6 -19 -7 -37t2 -48.5t3 -38.5q3 -22 3.5 -46.5t-0.5 -58.5t-1 -47q0 -15 -1.5 -56t-1.5 -61t0.5 -53t2.5 -61.5t6 -55.5q10 1 85 13t120 8q18 -17 17 -87t-23 -77q-31 -8 -100.5 -10.5 t-102.5 -14.5q-13 -193 -2 -407q14 -5 30 -7.5t36.5 -3.5t33.5 -1.5t38.5 0t33.5 0.5l-4 34q0 4 -5.5 25.5t-5.5 30.5t7 20q7 4 47 4q48 11 82 8q2 -7 8 -51q1 -10 3.5 -29.5t5 -35t2.5 -17.5q5 -5 9.5 -51.5t0.5 -69.5q-5 -18 -14 -29t-26.5 -16t-27.5 -6t-35 -2 q-24 -3 -52.5 -3.5t-47.5 0t-54.5 2t-51.5 1.5q-17 0 -105 -1t-94 -1q-3 0 -14.5 -1t-19 -0.5t-11.5 3.5q-6 4 -8 11t-1.5 13.5t-0.5 14.5q-1 9 -4.5 35.5t-2.5 44.5zM215 1591q1 26 17 53t40 37q36 16 70 -18q18 -17 13 -41t-17.5 -43.5t-28.5 -32.5q-47 -12 -71 3.5 t-23 41.5zM426 1581q-23 41 12 74q33 31 74 21q34 -9 51 -46q20 -47 -22 -71q-26 -18 -62 -12t-53 34z" />
<glyph unicode="&#xcc;" horiz-adv-x="442" d="M70 90q-1 5 0.5 7.5t5.5 3.5t7 1.5t10.5 0t10.5 -0.5q4 0 13 1t14 1q0 13 2 35t2 33q13 127 17 418v217t-8 216.5t-9 217.5q0 70 2 105v8h-43q0 9 -7 48t-3 58q25 -2 76 -2q27 8 86 8h12q50 3 76 -2q10 -3 13.5 -7.5t4 -16.5t2.5 -19q1 -4 8.5 -26.5t8.5 -36.5 q-6 -3 -13.5 -3.5t-18.5 0.5t-15 1l-7 -92v-181q-1 -55 -7.5 -176.5t-6.5 -187.5q0 -41 4.5 -171t1.5 -200q-6 -49 -2 -147q5 -91 4 -103h51q19 -77 17 -96q-99 -6 -111 -6q-21 0 -81 -6.5t-91 -3.5q-3 7 -4 15t-1 17.5t-1 14.5q-4 28 -8 35q-1 3 -6 11t-6 11zM100 1696 q-6 14 0 22q11 14 36 22.5t39 9.5l42 3q16 0 26 -16.5t13 -35t6 -44.5t4 -31q1 -9 4 -28.5t3.5 -29t-1.5 -26.5q-5 -21 -18.5 -28.5t-29.5 -2t-27 20.5q-14 18 -32 55.5t-28 52.5l-15 21q-16 21 -22 35z" />
<glyph unicode="&#xcd;" horiz-adv-x="423" d="M63 90q-1 5 0.5 7.5t6 3.5t7.5 1.5t10.5 0t10.5 -0.5q4 0 13 1t14 1q0 13 2 35t2 33q12 116 16 418q3 51 1 163t-3.5 162.5t-6.5 162.5t-7 163q0 70 2 105v8h-43q0 9 -7 48t-3 58q25 -2 76 -2q27 8 86 8h12q50 3 76 -2q10 -3 13.5 -7.5t4 -16.5t2.5 -19q1 -4 8.5 -26.5 t8.5 -36.5q-6 -3 -14 -3.5t-19 0.5t-15 1l-6 -92v-181q-1 -55 -7.5 -176.5t-6.5 -187.5q0 -41 4.5 -171t1.5 -200q-6 -49 -2 -147q5 -91 4 -103q6 -1 15.5 -1t20.5 0.5t15 0.5q19 -77 17 -96q-99 -6 -111 -6q-21 0 -81 -6.5t-91 -3.5q-3 7 -4 15t-1 17.5t-1 14.5 q-4 28 -8 35q-1 3 -6.5 11t-6.5 11zM150 1567q-4 35 24.5 122t46.5 111q70 11 133 0q15 -15 -32.5 -134.5t-57.5 -119.5q-68 -10 -114 21z" />
<glyph unicode="&#xce;" horiz-adv-x="362" d="M-20 1583q-16 16 0 35q52 52 61 59l88 84q5 5 17.5 13.5t17.5 13.5l14 8q15 6 25 -4q96 -103 192 -168q4 -1 19 -16q12 -16 0 -25q-6 -5 -30.5 -26.5t-39.5 -30.5q-10 -13 -20 0l-19 12l-88 82q-18 13 -24 16q-78 -56 -97 -71l-22 -23l-15 -14q-13 -7 -17 -6.5t-15 8.5 q-46 52 -47 53zM33 90q-1 5 0.5 7.5t6 3.5t7.5 1.5t10.5 0t10.5 -0.5q4 0 12.5 1t13.5 1q0 13 2 35t2 33q13 127 17 418v217t-8 216.5t-9 217.5q0 70 2 105v8h-43q-1 9 -7 48t-3 58q25 -2 76 -2q27 8 86 8h12q50 3 76 -2q10 -3 13.5 -7.5t4 -16.5t2.5 -19q1 -4 8.5 -26.5 t8.5 -36.5q-6 -3 -13.5 -3.5t-18.5 0.5t-15 1l-6 -92v-181q-1 -56 -8 -177t-7 -187q0 -41 4.5 -171t1.5 -200q-6 -49 -2 -147q5 -91 4 -103q6 -1 15.5 -1t21 0.5t15.5 0.5q18 -74 16 -96q-99 -6 -111 -6q-21 0 -81 -6.5t-91 -3.5q-3 7 -4 15t-1 17.5t-1 14.5q-4 28 -8 35 q-1 3 -6 11t-6 11z" />
<glyph unicode="&#xcf;" horiz-adv-x="413" d="M63 90q-1 5 0.5 7.5t6 3.5t7.5 1.5t10.5 0t10.5 -0.5q4 0 13 1t14 1q0 13 2 35t2 33q12 116 16 418q3 51 1 163t-3.5 162.5t-6.5 162.5t-7 163q0 70 2 105v8h-43q0 9 -7 48t-3 58q25 -2 76 -2q27 8 86 8h12q50 3 76 -2q10 -3 13.5 -7.5t4 -16.5t2.5 -19q1 -4 8.5 -26.5 t8.5 -36.5q-6 -3 -14 -3.5t-19 0.5t-15 1l-6 -92v-181q-1 -55 -7.5 -176.5t-6.5 -187.5q0 -41 4.5 -171t1.5 -200q-6 -49 -2 -147q5 -91 4 -103q6 -1 15.5 -1t20.5 0.5t15 0.5q19 -77 17 -96q-99 -6 -111 -6q-21 0 -81 -6.5t-91 -3.5q-3 7 -4 15t-1 17.5t-1 14.5 q-4 28 -8 35q-1 3 -6.5 11t-6.5 11zM64 1577q1 26 17 53t40 37q36 15 69 -18q18 -17 13.5 -41t-17 -43.5t-28.5 -32.5q-47 -12 -71 3.5t-23 41.5zM274 1567q-23 41 12 74q33 31 75 21q34 -9 51 -46q20 -48 -23 -72q-26 -18 -62 -11.5t-53 34.5z" />
<glyph unicode="&#xd0;" horiz-adv-x="841" d="M43 680v113q0 23 6 26q2 2 10 2l105 -4h319q35 -4 45 -8q7 0 15 -8q4 -4 4 -21q2 -41 2 -118q0 -35 -10 -35q-25 0 -33 2q-4 0 -59 3t-119.5 8t-81.5 9q-16 0 -79 1t-75 1q-15 0 -20 -4q-6 -2 -8 -2t-7.5 2.5t-7.5 3.5q-6 0 -6 29zM60 150q0 12 3 22q2 4 3.5 6.5t4 3t4 1 t6 0t7.5 -0.5q6 0 25.5 2.5t29.5 1.5q10 81 7 152q-14 298 -15 387q-3 195 21 391q2 21 6.5 87t9.5 102q0 16 2 22q-22 0 -37 6q-5 3 -16.5 7.5t-16.5 7.5q-4 2 -6.5 3t-3 3.5t-1 3.5t0 5t0.5 7q0 14 -3.5 37.5t-4.5 30.5q0 14 3 20t15 10q3 0 22 3.5t28 3.5q6 0 34 4 q6 2 25 2q23 4 65 -2t46 -6q23 -2 86.5 -6t99.5 -9q81 -15 145 -61q61 -39 78 -133q15 -73 17.5 -217t3.5 -160q1 -23 13.5 -179.5t12.5 -238.5q0 -301 -112 -406q-14 -13 -33 -23t-33 -15.5t-40.5 -9.5t-37.5 -5t-43 -3t-39 -3q-56 -4 -117 -1.5t-132.5 8t-75.5 5.5 q-3 0 -16 -1t-20.5 0t-10.5 5q-7 7 -7 37v45q0 8 -1.5 22t-1.5 26zM288.5 288q-0.5 -45 1 -74.5t5.5 -29.5q15 0 60 -2t68.5 -1t58 7t59 23t41.5 45q17 27 25.5 65t9 63.5t-1 76.5t-1.5 65q0 513 -10 592q-6 34 -10 53.5t-17.5 48t-33.5 44.5q-58 41 -217 41q-2 0 -2 -2v-3 q0 -10 -0.5 -75t-4.5 -99q-3 -37 -7 -111.5t-7 -111.5q-3 -66 -6 -199t-6 -200q0 -6 -1 -44.5t-2 -82.5t-1.5 -89z" />
<glyph unicode="&#xd1;" horiz-adv-x="966" d="M61 94q32 4 54 4q0 2 6 107q9 107 6 211q-1 84 4 236.5t6 201.5q1 66 8 211.5t7 224.5v72l-37 6q1 16 -2 49t-2 51q27 0 108.5 -2t85.5 -2q10 -10 16 -25.5t11 -38t8 -30.5l39 -125q2 -7 31.5 -107.5t50.5 -150.5q16 -38 43.5 -112t42.5 -109q23 -57 47 -104 q8 -54 45 -107q5 36 5.5 71.5t-2.5 93t-3 71.5q-1 56 12 235q3 39 7.5 117.5t7.5 116.5q2 35 2 104q-9 0 -26.5 -2t-25.5 -2q0 19 -8.5 51.5t-7.5 52.5q4 0 37.5 1t72 2t79.5 1.5t69 -2t31 -6.5q4 -11 5.5 -42.5t10.5 -45.5q-4 -4 -10 -5.5t-11 -1.5t-16 0.5t-16 0.5v-68 q-7 -86 -27 -516q-4 -73 -9 -271t-13 -298q-3 -27 -1.5 -88.5t-2.5 -89.5q-5 -25 -39 -36.5t-71.5 -8t-55.5 15.5l-17 43q-22 51 -63.5 175t-88.5 269.5t-58 178.5q-5 18 -16 62.5t-18.5 71t-22 62t-30.5 60.5q5 -2 1.5 -15t-3.5 -14v-61q3 -52 0 -107q-1 -41 -16 -225 l-10 -236q-8 -73 -8 -168q22 3 28 0q5 -5 12 -47.5t1 -48.5q-4 -4 -17 -5.5t-28.5 -1.5t-18.5 -1q-19 -4 -69.5 -0.5t-69.5 2.5q-39 -8 -45 2q-3 3 -7.5 44t-7.5 48zM204.5 1616q0.5 33 24.5 63q48 54 125.5 60.5t137.5 -33.5q55 -41 102 -41q10 1 17 2.5t12 7.5t6.5 8.5 t6.5 14.5t7 16q12 30 48.5 37t64.5 -6q36 -11 49 -46t2 -73q-2 -2 -2 -8q-10 -26 -35.5 -53t-50.5 -39q-30 -15 -70 -15q-64 4 -98 19q-13 6 -33.5 18t-36 21t-37.5 17.5t-36.5 7.5t-34.5 -9q-10 -7 -23.5 -27.5t-28 -32t-36.5 -7.5q-35 8 -58 36.5t-22.5 61.5z" />
<glyph unicode="&#xd2;" horiz-adv-x="827" d="M63.5 1105.5q0.5 29.5 4.5 57.5q8 79 47 172q13 33 39 70q8 9 18.5 17t17.5 12t21.5 12t21.5 12q31 20 71 36.5t85 28t89 6.5t73 -28q15 -11 43 -27t47 -31t33 -38q14 -25 23.5 -52t20.5 -73t13 -55q19 -90 19 -176q4 -140 10 -213q3 -32 2 -94t2 -91q4 -30 0.5 -101.5 t-2.5 -98.5q6 -106 -41 -209q-62 -136 -123 -197q-10 -9 -22.5 -16.5t-22.5 -12t-26 -8t-25 -5t-27.5 -2.5t-25.5 -1h-27.5h-24.5q-48 0 -112 23q-22 8 -54 30t-45 29q-4 10 -11 19.5t-17 19.5t-15 16q-6 10 -9 22t-5 27t-4 23q-17 101 -25 184q-17 163 -28 398 q-1 23 -2.5 62t-2.5 70.5t-1 59.5q0 17 -1.5 55t-1 67.5zM215 780q0 -18 1.5 -45.5t6.5 -48.5q13 -57 15 -170t10 -162q13 -83 63 -130.5t129 -28.5q73 16 119 79.5t59 143.5q24 161 0 364q-7 56 -11.5 174t-12.5 181q-13 105 -47 139q-29 29 -70.5 43.5t-83.5 9.5 q-72 -4 -112 -55t-54 -127q-7 -35 -10 -86q-1 -32 0.5 -95t1.5 -85q0 -11 -2 -47t-2 -54zM311 1778q-6 14 0 22q11 14 36 22.5t39 9.5l42 3q16 0 26 -16.5t13 -35t6 -44.5t4 -31q1 -9 4 -28.5t3.5 -29t-1.5 -26.5q-5 -21 -18.5 -28.5t-29.5 -2t-27 20.5q-14 18 -32 55.5 t-28 52.5l-16 21q-15 21 -21 35z" />
<glyph unicode="&#xd3;" horiz-adv-x="827" d="M63.5 1105.5q0.5 29.5 4.5 57.5q8 79 47 172q13 33 39 70q8 9 18.5 17t17.5 12t21.5 12t21.5 12q31 20 71 36.5t85 28t89 6.5t73 -28q15 -11 43 -27t47 -31t33 -38q14 -25 23.5 -52t20.5 -73t13 -55q19 -90 19 -176q4 -140 10 -213q3 -32 2 -94t2 -91q4 -30 0.5 -101.5 t-2.5 -98.5q6 -106 -41 -209q-62 -136 -123 -197q-10 -9 -22.5 -16.5t-22.5 -12t-26 -8t-25 -5t-27.5 -2.5t-25.5 -1h-27.5h-24.5q-48 0 -112 23q-22 8 -54 30t-45 29q-4 10 -11 19.5t-17 19.5t-15 16q-6 10 -9 22t-5 27t-4 23q-17 101 -25 184q-17 163 -28 398 q-1 23 -2.5 62t-2.5 70.5t-1 59.5q0 17 -1.5 55t-1 67.5zM215 780q0 -18 1.5 -45.5t6.5 -48.5q13 -57 15 -170t10 -162q13 -83 63 -130.5t129 -28.5q73 16 119 79.5t59 143.5q24 161 0 364q-7 56 -11.5 174t-12.5 181q-13 105 -47 139q-29 29 -70.5 43.5t-83.5 9.5 q-72 -4 -112 -55t-54 -127q-7 -35 -10 -86q-1 -32 0.5 -95t1.5 -85q0 -11 -2 -47t-2 -54zM346 1628q-4 35 25 122.5t47 111.5q70 11 133 0q15 -15 -32.5 -134.5t-57.5 -119.5q-70 -10 -115 20z" />
<glyph unicode="&#xd4;" horiz-adv-x="890" d="M63.5 1105.5q0.5 29.5 4.5 57.5q8 79 47 172q13 33 39 70q8 9 18.5 17t17.5 12t21.5 12t21.5 12q31 20 71 36.5t85 28t89 6.5t73 -28q15 -11 43 -27t47 -31t33 -38q14 -25 23.5 -52t20.5 -73t13 -55q19 -90 19 -176q4 -140 10 -213q3 -32 2 -94t2 -91q4 -30 0.5 -101.5 t-2.5 -98.5q6 -106 -41 -209q-62 -136 -123 -197q-10 -9 -22.5 -16.5t-22.5 -12t-26 -8t-25 -5t-27.5 -2.5t-25.5 -1h-27.5h-24.5q-48 0 -112 23q-22 8 -54 30t-45 29q-4 10 -11 19.5t-17 19.5t-15 16q-6 10 -9 22t-5 27t-4 23q-17 101 -25 184q-17 163 -28 398 q-1 23 -2.5 62t-2.5 70.5t-1 59.5q0 17 -1.5 55t-1 67.5zM168 1632q-18 22 0 43l76 74l106 100q7 7 21.5 16.5t21.5 16.5l19 10q15 9 30 -6q119 -122 234 -203q5 -3 22 -20q16 -16 0 -29q-47 -44 -84 -71q-14 -14 -26 0l-23 16l-106 98q-22 18 -31 21q-14 -11 -38.5 -28 t-43.5 -31t-35 -29l-28 -27l-17 -16q-14 -10 -20.5 -9.5t-18.5 11.5q-45 45 -59 63zM215 780q0 -18 1.5 -45.5t6.5 -48.5q13 -57 15 -170t10 -162q13 -83 63 -130.5t129 -28.5q73 16 119 79.5t59 143.5q24 161 0 364q-7 56 -11.5 174t-12.5 181q-13 105 -47 139 q-29 29 -70.5 43.5t-83.5 9.5q-72 -4 -112 -55t-54 -127q-7 -35 -10 -86q-1 -32 0.5 -95t1.5 -85q0 -11 -2 -47t-2 -54z" />
<glyph unicode="&#xd5;" horiz-adv-x="833" d="M63.5 1105.5q0.5 29.5 4.5 57.5q8 79 47 172q13 33 39 70q8 9 18.5 17t17.5 12t21.5 12t21.5 12q31 20 71 36.5t85 28t89 6.5t73 -28q15 -11 43 -27t47 -31t33 -38q14 -25 23.5 -52t20.5 -73t13 -55q19 -90 19 -176q4 -140 10 -213q3 -32 2 -94t2 -91q4 -30 0.5 -101.5 t-2.5 -98.5q6 -106 -41 -209q-62 -136 -123 -197q-10 -9 -22.5 -16.5t-22.5 -12t-26 -8t-25 -5t-27.5 -2.5t-25.5 -1h-27.5h-24.5q-48 0 -112 23q-22 8 -54 30t-45 29q-4 10 -11 19.5t-17 19.5t-15 16q-6 10 -9 22t-5 27t-4 23q-17 101 -25 184q-17 163 -28 398 q-1 23 -2.5 62t-2.5 70.5t-1 59.5q0 17 -1.5 55t-1 67.5zM125.5 1717q0.5 33 24.5 63q48 54 125 60t137 -34q55 -41 102 -41q9 0 15 2.5t10 4.5t7.5 7.5t5 9t5.5 12.5t6 14q12 30 48.5 36.5t64.5 -6.5q36 -11 49 -46t2 -73q-2 -2 -2 -8q-10 -26 -35.5 -53t-50.5 -39 q-28 -14 -70 -14q-67 4 -98 18q-13 6 -33.5 18t-36 21t-37.5 18t-36.5 8t-34.5 -9q-10 -7 -23.5 -27.5t-28 -32.5t-36.5 -8q-35 8 -57.5 37t-22 62zM215 780q0 -18 1.5 -45.5t6.5 -48.5q13 -57 15 -170t10 -162q13 -83 63 -130.5t129 -28.5q73 16 119 79.5t59 143.5 q24 161 0 364q-7 56 -11.5 174t-12.5 181q-13 105 -47 139q-29 29 -70.5 43.5t-83.5 9.5q-72 -4 -112 -55t-54 -127q-7 -35 -10 -86q-1 -32 0.5 -95t1.5 -85q0 -11 -2 -47t-2 -54z" />
<glyph unicode="&#xd6;" horiz-adv-x="827" d="M63.5 1105.5q0.5 29.5 4.5 57.5q8 79 47 172q13 33 39 70q8 9 18.5 17t17.5 12t21.5 12t21.5 12q31 20 71 36.5t85 28t89 6.5t73 -28q15 -11 43 -27t47 -31t33 -38q14 -25 23.5 -52t20.5 -73t13 -55q19 -90 19 -176q4 -140 10 -213q3 -32 2 -94t2 -91q4 -30 0.5 -101.5 t-2.5 -98.5q6 -106 -41 -209q-62 -136 -123 -197q-10 -9 -22.5 -16.5t-22.5 -12t-26 -8t-25 -5t-27.5 -2.5t-25.5 -1h-27.5h-24.5q-48 0 -112 23q-22 8 -54 30t-45 29q-4 10 -11 19.5t-17 19.5t-15 16q-6 10 -9 22t-5 27t-4 23q-17 101 -25 184q-17 163 -28 398 q-1 23 -2.5 62t-2.5 70.5t-1 59.5q0 17 -1.5 55t-1 67.5zM215 780q0 -18 1.5 -45.5t6.5 -48.5q13 -57 15 -170t10 -162q13 -83 63 -130.5t129 -28.5q73 16 119 79.5t59 143.5q24 161 0 364q-7 56 -11.5 174t-12.5 181q-13 105 -47 139q-29 29 -70.5 43.5t-83.5 9.5 q-72 -4 -112 -55t-54 -127q-7 -35 -10 -86q-1 -32 0.5 -95t1.5 -85q0 -11 -2 -47t-2 -54zM252 1659q1 26 17 53t40 37q36 16 70 -18q18 -17 13 -41t-17.5 -43.5t-28.5 -32.5q-47 -12 -71 3.5t-23 41.5zM463 1649q-23 41 12 74q33 31 74 21q34 -9 51 -46q20 -48 -22 -72 q-26 -18 -62 -11.5t-53 34.5z" />
<glyph unicode="&#xd7;" horiz-adv-x="729" d="M61 922q52 66 95 102q9 9 21.5 10t24 -4.5t25.5 -15t24 -19.5t21.5 -20t16.5 -14q13 -13 32 -29.5t25 -22.5l25 -20q32 45 69 86q78 86 103 80q61 -17 86 -62q8 -20 12 -45l-61 -67q-54 -64 -84 -90q-13 -10 63.5 -89.5t108.5 -103.5q-11 -27 -64 -81.5t-72 -39.5 q-73 51 -176 158q-23 -32 -71 -81t-60 -62q-13 -14 -23.5 -21t-17.5 -10.5t-16.5 1t-13.5 7.5t-16.5 15.5t-18.5 17.5t-19 14.5t-18.5 15t-10.5 14t-0.5 19t17.5 23.5l154 162q-30 25 -91.5 87t-89.5 85z" />
<glyph unicode="&#xd8;" horiz-adv-x="952" d="M70 786l24 201l17 154q14 130 92 258q64 99 184 133q62 14 105 12q23 -1 67.5 -1t69.5 -1q14 16 18 62q3 23 12 32q16 22 41 9l99 -50q16 -6 63 -26v-29l-18 -53q-3 -7 -7.5 -21.5t-7.5 -21.5q-18 -70 -2 -115q25 -89 52 -276q14 -120 10 -361q0 -12 -1 -31t-1 -30 q1 -41 -13 -211q-6 -75 -30 -146q-28 -79 -92 -143q-6 -6 -29 -20q-78 -52 -139 -74q-78 -29 -154 -37q-23 0 -29 -2q-7 -20 -17 -56.5t-17 -56.5l-21 -53q-12 -21 -33 -18l-20 6l-82 18q-3 0 -8 1t-8 1q-12 4 -17 6t-11.5 6.5t-8 9.5t-1 14t4.5 22q3 11 7 33.5t7 33.5 q3 7 6 21.5t6 21.5q6 12 10 25t8.5 33t6.5 28q6 14 -6 29q-5 7 -15.5 17.5t-15.5 17.5q-60 65 -82 159q-12 53 -18 105q-24 208 -6 364zM258 664q3 -21 4 -44.5t1 -52.5t1 -45q3 -53 15 -84q0 -4 10 -14q6 9 10 27q45 156 57 190q8 23 23.5 72.5t23.5 72.5q7 21 19.5 60.5 t19.5 60.5q10 26 33 105q57 168 94 315l6 29l-10 6q-88 0 -131 -2q-18 0 -26 -14l-76 -91q-28 -32 -31 -90q-3 -13 -6 -41t-6 -41q-21 -89 -21 -180q0 -7 -1 -22.5t-1 -22.5q-13 -141 -8 -194zM451 215q-3 -19 16 -25q12 -6 22 -8q70 -6 129 41q40 30 56 92q12 47 26 115 q17 75 15 131q0 72 -2 111q-3 37 -7.5 111.5t-7.5 111.5l-4 45q-5 34 -16 47q-4 -20 -4 -22q-19 -97 -68 -234q-7 -20 -19.5 -58.5t-19.5 -58.5q-31 -99 -94 -309q-11 -34 -20 -72q-2 -4 -2 -18z" />
<glyph unicode="&#xd9;" horiz-adv-x="901" d="M63 1416.5q0 13.5 7 30.5t24 26q23 7 43.5 6.5t55 -5t43.5 -4.5h90q0 -11 5.5 -38.5t5 -47.5t-12.5 -30q-21 -12 -56 -15q-2 -32 -6.5 -91t-7.5 -107t-4 -92q-9 -221 2 -428l18 -205q0 -4 2 -23t3 -26t3.5 -23.5t4.5 -26t5 -23t7.5 -24.5t9.5 -22q21 -44 65.5 -65.5 t95 -18t91.5 28.5q34 21 55 63t27 76.5t10 85.5q3 142 -4 246q-12 352 -20 538l-7 133q0 9 -2 11q-16 0 -18 2q-9 5 -15 14.5t-7.5 23.5t-2 25t0.5 26.5t1 20.5l-2 12q38 3 113.5 6.5t112.5 6.5q17 0 21 -2.5t9 -16.5q5 -17 9 -69q1 -19 -12.5 -27t-39.5 -10l5 -47 q19 -194 22 -437q3 -97 2.5 -225t-10.5 -225q-32 -274 -176 -365q-83 -59 -230 -59q-58 0 -123.5 45.5t-105.5 104.5q-7 9 -12 21t-8.5 20t-7.5 23.5t-5 21t-4.5 24.5t-3.5 21l-8 48t-7 51.5t-5 47.5t-4.5 51.5t-3.5 47.5t-2.5 51.5t-2.5 47t-2.5 51t-1.5 48.5q-2 130 8 315 l9 230v69h-39q0 11 -3.5 37.5t-3.5 40zM330 1760q-6 14 0 22q11 14 36 22.5t38.5 9.5t41.5 3q16 0 26 -16.5t13.5 -35t6.5 -44.5t4 -31q1 -9 4 -28.5t3.5 -29t-1.5 -26.5q-5 -21 -19 -29t-30 -2.5t-27 20.5q-13 18 -31 55.5t-28 53.5l-15 21q-16 21 -22 35z" />
<glyph unicode="&#xda;" horiz-adv-x="901" d="M63 1416.5q0 13.5 7 30.5t24 26q23 7 43.5 6.5t55 -5t43.5 -4.5h90q0 -11 5.5 -38.5t5 -47.5t-12.5 -30q-21 -12 -56 -15q-2 -32 -6.5 -91t-7.5 -107t-4 -92q-9 -221 2 -428l18 -205q0 -4 2 -23t3 -26t3.5 -23.5t4.5 -26t5 -23t7.5 -24.5t9.5 -22q21 -44 65.5 -65.5 t95 -18t91.5 28.5q34 21 55 63t27 76.5t10 85.5q3 142 -4 246q-12 352 -20 538l-7 133q0 9 -2 11q-16 0 -18 2q-9 5 -15 14.5t-7.5 23.5t-2 25t0.5 26.5t1 20.5l-2 12q38 3 113.5 6.5t112.5 6.5q17 0 21 -2.5t9 -16.5q5 -17 9 -69q1 -19 -12.5 -27t-39.5 -10l5 -47 q19 -194 22 -437q3 -97 2.5 -225t-10.5 -225q-32 -274 -176 -365q-83 -59 -230 -59q-58 0 -123.5 45.5t-105.5 104.5q-7 9 -12 21t-8.5 20t-7.5 23.5t-5 21t-4.5 24.5t-3.5 21l-8 48t-7 51.5t-5 47.5t-4.5 51.5t-3.5 47.5t-2.5 51.5t-2.5 47t-2.5 51t-1.5 48.5q-2 130 8 315 l9 230v69h-39q0 11 -3.5 37.5t-3.5 40zM365 1563q-4 35 24.5 122t46.5 111q70 11 133 0q15 -15 -32.5 -134.5t-57.5 -119.5q-68 -10 -114 21z" />
<glyph unicode="&#xdb;" horiz-adv-x="905" d="M63 1416.5q0 13.5 7 30.5t24 26q23 7 43.5 6.5t55 -5t43.5 -4.5h90q0 -11 5.5 -38.5t5 -47.5t-12.5 -30q-21 -12 -56 -15q-2 -32 -6.5 -91t-7.5 -107t-4 -92q-9 -221 2 -428l18 -205q0 -4 2 -23t3 -26t3.5 -23.5t4.5 -26t5 -23t7.5 -24.5t9.5 -22q21 -44 65.5 -65.5 t95 -18t91.5 28.5q34 21 55 63t27 76.5t10 85.5q3 142 -4 246q-12 352 -20 538l-7 133q0 9 -2 11q-16 0 -18 2q-9 5 -15 14.5t-7.5 23.5t-2 25t0.5 26.5t1 20.5l-2 12q38 3 113.5 6.5t112.5 6.5q17 0 21 -2.5t9 -16.5q5 -17 9 -69q1 -19 -12.5 -27t-39.5 -10l5 -47 q19 -194 22 -437q3 -97 2.5 -225t-10.5 -225q-32 -274 -176 -365q-83 -59 -230 -59q-58 0 -123.5 45.5t-105.5 104.5q-7 9 -12 21t-8.5 20t-7.5 23.5t-5 21t-4.5 24.5t-3.5 21l-8 48t-7 51.5t-5 47.5t-4.5 51.5t-3.5 47.5t-2.5 51.5t-2.5 47t-2.5 51t-1.5 48.5q-2 130 8 315 l9 230v69h-39q0 11 -3.5 37.5t-3.5 40zM213 1640q-18 22 0 43l76 74l106 101q7 7 21.5 16t21.5 16l19 11q14 9 30 -7q116 -119 234 -202q2 -1 22 -21q16 -16 0 -29q-47 -44 -84 -71q-14 -14 -26 0l-23 16l-106 99q-20 16 -31 20q-14 -11 -38.5 -28t-43.5 -31t-35 -29 l-28 -27l-17 -16q-14 -10 -20.5 -9.5t-18.5 11.5q-45 45 -59 63z" />
<glyph unicode="&#xdc;" horiz-adv-x="915" d="M62 1439q-3 9 1 13q17 2 77 4.5t112.5 3.5t52.5 0q43 0 53 -10q4 -4 16.5 -34t12.5 -36q-3 -21 -49 -24q137 -436 145 -441q66 177 146 437q-16 -2 -47 -2q3 12 -8.5 49t-4.5 47q5 7 64.5 10.5t117.5 2.5t58 -5q29 0 37 -20q5 -16 4 -48.5t4 -48.5q-12 0 -38 -1t-38 -1 l-16 -51q-5 -22 -53.5 -184t-92 -312.5t-43.5 -171.5q0 -1 0.5 -33t0.5 -74.5v-101v-113.5t-1 -111t-2 -95q10 3 17 0.5t14 -18.5q24 -54 21 -86q-12 4 -25.5 5.5t-31 0.5t-27 -2t-31 -4t-25.5 -4t-18 -4t-24 -4.5t-21.5 -1.5t-18.5 6t-8 18q-3 12 1 46t12 42q11 8 38 8 q0 41 2.5 114t2.5 85q0 41 -6.5 158.5t-10.5 156.5q-8 63 -37 125q-15 32 -76 195.5t-86 238.5q-8 27 -24.5 70.5t-22.5 60.5l-20 54q-4 -2 -21 -2q-18 -5 -24.5 -4.5t-16.5 10.5q-6 8 -13.5 27.5t-10.5 25.5q-2 3 -7 11t-6.5 11t-4.5 12zM295 1593q1 26 17 53t40 37 q36 16 70 -18q18 -17 13 -41t-17.5 -43.5t-28.5 -32.5q-47 -12 -71 3.5t-23 41.5zM506 1583q-23 41 12 74q33 31 74 21q34 -9 51 -46q20 -47 -22 -71q-26 -18 -62 -12t-53 34z" />
<glyph unicode="&#xdd;" horiz-adv-x="915" d="M62 1439q-3 9 1 13q17 2 77 4.5t112.5 3.5t52.5 0q43 0 53 -10q4 -4 16.5 -34t12.5 -36q-3 -21 -49 -24q137 -436 145 -441q66 177 146 437q-16 -2 -47 -2q3 12 -8.5 49t-4.5 47q5 7 64.5 10.5t117.5 2.5t58 -5q29 0 37 -20q5 -16 4 -48.5t4 -48.5q-12 0 -38 -1t-38 -1 l-16 -51q-5 -22 -53.5 -184t-92 -312.5t-43.5 -171.5q0 -1 0.5 -33t0.5 -74.5v-101v-113.5t-1 -111t-2 -95q10 3 17 0.5t14 -18.5q24 -54 21 -86q-12 4 -25.5 5.5t-31 0.5t-27 -2t-31 -4t-25.5 -4t-18 -4t-24 -4.5t-21.5 -1.5t-18.5 6t-8 18q-3 12 1 46t12 42q11 8 38 8 q0 41 2.5 114t2.5 85q0 41 -6.5 158.5t-10.5 156.5q-8 63 -37 125q-15 32 -76 195.5t-86 238.5q-8 27 -24.5 70.5t-22.5 60.5l-20 54q-4 -2 -21 -2q-18 -5 -24.5 -4.5t-16.5 10.5q-6 8 -13.5 27.5t-10.5 25.5q-2 3 -7 11t-6.5 11t-4.5 12zM418 1538q-4 35 24.5 122.5 t46.5 111.5q70 11 134 0q15 -15 -33 -134.5t-58 -119.5q-69 -10 -114 20z" />
<glyph unicode="&#xde;" horiz-adv-x="761" d="M60 28q3 56 26 58q6 0 12 -4h21q-8 98 -10.5 217t-1.5 185.5t5 221.5t5 193q0 304 22 455q-29 -7 -47 -4q-1 21 4 125q19 4 78 9t82 5q18 0 39 -12q3 -8 3 -24t3 -23q46 12 67.5 16.5t60 5.5t67.5 -10q79 -26 133 -111q51 -88 62.5 -191t4.5 -241q-2 -27 -2 -107t-8 -126 q-24 -113 -80 -185q-44 -53 -103.5 -84.5t-123.5 -27.5q-21 1 -53 14.5t-47 15.5q-3 -53 -3 -106l-4 -207h31h21q7 -17 10 -33q8 -24 8 -55q-2 -13 -10.5 -21.5t-25 -11t-28 -3.5t-32.5 0t-25 1q-8 0 -31.5 -3.5t-44.5 -6.5t-42 -1.5t-29 9.5q-17 13 -14 67zM270.5 679 q0.5 -14 4.5 -36t12 -39q15 -15 25.5 -24.5t28.5 -22t33.5 -17.5t36.5 -5t42 8q60 42 84 166q28 159 10 395q-8 74 -60 153q-44 67 -131 23q-20 -11 -32.5 -25.5t-20 -37.5t-10 -35.5t-6.5 -42.5q-11 -76 -12.5 -217t-2.5 -162q0 -9 -1 -38t-0.5 -43z" />
<glyph unicode="&#xdf;" horiz-adv-x="1044" d="M61 150v10q4 4 11 4q12 0 16 2q14 2 39 2l-4 45q-4 46 -4 70q-5 152 -8 182q-6 65 -2 194l4 215l6 220q0 186 4 239q13 138 24 187q33 151 195 190q102 23 215 2q98 -18 162 -94q93 -113 112 -238q12 -46 15 -55q13 -57 10 -129q-3 -87 -49 -154q-8 -10 -24 -26.5 t-21 -22.5l53 -55q56 -59 88 -125q52 -105 62 -197q2 -13 6.5 -44t7 -53.5t2.5 -43.5q3 -204 -111 -321q-59 -62 -106 -95q-30 -24 -68 -36l-22 -7q-2 -1 -7 -1.5t-9 -2t-7 -4.5l-1 -4q-1 -3 -5 -4q-2 -2 -12 -2l-37 -4q-28 -4 -41 -4q-24 0 -47 10q-24 8 -43 27 q-20 15 -33 43q-1 3 -3 5t-3 5q-3 3 -8 18q-10 23 -10 39q-13 55 8 82l18 21q6 3 6 6q4 4 11 6q19 8 32 8q20 0 37 -10q2 -1 21 -11t28 -14q28 -4 31 -4q5 0 15.5 -1t15.5 -1q10 0 12 2h12q1 0 13 4q2 1 5.5 1t6.5 1t6 4q11 8 14 21q3 15 19 38.5t20 35.5q5 9 10 26.5 t7 22.5q21 87 2 186q-3 13 -19 119q-20 128 -133 215q-6 4 -14 7.5t-19.5 7t-15.5 5.5q-74 19 -113 17q-31 -2 -42 8t-15 45q-3 42 8 100q11 61 72 48q54 -14 115 14q52 27 67 88q4 12 8 59q7 47 -26 117l-15 29q-15 25 -20 30q-29 31 -71 38.5t-83 -9.5q-41 -15 -69 -57 q-30 -42 -40 -71.5t-14 -92.5q-1 -17 -5 -65t-4.5 -64l-2 -64t1.5 -65q1 -25 1 -53.5t-0.5 -62.5t-0.5 -52v-39q0 -80 8 -111q1 -3 7 -43q3 -58 6 -169t6 -168q2 -54 2.5 -65.5t-2 -66t-2.5 -67.5q2 -4 2 -17v-43v-4v-8v-22v-19l-8 -16q-3 -12 -15 -8q-1 0 -3 1t-3 1 q-4 0 -6 2h-16h-17l-14 4q-28 0 -78 -4q-47 -10 -80 -8q-18 0 -20 6q-1 3 -1 9t-1 9q-6 27 -6 57q0 47 -5 66q-2 4 -2 21z" />
<glyph unicode="&#xe0;" horiz-adv-x="749" d="M63 403q2 74 33 153.5t84 121.5q35 28 82 46t97.5 20.5t89.5 -21.5q5 107 -9 143q-5 18 -25 35.5t-41 20.5t-34 -23q-4 -4 -2 -12.5t4 -13t6.5 -12.5t5.5 -11q18 -45 -8 -71t-67.5 -24.5t-75.5 13.5q-98 40 -31 176q62 127 178 127q69 0 136 -34.5t98 -92.5 q12 -23 19 -47.5t10 -57t3.5 -49.5t0 -59t-0.5 -51q-1 -38 0.5 -166t-2.5 -166q-3 -29 -3 -90t-3 -90q0 -1 -3 -27.5t-3 -40.5q58 4 74 -12q10 -13 12.5 -47.5t-2.5 -52.5q-33 -4 -70.5 -3.5t-90.5 3t-54 2.5q-3 7 -5 20.5t-5 20.5q-9 -3 -35.5 -12.5t-40.5 -13.5 t-36.5 -7.5t-41.5 -1.5q-74 3 -147 76q-34 31 -54.5 69.5t-29.5 86.5t-11 83t-2 92zM219 272q8 -46 38 -75t70 -27.5t74 37.5q33 33 45.5 91t9 108.5t-15.5 103.5q-8 33 -22 47t-49 21q-29 9 -58.5 3.5t-50.5 -32.5q-7 -8 -13 -19t-9.5 -18.5t-6.5 -23.5t-4 -20.5t-3.5 -25 t-2.5 -22.5q-12 -100 -2 -148zM236.5 1328.5q-5.5 13.5 1.5 17.5q11 14 36.5 22t37.5 9t42 3q16 0 26 -16.5t13 -35t6 -44.5t4 -31q1 -9 4 -28t4 -29t-1 -27q-7 -31 -33 -32.5t-43 22.5q-14 18 -32 56t-28 53q-2 3 -12 16.5t-15 22t-10.5 22z" />
<glyph unicode="&#xe1;" horiz-adv-x="749" d="M63 403q2 74 33 153.5t84 121.5q35 28 82 46t97.5 20.5t89.5 -21.5q5 107 -9 143q-5 18 -25 35.5t-41 20.5t-34 -23q-4 -4 -2 -12.5t4 -13t6.5 -12.5t5.5 -11q18 -45 -8 -71t-67.5 -24.5t-75.5 13.5q-98 40 -31 176q62 127 178 127q69 0 136 -34.5t98 -92.5 q12 -23 19 -47.5t10 -57t3.5 -49.5t0 -59t-0.5 -51q-1 -38 0.5 -166t-2.5 -166q-3 -29 -3 -90t-3 -90q0 -1 -3 -27.5t-3 -40.5q58 4 74 -12q10 -13 12.5 -47.5t-2.5 -52.5q-33 -4 -70.5 -3.5t-90.5 3t-54 2.5q-3 7 -5 20.5t-5 20.5q-9 -3 -35.5 -12.5t-40.5 -13.5 t-36.5 -7.5t-41.5 -1.5q-74 3 -147 76q-34 31 -54.5 69.5t-29.5 86.5t-11 83t-2 92zM219 272q8 -46 38 -75t70 -27.5t74 37.5q33 33 45.5 91t9 108.5t-15.5 103.5q-8 33 -22 47t-49 21q-29 9 -58.5 3.5t-50.5 -32.5q-7 -8 -13 -19t-9.5 -18.5t-6.5 -23.5t-4 -20.5t-3.5 -25 t-2.5 -22.5q-12 -100 -2 -148zM272 1176q-4 35 25 122t47 111q70 11 133 0q15 -15 -32.5 -134.5t-57.5 -119.5q-69 -10 -115 21z" />
<glyph unicode="&#xe2;" horiz-adv-x="710" d="M63 403q2 74 33 153.5t84 121.5q35 28 82 46t97.5 20.5t89.5 -21.5q5 107 -9 143q-5 18 -25 35.5t-41 20.5t-34 -23q-4 -4 -2 -12.5t4 -13t6.5 -12.5t5.5 -11q18 -45 -8 -71t-67.5 -24.5t-75.5 13.5q-98 40 -31 176q62 127 178 127q69 0 136 -34.5t98 -92.5 q12 -23 19 -47.5t10 -57t3.5 -49.5t0 -59t-0.5 -51q-1 -38 0.5 -166t-2.5 -166q-3 -29 -3 -90t-3 -90q0 -1 -3 -27.5t-3 -40.5q58 4 74 -12q10 -13 12.5 -47.5t-2.5 -52.5q-33 -4 -70.5 -3.5t-90.5 3t-54 2.5q-3 7 -5 20.5t-5 20.5q-9 -3 -35.5 -12.5t-40.5 -13.5 t-36.5 -7.5t-41.5 -1.5q-74 3 -147 76q-34 31 -54.5 69.5t-29.5 86.5t-11 83t-2 92zM109 1176q-18 22 0 43l75 73l107 101q7 7 21.5 16t21.5 16l18 11q16 9 31 -6q121 -124 233 -203q5 -3 23 -21q16 -16 0 -28q-53 -49 -84 -72q-15 -15 -27 0l-22 16l-107 99q-21 16 -30 20 q-14 -11 -38.5 -28t-43.5 -31t-35 -29l-29 -27l-16 -16q-14 -10 -20.5 -9.5t-18.5 11.5q-41 41 -59 64zM219 272q8 -46 38 -75t70 -27.5t74 37.5q33 33 45.5 91t9 108.5t-15.5 103.5q-8 33 -22 47t-49 21q-29 9 -58.5 3.5t-50.5 -32.5q-7 -8 -13 -19t-9.5 -18.5t-6.5 -23.5 t-4 -20.5t-3.5 -25t-2.5 -22.5q-12 -100 -2 -148z" />
<glyph unicode="&#xe3;" horiz-adv-x="718" d="M63 403q2 74 33 153.5t84 121.5q35 28 82 46t97.5 20.5t89.5 -21.5q5 107 -9 143q-5 18 -25 35.5t-41 20.5t-34 -23q-4 -4 -2 -12.5t4 -13t6.5 -12.5t5.5 -11q18 -45 -8 -71t-67.5 -24.5t-75.5 13.5q-98 40 -31 176q62 127 178 127q69 0 136 -34.5t98 -92.5 q12 -23 19 -47.5t10 -57t3.5 -49.5t0 -59t-0.5 -51q-1 -38 0.5 -166t-2.5 -166q-3 -29 -3 -90t-3 -90q0 -1 -3 -27.5t-3 -40.5q58 4 74 -12q10 -13 12.5 -47.5t-2.5 -52.5q-33 -4 -70.5 -3.5t-90.5 3t-54 2.5q-3 7 -5 20.5t-5 20.5q-9 -3 -35.5 -12.5t-40.5 -13.5 t-36.5 -7.5t-41.5 -1.5q-74 3 -147 76q-34 31 -54.5 69.5t-29.5 86.5t-11 83t-2 92zM84.5 1262q0.5 33 24.5 63q48 54 125 60.5t137 -33.5q55 -41 102 -41q10 1 17 2.5t12 7.5t6.5 8.5t6.5 14.5t7 16q12 30 48.5 37t64.5 -6q36 -11 49 -46t2 -73q-2 -2 -2 -8 q-10 -26 -35.5 -53.5t-50.5 -39.5q-28 -14 -70 -14q-64 4 -98 19q-13 6 -33.5 18t-36 21t-37.5 17.5t-36.5 7.5t-34.5 -9q-10 -7 -23.5 -27.5t-28 -32.5t-36.5 -8q-35 8 -57.5 37t-22 62zM219 272q8 -46 38 -75t70 -27.5t74 37.5q33 33 45.5 91t9 108.5t-15.5 103.5 q-8 33 -22 47t-49 21q-29 9 -58.5 3.5t-50.5 -32.5q-7 -8 -13 -19t-9.5 -18.5t-6.5 -23.5t-4 -20.5t-3.5 -25t-2.5 -22.5q-12 -100 -2 -148z" />
<glyph unicode="&#xe4;" horiz-adv-x="749" d="M63 403q2 74 33 153.5t84 121.5q35 28 82 46t97.5 20.5t89.5 -21.5q5 107 -9 143q-5 18 -25 35.5t-41 20.5t-34 -23q-4 -4 -2 -12.5t4 -13t6.5 -12.5t5.5 -11q18 -45 -8 -71t-67.5 -24.5t-75.5 13.5q-98 40 -31 176q62 127 178 127q69 0 136 -34.5t98 -92.5 q12 -23 19 -47.5t10 -57t3.5 -49.5t0 -59t-0.5 -51q-1 -38 0.5 -166t-2.5 -166q-3 -29 -3 -90t-3 -90q0 -1 -3 -27.5t-3 -40.5q58 4 74 -12q10 -13 12.5 -47.5t-2.5 -52.5q-33 -4 -70.5 -3.5t-90.5 3t-54 2.5q-3 7 -5 20.5t-5 20.5q-9 -3 -35.5 -12.5t-40.5 -13.5 t-36.5 -7.5t-41.5 -1.5q-74 3 -147 76q-34 31 -54.5 69.5t-29.5 86.5t-11 83t-2 92zM219 272q8 -46 38 -75t70 -27.5t74 37.5q33 33 45.5 91t9 108.5t-15.5 103.5q-8 33 -22 47t-49 21q-29 9 -58.5 3.5t-50.5 -32.5q-7 -8 -13 -19t-9.5 -18.5t-6.5 -23.5t-4 -20.5t-3.5 -25 t-2.5 -22.5q-12 -100 -2 -148zM233 1259.5q17 39.5 50 53.5q35 15 69 -19q18 -17 13 -40.5t-17.5 -43t-28.5 -32.5q-61 -15 -82 13.5t-4 68zM436 1212q-23 41 12 75q33 31 74 21q34 -9 51 -46q20 -48 -22 -72q-26 -18 -62 -12t-53 34z" />
<glyph unicode="&#xe5;" horiz-adv-x="749" d="M63 403q2 74 33 153.5t84 121.5q35 28 82 46t97.5 20.5t89.5 -21.5q5 107 -9 143q-5 18 -25 35.5t-41 20.5t-34 -23q-4 -4 -2 -12.5t4 -13t6.5 -12.5t5.5 -11q18 -45 -8 -71t-67.5 -24.5t-75.5 13.5q-98 40 -31 176q62 127 178 127q69 0 136 -34.5t98 -92.5 q12 -23 19 -47.5t10 -57t3.5 -49.5t0 -59t-0.5 -51q-1 -38 0.5 -166t-2.5 -166q-3 -29 -3 -90t-3 -90q0 -1 -3 -27.5t-3 -40.5q58 4 74 -12q10 -13 12.5 -47.5t-2.5 -52.5q-33 -4 -70.5 -3.5t-90.5 3t-54 2.5q-3 7 -5 20.5t-5 20.5q-9 -3 -35.5 -12.5t-40.5 -13.5 t-36.5 -7.5t-41.5 -1.5q-74 3 -147 76q-34 31 -54.5 69.5t-29.5 86.5t-11 83t-2 92zM219 272q8 -46 38 -75t70 -27.5t74 37.5q33 33 45.5 91t9 108.5t-15.5 103.5q-8 33 -22 47t-49 21q-29 9 -58.5 3.5t-50.5 -32.5q-7 -8 -13 -19t-9.5 -18.5t-6.5 -23.5t-4 -20.5t-3.5 -25 t-2.5 -22.5q-12 -100 -2 -148zM227 1309q13 116 60 159q43 36 94 48q94 24 164 -25q41 -26 71.5 -69.5t34.5 -88.5q8 -82 -55 -152.5t-147 -70.5q-88 0 -158.5 56.5t-63.5 142.5zM373 1323q-4 -7 3 -19.5t15 -17.5l31 -10l51 10q25 6 25 29q1 16 -3 22.5t-18 12.5 q-2 1 -4.5 2t-3.5 1.5t-2 0.5q-27 15 -51 0q-12 -4 -15 -4q-22 -3 -28 -27z" />
<glyph unicode="&#xe6;" horiz-adv-x="1093" d="M63 403q2 74 33 153.5t84 121.5q35 28 82 46t97.5 20.5t89.5 -21.5q5 107 -9 143q-5 18 -25 35.5t-41 20.5t-34 -23q-4 -4 -2 -12.5t4 -13t6.5 -12.5t5.5 -11q18 -45 -8 -71t-67.5 -24.5t-75.5 13.5q-98 40 -31 176q62 127 178 127q69 0 136 -34.5t98 -92.5 q12 -23 19 -47.5t10 -57t3.5 -49.5t0 -59t-0.5 -51q-1 -38 0.5 -166t-2.5 -166q-3 -29 -3 -90t-3 -90q0 -1 -3 -27.5t-3 -40.5q58 4 74 -12q10 -13 12.5 -47.5t-2.5 -52.5q-33 -4 -70.5 -3.5t-90.5 3t-54 2.5q-3 7 -5 20.5t-5 20.5q-9 -3 -35.5 -12.5t-40.5 -13.5 t-36.5 -7.5t-41.5 -1.5q-74 3 -147 76q-34 31 -54.5 69.5t-29.5 86.5t-11 83t-2 92zM219 272q8 -46 38 -75t70 -27.5t74 37.5q33 33 45.5 91t9 108.5t-15.5 103.5q-8 33 -22 47t-49 21q-29 9 -58.5 3.5t-50.5 -32.5q-7 -8 -13 -19t-9.5 -18.5t-6.5 -23.5t-4 -20.5t-3.5 -25 t-2.5 -22.5q-12 -100 -2 -148zM451 569q0 66 8.5 129.5t31.5 131t58 117.5t92.5 82t130.5 32q42 0 76 -11.5t57 -28t40.5 -44.5t27 -52t16.5 -60t9.5 -59t5.5 -58q10 -92 10 -170q0 -38 -2 -56q0 -16 -107 -16h-47q-20 -2 -91.5 -11.5t-107.5 -9.5h-18q-25 0 -25 -10 q0 -1 -0.5 -24t-0.5 -42t2 -51t6 -56.5t13.5 -53t23 -47t35 -31t48.5 -12.5q32 0 69 16t44 43q3 28 -26.5 63t-32.5 56q-7 45 37 64t88 10q40 -7 72 -35t50 -66q9 -21 9 -49q-2 -83 -95 -184q-42 -42 -102 -65t-121 -23q-284 0 -284 581zM621 659q41 -8 100 -8q49 0 151 13 q1 6 3 16.5t2 13.5q0 20 -13 74q-31 131 -96 131q-129 0 -147 -240z" />
<glyph unicode="&#xe7;" horiz-adv-x="667" d="M68 319q-12 249 2 373q7 58 23.5 114.5t45.5 111t77 91t108 42.5q59 5 132 -23t119.5 -85.5t20.5 -123.5q-13 -34 -57 -52t-89 -9t-61 45q-3 8 -5 23.5t-4 27t-9.5 23t-20.5 14.5q-28 9 -59 -31q-18 -22 -32 -53.5t-18.5 -48t-15.5 -58.5q-3 -13 -7 -39.5t-7 -39.5 q-1 -5 -7 -45.5t-7.5 -51.5t-5.5 -45.5t-4 -51.5v-45t3 -50.5t9 -44.5q26 -104 98 -140q23 -12 45 -13t33 11.5t-2 42.5q-7 11 -7.5 21.5t2 17.5t12 16t16 13.5t20.5 13.5q55 30 108 -1t49 -97q-4 -43 -41 -91t-77 -69q-59 -28 -124 -25t-122 33q-79 43 -109 118.5 t-32 180.5zM141 -276q-11 68 35.5 90.5t110.5 3.5q46 -17 61 2q11 16 -1 35t-28 24q-4 2 -18 8.5t-21 10.5t-17 11.5t-14.5 17t-4.5 20.5t0.5 23.5t0.5 17.5t-1 12.5t-4 15.5q-12 2 5 6q58 12 153 13q57 0 45 -10q-1 -1 -3 -2q0 -17 -2 -23q-3 -47 33 -63q18 -13 41 -39 q16 -16 25 -37q28 -50 -7 -97q-24 -39 -59 -59q-55 -31 -76 -37q-4 -2 -20 -8t-23.5 -8.5l-25.5 -8.5t-26 -8t-25.5 -5.5t-25 -2t-22.5 1.5q-32 6 -56.5 34t-29.5 61z" />
<glyph unicode="&#xe8;" horiz-adv-x="724" d="M61 569q0 66 9 129.5t32 131t58 117.5t92.5 82t130.5 32q42 0 76 -11.5t57 -28t40 -44.5t26.5 -52t16.5 -60.5t9.5 -58.5t5.5 -58q11 -101 11 -170q0 -38 -2 -56q0 -16 -107 -16h-47q-20 -2 -91.5 -11.5t-107.5 -9.5h-18q-25 0 -25 -10q0 -1 -0.5 -24t-0.5 -42t2 -51 t6 -56.5t13.5 -53t23 -47t35 -31t48.5 -12.5q32 0 69 16t44 43q3 28 -26.5 63t-32.5 56q-7 45 36.5 64t87.5 10q40 -7 72.5 -35t50.5 -66q9 -21 9 -49q-2 -83 -95 -184q-42 -42 -102 -65t-121 -23q-55 0 -99 22.5t-73 58t-51 88t-33.5 102.5t-18 111t-8.5 105.5t-2 93.5z M231 659q41 -8 101 -8q49 0 151 13q4 28 4 30q0 24 -12 74q-31 131 -96 131q-130 0 -148 -240zM231 1311q-6 14 0 22q11 14 36 22.5t39 9.5l42 3q16 0 26 -16.5t13 -35t6 -44.5t4 -31q1 -9 4 -28.5t3.5 -29t-1.5 -26.5q-5 -21 -18.5 -28.5t-29.5 -2t-27 20.5 q-14 18 -32 55.5t-28 52.5l-16 21q-15 21 -21 35z" />
<glyph unicode="&#xe9;" horiz-adv-x="724" d="M61 569q0 66 9 129.5t32 131t58 117.5t92.5 82t130.5 32q42 0 76 -11.5t57 -28t40 -44.5t26.5 -52t16.5 -60.5t9.5 -58.5t5.5 -58q11 -101 11 -170q0 -38 -2 -56q0 -16 -107 -16h-47q-20 -2 -91.5 -11.5t-107.5 -9.5h-18q-25 0 -25 -10q0 -1 -0.5 -24t-0.5 -42t2 -51 t6 -56.5t13.5 -53t23 -47t35 -31t48.5 -12.5q32 0 69 16t44 43q3 28 -26.5 63t-32.5 56q-7 45 36.5 64t87.5 10q40 -7 72.5 -35t50.5 -66q9 -21 9 -49q-2 -83 -95 -184q-42 -42 -102 -65t-121 -23q-55 0 -99 22.5t-73 58t-51 88t-33.5 102.5t-18 111t-8.5 105.5t-2 93.5z M231 659q41 -8 101 -8q49 0 151 13q4 28 4 30q0 24 -12 74q-31 131 -96 131q-130 0 -148 -240zM303 1139q-4 35 25 122t47 111q70 11 133 0q15 -15 -32.5 -134.5t-57.5 -119.5q-69 -10 -115 21z" />
<glyph unicode="&#xea;" horiz-adv-x="708" d="M61 569q0 66 9 129.5t32 131t58 117.5t92.5 82t130.5 32q42 0 76 -11.5t57 -28t40 -44.5t26.5 -52t16.5 -60.5t9.5 -58.5t5.5 -58q11 -101 11 -170q0 -38 -2 -56q0 -16 -107 -16h-47q-20 -2 -91.5 -11.5t-107.5 -9.5h-18q-25 0 -25 -10q0 -1 -0.5 -24t-0.5 -42t2 -51 t6 -56.5t13.5 -53t23 -47t35 -31t48.5 -12.5q32 0 69 16t44 43q3 28 -26.5 63t-32.5 56q-7 45 36.5 64t87.5 10q40 -7 72.5 -35t50.5 -66q9 -21 9 -49q-2 -83 -95 -184q-42 -42 -102 -65t-121 -23q-55 0 -99 22.5t-73 58t-51 88t-33.5 102.5t-18 111t-8.5 105.5t-2 93.5z M121 1161q-18 21 0 43l76 74l106 100q7 7 21.5 16.5t21.5 16.5l19 10q15 9 30 -6q119 -122 234 -203q5 -3 22 -20q16 -16 0 -29q-47 -44 -84 -71q-14 -14 -26 0l-23 16l-106 98q-22 18 -31 21q-14 -11 -38.5 -28t-43.5 -31t-35 -29l-28 -27l-17 -16q-14 -10 -20.5 -9.5 t-18.5 11.5q-45 45 -59 63zM231 659q41 -8 101 -8q49 0 151 13q4 28 4 30q0 24 -12 74q-31 131 -96 131q-130 0 -148 -240z" />
<glyph unicode="&#xeb;" horiz-adv-x="724" d="M61 569q0 66 9 129.5t32 131t58 117.5t92.5 82t130.5 32q42 0 76 -11.5t57 -28t40 -44.5t26.5 -52t16.5 -60.5t9.5 -58.5t5.5 -58q11 -101 11 -170q0 -38 -2 -56q0 -16 -107 -16h-47q-20 -2 -91.5 -11.5t-107.5 -9.5h-18q-25 0 -25 -10q0 -1 -0.5 -24t-0.5 -42t2 -51 t6 -56.5t13.5 -53t23 -47t35 -31t48.5 -12.5q32 0 69 16t44 43q3 28 -26.5 63t-32.5 56q-7 45 36.5 64t87.5 10q40 -7 72.5 -35t50.5 -66q9 -21 9 -49q-2 -83 -95 -184q-42 -42 -102 -65t-121 -23q-55 0 -99 22.5t-73 58t-51 88t-33.5 102.5t-18 111t-8.5 105.5t-2 93.5z M199 1202q1 26 17 53t40 37q36 16 70 -18q18 -17 13 -41t-17.5 -43.5t-28.5 -32.5q-47 -12 -71 3.5t-23 41.5zM231 659q41 -8 101 -8q49 0 151 13q4 28 4 30q0 24 -12 74q-31 131 -96 131q-130 0 -148 -240zM410 1192q-23 41 12 74q33 31 74 21q34 -9 51 -46q20 -48 -23 -72 q-26 -18 -61.5 -11.5t-52.5 34.5z" />
<glyph unicode="&#xec;" horiz-adv-x="471" d="M63.5 61.5q1.5 13.5 12.5 22.5q10 7 24 10t36.5 3.5t25.5 0.5q-6 27 -10 80q-4 41 -5 91.5t-0.5 81t2 95.5t1.5 84q5 224 4 267l-7 139v8h-49q-1 5 -15.5 39t-10.5 57q162 25 200 25q9 0 34 2t44 1t33 -7q-3 -10 -5 -37.5t-9.5 -40.5t-26.5 -18l-16 -4q0 -7 -1 -21.5 t-1 -21.5q-1 -61 -9.5 -178t-9.5 -134q-3 -82 -3 -235.5t-1 -188.5q0 -5 -3 -33.5t-3 -46.5q59 3 131 -18q0 -12 5.5 -46t2.5 -54q-7 -4 -17 -4.5t-23.5 1t-18.5 1.5q-25 1 -70.5 -3.5t-58.5 -5.5q-108 -4 -162 2q0 13 -5.5 31t-11 30t-4 25.5zM121 1299q-6 14 0 22 q11 14 36 22.5t39 9.5l42 3q16 0 26 -16.5t13 -35t6 -44.5t4 -31q1 -9 4 -28.5t3.5 -29t-1.5 -26.5q-7 -31 -33 -32.5t-43 22.5q-13 18 -31 55t-28 53l-16 21q-15 21 -21 35z" />
<glyph unicode="&#xed;" horiz-adv-x="473" d="M63.5 61.5q1.5 13.5 12.5 22.5q10 7 24 10t36.5 3.5t25.5 0.5q-6 27 -10 80q-4 41 -5 91.5t-0.5 81t2 95.5t1.5 84q5 224 4 267l-7 139v8h-49q-1 5 -15.5 39t-10.5 57q162 25 200 25q9 0 34 2t44 1t33 -7q-3 -10 -5 -37.5t-9.5 -40.5t-26.5 -18l-16 -4q0 -7 -1 -21.5 t-1 -21.5q-1 -61 -9.5 -178t-9.5 -134q-3 -82 -3 -235.5t-1 -188.5q0 -5 -3 -33.5t-3 -46.5q59 3 131 -18q0 -12 5.5 -46t2.5 -54q-7 -4 -17 -4.5t-23.5 1t-18.5 1.5q-25 1 -70.5 -3.5t-58.5 -5.5q-108 -4 -162 2q0 13 -5.5 31t-11 30t-4 25.5zM145 1149q-4 35 25 122 t47 111q70 11 133 0q15 -15 -32.5 -134.5t-57.5 -119.5q-69 -10 -115 21z" />
<glyph unicode="&#xee;" horiz-adv-x="479" d="M10 1186q-16 16 0 35q48 48 62 59l88 84q5 5 17.5 13.5t17.5 13.5l14 8q14 6 24 -4q95 -101 193 -168q4 -1 6.5 -3.5t6 -7t5.5 -6.5q12 -15 0 -24q-8 -6 -31.5 -27.5t-37.5 -30.5q-11 -14 -21 0l-18 13l-88 82q-16 12 -25 16q-59 -42 -96 -72l-23 -22l-14 -15 q-13 -7 -17 -6t-16 9q-46 52 -47 53zM38.5 61.5q1.5 13.5 12.5 22.5q10 7 24 10t36.5 3.5t25.5 0.5q-6 27 -10 80q-4 41 -5 91.5t-0.5 81t2 95.5t1.5 84q5 224 4 267l-6 139v8h-49q-1 6 -16 39.5t-11 56.5q162 25 201 25q9 0 34 2t43.5 1t32.5 -7q-3 -10 -5 -37.5 t-9.5 -40.5t-26.5 -18l-16 -4q0 -7 -1 -21.5t-1 -21.5q-1 -46 -4 -98t-7.5 -115.5t-6.5 -98.5q-4 -83 -4.5 -241.5t-0.5 -182.5q0 -5 -3 -33.5t-3 -46.5q59 3 131 -18q0 -12 6 -46t3 -54q-7 -4 -17.5 -4.5t-24 1t-18.5 1.5q-25 1 -70.5 -3.5t-58.5 -5.5q-108 -4 -162 2 q0 13 -5.5 31t-11 30t-4 25.5z" />
<glyph unicode="&#xef;" horiz-adv-x="462" d="M59 1236.5q17 39.5 50 53.5q36 15 69 -18q18 -17 13 -41t-17.5 -43.5t-28.5 -32.5q-61 -15 -82 13.5t-4 68zM63.5 61.5q1.5 13.5 12.5 22.5q10 7 24 10t36.5 3.5t25.5 0.5q-6 27 -10 80q-4 41 -5 91.5t-0.5 81t2 95.5t1.5 84q5 224 4 267l-7 139v8h-49q-1 5 -15.5 39 t-10.5 57q162 25 200 25q9 0 34 2t44 1t33 -7q-3 -10 -5 -37.5t-9.5 -40.5t-26.5 -18l-16 -4q0 -7 -1 -21.5t-1 -21.5q-1 -61 -9.5 -178t-9.5 -134q-3 -82 -3 -235.5t-1 -188.5q0 -5 -3 -33.5t-3 -46.5q59 3 131 -18q0 -12 5.5 -46t2.5 -54q-7 -4 -17 -4.5t-23.5 1 t-18.5 1.5q-25 1 -70.5 -3.5t-58.5 -5.5q-108 -4 -162 2q0 13 -5.5 31t-11 30t-4 25.5zM262 1190q-23 41 12 74q33 31 74 21q34 -9 51 -46q20 -48 -22 -72q-26 -18 -62 -11.5t-53 34.5z" />
<glyph unicode="&#xf0;" horiz-adv-x="815" d="M61 541q0 356 148 485q36 32 67 43q163 58 273 14q14 128 -23 258q-10 29 -20 39q-1 -18 2 -53t1 -60t-13 -46q-63 -31 -170 -4q-11 0 -13 2v14v27v34q1 8 3 18l3.5 17.5t2.5 14.5t-0.5 11.5t-6.5 6.5l-5 2q-6 3 -12 4.5t-13 0.5t-14 -9.5t-11 -24.5q-3 -13 2 -32 q12 -65 -18 -99l-13 -14q-33 -20 -75 -2l-25 14q-2 1 -18 17q-21 21 -31 45q-6 24 -6 26v35q0 34 10 86q6 29 18 55q10 20 29 39q28 36 51 54q41 26 54 30q8 5 24 10l23 9q11 7 28 10q-14 83 11 180q10 6 18.5 6t19.5 -3t19 -3q13 0 25 5.5t18 6.5q16 1 34 -10.5t25 -23.5 q11 -20 9.5 -74t3.5 -76q1 -3 27 -10t30 -10q18 -8 45 -35q25 -25 37.5 -39t27 -37t21.5 -47q55 -186 61 -315q13 -242 7 -363q-1 -27 -3.5 -106.5t-5 -121.5t-11.5 -115t-23.5 -120.5t-41 -102t-63.5 -93.5q-25 -30 -62 -55.5t-71 -35.5q-82 -28 -162.5 1.5t-136.5 99.5 q-111 141 -111 420zM225 567.5q3 -94.5 27 -184.5q28 -111 82 -162q23 -21 48 -22t46 14.5t38 36.5t32 47q47 88 63 260q18 165 -31 270q-10 22 -34 40.5t-45 25.5q-44 19 -102.5 1.5t-78.5 -60.5q-18 -42 -26 -82q-22 -90 -19 -184.5z" />
<glyph unicode="&#xf1;" horiz-adv-x="772" d="M43.5 1225q0.5 33 24.5 63q48 54 125 60.5t137 -33.5q55 -41 102 -41q10 1 17 2.5t12 7.5t6.5 8.5t6.5 14.5t7 16q12 30 48.5 37t64.5 -6q36 -11 49 -46t2 -73q-2 -2 -2 -8q-10 -26 -35.5 -53t-50.5 -39q-30 -15 -70 -15q-64 4 -98 19q-13 6 -33.5 18t-36 21t-37.5 17.5 t-36.5 7.5t-34.5 -9q-10 -7 -23.5 -27.5t-28 -32.5t-36.5 -8q-35 8 -57.5 37t-22 62zM64.5 967.5q-0.5 23.5 2.5 53t3 36.5q4 0 50.5 3t81 4t54.5 -1q3 -9 6 -31t6 -33q38 28 71.5 42.5t78 13.5t92.5 -25q30 -15 53.5 -43.5t38 -68t22 -69.5t15.5 -71q18 -128 29 -352 q0 -39 4 -174t4 -137q4 -5 25 -2.5t26 2.5q0 -11 14.5 -60.5t8.5 -58.5q-5 -7 -28 -10t-45 -2.5t-49.5 1.5t-29.5 1q-12 0 -37.5 -2.5t-44.5 -2t-35 6.5q0 11 -15.5 50t-6.5 54q1 3 6 4t15.5 1t15.5 1q20 0 32 2l-12 88q-14 110 -8 146q14 214 -8 362q-1 5 -5 32.5 t-5.5 36.5t-6.5 32t-10.5 35t-14.5 28.5t-20 28.5q-44 11 -76 -18t-61 -80q-32 -51 -34.5 -145.5t9 -209.5t9.5 -157q-1 -31 5 -131.5t-1 -131.5q-12 -7 -65.5 -12t-84.5 -2q-17 -1 -23 -1t-18 1t-15.5 5t-8 10.5t-3.5 18t5 27.5q0 2 1.5 19.5t4 30t6.5 16.5q6 9 29 12 q-5 143 0.5 425t5.5 358q-41 -4 -51 10q-7 10 -7.5 33.5z" />
<glyph unicode="&#xf2;" horiz-adv-x="722" d="M72 709q33 201 141 264q162 102 311 18q110 -61 135 -315q1 -24 1 -50v-46.5t-2 -50t-3 -46t-4.5 -49.5t-5 -45.5t-5.5 -50t-5 -47.5q-5 -55 -10 -86.5t-18.5 -76t-40 -74.5t-66.5 -48q-9 -4 -19.5 -7t-18.5 -5t-21 -2.5t-19 -0.5t-21.5 1t-19 1.5t-21.5 2.5t-20 2 q-97 10 -164 57q-4 -2 -10 3.5t-13 16.5t-9.5 16.5t-6.5 12.5q-18 30 -28 68q-14 43 -27 154q-29 253 -10 383zM195 477q0 -158 28 -233q33 -84 146 -109q104 -20 123 117q4 40 16.5 125.5t15.5 132.5q0 13 1 49.5t1 59.5t-2.5 60.5t-7.5 62.5t-16.5 54t-28 45.5t-42 27.5 t-58.5 10l-4 -5q-89 -7 -131 -163q-39 -134 -41 -234zM295 1315q-6 14 0 22q11 14 36 22.5t39 9.5l42 3q16 0 26 -16.5t13 -35t6 -44.5t4 -31q1 -9 4 -28.5t3.5 -29t-1.5 -26.5q-7 -31 -33 -32.5t-43 22.5q-13 18 -31 55.5t-28 53.5q-1 1 -16 21t-21 34z" />
<glyph unicode="&#xf3;" horiz-adv-x="722" d="M72 709q33 201 141 264q162 102 311 18q110 -61 135 -315q1 -24 1 -50v-46.5t-2 -50t-3 -46t-4.5 -49.5t-5 -45.5t-5.5 -50t-5 -47.5q-5 -55 -10 -86.5t-18.5 -76t-40 -74.5t-66.5 -48q-9 -4 -19.5 -7t-18.5 -5t-21 -2.5t-19 -0.5t-21.5 1t-19 1.5t-21.5 2.5t-20 2 q-97 10 -164 57q-4 -2 -10 3.5t-13 16.5t-9.5 16.5t-6.5 12.5q-18 30 -28 68q-14 43 -27 154q-29 253 -10 383zM195 477q0 -158 28 -233q33 -84 146 -109q104 -20 123 117q4 40 16.5 125.5t15.5 132.5q0 13 1 49.5t1 59.5t-2.5 60.5t-7.5 62.5t-16.5 54t-28 45.5t-42 27.5 t-58.5 10l-4 -5q-89 -7 -131 -163q-39 -134 -41 -234zM301 1128q-4 35 25 122.5t47 111.5q70 11 133 0q15 -15 -32.5 -134.5t-57.5 -119.5q-70 -10 -115 20z" />
<glyph unicode="&#xf4;" horiz-adv-x="772" d="M72 709q33 201 141 264q162 102 311 18q110 -61 135 -315q1 -24 1 -50v-46.5t-2 -50t-3 -46t-4.5 -49.5t-5 -45.5t-5.5 -50t-5 -47.5q-5 -55 -10 -86.5t-18.5 -76t-40 -74.5t-66.5 -48q-9 -4 -19.5 -7t-18.5 -5t-21 -2.5t-19 -0.5t-21.5 1t-19 1.5t-21.5 2.5t-20 2 q-97 10 -164 57q-4 -2 -10 3.5t-13 16.5t-9.5 16.5t-6.5 12.5q-18 30 -28 68q-14 43 -27 154q-29 253 -10 383zM131 1143q-18 21 0 43l76 74l106 100q7 7 21.5 16.5t21.5 16.5l19 10q16 9 31 -6q121 -124 233 -203q7 -4 23 -20t0 -29q-53 -49 -84 -72q-15 -15 -27 0l-23 17 l-106 98q-20 16 -31 20q-14 -11 -38.5 -28t-43.5 -31t-35 -29l-28 -26l-17 -17q-14 -10 -20.5 -9.5t-18.5 11.5q-41 41 -59 64zM195 477q0 -158 28 -233q33 -84 146 -109q104 -20 123 117q4 40 16.5 125.5t15.5 132.5q0 13 1 49.5t1 59.5t-2.5 60.5t-7.5 62.5t-16.5 54 t-28 45.5t-42 27.5t-58.5 10l-4 -5q-89 -7 -131 -163q-39 -134 -41 -234z" />
<glyph unicode="&#xf5;" horiz-adv-x="708" d="M61.5 1211q0.5 33 24.5 63q48 54 125 60t137 -34q54 -40 103 -40q10 1 17 2.5t12 7.5t6.5 8.5t6.5 14.5t7 16q12 30 48 36.5t64 -6.5q36 -11 49.5 -45.5t2.5 -72.5q-2 -2 -2 -9q-10 -26 -36 -53t-51 -39q-28 -14 -69 -14q-67 4 -98 18q-13 6 -34 18t-36 21t-37.5 18 t-37 8t-34.5 -9q-10 -7 -23.5 -27.5t-28 -32.5t-36.5 -8q-35 8 -57.5 37t-22 62zM72 709q33 201 141 264q162 102 311 18q110 -61 135 -315q1 -24 1 -50v-46.5t-2 -50t-3 -46t-4.5 -49.5t-5 -45.5t-5.5 -50t-5 -47.5q-5 -55 -10 -86.5t-18.5 -76t-40 -74.5t-66.5 -48 q-9 -4 -19.5 -7t-18.5 -5t-21 -2.5t-19 -0.5t-21.5 1t-19 1.5t-21.5 2.5t-20 2q-97 10 -164 57q-4 -2 -10 3.5t-13 16.5t-9.5 16.5t-6.5 12.5q-18 30 -28 68q-14 43 -27 154q-29 253 -10 383zM195 477q0 -158 28 -233q33 -84 146 -109q104 -20 123 117q4 40 16.5 125.5 t15.5 132.5q0 13 1 49.5t1 59.5t-2.5 60.5t-7.5 62.5t-16.5 54t-28 45.5t-42 27.5t-58.5 10l-4 -5q-89 -7 -131 -163q-39 -134 -41 -234z" />
<glyph unicode="&#xf6;" horiz-adv-x="722" d="M72 709q33 201 141 264q162 102 311 18q110 -61 135 -315q1 -24 1 -50v-46.5t-2 -50t-3 -46t-4.5 -49.5t-5 -45.5t-5.5 -50t-5 -47.5q-5 -55 -10 -86.5t-18.5 -76t-40 -74.5t-66.5 -48q-9 -4 -19.5 -7t-18.5 -5t-21 -2.5t-19 -0.5t-21.5 1t-19 1.5t-21.5 2.5t-20 2 q-97 10 -164 57q-4 -2 -10 3.5t-13 16.5t-9.5 16.5t-6.5 12.5q-18 30 -28 68q-14 43 -27 154q-29 253 -10 383zM195 477q0 -158 28 -233q33 -84 146 -109q104 -20 123 117q4 40 16.5 125.5t15.5 132.5q0 13 1 49.5t1 59.5t-2.5 60.5t-7.5 62.5t-16.5 54t-28 45.5t-42 27.5 t-58.5 10l-4 -5q-89 -7 -131 -163q-39 -134 -41 -234zM218 1212q17 40 50 54q36 15 70 -19q18 -17 13 -41t-17.5 -43.5t-28.5 -32.5q-61 -15 -82.5 13.5t-4.5 68.5zM422 1165q-23 41 12 74q33 31 74 21q34 -9 51 -46q20 -47 -22 -71q-26 -18 -62 -12t-53 34z" />
<glyph unicode="&#xf7;" horiz-adv-x="802" d="M61 649v125q0 25 9 31q2 2 12 2l141 -4h430q33 -3 60 -10q6 0 18 -9q6 -3 6 -22q4 -94 4 -133t-14 -39q-31 0 -45 2q-5 0 -78.5 3.5t-160 9t-111.5 9.5q-18 0 -103.5 1t-101.5 1q-22 0 -27 -4q-7 -2 -10 -2t-10 2.5t-10 3.5q-9 0 -9 33zM313 1051q21 52 78 65q1 0 2 -1 t2 -1q-2 0 -2 2h2q19 4 39.5 -9t28.5 -32q11 -23 5.5 -50t-24.5 -44q-7 -8 -21 -18t-24 -11q-40 -2 -68 28.5t-18 70.5zM330.5 366.5q-9.5 40.5 9.5 69.5q18 30 52 37.5t59 -16.5q15 -15 26 -42.5t10 -52.5l5 5v-2q0 -4 -3.5 -13.5t-5.5 -11.5q-13 -28 -50.5 -37t-63.5 6 q-29 17 -38.5 57.5zM389 1116h6h-6z" />
<glyph unicode="&#xf8;" horiz-adv-x="888" d="M72 655q21 159 84 293q37 77 105.5 144t139.5 67q70 -6 78 -8l41 -8l35 65q37 68 39 76q21 3 42.5 -1.5t48 -13.5t42.5 -12l1 -4q1 -4 5 -4q-6 -44 -37 -129l-28 -67q86 -99 96 -109q37 -54 49 -123q31 -166 -14 -372q0 -9 -4 -29q-18 -79 -28 -117t-38 -100t-65 -103 q-54 -54 -121 -82q-39 -16 -75 -16.5t-81 10.5q-3 -15 -10.5 -39t-9.5 -32q-34 -96 -35 -97q-9 -3 -104 37.5t-101 46.5q12 53 41 138l31 86l-25 26q-28 28 -39 47q-38 55 -53 125q-31 146 -10 305zM238 416q3 -31 10 -41q24 53 76 224t77 224q16 66 29 95q4 13 23 55 q-2 0 -4 -2q-5 -5 -11 -2q-1 3 1 6q-2 2 -3 2q-26 5 -43.5 -2t-24 -15.5t-18.5 -29.5q-32 -52 -65 -150.5t-41 -161.5q-17 -135 -6 -202zM432 199q3 -3 10.5 -1.5l10 2t10 4.5t10.5 5q48 27 86 67t49 84q28 96 41.5 192.5t5.5 141.5q-6 39 -17.5 77t-18.5 57l-7 18 q-9 -39 -106 -369q-6 -22 -20 -67t-22 -72t-17.5 -66t-14.5 -73z" />
<glyph unicode="&#xf9;" horiz-adv-x="960" d="M63.5 1041.5q-0.5 13.5 4.5 28t16 20.5q15 7 40.5 8t59.5 -1.5t43 -2.5q14 -1 61.5 0.5t61.5 -2.5q3 -52 0 -101h-49q-1 -7 -8 -28q-7 -32 -8 -127.5t1.5 -220.5t2.5 -138q0 -124 33 -219q18 -56 51 -76.5t98 -7.5q30 4 58.5 63.5t35.5 98.5q10 56 16.5 232.5t6.5 273.5 q2 47 2 133v6q-72 -4 -74 33q0 9 4 37l6 24q-4 4 -4 10q0 9 13 19q22 12 130.5 16t127.5 -6q27 -16 8 -100l-31 -4q-1 -48 -1 -142.5t-1 -142.5q0 -458 4 -578q22 -3 63.5 0.5t53.5 2.5q-4 -18 2 -48t8.5 -48.5t-10.5 -43.5q-25 -14 -89 -16t-198 6q-23 16 -29 41 q-99 -51 -200 -33t-166 103q-59 78 -81 175.5t-28 227.5q-2 58 -0.5 142t5 188.5t3.5 111.5v29q-18 -6 -38 -6q0 8 -2 28.5t-2.5 34zM342 1399q-6 14 0 22q11 14 36 22.5t39 9.5l42 3q16 0 26 -16.5t13 -35t6 -44.5t4 -31q1 -9 4 -28.5t3.5 -29t-1.5 -26.5q-7 -31 -33 -32.5 t-43 22.5q-13 18 -31 55t-28 53l-15 21q-16 21 -22 35z" />
<glyph unicode="&#xfa;" horiz-adv-x="960" d="M63.5 1041.5q-0.5 13.5 4.5 28t16 20.5q15 7 40.5 8t59.5 -1.5t43 -2.5q14 -1 61.5 0.5t61.5 -2.5q3 -52 0 -101h-49q-1 -7 -8 -28q-7 -32 -8 -127.5t1.5 -220.5t2.5 -138q0 -124 33 -219q18 -56 51 -76.5t98 -7.5q30 4 58.5 63.5t35.5 98.5q10 56 16.5 232.5t6.5 273.5 q2 47 2 133v6q-72 -4 -74 33q0 9 4 37l6 24q-4 4 -4 10q0 9 13 19q22 12 130.5 16t127.5 -6q27 -16 8 -100l-31 -4q-1 -48 -1 -142.5t-1 -142.5q0 -458 4 -578q22 -3 63.5 0.5t53.5 2.5q-4 -18 2 -48t8.5 -48.5t-10.5 -43.5q-25 -14 -89 -16t-198 6q-23 16 -29 41 q-99 -51 -200 -33t-166 103q-59 78 -81 175.5t-28 227.5q-2 58 -0.5 142t5 188.5t3.5 111.5v29q-18 -6 -38 -6q0 8 -2 28.5t-2.5 34zM391 1245q-4 35 25 122.5t47 111.5q70 11 133 0q15 -15 -32.5 -134.5t-57.5 -119.5q-70 -10 -115 20z" />
<glyph unicode="&#xfb;" horiz-adv-x="960" d="M63.5 1041.5q-0.5 13.5 4.5 28t16 20.5q15 7 40.5 8t59.5 -1.5t43 -2.5q14 -1 61.5 0.5t61.5 -2.5q3 -52 0 -101h-49q-1 -7 -8 -28q-7 -32 -8 -127.5t1.5 -220.5t2.5 -138q0 -124 33 -219q18 -56 51 -76.5t98 -7.5q30 4 58.5 63.5t35.5 98.5q10 56 16.5 232.5t6.5 273.5 q2 47 2 133v6q-72 -4 -74 33q0 9 4 37l6 24q-4 4 -4 10q0 9 13 19q22 12 130.5 16t127.5 -6q27 -16 8 -100l-31 -4q-1 -48 -1 -142.5t-1 -142.5q0 -458 4 -578q22 -3 63.5 0.5t53.5 2.5q-4 -18 2 -48t8.5 -48.5t-10.5 -43.5q-25 -14 -89 -16t-198 6q-23 16 -29 41 q-99 -51 -200 -33t-166 103q-59 78 -81 175.5t-28 227.5q-2 58 -0.5 142t5 188.5t3.5 111.5v29q-18 -6 -38 -6q0 8 -2 28.5t-2.5 34zM199 1284q-18 22 0 43l75 74l107 100q7 7 21.5 16.5t21.5 16.5l18 10q16 9 31 -6q119 -122 234 -203q5 -3 22 -20q16 -16 0 -29 q-53 -49 -84 -72q-15 -15 -27 0l-22 17l-107 98q-2 2 -7.5 7t-10.5 8t-12 6q-14 -11 -38.5 -28t-43.5 -31t-35 -29l-29 -27l-16 -16q-14 -10 -20.5 -9.5t-18.5 11.5q-45 45 -59 63z" />
<glyph unicode="&#xfc;" horiz-adv-x="960" d="M63.5 1041.5q-0.5 13.5 4.5 28t16 20.5q15 7 40.5 8t59.5 -1.5t43 -2.5q14 -1 61.5 0.5t61.5 -2.5q3 -52 0 -101h-49q-1 -7 -8 -28q-7 -32 -8 -127.5t1.5 -220.5t2.5 -138q0 -124 33 -219q18 -56 51 -76.5t98 -7.5q30 4 58.5 63.5t35.5 98.5q10 56 16.5 232.5t6.5 273.5 q2 47 2 133v6q-72 -4 -74 33q0 9 4 37l6 24q-4 4 -4 10q0 9 13 19q22 12 130.5 16t127.5 -6q27 -16 8 -100l-31 -4q-1 -48 -1 -142.5t-1 -142.5q0 -458 4 -578q22 -3 63.5 0.5t53.5 2.5q-4 -18 2 -48t8.5 -48.5t-10.5 -43.5q-25 -14 -89 -16t-198 6q-23 16 -29 41 q-99 -51 -200 -33t-166 103q-59 78 -81 175.5t-28 227.5q-2 58 -0.5 142t5 188.5t3.5 111.5v29q-18 -6 -38 -6q0 8 -2 28.5t-2.5 34zM291 1262q1 26 17 53t40 37q36 15 70 -19q18 -17 13 -40.5t-17.5 -43t-28.5 -32.5q-47 -12 -71 3.5t-23 41.5zM502 1251q-23 41 12 74 q33 31 74 21q34 -9 51 -46q20 -47 -23 -71q-26 -18 -61.5 -12t-52.5 34z" />
<glyph unicode="&#xfd;" horiz-adv-x="817" d="M64 992q-2 47 4 50q7 12 14 14.5t29 2.5q137 4 206 -2q3 -52 0 -101q-4 -1 -10 -1t-13.5 0.5t-12.5 0.5q1 -28 -3 -78t-4 -55q0 -53 9 -198.5t16 -192.5q1 -10 3.5 -37t4.5 -41t8 -35t15 -38q12 -26 36.5 -48t47.5 -22t50 20.5t38 36.5q9 14 15.5 31.5t9 30.5t5.5 34 t5 31q6 26 1.5 257.5t-10.5 275.5v8q-38 -3 -45 14q-7 15 0 92q40 9 84 9q52 9 107 0h22q23 3 29.5 0.5t13.5 -21.5q3 -8 6 -33.5t11 -38.5q-23 -2 -60 -2q7 -34 3 -174t-3 -174l4 -131q3 -54 -2.5 -150.5t-5.5 -131.5q0 -39 -4 -117q-2 -86 -49 -203q-26 -67 -75.5 -115.5 t-112.5 -52.5q-38 -4 -84 10t-82 41q-33 26 -45 45q-14 23 -10 55t26 50q42 33 82 33q17 1 28.5 -4t24.5 -15.5t23 -15.5q44 -26 75 17.5t31 92.5q-67 -31 -133.5 -21t-124.5 58q-30 26 -51 60.5t-33.5 79t-18 76.5t-12.5 85q-5 35 -8.5 70.5t-4.5 80t-1.5 68t0 80t0.5 70.5 q0 13 -3 91.5t-3 123.5q-30 -3 -61 0q0 7 -2 54zM354 1202q-4 35 25 122.5t47 111.5q70 11 133 0q15 -15 -32.5 -134.5t-57.5 -119.5q-70 -10 -115 20z" />
<glyph unicode="&#xfe;" horiz-adv-x="765" d="M63 -350q-1 5 5 45l4 12l3 3q5 6 11 1q3 -1 6 -1t7 0.5t7 0.5h15q7 11 -2 23q-3 5 -4 9.5t-1 7.5t0.5 8.5t0.5 9.5v12q-4 28 -4 35q0 11 4 39q-4 6 -5 12.5t-0.5 14t-0.5 12.5v12v14v43v23v20q0 4 1 13t1 14v28q-2 14 -2 37q0 2 -1.5 8t-1 11.5t4.5 9.5q3 3 0 10 q-6 14 -2 35q2 4 2 21q0 10 2 14q0 3 1.5 9.5t2 9.5t-0.5 8t-5 10v8v55q2 23 2 64q0 3 1 5t1 5v20v11q3 8 3 25t1 20v43q0 8 1 24.5t1 24.5q0 4 -2 13t-2 13q0 2 3.5 15.5t-1.5 15.5q-1 3 0.5 9t1.5 8q0 7 -1 18t-1 18q0 50 10 80q-8 78 0 97q3 10 8 10q0 7 -5.5 30.5 t-4.5 32.5q0 3 9 64.5t9 64.5q-1 6 -7 23t-5 26q0 40 2 58l4 16q9 18 -12 15q-2 0 -4 -1t-5 -2t-5 -2q-13 -4 -19 0.5t-4 18.5q0 7 4 35q2 2 2 4q-10 12 0 35l-1 3q-1 3 -1 7q-3 19 17 22q22 7 55 11h27q33 0 49 2q15 3 45 -4q11 -3 14 -21q0 -4 1 -110t1 -109q0 -9 14 -6 q18 4 29 10q6 4 37 8h16q8 0 26.5 1t27.5 1q30 0 57 -12q11 -5 43 -23q12 -6 22 -16l7 -10q21 -30 36 -39q12 -9 15 -18q37 -56 45 -113l8 -31q2 -4 2 -20v-6q3 -11 5 -34.5t5 -35.5q4 -1 2 -18.5t-2 -18.5q4 -28 0 -37q-2 -1 2 -12q0 -2 5 -27q0 -16 -3 -22q0 -8 -2 -8 q-4 -4 -5 -8t0 -11.5t1 -9.5v-41q0 -12 1 -32t1 -32v-14q1 -12 -2.5 -33.5t-3.5 -31.5q0 -11 2 -13q7 -10 -2 -24q-4 -16 -4 -17q3 -30 -12 -57q-3 -8 -7 -25.5t-7 -25.5q-1 -3 -4.5 -6.5t-4.5 -6.5l-20 -47q-3 -7 -7 -12.5t-12 -12.5t-10 -9q-42 -42 -49 -50 q-16 -19 -39 -32l-24 -13h-15q-1 0 -3.5 -0.5t-4 -0.5t-3.5 -0.5t-3 -2t-2 -4.5q0 -4 -6 -4q-4 -1 -13.5 -3.5t-12.5 -2t-13 3.5l-5 -1q-5 -1 -8 -1q-21 -4 -26 -2q-5 0 -29 6q-5 3 -16 7t-15 7q-17 14 -34 11q-6 -36 0 -70q0 -4 -2 -6q-9 -28 0 -49v-19q0 -11 -1 -32 t-1 -33q0 -29 -3 -56l-4 -16v-31q0 -4 11 -4h32q5 0 11 -6q10 -15 14 -47q0 -3 2 -7t2 -7q3 -12 0 -21q-9 -33 -45 -33h-12q-5 0 -12.5 -0.5t-13 -0.5t-9.5 1q-12 2 -37 -2l-53 -4q-7 0 -19.5 -3t-19.5 -3q-22 0 -43 6q-2 0 -12 13q-5 11 -5 31v22zM273 417.5 q-3 -22.5 1 -26.5q1 -7 0 -21.5t0 -21.5q0 -13 3 -38.5t4 -33.5v-26q0 -10 20 -35q27 -27 49 -39q7 -3 20.5 -6t20.5 -6q32 -13 62 10q4 3 18 10q13 3 16 17l11 12q2 2 4 6q-6 11 6 23q3 4 6 11t6 11q3 3 4 11.5t4 11.5q3 4 2 11.5t2 10.5q2 4 2.5 19.5t8.5 23.5v10 q-2 2 -2 7q4 28 4 37l4 26v39q1 5 4.5 18t3.5 21q3 22 0 47q0 3 -1 7t-1 7q-2 16 -2 54q0 12 2 14q4 10 0 41q-3 11 -6 34.5t-6 35.5h2l-4 28q-3 9 -27 64q-1 3 -4 13.5t-7 16t-11 9.5l-3 2q-4 6 -11.5 15.5t-8.5 10.5l-12 9l-29 4q-6 4 -20 1.5t-19 -3.5t-18.5 -6t-18.5 -7 q-24 -10 -33 -28q-1 -1 -8 -21q-13 -29 -16 -35q-1 -4 -1 -11t-1 -11q0 -9 -4 -29q0 -3 -1 -5t-1 -5t-1 -7t-1 -7q2 -14 1.5 -20.5t-3.5 -18t-4 -17.5v-22q0 -2 1.5 -5.5t1.5 -6t-3 -5.5q-9 -9 0 -24q2 -2 2 -11q0 -8 -1 -25.5t-1 -25.5q0 -15 -3 -24q0 -7 -1 -22.5 t-1 -22.5q0 -3 2.5 -6.5t2.5 -6.5q-3 -7 -3 -41q0 -4 -3 -26.5z" />
<glyph unicode="&#xff;" horiz-adv-x="817" d="M64 992q-2 47 4 50q7 12 14 14.5t29 2.5q137 4 206 -2q3 -52 0 -101q-4 -1 -10 -1t-13.5 0.5t-12.5 0.5q1 -28 -3 -78t-4 -55q0 -53 9 -198.5t16 -192.5q1 -10 3.5 -37t4.5 -41t8 -35t15 -38q12 -26 36.5 -48t47.5 -22t50 20.5t38 36.5q9 14 15.5 31.5t9 30.5t5.5 34 t5 31q6 26 1.5 257.5t-10.5 275.5v8q-38 -3 -45 14q-7 15 0 92q40 9 84 9q52 9 107 0h22q23 3 29.5 0.5t13.5 -21.5q3 -8 6 -33.5t11 -38.5q-23 -2 -60 -2q7 -34 3 -174t-3 -174l4 -131q3 -54 -2.5 -150.5t-5.5 -131.5q0 -39 -4 -117q-2 -86 -49 -203q-26 -67 -75.5 -115.5 t-112.5 -52.5q-38 -4 -84 10t-82 41q-33 26 -45 45q-14 23 -10 55t26 50q42 33 82 33q17 1 28.5 -4t24.5 -15.5t23 -15.5q44 -26 75 17.5t31 92.5q-67 -31 -133.5 -21t-124.5 58q-30 26 -51 60.5t-33.5 79t-18 76.5t-12.5 85q-5 35 -8.5 70.5t-4.5 80t-1.5 68t0 80t0.5 70.5 q0 13 -3 91.5t-3 123.5q-30 -3 -61 0q0 7 -2 54zM254 1192q1 26 17 53t40 37q36 16 70 -18q18 -17 13 -41t-17.5 -43.5t-28.5 -32.5q-47 -12 -71 3.5t-23 41.5zM465 1182q-23 41 12 74q33 31 74 21q34 -9 51 -46q20 -48 -22 -72q-26 -18 -62 -11.5t-53 34.5z" />
<glyph unicode="&#x152;" horiz-adv-x="1161" d="M63.5 1105.5q0.5 29.5 4.5 57.5q8 79 47 172q13 33 39 70q8 9 18.5 17t17.5 12t21.5 12t21.5 12q31 20 71 36.5t85 28t89 6.5t73 -28q15 -11 43 -27t47 -31t33 -38q14 -25 23.5 -52t20.5 -73t13 -55q19 -90 19 -176q4 -140 10 -213q3 -32 2 -94t2 -91q4 -30 0.5 -101.5 t-2.5 -98.5q6 -106 -41 -209q-62 -136 -123 -197q-10 -9 -22.5 -16.5t-22.5 -12t-26 -8t-25 -5t-27.5 -2.5t-25.5 -1h-27.5h-24.5q-48 0 -112 23q-22 8 -54 30t-45 29q-4 10 -11 19.5t-17 19.5t-15 16q-6 10 -9 22t-5 27t-4 23q-17 101 -25 184q-17 163 -28 398 q-1 23 -2.5 62t-2.5 70.5t-1 59.5q0 17 -1.5 55t-1 67.5zM215 780q0 -18 1.5 -45.5t6.5 -48.5q13 -57 15 -170t10 -162q13 -83 63 -130.5t129 -28.5q73 16 119 79.5t59 143.5q24 161 0 364q-7 56 -11.5 174t-12.5 181q-13 105 -47 139q-29 29 -70.5 43.5t-83.5 9.5 q-72 -4 -112 -55t-54 -127q-7 -35 -10 -86q-1 -32 0.5 -95t1.5 -85q0 -11 -2 -47t-2 -54zM487 123q-1 -17 2 -40.5t3 -37.5q1 -8 0.5 -14.5t1.5 -12.5t8 -10q4 -3 11.5 -3.5t19 0.5t14.5 1q7 0 92.5 1t103.5 1q15 0 49.5 -1.5t53.5 -2t47.5 0t52.5 3.5q25 1 35 2t26.5 5.5 t25.5 15t14 28.5q4 23 -1 67.5t-10 49.5q0 1 -4 33.5t-4 46.5q-5 42 -8 49q-34 3 -82 -8q-40 0 -45 -4q-7 -10 -6.5 -20t4.5 -29t4 -25l4 -33h-27.5h-31t-28 0.5t-30 2t-26 4t-25.5 6.5q-11 205 2 393q31 12 100 14t99 10q20 6 22.5 75.5t-16.5 82.5q-33 3 -66.5 0t-73 -9.5 t-61.5 -8.5q-4 26 -6 53t-2.5 59t-0.5 51.5t1.5 59t1.5 53.5q0 13 1 46t0.5 56.5t-3.5 45.5q-1 10 -2.5 29.5t-2.5 31t0.5 28.5t6.5 31q78 12 217 0q0 -5 -1 -17t-1.5 -17.5t0.5 -14t4 -12.5t9.5 -8t15.5 -4q61 -3 123 6q5 36 -1.5 121.5t-15.5 97.5q-84 7 -191.5 4 t-243.5 -9.5t-138 -6.5q0 -6 -3 -33.5t-3 -40.5q3 -39 16 -68q4 0 17 1t20 1q0 -5 3 -37.5t3 -50.5q3 -188 0 -376q0 -78 -1 -230.5t-1 -226.5q0 -27 -1 -83t-1 -83q0 -29 -2 -43h-20q-3 0 -12 1.5t-16 1.5t-11 -3q-4 -4 -6 -12t-2 -19.5t-1 -15.5z" />
<glyph unicode="&#x153;" horiz-adv-x="1165" d="M72 709q33 201 141 264q162 102 311 18q110 -61 135 -315q1 -24 1 -50v-46.5t-2 -50t-3 -46t-4.5 -49.5t-5 -45.5t-5.5 -50t-5 -47.5q-5 -55 -10 -86.5t-18.5 -76t-40 -74.5t-66.5 -48q-9 -4 -19.5 -7t-18.5 -5t-21 -2.5t-19 -0.5t-21.5 1t-19 1.5t-21.5 2.5t-20 2 q-97 10 -164 57q-4 -2 -10 3.5t-13 16.5t-9.5 16.5t-6.5 12.5q-18 30 -28 68q-14 43 -27 154q-29 253 -10 383zM195 477q0 -158 28 -233q33 -84 146 -109q104 -20 123 117q4 40 16.5 125.5t15.5 132.5q0 13 1 49.5t1 59.5t-2.5 60.5t-7.5 62.5t-16.5 54t-28 45.5t-42 27.5 t-58.5 10l-4 -5q-89 -7 -131 -163q-39 -134 -41 -234zM502 569q0 66 8.5 129.5t31.5 131t58 117.5t92.5 82t130.5 32q42 0 76 -11.5t57 -28t40.5 -44.5t27 -52t16.5 -60t9.5 -59t5.5 -58q10 -92 10 -170q0 -38 -2 -56q0 -16 -107 -16h-47q-20 -2 -91 -11.5t-107 -9.5h-19 q-24 0 -24 -10q0 -1 -0.5 -24t-0.5 -42t2 -51t6 -56.5t13.5 -53t23 -47t35 -31t48.5 -12.5q32 0 68.5 16t43.5 43q3 28 -26.5 63t-32.5 56q-7 45 37 64t88 10q40 -7 72.5 -35t50.5 -66q8 -19 8 -49q-2 -84 -94 -184q-42 -42 -102.5 -65t-121.5 -23q-284 0 -284 581zM672 659 q41 -8 100 -8q50 0 152 13q4 28 4 30q0 20 -13 74q-31 131 -96 131q-129 0 -147 -240z" />
<glyph unicode="&#x178;" horiz-adv-x="915" d="M62 1439q-3 9 1 13q17 2 77 4.5t112.5 3.5t52.5 0q43 0 53 -10q4 -4 16.5 -34t12.5 -36q-3 -21 -49 -24q137 -436 145 -441q66 177 146 437q-16 -2 -47 -2q3 12 -8.5 49t-4.5 47q5 7 64.5 10.5t117.5 2.5t58 -5q29 0 37 -20q5 -16 4 -48.5t4 -48.5q-12 0 -38 -1t-38 -1 l-16 -51q-5 -22 -53.5 -184t-92 -312.5t-43.5 -171.5q0 -1 0.5 -33t0.5 -74.5v-101v-113.5t-1 -111t-2 -95q10 3 17 0.5t14 -18.5q24 -54 21 -86q-12 4 -25.5 5.5t-31 0.5t-27 -2t-31 -4t-25.5 -4t-18 -4t-24 -4.5t-21.5 -1.5t-18.5 6t-8 18q-3 12 1 46t12 42q11 8 38 8 q0 41 2.5 114t2.5 85q0 41 -6.5 158.5t-10.5 156.5q-8 63 -37 125q-15 32 -76 195.5t-86 238.5q-8 27 -24.5 70.5t-22.5 60.5l-20 54q-4 -2 -21 -2q-18 -5 -24.5 -4.5t-16.5 10.5q-6 8 -13.5 27.5t-10.5 25.5q-2 3 -7 11t-6.5 11t-4.5 12zM324 1589q1 26 17 53t40 37 q36 16 70 -18q18 -17 13 -41t-17.5 -43.5t-28.5 -32.5q-47 -12 -71 3.5t-23 41.5zM535 1579q-23 41 12 74q33 31 74 21q34 -9 51 -46q20 -48 -23 -72q-26 -18 -61.5 -11.5t-52.5 34.5z" />
<glyph unicode="&#x2c6;" horiz-adv-x="643" d="M72 1366q-18 22 0 43l75 74l107 100q7 7 21.5 16.5t21.5 16.5l18 10q16 9 31 -6q119 -122 234 -203q5 -3 22 -20q16 -16 0 -29q-53 -49 -84 -72q-14 -14 -26 0l-23 17l-107 98q-2 2 -7.5 7t-10.5 8t-12 6q-13 -10 -38.5 -27.5t-44 -32t-34.5 -29.5l-29 -26l-16 -17 q-14 -10 -20 -9t-19 12q-45 45 -59 63z" />
<glyph unicode="&#x2dc;" horiz-adv-x="745" d="M84.5 1500q0.5 33 24.5 63q48 54 125 60t137 -34q55 -41 102 -41q10 1 17 2.5t12 7.5t6.5 8.5t6.5 14.5t7 16q12 30 48.5 37t64.5 -6q36 -11 49 -46t2 -73q-2 -2 -2 -8q-10 -26 -35.5 -53t-50.5 -39q-28 -14 -70 -14q-67 4 -98 18q-13 6 -33.5 18t-36 21t-37.5 17.5 t-36.5 7.5t-34.5 -9q-10 -7 -23.5 -27.5t-28 -32t-36.5 -7.5q-35 8 -57.5 37t-22 62z" />
<glyph unicode="&#x2000;" horiz-adv-x="984" />
<glyph unicode="&#x2001;" horiz-adv-x="1969" />
<glyph unicode="&#x2002;" horiz-adv-x="984" />
<glyph unicode="&#x2003;" horiz-adv-x="1969" />
<glyph unicode="&#x2004;" horiz-adv-x="656" />
<glyph unicode="&#x2005;" horiz-adv-x="492" />
<glyph unicode="&#x2006;" horiz-adv-x="328" />
<glyph unicode="&#x2007;" horiz-adv-x="328" />
<glyph unicode="&#x2008;" horiz-adv-x="246" />
<glyph unicode="&#x2009;" horiz-adv-x="393" />
<glyph unicode="&#x200a;" horiz-adv-x="109" />
<glyph unicode="&#x2010;" horiz-adv-x="884" d="M102 649v125q0 25 9 31q2 2 12 2l141 -4h430q32 -3 60 -10q6 0 18 -9q6 -3 6 -22q4 -94 4 -133t-14 -39q-31 0 -45 2q-5 0 -78.5 3.5t-160 9t-111.5 9.5q-18 0 -103.5 1t-101.5 1q-22 0 -27 -4q-7 -2 -10 -2t-10 2.5t-10 3.5q-9 0 -9 33z" />
<glyph unicode="&#x2011;" horiz-adv-x="884" d="M102 649v125q0 25 9 31q2 2 12 2l141 -4h430q32 -3 60 -10q6 0 18 -9q6 -3 6 -22q4 -94 4 -133t-14 -39q-31 0 -45 2q-5 0 -78.5 3.5t-160 9t-111.5 9.5q-18 0 -103.5 1t-101.5 1q-22 0 -27 -4q-7 -2 -10 -2t-10 2.5t-10 3.5q-9 0 -9 33z" />
<glyph unicode="&#x2012;" horiz-adv-x="884" d="M102 649v125q0 25 9 31q2 2 12 2l141 -4h430q32 -3 60 -10q6 0 18 -9q6 -3 6 -22q4 -94 4 -133t-14 -39q-31 0 -45 2q-5 0 -78.5 3.5t-160 9t-111.5 9.5q-18 0 -103.5 1t-101.5 1q-22 0 -27 -4q-7 -2 -10 -2t-10 2.5t-10 3.5q-9 0 -9 33z" />
<glyph unicode="&#x2013;" horiz-adv-x="802" d="M61 649v125q0 25 9 31q2 2 12 2l141 -4h430q33 -3 60 -10q6 0 18 -9q6 -3 6 -22q4 -94 4 -133t-14 -39q-31 0 -45 2q-5 0 -78.5 3.5t-160 9t-111.5 9.5q-18 0 -103.5 1t-101.5 1q-22 0 -27 -4q-7 -2 -10 -2t-10 2.5t-10 3.5q-9 0 -9 33z" />
<glyph unicode="&#x2014;" horiz-adv-x="1236" d="M64.5 746.5q-2.5 34.5 1.5 46.5q6 6 14 9.5t14.5 3.5h17.5t17 1q36 4 53 4q21 3 43.5 4t50 1t43.5 1q183 0 279 -2q105 0 313 -12q47 -2 146 -2q10 0 33.5 -1.5t41 -1t33.5 4.5q6 -15 7.5 -33.5t0 -46.5t-1.5 -35q0 -6 2.5 -31t1 -43t-9.5 -28q-115 0 -328 26.5 t-307 30.5q-109 6 -321 -6l-76 -4q-5 0 -18 -2t-23.5 -2t-17.5 4q-4 2 -6 7.5t-2.5 14t-0.5 16.5t0.5 17t0.5 12q1 12 -1.5 46.5z" />
<glyph unicode="&#x2018;" horiz-adv-x="315" d="M66 1417q5 5 11.5 28.5t20.5 33.5q7 16 20.5 27.5t31.5 2.5q8 -10 5 -19t-5.5 -12t-11 -9t-11.5 -9q-18 -20 -21 -69q13 5 20.5 22t14.5 21q20 12 45 8q35 0 53 -27t15 -61t-23 -56q-30 -37 -64.5 -38.5t-58.5 22t-37 61.5t-5 74z" />
<glyph unicode="&#x2019;" horiz-adv-x="299" d="M67 1410q-11 41 11 73q21 34 55.5 34.5t63 -24.5t36.5 -59q9 -46 -10 -97q-14 -33 -22 -43q-1 -1 -4.5 -5.5t-5 -6l-5.5 -5.5t-6 -5t-5.5 -3.5t-6.5 -3t-6.5 -0.5t-7 1t-7.5 4q-3 23 25 56.5t23 62.5q-2 -2 -9 -7.5t-10 -8t-11 -7.5t-13 -5.5t-15 -2.5t-18 2 q-41 9 -52 50z" />
<glyph unicode="&#x201a;" horiz-adv-x="315" d="M63 123q5 41 49.5 63t84.5 -2q48 -38 55 -94q4 -84 -47 -117q-48 -29 -66 -24q-15 24 -12 35q4 3 37 14q28 12 31 49q-31 -16 -61.5 -10.5t-52 30.5t-18.5 56z" />
<glyph unicode="&#x201c;" horiz-adv-x="522" d="M63.5 1411.5q9.5 54.5 38.5 83.5q28 28 60 51q7 4 22.5 -7.5t20.5 -25.5q-7 -6 -21.5 -17.5t-20 -17t-14.5 -15t-14.5 -20t-9.5 -24.5q29 23 72 2q40 -32 32 -88q-3 -19 -16 -35q-40 -22 -61 -24q-53 -5 -75.5 39t-13 98.5zM270 1378q-4 82 47 115q45 34 64 25 q20 -25 12 -35q-7 -5 -35 -15q-27 -12 -30 -49q43 28 89.5 0t41.5 -73q-4 -44 -48 -64.5t-85 0.5q-54 39 -56 96z" />
<glyph unicode="&#x201d;" horiz-adv-x="468" d="M64.5 1480.5q8.5 31.5 29.5 59.5q25 23 62 15t51 -39q29 -72 8 -144q-12 -35 -20 -49q-13 -17 -39 -25q-30 -9 -29 20v5q0 12 18 28t15 35q-23 -11 -50 -4t-40 31q-14 36 -5.5 67.5zM251 1494q14 53 46 65q42 16 78 -26t31 -85q-11 -100 -48 -135q-8 -8 -29.5 -22.5 t-31.5 -14.5q-24 10 -21 33q2 13 32.5 33t27.5 44q-8 0 -16 1t-13 2t-13 4.5t-11.5 5.5t-12.5 7t-12 7q-21 28 -7 81z" />
<glyph unicode="&#x201e;" horiz-adv-x="468" d="M64.5 94.5q8.5 31.5 29.5 59.5q25 23 62 14.5t51 -39.5q29 -72 8 -143q-12 -35 -20 -49q-13 -17 -39 -25q-30 -9 -29 20v5q0 12 18 28t15 35q-23 -11 -50 -4t-40 31q-14 36 -5.5 67.5zM251 107.5q14 52.5 46 64.5q42 16 78 -26t31 -85q-11 -100 -48 -135 q-8 -8 -29.5 -22.5t-31.5 -14.5q-24 10 -21 33q2 13 32.5 33.5t27.5 44.5q-8 0 -16 1t-13 2t-13 4.5t-11.5 5.5t-12.5 7t-12 7q-21 28 -7 80.5z" />
<glyph unicode="&#x2022;" horiz-adv-x="413" d="M64 841q5 30 16 50q24 42 57 53q34 13 78 8.5t74 -26.5q52 -30 61 -88q8 -64 -45 -103q-57 -34 -133 -24q-27 0 -40.5 5t-31.5 23l-7.5 7.5l-7 7t-6 6.5t-5.5 7.5t-4.5 8t-3.5 10.5q-7 25 -2 55z" />
<glyph unicode="&#x2026;" horiz-adv-x="702" d="M66 47q-13 34 8.5 64.5t66.5 35.5q-2 -2 -8 -2h6q62 8 83 -41q18 -41 -6 -78q-31 -46 -93 -26q-44 13 -57 47zM287 53q1 26 17 53t40 37q36 16 70 -18q18 -17 13 -41t-17.5 -43.5t-28.5 -32.5q-47 -12 -71 3.5t-23 41.5zM498 43q-23 41 12 74q33 31 74 21q34 -9 51 -46 q20 -48 -23 -72q-26 -18 -61.5 -11.5t-52.5 34.5z" />
<glyph unicode="&#x202f;" horiz-adv-x="393" />
<glyph unicode="&#x2039;" horiz-adv-x="634" d="M65 571q-7 34 9 56q143 200 252 366q8 12 21.5 34t22 35t22.5 30.5t28 31.5q18 18 38.5 17.5t36.5 -10.5t39 -27t37 -23q4 -15 -153.5 -245t-157.5 -254q0 -31 127 -238t162 -242q-4 -13 -28 -46.5t-38 -47.5q-41 -37 -88 21q-20 22 -51.5 68t-67.5 104.5t-64.5 105.5 t-59 99t-33.5 57q-46 74 -54 108z" />
<glyph unicode="&#x203a;" horiz-adv-x="632" d="M61 1092q4 17 49 40t70 23q20 0 195 -271.5t192 -305.5q5 -10 2 -25t-2 -21q-48 -69 -157.5 -252.5t-128.5 -220.5l-15 -30t-24 -33q-10 -4 -21 -4.5t-22.5 2.5t-22 6.5t-23 10.5t-20.5 12t-19.5 12t-15.5 10q-7 15 57.5 130t136 231t73.5 124q12 32 -85.5 202 t-160.5 233q-4 9 -28.5 53.5t-29.5 73.5z" />
<glyph unicode="&#x205f;" horiz-adv-x="492" />
<glyph unicode="&#x20ac;" horiz-adv-x="782" d="M63.5 411.5q0.5 41.5 0.5 55t2 60t2 55.5q4 111 1.5 201t5 198t29.5 197q75 287 287 307q69 3 144.5 -31t128.5 -98.5t53 -136.5l-2 -2q4 -28 4 -43q4 -46 -29 -79t-82 -46q-51 -15 -96 16q-13 8 -18.5 22.5t-6 22.5t-0.5 31q0 13 12 65.5t3 77.5q-9 9 -15 12 q-77 51 -139 -2q-34 -27 -56.5 -62.5t-33 -82.5t-14 -79.5t-6.5 -88.5q-10 -234 -7 -430q0 -9 -0.5 -55t0 -64.5t3.5 -58.5t10 -63.5t20.5 -51.5t32.5 -47q26 -28 61 -40.5t66 -2.5q53 16 92 100q7 15 17 22.5t25 8.5t26 0t30.5 -5t28.5 -5q52 -6 64 -19q5 -5 6 -11.5 t-2.5 -15.5t-6 -14t-9.5 -15t-7 -11q-28 -43 -47.5 -69t-49.5 -57.5t-65 -49t-77 -23.5q-71 -10 -143 16.5t-128 79.5q-22 20 -40 42.5t-30 50.5l-21 49t-13.5 56.5t-7.5 53.5t-2.5 59.5zM158 542.5q-4 38.5 4 67.5q3 11 11.5 15.5t15.5 4.5t18.5 -1.5t15.5 -1.5 q28 -5 131 -2t221 1.5t121 -12.5q4 -36 4 -67q0 -60 -12 -60q-385 0 -516 17q-10 0 -14 38.5zM160.5 817q-0.5 31 4 62.5t11.5 31.5q51 3 228 -4t296 13q11 -2 9 -66t-9 -76q-41 0 -210.5 4t-323.5 4q-5 0 -5.5 31z" />
<glyph unicode="&#x2122;" horiz-adv-x="1032" d="M66 1571q-5 34 4 80q6 26 39 26q17 0 48 -1t46 -1q23 0 68 1t69 1q1 0 18.5 0.5t18.5 -0.5q26 -3 29 -28q4 -50 4 -72q3 -31 -27 -31h-29q-18 0 -32 -2l-3 -15t-2 -16v-59q5 -231 7 -252q3 -21 8 -125q0 -37 -2 -53q0 -23 -21 -29q-23 -7 -53 -6.5t-53 15.5l-6 8 q2 23 2 71v109q-5 113 -4 131q3 42 -2 117.5t-5 101.5l-1 2q-1 2 -1 6q-18 4 -80 4h-20q-17 0 -20 17zM458.5 1538.5q3.5 84.5 2.5 114.5q0 1 1 3t1 3q2 1 7.5 4.5t8.5 3.5q15 0 46 -1t48 -1l123 -270q25 25 75.5 114t62.5 131q46 16 90 13q26 0 26 -29q4 -82 4 -123 q-6 -123 -6 -125q0 -65 2 -98q2 -53 13 -137l8 -121q0 -31 -25 -31q-66 -4 -94 -4h-21q-13 3 -16 16q-4 20 -4 27q0 20 1 58t1 57q0 24 -3 71t-3 58q-8 -12 -13 -25t-9.5 -31t-6.5 -24q-14 -34 -24 -74q-10 -6 -20.5 -7t-22.5 1t-17 2q-9 20 -34.5 84t-45.5 100 q-2 -14 -2 -26v-82q0 -8 -1 -28t-1 -32v-77q0 -5 -6 -47q-3 -21 -22 -21l-103 -4q-1 0 -4 2.5t-6 3.5q0 3 -1 12t-1 13q-8 79 -7 205.5t-1 203.5q-4 33 -0.5 117.5z" />
<glyph unicode="&#x25fc;" horiz-adv-x="1075" d="M0 0v1075h1075v-1075h-1075z" />
<glyph unicode="&#xfb01;" horiz-adv-x="950" d="M63 930l7 28q0 11 -2 13q-2 20 10 55q7 18 31 18l57 7q11 -4 30 2t21 6q9 0 12 12q2 6 2 25q0 4 -1 11t-1 11v8q1 3 4 13.5t3 15.5q0 3 -2.5 8t-2.5 8l5 31q0 3 2 7.5t2 7.5l6 55l6 22q3 37 22 68q3 5 6.5 9.5t7 7.5t8 7t7.5 7q28 32 92 59q96 35 125 33l58 -10 q21 -8 47 -5q6 1 15 -4t19.5 -13t12.5 -9q6 -3 15.5 -11.5t17.5 -9.5q24 -3 38 -20q6 -6 5 -6q10 -3 16 -19q8 -8 15.5 -25t8.5 -18q1 -2 2 -5t2 -4.5t1 -2.5q4 -28 4 -29q1 -4 -4 -24l-7 -21q0 -8 -2 -10q-3 -2 -8.5 -8t-11 -9.5t-12.5 -4.5q-4 0 -9 -5q-16 -16 -45 -16 q-21 0 -57 4q-32 4 -41 27q-3 4 -4 8.5t-1 10.5t-1 9q-1 4 -9.5 17.5t-9.5 21.5q-2 4 -4 16q-5 21 -10 20q-3 0 -6 -3q2 3 -7 8q-35 16 -75 6q-31 -7 -45 -32q-1 -3 -8 -7.5t-8 -7.5l-19 -37q-28 -31 -22 -75q1 -6 -0.5 -17t-1.5 -14l-4 -35v-20q0 -4 -1.5 -11.5t-1.5 -11.5 q-3 -13 13 -16h18h15q4 0 -2 1h-2q-6 1 -5 1q27 4 33 2q13 0 33 -4q2 0 8 -6q3 -1 4 -3.5t4 -3.5q13 -18 15 -26q4 -16 4 -21l-6 -39v-8q8 -29 -29 -32q-9 -1 -28.5 -1.5t-30.5 -1.5q-6 0 -6 -1q-5 -3 -7 -3h-16q-2 0 1 -2q4 -3 1 -6q-9 -19 0 -41q2 -6 2 -24v-66 q0 -8 -1.5 -30t-0.5 -35q5 -41 4 -50q0 -21 -4 -75q0 -9 2 -11q7 -12 2 -45q0 -3 1 -7t1 -7t1 -6t1 -6q2 -23 2 -70q0 -3 -1 -8t-1 -8q-3 -16 0 -25q2 -2 2 -4q-4 -33 -2 -49q0 -4 -2 -13.5t-2 -18t4 -15.5q3 -3 3.5 -7t-0.5 -10t-1 -8q0 -5 -1 -17t-0.5 -21t3.5 -17 q1 -7 -4 -41q0 -5 1 -15.5t1 -15.5v-16q1 -8 8 -27q0 -2 4 -2l35 6q7 12 12 -12q3 -13 3 -23q-3 -13 4 -36q3 -27 -19 -33q-20 -4 -28 -4q-3 -1 -8 0.5t-7 1.5q-16 0 -22 -2q-3 0 -5.5 -1t-5.5 -1l-77 6l-56 8h-28q-15 0 -21 16q-4 7 -1.5 23.5t1.5 21.5q0 7 10 17 q12 12 23 8q6 0 6 6v29q0 35 -2 53q0 4 -2 14t-2 15q-2 4 -2 18v23q0 3 -3.5 21.5t1.5 21.5v8v31l-4 14v8v27v26q0 11 -1 32t-1 32q0 4 -1 12.5t-1 12.5v30q3 9 0 31v53q0 17 -4 49q0 3 1 9.5t1 9.5l4 16q0 11 -4 39q0 13 -1 36t-1 34q0 1 0.5 2t1.5 3.5t2 4.5q0 3 1 6t1 6 q0 5 -1 16t-1 19q0 7 2 17.5t2 17.5q0 12 -13 12h-55q-3 0 -7 -1t-7 -1q-20 -4 -29 -4q-32 -3 -29 33zM532.5 61.5q1.5 13.5 12.5 22.5q10 7 24 10t36.5 3.5t25.5 0.5q-6 27 -10 80q-8 88 -3 352q5 246 5 267l-7 139v8h-49q-1 5 -15.5 39t-10.5 57q163 25 200 25q9 0 34 2 t44 1t33 -7q-3 -10 -5 -37.5t-9.5 -40.5t-26.5 -18l-16 -4q0 -7 -1 -21.5t-1 -21.5q-1 -61 -9.5 -178t-9.5 -134q-4 -82 -4 -235.5v-188.5q0 -5 -3 -33.5t-3 -46.5q59 3 131 -18q0 -12 5.5 -46t2.5 -54q-7 -4 -17 -4.5t-23.5 1t-18.5 1.5q-25 1 -70.5 -3.5t-58.5 -5.5 q-108 -4 -162 2q0 13 -5.5 31t-11 30t-4 25.5z" />
<glyph unicode="&#xfb02;" horiz-adv-x="710" />
</font>
</defs>
</svg>
